<svg xmlns="http://www.w3.org/2000/svg" viewBox="0 0 229.52 252.83"><defs><style>.cls-1{isolation:isolate;}.cls-2,.cls-5{fill:#231f20;}.cls-2{opacity:0.3;}.cls-10,.cls-19,.cls-2,.cls-5,.cls-6{mix-blend-mode:soft-light;}.cls-3{fill:#f4b008;}.cls-4{fill:#0f3c47;}.cls-10,.cls-19,.cls-6{fill:#fff;}.cls-12,.cls-17,.cls-7{fill:#3f616f;}.cls-17,.cls-7{stroke:#000;stroke-width:2px;}.cls-7{stroke-miterlimit:10;}.cls-8{fill:#e6e7e8;}.cls-9{fill:#193441;}.cls-10{opacity:0.4;}.cls-11{fill:#27aae1;}.cls-13{fill:#798987;}.cls-14{fill:#1c75bc;}.cls-15{fill:#0c546d;opacity:0.23;}.cls-16{fill:#114060;opacity:0.17;}.cls-17{stroke-linecap:round;stroke-linejoin:round;}.cls-18{fill:#a73e5c;}.cls-19{opacity:0.55;}</style></defs><title>1_electricity</title><g class="cls-1"><g id="Layer_2" data-name="Layer 2"><g id="OBJECTS"><path class="cls-2" d="M111.76,210.87s52.18-3.33,68,10S162.44,256,86.72,252.44s-52.34-23.55-79.37-27S30.65,203.68,111.76,210.87Z"/><path class="cls-2" d="M107.88,214.79s42-2.69,54.82,8.06-14,28.3-75,25.43-42.16-19-63.93-21.77S42.54,209,107.88,214.79Z"/><path class="cls-3" d="M56,223.14l-17.87,11.4s20.29-2.61,29.41,9.93l6.27-13.67Z"/><path class="cls-3" d="M116,231.3,127.68,247s11.19-10.6,26.4-10.44l-17.85-12.27Z"/><path class="cls-4" d="M37.74,116.18s-11.26,3.6-13,12.35a49,49,0,0,0-1,14.51s-.47,4.29-5.7,3.48-7.44-8.63-8-19.17,8.93-29.2,22.36-34.93S37.74,116.18,37.74,116.18Z"/><path class="cls-5" d="M14.13,139.47S4.59,116,28.65,97.19l3,11.87s-18.22,12.6-13.4,30.78C18.26,139.84,17.52,144.18,14.13,139.47Z"/><path class="cls-6" d="M22.39,143.12s.15,2-2.56,2.59-6.07-1.45-4.58-2.44,5,0,5.37-1.49-2.2-10.82,3.71-19.73c0,0,5.89-6.83,8.7-9l1.45,3.31S25.3,120.1,23.53,129,22.39,143.12,22.39,143.12Z"/><path class="cls-7" d="M166.43,211.13S199,96.05,151.9,25.19c0,0-53-18.38-93.18.85,0,0-41,76.52-32.49,178.68,0,0,6.84,29.5,61.13,30.78S166.43,211.13,166.43,211.13Z"/><path class="cls-8" d="M88,32.43a10.29,10.29,0,0,0,13.8,1.65c3.75-2.68,8.53-4.73,13.94-3.9,13.11,2,22.51,41.6,17.1,63.55,0,0,29.35,23.36,19.09,74.37S98,234.5,64.13,218s-39-92.11-15.39-122.57c0,0-4.27-23.05,7.27-45.56C65.33,31.65,79.22,22.39,88,32.43Z"/><path class="cls-9" d="M111.66,62.4c-.72,3.7-3.18,6.33-5.51,5.88s-3.62-3.81-2.91-7.51,3.18-6.33,5.51-5.88S112.37,58.7,111.66,62.4Z"/><path class="cls-9" d="M79.36,60.31C78.64,64,76.23,66.62,74,66.18s-3.53-3.78-2.81-7.45,3.12-6.3,5.39-5.87S80.07,56.64,79.36,60.31Z"/><path class="cls-10" d="M148.49,28.31s-47.84-17.09-87.19,0c0,0-6.5,3.38-2.55,7.17S154.71,47.46,148.49,28.31Z"/><path class="cls-5" d="M34.17,127.05s-8,42.89-4.58,75.4c0,0,14.77,28.57,61.32,28.57s69.74-21.68,69.74-21.68,13-34.8,13.08-72.9c0,0-44.49,53.66-91.29,48.74S34.17,127.05,34.17,127.05Z"/><path class="cls-11" d="M73,201.87l22.91-23a1.49,1.49,0,0,0-1.06-2.54H93a1.49,1.49,0,0,1-1.17-2.42L104,158.59a1.48,1.48,0,0,0-1.17-2.41h-6.1a1.49,1.49,0,0,1-1.19-2.39l15.51-20.63a1.49,1.49,0,0,0-1.19-2.39H85.33a1.47,1.47,0,0,0-1.33.83L72,155.86A1.5,1.5,0,0,0,73.34,158h5.53a1.49,1.49,0,0,1,1.33,2.15L72,176.77a1.49,1.49,0,0,0,1.34,2.15h5.21a1.49,1.49,0,0,1,1.34,2.14l-9.26,19.11A1.49,1.49,0,0,0,73,201.87Z"/><path class="cls-12" d="M167.1,104.53s10,4.09,18,1,19.73-13.68,23.79-8,.35,14.63-10.59,25-27.9,8.46-36.64,5.59S159.5,111.08,167.1,104.53Z"/><path class="cls-5" d="M207.81,107.12s-6.8,13.61-16.51,18.27-19.52,5.2-26.65.63-2.31-7-1-7.41S190.54,128.65,207.81,107.12Z"/><path class="cls-6" d="M207.55,102.21S209,100,204.91,98.5s-20,14.61-37.17,7.36l-2,2.94S186.17,121.07,207.55,102.21Z"/><path class="cls-5" d="M207.81,107.12s-6.8,13.61-16.51,18.27-19.52,5.2-26.65.63-2.31-7-1-7.41S190.54,128.65,207.81,107.12Z"/><path class="cls-6" d="M207.72,102s1.45-2.25-2.65-3.7-20,14.61-37.16,7.35l-2,2.94S186.33,120.82,207.72,102Z"/><path class="cls-13" d="M191.49,100.53c.31-3.21,1.75-4.55,1-8-.24-1.15-.33-4-2.83-4h0l-4.51,1.79c0,.12,6.38.86,3.24,25C188.41,115.31,190.18,114.3,191.49,100.53Z"/><path class="cls-11" d="M182.69,87.67c-6.12,1.74-8.51,7.15-16.66,5.45-13.45-2.8-8.82,27.45-9.3,46.59-.63,24.6-2.66,41.77-.59,45.56,2.88,5.26,37.8,6.45,39.09,4.8,1-1.32.63-21.32-.33-59-.16-6.61,2.75-34.83-1.38-39.82C190.06,87.07,186.85,86.49,182.69,87.67Z"/><path class="cls-11" d="M161.56,184.09s0,.23.06.64.1,1,.18,1.65.19,1.5.32,2.35.29,1.76.45,2.67.39,1.77.57,2.61.46,1.54.65,2.19a6.45,6.45,0,0,0,.33.81l.26.62.24.55-.28-.48-.33-.56c-.12-.23-.29-.45-.42-.75-.25-.6-.56-1.3-.87-2.08s-.58-1.64-.83-2.52-.52-1.75-.72-2.6-.41-1.64-.55-2.33-.28-1.27-.36-1.68-.12-.63-.12-.63Z"/><path class="cls-11" d="M167,185.26s0,.23.06.64.09,1,.18,1.66.19,1.49.32,2.35.29,1.75.45,2.66.39,1.77.57,2.61.45,1.55.64,2.19c.1.33.24.57.33.82s.2.45.27.62c.15.35.24.54.24.54s-.11-.17-.29-.48l-.33-.56a8.2,8.2,0,0,1-.41-.75c-.25-.6-.57-1.29-.87-2.07s-.58-1.64-.83-2.52-.52-1.76-.72-2.61-.41-1.63-.56-2.32-.27-1.27-.35-1.68-.13-.63-.13-.63Z"/><path class="cls-11" d="M172.37,186.44s0,.23.06.64.1,1,.19,1.66.18,1.49.31,2.34.29,1.76.45,2.67.39,1.77.57,2.61.46,1.54.65,2.19a6.45,6.45,0,0,0,.33.81l.27.63c.15.34.23.54.23.54l-.28-.48-.33-.56a6.33,6.33,0,0,1-.41-.75c-.25-.6-.57-1.29-.87-2.07s-.59-1.64-.84-2.52-.52-1.76-.72-2.61-.41-1.63-.55-2.32-.27-1.27-.36-1.68-.12-.63-.12-.63Z"/><path class="cls-11" d="M177.78,187.61s0,.24.06.64.1,1,.18,1.66.19,1.49.32,2.35.29,1.75.45,2.66.39,1.77.57,2.62.46,1.54.65,2.19a7.14,7.14,0,0,0,.33.81l.26.62c.16.35.24.55.24.55l-.28-.49-.33-.56a8.08,8.08,0,0,1-.42-.75c-.25-.6-.56-1.29-.86-2.07s-.59-1.64-.84-2.52-.52-1.76-.72-2.6-.41-1.64-.55-2.33-.28-1.27-.36-1.68-.12-.63-.12-.63Z"/><path class="cls-11" d="M183.14,186.76s0,.24.06.64.09,1,.18,1.66.19,1.49.32,2.35.29,1.75.45,2.66.39,1.77.57,2.61.45,1.55.64,2.19a8.69,8.69,0,0,0,.33.82c.11.24.19.45.27.62l.24.54s-.11-.17-.29-.48l-.33-.56a8.2,8.2,0,0,1-.41-.75c-.25-.6-.57-1.29-.87-2.07s-.58-1.64-.84-2.52-.52-1.76-.72-2.61-.4-1.63-.55-2.32-.27-1.27-.36-1.68l-.12-.63Z"/><path class="cls-11" d="M188.54,187.94s0,.23.06.64.1,1,.18,1.66.19,1.49.32,2.34.29,1.76.45,2.67.39,1.77.57,2.61.46,1.54.65,2.19a6.45,6.45,0,0,0,.33.81c.1.24.19.45.27.62l.23.55-.28-.48c-.09-.16-.2-.35-.33-.56s-.29-.45-.42-.75c-.25-.6-.56-1.3-.86-2.07s-.59-1.64-.84-2.52-.52-1.76-.72-2.61-.41-1.64-.55-2.32-.28-1.27-.36-1.68-.12-.64-.12-.64Z"/><path class="cls-11" d="M193.35,187.08s0,.23.06.64.09,1,.18,1.65.19,1.5.32,2.35.29,1.76.45,2.67.39,1.77.57,2.61.45,1.54.64,2.19c.1.32.24.57.33.81s.2.45.27.62l.24.55s-.1-.18-.29-.48l-.32-.56c-.12-.23-.29-.45-.42-.75-.25-.6-.57-1.29-.87-2.07s-.58-1.64-.83-2.52-.52-1.76-.72-2.61-.41-1.64-.56-2.33-.27-1.27-.35-1.68-.13-.63-.13-.63Z"/><path class="cls-11" d="M191.1,187.47s0,.24.06.64.1,1,.19,1.66.18,1.49.31,2.35.3,1.75.45,2.66.39,1.77.57,2.61.46,1.55.65,2.2c.1.32.23.56.33.81s.19.45.27.62l.23.54-.28-.48-.33-.56a6.33,6.33,0,0,1-.41-.75c-.25-.6-.57-1.29-.87-2.07s-.59-1.64-.84-2.52-.52-1.76-.72-2.61-.4-1.63-.55-2.32-.27-1.27-.36-1.68-.12-.63-.12-.63Z"/><path class="cls-11" d="M186,188.37s0,.23.06.64.1,1,.19,1.66.18,1.49.31,2.35.29,1.75.45,2.66.39,1.77.57,2.61.46,1.55.65,2.19a6.64,6.64,0,0,0,.33.82c.1.24.19.45.27.62.15.34.23.54.23.54l-.28-.48-.33-.56a6.33,6.33,0,0,1-.41-.75c-.26-.6-.57-1.29-.87-2.07s-.59-1.64-.84-2.52-.52-1.76-.72-2.61-.41-1.63-.55-2.32-.27-1.27-.36-1.68-.12-.63-.12-.63Z"/><path class="cls-11" d="M180.42,188.92s0,.23.06.64.09,1,.18,1.65.19,1.5.32,2.35.29,1.76.45,2.67.39,1.77.57,2.61.46,1.54.64,2.19c.1.32.24.56.33.81s.2.45.27.62l.24.55-.28-.49c-.1-.15-.21-.34-.33-.56a7.81,7.81,0,0,1-.42-.74c-.25-.61-.57-1.3-.87-2.08s-.58-1.64-.83-2.52-.52-1.75-.72-2.6-.41-1.64-.56-2.33-.27-1.27-.35-1.68-.12-.63-.12-.63Z"/><path class="cls-11" d="M175.48,187.84s0,.23.06.64.09,1,.18,1.66.19,1.49.32,2.35.29,1.75.45,2.66.39,1.77.57,2.61.45,1.54.64,2.19c.1.33.24.57.33.82s.2.44.27.62l.24.54-.29-.48c-.09-.15-.2-.34-.32-.56a8.08,8.08,0,0,1-.42-.75c-.25-.6-.57-1.29-.87-2.07s-.58-1.64-.83-2.52-.52-1.76-.72-2.61-.41-1.63-.56-2.32-.27-1.27-.35-1.68-.12-.63-.12-.63Z"/><path class="cls-11" d="M169.44,185.8s0,.23.06.64.09,1,.18,1.66.19,1.49.32,2.34.29,1.76.45,2.67.39,1.77.57,2.61.45,1.54.64,2.19c.1.32.24.57.33.81s.2.45.27.63l.24.54s-.11-.17-.29-.48l-.33-.56a8.2,8.2,0,0,1-.41-.75c-.25-.6-.57-1.29-.87-2.07s-.58-1.64-.83-2.52-.52-1.76-.72-2.61-.41-1.63-.56-2.32-.27-1.27-.35-1.68-.13-.64-.13-.64Z"/><path class="cls-11" d="M164.5,184.72s0,.24.06.65.09,1,.18,1.65.19,1.5.32,2.35.29,1.76.45,2.67.39,1.77.57,2.61.45,1.54.64,2.19c.1.32.24.56.33.81s.2.45.27.62l.24.55-.29-.49-.32-.55c-.12-.23-.29-.45-.42-.75-.25-.61-.57-1.3-.87-2.07s-.58-1.65-.83-2.53-.52-1.76-.72-2.6-.41-1.64-.56-2.33-.27-1.27-.35-1.68-.13-.63-.13-.63Z"/><path class="cls-11" d="M159,184.26s0,.23.06.64.09,1,.18,1.66.19,1.49.32,2.35.29,1.75.45,2.66.38,1.77.57,2.61.45,1.54.64,2.19a8.69,8.69,0,0,0,.33.82c.1.24.19.44.27.62.15.34.23.54.23.54l-.28-.48-.33-.56a8.2,8.2,0,0,1-.41-.75c-.25-.6-.57-1.29-.87-2.07s-.58-1.64-.84-2.52-.52-1.76-.71-2.61-.41-1.63-.56-2.32-.27-1.27-.36-1.68-.12-.64-.12-.64Z"/><path class="cls-14" d="M156.67,136.15l-.08-8.68c.95-.33,21.19-6.74,38.4-.39l0,9.14C178.87,130.24,156.89,136.07,156.67,136.15Z"/><path class="cls-14" d="M156.4,114.65s0-3.25,0-4.3.23-3.86.23-3.86c.94-.34,21.88-8.5,39.09-2.15,0,0,0,2.48,0,4.21,0,2.69-.14,4.54-.14,4.54C179.41,107.11,156.62,114.57,156.4,114.65Z"/><path class="cls-14" d="M156.06,157.05l.36-7.92c1-.17,25-3.26,39,1.4l.17,7.92C182.28,154,156.31,157,156.06,157.05Z"/><path class="cls-14" d="M155.25,175.93l.27-7.75c1-.14,23.33.88,40.25,2.44l.06,7.6C176.08,178.42,155.49,175.9,155.25,175.93Z"/><path class="cls-15" d="M206.78,113.25c6,1.73,1.77-10.3,9.74-12,13.18-2.8,8.64,27.45,9.12,46.59.61,24.59,4.9,34.54,2.87,38.33-2.82,5.26-38.7,5.87-40,4.22-1-1.32-1.24-13.51-.31-51.19.16-6.61-2.37-26.44,1.77-25.95C192.59,113.55,202.71,112.07,206.78,113.25Z"/><path class="cls-13" d="M194,106.58c-.3-3.21-1.72-4.55-1-8,.24-1.15.33-4,2.78-4h0l4.41,1.79c0,.12-6.25.86-3.17,25C197,121.36,195.29,120.34,194,106.58Z"/><path class="cls-11" d="M202.63,93.72c6,1.73,8.34,7.15,16.32,5.45,13.18-2.8,8.64,27.45,9.11,46.59.61,24.6,2.6,41.77.57,45.56-2.81,5.26-37,6.45-38.28,4.8-1-1.32-.62-21.32.32-59,.16-6.61-2.7-34.83,1.35-39.83C195.41,93.12,198.56,92.54,202.63,93.72Z"/><path class="cls-11" d="M223.33,190.13s0,.24-.06.65-.09,1-.18,1.65-.18,1.49-.31,2.35-.29,1.76-.44,2.67-.38,1.77-.56,2.61-.45,1.54-.63,2.19c-.1.32-.23.56-.33.81l-.26.62-.23.55.28-.49.32-.55c.12-.23.28-.45.41-.75.24-.61.55-1.3.85-2.08s.57-1.64.81-2.52.52-1.76.71-2.6.4-1.64.54-2.33.27-1.27.35-1.68.12-.63.12-.63Z"/><path class="cls-11" d="M218,191.31s0,.23-.06.64-.09,1-.18,1.66-.18,1.49-.31,2.35-.28,1.75-.44,2.66-.38,1.77-.56,2.61-.44,1.55-.63,2.19c-.09.33-.23.57-.32.82l-.26.62-.24.54.28-.48.32-.56a6.33,6.33,0,0,0,.41-.75c.25-.6.56-1.29.85-2.07s.57-1.64.82-2.52.51-1.76.7-2.61.4-1.63.55-2.32.26-1.27.35-1.68.12-.63.12-.63Z"/><path class="cls-11" d="M212.74,192.49s0,.23-.06.64-.09,1-.18,1.66-.18,1.49-.31,2.34-.29,1.76-.44,2.67-.38,1.77-.56,2.61-.45,1.54-.63,2.19a8.42,8.42,0,0,1-.33.81c-.1.24-.19.45-.26.63-.15.34-.23.54-.23.54l.28-.48.32-.56a8.2,8.2,0,0,0,.41-.75c.24-.6.55-1.29.85-2.07s.57-1.64.81-2.52.52-1.76.71-2.61.4-1.63.54-2.32.27-1.27.35-1.68.12-.64.12-.64Z"/><path class="cls-11" d="M207.44,193.66s0,.24-.06.64-.09,1-.18,1.66-.18,1.49-.31,2.35-.29,1.75-.44,2.66-.38,1.77-.56,2.61-.45,1.55-.63,2.2c-.1.32-.23.56-.32.81s-.19.45-.27.62c-.14.35-.23.54-.23.54l.28-.48.32-.56a8.2,8.2,0,0,0,.41-.75c.24-.6.55-1.29.85-2.07s.57-1.64.82-2.52.51-1.76.7-2.61.4-1.63.54-2.32.27-1.27.35-1.68.12-.63.12-.63Z"/><path class="cls-11" d="M202.19,192.81s0,.23-.05.64-.1,1-.18,1.66-.19,1.49-.31,2.35-.29,1.75-.45,2.66-.38,1.77-.55,2.61-.45,1.55-.64,2.19a6.71,6.71,0,0,1-.32.82l-.26.62-.23.54.27-.48.33-.56a8.32,8.32,0,0,0,.4-.75c.25-.6.56-1.29.85-2.07s.58-1.64.82-2.52.51-1.76.71-2.61.4-1.63.54-2.32.27-1.27.35-1.68l.12-.63Z"/><path class="cls-11" d="M196.9,194s0,.23-.06.64-.09,1-.18,1.66-.18,1.49-.31,2.34-.29,1.76-.44,2.67-.38,1.77-.56,2.61-.45,1.54-.63,2.19c-.1.32-.23.57-.32.81s-.19.45-.27.62l-.23.55.28-.48.32-.56c.12-.23.28-.45.41-.75.24-.6.55-1.3.85-2.07s.57-1.64.82-2.52.51-1.76.7-2.61.4-1.64.54-2.32.27-1.27.35-1.68.12-.64.12-.64Z"/><path class="cls-11" d="M192.19,193.13s0,.23-.06.64-.09,1-.18,1.65-.18,1.5-.31,2.35-.28,1.76-.44,2.67-.38,1.77-.56,2.61-.44,1.54-.63,2.19a8.57,8.57,0,0,1-.32.81c-.1.24-.19.45-.27.62-.14.35-.23.55-.23.55l.28-.48.32-.56c.12-.23.28-.45.41-.75.24-.6.56-1.3.85-2.07s.57-1.64.82-2.53.51-1.75.7-2.6.4-1.64.55-2.33.26-1.27.34-1.68.13-.63.13-.63Z"/><path class="cls-11" d="M194.39,193.52s0,.24-.06.64-.09,1-.18,1.66-.18,1.49-.31,2.35-.29,1.75-.44,2.66-.38,1.77-.56,2.61-.45,1.55-.63,2.19c-.1.33-.23.57-.32.82s-.19.45-.27.62c-.14.35-.23.54-.23.54l.28-.48.32-.56a8.2,8.2,0,0,0,.41-.75c.24-.6.55-1.29.85-2.07s.57-1.64.82-2.52.51-1.76.7-2.61.4-1.63.55-2.32.26-1.27.34-1.68.12-.63.12-.63Z"/><path class="cls-11" d="M199.4,194.42s0,.23-.05.64-.1,1-.18,1.66-.19,1.49-.31,2.35-.29,1.75-.44,2.66-.39,1.77-.56,2.61-.45,1.54-.63,2.19c-.1.32-.23.57-.33.82s-.19.44-.26.62c-.15.34-.23.54-.23.54l.28-.48.32-.56a6.38,6.38,0,0,0,.4-.75c.25-.6.56-1.29.86-2.07s.57-1.64.81-2.52.51-1.76.71-2.61.4-1.63.54-2.32.27-1.27.35-1.68.12-.64.12-.64Z"/><path class="cls-11" d="M204.85,195s0,.24,0,.65-.1,1-.18,1.65-.19,1.5-.31,2.35-.29,1.76-.44,2.66-.39,1.78-.56,2.62-.45,1.54-.63,2.19c-.1.32-.23.56-.33.81l-.26.62-.23.55.28-.49.32-.56a6.18,6.18,0,0,0,.4-.74c.25-.61.56-1.3.85-2.08s.58-1.64.82-2.52.51-1.75.71-2.6.4-1.64.54-2.33.27-1.27.35-1.68.12-.63.12-.63Z"/><path class="cls-11" d="M209.69,193.89s0,.23-.06.64-.09,1-.17,1.66-.19,1.49-.31,2.35-.29,1.75-.44,2.66-.39,1.77-.56,2.61-.45,1.54-.64,2.19a6.71,6.71,0,0,1-.32.82c-.1.24-.19.44-.26.62l-.23.54.28-.48c.08-.16.19-.34.32-.56a8.32,8.32,0,0,0,.4-.75c.25-.6.56-1.29.85-2.07s.58-1.64.82-2.52.51-1.76.71-2.61.4-1.63.54-2.32.27-1.27.35-1.68.12-.63.12-.63Z"/><path class="cls-11" d="M215.61,191.85s0,.23-.06.64-.09,1-.18,1.66-.18,1.49-.31,2.34-.28,1.76-.44,2.67-.38,1.77-.56,2.61-.44,1.54-.63,2.19a8.57,8.57,0,0,1-.32.81l-.26.62-.23.55.27-.48.32-.56a7.24,7.24,0,0,0,.41-.75c.25-.6.56-1.29.85-2.07s.57-1.64.82-2.52.51-1.76.7-2.61.4-1.64.55-2.32.26-1.27.34-1.68.13-.64.13-.64Z"/><path class="cls-11" d="M220.45,190.77s0,.24-.06.64-.09,1-.18,1.66-.18,1.49-.31,2.35-.28,1.76-.44,2.66-.38,1.78-.56,2.62-.44,1.54-.63,2.19c-.09.32-.23.56-.32.81s-.19.45-.27.62l-.23.55.28-.49.32-.56a7.92,7.92,0,0,0,.41-.74c.24-.61.56-1.3.85-2.08s.57-1.64.82-2.52.51-1.76.7-2.6.4-1.64.55-2.33.26-1.27.34-1.68.13-.63.13-.63Z"/><path class="cls-11" d="M225.81,190.31s0,.23-.06.64-.09,1-.18,1.66-.18,1.49-.31,2.34-.28,1.76-.44,2.67-.38,1.77-.56,2.61-.44,1.54-.63,2.19a7.61,7.61,0,0,1-.32.81c-.1.24-.19.45-.26.63l-.24.54.28-.48.32-.56a6.33,6.33,0,0,0,.41-.75c.24-.6.56-1.29.85-2.07s.57-1.64.82-2.52.51-1.76.7-2.61.4-1.63.55-2.32.26-1.27.34-1.68.12-.64.12-.64Z"/><path class="cls-14" d="M228.11,142.19l.08-8.67c-.92-.33-20.75-6.74-37.61-.39l0,9.13C206.37,136.29,227.9,142.12,228.11,142.19Z"/><path class="cls-14" d="M228.38,120.7s0-3.25,0-4.3-.22-3.87-.22-3.87c-.92-.33-21.44-8.49-38.3-2.14,0,0,0,2.48,0,4.21,0,2.69.13,4.54.13,4.54C205.84,113.16,228.17,120.62,228.38,120.7Z"/><path class="cls-14" d="M228.71,163.1l-.34-7.93c-1-.16-24.47-3.25-38.17,1.41L190,164.5C203,160.08,228.48,163.06,228.71,163.1Z"/><path class="cls-14" d="M229.51,182l-.26-7.75c-1-.14-22.86.88-39.43,2.44l-.07,7.6C209.1,184.47,229.27,182,229.51,182Z"/><path class="cls-16" d="M212.16,98.19c0,8.31-15,13.15-21.24,13.68-.75.06-1,1.38-1.08,1.38-.9,0-.82.8-1.58.68-3.8-.58-7.09-3.24-10.27-5.1-4.72-2.77-4.67-8.13-4.67-12.7,0-4.3,5.08-6.13,9.34-8.87,4-2.56,5.18-2.93,11.09-2.93C206,84.33,212.16,89.87,212.16,98.19Z"/><path class="cls-14" d="M209.72,96.43c0,8.16-9.8,14.78-21.88,14.78-5.46,0-8-2.11-11.87-4.34-4.65-2.71-4.61-8-4.61-12.45,0-4.22,5-6,9.22-8.71,3.93-2.51,5.12-2.87,11-2.87C203.62,82.84,209.72,88.27,209.72,96.43Z"/><path class="cls-11" d="M177.57,98.21c0-3.31,5.93-5.15,9.19-7.28s3.5-4.46,8.2-4.46c4.33,0,6.38,1.68,9.43,3.45,3.69,2.15,4.82,10.49,1.29,10.09-14.52-1.65-12.59,2.84-15.93,5-3.11,2,6.9,4,2.27,4C182.42,109,177.57,104.7,177.57,98.21Z"/><path class="cls-17" d="M113.1,19.52s1.79-2.14,1.54-7.4a11.47,11.47,0,0,1-7.16,6.42S112.61,14,111.06,1c0,0-.3,12-8,17.31,0,0,2.44-3.19.82-10.19,0,0,.37,6.59-5.13,10.09"/><path class="cls-9" d="M115.71,52.88a8.36,8.36,0,0,0-3-2.46,8.61,8.61,0,0,0-3.5-.9l-.9,0c-.3,0-.61.12-.9.17a11.68,11.68,0,0,1-1.79.23,13.74,13.74,0,0,1-1.94,0,8.7,8.7,0,0,1-2.17-.13h0a.17.17,0,0,1-.14-.2l0-.07A7.71,7.71,0,0,1,103.05,48a9.8,9.8,0,0,1,2-1,8.32,8.32,0,0,1,4.53.14,9.22,9.22,0,0,1,4,2,8.35,8.35,0,0,1,2.4,3.56.15.15,0,0,1-.1.19.16.16,0,0,1-.17,0Z"/><path class="cls-9" d="M82.31,45.83a5.54,5.54,0,0,0-3.09-.61,9.21,9.21,0,0,0-1.57.18l-.77.15-.77.22a20.68,20.68,0,0,1-3,1.08,10.09,10.09,0,0,1-1.68.15,6.4,6.4,0,0,1-1.9-.16h0a.18.18,0,0,1-.14-.22s0,0,0,0A6.58,6.58,0,0,1,72.14,44a5.07,5.07,0,0,1,1.74-.52c.62,0,1.23-.07,1.85-.09a11.17,11.17,0,0,1,3.68.33,5.82,5.82,0,0,1,3.13,1.9.16.16,0,0,1,0,.21.14.14,0,0,1-.16,0Z"/><path class="cls-18" d="M75.94,87.78c10-3,10-6.2,10-6.2s9.37,1.65,9.37,1.75c.31,7.33,7.38,3.73,6.38,4L91.22,96.19"/><path class="cls-3" d="M108.12,77.38S103,83.65,97.29,81.66s-9-7.84-9-7.84a83,83,0,0,0-31.54,8.59s13.58-.8,20.77,4.33S93,90.39,98,90.26a24.21,24.21,0,0,1-22.08-2.48S102.16,117.46,108.12,77.38Z"/><path class="cls-19" d="M87.14,75.53a166.25,166.25,0,0,0-24.42,5.83s7.83.42,11.35,1.4c8.06,2.24,14,7.9,18.14,5.74A14.45,14.45,0,0,0,98,83.28S89.77,83.43,87.14,75.53Z"/></g></g></g></svg>