<svg xmlns="http://www.w3.org/2000/svg" viewBox="0 0 587 595" width="587" height="595">
	<style>
		tspan { white-space:pre }
		.shp0 { fill: #1d1d1b } 
		.shp1 { fill: #ffffff } 
		.shp2 { fill: #e2f2f1 } 
		.shp3 { fill: #c6c6c6 } 
		.shp4 { fill: #5b4e45 } 
		.shp5 { opacity: 0.259;fill: #b2b2b2 } 
		.shp6 { opacity: 0.341;fill: #c6c6c6 } 
		.shp7 { fill: #d67d1d } 
		.shp8 { fill: #a9641c } 
		.shp9 { fill: #f29100 } 
		.shp10 { fill: #48a13f } 
		.shp11 { fill: #3d8f37 } 
		.shp12 { opacity: 0.447;fill: #ffffff } 
		.shp13 { fill: #ffb510 } 
		.shp14 { fill: #f38f31 } 
		.shp15 { fill: #fdfaf1 } 
		.shp16 { fill: #62616b } 
	</style>
	<g id="Group_3081_1_">
		<g id="Group_3080_1_">
			<g id="Group_2348_1_">
				<path id="Path_2293_1_" class="shp0" d="M442.45,347.72c3.8,-22.6 2.1,-45.8 -2.6,-68c-9.8,-46.1 -33.7,-87.6 -57.6,-127.9c1.2,0.5 2.5,0.9 3.8,1.4c0.2,0.1 0.3,0.1 0.5,0.1c0.8,0 1.4,-0.7 1.4,-1.5c0.1,-3.1 0.4,-6.1 0.5,-9.2l-1.9,-0.1c-0.9,5.5 -0.3,7.5 -7.5,4.7c-1.3,-0.4 -2.4,1.3 -1.8,2.4c20.4,34.9 41.2,70.1 53.2,109c6.1,19.3 9.5,39.3 10.1,59.5M411.24,342.32c-5.3,-47.7 -13.6,-96.8 -29.8,-142.2c-0.2,-0.5 -0.8,-0.8 -1.3,-0.7v0c-0.6,0.2 -0.9,0.7 -0.8,1.3c11.5,48.1 22.9,95.5 28.1,144.9" />
				<path id="Path_2294_1_" class="shp1" d="M130.55,359.92c3.3,-29.6 10,-58.6 20.1,-86.6c11.3,-31.3 26.4,-61.1 44.9,-88.8c0.4,-0.7 0.1,-1.7 -0.6,-2.1c-0.3,-0.2 -0.7,-0.2 -1,-0.2l-6.4,2.1c1.3,-5.8 2.6,-11.5 4,-17.3c0.2,-0.7 -0.3,-1.5 -1,-1.7c-0.3,-0.1 -0.7,0 -1,0.1c-1.9,0.9 -3.8,2 -5.8,2.9c1.7,-3.4 2.9,-7.1 3.6,-10.8c0.5,-0.1 0.8,-0.4 1.3,-0.5c0.4,-0.1 0.9,-0.2 1.3,-0.2c0.9,-36.8 4.6,-74.5 23.4,-106.8c0.3,-0.5 0.3,-1 0.1,-1.5c0.3,-0.6 0.1,-1.2 -0.4,-1.6c-5.6,-4.2 -11.2,-8.7 -13.6,-15.4c-2.9,-8 -0.8,-18.4 8.7,-20.7c15.3,-3.6 23.9,12.4 29.6,23.3c0.4,0.9 1.4,1.2 2.3,0.8c0.4,-0.2 0.6,-0.5 0.8,-0.8c0.2,0 0.3,0 0.5,-0.1c3.1,-2.4 6.3,-4.7 9.6,-6.7c7.2,-4.5 15.2,-7.5 23.6,-8.9c-1.6,3.7 -2.9,7.6 -3.6,11.6c-0.2,1.2 0.8,2.6 2.1,2.1c9.1,-3.2 18.1,-5.9 27.3,-8.5c-2.4,3.4 -5.1,6.5 -8.2,9.2c-1.1,0.9 -0.2,3.2 1.3,2.9c7.6,-0.8 15.3,-1.5 22.9,-2.8c0.5,-0.1 1,-0.6 1.1,-1.1c0.6,0.5 1.5,0.3 2,-0.3c0.1,-0.1 0.1,-0.2 0.2,-0.3c2.6,-6.6 5.9,-12.6 10.8,-17.6c5.4,-5.6 16.8,-13.1 24.4,-6.1c6.2,5.8 3.5,15.9 -1.3,21.4c-4.1,4.7 -9.8,7.9 -15.3,10.8c-0.1,0.1 -0.4,0.2 -0.5,0.4c-0.1,-0.2 -0.3,-0.3 -0.5,-0.4c-1.2,-0.8 -2.6,1.1 -1.5,1.9c32.7,26.9 45.6,57.6 50.8,96.3c0.4,-0.1 -0.2,5.1 0.2,4.9c-0.9,5.5 -0.4,7.5 -7.5,4.7c-1.3,-0.5 -2.4,1.2 -1.8,2.4c20.4,34.9 41.2,70.1 53.2,109c6.2,19.2 9.6,39.2 10.1,59.3M211.05,255.82c1.3,-2 -1.9,-3.8 -3.2,-1.9c-14.9,21.6 -17.6,48 -17.1,73.5M411.24,342.52c-5.3,-47.8 -13.5,-96.8 -29.8,-142.2c-0.2,-0.6 -0.8,-0.9 -1.4,-0.7c-0.5,0.2 -0.8,0.8 -0.7,1.3c11.5,48.1 23.1,95.6 28.1,144.9M379.55,300.32c-6.8,-27.5 -14.8,-56.9 -38,-75.2c-19.6,-15.3 -45,-20.9 -69.2,-15.2c-0.6,-0.5 -1.5,-0.6 -2.1,-0.1c-43.5,26.2 -50.6,86.3 -51.5,132.3M350.15,24.82c2.9,-3.3 4.2,-8.9 0.5,-12.2c-10.2,-9.2 -21.9,12.2 -26,18.2c-0.2,0.3 -0.2,0.6 0,0.9c-0.8,0.4 -1.3,1.3 -0.5,2c1.1,1 2.3,2 3.5,2.8c0.3,0.2 0.6,0.2 0.9,0c0.4,0.1 0.8,0.1 1.2,-0.1c6.8,-2.6 15.5,-6.1 20.4,-11.6zM323.05,143.72c5.1,-9.2 2.4,-20.9 -7.3,-25.6c-0.5,-0.2 -1,-0.2 -1.5,0c0.1,-1 0.1,-2.1 -0.1,-3.1c-2.1,-10.7 -19.9,-7.4 -27.2,-7.4c-5.6,0 -23.1,-1.4 -22.9,8.1c0.1,1.5 0.4,3 1.1,4.4c-8.5,5.5 -15.3,14 -11.1,24.6c5.5,13.6 21.3,16.1 34.2,15.4c13,-0.7 28.1,-3.9 34.8,-16.4zM229.84,37.82c0.9,-0.1 1.3,-1.3 1.2,-2.1c-1.2,-6.8 -4.5,-13.5 -10,-17.9c-3.9,-3.1 -9.6,-4.6 -13.6,-0.8c-4,3.8 -2.4,10.2 -0.1,14.5c2.9,5.4 8.2,9.1 14.2,10c0.2,0 0.5,0 0.7,-0.1c0.6,0.4 1.4,0.4 2,-0.1c1.3,-1.9 3.3,-3.1 5.6,-3.5z" />
				<path id="Path_2296_1_" class="shp0" d="M388.45,133.12c-5.9,-33.9 -19.3,-69.2 -47.3,-90.6c8.1,-4.5 17.1,-10 20,-19.3c2.1,-7 0.9,-15.4 -5.3,-19.8c-16.7,-11.7 -35.3,12.9 -38.9,26.8l0.4,1.4c0.1,0.1 0.2,0.2 0.3,0.2v0c0.7,0.3 1.5,0 1.8,-0.7c2.4,-6.5 6.1,-12.5 10.8,-17.6c5.5,-5.6 16.9,-13.2 24.4,-6.1c6.2,5.8 3.5,15.9 -1.3,21.4c-4.1,4.8 -9.9,7.9 -15.3,10.8c-0.2,0.1 -0.4,0.2 -0.5,0.4c-0.1,-0.2 -0.4,-0.3 -0.5,-0.4c-1.1,-0.8 -2.6,1 -1.5,1.9c32.7,27 45.9,62.5 51,101.2c0.4,-0.2 -0.4,0.1 0,0l1.9,0.1v-0.5c0.5,0 -0.5,0 0,0c-0.4,-3 0.4,-6.3 0,-9.2z" />
				<path id="Path_2297_2_" class="shp2" d="M372.34,288.22c-6.6,-24.1 -15.4,-48.4 -36.7,-63.3c-18.3,-12.7 -40.9,-17.3 -62.7,-12.8c0,0.5 -0.3,1 -0.8,1.2c-46.3,28 -50.9,96.7 -49.4,144.9" />
				<path id="Path_2298_1_" class="shp0" d="M218.55,342.02c0.8,-46 8.1,-106.1 51.5,-132.2c0.6,-0.4 1.5,-0.4 2.1,0.1c24.2,-5.7 49.6,-0.1 69.2,15.2c23.4,18.2 31.3,47.6 38.1,75.2M372.65,288.22c-6.6,-24.1 -15.4,-48.3 -36.7,-63.3c-18.2,-12.7 -40.9,-17.4 -62.7,-12.8c-0.1,0.5 -0.4,0.9 -0.8,1.2c-46.2,28 -50.8,96.7 -49.4,144.9" />
				<path id="Path_2299_1_" class="shp0" d="M350.74,12.62c3.6,3.3 2.5,8.9 -0.5,12.2c-5.1,5.5 -13.6,8.9 -20.4,11.9c-0.4,0.2 -0.8,0.2 -1.2,0.1c-0.3,0.1 -0.6,0.1 -0.9,0c-1.2,-0.9 -2.4,-1.8 -3.5,-2.8c-0.5,-0.4 -0.6,-1.1 -0.2,-1.6c0.2,-0.2 0.4,-0.3 0.6,-0.4c-0.2,-0.3 -0.2,-0.6 0,-0.9c4.2,-6.3 15.8,-27.7 26.1,-18.5zM346.74,23.82c3.3,-2.9 4.8,-9.9 -1.5,-10c-4.5,-0.1 -7.5,4.1 -10,7.3c-2.9,3.8 -5.8,7.5 -8.9,11.2l-0.1,0.1c0.6,0.5 1.1,1 1.6,1.6c0.1,-0.1 0.1,-0.1 0.2,-0.1c0.1,-0.1 0.2,-0.1 0.4,-0.2c0.2,-0.1 0.4,-0.1 0.5,-0.2c4.3,-1.9 8.4,-3.9 12.5,-6.2c1.8,-1.1 3.6,-2.3 5.3,-3.5z" />
				<path id="Path_2300_1_" class="shp2" d="M335.24,20.82c-3,3.7 -5.8,7.6 -8.9,11.2l-0.1,0.1c0.6,0.5 1.1,1 1.6,1.6c0.1,0 0.1,-0.1 0.2,-0.1c0.2,-0.1 0.3,-0.1 0.4,-0.2c0.1,-0.1 0.3,-0.2 0.5,-0.2c4.3,-1.8 8.5,-3.9 12.5,-6.2c1.9,-0.9 3.7,-2 5.3,-3.4c3.3,-2.9 4.9,-9.9 -1.5,-10c-4.5,-0.1 -7.5,4.2 -10,7.2z" />
				<path id="Path_2301_1_" class="shp0" d="M315.74,118.12c9.6,4.7 12.4,16.5 7.3,25.6c-6.8,12.4 -21.8,15.5 -34.7,16.2c-12.9,0.7 -28.7,-1.8 -34.2,-15.4c-4.4,-10.7 2.6,-19.1 11.1,-24.6c-0.7,-1.4 -1.1,-2.9 -1.1,-4.4c-0.1,-9.5 17.2,-8.1 22.9,-8.1c7.2,0 25.1,-3.2 27.2,7.4c0.2,1 0.3,2.1 0.1,3.1c0.5,0 0.9,0 1.4,0.2zM315.94,147.32c7.6,-7.5 8.7,-20.6 -2,-26c-0.2,-0.1 -0.4,-0.2 -0.5,-0.4c-3.4,8.2 -16.6,14 -22.5,18c-0.6,0.5 -1.4,0.5 -2,0c0.1,1.2 0.1,2.4 0.2,3.6c0,1.3 1.1,1.6 1,2.7c3.2,-0.4 4.4,-2.8 7.5,-4.7c1.6,-1.1 6.2,-1.1 4.6,0c-8.4,11.5 -20.8,10.1 -27.9,3.8c-0.7,-0.6 -2.1,-6 -1.4,-5.5c3.8,2.1 9.9,7.6 13.8,7.6c-0.1,-1.3 0.1,-2.6 0.1,-3.9c0.1,-1.4 0.1,-2.9 0.2,-4.4c-6,-2.6 -16.7,-9.2 -21.1,-16.5c-7.6,7.6 -14.8,17.1 -5.4,27.3c6.7,7.2 17.1,8.2 26.2,7.8c10.3,-0.4 21.7,-2.1 29.2,-9.4zM301.15,111.62h-15.7c-3.3,0 -7.2,-0.5 -10.4,0.5c-8.1,2.4 -6.2,6.1 -2.1,11.2c4.3,5.1 9.6,9.4 15.4,12.7c0.1,-0.2 0.4,-0.4 0.6,-0.6c3.6,-2.5 7.4,-4.9 11.1,-7.4c2,-1.4 6.4,-3.5 7.8,-5.9c0.5,-7.5 -1.8,-11.1 -6.7,-10.5z" />
				<path id="Path_2302_1_" class="shp0" d="M315.64,29.42c-5.8,0.3 -11.6,1.1 -17.4,1.8c2.9,-3 5.4,-6.4 7.4,-10c0.2,-0.4 0.3,-0.8 0.2,-1.2c-0.3,-0.9 -1.2,-1.5 -2.2,-1.3c-9.6,2.6 -19.3,5.5 -28.8,8.8c0.9,-3.7 2.2,-7.3 3.9,-10.7c0.2,-0.4 0.3,-0.8 0.2,-1.2c-0.2,-0.9 -1.1,-1.5 -2,-1.3c-9.7,1.8 -19,5.5 -27.3,10.9l1.2,1.8c7.2,-4.4 15.2,-7.4 23.6,-8.9c-1.6,3.7 -2.8,7.6 -3.6,11.6c-0.3,1.2 0.8,2.6 2.1,2.1c8.9,-3.2 18.1,-5.9 27.3,-8.5c-2.3,3.4 -5,6.5 -8.2,9.2c-0.3,0.3 -0.5,0.8 -0.5,1.2v0c0,1 0.8,1.8 1.8,1.8c7.6,-0.8 15.4,-1.5 22.9,-2.8c0.5,-0.1 1,-0.6 1.1,-1.1l-0.4,-1.4c-0.3,-0.3 -0.8,-0.4 -1.3,-0.8z" />
				<path id="Path_2303_1_" class="shp3" d="M313.64,120.82c-3.4,8.2 -16.6,14.1 -22.5,18c-0.6,0.5 -1.4,0.5 -2,0c0.1,1.2 0.1,2.4 0.2,3.6c0,1.2 0.2,2.5 0.1,3.8c3.1,-0.3 7.8,-4 10.9,-5.9c1.6,-1 0.1,2.3 -1.4,3.4c-7.6,5.4 -20,7 -25,-2c-0.7,-0.6 -0.2,-1.5 0.5,-1c3.3,5.1 8.6,5.7 12.4,5.8c-0.1,-1.3 -0.1,-2.6 0.1,-3.9c0.1,-1.5 0.1,-3 0.2,-4.4c-6,-2.6 -16.7,-9.2 -21.1,-16.5c-7.6,7.7 -14.8,17.2 -5.4,27.3c6.7,7.2 16.9,8.3 26.2,7.8c10.2,-0.4 21.6,-2.1 29.1,-9.5c7.6,-7.5 8.7,-20.7 -2,-26c-0.2,-0.1 -0.4,-0.3 -0.3,-0.5z" />
				<path id="Path_2304_1_" class="shp4" d="M285.34,111.62c-3.3,0 -7.2,-0.4 -10.4,0.5c-8.1,2.4 -6.2,6.1 -2.1,11.2c4.4,5 9.6,9.3 15.4,12.7c0.1,-0.3 0.3,-0.5 0.6,-0.6c3.8,-2.5 7.5,-4.9 11.1,-7.4c2.1,-1.4 6.5,-3.5 7.9,-5.9c0.5,-7.6 -1.8,-11.1 -6.7,-10.5z" />
				<path id="Path_2306_1_" class="shp0" d="M240.95,32.32c-0.1,-0.1 -0.1,-0.1 -0.1,-0.2c-6.1,-13.7 -23.2,-35.4 -40.1,-21.9c-14.6,11.6 -2.7,30.6 9.8,38l-0.1,0.1c-18,31 -22.5,66.7 -23.6,101.9v2.2c-0.4,1.6 -0.7,3.3 -1.2,4.9l1.8,0.2c0.5,-0.1 0.8,-0.4 1.3,-0.5c0.4,-0.1 0.8,-0.1 1.3,-0.2c0.9,-36.8 4.6,-74.5 23.4,-106.8c0.3,-0.4 0.4,-1 0.1,-1.5c0.2,-0.6 0.1,-1.2 -0.4,-1.6c-5.6,-4.1 -11.1,-8.6 -13.6,-15.4c-2.9,-8 -0.7,-18.3 8.7,-20.7c15.1,-3.7 23.7,12.3 29.4,23.2c0.7,1.5 2.4,1.1 3.1,0c0.2,0 0.4,0 0.5,-0.1c3.1,-2.4 6.3,-4.7 9.6,-6.7l-1.2,-1.8c-3.1,2.1 -6,4.4 -8.7,6.9z" />
				<path id="Path_2308_1_" class="shp0" d="M231.15,35.82c0.2,0.9 -0.3,1.8 -1.2,2.1c-2.2,0.4 -4.2,1.6 -5.6,3.4c-0.5,0.6 -1.4,0.6 -2,0.1c-0.2,0.1 -0.5,0.1 -0.7,0.1c-6.1,-0.9 -11.3,-4.6 -14.2,-10c-2.2,-4.2 -3.9,-10.7 0.1,-14.5c4,-3.8 9.8,-2.2 13.6,0.8c5.4,4.4 8.7,11.1 10,18zM227.35,34.92c-2,-7.1 -9.6,-22.2 -17.3,-15.1c-3.8,3.6 -0.5,10.1 2.5,13.5c2.5,2.7 5.6,4.8 9.2,6c1.3,-2.1 3.3,-3.7 5.6,-4.4z" />
				<path id="Path_2309_1_" class="shp2" d="M210.04,19.92c-3.7,3.5 -0.4,10.1 2.5,13.5c2.5,2.8 5.6,4.8 9.1,6v0c0.1,0 0.1,0 0.1,-0.1c1.2,-2.2 3.2,-3.7 5.6,-4.4c-2,-7 -9.6,-22.2 -17.3,-15z" />
				<path id="Path_2310_4_" class="shp0" d="M211.15,255.92c1.4,-2 -1.9,-3.8 -3.2,-1.9c-14.9,21.6 -17.7,48 -17.3,73.5" />
				<path id="Path_2310_3_" class="shp0" d="M130.44,359.82c3.3,-29.5 10.1,-58.6 20.1,-86.6c11.2,-31.4 26.3,-61.2 44.9,-88.8c0.9,-1 -0.4,-2.6 -1.6,-2.2l-6.4,2.1c1.4,-5.8 2.7,-11.5 4,-17.3c0.1,-0.3 0.1,-0.7 -0.1,-1v0c-0.4,-0.7 -1.3,-0.9 -1.9,-0.5c-1.9,0.9 -3.9,2 -5.8,2.9c1.7,-3.4 2.9,-7 3.6,-10.8l-1.8,-0.2c-1.3,4.9 -3.4,9.5 -6.2,13.7c-0.8,1.2 0.7,2.4 1.8,1.8l7.1,-3.5c-1.3,5.6 -2.7,11.3 -4,16.9v0.6v0c0.2,0.8 1,1.3 1.8,1.1c1.5,-0.4 3.2,-1 4.7,-1.5c-35.4,52.6 -58.4,114.6 -64,177.9" />
				<path id="Path_2311_1_" class="shp5" d="M271.84,16.12c-11.3,1.8 -24.2,7.9 -31.3,16.9c-0.8,1.1 0.2,2.8 1.5,2c4.8,-2.7 9.3,-5.8 14.4,-8c5.5,-2.5 11.2,-3.8 17.1,-5.1c3.8,-0.7 2.2,-6.4 -1.7,-5.8z" />
				<path id="Path_2312_1_" class="shp5" d="M299.94,20.32c-10.2,1.1 -19.9,4.6 -28.5,10.2c-1.4,0.9 -0.6,3.4 1.2,2.9c4.6,-1.3 9.2,-2.9 13.9,-4.1c4.7,-1.2 9.5,-1.8 14.2,-2.7c3.4,-0.7 2.7,-6.6 -0.8,-6.3z" />
				<path id="Path_2313_1_" class="shp5" d="M354.44,0.02c-10.8,0.1 -20.2,6.5 -26.7,14.8c-2.1,2.8 -3.5,5.9 -5.5,8.7c-2,2.9 -2.4,3.3 -6.1,4.4c-7.2,2 -15.1,2.2 -22.4,4c-2.2,0.6 -1.6,3.8 0.5,3.9c6.6,0.1 13.3,-0.1 19.9,-0.7c4.4,-0.4 8.8,0.1 11.8,-3.6c3.8,-4.8 5.2,-10.8 9.4,-15.5c5.4,-6 12,-8.8 19.9,-10c3.4,-0.6 2.5,-6 -0.8,-6z" />
				<path id="Path_2314_1_" class="shp5" d="M319.85,115.92c-0.5,-3.2 -2.9,-5.8 -6.1,-6.5c-3.6,-0.9 -5.9,4.2 -2.6,6.1c0.7,0.3 1.2,1 1.3,1.8c-0.6,0.8 -0.8,1.8 -0.7,2.8c-3.6,6.5 -18.5,16.6 -20.8,18.2c-1.6,1.2 -0.7,4.4 1.5,3.6c8.6,-3.1 18.1,-8.6 24.2,-15.5c0.6,-0.6 1.1,-1.3 1.5,-2.1c7.3,3.2 8.8,12 4.5,19.3c-4.4,7.2 -13.1,11.5 -20.9,13.6c-13.2,3.4 -40.1,2.1 -45.1,-13.9c-0.2,-0.4 -0.6,-0.6 -1,-0.5c-0.3,0.1 -0.6,0.4 -0.6,0.8c0.2,10.1 10.6,16.5 19.2,19.6c12.5,4.6 26.2,4.3 38.5,-0.9c10.6,-4.6 20.7,-13.5 21.4,-25.8c0.5,-9.7 -5.2,-18.5 -14.3,-20.6z" />
				<path id="Path_2315_4_" class="shp5" d="M143.55,344.02c2.5,-11.5 4.9,-23.2 7.3,-34.7c4.7,-22.6 8,-44.6 19.1,-65.2c3.1,-5.8 6.4,-11.3 9.8,-16.8c2.1,-3.1 4.2,-6.1 6.4,-9.3c1.4,-2.2 2.7,-4.5 4,-6.8c5.5,-8.4 11.3,-16.6 17.3,-24.7c1.6,-2.2 -0.1,-4.8 -2.2,-5.6c-0.4,-0.7 -1.1,-1.3 -1.9,-1.5c0.7,-1.5 -1.1,-3.4 -2.8,-3.1c-2,0.5 -3.9,0.9 -5.8,1.3c1.2,-4.4 2,-8.9 2.6,-13.4c0.2,-2.4 -2.2,-4.6 -4.6,-4.5c2.5,-7.4 4.7,-15 6.4,-22.7c2.2,-10.2 2.8,-20.7 4.4,-31.3c1.4,-9.5 4.8,-18.7 6.5,-28.1c1.8,-9.6 3.8,-18.5 9.8,-26.5c1.8,-2.4 -0.7,-5.2 -3.3,-5.2c-2.2,-2.2 -5.3,-3.4 -7.6,-5.6c-3.5,-3.6 -5.8,-8.2 -6.7,-13.2c-1.1,-6.4 1.8,-7.8 6.6,-10.6c2.1,-1.3 2.6,-1.4 3.5,-3.9c1.1,-2.9 -2.8,-4.5 -4.8,-2.8c-1.2,0.9 -3.5,0.8 -4.8,1.5c-2,1 -3.8,2.5 -5.1,4.4c-2.6,3.9 -3.5,8.7 -2.5,13.3c1.6,8.8 8,18.5 17.3,20.1c-4.6,5.9 -6.8,13.1 -8.5,20.3c-0.2,1.3 -0.6,2.6 -0.9,3.9c-10.5,14.8 -11.9,35.5 -10.9,52.9c0,0.3 0.1,0.6 0.4,0.7c-0.2,1.6 -0.6,3.4 -0.9,5.1c-2.2,11.5 -5.4,22.7 -9.6,33.6c-1.2,2.9 2.4,6.1 5.2,5.2c0.1,0 0.1,0 0.2,-0.1c-0.7,3.8 -1.6,7.5 -2.8,11.1c-0.9,2.9 2.2,6.5 5.3,5.3c2.1,-0.8 4.2,-1.7 6.2,-2.7c-2.5,2.9 -5.1,5.6 -6.4,9.4c-0.9,2.6 -1.9,5.2 -2.8,7.6c-10.3,14.6 -19.4,30 -27.4,46c-7.1,14.2 -11.1,29.8 -14.5,45.3c-0.1,0.4 -0.2,0.7 -0.2,1.1c-4.2,14.5 -10.5,28.8 -10.4,44.1c0,0.6 0.5,1.1 1.1,1.2c-1.4,6.8 -2.8,13.5 -4.1,20.4" />
				<path id="Path_2315_3_" class="shp5" d="M198.55,314.02c1.2,-18.1 3.5,-39.9 15.6,-54.5c2.4,-2.8 -1.6,-7.1 -4.1,-4.1c-18.6,21.8 -17.3,55.5 -17.4,82.3c0,8 -0.2,15.9 -0.2,23.9" />
				<path id="Path_2318_2_" class="shp5" d="M233.25,352.32c-0.8,-16.4 -1.6,-32.9 0.8,-49.3c2.2,-14.6 7.2,-28.7 12.5,-42.5c5.3,-13.6 9.9,-27.8 23.1,-35.9c14.5,-8.8 29.9,-8 46,-6.4c3.4,0.5 3.3,-4.4 0.7,-5.4c-19.5,-8.2 -49.9,-2.5 -63.9,14c-7.4,8.8 -11.2,20.5 -15.2,31.2c-4.9,12.8 -9.5,25.9 -12,39.4" />
				<path id="Path_2319_2_" class="shp5" d="M425.15,352.12c-0.5,-6.6 -1.4,-13.2 -2.6,-19.8c-2.7,-15.3 -6.9,-30.2 -10.6,-45.3c-3.6,-15.2 -7.3,-30.3 -11.2,-45.4c-3.6,-13.9 -7.6,-28.9 -16.2,-40.7c-0.7,-1.2 -2.3,-1.5 -3.5,-0.8c-0.9,0.6 -1.4,1.7 -1.1,2.8c3.3,13.4 7.9,26.5 11.3,39.9c3.3,13.1 6.4,26.1 9.5,39.2c2.5,10 4.9,19.9 7.3,29.9c-4.2,3.4 -1.2,14.1 -0.7,18.2" />
			</g>
			<path id="Ellipse_951_1_" class="shp6" d="M339.48,72.32c0,-13.88 -8.22,-25.1 -18.4,-25.1c-10.18,0 -18.4,11.22 -18.4,25.1c0,13.88 8.22,25.1 18.4,25.1c10.18,0 18.4,-11.22 18.4,-25.1z" />
		</g>
		<path id="Path_5477_1_" class="shp0" d="M270.43,72.85c-0.8,9 -8.8,13.2 -17.2,13.3c-10.1,0.1 -13.8,-7.8 -14.9,-16.7c-0.9,-7.2 -4.3,-6.5 -3.1,0.9c1.7,11 7.4,20.3 20.3,18.9c7.3,-0.8 15.3,-4.3 17.2,-11.9c2.1,-8.3 -1.7,-11.7 -2.3,-4.5z" />
		<path id="Path_5478_1_" class="shp0" d="M330.43,72.85c-0.8,9 -8.8,13.2 -17.2,13.3c-10.1,0.1 -13.8,-7.8 -14.9,-16.7c-0.9,-7.2 -4.3,-6.5 -3.1,0.9c1.7,11 7.4,20.3 20.3,18.9c7.3,-0.8 15.3,-4.3 17.2,-11.9c2.1,-8.3 -1.7,-11.7 -2.3,-4.5z" />
	</g>
	<g id="Group_2951">
		<g id="Group_2947">
			<path id="Rectangle_3508" class="shp7" d="M341.74,258.98v0v0h49v0v-11.5v0h-37.5c-6.3,0 -11.5,5.1 -11.5,11.5z" />
		</g>
		<g id="Group_2948">
			<path id="Rectangle_3509" class="shp8" d="M390.7,247.48v11.5v0h48.6v0v0v0c0,-6.4 -5.2,-11.5 -11.5,-11.5h-37.1z" />
		</g>
		<g id="Group_2949">
			<path id="Path_5379" class="shp9" d="M344.93,258.96l12.1,59h33.7v-59h-45.8z" />
		</g>
		<g id="Group_2950">
			<path id="Path_5380" class="shp7" d="M436.1,258.96h-45.4v59h35.2z" />
		</g>
	</g>
	<g id="Group_2953">
		<g id="Group_2952">
			<path id="Path_5381" class="shp10" d="M391.65,188.42h-1.3l-0.8,59h2.6z" />
		</g>
	</g>
	<g id="Group_2982">
		<g id="Group_2979">
			<g id="Group_2976">
				<g id="Group_2975">
					<path id="Path_5388" class="shp10" d="M421.17,171.32c-4.9,1.8 -10.1,2.5 -15.2,1.9c-7.5,-0.8 -14,9.1 -9.5,15.5z" />
				</g>
			</g>
			<g id="Group_2978">
				<g id="Group_2977">
					<path id="Path_5389" class="shp11" d="M396.41,188.72c4.5,6.4 15.6,3.5 17.8,-3.7c1.6,-4.9 3.9,-9.6 7,-13.7z" />
				</g>
			</g>
		</g>
		<g id="Group_2981">
			<g id="Group_2980">
				<path id="Rectangle_3512" class="shp10" d="M390.86,191.61l0.7,1.6l5.4,-3.8l-1,-1.4z" />
			</g>
		</g>
	</g>
	<g id="Group_2990">
		<g id="Group_2987">
			<g id="Group_2984">
				<g id="Group_2983">
					<path id="Path_5390" class="shp10" d="M441.45,194.29c-8.1,3 -16.9,4.1 -25.6,3.2c-12.5,-1.4 -23.5,15.2 -16,25.9z" />
				</g>
			</g>
			<g id="Group_2986">
				<g id="Group_2985">
					<path id="Path_5391" class="shp11" d="M400,223.49c7.5,10.7 26.2,5.8 29.8,-6.2c2.6,-8.3 6.5,-16.1 11.7,-23z" />
				</g>
			</g>
		</g>
		<g id="Group_2989">
			<g id="Group_2988">
				<path id="Rectangle_3513" class="shp10" d="M392.07,230.79l8.84,-6.21l-1.72,-2.46l-8.84,6.21z" />
			</g>
		</g>
	</g>
	<g id="Group_3015">
		<g id="Group_3012">
			<g id="Group_3009">
				<g id="Group_3008">
					<path id="Path_5396" class="shp10" d="M384.96,187.22c5.4,-7.7 -2.5,-19.5 -11.4,-18.5c-6.2,0.7 -12.4,-0.1 -18.2,-2.3z" />
				</g>
			</g>
			<g id="Group_3011">
				<g id="Group_3010">
					<path id="Path_5397" class="shp11" d="M355.36,166.42c3.7,4.9 6.5,10.5 8.3,16.4c2.6,8.6 15.9,12.1 21.3,4.4z" />
				</g>
			</g>
		</g>
		<g id="Group_3014">
			<g id="Group_3013">
				<path id="Rectangle_3516" class="shp10" d="M390.71,190.09l-5.3,-3.8l-1.2,1.7l6.3,4.4l0.6,-0.8c0.4,-0.5 0.2,-1.2 -0.4,-1.5z" />
			</g>
		</g>
	</g>
	<g id="Group_3023">
		<g id="Group_3020">
			<g id="Group_3017">
				<g id="Group_3016">
					<path id="Path_5398" class="shp10" d="M382.3,218.79c7.5,-10.7 -3.5,-27.3 -16,-25.9c-8.7,0.9 -17.5,-0.2 -25.6,-3.2z" />
				</g>
			</g>
			<g id="Group_3019">
				<g id="Group_3018">
					<path id="Path_5399" class="shp11" d="M340.7,189.69c5.2,6.9 9.1,14.7 11.7,23c3.6,12 22.3,16.9 29.8,6.2z" />
				</g>
			</g>
		</g>
		<g id="Group_3022">
			<g id="Group_3021">
				<path id="Rectangle_3517" class="shp10" d="M390.1,226.17l1.72,-2.46l-8.84,-6.21l-1.72,2.46z" />
			</g>
		</g>
	</g>
	<g id="Group_3196">
		<g id="Group_3081_4_">
			<g id="Group_3080_4_">
				<g id="Group_2348_4_">
					<path id="Path_2310_4_2" class="shp1" d="M446.72,299.23c0,0 -40.65,-33.92 -51.64,-38.47c-14.4,-7.34 -36.79,-12.51 -46.78,4.7c-0.6,0.94 -1.1,1.93 -1.52,2.95c-6.56,16.22 12.38,28.85 25.42,34.23c24.64,10.29 54.22,15.57 69.89,39.49c0.96,1.36 2.9,-0.23 2.03,-1.55" />
				</g>
			</g>
		</g>
		<g id="Group_3081_3_">
			<g id="Group_3080_3_">
				<g id="Group_2348_3_">
					<path id="Path_2310_1_" class="shp0" d="M395.13,260.88c-14.4,-7.34 -36.79,-12.51 -46.78,4.7c-0.6,0.94 -1.1,1.93 -1.52,2.95c-6.56,16.22 12.38,28.85 25.42,34.23c24.64,10.29 54.22,15.57 69.89,39.49c0.96,1.36 2.9,-0.23 2.03,-1.55c-9.89,-15.01 -25.87,-23.52 -42.11,-29.76c-10.55,-4.05 -21.53,-7.31 -31.89,-11.82c-9.4,-4.23 -19.72,-10.46 -21.72,-21.51c-2.17,-11.45 8.1,-20.02 18.58,-21.39c10.48,-1.37 20.77,3.33 29.81,8.18c17.9,9.61 34.62,21.34 49.74,34.9c0,0 -40.61,-34.01 -51.45,-38.4z" />
				</g>
			</g>
		</g>
	</g>
	<path id="Path_5611" class="shp0" d="M270.1,72.4c-0.8,9 -8.8,13.2 -17.2,13.3c-10.1,0.1 -13.8,-7.8 -14.9,-16.7c-0.9,-7.2 -4.3,-6.5 -3.1,0.9c1.7,11 7.4,20.3 20.3,18.9c7.3,-0.8 15.3,-4.3 17.2,-11.9c2.1,-8.3 -1.7,-11.7 -2.3,-4.5z" />
	<path id="Path_5612" class="shp0" d="M330.1,72.4c-0.8,9 -8.8,13.2 -17.2,13.3c-10.1,0.1 -13.8,-7.8 -14.9,-16.7c-0.9,-7.2 -4.3,-6.5 -3.1,0.9c1.7,11 7.4,20.3 20.3,18.9c7.3,-0.8 15.3,-4.3 17.2,-11.9c2.1,-8.3 -1.7,-11.7 -2.3,-4.5z" />
	<g id="Group_3197">
		<path id="Path_2457" class="shp12" d="M82.38,549.15c61.43,37.24 237.9,41.51 341.11,12.36c103.22,-29.14 212.16,-204.98 113.56,-278.93c-98.3,-73.86 -357.9,-42.13 -434.05,-0.99c-75.94,41.33 -87.29,107.62 -87.29,107.62c-18.65,70.17 5.33,122.69 66.66,159.93z" />
		<g id="Layer">
			<path id="Path_2459-2" class="shp1" d="M280.84,548.23c95.3,-6.54 203.78,-32.33 225.69,-80.44c21.91,-48.11 44.04,-131.27 -46.98,-174.61c-91.02,-43.34 -279.47,-8.64 -339.88,19.04c-60.41,27.68 -65.52,111 -65.52,111c-28.29,103.4 131.38,131.65 226.68,125.01z" />
		</g>
	</g>
	<g id="Layer">
		<path id="Layer" class="shp13" d="M396.9,160c2.2,0.3 2,1.7 3.7,0c2.2,-2.5 5.5,-6.2 7,-9.2c1.1,-2.2 1.9,-4.4 3,-6.6c0.8,-1.6 1.9,-3.2 2,-5c0.2,-2 -0.5,-3.5 -2.4,-4c-0.6,-0.3 -2.4,0 -2.7,-0.6c-0.3,-0.4 0.5,-1.2 0.2,-1.7c-1.1,-1.8 -5.3,-0.3 -6.8,-1.2c-1.3,-0.9 -0.9,-2.6 -2.7,-2.7c-1.2,0 -2.1,1 -3.1,1.1c-0.5,0 -0.8,-0.3 -1.3,-0.4c-2.2,-0.3 -4,1.8 -5.1,3.7c-1.7,3 -2.8,5.9 -2.9,9.2c-0.1,2.4 -0.3,9.1 0,11z" />
		<path id="Layer" class="shp14" d="M389.5,166.5c7.3,0.8 16.3,-7.9 15.6,-15.4c-0.4,0.3 -0.6,0.4 -1,0.7c0.7,-2.3 1.6,-7.4 -1.7,-3.6c-0.5,-1.4 0,-3 0.2,-4.5c-1.7,-0.3 -3.1,2.5 -4.3,2.3c-1.8,-0.5 -0.7,-3.8 -2.3,-4.3c-2.1,-0.6 -1.8,2.6 -2.9,2.7c-1.4,0.1 -2.8,-1.6 -3.9,-2.3c-4.6,5.7 -3,15.9 -0.9,21.4z" />
		<path id="Layer" class="shp15" d="M394.3,132c-1.1,-0.4 -2.4,0 -2.5,1.3c0.1,3.1 6.3,2.3 8,3.4c2.1,1.7 1.5,3.9 4.8,4.3c2.6,0.1 4.4,-2.2 6,-3.3c-1.8,-0.6 -3.8,-1.2 -5.5,-2.3c0.4,-2.7 -3.8,-1.7 -5.6,-2.1c-1.4,-0.4 -2,-1.9 -4.1,-1.6z" />
		<g id="Layer">
			<path id="Layer" class="shp16" d="M396,134.7c0.7,0.5 1.5,-0.6 0.7,-1.1c-0.7,-0.5 -1.5,0.6 -0.7,1.1z" />
		</g>
		<g id="Layer">
			<path id="Layer" class="shp16" d="M401,135.6c0.7,0.5 1.5,-0.6 0.7,-1.1c-0.6,-0.5 -1.4,0.6 -0.7,1.1z" />
		</g>
		<g id="Layer">
			<path id="Layer" class="shp16" d="M397.3,135.1c0.1,0 0.1,0.1 0.2,0.1c0.7,0.5 1.5,-0.6 0.7,-1.1c-0.1,0 -0.1,-0.1 -0.2,-0.1c-0.6,-0.5 -1.4,0.6 -0.7,1.1z" />
		</g>
		<g id="Layer">
			<path id="Layer" class="shp16" d="M402.5,137.9c0,0.1 -0.1,0.1 -0.1,0.2c-0.5,0.7 0.6,1.5 1.1,0.7c0,-0.1 0.1,-0.1 0.1,-0.2c0.5,-0.6 -0.6,-1.4 -1.1,-0.7z" />
		</g>
		<g id="Layer">
			<path id="Layer" class="shp16" d="M405.7,137.1c0,0.1 -0.1,0.1 -0.1,0.2c-0.5,0.7 0.6,1.5 1.1,0.7c0,-0.1 0.1,-0.1 0.1,-0.2c0.6,-0.7 -0.6,-1.4 -1.1,-0.7z" />
		</g>
		<g id="Layer">
			<path id="Layer" class="shp16" d="M400.5,137.7c0.7,0.5 1.5,-0.6 0.7,-1.1c-0.7,-0.5 -1.5,0.6 -0.7,1.1z" />
		</g>
		<g id="Layer">
			<path id="Layer" class="shp16" d="M404,136.5c0.7,0.5 1.5,-0.6 0.7,-1.1c-0.7,-0.5 -1.4,0.6 -0.7,1.1z" />
		</g>
		<g id="Layer">
			<g id="Layer">
				<path id="Layer" class="shp10" d="M391.7,194.6c0.2,-3 0,-6.1 -0.1,-9.1c-0.2,-7.5 -1.6,-15 -1.3,-22.5c0,-0.9 -1.3,-1 -1.4,-0.1v0c-0.3,7.2 0.9,14.4 1.2,21.6c0.1,3.3 0.3,6.6 0.1,9.9" />
			</g>
			<path id="Layer" class="shp10" d="M385,148c-0.4,0.7 -0.2,2.5 -0.1,3.1c0.3,3.1 0.2,6.4 0.7,9.5c0.4,3.4 2.3,6.7 4.1,9.7c3.6,-2.3 7.3,-4.5 10.1,-7.8c1.8,-2 6,-6.5 6,-9.4c-2.7,0.3 -6.6,5.1 -8.3,7.1c0.7,-1.1 3.8,-9.2 1.5,-9.5c-1.4,-0.3 -4.2,8.6 -4.8,9.8c0.6,-2.3 0.2,-5.6 -0.1,-8c-0.4,-2 -0.7,-4.2 -2.4,-1.9c-1.6,2.2 -2.2,6.6 -2.3,9.4c0.1,-2.4 -0.4,-4.7 -1.2,-6.9c-0.4,-1.1 -0.9,-2.1 -1.4,-3.2c-0.2,-0.5 -0.6,-2 -1.2,-2.1c-0.3,-0.1 -0.5,0 -0.6,0.2z" />
		</g>
	</g>
</svg>