<?xml version="1.0" encoding="utf-8"?>
<!-- Generator: Adobe Illustrator 21.1.0, SVG Export Plug-In . SVG Version: 6.00 Build 0)  -->
<svg version="1.1" id="Layer_1" xmlns="http://www.w3.org/2000/svg" xmlns:xlink="http://www.w3.org/1999/xlink" x="0px" y="0px"
	 viewBox="0 0 361 482" style="enable-background:new 0 0 361 482;" xml:space="preserve">
<style type="text/css">
	.st0{fill:#DD5971;}
	.st1{fill:#528FD5;}
	.st2{fill:#FFFFFF;}
	.st3{font-family:'Noteworthy-Bold';}
	.st4{font-size:16.994px;}
	.st5{font-size:22.846px;}
	.st6{fill:#5A8FCC;}
</style>
<g>
	<path class="st0" d="M73.2,254.2c-7.6-13.5-11.9-29.2-11.9-45.8c0-10.1,1.6-19.9,4.6-29l88.9,28.6L73.2,254.2z"/>
	<path class="st1" d="M79.4,261.9l97.8-55.5L70.6,172.1c14.7-45.2,57.1-77.9,107.2-77.9c62.2,0,112.7,50.4,112.7,112.7
		S240,319.6,177.8,319.6C135.6,319.6,98.7,296.4,79.4,261.9z"/>
	<g transform="translate(28.485 53.98)">
		<path class="st2" d="M148.9,283.8c-3.6,0-6.6,3-6.6,6.6v6.6c0,3.7,3,6.6,6.6,6.6s6.6-3,6.6-6.6v-6.6
			C155.5,286.7,152.5,283.8,148.9,283.8z M148.9,0.7c-3.6,0-6.6,3-6.6,6.6v6.6c0,3.7,3,6.6,6.6,6.6s6.6-3,6.6-6.6V7.3
			C155.5,3.7,152.5,0.7,148.9,0.7z"/>
		<path class="st2" d="M186.3,13.6c-1.4-0.4-2.8,0.4-3.1,1.7l-0.6,2.3c-0.3,1.3,0.5,2.6,1.9,3s2.8-0.4,3.1-1.7l0.6-2.3
			C188.5,15.3,187.7,14,186.3,13.6z"/>
		<path class="st2" d="M287.7,158.2h6.6c3.6,0,6.6-3,6.6-6.6s-3-6.6-6.6-6.6h-6.6c-3.6,0-6.6,3-6.6,6.6S284,158.2,287.7,158.2z"/>
		<path class="st2" d="M224.1,19.6c-2.2-1.3-5.1-0.6-6.3,1.6l-2.3,3.9c-1.2,2.2-0.4,4.9,1.8,6.2s5.1,0.6,6.3-1.6l2.3-3.9
			C227.1,23.7,226.3,20.9,224.1,19.6z"/>
		<path class="st2" d="M217.3,268.8c2.2-1.3,5.1-0.6,6.3,1.6l2.3,3.9c1.2,2.2,0.4,4.9-1.8,6.2c-2.2,1.3-5.1,0.6-6.3-1.6l-2.3-3.9
			C214.3,272.9,215.1,270.1,217.3,268.8z"/>
		<path class="st2" d="M268.3,222.6l3.9,2.3c2.2,1.2,4.9,0.4,6.2-1.8s0.6-5.1-1.6-6.3l-3.9-2.3c-2.2-1.2-4.9-0.4-6.2,1.8
			S266.2,221.3,268.3,222.6z"/>
		<path class="st2" d="M276.9,82.4l-3.9,2.3c-2.2,1.2-4.9,0.4-6.2-1.8c-1.3-2.2-0.6-5.1,1.6-6.3l3.9-2.3c2.2-1.2,4.9-0.4,6.2,1.8
			C279.7,78.3,279,81.1,276.9,82.4z"/>
		<path class="st2" d="M289,115.9l-2.3,0.6c-1.3,0.3-2.6-0.5-3-1.9s0.4-2.8,1.7-3.1l2.3-0.6c1.3-0.3,2.6,0.5,3,1.9
			S290.3,115.6,289,115.9z"/>
		<path class="st2" d="M253.4,46.8c-1-1-2.6-1.1-3.5-0.1l-1.7,1.7c-0.9,0.9-0.9,2.5,0.1,3.5s2.6,1.1,3.5,0.1l1.7-1.7
			C254.4,49.4,254.4,47.8,253.4,46.8z"/>
		<path class="st2" d="M186.3,289.6c-1.4,0.4-2.8-0.4-3.1-1.7l-0.6-2.3c-0.3-1.3,0.5-2.6,1.9-3s2.8,0.4,3.1,1.7l0.6,2.3
			C188.5,287.9,187.7,289.2,186.3,289.6z"/>
		<path class="st2" d="M289,187.3l-2.3-0.6c-1.3-0.3-2.6,0.5-3,1.9s0.4,2.8,1.7,3.1l2.3,0.6c1.3,0.3,2.6-0.5,3-1.9
			S290.3,187.7,289,187.3z"/>
		<path class="st2" d="M253.4,256.5c-1,1-2.6,1.1-3.5,0.1l-1.7-1.7c-0.9-0.9-0.9-2.5,0.1-3.5s2.6-1.1,3.5-0.1l1.7,1.7
			C254.4,253.9,254.4,255.5,253.4,256.5z"/>
		<path class="st2" d="M114.8,13.6c1.4-0.4,2.8,0.4,3.1,1.7l0.6,2.3c0.3,1.3-0.5,2.6-1.9,3s-2.8-0.4-3.1-1.7l-0.6-2.3
			C112.6,15.3,113.5,14,114.8,13.6z"/>
		<path class="st0" d="M13.5,158.2H6.9c-3.6,0-6.6-3-6.6-6.6s3-6.6,6.6-6.6h6.6c3.6,0,6.6,3,6.6,6.6S17.1,158.2,13.5,158.2z"/>
		<path class="st2" d="M77.1,19.6c2.2-1.3,5.1-0.6,6.3,1.6l2.3,3.9c1.2,2.2,0.4,4.9-1.8,6.2c-2.2,1.3-5.1,0.6-6.3-1.6l-2.3-3.9
			C74.1,23.7,74.9,20.9,77.1,19.6z"/>
		<path class="st2" d="M83.9,268.8c-2.2-1.3-5.1-0.6-6.3,1.6l-2.3,3.9c-1.2,2.2-0.4,4.9,1.8,6.2c2.2,1.3,5.1,0.6,6.3-1.6l2.3-3.9
			C86.9,272.9,86.1,270.1,83.9,268.8z"/>
		<path class="st0" d="M32.8,222.6l-3.9,2.3c-2.2,1.2-4.9,0.4-6.2-1.8s-0.6-5.1,1.6-6.3l3.9-2.3c2.2-1.2,4.9-0.4,6.2,1.8
			S35,221.3,32.8,222.6z"/>
		<path class="st2" d="M24.3,82.4l3.9,2.3c2.2,1.2,4.9,0.4,6.2-1.8c1.3-2.2,0.6-5.1-1.6-6.3l-3.9-2.3c-2.2-1.2-4.9-0.4-6.2,1.8
			C21.4,78.3,22.1,81.1,24.3,82.4z"/>
		<path class="st0" d="M12.2,115.9l2.3,0.6c1.3,0.3,2.6-0.5,3-1.9s-0.4-2.8-1.7-3.1l-2.3-0.6c-1.3-0.3-2.6,0.5-3,1.9
			C10.1,114.2,10.9,115.6,12.2,115.9z"/>
		<path class="st2" d="M47.8,46.8c1-1,2.6-1.1,3.5-0.1l1.7,1.7c0.9,0.9,0.9,2.5-0.1,3.5S50.3,53,49.4,52l-1.7-1.7
			C46.7,49.4,46.8,47.8,47.8,46.8z"/>
		<path class="st2" d="M114.9,289.6c1.4,0.4,2.8-0.4,3.1-1.7l0.6-2.3c0.3-1.3-0.5-2.6-1.9-3s-2.8,0.4-3.1,1.7l-0.6,2.3
			C112.6,287.9,113.5,289.2,114.9,289.6z"/>
		<path class="st0" d="M12.2,187.3l2.3-0.6c1.3-0.3,2.6,0.5,3,1.9s-0.4,2.8-1.7,3.1l-2.3,0.6c-1.3,0.3-2.6-0.5-3-1.9
			S10.9,187.7,12.2,187.3z"/>
		<path class="st2" d="M47.8,256.5c1,1,2.6,1.1,3.5,0.1l1.7-1.7c0.9-0.9,0.9-2.5-0.1-3.5s-2.6-1.1-3.5-0.1l-1.7,1.7
			C46.7,253.9,46.8,255.5,47.8,256.5z"/>
	</g>
	<path class="st2" d="M131.8,7.4c0,0.3-0.1,0.6-0.3,0.8L131,8.8c-0.1,0.3-0.3,0.9-0.4,1.8c-0.6,4.7-0.9,9.4-0.9,14.1
		c0,2.6,0.5,4.1,1.4,4.4V30c-0.3,0.6-0.7,0.9-1.3,0.9c-1.2,0-2.1-1-2.7-3.1c-0.4-1.4-0.7-3-0.7-4.6c0-3.4,0.1-6.3,0.3-8.8l-2.1,8.2
		c-0.5,2.1-1.1,3.7-1.8,4.7c-0.7,1.1-1.3,1.6-2,1.6c-1.4,0-2.6-1.2-3.6-3.7c-1-2.2-2.2-6-3.6-11.4c-0.1,1.6-0.2,3.2-0.2,4.9
		c0,3.3,0.1,5.8,0.3,7.5c0,0.4,0.2,0.8,0.4,1.4c0.3,0.6,0.4,1.1,0.4,1.4c0,0.8-0.6,1.2-1.9,1.2c-1.5,0-2.3-2-2.3-6.1
		c0-1.4,0.1-3.9,0.3-7.4s0.3-6,0.3-7.4c0-0.1-0.1-0.3-0.3-0.6s-0.3-0.5-0.3-0.6c0-1.3,1.2-2,3.5-2c0.5,0,1.2,0.3,1.9,1
		c0.1,1.2,0.2,2.3,0.3,3.3c0.3,2.2,0.8,4.9,1.6,8.2c1.1,4.4,2.1,6.5,3,6.5c0.2,0,0.4-0.4,0.7-1.1c0.7-1.5,1.2-3.5,1.7-5.9l1.3-6.1
		c0.5-2.1,0.8-3.5,1-4.1c0.4-1.3,1.4-2,3.1-2c0.5,0,1.2,0.1,2,0.4C131.4,6.5,131.8,6.9,131.8,7.4z M139.7,8.2c0,0.1-0.1,0.4-0.3,0.8
		c-0.1,0.2-0.2,0.7-0.3,1.6c-0.5,4.9-0.7,9.5-0.7,13.8c0,1,0.1,1.8,0.3,2.5c0.2,0.6,0.5,1.4,1,2.2c0,0,0,0.1,0,0.2
		c0,0.5-0.6,0.7-1.7,0.7h-0.3c-1.2,0-1.9-1-2.2-2.9c-0.3-2.4-0.5-5.6-0.5-9.6c0-1.6,0-3,0-4.3c0-2.6,0.1-4,0.1-4.4
		c0-0.5,0.3-1,0.8-1.5s1.1-0.7,1.6-0.7c0.4,0,0.9,0.2,1.4,0.5C139.4,7.4,139.7,7.8,139.7,8.2z M155.2,15.3c0-4.8-1.4-7.1-4.2-7.1
		c-1.1,0-2.3,0.6-3.4,1.8c-1.7,1.8-2.6,4.2-2.6,7.3v7.5c0,2.2,0.9,3.3,2.8,3.3c1.7,0,3.2-0.9,4.5-2.6c1.1-1.4,1.9-3.1,2.3-4.9
		C155,19,155.2,17.2,155.2,15.3z M158.6,15.5c0,3.7-0.8,7-2.5,9.9c-2,3.5-4.7,5.2-8.1,5.2c-1.2,0-2.3-0.2-3.1-0.7
		c-0.5,0.4-0.9,0.7-1.4,0.7c-0.3,0-0.6-0.2-1-0.5c-0.5-1.3-0.7-3.1-0.7-5.2c0-2.3,0-5.1,0.1-8.4c0.1-4.2,0.2-7,0.2-8.4
		c0,0,0-0.1,0-0.2s0-0.2,0-0.3c0-0.4,0.2-0.8,0.5-1c0.3-0.3,0.7-0.4,1.1-0.4c0.6,0,1.1,0.2,1.6,0.6s0.6,0.9,0.5,1.5
		c1.2-1.8,2.9-2.6,5.1-2.6c2.7,0,4.7,1,6.1,3C158,10.4,158.6,12.7,158.6,15.5z M178,7.1c0,0.2-0.1,0.5-0.3,1L177.3,9
		c-0.7,2.2-1,3.9-1,5.2l-0.1,10c0,1-0.2,2-0.7,3.1c-0.6,1.4-1.3,2-2.2,2c-1.3,0-2.6-1.1-3.8-3.2c-1-1.7-1.9-3.8-2.8-6.6
		c-0.2-0.6-0.5-1.5-0.8-2.7c-0.4-1.2-0.6-2.1-0.8-2.7c-0.5,4-0.7,6.6-0.7,8c0,3,0.2,4.7,0.5,5.1c0.4,0.4,0.6,0.8,0.6,1
		c0,0.4-0.2,0.8-0.7,1.2c-0.5,0.4-0.9,0.5-1.4,0.5c-0.7,0-1.2-0.7-1.6-2.1c-0.3-1.1-0.5-2.1-0.5-2.9c0-0.7,0-1.2,0-1.8
		c0-0.5,0-1.1,0-1.8c0-1.1,0.1-2.5,0.4-4.3c0.2-1.8,0.3-3.2,0.3-4.3V8.6c0,0,0-0.1-0.1-0.2c0-0.1-0.1-0.2-0.1-0.2
		c0-0.4,0.3-0.8,0.9-1.2c0.6-0.3,1.1-0.4,1.5-0.4c1.2,0,2,0.4,2.6,1.2c0.1,0.3,0.3,0.8,0.4,1.6l0.2,1.7c0.2,1.3,0.9,3.9,2.2,8
		c1.4,4.3,2.5,6.5,3.2,6.5c0.3,0,0.4-0.3,0.4-1c0-0.1,0-0.4-0.1-0.9s-0.1-0.8-0.1-1l0.4-9.5c0.1-1.4,0.3-2.8,0.7-4.2
		c0.6-1.9,1.4-2.9,2.4-2.9c0.3,0,0.8,0.2,1.4,0.6C178,6.8,178,6.9,178,7.1z M185.7,8.2c0,0.1-0.1,0.4-0.3,0.8
		c-0.1,0.2-0.2,0.7-0.3,1.6c-0.5,4.9-0.7,9.5-0.7,13.8c0,1,0.1,1.8,0.3,2.5c0.2,0.6,0.5,1.4,1,2.2c0,0,0,0.1,0,0.2
		c0,0.5-0.6,0.7-1.7,0.7h-0.3c-1.2,0-1.9-1-2.2-2.9c-0.3-2.4-0.5-5.6-0.5-9.6c0-1.6,0-3,0-4.3c0-2.6,0.1-4,0.1-4.4
		c0-0.5,0.3-1,0.8-1.5c0.6-0.5,1.1-0.7,1.6-0.7c0.4,0,0.9,0.2,1.4,0.5C185.4,7.4,185.7,7.8,185.7,8.2z M204.4,22.9
		c0,2.1-0.9,3.9-2.7,5.4c-1.8,1.6-3.7,2.4-5.7,2.4c-2.9,0-5.1-1.2-6.6-3.5c-1.1-1.9-1.7-4.4-1.7-7.6s0.7-6.1,2.1-8.7
		c1.7-3.2,3.9-4.8,6.9-4.8c1.4,0,2.7,0.3,3.8,1c1.2,0.8,1.9,1.8,2.2,3.2c0,0.1,0.1,0.3,0.1,0.4c0,0.1,0.1,0.3,0.1,0.4s0,0.2,0.1,0.3
		c0,0.1,0,0.2,0.1,0.2c0,0.1,0,0.1,0,0.2v0.1c0,3.1-0.7,4.6-2.1,4.6c-0.4,0-0.8-0.1-1.2-0.4c-0.3-0.3-0.5-0.6-0.5-1
		c0-0.2,0.1-0.6,0.4-1c0.3-0.5,0.4-0.8,0.4-1.1c0-1.3-0.2-2.2-0.5-2.7c-0.4-0.7-1.2-1-2.5-1s-2.4,0.8-3.5,2.3
		c-0.9,1.3-1.5,2.7-1.8,4.1c-0.3,1.5-0.4,2.9-0.4,4.2c0,2.2,0.2,3.8,0.5,4.8c0.6,1.6,1.7,2.6,3.4,3.1c0.5,0.1,1,0.2,1.3,0.2
		c0.9,0,1.8-0.3,2.7-1c0.7-0.6,1.4-1.3,1.9-2.2c0.3-0.5,0.4-1.2,0.5-1.9l-0.1-0.1c-1.6,0-2.9,0.2-3.8,0.6c-0.4,0.2-0.7,0.3-0.8,0.5
		c-0.3,0.2-0.6,0.2-0.9,0.2c-0.6,0-1-0.2-1.3-0.7s-0.5-1-0.5-1.7c0-0.5,0.3-0.9,0.8-1.3c0.4-0.2,1.5-0.4,3.3-0.7
		c1.7-0.2,2.9-0.3,3.5-0.3C203.5,19.4,204.4,20.6,204.4,22.9z M226.4,8.4c0,0.2-0.2,0.4-0.5,0.7s-0.5,0.4-0.6,0.6
		c-0.6,1.2-0.9,3.5-0.8,6.8v1.4c0,0,0.1,0,0.2,0c0.4,0,0.7,0.2,1,0.6s0.5,0.8,0.5,1.2c0,0.3-0.2,0.5-0.7,0.6l-1.1,0.2l0.1,3.3
		c0,1.4,0.2,2.4,0.5,3.2c0.2,0.6,0.3,1,0.3,1.2c0,0.5-0.2,0.9-0.5,1.3c-0.4,0.4-0.8,0.6-1.2,0.6c-0.9,0-1.5-0.5-1.8-1.4l-0.3-2.4
		c0-0.4-0.1-1-0.1-1.9V23c0-0.9-0.1-1.7-0.2-2.3c-1.3,0-2.9,0.2-4.8,0.6l-4.8,0.9c0.1,0.3,0.1,1.5,0.1,3.8c0,1.8,0.3,2.9,0.8,3.5
		c0.1,0.1,0.1,0.2,0.1,0.4c0,0.6-0.5,0.9-1.4,0.9s-1.5-0.3-2-0.8c-0.3-0.3-0.6-2.7-0.9-7.3c-0.4-0.1-0.8-0.4-1-0.8
		c-0.3-0.4-0.4-0.9-0.4-1.4c0-0.1,0-0.1,0-0.2s0.1-0.1,0.1-0.2l0.2-0.1c0.1,0,0.1-0.1,0.2-0.1c0.1,0,0.2-0.1,0.2-0.1s0.1,0,0.3-0.1
		c0.1,0,0.2-0.1,0.2-0.1l0.1-1.6c0.1-0.7,0.1-1.2,0.1-1.6c0-4.1,0.2-6.7,0.7-7.8c0.4-0.9,1-1.4,1.9-1.4c0.6,0,1.1,0.2,1.6,0.6
		c0.5,0.4,0.7,0.8,0.7,1.3c0,0.3-0.1,0.6-0.3,1l-0.4,1c-0.6,2-0.9,4.3-0.9,7v0.8c1-0.2,1.5-0.3,1.6-0.3c2.8-0.6,5.3-0.8,7.8-0.8
		c0.1-3.3,0.2-5.5,0.3-6.6c0.4-3.4,1.2-5,2.4-5c0.7,0,1.3,0.3,1.8,0.8S226.4,7.7,226.4,8.4z M245.5,8.7c0,0.4-0.1,0.7-0.4,1
		c-0.2,0.3-0.6,0.4-0.9,0.4c-0.3,0-0.7-0.1-1.2-0.3c-0.7-0.2-1.1-0.3-1.4-0.3h-2.5c-0.3,0-0.4,0-0.5,0.1s-0.1,0.2-0.1,0.4
		c0,0.1,0,0.2,0,0.3L238,13c-0.4,2.7-0.7,6.3-0.7,10.7c0,2.7,0.3,4.5,0.9,5.6v0.9c-0.4,0.2-0.8,0.3-1.1,0.3c-1.5,0-2.4-0.7-2.9-2.2
		c-0.2-0.7-0.3-2-0.3-4c0-2.5,0-4.2,0.1-5.4c0.1-1,0.2-2.3,0.4-4c0.2-2,0.3-3.3,0.3-4v-1l-1.9,0.2c-0.9,0.1-1.5,0.2-1.9,0.2
		c-1.6,0-2.4-0.5-2.4-1.4c0-0.4,0.1-0.6,0.4-0.7c0.3-0.5,2.2-0.9,5.5-1.3c2.6-0.3,4.6-0.4,6.2-0.4c1.1,0,2.1,0.1,2.9,0.4
		C244.8,7.3,245.5,7.9,245.5,8.7z M155.2,380.6c0,0.2-0.1,0.5-0.3,1l-0.5,0.9c-0.7,2.2-1,3.9-1,5.2l-0.1,10c0,1-0.2,2-0.7,3.1
		c-0.6,1.4-1.3,2-2.2,2c-1.3,0-2.6-1.1-3.8-3.2c-1-1.7-1.9-3.8-2.8-6.6c-0.2-0.6-0.5-1.5-0.8-2.7s-0.6-2.1-0.8-2.7
		c-0.5,4-0.7,6.6-0.7,8c0,3,0.2,4.7,0.5,5.1c0.4,0.4,0.6,0.8,0.6,1c0,0.4-0.2,0.8-0.7,1.2s-0.9,0.5-1.4,0.5c-0.7,0-1.2-0.7-1.6-2.1
		c-0.3-1.1-0.5-2.1-0.5-2.9c0-0.7,0-1.2,0-1.8c0-0.5,0-1.1,0-1.8c0-1,0.1-2.5,0.3-4.3s0.4-3.2,0.4-4.3v-4.3c0,0,0-0.1-0.1-0.2
		s-0.1-0.2-0.1-0.2c0-0.4,0.3-0.8,0.9-1.2c0.6-0.3,1.1-0.4,1.5-0.4c1.2,0,2,0.4,2.6,1.2c0.1,0.3,0.3,0.8,0.4,1.6l0.2,1.7
		c0.2,1.3,0.9,3.9,2.2,8c1.4,4.3,2.5,6.5,3.2,6.5c0.3,0,0.4-0.3,0.4-1c0-0.1,0-0.4-0.1-0.9s-0.1-0.8-0.1-1l0.3-9.5
		c0.1-1.4,0.3-2.8,0.7-4.2c0.6-1.9,1.4-2.9,2.4-2.9c0.3,0,0.8,0.2,1.4,0.6C155.2,380.4,155.2,380.5,155.2,380.6z M173.8,391.4
		c0-4.9-1.6-7.8-4.7-8.7c-0.3-0.1-0.7-0.1-1.1-0.1c-1.3,0-2.6,0.6-3.9,1.8c-2.1,1.9-3.1,5.3-3.1,10.1c0,0.4,0.1,1,0.3,1.9
		c0.4,1.8,1,3.1,1.8,3.9c0.9,0.9,2.2,1.4,4,1.4c2.4,0,4.2-1.2,5.4-3.5C173.3,396.3,173.8,394,173.8,391.4z M177.2,391.7
		c0,3.3-0.8,6.2-2.5,8.5c-1.9,2.6-4.4,4-7.6,4c-0.9,0-1.9-0.2-2.9-0.5c-2.3-0.7-4-2-5-3.9c-0.9-1.6-1.3-3.7-1.3-6.4
		c0-3.5,0.8-6.5,2.5-9.1c1.9-3.1,4.5-4.7,7.8-4.7c2.9,0,5.2,1.3,6.9,4C176.4,385.9,177.2,388.6,177.2,391.7z M195.8,391.4
		c0-4.9-1.6-7.8-4.7-8.7c-0.3-0.1-0.7-0.1-1.1-0.1c-1.3,0-2.6,0.6-3.9,1.8c-2.1,1.9-3.1,5.3-3.1,10.1c0,0.4,0.1,1,0.3,1.9
		c0.4,1.8,1,3.1,1.8,3.9c0.9,0.9,2.2,1.4,4,1.4c2.4,0,4.2-1.2,5.4-3.5C195.3,396.3,195.8,394,195.8,391.4z M199.2,391.7
		c0,3.3-0.8,6.2-2.5,8.5c-1.9,2.6-4.4,4-7.6,4c-0.9,0-1.9-0.2-2.9-0.5c-2.3-0.7-4-2-5-3.9c-0.9-1.6-1.3-3.7-1.3-6.4
		c0-3.5,0.8-6.5,2.5-9.1c1.9-3.1,4.5-4.7,7.8-4.7c2.9,0,5.2,1.3,6.9,4C198.4,385.9,199.2,388.6,199.2,391.7z M218.7,380.6
		c0,0.2-0.1,0.5-0.3,1l-0.5,0.9c-0.7,2.2-1,3.9-1,5.2l-0.1,10c0,1-0.2,2-0.7,3.1c-0.6,1.4-1.3,2-2.2,2c-1.3,0-2.6-1.1-3.8-3.2
		c-1-1.7-1.9-3.8-2.8-6.6c-0.2-0.6-0.5-1.5-0.8-2.7s-0.6-2.1-0.8-2.7c-0.5,4-0.7,6.6-0.7,8c0,3,0.2,4.7,0.5,5.1
		c0.4,0.4,0.6,0.8,0.6,1c0,0.4-0.2,0.8-0.7,1.2s-0.9,0.5-1.4,0.5c-0.7,0-1.2-0.7-1.6-2.1c-0.3-1.1-0.5-2.1-0.5-2.9
		c0-0.7,0-1.2,0-1.8c0-0.5,0-1.1,0-1.8c0-1,0.1-2.5,0.3-4.3s0.4-3.2,0.4-4.3v-4.3c0,0,0-0.1-0.1-0.2s-0.1-0.2-0.1-0.2
		c0-0.4,0.3-0.8,0.9-1.2c0.6-0.3,1.1-0.4,1.5-0.4c1.2,0,2,0.4,2.6,1.2c0.1,0.3,0.3,0.8,0.4,1.6l0.2,1.7c0.2,1.3,0.9,3.9,2.2,8
		c1.4,4.3,2.5,6.5,3.2,6.5c0.3,0,0.4-0.3,0.4-1c0-0.1,0-0.4-0.1-0.9s-0.1-0.8-0.1-1l0.4-9.5c0.1-1.4,0.3-2.8,0.7-4.2
		c0.6-1.9,1.4-2.9,2.4-2.9c0.3,0,0.8,0.2,1.4,0.6C218.7,380.4,218.7,380.5,218.7,380.6z"/>
	<text transform="matrix(1 0 0 1 8.308 167.309)" class="st0 st3 st4">7</text>
	<text transform="matrix(1 0 0 1 23.885 296.079)" class="st0 st3 st4">4</text>
	<text transform="matrix(1 0 0 1 0 213.809)" class="st0 st3 st5">6</text>
	<text transform="matrix(1 0 0 1 342.695 213.809)" class="st2 st3 st5">6</text>
	<text transform="matrix(1 0 0 1 8.308 257.656)" class="st0 st3 st4">5</text>
	<g transform="translate(26 447)">
		<path class="st2" d="M56.3,12.7c0-1.4-0.2-2.6-0.7-3.7c-0.6-1.4-1.5-2-2.8-2c-1.6,0-3,1-4.1,2.9c-1,1.7-1.5,3.4-1.5,5.1
			c0,2.9,1.4,4.3,4.3,4.3c1.6,0,2.7-0.7,3.4-2c0.4-0.8,0.8-2.1,1.2-4.1C56.3,12.8,56.3,12.6,56.3,12.7z M59.1,13.2
			c0,0.5,0,0.9-0.1,1.2c-0.8,4.8-3.1,7.2-6.8,7.2c-1.9,0-3.6-0.5-5.1-1.5v0.7c0,1.4,0.1,2.4,0.4,2.9c0.4,0.7,0.6,1.1,0.6,1.2
			c0,0.4-0.2,0.8-0.5,1.1c-0.3,0.3-0.7,0.5-1.1,0.5c-0.9,0-1.5-0.3-1.9-1c-0.2-0.4-0.3-1.1-0.4-2.2c0-1-0.1-1.8-0.1-2.4
			c0-0.4,0-0.9,0.1-1.6c0.1-0.8,0.2-1.3,0.2-1.6v-2.1c0-0.7,0-1.7,0.1-2.7c0.1-1.3,0.2-2.2,0.2-2.7v-3c0-0.1-0.1-0.6-0.3-1.7
			c0.5-0.5,1-0.7,1.5-0.7s1,0.2,1.3,0.6s0.5,0.9,0.5,1.5c0,0.2,0,0.3,0,0.4c1.4-1.8,3.1-2.7,5.2-2.7c1.9,0,3.5,0.7,4.7,2.2
			c1,1.3,1.5,3,1.5,5v0.7C59.1,12.7,59.1,12.9,59.1,13.2z M68,17.4c0-0.5-0.2-1-0.5-1.5s-0.7-0.7-1.2-0.7c-0.7,0-1.2,0.3-1.6,0.9
			c-0.3,0.5-0.5,1.1-0.5,1.8c0,0.4,0.1,0.7,0.4,1c0.3,0.2,0.6,0.4,1,0.4C67.3,19.3,68,18.7,68,17.4z M71.4,23.3c0,1-0.7,1.8-2.1,2.4
			c-1.1,0.5-2.2,0.7-3.4,0.7c-3.2,0-4.8-1.8-4.8-5.4c0-1.4,0.4-3.1,1.1-5c0.9-2.2,2-3.3,3.2-3.3c1.2,0,2.4,0.5,3.7,1.5
			c1.3,1,2,2.1,2,3.2c0,1.4-0.6,2.5-1.8,3.3c-1.1,0.7-2.4,1.1-3.8,1.1c-0.3,0-0.7-0.2-1.4-0.5c0.1,2,0.7,2.9,1.7,2.9
			c0.9,0,1.8-0.3,2.7-0.8c0.9-0.5,1.5-0.8,1.7-0.8C71,22.5,71.4,22.8,71.4,23.3z M81.2,21.8c0-0.4-0.3-0.6-0.9-0.6
			c-2.6,0-3.9,0.6-3.9,1.8c0,0.7,0.6,1,1.7,1c0.7,0,1.3-0.2,2-0.6C80.8,23,81.2,22.5,81.2,21.8z M84.3,20.7c0,2.6-0.1,4.5-0.2,5.6
			c-0.1,0.6-0.5,1-1.3,1c-1.2,0-1.7-0.6-1.6-1.7c-1,0.5-2.1,0.7-3.2,0.7s-2.1-0.3-3.1-0.8c-1.2-0.7-1.7-1.5-1.7-2.5s0.7-1.9,2-2.7
			c1.2-0.8,2.3-1.1,3.4-1.1h2.6v-0.7c0-2.2-0.6-3.3-1.9-3.3c-1.6,0-2.5,0.8-2.5,2.3c0,0.5-0.3,0.8-0.9,0.8c-0.4,0-0.7-0.2-1.1-0.5
			s-0.6-0.7-0.6-1c0-1.2,0.4-2.1,1.2-2.9s1.8-1.1,3-1.1C82.4,12.8,84.3,15.5,84.3,20.7z M98.4,26v1c-0.8,0.6-1.4,0.9-1.9,0.9
			c-0.6,0-1.5-0.6-2.6-1.9c-1.1-1.2-1.9-2-2.4-2.6c-0.7-0.7-1.4-1.5-2.2-2.3l-0.1,0.1v2.7c0,0.1,0.1,0.3,0.2,0.7
			c0.1,0.4,0.2,0.6,0.2,0.8c0,0.3-0.1,0.5-0.4,0.8c-0.3,0.2-0.6,0.3-0.9,0.3c-0.5,0-1-0.2-1.3-0.5c-0.4-0.4-0.5-0.8-0.5-1.3v-4.1
			c0-0.2,0-0.5,0.1-1.1s0.1-1,0.1-1.1V9.9c0-1.2-0.1-2.3-0.3-3c-0.1-0.3-0.1-0.6-0.1-0.8c0-0.4,0.2-0.7,0.7-1.1
			c0.4-0.3,0.8-0.4,1.2-0.4c0.3,0,0.7,0.1,1,0.4c0.4,0.2,0.5,0.5,0.5,0.8l-0.1,0.4c-0.1,0.2-0.1,0.6-0.2,1.1S89.3,8.4,89.3,9
			c0,0.4,0,3.1-0.1,8.3l3.3-3.1c1.8-1.7,2.8-2.5,3.1-2.5c1.1,0,1.6,0.7,1.6,2V14c-1,0.6-2.1,1.4-3.4,2.5c-1.8,1.4-2.7,2.3-2.7,2.8
			c0,0,0.6,0.7,1.7,2s1.8,2,2,2.2C96.2,24.6,97.4,25.5,98.4,26z M110.3,14.1c-0.2,1.4-0.4,2.4-0.5,3.1c-0.2,1.2-0.3,2.2-0.3,3.1v8.4
			c0,1.5-0.4,2.7-1.3,3.5s-2.1,1.2-3.6,1.2c-1,0-2.1-0.3-3.3-0.8c-1.4-0.6-2.1-1.3-2.1-2.2c0-0.3,0.1-0.5,0.3-0.7
			c0.2-0.2,0.5-0.3,0.8-0.3c0.2,0,0.6,0.3,1.3,0.8c0.7,0.6,1.5,0.8,2.4,0.8c1.1,0,1.9-0.4,2.3-1.3c0.3-0.6,0.4-1.6,0.4-2.8
			c0-0.6,0-1,0-1.2c-0.7,0.5-1.4,0.7-2.3,0.7c-1.6,0-2.8-0.6-3.6-1.7c-0.8-1-1.1-2.3-1.1-3.9c0-0.4,0.1-3,0.3-7.8
			c0.6-0.3,1.1-0.4,1.5-0.4s1,0.2,1.8,0.7c-0.5,1.2-0.7,3.7-0.7,7.4c0,2.4,0.6,3.6,1.8,3.6c0.9,0,1.6-0.7,2-2.2
			c0.4-1.1,0.5-2.2,0.5-3.3V15c0,0,0-0.3-0.1-1c0.9-0.4,1.5-0.6,1.9-0.6C109.2,13.5,109.8,13.7,110.3,14.1z M197.4,15.2
			c0-4.3-1.4-6.9-4.2-7.7c-0.2-0.1-0.6-0.1-1-0.1c-1.2,0-2.3,0.5-3.5,1.6c-1.8,1.7-2.8,4.7-2.8,9c0,0.3,0.1,0.9,0.2,1.6
			c0.3,1.6,0.9,2.7,1.6,3.4c0.8,0.8,2,1.2,3.5,1.2c2.1,0,3.7-1,4.8-3.1C197,19.5,197.4,17.6,197.4,15.2z M200.4,15.5
			c0,3-0.7,5.5-2.2,7.6c-1.7,2.3-3.9,3.5-6.7,3.5c-0.8,0-1.7-0.2-2.6-0.5c-2-0.6-3.5-1.8-4.4-3.4c-0.8-1.4-1.1-3.3-1.1-5.6
			c0-3.1,0.7-5.8,2.2-8.1c1.7-2.8,4-4.1,6.9-4.1c2.5,0,4.6,1.2,6.1,3.6C199.7,10.4,200.4,12.8,200.4,15.5z M213.1,7.5
			c0,0.3-0.2,0.6-0.5,0.9s-0.7,0.4-1.1,0.4c-0.3,0-0.6-0.1-0.9-0.4c0-0.4-0.1-0.7-0.2-0.8s-0.4-0.2-0.9-0.2c-0.9,0-1.5,1.1-1.9,3.3
			c-0.2,1.1-0.3,2.6-0.3,4.4h0.4c0.1,0,0.3,0,0.4,0c0.9,0,1.5,0.3,1.9,1l-0.3,1.2c-0.4,0.2-1.1,0.3-2,0.3c-0.2,0-0.3,0-0.4,0
			c-0.1,0.7-0.1,1.4-0.1,2.2v2.8c0,1.1,0.2,2.3,0.5,3.4c-0.8,0.5-1.4,0.7-1.8,0.7c-0.5,0-0.9-0.4-1.2-1.1c-0.2-0.7-0.4-1.3-0.4-1.8
			c0-0.8,0-2.8,0.1-6l-1,0.1c-0.4,0-0.7-0.1-0.9-0.3c-0.3-0.2-0.4-0.5-0.4-0.9c0-0.6,0.3-1.1,0.8-1.2c0.2-0.1,0.8-0.1,1.6-0.1
			c0.1-0.2,0.1-0.8,0.1-1.9c0-2.1,0.3-4,1-5.6c0.9-2.1,2.3-3.1,4.2-3.1c1,0,1.7,0.2,2.3,0.6C212.8,5.9,213.1,6.6,213.1,7.5z
			 M223.1,7.5c0,0.3-0.2,0.6-0.5,0.9c-0.3,0.2-0.7,0.4-1.1,0.4c-0.3,0-0.6-0.1-0.9-0.4c0-0.4-0.1-0.7-0.2-0.8s-0.4-0.2-0.9-0.2
			c-0.9,0-1.5,1.1-1.9,3.3c-0.2,1.1-0.3,2.6-0.3,4.4h0.4c0.1,0,0.3,0,0.4,0c0.9,0,1.5,0.3,1.9,1l-0.3,1.2c-0.4,0.2-1.1,0.3-2,0.3
			c-0.2,0-0.3,0-0.4,0c-0.1,0.7-0.1,1.4-0.1,2.2v2.8c0,1.1,0.2,2.3,0.5,3.4c-0.8,0.5-1.4,0.7-1.8,0.7c-0.5,0-0.9-0.4-1.2-1.1
			c-0.2-0.7-0.4-1.3-0.4-1.8c0-0.8,0-2.8,0.1-6l-1,0.1c-0.4,0-0.7-0.1-0.9-0.3c-0.3-0.2-0.4-0.5-0.4-0.9c0-0.6,0.3-1.1,0.8-1.2
			c0.2-0.1,0.8-0.1,1.6-0.1c0.1-0.2,0.1-0.8,0.1-1.9c0-2.1,0.3-4,1-5.6c0.9-2.1,2.3-3.1,4.2-3.1c1,0,1.7,0.2,2.3,0.6
			C222.7,5.9,223.1,6.6,223.1,7.5z M230.9,17.3c-0.1,0-0.2,0.1-0.2,0.2c0,0,0,0.1,0.1,0.2s0.1,0.2,0.1,0.2c0,0.2-0.4,0.3-1.1,0.3
			c-0.1,0-0.3,0-0.6-0.1s-0.5-0.1-0.6-0.1c-0.6,0-1.1,0-1.6,0s-1,0-1.6,0c-1.9,0-2.9-0.4-2.9-1.1c0-0.6,0.3-0.9,0.8-0.9
			c0.1,0,0.3,0,0.7,0.1s0.6,0.1,0.7,0.1c0.1,0,0.8,0,2-0.1c1.2,0,1.9-0.1,2-0.1C230.1,16.4,230.8,16.7,230.9,17.3z M245.1,12.7
			c0-1.4-0.2-2.6-0.7-3.7c-0.6-1.4-1.5-2-2.8-2c-1.6,0-3,1-4.1,2.9c-1,1.7-1.5,3.4-1.5,5.1c0,2.9,1.4,4.3,4.3,4.3
			c1.6,0,2.7-0.7,3.4-2c0.4-0.8,0.8-2.1,1.2-4.1C245,12.8,245.1,12.6,245.1,12.7z M247.9,13.2c0,0.5,0,0.9-0.1,1.2
			c-0.8,4.8-3.1,7.2-6.8,7.2c-1.9,0-3.6-0.5-5.1-1.5v0.7c0,1.4,0.1,2.4,0.4,2.9c0.4,0.7,0.6,1.1,0.6,1.2c0,0.4-0.2,0.8-0.5,1.1
			c-0.3,0.3-0.7,0.5-1.1,0.5c-0.9,0-1.5-0.3-1.9-1c-0.2-0.4-0.3-1.1-0.4-2.2c0-1-0.1-1.8-0.1-2.4c0-0.4,0-0.9,0.1-1.6
			c0.1-0.8,0.2-1.3,0.2-1.6v-2.1c0-0.7,0-1.7,0.1-2.7c0.1-1.3,0.2-2.2,0.2-2.7v-3c0-0.1-0.1-0.6-0.3-1.7c0.5-0.5,1-0.7,1.5-0.7
			s1,0.2,1.3,0.6s0.5,0.9,0.5,1.5c0,0.2,0,0.3,0,0.4c1.4-1.8,3.1-2.7,5.2-2.7c1.9,0,3.5,0.7,4.7,2.2c1,1.3,1.5,3,1.5,5v0.7
			C247.9,12.7,247.9,12.9,247.9,13.2z M256.8,17.4c0-0.5-0.2-1-0.5-1.5c-0.3-0.5-0.7-0.7-1.2-0.7c-0.7,0-1.2,0.3-1.6,0.9
			c-0.3,0.5-0.5,1.1-0.5,1.8c0,0.4,0.1,0.7,0.4,1s0.6,0.4,1,0.4C256,19.3,256.8,18.7,256.8,17.4z M260.2,23.3c0,1-0.7,1.8-2.1,2.4
			c-1.1,0.5-2.2,0.7-3.4,0.7c-3.2,0-4.8-1.8-4.8-5.4c0-1.4,0.4-3.1,1.1-5c0.9-2.2,2-3.3,3.2-3.3s2.4,0.5,3.7,1.5c1.3,1,2,2.1,2,3.2
			c0,1.4-0.6,2.5-1.8,3.3c-1.1,0.7-2.4,1.1-3.8,1.1c-0.3,0-0.7-0.2-1.4-0.5c0.1,2,0.7,2.9,1.7,2.9c0.9,0,1.8-0.3,2.7-0.8
			c0.9-0.5,1.5-0.8,1.7-0.8C259.7,22.5,260.2,22.8,260.2,23.3z M270,21.8c0-0.4-0.3-0.6-0.9-0.6c-2.6,0-3.9,0.6-3.9,1.8
			c0,0.7,0.6,1,1.7,1c0.7,0,1.3-0.2,2-0.6C269.6,23,270,22.5,270,21.8z M273.1,20.7c0,2.6-0.1,4.5-0.2,5.6c-0.1,0.6-0.5,1-1.3,1
			c-1.2,0-1.7-0.6-1.6-1.7c-1,0.5-2.1,0.7-3.2,0.7s-2.1-0.3-3.1-0.8c-1.2-0.7-1.7-1.5-1.7-2.5s0.7-1.9,2-2.7
			c1.2-0.8,2.3-1.1,3.4-1.1h2.6v-0.7c0-2.2-0.6-3.3-1.9-3.3c-1.6,0-2.5,0.8-2.5,2.3c0,0.5-0.3,0.8-0.9,0.8c-0.4,0-0.7-0.2-1.1-0.5
			s-0.6-0.7-0.6-1c0-1.2,0.4-2.1,1.2-2.9s1.8-1.1,3-1.1C271.1,12.8,273.1,15.5,273.1,20.7z M287.2,26v1c-0.8,0.6-1.4,0.9-1.9,0.9
			c-0.6,0-1.5-0.6-2.6-1.9c-1.1-1.2-1.9-2-2.4-2.6c-0.7-0.7-1.4-1.5-2.2-2.3l-0.1,0.1v2.7c0,0.1,0.1,0.3,0.2,0.7
			c0.1,0.4,0.2,0.6,0.2,0.8c0,0.3-0.1,0.5-0.4,0.8c-0.3,0.2-0.6,0.3-0.9,0.3c-0.5,0-1-0.2-1.3-0.5c-0.4-0.4-0.5-0.8-0.5-1.3v-4.1
			c0-0.2,0-0.5,0.1-1.1s0.1-1,0.1-1.1V9.9c0-1.2-0.1-2.3-0.3-3c-0.1-0.3-0.1-0.6-0.1-0.8c0-0.4,0.2-0.7,0.7-1.1
			c0.4-0.3,0.8-0.4,1.2-0.4c0.3,0,0.7,0.1,1,0.4s0.5,0.5,0.5,0.8l-0.1,0.4c-0.1,0.2-0.1,0.6-0.2,1.1s-0.1,1.1-0.1,1.7
			c0,0.4,0,3.1-0.1,8.3l3.3-3.1c1.8-1.7,2.8-2.5,3.1-2.5c1.1,0,1.6,0.7,1.6,2V14c-1,0.6-2.1,1.4-3.4,2.5c-1.8,1.4-2.7,2.3-2.7,2.8
			c0,0,0.6,0.7,1.7,2s1.8,2,2,2.2C285,24.6,286.1,25.5,287.2,26z M299.1,14.1c-0.2,1.4-0.4,2.4-0.5,3.1c-0.2,1.2-0.3,2.2-0.3,3.1
			v8.4c0,1.5-0.4,2.7-1.3,3.5s-2.1,1.2-3.6,1.2c-1,0-2.1-0.3-3.3-0.8c-1.4-0.6-2.1-1.3-2.1-2.2c0-0.3,0.1-0.5,0.3-0.7
			c0.2-0.2,0.5-0.3,0.8-0.3c0.2,0,0.6,0.3,1.3,0.8c0.7,0.6,1.5,0.8,2.4,0.8c1.1,0,1.9-0.4,2.3-1.3c0.3-0.6,0.4-1.6,0.4-2.8
			c0-0.6,0-1,0-1.2c-0.7,0.5-1.4,0.7-2.3,0.7c-1.6,0-2.8-0.6-3.6-1.7c-0.8-1-1.1-2.3-1.1-3.9c0-0.4,0.1-3,0.3-7.8
			c0.6-0.3,1.1-0.4,1.5-0.4s1,0.2,1.8,0.7c-0.5,1.2-0.7,3.7-0.7,7.4c0,2.4,0.6,3.6,1.8,3.6c0.9,0,1.6-0.7,2-2.2
			c0.4-1.1,0.5-2.2,0.5-3.3V15c0,0,0-0.3-0.1-1c0.9-0.4,1.5-0.6,1.9-0.6C298,13.5,298.5,13.7,299.1,14.1z"/>
		<circle class="st0" cx="13.9" cy="18.7" r="13.9"/>
		<circle class="st6" cx="152.8" cy="18.6" r="13.9"/>
	</g>
</g>
</svg>
