<svg xmlns="http://www.w3.org/2000/svg" xmlns:xlink="http://www.w3.org/1999/xlink" viewBox="0 0 211.31 255.438">
  <defs>
    <style>
      .cls-1 {
        fill: #393939;
        opacity: 0.107;
      }

      .cls-2 {
        opacity: 0.15;
      }

      .cls-21, .cls-3 {
        fill: none;
      }

      .cls-4 {
        opacity: 0.1;
      }

      .cls-5 {
        fill: url(#linear-gradient);
      }

      .cls-6 {
        fill: url(#linear-gradient-2);
      }

      .cls-7 {
        fill: url(#linear-gradient-3);
      }

      .cls-8 {
        fill: #ffa4b8;
      }

      .cls-9 {
        fill: url(#linear-gradient-4);
      }

      .cls-10 {
        fill: #ff799a;
      }

      .cls-11 {
        fill: url(#linear-gradient-5);
      }

      .cls-12 {
        fill: #311613;
      }

      .cls-13 {
        fill: #ffb6c6;
      }

      .cls-14 {
        fill: url(#linear-gradient-6);
      }

      .cls-15 {
        fill: url(#linear-gradient-7);
      }

      .cls-16 {
        fill: url(#linear-gradient-8);
      }

      .cls-17 {
        fill: url(#linear-gradient-9);
      }

      .cls-18 {
        clip-path: url(#clip-path);
      }

      .cls-19 {
        fill: #e37f21;
      }

      .cls-20 {
        fill: #ffd302;
      }

      .cls-21 {
        stroke: #e37f21;
        stroke-linecap: round;
        stroke-linejoin: round;
        stroke-miterlimit: 10;
        stroke-width: 3.853px;
        opacity: 0.46;
      }
    </style>
    <linearGradient id="linear-gradient" x1="0.514" y1="0.02" x2="0.266" y2="0.8" gradientUnits="objectBoundingBox">
      <stop offset="0" stop-color="#ffa4b8"/>
      <stop offset="1" stop-color="#ff799a"/>
    </linearGradient>
    <linearGradient id="linear-gradient-2" x1="0.355" y1="0.657" x2="0.661" y2="0.319" xlink:href="#linear-gradient"/>
    <linearGradient id="linear-gradient-3" x1="0.753" y1="0.722" x2="0.591" y2="0.391" xlink:href="#linear-gradient"/>
    <linearGradient id="linear-gradient-4" x1="0.464" y1="0.404" x2="0.453" y2="-0.312" xlink:href="#linear-gradient"/>
    <linearGradient id="linear-gradient-5" x1="0.626" y1="0.603" x2="0.808" y2="1.117" xlink:href="#linear-gradient"/>
    <linearGradient id="linear-gradient-6" x1="0.311" y1="0.083" x2="0.677" y2="0.848" gradientUnits="objectBoundingBox">
      <stop offset="0" stop-color="#ffb6c6"/>
      <stop offset="1" stop-color="#ffb6c6" stop-opacity="0.302"/>
    </linearGradient>
    <linearGradient id="linear-gradient-7" x1="0.52" y1="0.533" x2="1.097" y2="0.016" xlink:href="#linear-gradient"/>
    <linearGradient id="linear-gradient-8" x1="0.309" y1="0.141" x2="0.711" y2="0.739" xlink:href="#linear-gradient-6"/>
    <linearGradient id="linear-gradient-9" x1="0.213" y1="0.194" x2="0.424" y2="0.891" xlink:href="#linear-gradient-6"/>
    <clipPath id="clip-path">
      <path id="Path_6592" data-name="Path 6592" d="M339.206,198.414a3.946,3.946,0,0,1-.5-.046c-.319,0-.73-.046-1.277-.046,3.192-2.462,5.152-6.839,3.648-10.715-5.152-13.542-19.743-20.108-33.6-17.554-6.383,1.186-12.767,5.608-15.457,11.581-2.28,5.016-2.417,10.259-3.967,15.457a10.268,10.268,0,0,0,7.067,12.493,9.327,9.327,0,0,0,1.094.228,2.454,2.454,0,0,0,.274,2.1,2.407,2.407,0,0,0,3.328.638l.091-.046s.547-.365,1.459-.958c.456-.319,1.049-.638,1.687-1.049.319-.182.684-.41,1.094-.638.182-.091.365-.228.593-.319.182-.091.41-.228.638-.319.821-.456,1.778-.912,2.781-1.413.5-.228,1-.456,1.55-.684l1.641-.684c.547-.228,1.14-.456,1.733-.684s1.185-.41,1.778-.638c1.231-.41,2.462-.775,3.693-1.14s2.508-.684,3.784-.958c1.231-.274,2.508-.547,3.693-.73,1.185-.228,2.371-.41,3.511-.547,1.094-.137,2.189-.274,3.146-.365,1.961-.182,3.6-.274,4.742-.319.547,0,1-.046,1.322-.046h.5a1.338,1.338,0,0,0,1.322-1.231A1.55,1.55,0,0,0,339.206,198.414Z" transform="translate(-287.669 -169.511)"/>
    </clipPath>
  </defs>
  <g id="Group_3825" data-name="Group 3825" transform="translate(-40.366 -24.404)">
    <ellipse id="Ellipse_1122" data-name="Ellipse 1122" class="cls-1" cx="99.246" cy="18.732" rx="99.246" ry="18.732" transform="translate(52.762 227.799)"/>
    <g id="Group_3461" data-name="Group 3461" transform="translate(40.366 27.404)">
      <g id="Group_3460" data-name="Group 3460" transform="translate(0 0)">
        <g id="Group_3457" data-name="Group 3457" transform="translate(0 13.866)">
          <g id="Group_3453" data-name="Group 3453" class="cls-2" transform="translate(31.078 170.506)">
            <rect id="Rectangle_3682" data-name="Rectangle 3682" class="cls-3" width="155.062" height="59.968"/>
          </g>
          <g id="Group_3454" data-name="Group 3454" class="cls-4" transform="translate(5.909 161.752)">
            <rect id="Rectangle_3683" data-name="Rectangle 3683" class="cls-3" width="205.4" height="76.82"/>
          </g>
          <path id="Path_6568" data-name="Path 6568" class="cls-5" d="M474.135,243.259s2.371-14.226-3.739-17.554-10.4,5.107-10.806,11.673C459.18,243.988,474.135,243.259,474.135,243.259Z" transform="translate(-306.542 -199.674)"/>
          <path id="Path_6569" data-name="Path 6569" class="cls-6" d="M198.3,543.961s3.6,3.83,3.055,11.308c-.547,7.432-.182,17.418,11.992,19.378s15.685-7.2,19.834-11.718C237.284,558.323,221.052,532.334,198.3,543.961Z" transform="translate(-164.393 -371.613)"/>
          <path id="Path_6570" data-name="Path 6570" class="cls-7" d="M474.774,533.406a44.483,44.483,0,0,0-2.553,13.633c-.274,7.751,6.247,16.779-9.3,17.828-15.594,1-13.815-14.636-19.15-12.949-5.335,1.641-3.784-15.594,9.21-22.935C465.928,521.642,478.467,523.831,474.774,533.406Z" transform="translate(-296.374 -362.7)"/>
          <path id="Path_6571" data-name="Path 6571" class="cls-8" d="M313.449,374.322s35.018-33.6,27.859-69.9-27.95-74.321-86.039-75.051-90.69,15.867-104,59.867,4.377,99.308,69.716,107.1C286.32,404.187,313.449,374.322,313.449,374.322Z" transform="translate(-136.554 -202.066)"/>
          <path id="Path_6572" data-name="Path 6572" class="cls-9" d="M196.691,226.828a24.366,24.366,0,0,1-11.445-3.465c-5.472-3.42-24.439-20.792-47.511-13.816-23.117,6.976-11.262,33.467-6.52,40.17s10.852,15.5,8.116,25.762,15.32-.73,30.23-10.487C204.351,242.194,196.691,226.828,196.691,226.828Z" transform="translate(-123.937 -190.402)"/>
          <path id="Path_6573" data-name="Path 6573" class="cls-10" d="M180.573,254.273c5.061.41,1.687-13.132-9.621-19.059s-33.559-10.715-38.392-4.332,1.277,26.172,9.666,35.747C150.617,276.251,144.78,251.538,180.573,254.273Z" transform="translate(-127.699 -201.25)"/>
          <path id="Path_6574" data-name="Path 6574" class="cls-11" d="M351.491,559.8s-4.788.091-6.611,8.754c-1.87,8.618-3.876,16.642-20.381,16.688-16.551.046-14.91-2.69-17.874-6.52s-7.706-14.18-16.232-15.776-22.524-23.482,12.676-26.309S370.277,551.178,351.491,559.8Z" transform="translate(-209.021 -369.073)"/>
          <path id="Path_6575" data-name="Path 6575" class="cls-10" d="M348.937,235.545h-.456c-.319,0-.729,0-1.322.046-1.14.046-2.781.137-4.742.319-.958.091-2.052.228-3.146.365s-2.28.319-3.511.547c-1.185.228-2.462.456-3.693.73s-2.508.593-3.784.958c-1.231.365-2.508.73-3.693,1.14-.593.228-1.185.41-1.778.638s-1.14.456-1.733.684l-1.641.684c-.547.228-1.049.456-1.55.684-1,.456-1.915.912-2.781,1.413-.228.091-.41.228-.638.319a3.768,3.768,0,0,1-.593.319c-.365.228-.73.41-1.094.638-.638.41-1.231.775-1.687,1.049-.912.638-1.459.958-1.459.958l-.091.046a2.4,2.4,0,1,1-2.69-3.967.159.159,0,0,0,.091-.046s.593-.365,1.641-1c.547-.319,1.186-.638,1.915-1.049.365-.182.775-.41,1.185-.593.228-.091.41-.228.638-.319s.456-.228.684-.319c.958-.456,1.961-.912,3.055-1.368.547-.228,1.094-.456,1.687-.684s1.185-.41,1.778-.638c.593-.182,1.231-.41,1.869-.593l1.915-.547c1.277-.365,2.6-.684,3.967-1,1.322-.319,2.645-.547,3.967-.775s2.645-.41,3.876-.593c1.277-.137,2.462-.274,3.648-.365,1.14-.091,2.28-.182,3.283-.228,2.052-.091,3.739-.091,4.924-.091.593,0,1.049.046,1.368.046a2.28,2.28,0,0,1,.5.046,1.286,1.286,0,0,1,1.231,1.368c.182.638-.41,1.185-1.14,1.185Z" transform="translate(-222.882 -203.997)"/>
          <path id="Path_6576" data-name="Path 6576" class="cls-10" d="M195.039,463.719s37.89,14.044,46.143,0c8.253-14-11.627-32.738-41.538-30.96C169.779,434.583,182.09,462.032,195.039,463.719Z" transform="translate(-155.069 -312.665)"/>
          <path id="Path_6577" data-name="Path 6577" class="cls-12" d="M316.919,404.863a6.364,6.364,0,1,1-6.155-6.566A6.4,6.4,0,0,1,316.919,404.863Z" transform="translate(-222.005 -293.979)"/>
          <path id="Path_6578" data-name="Path 6578" class="cls-12" d="M202.719,393.463a6.364,6.364,0,1,1-6.155-6.566A6.4,6.4,0,0,1,202.719,393.463Z" transform="translate(-159.875 -287.777)"/>
          <path id="Path_6579" data-name="Path 6579" class="cls-13" d="M334.1,432.671s-5.745-5.289,12.812-7.934c11.217-1.6,14.91,5.882,5.791,9.484S336.605,435.635,334.1,432.671Z" transform="translate(-237.816 -308.245)"/>
          <path id="Path_6580" data-name="Path 6580" class="cls-13" d="M150.361,411.08s-2.553-4.97,10.578-2.189c7.934,1.687,8.572,7.66,1.55,7.8C155.468,416.87,151.319,413.679,150.361,411.08Z" transform="translate(-138.204 -299.283)"/>
          <path id="Path_6581" data-name="Path 6581" class="cls-8" d="M260.426,475.037c4.332.228,4.514-19.333,1-20.062C257.963,454.2,255.957,474.809,260.426,475.037Z" transform="translate(-196.79 -324.803)"/>
          <path id="Path_6582" data-name="Path 6582" class="cls-8" d="M218.829,466.939c4.332.182,4.56-17.874,1.049-18.558C216.367,447.743,214.361,466.756,218.829,466.939Z" transform="translate(-174.162 -321.219)"/>
          <path id="Path_6583" data-name="Path 6583" class="cls-14" d="M444.4,283.089l3.876,26.081c.41,2.736,3.1,6.019,5.973,7.25l14.226,22.752c1.778,2.325,5.791,3.556,8.846,2.781,0,0,16.551-4.1,14.91-18.512S475.588,280.4,444.4,283.089Z" transform="translate(-298.282 -231.206)"/>
          <path id="Path_6584" data-name="Path 6584" class="cls-15" d="M335.368,254.756s13.36-20.062,34.516-11.627c22.388,8.937,24.029,49.152,23.3,52.754-.73,3.556-10.077,9.438-20.518,3.876-13.952-7.478-7.751-25.579-35.2-32.1C326.613,265.015,331.4,257.994,335.368,254.756Z" transform="translate(-236.487 -208.436)"/>
          <path id="Path_6585" data-name="Path 6585" class="cls-10" d="M335.4,270.191s10.259-18.512,24.12-15.731a24.835,24.835,0,0,1,17.6,16c4.1,11.034,4.924,27.677-.912,34.881-3.374,4.149-1.778-11.4-18.1-22.114C336.677,269.188,336.768,281.544,335.4,270.191Z" transform="translate(-238.982 -215.572)"/>
          <path id="Path_6586" data-name="Path 6586" class="cls-16" d="M531.905,446.43c3.876-7.113,3.511-16.688-.593-21.02s-16.323,7.159-13.36,25.579C519.138,458.193,528.9,451.992,531.905,446.43Z" transform="translate(-338.049 -308.233)"/>
          <path id="Path_6587" data-name="Path 6587" class="cls-17" d="M331.256,327.314c-2.143-8.07-13.679-20.746-30.458-17.6-16.734,3.146-25.215,16.232-27.4,27.95s36.887,23.983,47.6,12.676C326.468,344.549,332.669,332.785,331.256,327.314Z" transform="translate(-205.2 -245.52)"/>
          <g id="Group_3456" data-name="Group 3456" transform="translate(74.655)">
            <g id="Group_3455" data-name="Group 3455" class="cls-18">
              <path id="Path_6588" data-name="Path 6588" class="cls-19" d="M323.176,187.6c-.228-.046-.5-.046-.73-.091-10.213-.958-19.287,6.839-20.245,17.372s6.52,19.834,16.734,20.792a3.921,3.921,0,0,0,.73.046c.228.046.5.046.729.091.228,0,.5.046.73.046.228.046.5.046.73.091.228,0,.5.046.729.046.228.046.5.046.73.091,10.213.958,19.287-6.839,20.245-17.372s-6.52-19.834-16.734-20.792c-.228,0-.5-.046-.73-.046-.228-.046-.5-.046-.73-.091a3.92,3.92,0,0,0-.73-.046c-.228-.046-.5-.046-.73-.091C323.677,187.642,323.4,187.6,323.176,187.6Z" transform="translate(-295.53 -179.257)"/>
              <path id="Path_6589" data-name="Path 6589" class="cls-20" d="M323.042,187.6A19.162,19.162,0,1,1,302.2,204.931,19.172,19.172,0,0,1,323.042,187.6Z" transform="translate(-295.533 -179.311)"/>
              <path id="Path_6590" data-name="Path 6590" class="cls-21" d="M311.7,207.679a15.211,15.211,0,1,1,11.034,18.466" transform="translate(-300.743 -184.02)"/>
              <path id="Path_6591" data-name="Path 6591" class="cls-21" d="M312.786,237.9s-.456,4.332,4.24,7.569" transform="translate(-301.327 -206.717)"/>
            </g>
          </g>
        </g>
        <g id="Group_3459" data-name="Group 3459" class="cls-4" transform="translate(68.662 -3)">
          <g id="Group_3458" data-name="Group 3458">
            <path id="Path_6593" data-name="Path 6593" class="cls-12" d="M343.569,140.741c-.365,4.7-.41,9.393-1.094,14.089-.319,2.189,3.009,3.1,3.328.912.73-4.97.821-9.985,1.231-15C347.171,138.553,343.751,138.553,343.569,140.741Z" transform="translate(-311.48 -139.1)"/>
            <path id="Path_6594" data-name="Path 6594" class="cls-12" d="M314.465,165.161c-1.6-2.325-3.374-4.514-4.97-6.885-1.231-1.824-4.24-.091-2.964,1.733,1.6,2.325,3.374,4.514,4.97,6.885C312.732,168.763,315.7,167.03,314.465,165.161Z" transform="translate(-291.769 -149.111)"/>
            <path id="Path_6595" data-name="Path 6595" class="cls-12" d="M292.572,186.031c-2.736-3.055-6.247-5.107-9.53-7.523-1.778-1.322-3.511,1.687-1.733,2.964,3.055,2.234,6.292,4.149,8.846,6.976C291.614,190.089,294.077,187.673,292.572,186.031Z" transform="translate(-277.81 -160.361)"/>
            <path id="Path_6596" data-name="Path 6596" class="cls-12" d="M283.542,211.921a24.709,24.709,0,0,0-7.341-.821,1.71,1.71,0,0,0,0,3.42,21.742,21.742,0,0,1,6.429.684C284.773,215.888,285.685,212.559,283.542,211.921Z" transform="translate(-274.525 -178.271)"/>
            <path id="Path_6597" data-name="Path 6597" class="cls-12" d="M369.581,159.581a45.368,45.368,0,0,0-1.915,6.885c-.365,2.189,2.918,3.1,3.328.912a45.364,45.364,0,0,1,1.915-6.885C373.594,158.4,370.265,157.484,369.581,159.581Z" transform="translate(-325.182 -149.596)"/>
            <path id="Path_6598" data-name="Path 6598" class="cls-12" d="M398.476,167.28a73.078,73.078,0,0,1-10.4,10.852c-1.641,1.459.41,4.24,2.052,2.781a79.772,79.772,0,0,0,11.034-11.49C402.488,167.645,399.8,165.457,398.476,167.28Z" transform="translate(-335.975 -154.058)"/>
            <path id="Path_6599" data-name="Path 6599" class="cls-12" d="M408.212,207.715a75.3,75.3,0,0,0-8.8,3.237c-2.052.866-.274,3.83,1.733,2.964a72.446,72.446,0,0,1,7.979-2.873A1.726,1.726,0,0,0,408.212,207.715Z" transform="translate(-341.973 -176.391)"/>
          </g>
        </g>
      </g>
    </g>
  </g>
</svg>
