<svg xmlns="http://www.w3.org/2000/svg" viewBox="0 0 116 305" width="116" height="305">
	<style>
		tspan { white-space:pre }
		.shp0 { fill: #d67d1d } 
		.shp1 { fill: #a9641c } 
		.shp2 { fill: #f29100 } 
		.shp3 { fill: #48a13f } 
		.shp4 { fill: #3d8f37 } 
		.shp5 { fill: #e561aa } 
		.shp6 { fill: #ffbb3c } 
		.shp7 { fill: #ffffff } 
	</style>
	<g id="Group_3028">
		<g id="Group_2951">
			<g id="Group_2947">
				<path id="Rectangle_3508" class="shp0" d="M4.11,241.33v0v0h53.62v0v-12.62v0h-41.04c-7,0 -12.58,5.6 -12.58,12.62z" />
			</g>
			<g id="Group_2948">
				<path id="Rectangle_3509" class="shp1" d="M57.69,228.72v12.62v0h53.18v0v0v0c0,-7.02 -5.69,-12.62 -12.58,-12.62h-40.6z" />
			</g>
			<g id="Group_2949">
				<path id="Path_5379" class="shp2" d="M7.59,241.31l13.24,64.73h36.88v-64.73z" />
			</g>
			<g id="Group_2950">
				<path id="Path_5380" class="shp0" d="M107.38,241.31h-49.68v64.73h38.52z" />
			</g>
		</g>
		<g id="Group_3027">
			<g id="Group_3026">
				<g id="Group_3025">
					<g id="Group_2953">
						<g id="Group_2952">
							<path id="Path_5381" class="shp3" d="M58.61,78.67h-1.31l-0.88,149.98h2.85z" />
						</g>
					</g>
					<g id="Group_2991">
						<g id="Group_2966">
							<g id="Group_2958">
								<g id="Group_2955">
									<g id="Group_2954">
										<path id="Path_5382" class="shp3" d="M97.13,79.09c-6.24,2.3 -13.02,3.18 -19.7,2.52c-9.63,-1.1 -18.06,11.74 -12.37,20.08z" />
									</g>
								</g>
								<g id="Group_2957">
									<g id="Group_2956">
										<path id="Path_5383" class="shp4" d="M65.2,101.58c5.8,8.34 20.14,4.61 22.98,-4.72c1.97,-6.47 5.03,-12.4 8.97,-17.77z" />
									</g>
								</g>
							</g>
							<g id="Group_2963">
								<g id="Group_2960">
									<g id="Group_2959">
										<path id="Path_5384" class="shp3" d="M57.93,41.35c-1.64,6.47 -4.92,12.51 -9.3,17.55c-6.35,7.24 -0.77,21.61 9.3,21.61z" />
									</g>
								</g>
								<g id="Group_2962">
									<g id="Group_2961">
										<path id="Path_5385" class="shp4" d="M57.93,80.52c10.18,0 15.21,-13.93 9.3,-21.61c-4.05,-5.27 -7.22,-11.19 -9.3,-17.55z" />
									</g>
								</g>
							</g>
							<g id="Group_2965">
								<g id="Group_2964">
									<path id="Rectangle_3510" class="shp3" d="M60.17,107.85l6.81,-4.79l-1.32,-1.89l-6.81,4.79z" />
								</g>
							</g>
						</g>
						<g id="Group_2974">
							<g id="Group_2971">
								<g id="Group_2968">
									<g id="Group_2967">
										<path id="Path_5386" class="shp3" d="M99.5,105.67c-6.68,2.52 -14.01,3.4 -21.12,2.63c-10.29,-1.1 -19.37,12.62 -13.13,21.5z" />
									</g>
								</g>
								<g id="Group_2970">
									<g id="Group_2969">
										<path id="Path_5387" class="shp4" d="M65.2,129.81c6.24,8.89 21.67,4.83 24.62,-5.16c2.08,-6.8 5.36,-13.28 9.63,-18.98z" />
									</g>
								</g>
							</g>
							<g id="Group_2973">
								<g id="Group_2972">
									<path id="Rectangle_3511" class="shp3" d="M56.56,135.01l7.26,-5.1l-1.44,-2.06l-7.26,5.1z" />
								</g>
							</g>
						</g>
						<g id="Group_2982">
							<g id="Group_2979">
								<g id="Group_2976">
									<g id="Group_2975">
										<path id="Path_5388" class="shp3" d="M108.25,134.73c-8.1,3.07 -16.85,4.17 -25.61,3.18c-12.48,-1.43 -23.53,15.25 -15.98,26z" />
									</g>
								</g>
								<g id="Group_2978">
									<g id="Group_2977">
										<path id="Path_5389" class="shp4" d="M66.71,164.02c7.55,10.75 26.15,5.81 29.88,-6.25c2.63,-8.34 6.57,-16.13 11.71,-23.04z" />
									</g>
								</g>
							</g>
							<g id="Group_2981">
								<g id="Group_2980">
									<path id="Rectangle_3512" class="shp3" d="M59.93,171.86l8.78,-6.18l-1.7,-2.42l-8.78,6.18z" />
								</g>
							</g>
						</g>
						<g id="Group_2990">
							<g id="Group_2987">
								<g id="Group_2984">
									<g id="Group_2983">
										<path id="Path_5390" class="shp3" d="M113.25,170.36c-8.86,3.29 -18.49,4.5 -28.02,3.51c-13.68,-1.54 -25.72,16.68 -17.51,28.42z" />
									</g>
								</g>
								<g id="Group_2986">
									<g id="Group_2985">
										<path id="Path_5391" class="shp4" d="M67.79,202.4c8.21,11.74 28.67,6.36 32.61,-6.8c2.85,-9.11 7.11,-17.66 12.8,-25.23z" />
									</g>
								</g>
							</g>
							<g id="Group_2989">
								<g id="Group_2988">
									<path id="Rectangle_3513" class="shp3" d="M57.1,209.46l9.67,-6.81l-1.88,-2.7l-9.67,6.81z" />
								</g>
							</g>
						</g>
					</g>
					<g id="Group_3024">
						<g id="Group_2999">
							<g id="Group_2996">
								<g id="Group_2993">
									<g id="Group_2992">
										<path id="Path_5392" class="shp3" d="M51.08,96.69c5.69,-8.34 -2.74,-21.17 -12.37,-20.08c-6.68,0.66 -13.46,-0.22 -19.7,-2.52z" />
									</g>
								</g>
								<g id="Group_2995">
									<g id="Group_2994">
										<path id="Path_5393" class="shp4" d="M19.02,74.09c3.94,5.38 7,11.3 8.97,17.77c2.85,9.33 17.18,13.06 22.98,4.72z" />
									</g>
								</g>
							</g>
							<g id="Group_2998">
								<g id="Group_2997">
									<path id="Rectangle_3514" class="shp3" d="M54.89,101.67l1.32,-1.89l-6.81,-4.79l-1.32,1.89z" />
								</g>
							</g>
						</g>
						<g id="Group_3007">
							<g id="Group_3004">
								<g id="Group_3001">
									<g id="Group_3000">
										<path id="Path_5394" class="shp3" d="M51,124.81c6.24,-8.89 -2.85,-22.6 -13.13,-21.5c-7.11,0.77 -14.45,-0.11 -21.12,-2.63z" />
									</g>
								</g>
								<g id="Group_3003">
									<g id="Group_3002">
										<path id="Path_5395" class="shp4" d="M16.74,100.67c4.27,5.71 7.55,12.18 9.63,18.98c2.95,9.98 18.38,14.04 24.62,5.16z" />
									</g>
								</g>
							</g>
							<g id="Group_3006">
								<g id="Group_3005">
									<path id="Rectangle_3515" class="shp3" d="M58.65,131.24l1.44,-2.06l-7.26,-5.1l-1.44,2.06z" />
								</g>
							</g>
						</g>
						<g id="Group_3015">
							<g id="Group_3012">
								<g id="Group_3009">
									<g id="Group_3008">
										<path id="Path_5396" class="shp3" d="M49.54,158.91c7.55,-10.75 -3.5,-27.43 -15.98,-26c-8.75,0.99 -17.51,-0.11 -25.61,-3.18z" />
									</g>
								</g>
								<g id="Group_3011">
									<g id="Group_3010">
										<path id="Path_5397" class="shp4" d="M7.96,129.72c5.14,6.91 9.08,14.7 11.71,23.04c3.72,12.07 22.32,17.01 29.88,6.25z" />
									</g>
								</g>
							</g>
							<g id="Group_3014">
								<g id="Group_3013">
									<path id="Rectangle_3516" class="shp3" d="M58.49,166.6l1.7,-2.42l-8.78,-6.18l-1.7,2.42z" />
								</g>
							</g>
						</g>
						<g id="Group_3023">
							<g id="Group_3020">
								<g id="Group_3017">
									<g id="Group_3016">
										<path id="Path_5398" class="shp3" d="M48.49,197.28c8.21,-11.74 -3.83,-29.95 -17.51,-28.42c-9.52,0.99 -19.15,-0.22 -28.02,-3.51z" />
									</g>
								</g>
								<g id="Group_3019">
									<g id="Group_3018">
										<path id="Path_5399" class="shp4" d="M2.97,165.36c5.69,7.57 9.96,16.13 12.8,25.23c3.94,13.17 24.4,18.54 32.61,6.8z" />
									</g>
								</g>
							</g>
							<g id="Group_3022">
								<g id="Group_3021">
									<path id="Rectangle_3517" class="shp3" d="M58.18,205.62l1.88,-2.7l-9.67,-6.81l-1.88,2.7z" />
								</g>
							</g>
						</g>
					</g>
				</g>
			</g>
		</g>
	</g>
	<g id="Layer">
		<path id="Layer" class="shp5" d="M33.38,54.42c-7.22,-1.1 -27.36,0.55 -30.09,11.19c-5.03,20.08 27.36,8.34 35.68,5.05c-6.68,7.24 -20.03,24.03 -9.52,32.37c11.71,10.09 25.61,-6.69 27.91,-17.33v0c1.64,6.14 11.71,22.38 20.03,19.53c8.97,-2.74 3.39,-19.53 -1.09,-24.58c17.29,18.98 47.38,-15.14 8.97,-20.63c6.13,-2.19 21.78,-18.98 13.9,-25.67c-5.58,-5.05 -20.57,5.05 -25.61,9c1.64,-6.69 16.74,-31.82 1.09,-32.37c-10.62,0 -16.2,17.33 -18.93,25.12c0,-7.79 0.55,-36.31 -13.9,-33.57c-10.62,2.19 -7.22,25.67 -3.39,31.82c-3.94,-5.6 -23.97,-12.29 -27.36,-4.5c-4.49,9.54 14.34,21.28 20.46,23.48z" />
		<path id="Layer" class="shp6" d="M42.57,56.61c-3.94,-0.66 -14.77,0.33 -16.31,6.03c-2.74,10.86 14.77,4.5 19.26,2.74c-3.61,3.95 -10.83,12.95 -5.14,17.55c6.35,5.49 13.9,-3.62 15.1,-9.33v0c0.88,3.29 6.35,12.07 10.83,10.53c4.82,-1.54 1.86,-10.53 -0.66,-13.28c9.3,10.31 25.61,-8.12 4.82,-11.19c3.28,-1.21 11.71,-10.31 7.55,-13.93c-3.06,-2.74 -11.16,2.74 -13.9,4.83c0.88,-3.62 9.08,-17.22 0.66,-17.55c-5.69,0 -8.75,9.33 -10.29,13.6c0,-4.28 0.33,-19.64 -7.55,-18.1c-5.69,1.21 -3.94,13.93 -1.86,17.22c-2.08,-3.07 -12.91,-6.69 -14.77,-2.41c-2.19,5.16 7.99,11.41 11.27,12.62z" />
		<g id="Layer">
			<g id="Layer">
				<path id="Layer" class="shp7" d="M61.5,59.57c0.22,-0.44 0.44,-0.99 0.55,-1.76c0.22,-1.76 -0.22,-3.51 -2.08,-4.06c-3.06,-0.99 -6.24,1.97 -5.47,5.05c0.33,1.54 1.53,2.63 3.17,2.52c1.75,-0.11 3.06,-0.55 3.83,-1.76z" />
			</g>
			<g id="Layer">
				<path id="Layer" class="shp7" d="M48.81,59.46c-0.22,-0.44 -0.55,-0.77 -0.98,-0.99c-1.75,-0.77 -2.95,1.43 -2.95,2.85c0.22,4.06 6.24,2.63 3.94,-1.87z" />
			</g>
			<g id="Layer">
				<path id="Layer" class="shp7" d="M53.84,64.62c-0.55,-0.66 -1.42,-0.88 -2.63,-0.55c-2.74,0.88 -2.41,5.27 0.77,5.16c2.74,0 3.17,-3.18 1.86,-4.61z" />
			</g>
			<g id="Layer">
				<path id="Layer" class="shp7" d="M58.44,65.39c-2.19,1.76 0.33,5.81 2.95,4.39c2.95,-1.43 -0.33,-6.47 -2.95,-4.39z" />
			</g>
			<g id="Layer">
				<path id="Layer" class="shp7" d="M63.03,64.51c0.44,1.32 2.08,2.74 3.61,2.41c2.41,-0.55 2.08,-4.5 -0.11,-5.05c-1.64,-0.55 -4.27,0.55 -3.5,2.63z" />
			</g>
			<g id="Layer">
				<path id="Layer" class="shp7" d="M67.52,55.19c-1.31,0 -2.74,0.66 -2.85,1.97c-0.44,2.63 2.85,3.07 4.49,1.65c0.77,-0.66 1.2,-1.65 0.55,-2.63c-0.44,-0.66 -1.31,-0.99 -2.19,-0.99z" />
			</g>
			<g id="Layer">
				<path id="Layer" class="shp7" d="M67.63,50.91c-1.09,-4.06 -6.35,-0.55 -3.5,1.97c1.75,1.54 4.16,0.55 3.5,-1.97z" />
			</g>
			<g id="Layer">
				<path id="Layer" class="shp7" d="M62.16,48.93c0.11,-2.52 -4.71,-3.29 -5.58,-0.88c-0.98,2.85 4.49,4.61 5.47,1.54c0,-0.22 0.11,-0.44 0.11,-0.66z" />
			</g>
			<g id="Layer">
				<path id="Layer" class="shp7" d="M49.9,48.71c-2.41,2.74 2.41,5.16 4.49,3.18c2.74,-2.52 -2.19,-5.71 -4.49,-3.18z" />
			</g>
			<g id="Layer">
				<path id="Layer" class="shp7" d="M50.34,53.43c-0.98,-0.88 -2.85,-0.77 -3.5,0.99v0.11c-0.98,3.07 3.5,3.51 4.05,0.77c0.22,-0.77 0,-1.43 -0.55,-1.87z" />
			</g>
			<g id="Layer">
				<path id="Layer" class="shp7" d="M52.64,51.78c1.42,2.41 3.17,4.61 5.14,6.58c1.2,1.21 2.95,-0.66 1.86,-1.87c-1.86,-1.87 -3.39,-3.84 -4.71,-6.03c-0.88,-1.43 -3.17,-0.11 -2.3,1.32z" />
			</g>
			<g id="Layer">
				<path id="Layer" class="shp7" d="M60.52,56.5c0,-2.52 0.44,-4.94 0.88,-7.35c0.33,-1.65 -2.19,-2.3 -2.52,-0.66c-0.44,2.63 -0.88,5.27 -0.98,8.01c0,1.76 2.63,1.76 2.63,0z" />
			</g>
			<g id="Layer">
				<path id="Layer" class="shp7" d="M61.17,57.6c1.31,-2.19 3.94,-3.29 4.6,-5.92c0.44,-1.65 -2.08,-2.3 -2.52,-0.66c-0.55,2.19 -3.28,3.4 -4.38,5.38c-0.77,1.43 1.53,2.74 2.3,1.21z" />
			</g>
			<g id="Layer">
				<path id="Layer" class="shp7" d="M58.66,59.13c0.98,-0.11 2.08,0.11 3.06,0.22c1.42,0.11 2.85,-0.11 4.16,-0.66c1.53,-0.55 0.88,-3.07 -0.66,-2.52c-2.41,0.88 -4.71,0 -7.22,0.44c-1.64,0.33 -0.98,2.85 0.66,2.52z" />
			</g>
			<g id="Layer">
				<path id="Layer" class="shp7" d="M58.88,60.34c1.97,1.97 4.16,3.73 6.57,5.16c1.42,0.88 2.74,-1.43 1.31,-2.19c-2.19,-1.32 -4.16,-2.96 -6.02,-4.72c-1.2,-1.32 -3.06,0.55 -1.86,1.76z" />
			</g>
			<g id="Layer">
				<path id="Layer" class="shp7" d="M56.58,59.9c0.88,2.96 1.09,6.14 2.41,9.11c0.66,1.54 2.95,0.22 2.19,-1.32c-1.2,-2.63 -1.31,-5.71 -2.08,-8.45c-0.55,-1.65 -2.95,-0.99 -2.52,0.66z" />
			</g>
			<g id="Layer">
				<path id="Layer" class="shp7" d="M52.97,66.49c2.08,-2.08 3.94,-4.5 5.8,-6.8c0.98,-1.32 -1.2,-2.63 -2.19,-1.32c-1.64,2.19 -3.39,4.39 -5.36,6.36c-1.31,1.1 0.55,2.96 1.75,1.76z" />
			</g>
			<g id="Layer">
				<path id="Layer" class="shp7" d="M48.48,61.88c3.17,0.55 6.89,-1.65 9.63,-2.96c1.53,-0.77 0.22,-2.96 -1.31,-2.19c-1.2,0.66 -2.52,1.21 -3.83,1.76c-1.09,0.44 -2.63,1.21 -3.83,0.99c-1.53,-0.44 -2.3,2.08 -0.66,2.41z" />
			</g>
			<g id="Layer">
				<path id="Layer" class="shp7" d="M49.46,57.38c2.85,0.55 5.69,1.32 8.54,1.76c1.64,0.33 2.3,-2.19 0.66,-2.52c-2.85,-0.55 -5.69,-1.32 -8.54,-1.76c-1.64,-0.33 -2.41,2.19 -0.66,2.52z" />
			</g>
		</g>
	</g>
</svg>