<svg xmlns="http://www.w3.org/2000/svg" xmlns:xlink="http://www.w3.org/1999/xlink" viewBox="0 0 547 317.987">
  <defs>
    <style>
      .cls-1 {
        opacity: 0.25;
      }

      .cls-15, .cls-16, .cls-19, .cls-2, .cls-21, .cls-29, .cls-39 {
        fill: #231f20;
      }

      .cls-2, .cls-41 {
        opacity: 0.3;
      }

      .cls-3 {
        fill: #f4b008;
      }

      .cls-26, .cls-4 {
        fill: #0f3c47;
      }

      .cls-25, .cls-5, .cls-6 {
        fill: #3f616f;
      }

      .cls-25, .cls-26, .cls-5 {
        stroke: #000;
      }

      .cls-26, .cls-5 {
        stroke-miterlimit: 10;
      }

      .cls-25, .cls-26, .cls-33, .cls-5 {
        stroke-width: 2px;
      }

      .cls-7 {
        fill: #e6e7e8;
      }

      .cls-8 {
        fill: #193441;
      }

      .cls-9 {
        fill: #0d414f;
        stroke: #0d414f;
        stroke-width: 4px;
      }

      .cls-25, .cls-33, .cls-9 {
        stroke-linecap: round;
        stroke-linejoin: round;
      }

      .cls-10 {
        fill: #29a2ab;
      }

      .cls-10, .cls-11, .cls-48 {
        opacity: 0.8;
      }

      .cls-11, .cls-14, .cls-17, .cls-18, .cls-24, .cls-27, .cls-28, .cls-35, .cls-36, .cls-37, .cls-38, .cls-52 {
        fill: #fff;
      }

      .cls-12 {
        fill: #1c75bc;
      }

      .cls-13 {
        fill: #a73e5c;
      }

      .cls-16 {
        opacity: 0.307;
      }

      .cls-17, .cls-51 {
        opacity: 0.45;
      }

      .cls-18 {
        opacity: 0.396;
      }

      .cls-19 {
        opacity: 0.198;
      }

      .cls-20 {
        fill: #27aae1;
      }

      .cls-21 {
        opacity: 0.29;
      }

      .cls-22 {
        fill: #279fc9;
      }

      .cls-23 {
        fill: #798987;
      }

      .cls-24 {
        opacity: 0.403;
      }

      .cls-27 {
        opacity: 0.468;
      }

      .cls-28 {
        opacity: 0.493;
      }

      .cls-29 {
        opacity: 0.2;
      }

      .cls-30, .cls-33 {
        fill: #e87e25;
      }

      .cls-31 {
        fill: #f38f31;
      }

      .cls-32 {
        fill: #f7941e;
      }

      .cls-33 {
        stroke: #f38f31;
      }

      .cls-34 {
        fill: #dd7222;
      }

      .cls-35 {
        opacity: 0.397;
      }

      .cls-36 {
        opacity: 0.425;
      }

      .cls-37 {
        opacity: 0.319;
      }

      .cls-38 {
        opacity: 0.4;
      }

      .cls-39 {
        opacity: 0.202;
      }

      .cls-40 {
        fill: #f4cb1c;
      }

      .cls-42 {
        fill: #1e0707;
      }

      .cls-43 {
        fill: #f6d433;
      }

      .cls-44 {
        fill: #efc929;
      }

      .cls-45 {
        fill: url(#linear-gradient);
      }

      .cls-46 {
        fill: url(#linear-gradient-2);
      }

      .cls-47 {
        fill: url(#linear-gradient-3);
      }

      .cls-48 {
        fill: #262262;
      }

      .cls-49 {
        fill: url(#linear-gradient-4);
      }

      .cls-50 {
        fill: url(#linear-gradient-5);
      }

      .cls-51 {
        fill: #fffaef;
      }

      .cls-52 {
        opacity: 0.334;
      }
    </style>
    <linearGradient id="linear-gradient" x1="-20.104" y1="-0.181" x2="-20.061" y2="-0.181" gradientUnits="objectBoundingBox">
      <stop offset="0" stop-color="#fff33b"/>
      <stop offset="0.04" stop-color="#fee72e"/>
      <stop offset="0.12" stop-color="#fed51b"/>
      <stop offset="0.2" stop-color="#fdca10"/>
      <stop offset="0.28" stop-color="#fdc70c"/>
      <stop offset="0.67" stop-color="#f3903f"/>
      <stop offset="0.89" stop-color="#ed683c"/>
      <stop offset="1" stop-color="#e93e3a"/>
    </linearGradient>
    <linearGradient id="linear-gradient-2" x1="-21.677" y1="1.012" x2="-21.636" y2="1.012" xlink:href="#linear-gradient"/>
    <linearGradient id="linear-gradient-3" x1="-35.251" y1="1.09" x2="-35.177" y2="1.09" xlink:href="#linear-gradient"/>
    <linearGradient id="linear-gradient-4" x1="-11.344" y1="-0.32" x2="-11.321" y2="-0.32" xlink:href="#linear-gradient"/>
    <linearGradient id="linear-gradient-5" x1="-12.412" y1="-0.169" x2="-12.389" y2="-0.169" xlink:href="#linear-gradient"/>
  </defs>
  <g id="Group_2421" data-name="Group 2421" transform="translate(-3039.979 -14063.311)">
    <ellipse id="Ellipse_962_1_" class="cls-1" cx="273.5" cy="70.5" rx="273.5" ry="70.5" transform="translate(3039.979 14240.298)"/>
    <g id="_3_electricity_1_" transform="translate(2893.619 14274.098)">
      <g id="Layer_2_2_">
        <g id="OBJECTS_1_">
          <path id="Path_2521_1_" class="cls-2" d="M291.2,20.3s42-2.7,54.8,8.1c12.8,10.7-14,28.3-75,25.4s-42.2-19-63.9-21.8S225.9,14.5,291.2,20.3Z"/>
          <path id="Path_2522_1_" class="cls-3" d="M237.9,29.3,220,40.7s21.8-3.3,30.9,9.3l6.3-13.7Z"/>
          <path id="Path_2523_1_" class="cls-3" d="M299.4,36.8,311,52.6S322.2,42,337.4,42.2L319.5,29.9Z"/>
          <path id="Path_2524_1_" class="cls-4" d="M219.4-96.4s-11.5-2.6-14.1-11.1a49.936,49.936,0,0,1-2.4-14.4s-.9-4.2-6-3-6.6,9.3-6.2,19.9,11.6,28.2,25.4,32.8S219.4-96.4,219.4-96.4Z"/>
          <path id="Path_2525_1_" class="cls-5" d="M349.8,16.7s32.6-115.1-14.5-186c0,0-53-18.4-93.2.9,0,0-41,76.5-32.5,178.7,0,0,6.8,29.5,61.1,30.8S349.8,16.7,349.8,16.7Z"/>
          <path id="Path_2526_1_" class="cls-6" d="M345-90.2s10.6-2.3,15.4-9.4,8.5-22.4,15.1-20c6.5,2.4,8.5,11.9,5.4,26.6s-18.2,22.8-27.1,25.3C345-65.1,342.4-80.5,345-90.2Z"/>
          <path id="Path_2527_1_" class="cls-7" d="M270.6-162.8a12.824,12.824,0,0,0,15.8,1.5,18.334,18.334,0,0,1,12.7-3c13.1,2,22.5,41.6,17.1,63.5,0,0,29.4,23.4,19.1,74.4S281.4,40,247.5,23.5s-39-92.1-15.4-122.6c0,0-4.3-23,7.3-45.6C248.4-162.3,261.8-171.6,270.6-162.8Z"/>
          <path id="Path_2528_1_" class="cls-8" d="M294.4-132.2c-.8,4.2-3.3,7.2-5.6,6.8-2.3-.5-3.5-4.2-2.7-8.4s3.3-7.2,5.6-6.8S295.2-136.4,294.4-132.2Z"/>
          <path id="Path_2529_1_" class="cls-8" d="M262.7-134.2c-.8,4.2-3.2,7.2-5.4,6.8s-3.2-4.1-2.4-8.3,3.2-7.2,5.3-6.8C262.5-142.1,263.5-138.3,262.7-134.2Z"/>
          <path id="Path_2530_1_" class="cls-9" d="M311.9-116.6l2.3-20.6s26.6-1.6,34-12.8a25.882,25.882,0,0,1,6.2,20.8S334.4-116.5,311.9-116.6Z"/>
          <path id="Path_2531_1_" class="cls-9" d="M233.8-148.1s-6-.8-7,4.1c-1.6,7.6-3.3,15.8,4.7,16.6Z"/>
          <path id="Path_2532_1_" class="cls-10" d="M278-119.2a15.683,15.683,0,0,0,3.5,3.8c9.4-8.4,18.4-17.2,28-25.3-3-4.5-7.4-7.2-13.6-9.9a28.509,28.509,0,0,0-5-1.4c-15.1,11.9-29.9,24.3-44.4,37,6.2,1.2,12.8-.1,16.1-4C270.1-127.9,275-124.2,278-119.2Z"/>
          <path id="Path_2533_1_" class="cls-11" d="M311.9-136.1a29.178,29.178,0,0,0-2.3-4.7c-9.6,8.1-18.6,16.9-28,25.3a25.191,25.191,0,0,0,6,3.4c8.3-7.4,16.7-14.8,25-22.2A13.354,13.354,0,0,1,311.9-136.1Z"/>
          <path id="Path_2534_1_" class="cls-10" d="M287.5-112.1a20.036,20.036,0,0,0,11.6,1.1c11.2-2.6,17.1-11.2,13.4-23.3C304.2-126.8,295.8-119.5,287.5-112.1Z"/>
          <path id="Path_2535_1_" class="cls-11" d="M271.5-155c-1.3,1.3-2.6,2.6-3.9,3.8-10.6,10.7-20.9,21.1-31.4,31,.4.4.8.7,1.2,1.1a20.743,20.743,0,0,0,9.2,4.1c14.6-12.7,29.3-25.1,44.5-37A134.811,134.811,0,0,0,271.5-155Z"/>
          <path id="Path_2536_1_" class="cls-11" d="M264.1-155.4c-2.2-.1-4.4,0-6.4,0-8.1,9.7-16.8,18.7-25.8,27.6a13.354,13.354,0,0,0,1.9,4.4Q249.55-138.7,264.1-155.4Z"/>
          <path id="Path_2537_1_" class="cls-10" d="M242.8-152.2c-10.7,6.1-13.1,16.4-10.9,24.4,9-8.8,17.7-17.9,25.8-27.5C251.6-155.1,246.2-154.2,242.8-152.2Z"/>
          <path id="Path_2538_1_" class="cls-10" d="M264.1-155.4q-14.55,16.65-30.4,32a19.1,19.1,0,0,0,2.4,3.2c10.5-10,20.8-20.4,31.4-31,1.4-1.2,2.6-2.5,3.9-3.8C269-155.2,266.6-155.3,264.1-155.4Z"/>
          <path id="Path_2539_1_" class="cls-12" d="M248.1-111.6a25.508,25.508,0,0,1-12.9-5.1c-5-3.9-7.9-11.2-7.3-18.4.6-8.3,5.3-15.3,13.2-19.8,8.5-4.8,25.5-3.8,34.9-2.8,8.9,1,17.9,2.8,21.2,4.2,8.6,3.7,14.5,7.7,17.7,16.4,2.7,7.2,2.5,13.8-.4,19.1-2.8,5.1-7.9,8.6-14.7,10.2a24.058,24.058,0,0,1-7.1.4h0c-7.1-.8-14.5-5-17.5-10-1.4-2.2-2.8-3.5-4-3.6-1.5-.2-3.8,1.3-6.2,4.2C261.6-112.8,255.2-110.8,248.1-111.6Zm27.3-39.8c-14.4-1.6-25.9-.8-30.9,2-8.1,4.6-9.8,11.2-10,14.8-.4,5.2,1.6,10.4,4.9,13a18.849,18.849,0,0,0,9.4,3.7c4.9.5,9.2-.7,11.3-3.2,4-4.7,8-6.9,11.9-6.4,3.4.4,6.4,2.6,8.9,6.8,1.8,2.9,7,6.3,12.6,6.9h0a15.365,15.365,0,0,0,4.8-.2c5-1.2,8.6-3.6,10.5-7,2-3.7,2-8.5,0-13.9-2.4-6.6-6.9-9.6-14.2-12.8C292.6-148.6,285.2-150.3,275.4-151.4Z"/>
          <path id="Path_2540_1_" class="cls-13" d="M262.7-89.1s4.2-6.6.7-19.4,5.7-2.7,5.7-2.7,10.7.8,11.7.6,3.6,2.6,3.8,2.6-2.3,5.9-2.3,5.9S282.3-90.3,262.7-89.1Z"/>
          <path id="Path_2541_1_" class="cls-3" d="M290.2-107.4c-14.2-3.6-15.6-10-16.9-11.8a4.049,4.049,0,0,0-2.8-1.6,91.128,91.128,0,0,0-31.2,2.2s19.2,8,26.4,13.1,14.2,3.3,17.3-.7c0,0-4.1,15.5-20.4,17.1.1,0,20.5,4.2,27.6-18.3"/>
          <path id="Path_2542_1_" class="cls-14" d="M271.5-119.2s-19.8-1.6-28,.9a44.762,44.762,0,0,1,14.7,6.4c6.9,4.7,15.1,10,19.2,7.8s4-5.4,4-5.4S272.3-112.6,271.5-119.2Z"/>
          <path id="Path_2543_1_" class="cls-15" d="M380-111.1s2.1,15.1-3.3,24.4-13.2,15.3-21.6,15.6-5.9-4.5-5-5.5C351-77.7,377.9-83.6,380-111.1Z"/>
          <path id="Path_2544_1_" class="cls-16" d="M193.8-117.5s-7.4,24.3,18.3,40.8L214-88.8s-19.3-10.9-16.1-29.4C197.9-118.2,196.7-122.5,193.8-117.5Z"/>
          <path id="Path_2545_1_" class="cls-17" d="M377-115s-.1-2.7-4.3-1.6-8.2,23.3-26.5,27.1v3.6S370-87.4,377-115Z"/>
          <path id="Path_2546_1_" class="cls-17" d="M201.7-121.8s0-2-2.8-2.3-5.9,2-4.3,2.8,5-.4,5.5,1-1.2,11,5.5,19.3c0,0,6.5,6.3,9.5,8.1l1.2-3.4s-9.5-2.8-12-11.5C201.6-116.6,201.7-121.8,201.7-121.8Z"/>
          <path id="Path_2547_1_" class="cls-18" d="M331.9-166.2s-47.8-17.1-87.2,0c0,0-6.5,3.4-2.6,7.2C246.1-155.2,338.1-147,331.9-166.2Z"/>
          <path id="Path_2548_1_" class="cls-19" d="M217.5-67.4s-8,42.9-4.6,75.4c0,0,14.8,28.6,61.3,28.6S344,14.9,344,14.9,357-19.9,357.1-58c0,0-44.5,53.7-91.3,48.7S217.5-67.4,217.5-67.4Z"/>
          <path id="Path_2549_1_" class="cls-20" d="M256.4,7.4l22.9-23a1.45,1.45,0,0,0,0-2.1,1.5,1.5,0,0,0-1.1-.4h-1.9a1.538,1.538,0,0,1-1.5-1.5,1.4,1.4,0,0,1,.3-.9l12.2-15.3a1.55,1.55,0,0,0-.2-2.1,1.613,1.613,0,0,0-.9-.3h-6.1a1.538,1.538,0,0,1-1.5-1.5,1.613,1.613,0,0,1,.3-.9l15.5-20.6a1.461,1.461,0,0,0-.3-2.1,1.613,1.613,0,0,0-.9-.3H268.7a1.34,1.34,0,0,0-1.3.8l-12,24.3a1.445,1.445,0,0,0,.7,2,1.445,1.445,0,0,0,.7.2h5.5a1.538,1.538,0,0,1,1.5,1.5,1.854,1.854,0,0,1-.2.7l-8.2,16.6a1.445,1.445,0,0,0,.7,2,1.445,1.445,0,0,0,.7.2H262a1.538,1.538,0,0,1,1.5,1.5c0,.2-.1.4-.1.6L254,5.7a1.541,1.541,0,0,0,.8,2A1.605,1.605,0,0,0,256.4,7.4Z"/>
          <path id="Path_2550_1_" class="cls-16" d="M380-111.1s2.1,15.1-3.3,24.4-13.2,15.3-21.6,15.6-5.9-4.5-5-5.5C351-77.7,377.9-83.6,380-111.1Z"/>
          <path id="Path_2552_1_" class="cls-21" d="M350.2-95.8s6.3-2.8,8.1-4.8c1.5-1.7-.7,1.7-2.2,3.8-.2.3-2,.4-2.3.7-3.6,4-2.9,3.9-2.9,3.9-3.2,2,2.2,6.6.9,11.9-.9,3.2-4.5,3.4-4.7,5.7-.2,2.8,3,3.1,2.8,5.9-.8,8.4,1.4,29.1-5.8,32.9-14.5,7.7-42.5-3.4-46-3-11.9,1.2-1.3-16.6-12.2-16.6-27.3,0-49.2-9.7-64.7-23.6-3.1-2.8-5.2-5.5-5.6-8.9-.8-6.3-7.6-13.9,4.4-14,0,0,17.7,5.4,23.4,7.5A161.282,161.282,0,0,0,264-88.6c10,2.2,20.6,3.8,27.6,3.5,12.6-.6,44.5-2.8,58.6-10.7"/>
          <path id="Path_2553_1_" class="cls-22" d="M349.9-98.8s6.3-2.8,8.1-4.8c1.5-1.7,2.7,4.7,1.1,6.8l-.2.3c-3.6,4-10.8,6.5-10.8,6.5-7.2,1.8-4.6,10.4-8.2,17.9-2.6,5.4-11.1,10.5-16.2,11-42.1,4.4-76.8-7-102.3-20.9a13.119,13.119,0,0,1-6-9.1c-.8-6.3-7.6-13.9,4.4-14,0,0,17.7,5.4,23.4,7.5a161.282,161.282,0,0,0,20.6,5.8c10,2.2,20.5,3.8,27.6,3.5,12.5-.5,44.4-2.7,58.5-10.5"/>
          <path id="Path_2554_1_" class="cls-12" d="M221.4-81.9a6.442,6.442,0,0,1-3.3-5.9c.6-17.4,8.7-14.6,9.2-14.9h0l4,1.2,2.8.9c-.4.2-12-2.5-9.7,20.2Z"/>
          <path id="Path_2555_1_" class="cls-12" d="M235.3-75.1c-1.6-16.7,7.3-21.9,7.8-22.4l6.4,2.1c.8-.8-8.1,9.2-6.7,23.4Z"/>
          <path id="Path_2556_1_" class="cls-12" d="M253.5-68.2c-.4-18.6,7.1-23.7,7.4-24.1l3,.7,2,.4,1.6.3c.4-1.2-7,8.4-6.7,24.8Z"/>
          <path id="Path_2557_1_" class="cls-12" d="M273.9-63.1c-.4-18.6,6.1-25.4,6.4-25.8l2.8.4,1.9.2,1.9.1c.4-1.2-5.4,10.1-5,26.5h-.6a34.4,34.4,0,0,1-6.3-1Z"/>
          <path id="Path_2558_1_" class="cls-23" d="M342.6-83.5c.4-3,2.5-4.3,1.5-7.6-.4-1.1-.5-3.8-4.1-3.8h0l-6.5,1.7c.1.1,9.2.8,4.7,23.5C338.1-69.6,340.7-70.6,342.6-83.5Z"/>
          <path id="Path_2559_1_" class="cls-12" d="M351.8-91.7a25.9,25.9,0,0,0-3.1-6.5s1.3-.7,2-1l2.7-1.3c.2.2.9,2.3,2.6,6.4a22.826,22.826,0,0,1-4,2.4Z"/>
          <path id="Path_2560_1_" class="cls-20" d="M329.8-95.6c-8.9,1.6-12.3,6.7-24.1,5.1-19.5-2.6-12.8,25.8-13.5,43.8-.9,23.1-3.9,39.2-.9,42.8C295.5,1,346.1,2.2,347.9.6c1.5-1.2.9-20-.5-55.4-.2-6.2,4-32.7-2-37.4C340.5-96.1,335.9-96.7,329.8-95.6Z"/>
          <path id="Path_2561_1_" class="cls-20" d="M299.2-5a1.268,1.268,0,0,0,.1.6c.1.4.1.9.3,1.6a22.494,22.494,0,0,0,.5,2.2c.2.8.4,1.6.6,2.5s.6,1.7.8,2.5l.9,2.1a3.508,3.508,0,0,0,.5.8l.4.6.3.5-.4-.5-.5-.5a4.349,4.349,0,0,1-.6-.7c-.4-.6-.8-1.2-1.3-1.9a13.443,13.443,0,0,1-1.2-2.4,24.424,24.424,0,0,1-1-2.4c-.2-.8-.6-1.5-.8-2.2-.2-.6-.4-1.2-.5-1.6a3.224,3.224,0,0,0-.2-.6Z"/>
          <path id="Path_2562_1_" class="cls-20" d="M307.1-3.9a1.268,1.268,0,0,0,.1.6c.1.4.1.9.3,1.6s.3,1.4.5,2.2.4,1.6.6,2.5.6,1.7.8,2.4l.9,2.1a3.508,3.508,0,0,0,.5.8l.4.6.3.5-.4-.4-.5-.5c-.2-.2-.4-.5-.6-.7-.4-.6-.8-1.2-1.3-1.9a13.443,13.443,0,0,1-1.2-2.4,24.424,24.424,0,0,1-1-2.4c-.2-.8-.6-1.5-.8-2.2-.2-.6-.4-1.2-.5-1.6l-.2-.7Z"/>
          <path id="Path_2563_1_" class="cls-20" d="M314.9-2.8a1.268,1.268,0,0,0,.1.6c.1.4.1.9.3,1.6.1.6.3,1.4.5,2.2s.4,1.6.6,2.5.6,1.7.8,2.4l.9,2.1a3.508,3.508,0,0,0,.5.8l.4.6.3.5-.4-.5-.5-.5c-.2-.2-.4-.5-.6-.7-.4-.6-.8-1.2-1.3-1.9a13.443,13.443,0,0,1-1.2-2.4,12.235,12.235,0,0,1-1-2.4c-.2-.8-.6-1.5-.8-2.2-.2-.6-.4-1.2-.5-1.6a3.224,3.224,0,0,0-.2-.6Z"/>
          <path id="Path_2564_1_" class="cls-20" d="M322.7-1.7a1.268,1.268,0,0,0,.1.6c.1.4.1.9.3,1.6.1.6.3,1.4.5,2.2s.4,1.6.6,2.5.6,1.7.8,2.4c.3.8.7,1.4.9,2.1a3.508,3.508,0,0,0,.5.8l.4.6.3.5-.4-.4-.5-.5a4.349,4.349,0,0,1-.6-.7c-.4-.6-.8-1.2-1.3-1.9a13.443,13.443,0,0,1-1.2-2.4,24.424,24.424,0,0,1-1-2.4c-.2-.8-.6-1.5-.8-2.2-.2-.6-.4-1.2-.5-1.6a3.224,3.224,0,0,0-.2-.6Z"/>
          <path id="Path_2565_1_" class="cls-20" d="M330.5-2.5l.1.6c.1.4.1.9.3,1.6s.3,1.4.5,2.2.4,1.6.6,2.5.6,1.7.8,2.4l.9,2.1a3.508,3.508,0,0,0,.5.8l.4.6.3.5-.4-.4-.5-.6a4.349,4.349,0,0,1-.6-.7c-.4-.6-.8-1.2-1.3-2-.4-.8-.8-1.5-1.2-2.4a24.424,24.424,0,0,1-1-2.4c-.2-.8-.6-1.5-.8-2.2s-.4-1.2-.5-1.6a3.224,3.224,0,0,0-.2-.6Z"/>
          <path id="Path_2566_1_" class="cls-20" d="M338.4-1.4a1.268,1.268,0,0,0,.1.6c.1.4.1.9.3,1.6a22.494,22.494,0,0,0,.5,2.2c.2.8.4,1.6.6,2.5s.6,1.7.8,2.5l.9,2.1a3.508,3.508,0,0,0,.5.8l.4.6.3.5-.4-.4-.5-.5a4.349,4.349,0,0,1-.6-.7c-.4-.6-.8-1.2-1.3-1.9a13.443,13.443,0,0,1-1.2-2.4,24.424,24.424,0,0,1-1-2.4c-.2-.8-.6-1.5-.8-2.2-.2-.6-.4-1.2-.5-1.6a3.224,3.224,0,0,0-.2-.6Z"/>
          <path id="Path_2567_1_" class="cls-20" d="M345.3-2.2a1.268,1.268,0,0,0,.1.6c.1.4.1.9.3,1.6s.3,1.4.5,2.2.4,1.6.7,2.5.6,1.7.8,2.5l.9,2.1a3.508,3.508,0,0,0,.5.8,2.092,2.092,0,0,1,.4.6l.4.5-.4-.5-.5-.5c-.2-.2-.4-.5-.6-.7-.4-.6-.8-1.2-1.3-1.9a13.443,13.443,0,0,1-1.2-2.4,24.424,24.424,0,0,1-1-2.4c-.2-.8-.6-1.5-.8-2.2s-.4-1.2-.5-1.6a3.224,3.224,0,0,0-.2-.6Z"/>
          <path id="Path_2568_1_" class="cls-20" d="M342-1.8a1.268,1.268,0,0,0,.1.6c.1.4.1.9.3,1.6.1.6.3,1.4.5,2.2s.4,1.6.6,2.5.6,1.7.8,2.4l.9,2.1a3.508,3.508,0,0,0,.5.8l.4.6.3.5L346,11l-.5-.5c-.2-.2-.4-.5-.6-.7-.4-.6-.8-1.2-1.3-1.9a13.443,13.443,0,0,1-1.2-2.4,24.424,24.424,0,0,1-1-2.4c-.2-.8-.6-1.5-.8-2.2-.2-.6-.4-1.2-.5-1.6a2.8,2.8,0,0,1-.1-.6Z"/>
          <path id="Path_2569_1_" class="cls-20" d="M334.6-1a1.268,1.268,0,0,0,.1.6c.1.4.1.9.3,1.6.1.6.3,1.4.5,2.2s.4,1.6.6,2.5.6,1.7.8,2.4l.9,2.1a3.508,3.508,0,0,0,.5.8l.4.6.3.5-.4-.4-.5-.5c-.2-.2-.4-.5-.6-.7-.4-.6-.8-1.2-1.3-2A10.776,10.776,0,0,1,335,6.3a12.235,12.235,0,0,1-1-2.4c-.2-.8-.6-1.5-.8-2.2-.2-.6-.4-1.2-.5-1.6l-.2-.6Z"/>
          <path id="Path_2570_1_" class="cls-20" d="M326.5-.5a1.268,1.268,0,0,0,.1.6c.1.4.1.9.3,1.6a22.494,22.494,0,0,0,.5,2.2c.2.8.4,1.6.6,2.5s.6,1.7.8,2.5c.3.7.6,1.4.9,2a3.508,3.508,0,0,0,.5.8l.4.6.3.5-.4-.4-.5-.5c-.2-.2-.4-.5-.6-.7-.4-.6-.8-1.2-1.2-1.9-.4-.8-.9-1.6-1.2-2.4a24.424,24.424,0,0,1-1-2.4c-.2-.8-.6-1.5-.8-2.2s-.4-1.2-.5-1.6l-.2-.6Z"/>
          <path id="Path_2571_1_" class="cls-20" d="M319.4-1.5a1.268,1.268,0,0,0,.1.6c.1.4.1.9.3,1.6s.3,1.4.5,2.2.4,1.6.6,2.5.6,1.7.8,2.5l.9,2.1a3.508,3.508,0,0,0,.5.8l.4.6.3.5-.4-.4-.5-.5c-.2-.2-.4-.5-.6-.7-.4-.6-.8-1.2-1.3-2a10.776,10.776,0,0,1-1.2-2.4c-.4-.8-.8-1.7-1.1-2.4a19.445,19.445,0,0,1-.8-2.2c-.2-.7-.4-1.2-.5-1.6a3.224,3.224,0,0,0-.2-.6Z"/>
          <path id="Path_2572_1_" class="cls-20" d="M310.6-3.4a1.268,1.268,0,0,0,.1.6c.1.4.1.9.3,1.6s.3,1.4.5,2.2.4,1.6.6,2.5.6,1.7.8,2.5l.9,2.1a3.508,3.508,0,0,0,.5.8l.4.6.3.5-.4-.5-.5-.5a4.349,4.349,0,0,1-.6-.7c-.4-.6-.8-1.2-1.2-1.9A13.443,13.443,0,0,1,311.1,4a24.424,24.424,0,0,1-1-2.4c-.2-.8-.6-1.5-.8-2.2-.2-.6-.4-1.2-.5-1.6a3.224,3.224,0,0,0-.2-.6Z"/>
          <path id="Path_2573_1_" class="cls-20" d="M303.5-4.4l.1.6c.1.4.1.9.3,1.6s.3,1.4.5,2.2.4,1.6.6,2.5.6,1.7.8,2.5l.9,2.1a3.508,3.508,0,0,0,.5.8l.4.6.3.5a2.22,2.22,0,0,0-.4-.5l-.5-.6c-.2-.2-.4-.5-.6-.7-.4-.6-.8-1.2-1.3-1.9a13.443,13.443,0,0,1-1.2-2.4,24.424,24.424,0,0,1-1-2.4c-.2-.8-.6-1.5-.8-2.2-.2-.6-.4-1.2-.5-1.6a3.2,3.2,0,0,1-.1-.7Z"/>
          <path id="Path_2574_1_" class="cls-20" d="M295.5-4.8a1.268,1.268,0,0,0,.1.6c.1.4.1.9.3,1.6.1.6.3,1.4.4,2.2a13.569,13.569,0,0,0,.7,2.5c.3.9.6,1.7.8,2.4l.9,2.1a3.508,3.508,0,0,0,.5.8l.4.6.3.5a1.2,1.2,0,0,0-.4-.4l-.5-.5c-.2-.2-.4-.5-.6-.7-.4-.6-.8-1.2-1.3-1.9a13.443,13.443,0,0,1-1.2-2.4,24.424,24.424,0,0,1-1-2.4c-.2-.8-.6-1.5-.8-2.2s-.4-1.2-.5-1.6a3.224,3.224,0,0,0-.2-.6Z"/>
          <path id="Path_2575_1_" class="cls-12" d="M292.1-50l-.1-8.1c1.4-.3,30.7-6.3,55.6-.4l.1,8.6C324.3-55.6,292.5-50.1,292.1-50Z"/>
          <path id="Path_2576_1_" class="cls-12" d="M291.7-70.2v-4c0-.9.3-3.6.3-3.6,1.4-.3,31.7-8,56.7-2v4c-.1,2.5-.2,4.3-.2,4.3C325.1-77.3,292.1-70.3,291.7-70.2Z"/>
          <path id="Path_2577_1_" class="cls-12" d="M291.3-30.4l.5-7.4c1.5-.1,36.2-3.1,56.5,1.3l.2,7.4C329.2-33.2,291.6-30.4,291.3-30.4Z"/>
          <path id="Path_2578_1_" class="cls-12" d="M290.1-12.6l.4-7.3c1.5-.1,33.8.8,58.3,2.3l.1,7.1C320.3-10.3,290.4-12.7,290.1-12.6Z"/>
          <path id="Path_2579_1_" class="cls-13" d="M262.7-89.1s4.2-6.6.7-19.4,5.7-2.7,5.7-2.7,10.7.8,11.7.6,3.6,2.6,3.8,2.6-2.3,5.9-2.3,5.9S282.3-90.3,262.7-89.1Z"/>
          <path id="Path_2580_1_" class="cls-3" d="M290.2-107.4c-14.2-3.6-15.6-10-16.9-11.8a4.049,4.049,0,0,0-2.8-1.6,91.128,91.128,0,0,0-31.2,2.2s19.2,8,26.4,13.1,14.2,3.3,17.3-.7c0,0-4.1,15.5-20.4,17.1.1,0,20.5,4.2,27.6-18.3"/>
          <path id="Path_2581_1_" class="cls-24" d="M271.5-119.2s-19.8-1.6-28,.9a44.762,44.762,0,0,1,14.7,6.4c6.9,4.7,15.1,10,19.2,7.8s4-5.4,4-5.4S272.3-112.6,271.5-119.2Z"/>
          <path id="Path_2582_1_" class="cls-25" d="M296.5-174.3s1.8-2.1,1.5-7.4a11.216,11.216,0,0,1-7.2,6.4s5.1-4.5,3.6-17.5c0,0-.3,12-8,17.3,0,0,2.4-3.2.8-10.2,0,0,.4,6.6-5.1,10.1"/>
        </g>
      </g>
    </g>
    <g id="_3_gas_1_" transform="translate(3037.619 14257.071)">
      <g id="Layer_2-2_1_">
        <g id="OBJECTS-2_1_">
          <path id="Path_2584_1_" class="cls-2" d="M291.2,61.3s42-2.7,54.8,8-14,28.3-75,25.4-42.2-19-63.9-21.8S225.9,55.5,291.2,61.3Z"/>
          <path id="Path_2585_1_" class="cls-26" d="M219.4-55.4S207.9-58,205.3-66.5A46.659,46.659,0,0,1,203-80.9s-.9-4.2-6-3-6.7,9.3-6.2,19.9,11.6,28.3,25.4,32.8S219.4-55.4,219.4-55.4Z"/>
          <path id="Path_2586_1_" class="cls-3" d="M321.5,71.1,341.8,84s-20.9-6.1-31.2,8.1l-7.1-15.5Z"/>
          <path id="Path_2587_1_" class="cls-3" d="M256,76.9,242.8,91.4s-10-11.7-25.2-13.1l19-10.4Z"/>
          <path id="Path_2588_1_" class="cls-5" d="M349.8,57.6s32.6-115.1-14.5-186c0,0-53-18.4-93.2.9,0,0-41,76.5-32.5,178.7,0,0,6.8,29.5,61.1,30.8S349.8,57.6,349.8,57.6Z"/>
          <path id="Path_2589_1_" class="cls-6" d="M345-49.2s10.6-2.3,15.4-9.4,8.5-22.4,15.1-20c6.5,2.4,8.5,11.9,5.4,26.6s-18.2,22.7-27.1,25.2C345-24.3,342.4-39.6,345-49.2Z"/>
          <path id="Path_2590_1_" class="cls-7" d="M276.6-110.5s9.4-14.8,22.5-12.8,22.5,41.6,17.1,63.6c0,0,29.4,23.4,19.1,74.4S281.4,81,247.5,64.5s-39-92.1-15.4-122.6c0,0-4.3-23.1,7.3-45.6C250.9-126.2,269.4-135,276.6-110.5Z"/>
          <path id="Path_2591_1_" class="cls-8" d="M294.4-91.2c-1.2,6.1-3.9,10.7-6,10.3s-2.9-5.7-1.8-11.8c1.2-6.1,3.9-10.7,6-10.3S295.6-97.3,294.4-91.2Z"/>
          <path id="Path_2592_1_" class="cls-8" d="M262.7-93.2c-1.2,5.9-3.8,10.4-6,10s-3-5.5-1.8-11.4,3.8-10.4,6-10S263.9-99.1,262.7-93.2Z"/>
          <path id="Path_2593_1_" class="cls-15" d="M380-70.1s2.1,15.1-3.3,24.4-13.2,15.3-21.6,15.6-5.9-4.5-5-5.5C351-36.7,377.9-42.6,380-70.1Z"/>
          <path id="Path_2594_1_" class="cls-15" d="M193.8-76.5s-7.4,24.3,18.3,40.8L214-47.8s-19.3-10.9-16.1-29.4C197.9-77.2,196.7-81.5,193.8-76.5Z"/>
          <path id="Path_2595_1_" class="cls-27" d="M377-74s-.1-2.7-4.3-1.6-8.2,23.3-26.5,27.1v3.6C346.2-45,370-46.4,377-74Z"/>
          <path id="Path_2596_1_" class="cls-28" d="M201.7-80.9s0-2-2.8-2.3-5.9,2-4.3,2.8,5-.4,5.5,1-1.2,11,5.5,19.3c0,0,6.5,6.3,9.5,8.1l1.2-3.4s-9.5-2.9-12-11.5C201.6-75.6,201.7-80.9,201.7-80.9Z"/>
          <path id="Path_2597_1_" class="cls-15" d="M346.9-115.1s-54.6-14.6-101.2-12.1c0,0-7.7.7-3.4,3,1.9,1,22,2.1,45.1,2.7C316.6-120.6,350.4-109.5,346.9-115.1Z"/>
          <path id="Path_2598_1_" class="cls-29" d="M217.5-26.4s-8,42.9-4.6,75.4c0,0,14.8,28.6,61.3,28.6S344,55.8,344,55.8,357,21,357.1-17.1c0,0-44.5,53.7-91.3,48.7S217.5-26.4,217.5-26.4Z"/>
          <path id="Path_2599_1_" class="cls-30" d="M301.6-191.8c-1-2.9-5.7-2.5-6.4.7-1.6-1-2-3.5-6.5-1.5-2.3,1-4.2,5.4-1.7,7.1-1.9.8-4.1,2.4-4,4.9.2,2.4,2.5,4.8,4.4,4-.2,2.9-.4,4.5,1.8,6.4,2.1,1.6,4.4,2.3,6-.1,1.1,7.3,13.4,4.4,11.1.4,1.9.6,5.1,1,6.4-1.4,1-2.1-.5-4.7-2.2-5.4,4.8-1.2,6.5-9.7.7-10.3,2.2-5.8-8.2-9.1-9.6-4.8"/>
          <path id="Path_2600_1_" class="cls-31" d="M244.1-142.6s14.1-36.3,55.2-32.4c0,0,38,5.1,41,41.8C340.2-133.2,295.1-127.6,244.1-142.6Z"/>
          <path id="Path_2601_1_" class="cls-30" d="M350.1-120.7c0-5.7-1.3-9.1-6.9-11.9-8.3-4.2-33.5-9.7-47.6-11.5-8.8-1.1-48.6-1.4-54.2,1.3-4.6,2.3-4.6,7.2-5.1,11.6-.4,3.7,1.1,7.2,6.9,6,12.2-2.6,34-.3,46.1.8s38.8,5.7,44.8,8.1C334.1-116.2,350.1-109.4,350.1-120.7Z"/>
          <g id="whatshot_1_">
            <path id="Path_2602_1_" class="cls-32" d="M275.2-27.5A81.386,81.386,0,0,1,277.3-12c0,6.6-4.5,12.1-11,12.1A11.848,11.848,0,0,1,254.7-12v-1a44.415,44.415,0,0,0-10.3,28.6,25.8,25.8,0,1,0,51.6,0A54.193,54.193,0,0,0,275.2-27.5Zm-5.1,58.6a10.056,10.056,0,0,1-10.3-9.8v-.2c0-5.2,3.5-9,9-10,5.9-1,11.7-3.8,14.8-8.3a41.3,41.3,0,0,1,2.1,13.1,15.472,15.472,0,0,1-15.6,15.2Z"/>
          </g>
          <path id="Path_2603_1_" class="cls-33" d="M244.5-140l-2.4,8.4"/>
          <path id="Path_2604_1_" class="cls-33" d="M251.9-140.7c-3.6,12.6-2.3,9-2.3,9"/>
          <path id="Path_2605_1_" class="cls-33" d="M260.4-141.2c-3.6,12.6-2.1,10.5-2.1,10.5"/>
          <path id="Path_2606_1_" class="cls-33" d="M270.1-141.2c-3.6,12.6-2.1,10.5-2.1,10.5"/>
          <path id="Path_2607_1_" class="cls-33" d="M281.1-141.2c-3.6,12.6-2.1,10.5-2.1,10.5"/>
          <path id="Path_2608_1_" class="cls-33" d="M292.1-140c-3.6,12.6-2.1,10.5-2.1,10.5"/>
          <path id="Path_2609_1_" class="cls-33" d="M302.1-138.9c-3.6,12.6-2.1,10.5-2.1,10.5"/>
          <path id="Path_2610_1_" class="cls-33" d="M313.2-136.9c-3.6,12.6-2.1,10.5-2.1,10.5"/>
          <path id="Path_2611_1_" class="cls-33" d="M324.1-133.6c-3.6,12.6-2.1,10.5-2.1,10.5"/>
          <path id="Path_2612_1_" class="cls-33" d="M332.3-131.7c-3.2,12.7-1.7,10.6-1.7,10.6"/>
          <path id="Path_2613_1_" class="cls-33" d="M338.2-129.6c-2.6,12.8-1.8,7.8-1.8,7.8"/>
          <path id="Path_2614_1_" class="cls-33" d="M343.5-128.4c-2.5,12.9-1.3,7.9-1.3,7.9"/>
          <path id="Path_2615_1_" class="cls-32" d="M310.6-75.8l2.3-20.6s25.2-1.8,33.5-12a1.426,1.426,0,0,1,2-.2c2.4,2.1,7.3,8.1,5.9,17.9a4.028,4.028,0,0,1-2,2.9C346.7-84.7,329.1-75.7,310.6-75.8Z"/>
          <path id="Path_2616_1_" class="cls-32" d="M233.5-108.5s-5.8-1.6-7.5,3.1c-2.6,7.3-5.3,15.3,2.6,17Z"/>
          <path id="Path_2617_1_" class="cls-29" d="M248.1-67.5a24.83,24.83,0,0,1-12.8-5.1c-5-3.9-7.9-11.2-7.4-18.4.6-8.3,5.3-15.3,13.2-19.9,8.5-4.9,25.6-3.8,34.9-2.8,8.9,1,17.8,2.8,21.2,4.2,8.5,3.7,13.3,8.3,16.6,16.9,2.7,7.2,1.4,10.2-1.5,15.6-2.8,5.1-5.8,9.3-12.6,10.9a17.615,17.615,0,0,1-6.4.8h0c-7.1-.8-15-3.1-18-8.2-1.3-2.2-2.7-3.5-4-3.6-1.5-.2-3.8,1.3-6.2,4.2C261.6-68.7,255.2-66.7,248.1-67.5Zm27.2-39.8c-14.4-1.6-25.9-.8-30.9,2-8.1,4.6-9.7,11.3-10,14.8-.4,5.2,1.6,10.4,4.9,13a19.218,19.218,0,0,0,9.4,3.7c4.8.5,9.2-.7,11.3-3.2,4-4.7,8-6.9,11.9-6.4,3.4.4,6.4,2.6,8.9,6.7,1.8,2.9,7,6.3,12.6,6.9h0a16.14,16.14,0,0,0,4.9-.2c5-1.2,8.6-3.6,10.5-7,2-3.7,2-8.5,0-13.9-2.5-6.6-6.9-9.5-14.2-12.7C292.6-104.4,285.1-106.2,275.3-107.3Z"/>
          <path id="Path_2618_1_" class="cls-10" d="M276.7-78.3a13.669,13.669,0,0,0,3.5,3.7c9.4-8.4,18.4-17.2,28-25.3-3-4.5-7.4-7.2-13.6-9.9a28.511,28.511,0,0,0-5-1.4c-15.2,11.9-29.9,24.3-44.5,37,6.2,1.2,12.8-.1,16.1-4C268.8-87.1,273.7-83.3,276.7-78.3Z"/>
          <path id="Path_2619_1_" class="cls-11" d="M310.5-95.2a24.71,24.71,0,0,0-2.3-4.6c-9.6,8.1-18.6,16.9-28,25.3a25.191,25.191,0,0,0,6,3.4c8.3-7.4,16.7-14.8,25-22.2A10.664,10.664,0,0,0,310.5-95.2Z"/>
          <path id="Path_2620_1_" class="cls-10" d="M286.2-71.2a20.036,20.036,0,0,0,11.6,1.1c11.2-2.6,17.1-11.1,13.4-23.3C302.9-86,294.5-78.6,286.2-71.2Z"/>
          <path id="Path_2621_1_" class="cls-11" d="M270.2-114.1c-1.3,1.3-2.6,2.6-3.9,3.8-10.6,10.7-20.9,21.1-31.4,31,.4.4.8.7,1.2,1.1a20.743,20.743,0,0,0,9.2,4.1c14.6-12.7,29.3-25.1,44.5-37A134.811,134.811,0,0,0,270.2-114.1Z"/>
          <path id="Path_2622_1_" class="cls-11" d="M262.8-114.5c-2.2-.1-4.4,0-6.4,0a374.275,374.275,0,0,1-25.8,27.6,16.976,16.976,0,0,0,1.8,4.4C243-92.8,253-103.5,262.8-114.5Z"/>
          <path id="Path_2623_1_" class="cls-10" d="M241.4-111.3c-10.8,6.1-13.1,16.5-10.9,24.4,9-8.8,17.7-17.9,25.8-27.5C250.3-114.2,244.9-113.3,241.4-111.3Z"/>
          <path id="Path_2624_1_" class="cls-10" d="M262.8-114.5c-9.8,11.1-19.8,21.8-30.4,32a24.283,24.283,0,0,0,2.4,3.2c10.5-10,20.8-20.3,31.4-31,1.4-1.2,2.6-2.5,3.9-3.8C267.7-114.3,265.2-114.5,262.8-114.5Z"/>
          <path id="Path_2625_1_" class="cls-34" d="M246.8-70.8a26.3,26.3,0,0,1-12.9-5c-5-3.9-7.9-11.2-7.3-18.4.6-8.3,5.3-15.3,13.2-19.8,8.5-4.9,25.6-3.8,34.9-2.8,8.9,1,17.9,2.8,21.2,4.2,8.5,3.7,14.5,7.7,17.7,16.4,2.7,7.2,2.5,13.8-.4,19.1-2.8,5.1-7.9,8.6-14.7,10.2a21.107,21.107,0,0,1-7.1.4h0c-7.1-.8-14.5-5-17.5-10.1-1.3-2.2-2.7-3.5-3.9-3.6-1.5-.2-3.8,1.4-6.2,4.2C260.3-72,253.9-69.9,246.8-70.8ZM274-110.5c-14.4-1.6-25.9-.8-30.9,2-8.1,4.6-9.8,11.2-10,14.8-.4,5.2,1.6,10.4,4.9,13a19.218,19.218,0,0,0,9.4,3.7c4.8.5,9.2-.7,11.3-3.2,4-4.7,8-6.9,11.9-6.4,3.4.4,6.4,2.7,8.9,6.7,1.8,2.9,7,6.3,12.6,6.9h0a15.365,15.365,0,0,0,4.8-.2c5-1.1,8.6-3.6,10.5-7,2-3.7,2-8.5,0-13.9-2.5-6.6-6.9-9.5-14.2-12.7C291.4-107.7,283.8-109.5,274-110.5Z"/>
          <path id="Path_2626_1_" class="cls-13" d="M261.4-48.2s4.2-6.6.7-19.4,5.7-2.7,5.7-2.7,10.7.9,11.7.6,3.6,2.7,3.8,2.7c.1,0-2.3,5.9-2.3,5.9S280.9-49.5,261.4-48.2Z"/>
          <path id="Path_2627_1_" class="cls-3" d="M288.9-66.5c-14.1-3.6-15.6-10-16.9-11.8a4.049,4.049,0,0,0-2.8-1.6A91.128,91.128,0,0,0,238-77.7s19.2,8,26.4,13.1,14.2,3.3,17.3-.7c0,0-4.1,15.5-20.4,17.1.1,0,20.4,4.2,27.6-18.3"/>
          <path id="Path_2628_1_" class="cls-35" d="M270.2-78.3s-19.8-1.6-28,.9A46.96,46.96,0,0,1,256.9-71c6.9,4.7,15.1,10,19.2,7.8s4-5.4,4-5.4S271-71.7,270.2-78.3Z"/>
          <path id="Path_2629_1_" class="cls-34" d="M320.9-90.4a19.677,19.677,0,0,0,3.5-.5,33.831,33.831,0,0,0,3.4-.8,52.482,52.482,0,0,0,6.7-2.2c2.2-.8,4.4-1.7,6.6-2.6,1.1-.5,2.2-.9,3.3-1.4,1.1-.4,2.2-.9,3.4-1.3a31.547,31.547,0,0,1-2.9,2.2,32.069,32.069,0,0,1-3.1,1.9c-1.1.6-2.1,1.2-3.2,1.7a34.545,34.545,0,0,1-3.4,1.4,35.8,35.8,0,0,1-3.5,1.1c-1.2.3-2.4.5-3.6.7-.6.1-1.2.1-1.8.2a5.438,5.438,0,0,1-1.8,0A11.074,11.074,0,0,1,320.9-90.4Z"/>
          <path id="Path_2630_1_" class="cls-34" d="M319.6-86a19.826,19.826,0,0,0,3.5-.3c1.2-.2,2.3-.4,3.5-.7,2.3-.5,4.6-1.2,6.8-1.9s4.4-1.5,6.7-2.3c1.1-.4,2.2-.8,3.4-1.2a33.984,33.984,0,0,1,3.4-1.2l-3,2.1a24.787,24.787,0,0,1-3.1,1.8,24.085,24.085,0,0,1-3.3,1.5,34.228,34.228,0,0,1-3.4,1.3c-1.2.4-2.3.7-3.5,1s-2.4.4-3.6.6a10.869,10.869,0,0,1-1.8.1h-1.8a21.243,21.243,0,0,1-3.8-.8Z"/>
        </g>
      </g>
    </g>
    <g id="_3_sun_1_" transform="translate(3191.578 14282.001)">
      <g id="Layer_2-3_1_">
        <g id="OBJECTS-3_1_">
          <path id="Path_2632_1_" class="cls-2" d="M274.4,25.4s-42-2.7-54.8,8.1c-12.8,10.7,14,28.3,75,25.4s42.2-19,63.9-21.8S339.8,19.6,274.4,25.4Z"/>
          <path id="Path_2633_1_" class="cls-3" d="M324.5,36.5l17.9,11.4S324,42.5,314.8,55l-6.3-13.7Z"/>
          <path id="Path_2634_1_" class="cls-3" d="M266.4,41.9,254.7,57.6S243.5,47,228.3,47.2l17.9-12.3Z"/>
          <path id="Path_2635_1_" class="cls-4" d="M346.3-91.4s11.5-2.6,14.1-11.1a49.937,49.937,0,0,0,2.4-14.4s.9-4.2,6-3,6.6,9.3,6.2,19.8-11.6,28.3-25.5,32.8C335.6-62.7,346.3-91.4,346.3-91.4Z"/>
          <path id="Path_2636_1_" class="cls-5" d="M209.5-8.9c-4.8-29.8-8.6-76.7,4-118.6a62.645,62.645,0,0,1,54.9-44.2c2.8-.2,5.6-.4,8.5-.4a62.609,62.609,0,0,1,60.6,42.3A361.984,361.984,0,0,1,357.2-17.4a62.611,62.611,0,0,1-60,63.4l-2.2.1a143.521,143.521,0,0,1-39.7-4.3A62.875,62.875,0,0,1,209.5-8.9Z"/>
          <path id="Path_2637_1_" class="cls-6" d="M220.7-85.2s-10.6-2.3-15.4-9.4-8.6-22.4-15.1-20.1c-6.5,2.4-8.5,11.9-5.4,26.7S203-65.2,211.9-62.7C220.7-60.1,223.3-75.5,220.7-85.2Z"/>
          <path id="Path_2638_1_" class="cls-7" d="M289.1-146.4s-9.4-14.8-22.5-12.8-22.5,41.6-17.1,63.6c0,0-29.3,23.4-19.1,74.4s53.9,66.4,87.8,49.9,39-92.1,15.4-122.6c0,0,4.3-23-7.3-45.6S296.2-170.9,289.1-146.4Z"/>
          <path id="Path_2639_1_" class="cls-8" d="M271.4-126.8c1,5,3.5,8.8,5.6,8.4s3.1-4.8,2.1-9.9c-1-5-3.5-8.8-5.7-8.4C271.3-136.2,270.4-131.8,271.4-126.8Z"/>
          <path id="Path_2640_1_" class="cls-8" d="M303-129.1c1,4.9,3.5,8.5,5.6,8.1s3.1-4.7,2.2-9.6-3.5-8.5-5.6-8.1C303-138.3,302-134,303-129.1Z"/>
          <path id="Path_2641_1_" class="cls-15" d="M185.7-106.1S183.6-91,189-81.7s13.2,15.3,21.6,15.6,5.9-4.5,5-5.5S187.8-78.5,185.7-106.1Z"/>
          <path id="Path_2642_1_" class="cls-15" d="M371.9-112.4s7.4,24.3-18.3,40.8l-1.9-12.1s19.3-10.9,16.1-29.4C367.8-113.2,368.9-117.4,371.9-112.4Z"/>
          <path id="Path_2643_1_" class="cls-36" d="M188.7-110s.1-2.7,4.3-1.6,8.2,23.3,26.5,27.1v3.6C219.4-80.9,195.6-82.3,188.7-110Z"/>
          <path id="Path_2644_1_" class="cls-37" d="M364-116.8s0-2,2.8-2.3,5.9,2,4.3,2.8-5-.4-5.5,1,1.2,11-5.5,19.3c0,0-6.5,6.3-9.5,8.1l-1.1-3.4s9.5-2.8,12-11.5S364-116.8,364-116.8Z"/>
          <path id="Path_2645_1_" class="cls-38" d="M241.5-162c4.4-1.3,12.6-8.3,34-9.2,16.8-.7,27.5,5,35.5,9.5a.367.367,0,0,0,.3.1c.9.5,4.9,2.8,1.9,5.3-3.2,2.8-73.6,8.7-73.4-4.1A2.152,2.152,0,0,1,241.5-162Z"/>
          <path id="Path_2646_1_" class="cls-39" d="M348.4-63.2a374.08,374.08,0,0,1,4.9,40.9c2,32.6-22.6,60.9-55.2,62.9-2.1.1-4.2.2-6.5.2a128.6,128.6,0,0,1-14.2-.7c-33.7-3.4-59.8-22.5-66-62.8a202.861,202.861,0,0,1-2.6-31.1S253.3-.1,300.1-5.1,348.4-63.2,348.4-63.2Z"/>
          <path id="Path_2647_1_" class="cls-40" d="M223.4-164.8l.9-1.3c5.4-7.7,18.1-25.7,48.8-27.3h1.4c31.9-2.7,49,15.2,54.7,21.1l.3.3c6,6.2,6.8,23.8,6.8,25.7H335l-5.4.2c-.2-6.6-1.9-18.4-5.2-21.8l-.3-.3c-5.8-6-21.1-21.9-50.6-19.4h-.1l-1.3.1c-26.4,2.2-37.5,18-42.3,24.8-.3.5-.7.9-.9,1.3-2.8,3.8-2.2,16.6-1.2,23.7l-5.3.8v-.1l-1.3.2C220.8-139,218.3-157.8,223.4-164.8Z"/>
          <g id="Group_2409_1_" class="cls-41">
            <path id="Path_2648_1_" class="cls-42" d="M333.5-153.4c.8-1.5,2.8-2.2,4.4,1.7,1.5-4.2,4.6-3.4,6.6,2.8,3.4-.5,7.5,8.2,4.4,10.5,2.5,4.8,5.7,12.6,1.1,12.2,3.1,6.5.9,10.4-2.8,7.8-.1,4.4-2.4,8.3-5.6,3.1-2.7,3.4-9-1.4-10.3-9.2-4-2.5-6.1-9.9-3.7-13.2-3.1-4.6-2.8-11.5-2.2-14.3.7-3.6,4.4-7.8,8.1-1.4"/>
          </g>
          <path id="Path_2649_1_" class="cls-43" d="M335.5-154.4c.8-1.5,2.8-2.2,4.4,1.7,1.5-4.2,4.6-3.4,6.6,2.8,3.4-.5,7.5,8.2,4.4,10.5,2.5,4.8,5.7,12.6,1.1,12.2,3.1,6.5.9,10.4-2.8,7.8-.1,4.4-2.4,8.3-5.6,3.1-2.7,3.4-9-1.4-10.3-9.2-4-2.5-6.1-9.9-3.7-13.2-3.1-4.6-2.8-11.5-2.2-14.3.7-3.6,4.4-7.8,8.1-1.4"/>
          <g id="Group_2410_1_" class="cls-41">
            <path id="Path_2650_1_" class="cls-42" d="M222.8-144c1.5-1.3,4.4-1.6,5.3,2.5,3.4-3.9,7.3-2.5,7.9,4,4.6.2,7.2,9.5,2.4,11.2,1.8,5.2,3.4,13.4-2.6,12.2,1.9,7-2.3,10.4-6.4,7.2-1.7,4.4-5.9,7.8-8.6,2-4.7,2.9-11.6-3-10.7-10.8-4.5-3.2-4.8-10.9-.5-13.7-2.6-5.1.1-11.8,1.8-14.5,2.3-3.6,8.6-7,11.4-.1"/>
          </g>
          <path id="Path_2651_1_" class="cls-43" d="M220.8-147c1.5-1.3,4.4-1.6,5.3,2.5,3.4-3.9,7.3-2.5,7.9,4,4.6.2,7.2,9.5,2.4,11.2,1.8,5.2,3.4,13.4-2.6,12.2,1.9,7-2.3,10.4-6.4,7.2-1.7,4.4-5.9,7.8-8.6,2-4.7,2.9-11.6-3-10.7-10.8-4.5-3.2-4.8-10.9-.5-13.7-2.6-5.1.1-11.8,1.8-14.5,2.3-3.6,8.6-7,11.4-.1"/>
          <path id="Path_2652_1_" class="cls-44" d="M269.8-16.5a1.037,1.037,0,0,0,.6.8l8.9,3.3-3.7,9.6a1.376,1.376,0,0,0,.1,1.1.807.807,0,0,0,.9.4l9.3-1.3L286.3,8a1.05,1.05,0,0,0,.5.9.908.908,0,0,0,1,0l7.9-5.6,4.4,9c.1.3.5.5.8.6h0a1.02,1.02,0,0,0,.8-.5l5-8.6,7.5,6.3a.92.92,0,0,0,1,.1,1.456,1.456,0,0,0,.6-.9l1.1-10.4L326,1a1.008,1.008,0,0,0,.9-.3,1.389,1.389,0,0,0,.2-1.1l-3-9.9,9.1-2.5a1.208,1.208,0,0,0,.7-.7,1.389,1.389,0,0,0-.2-1.1l-6.5-7.5,7.2-6.6a.959.959,0,0,0,.3-1,.871.871,0,0,0-.6-.8l-8.7-3.7,4-9.5a1.448,1.448,0,0,0-.1-1.1,1.05,1.05,0,0,0-.9-.5l-9.3.9V-54.9a1.05,1.05,0,0,0-.5-.9.908.908,0,0,0-1,0l-9.3,6L303-60.2a1.02,1.02,0,0,0-.8-.5.792.792,0,0,0-.8.5l-4.7,9.1-7.7-6a.92.92,0,0,0-1-.1,1.456,1.456,0,0,0-.6.9L286.6-46l-9.2-1.7a.87.87,0,0,0-.9.4,1.389,1.389,0,0,0-.2,1.1l3.3,9.8-9,2.9a1.143,1.143,0,0,0-.7.8.959.959,0,0,0,.3,1l6.7,7.2-7,7A1.729,1.729,0,0,0,269.8-16.5Z"/>
          <ellipse id="Ellipse_958_1_" class="cls-43" cx="19.8" cy="22.3" rx="19.8" ry="22.3" transform="translate(282.6 -46.5)"/>
          <path id="Path_2653_1_" class="cls-45" d="M252.5-126.5l-5.2-3.7-.7-5.2s12.2-5.4,23.4-5.4C270.1-140.9,256.2-137.7,252.5-126.5Z"/>
          <path id="Path_2654_1_" class="cls-46" d="M332.2-137.5l4-4.9-.7-5.2s-13.2-1.9-24,.9C311.5-146.7,325.8-147.3,332.2-137.5Z"/>
          <path id="Path_2655_1_" class="cls-47" d="M296.9-130.1s-4.6-3.4-8.1,1.1l-4.3-5.9,14.4-1.9Z"/>
          <ellipse id="Ellipse_959_1_" class="cls-48" cx="19.4" cy="19.7" rx="19.4" ry="19.7" transform="matrix(0.991, -0.134, 0.134, 0.991, 249.14, -137.511)"/>
          <path id="Path_2656_1_" class="cls-49" d="M273.8-100.4A20.9,20.9,0,0,1,250-117.9a20.9,20.9,0,0,1,17.5-23.8,20.9,20.9,0,0,1,23.8,17.5.756.756,0,0,0,.1.4A21.126,21.126,0,0,1,273.8-100.4Zm-5.3-39.1A18.446,18.446,0,0,0,252.3-119a18.518,18.518,0,0,0,20.5,16.2A18.446,18.446,0,0,0,289-123.3v-.3A18.536,18.536,0,0,0,268.5-139.5Z"/>
          <ellipse id="Ellipse_960_1_" class="cls-48" cx="19.4" cy="19.7" rx="19.4" ry="19.7" transform="matrix(0.991, -0.134, 0.134, 0.991, 294.136, -143.819)"/>
          <path id="Path_2657_1_" class="cls-50" d="M318.7-106.7a20.9,20.9,0,0,1-23.8-17.5A20.9,20.9,0,0,1,312.4-148a20.9,20.9,0,0,1,23.8,17.5.756.756,0,0,0,.1.4A20.973,20.973,0,0,1,318.7-106.7Zm-5.3-39.1a18.446,18.446,0,0,0-16.2,20.5,18.446,18.446,0,0,0,20.5,16.2,18.518,18.518,0,0,0,16.2-20.5v-.3A18.552,18.552,0,0,0,313.4-145.8Z"/>
          <path id="Path_2658_1_" class="cls-51" d="M281.6-129.1s-.9-7.7-10.7-7.4C265.4-136.3,279.2-122.5,281.6-129.1Z"/>
          <path id="Path_2659_1_" class="cls-51" d="M328.6-135.4s-.9-7.7-10.7-7.4C312.4-142.6,326.1-128.8,328.6-135.4Z"/>
          <path id="Path_2660_1_" class="cls-13" d="M305.4-80.4s-4.2-6.6-.7-19.4c3.4-12.8-5.7-2.7-5.7-2.7s-10.7.8-11.7.6-4.9,1-5,1,3.6,7.6,3.6,7.6S285.8-81.7,305.4-80.4Z"/>
          <path id="Path_2661_1_" class="cls-3" d="M286.7-104c5.6-2.2,9-7.8,9-7.8a89.4,89.4,0,0,1,33,2s-19.2,8-26.5,13.1c-7.2,5.1-14.2,3.3-17.3-.7,0,0,4.1,15.5,20.4,17.1,0,0-15.9,3.3-24.5-11.6a7.623,7.623,0,0,1,2-10A14.714,14.714,0,0,1,286.7-104Z"/>
          <path id="Path_2662_1_" class="cls-52" d="M296.9-111.2s19.4-.8,27.6,1.6a44.761,44.761,0,0,0-14.7,6.4c-6.9,4.7-15.1,10-19.2,7.8s-4.6-7-4.6-7S296.2-104.6,296.9-111.2Z"/>
        </g>
      </g>
    </g>
  </g>
</svg>
