<?xml version="1.0" encoding="utf-8"?>
<!-- Generator: Adobe Illustrator 21.1.0, SVG Export Plug-In . SVG Version: 6.00 Build 0)  -->
<svg version="1.1" id="Layer_1" xmlns="http://www.w3.org/2000/svg" xmlns:xlink="http://www.w3.org/1999/xlink" x="0px" y="0px"
	 viewBox="0 0 118 170" style="enable-background:new 0 0 118 170;" xml:space="preserve">
<style type="text/css">
	.st0{fill:#2B414D;}
	.st1{fill:#475F6C;}
	.st2{opacity:0.303;fill:#231F20;enable-background:new    ;}
	.st3{fill:#F4B008;}
	.st4{fill:#0F3C47;}
	.st5{fill:#3F616F;stroke:#000000;stroke-width:1.118;}
	.st6{fill:#3F616F;}
	.st7{fill:#E6E7E8;}
	.st8{fill:#193441;}
	.st9{fill:#A73E5C;}
	.st10{opacity:0.203;fill:#FFFFFF;enable-background:new    ;}
	.st11{fill:#231F20;}
	.st12{fill:#FFFFFF;}
	.st13{opacity:0.5;fill:#FFFFFF;enable-background:new    ;}
	.st14{opacity:0.146;fill:#231F20;enable-background:new    ;}
	.st15{fill:#F7941E;}
	.st16{opacity:0.502;fill:#231F20;enable-background:new    ;}
	.st17{opacity:0.29;fill:#231F20;enable-background:new    ;}
	.st18{fill:#E87E25;}
	.st19{fill:#798987;}
	.st20{fill:#455E6B;}
	.st21{fill:#4B6370;}
</style>
<g>
	<path class="st0" d="M11.5,51.5H8.9C8.8,61.7,7.1,65.7,7.1,65.7l9.8,1.8C16.9,67.4,11.5,60.8,11.5,51.5z M11.5,29.3H8.9v20.4h2.7
		V29.3z M11.5,51.5H8.9C8.8,61.7,7.1,65.7,7.1,65.7l9.8,1.8C16.9,67.4,11.5,60.8,11.5,51.5z M11.5,29.3H8.9v20.4h2.7V29.3z"/>
	<path class="st1" d="M10.2,47c2.7,0,4.9,2.2,4.9,4.9c0,2.7-2.2,4.9-4.9,4.9s-4.9-2.1-4.9-4.9C5.3,49.2,7.5,47,10.2,47z"/>
	<path class="st0" d="M1.2,25.5L54.1,0.6c1.6-0.8,4.3-0.8,5.9,0l52.9,24.9c1.6,0.8,1.6,2.2,0,3L60,53.5c-1.6,0.8-4.3,0.8-5.9,0
		L1.2,28.6C-0.4,27.8-0.4,26.3,1.2,25.5z M57,38.9c16.8,0,30.3,6,30.3,13.4S73.8,65.7,57,65.7s-30.3-6-30.3-13.4S40.3,38.9,57,38.9z
		"/>
	<g transform="matrix(-1 0 0 1 118 37)">
		<path class="st2" d="M62.9,108.8c0,0,29.1-1.8,37.9,5.6c8.9,7.4-9.7,19.6-51.9,17.7c-42.2-2-29.1-13.2-44.2-15.1
			C-10.4,115,17.7,104.8,62.9,108.8z"/>
		<path class="st2" d="M60.7,111c0,0,23.4-1.5,30.5,4.5c7.1,6-7.8,15.8-41.8,14.2s-23.5-10.6-35.6-12.2
			C1.7,115.9,24.3,107.7,60.7,111z"/>
		<path class="st3" d="M32.8,117.2l-10,6.4c0,0,10.3-3,15.4,4l3.5-7.7L32.8,117.2z M65.2,120.2l6.5,8.8c0,0,6.2-5.9,14.7-5.8
			l-9.9-6.9L65.2,120.2z"/>
		<path class="st4" d="M20.7,45.7c0,0-6.4-1.5-7.9-6.2c-0.8-2.6-1.3-5.3-1.3-8c0,0-0.5-2.3-3.3-1.7C5.3,30.5,4.5,35,4.7,40.9
			s6.4,15.8,14.2,18.3S20.7,45.7,20.7,45.7z"/>
		<path class="st5" d="M93.3,108.9c0,0,18.1-64.3-8.1-103.9c0,0-29.5-10.3-51.9,0.5c0,0-22.8,42.8-18.1,99.9c0,0,3.8,16.5,34,17.2
			C79.5,123.2,93.3,108.9,93.3,108.9z"/>
		<path class="st6" d="M90.6,49.2c0,0,5.9-1.3,8.6-5.3c2.7-4,4.7-12.5,8.4-11.2c3.7,1.3,4.7,6.7,3,14.9
			c-1.7,8.3-10.1,12.7-15.1,14.1C90.6,63.2,89.2,54.6,90.6,49.2z"/>
		<path class="st7" d="M52.5,14.9c0,0,5.2-8.3,12.5-7.2c7.3,1.1,12.5,23.2,9.5,35.5c0,0,16.4,13.1,10.6,41.6s-30,37.1-48.9,27.9
			s-21.7-51.5-8.6-68.5c0,0-2.4-12.9,4.1-25.5C38.2,6.2,48.5,1.3,52.5,14.9z"/>
		<path class="st8" d="M62.4,25.7c-0.8,4-2.4,7.1-3.6,6.9c-1.2-0.2-1.6-3.7-0.8-7.7c0.8-4,2.4-7.1,3.6-6.9
			C62.9,18.2,63.2,21.7,62.4,25.7z M44.8,24.6c-0.8,4-2.4,7.1-3.6,6.9c-1.2-0.2-1.6-3.7-0.8-7.7c0.8-4,2.4-7.1,3.6-6.9
			C45.2,17.2,45.6,20.6,44.8,24.6z"/>
		<path class="st9" d="M44.8,49.8c0,0,2.3-3.7,0.4-10.8c-1.9-7.2,3.2-1.5,3.2-1.5s6,0.5,6.5,0.3c0.6-0.2,2.7,0.6,2.8,0.6
			s-2,4.2-2,4.2S55.7,49.1,44.8,49.8z"/>
		<path class="st3" d="M61.2,34.2c0,0-2.8,3.5-6,2.4c-3.2-1.1-5-4.4-5-4.4c-6.2-0.8-12.4-0.4-18.4,1.1c0,0,10.7,4.5,14.7,7.3
			c4,2.9,7.9,1.8,9.6-0.4c0,0-2.3,8.7-11.4,9.6C44.8,49.8,59.1,52.8,61.2,34.2z"/>
		<path class="st10" d="M49.5,32.6c0,0-10.8-0.4-15.4,0.9c2.9,0.7,5.7,1.9,8.2,3.6c3.8,2.6,8.4,5.6,10.7,4.4s2.6-3.9,2.6-3.9
			S49.9,36.3,49.5,32.6z"/>
		<path class="st11" d="M110.2,37.5c0,0,1.2,8.4-1.8,13.6s-7.4,8.5-12,8.7c-4.7,0.2-3.3-2.5-2.8-3.1C93.9,56.2,109,52.9,110.2,37.5z
			 M6.4,33.9c0,0-4.1,13.6,10.2,22.8l1.1-6.8c0,0-10.8-6.1-9-16.4C8.6,33.6,8,31.2,6.4,33.9z"/>
		<path class="st12" d="M108.5,35.3c0,0-0.1-1.5-2.4-0.9c-2.3,0.6-4.6,13-14.8,15.1v2C91.3,51.6,104.6,50.8,108.5,35.3z M10.8,31.5
			c0,0,0-1.1-1.6-1.3C7.7,30,6,31.3,6.9,31.8s2.8-0.2,3.1,0.6c0.3,0.8-0.7,6.1,3.1,10.8c0,0,3.6,3.5,5.3,4.5l0.6-1.9
			c0,0-5.3-1.6-6.7-6.4C10.7,34.5,10.8,31.5,10.8,31.5z"/>
		<path class="st13" d="M83.3,6.7c0,0-26.6-9.6-48.6,0c0,0-3.6,1.9-1.4,4C35.5,12.9,86.8,17.5,83.3,6.7z"/>
		<path class="st14" d="M19.6,61.9c0,0-4.5,24-2.6,42.1c0,0,8.2,16,34.2,16c26,0,38.8-12.1,38.8-12.1s7.2-19.4,7.3-40.7
			c0,0-24.8,30-50.9,27.2C20.4,91.7,19.6,61.9,19.6,61.9z"/>
		<path class="st15" d="M41.3,103.7L54,90.9c0.2-0.2,0.3-0.6,0.2-0.9c-0.1-0.3-0.4-0.5-0.8-0.5h-1c-0.3,0-0.6-0.2-0.7-0.5
			c-0.1-0.3-0.1-0.6,0.1-0.9l6.7-8.6c0.2-0.3,0.2-0.6,0.1-0.9c-0.1-0.3-0.4-0.5-0.8-0.5h-3.4c-0.3,0-0.6-0.2-0.7-0.5
			c-0.1-0.3-0.1-0.6,0.1-0.9l8.6-11.5c0.2-0.3,0.2-0.6,0.1-0.9c-0.1-0.3-0.4-0.5-0.7-0.5H48.1c-0.3,0-0.6,0.2-0.7,0.4l-6.7,13.6
			c-0.1,0.3-0.1,0.6,0,0.8c0.1,0.2,0.4,0.4,0.7,0.4h3.1c0.3,0,0.6,0.2,0.7,0.4c0.1,0.2,0.2,0.6,0,0.8l-4.6,9.3
			c-0.1,0.3-0.1,0.6,0,0.8s0.4,0.4,0.7,0.4h2.9c0.3,0,0.5,0.1,0.7,0.4c0.1,0.2,0.2,0.5,0,0.8l-5.2,10.7
			C39.5,103.6,40.6,104.4,41.3,103.7z"/>
		<path class="st16" d="M110.2,37.5c0,0,1.2,8.4-1.8,13.6s-7.4,8.5-12,8.7c-4.7,0.2-3.3-2.5-2.8-3.1C93.9,56.2,109,52.9,110.2,37.5z
			"/>
		<path class="st12" d="M108.5,35.2c0,0-0.1-1.5-2.4-0.9c-2.3,0.6-4.6,13-14.8,15.1v2C91.3,51.4,104.6,50.6,108.5,35.2z"/>
		<path class="st17" d="M93.5,46.1c0,0,3.5-1.6,4.5-2.7c0.8-1-0.4,1-1.2,2.1c-0.1,0.2-1.1,0.2-1.3,0.4c-2.1,2.2-1.6,2.2-1.6,2.2
			c-1.8,1.1,1.2,3.7,0.5,6.6c-0.5,1.8-2.5,1.9-2.6,3.2c-0.1,1.6,1.7,1.7,1.6,3.3c-0.4,4.7,0.8,16.3-3.2,18.4
			c-8.1,4.3-23.7-1.9-25.6-1.7c-6.6,0.7-0.7-9.3-6.8-9.3c-15.2,0-27.4-5.4-36.1-13.2c-1.7-1.6-2.9-3.1-3.1-5
			c-0.4-3.5-4.2-7.8,2.5-7.8c0,0,9.9,3,13,4.2c3.8,1.3,7.6,2.4,11.5,3.2c5.6,1.2,11.5,2.1,15.4,2C67.9,51.7,85.7,50.4,93.5,46.1"/>
		<g transform="translate(16.325 40.432)">
			<path class="st15" d="M77,4c0,0,3.5-1.6,4.5-2.7c0.8-1,1.5,2.6,0.6,3.8c-0.1,0.2,0,0-0.2,0.2c-2.1,2.2-6,3.6-6,3.6
				c-4,1-2.6,5.8-4.6,10c-1.4,3-6.2,5.9-9,6.1c-23.5,2.5-42.8-3.9-57-11.7c-1.8-1.1-3-3-3.3-5.1C1.6,4.8-2.2,0.5,4.5,0.4
				c0,0,9.9,3,13,4.2C21.3,5.9,25.1,7,29,7.9c5.6,1.2,11.5,2.1,15.4,2C51.4,9.6,69.2,8.3,77,4"/>
			<path class="st18" d="M5.5,13.4c-1.2-0.7-1.9-1.9-1.8-3.3C4,0.3,8.5,2,8.7,1.8l0,0l2.2,0.7L12.5,3c-0.2,0.1-6.7-1.4-5.4,11.3
				L5.5,13.4z"/>
			<path class="st18" d="M13.2,17.2C12.3,7.9,17.2,5,17.5,4.7l3.6,1.2c0.4-0.5-4.5,5.1-3.7,13.1L13.2,17.2z"/>
			<path class="st18" d="M23.3,21.1c-0.2-10.4,4-13.2,4.1-13.5L29.1,8l1.1,0.2l0.9,0.2c0.2-0.7-3.9,4.8-3.7,13.9L23.3,21.1z"/>
			<path class="st18" d="M34.7,23.9c-0.2-10.4,3.4-14.2,3.6-14.4l1.6,0.2l1.1,0.1L42,9.9c0.2-0.7-3,5.6-2.8,14.8h-0.3
				c-1.2-0.1-2.4-0.3-3.5-0.6L34.7,23.9z"/>
			<path class="st19" d="M73,12.5c0.2-1.7,1.4-2.4,0.8-4.2c-0.2-0.6-0.3-2.1-2.3-2.1l0,0l-3.6,1c0.1,0.1,5.1,0.4,2.6,13.1
				C70.5,20.3,71.9,19.7,73,12.5z"/>
			<path class="st18" d="M78.1,7.9c-0.4-1.3-1-2.5-1.7-3.6c0,0,0.7-0.4,1.1-0.6C77.8,3.6,79,3,79,3c0.1,0.1,0.4,1.3,1.4,3.6
				c-0.7,0.5-1.4,1-2.2,1.3H78.1z"/>
			<g transform="translate(43.463 5.03)">
				<path class="st15" d="M22.4,0.7c-5,0.9-6.9,3.7-13.4,2.9C-1.9,2.1,1.8,18,1.4,28.1C0.9,41-0.7,50,1,52
					c2.3,2.7,30.5,3.4,31.5,2.5c0.8-0.7,0.5-11.2-0.3-31c-0.1-3.5,2.2-18.3-1.1-20.9C28.4,0.4,25.7,0.1,22.4,0.7z"/>
				<path class="st15" d="M5.3,51.4c0,0.1,0,0.2,0.1,0.3c0.1,0.2,0.1,0.5,0.2,0.9c0.1,0.4,0.2,0.8,0.3,1.2c0.1,0.4,0.2,0.9,0.4,1.4
					c0.1,0.5,0.3,1,0.4,1.4c0.2,0.4,0.4,0.8,0.5,1.2c0.1,0.2,0.2,0.3,0.3,0.4c0.1,0.1,0.2,0.2,0.2,0.3c0.1,0.1,0.1,0.2,0.2,0.3
					c-0.1-0.1-0.1-0.2-0.2-0.3l-0.3-0.3C7.2,58.2,7.1,58,7,57.9c-0.2-0.3-0.4-0.7-0.7-1.1c-0.2-0.4-0.4-0.8-0.7-1.3
					c-0.2-0.4-0.4-0.9-0.6-1.3c-0.2-0.4-0.3-0.8-0.4-1.2c-0.1-0.3-0.2-0.7-0.3-0.9c0-0.1-0.1-0.2-0.1-0.3L5.3,51.4z M9.7,52
					c0,0.1,0,0.2,0.1,0.3c0.1,0.2,0.1,0.5,0.2,0.9c0.1,0.4,0.2,0.8,0.3,1.2c0.1,0.4,0.2,0.9,0.4,1.4c0.1,0.5,0.3,1,0.4,1.4
					c0.2,0.4,0.4,0.8,0.5,1.2c0.1,0.2,0.2,0.3,0.3,0.4c0.1,0.1,0.2,0.2,0.2,0.3c0.1,0.1,0.1,0.2,0.2,0.3c-0.1-0.1-0.1-0.2-0.2-0.3
					l-0.3-0.3c-0.1-0.1-0.2-0.2-0.3-0.4c-0.2-0.3-0.4-0.7-0.7-1.1c-0.2-0.4-0.4-0.8-0.7-1.3c-0.2-0.4-0.4-0.9-0.6-1.3
					c-0.2-0.4-0.3-0.8-0.4-1.2c-0.1-0.3-0.2-0.7-0.3-0.9c0-0.1-0.1-0.2-0.1-0.3L9.7,52z M14.1,52.6c0,0.1,0,0.2,0.1,0.3
					c0.1,0.2,0.1,0.5,0.2,0.9c0.1,0.4,0.2,0.8,0.3,1.2c0.1,0.5,0.2,0.9,0.4,1.4c0.1,0.5,0.3,1,0.4,1.4c0.2,0.4,0.4,0.8,0.5,1.2
					c0.1,0.2,0.2,0.3,0.3,0.4c0.1,0.1,0.2,0.2,0.2,0.3c0.1,0.1,0.1,0.2,0.2,0.3c-0.1-0.1-0.1-0.2-0.2-0.3l-0.3-0.3
					c-0.1-0.1-0.2-0.2-0.3-0.4c-0.2-0.3-0.4-0.7-0.7-1.1c-0.2-0.4-0.4-0.8-0.7-1.3c-0.2-0.4-0.4-0.9-0.6-1.3
					c-0.2-0.4-0.3-0.8-0.4-1.2c-0.1-0.3-0.2-0.7-0.3-0.9c0-0.1-0.1-0.2-0.1-0.3L14.1,52.6z M18.4,53.2c0,0.1,0,0.2,0.1,0.3
					c0.1,0.2,0.1,0.5,0.2,0.9c0.1,0.4,0.2,0.8,0.3,1.2c0.1,0.4,0.2,0.9,0.4,1.4c0.1,0.5,0.3,1,0.4,1.4c0.2,0.4,0.4,0.8,0.5,1.2
					c0.1,0.2,0.2,0.3,0.3,0.4c0.1,0.1,0.2,0.2,0.2,0.3c0.1,0.1,0.1,0.2,0.2,0.3c-0.1-0.1-0.1-0.2-0.2-0.3l-0.3-0.3
					c-0.1-0.1-0.2-0.2-0.3-0.4c-0.2-0.3-0.4-0.7-0.7-1.1c-0.2-0.4-0.4-0.8-0.7-1.3c-0.2-0.4-0.4-0.9-0.6-1.3
					c-0.2-0.4-0.3-0.8-0.4-1.2c-0.1-0.3-0.2-0.7-0.3-0.9c0-0.1-0.1-0.2-0.1-0.3L18.4,53.2z M22.7,52.8c0,0.1,0,0.2,0.1,0.3
					c0.1,0.2,0.1,0.5,0.2,0.9c0.1,0.4,0.2,0.8,0.3,1.2c0.1,0.4,0.2,0.9,0.4,1.4c0.1,0.5,0.3,1,0.4,1.4c0.2,0.4,0.4,0.8,0.5,1.2
					c0.1,0.2,0.2,0.3,0.3,0.4c0.1,0.1,0.2,0.2,0.2,0.3c0.1,0.1,0.1,0.2,0.2,0.3C25.2,60.1,25.1,60,25,60l-0.3-0.3
					c-0.1-0.1-0.2-0.2-0.3-0.4c-0.2-0.3-0.4-0.7-0.7-1.1c-0.2-0.4-0.4-0.8-0.7-1.3c-0.2-0.4-0.4-0.9-0.6-1.3
					c-0.2-0.4-0.3-0.8-0.4-1.2c-0.1-0.3-0.2-0.7-0.3-0.9c0-0.1-0.1-0.2-0.1-0.3L22.7,52.8z M27.1,53.4c0,0.1,0,0.2,0.1,0.3
					c0.1,0.2,0.1,0.5,0.2,0.9c0.1,0.4,0.2,0.8,0.3,1.2c0.1,0.5,0.2,0.9,0.4,1.4c0.1,0.5,0.3,0.9,0.4,1.4c0.2,0.4,0.4,0.8,0.5,1.2
					c0.1,0.2,0.2,0.3,0.3,0.4c0.1,0.1,0.2,0.2,0.2,0.3c0.1,0.1,0.1,0.2,0.2,0.3c-0.1-0.1-0.1-0.2-0.2-0.3l-0.3-0.3
					c-0.1-0.1-0.2-0.2-0.3-0.4c-0.2-0.3-0.4-0.7-0.7-1.1c-0.2-0.4-0.4-0.8-0.7-1.3c-0.2-0.4-0.4-0.9-0.6-1.4
					c-0.2-0.4-0.3-0.8-0.4-1.2c-0.1-0.3-0.2-0.7-0.3-0.9c0-0.1-0.1-0.2-0.1-0.3L27.1,53.4z M31,52.9c0,0.1,0,0.2,0.1,0.3
					c0.1,0.2,0.1,0.5,0.2,0.9c0.1,0.4,0.2,0.8,0.3,1.2c0.1,0.4,0.2,0.9,0.4,1.4c0.1,0.5,0.3,1,0.4,1.4c0.2,0.4,0.4,0.8,0.5,1.2
					c0.1,0.2,0.2,0.3,0.3,0.4c0.1,0.1,0.2,0.2,0.2,0.3c0.1,0.1,0.1,0.2,0.2,0.3c-0.1-0.1-0.1-0.2-0.2-0.3L33,59.9
					c-0.1-0.1-0.2-0.2-0.3-0.4c-0.2-0.3-0.4-0.7-0.7-1.1c-0.2-0.4-0.4-0.8-0.7-1.3c-0.2-0.4-0.4-0.9-0.6-1.3
					c-0.2-0.4-0.3-0.8-0.4-1.2c-0.1-0.3-0.2-0.7-0.3-0.9c0-0.1-0.1-0.2-0.1-0.3L31,52.9z M29.2,53.1c0,0.1,0,0.2,0.1,0.3
					c0.1,0.2,0.1,0.5,0.2,0.9c0.1,0.4,0.2,0.8,0.3,1.2c0.1,0.4,0.2,0.9,0.4,1.4c0.1,0.5,0.3,0.9,0.4,1.4c0.2,0.4,0.4,0.8,0.5,1.2
					c0.1,0.2,0.2,0.3,0.3,0.4c0.1,0.1,0.2,0.2,0.2,0.3c0.1,0.1,0.1,0.2,0.2,0.3c-0.1-0.1-0.1-0.2-0.2-0.3l-0.3-0.3
					c-0.1-0.1-0.2-0.2-0.3-0.4c-0.2-0.3-0.4-0.7-0.7-1.1c-0.2-0.4-0.4-0.8-0.7-1.3c-0.2-0.4-0.4-0.9-0.6-1.3
					c-0.2-0.4-0.3-0.8-0.4-1.2c-0.1-0.3-0.2-0.7-0.3-0.9c0-0.1-0.1-0.2-0.1-0.3L29.2,53.1z M25.1,53.6c0,0.1,0,0.2,0.1,0.3
					c0.1,0.2,0.1,0.5,0.2,0.9c0.1,0.4,0.2,0.8,0.3,1.2c0.1,0.4,0.2,0.9,0.4,1.4c0.1,0.5,0.3,1,0.4,1.4c0.2,0.4,0.4,0.8,0.5,1.2
					c0.1,0.2,0.2,0.3,0.3,0.4c0.1,0.1,0.2,0.2,0.2,0.3c0.1,0.1,0.1,0.2,0.2,0.3c-0.1-0.1-0.1-0.2-0.2-0.3l-0.3-0.3
					c-0.1-0.1-0.2-0.2-0.3-0.4c-0.2-0.3-0.4-0.7-0.7-1.1c-0.2-0.4-0.4-0.8-0.7-1.3c-0.2-0.4-0.4-0.9-0.6-1.3
					c-0.2-0.4-0.3-0.8-0.4-1.2c-0.1-0.3-0.2-0.7-0.3-0.9c0-0.1-0.1-0.2-0.1-0.3L25.1,53.6z M20.6,53.9c0,0.1,0,0.2,0.1,0.3
					c0.1,0.2,0.1,0.5,0.2,0.9c0.1,0.4,0.2,0.8,0.3,1.2c0.1,0.4,0.2,0.9,0.4,1.4c0.1,0.5,0.3,0.9,0.4,1.4c0.2,0.4,0.4,0.8,0.5,1.2
					c0.1,0.2,0.2,0.3,0.3,0.4c0.1,0.1,0.2,0.2,0.2,0.3c0.1,0.1,0.1,0.2,0.2,0.3c-0.1-0.1-0.1-0.2-0.2-0.3l-0.3-0.3
					c-0.1-0.1-0.2-0.2-0.3-0.4c-0.2-0.3-0.4-0.7-0.7-1.1c-0.2-0.4-0.4-0.8-0.7-1.3c-0.2-0.4-0.4-0.9-0.6-1.4
					c-0.2-0.4-0.3-0.8-0.4-1.2c-0.1-0.3-0.2-0.7-0.3-0.9c0-0.1-0.1-0.2-0.1-0.3L20.6,53.9z M16.6,53.3c0,0.1,0,0.2,0.1,0.3
					c0.1,0.2,0.1,0.5,0.2,0.9c0.1,0.4,0.2,0.8,0.3,1.2c0.1,0.4,0.2,0.9,0.4,1.4c0.1,0.5,0.3,1,0.4,1.4c0.2,0.4,0.4,0.8,0.5,1.2
					c0.1,0.2,0.2,0.3,0.3,0.4c0.1,0.1,0.2,0.2,0.2,0.3c0.1,0.1,0.1,0.2,0.2,0.3c-0.1-0.1-0.1-0.2-0.2-0.3l-0.3-0.3
					c-0.1-0.1-0.2-0.2-0.3-0.4c-0.2-0.3-0.4-0.7-0.7-1.1c-0.2-0.4-0.4-0.8-0.7-1.3c-0.2-0.4-0.4-0.9-0.6-1.3
					c-0.2-0.4-0.3-0.8-0.4-1.2c-0.1-0.3-0.2-0.7-0.3-0.9c0-0.1-0.1-0.2-0.1-0.3L16.6,53.3z M11.7,52.3c0,0.1,0,0.2,0.1,0.3
					c0.1,0.2,0.1,0.5,0.2,0.9c0.1,0.4,0.2,0.8,0.3,1.2c0.1,0.4,0.2,0.9,0.4,1.4c0.1,0.5,0.3,1,0.4,1.4c0.2,0.4,0.4,0.8,0.5,1.2
					c0.1,0.2,0.2,0.3,0.3,0.4c0.1,0.1,0.2,0.2,0.2,0.3c0.1,0.1,0.1,0.2,0.2,0.3c-0.1-0.1-0.1-0.2-0.2-0.3l-0.3-0.3
					c-0.1-0.1-0.2-0.2-0.3-0.4c-0.2-0.3-0.4-0.7-0.7-1.1c-0.2-0.4-0.4-0.8-0.7-1.3c-0.2-0.4-0.4-0.9-0.6-1.4
					c-0.2-0.4-0.3-0.8-0.4-1.2c-0.1-0.3-0.2-0.7-0.3-0.9c0-0.1-0.1-0.2-0.1-0.3L11.7,52.3z M7.7,51.7c0,0.1,0,0.2,0.1,0.3
					c0.1,0.2,0.1,0.5,0.2,0.9c0.1,0.4,0.2,0.8,0.3,1.2c0.1,0.5,0.2,0.9,0.4,1.4c0.1,0.5,0.3,1,0.4,1.4c0.2,0.4,0.4,0.8,0.5,1.2
					c0.1,0.2,0.2,0.3,0.3,0.4c0.1,0.1,0.2,0.2,0.2,0.3c0.1,0.1,0.1,0.2,0.2,0.3c-0.1-0.1-0.1-0.2-0.2-0.3l-0.3-0.3
					c-0.1-0.1-0.2-0.2-0.3-0.4c-0.2-0.3-0.4-0.7-0.7-1.1c-0.2-0.4-0.4-0.8-0.7-1.3c-0.2-0.4-0.4-0.9-0.6-1.4C7.2,54,7.1,53.6,7,53.2
					c-0.1-0.3-0.2-0.7-0.3-0.9c0-0.1-0.1-0.2-0.1-0.3L7.7,51.7z M3.3,51.5c0,0.1,0,0.2,0.1,0.3c0.1,0.2,0.1,0.5,0.2,0.9
					c0.1,0.4,0.2,0.8,0.3,1.2c0.1,0.4,0.2,0.9,0.4,1.4c0.1,0.5,0.3,1,0.4,1.4c0.2,0.4,0.4,0.8,0.5,1.2c0.1,0.2,0.2,0.3,0.3,0.4
					c0.1,0.1,0.2,0.2,0.2,0.3c0.1,0.1,0.1,0.2,0.2,0.3c-0.1-0.1-0.1-0.2-0.2-0.3l-0.3-0.3C5.2,58.3,5.1,58.1,5,58
					c-0.2-0.3-0.4-0.7-0.7-1.1c-0.2-0.4-0.4-0.8-0.7-1.3c-0.2-0.4-0.4-0.9-0.6-1.3c-0.2-0.4-0.3-0.8-0.4-1.2
					c-0.1-0.3-0.2-0.7-0.3-0.9c0-0.1-0.1-0.2-0.1-0.3L3.3,51.5z"/>
				<path class="st18" d="M1.4,26.2l-0.1-4.5c0.8-0.2,17.1-3.5,31-0.2l0.1,4.8C19.3,23.1,1.6,26.2,1.4,26.2z"/>
				<path class="st18" d="M1.2,14.9v-2.2c0-0.5,0.2-2,0.2-2C2.1,10.5,19,6.2,32.9,9.6v2.2c-0.1,1.4-0.1,2.4-0.1,2.4
					C19.7,11,1.3,14.9,1.2,14.9z"/>
				<path class="st18" d="M0.9,37.2L1.2,33c0.8-0.1,20.2-1.7,31.5,0.7l0.2,4.1C22.1,35.6,1.1,37.2,0.9,37.2z"/>
				<path class="st18" d="M0.2,47.1L0.4,43c0.8-0.1,18.8,0.4,32.5,1.3l0.1,4C17.1,48.4,0.4,47.1,0.2,47.1z"/>
			</g>
		</g>
	</g>
	<g transform="translate(26.115 22.16)">
		<path class="st20" d="M59.8,11.8C59.8,5.3,47.1,0,31.4,0C15.7,0,3,5.2,2.9,11.7c0,0-3,21.2-2.9,21.2c0-6.2,13.2-13.8,31.4-13.8
			c16.9,0,29.5,7.9,31.2,13.7C62.6,32.8,59.8,11.8,59.8,11.8z"/>
		<path class="st21" d="M33.1,0v19.2c16,0.5,27.8,8,29.4,13.7l-2.8-21.1C59.8,5.5,48,0.5,33.1,0z"/>
	</g>
</g>
</svg>
