<svg xmlns="http://www.w3.org/2000/svg" viewBox="0 0 135 28">
  <defs>
    <style>
      .cls-1 {
        fill: #555;
      }
    </style>
  </defs>
  <g id="ST_WWST_Blue_Mono_RGB" transform="translate(-0.8 -0.5)">
    <path id="Path_8073" data-name="Path 8073" class="cls-1" d="M897.14,301.479l-2.194,1.506v1.443h-1.612v1.959h1.612v3.565a8.032,8.032,0,0,0,.186,1.886,2.673,2.673,0,0,0,.62,1.215,2.419,2.419,0,0,0,1.168.658,7.351,7.351,0,0,0,1.829.194h.307v-2.056a6.051,6.051,0,0,1-1.009-.066.915.915,0,0,1-.848-.851,5.962,5.962,0,0,1-.065-1v-3.548h1.919v-1.959h-1.919v-2.949Zm3.145,2.7h3.145V313.9h2.194v-9.722h3.159v-2.108h-8.5Zm-9.367.242a2.434,2.434,0,0,0-2.418,1.409v-1.409h-2.16V313.9h2.177v-5.053a2.619,2.619,0,0,1,.493-1.776,1.844,1.844,0,0,1,1.443-.543,2.359,2.359,0,0,1,.765.1,2.393,2.393,0,0,1,.541.267l.823-2.073a3.387,3.387,0,0,0-.734-.291A3.687,3.687,0,0,0,890.918,304.424Zm-8.6,1.253a3.629,3.629,0,0,0-1.306-.928,4.351,4.351,0,0,0-1.726-.339,4.834,4.834,0,0,0-1.733.322,4.463,4.463,0,0,0-2.546,2.419,4.874,4.874,0,0,0-.4,2.021,4.779,4.779,0,0,0,.4,2.007,4.577,4.577,0,0,0,2.556,2.419,4.63,4.63,0,0,0,1.685.318,4.208,4.208,0,0,0,1.743-.363,3.538,3.538,0,0,0,1.323-1V313.9H884.5v-9.476h-2.177v1.253Zm-.107,4.544a2.867,2.867,0,0,1-.589.883,2.719,2.719,0,0,1-.885.6,2.935,2.935,0,0,1-1.13.215,2.881,2.881,0,0,1-1.12-.215,2.8,2.8,0,0,1-.91-.585,2.776,2.776,0,0,1-.606-3.049,2.613,2.613,0,0,1,.606-.869,3.023,3.023,0,0,1,3.159-.578,2.622,2.622,0,0,1,.885.585,2.8,2.8,0,0,1,.589.876,2.752,2.752,0,0,1,0,2.142Zm-26.268-2.212a4.5,4.5,0,0,0-1.1-.63c-.4-.163-.8-.308-1.2-.433l-.92-.3a4.39,4.39,0,0,1-.765-.322,1.764,1.764,0,0,1-.524-.415.9.9,0,0,1-.193-.581,1.2,1.2,0,0,1,.42-.928,1.772,1.772,0,0,1,1.226-.377,2.4,2.4,0,0,1,2.129,1.17l1.805-1.412a7.419,7.419,0,0,0-.751-.689,4.566,4.566,0,0,0-.872-.543,4.977,4.977,0,0,0-1.047-.356,5.826,5.826,0,0,0-1.282-.128,4.636,4.636,0,0,0-1.557.253,3.808,3.808,0,0,0-1.24.7,3.21,3.21,0,0,0-.813,1.045,2.917,2.917,0,0,0-.289,1.291,2.777,2.777,0,0,0,.3,1.36,2.963,2.963,0,0,0,.775.914,3.972,3.972,0,0,0,1.071.588c.4.145.8.284,1.192.408.31.093.617.19.91.284a4.592,4.592,0,0,1,.782.322,1.8,1.8,0,0,1,.548.433.918.918,0,0,1,.21.613,1.492,1.492,0,0,1-.458,1.069,1.774,1.774,0,0,1-1.33.471,2.811,2.811,0,0,1-1.468-.395,3.247,3.247,0,0,1-1.113-1.135l-2,1.512a7.163,7.163,0,0,0,1.9,1.516,5.492,5.492,0,0,0,2.694.606,4.583,4.583,0,0,0,1.726-.308,3.918,3.918,0,0,0,1.275-.8,3.455,3.455,0,0,0,1.065-2.464,2.865,2.865,0,0,0-.307-1.391A3.138,3.138,0,0,0,855.948,308.01Zm13.5-3.6a3.692,3.692,0,0,0-1.815.44,3.585,3.585,0,0,0-1.281,1.173,2.958,2.958,0,0,0-1.185-1.191,3.854,3.854,0,0,0-1.878-.422,3.526,3.526,0,0,0-1.557.332,3.161,3.161,0,0,0-1.137.907v-1.225h-2.16V313.9h2.177v-5.126a2.547,2.547,0,0,1,.606-1.852,2.038,2.038,0,0,1,1.523-.616,1.872,1.872,0,0,1,1.485.571,2.3,2.3,0,0,1,.5,1.568v5.462h2.208v-5.181a2.494,2.494,0,0,1,.6-1.821,2,2,0,0,1,1.485-.6,1.915,1.915,0,0,1,1.533.6,2.359,2.359,0,0,1,.517,1.606v5.4h2.225v-5.6a4.04,4.04,0,0,0-.968-2.855A3.742,3.742,0,0,0,869.452,304.41ZM920.78,313.9h2.194v-9.48H920.78Zm32.331-4.891a4.43,4.43,0,0,0-1.071-.478,11.453,11.453,0,0,0-1.168-.287,13.3,13.3,0,0,1-1.612-.408c-.365-.128-.548-.343-.548-.64a.85.85,0,0,1,.372-.678,1.826,1.826,0,0,1,1.144-.294,2.5,2.5,0,0,1,1.192.277,2.048,2.048,0,0,1,.806.755l1.853-.883a3.974,3.974,0,0,0-1.492-1.436,4.78,4.78,0,0,0-2.363-.526,4.888,4.888,0,0,0-1.523.225,3.665,3.665,0,0,0-1.168.609,2.818,2.818,0,0,0-.751.89,2.179,2.179,0,0,0-.265,1.042,2.21,2.21,0,0,0,.289,1.18,2.38,2.38,0,0,0,.758.772,3.982,3.982,0,0,0,1.058.471c.393.114.792.211,1.2.294.289.062.568.118.837.17a3.932,3.932,0,0,1,.7.194,1.622,1.622,0,0,1,.482.27.5.5,0,0,1,.186.4.964.964,0,0,1-.4.772,1.911,1.911,0,0,1-1.209.325,2.639,2.639,0,0,1-1.354-.336,2.426,2.426,0,0,1-.92-.955l-2.015.91a3.952,3.952,0,0,0,1.6,1.689,5.2,5.2,0,0,0,2.6.585,4.928,4.928,0,0,0,1.743-.277,3.723,3.723,0,0,0,1.2-.72,2.9,2.9,0,0,0,.7-.959,2.484,2.484,0,0,0,.227-1,2.17,2.17,0,0,0-.3-1.184A2.551,2.551,0,0,0,953.111,309.013Zm-37.892-4.6a3.561,3.561,0,0,0-1.619.357,3.48,3.48,0,0,0-1.2.973v-3.669h-2.177V313.9h2.195v-5.081a3.167,3.167,0,0,1,.169-1.076,2.247,2.247,0,0,1,.469-.793,2.008,2.008,0,0,1,.7-.481,2.223,2.223,0,0,1,.854-.166,1.971,1.971,0,0,1,1.6.626,2.563,2.563,0,0,1,.531,1.717V313.9h2.226v-5.52a4.088,4.088,0,0,0-.992-2.925A3.6,3.6,0,0,0,915.219,304.41Zm27.429,1.353a3.69,3.69,0,0,0-1.306-.99,4.086,4.086,0,0,0-1.726-.367,4.834,4.834,0,0,0-1.733.322,4.463,4.463,0,0,0-2.546,2.419,4.929,4.929,0,0,0-.4,2.021,4.777,4.777,0,0,0,.4,2.007A4.577,4.577,0,0,0,937.9,313.6a4.632,4.632,0,0,0,1.685.318,3.985,3.985,0,0,0,1.757-.388,3.6,3.6,0,0,0,1.323-1.069v1.1a2.973,2.973,0,0,1-.186,1.038,2.525,2.525,0,0,1-1.378,1.474,2.645,2.645,0,0,1-1.113.228,2.954,2.954,0,0,1-1.774-.471,4.2,4.2,0,0,1-1.161-1.426l-1.936,1.184a5.317,5.317,0,0,0,.775,1.094,4.793,4.793,0,0,0,1.047.858,5.145,5.145,0,0,0,1.347.568,6.4,6.4,0,0,0,1.667.2,5.443,5.443,0,0,0,2.1-.377,4.24,4.24,0,0,0,2.449-2.537,5.361,5.361,0,0,0,.314-1.855v-9.116h-2.177v1.339Zm-.107,4.458a2.868,2.868,0,0,1-.589.883,2.719,2.719,0,0,1-.885.6,2.934,2.934,0,0,1-1.13.215,2.881,2.881,0,0,1-1.12-.215,2.8,2.8,0,0,1-.91-.585,2.776,2.776,0,0,1-.606-3.049,2.614,2.614,0,0,1,.606-.869,3.023,3.023,0,0,1,3.159-.578,2.621,2.621,0,0,1,.885.585,2.8,2.8,0,0,1,.589.876,2.657,2.657,0,0,1,.217,1.066A2.7,2.7,0,0,1,942.542,310.221ZM921.879,300.7a1.334,1.334,0,0,0-1,.381,1.54,1.54,0,0,0-.017,1.987,1.559,1.559,0,0,0,2.026,0,1.362,1.362,0,0,0,.362-.99,1.384,1.384,0,0,0-.362-1A1.337,1.337,0,0,0,921.879,300.7Zm7.917,3.71a3.615,3.615,0,0,0-1.636.36,3.433,3.433,0,0,0-1.185.952v-1.294h-2.16V313.9h2.177v-5.081a2.562,2.562,0,0,1,.637-1.869,2.113,2.113,0,0,1,1.571-.651,1.971,1.971,0,0,1,1.6.626,2.536,2.536,0,0,1,.531,1.7V313.9h2.208v-5.52a4.088,4.088,0,0,0-.992-2.925A3.589,3.589,0,0,0,929.8,304.41Z" transform="translate(-818.4 -289.81)"/>
    <g id="Group_4007" data-name="Group 4007" transform="translate(0.8 0.5)">
      <path id="Path_8074" data-name="Path 8074" class="cls-1" d="M308.691,320.4a2.053,2.053,0,1,0,2.091,2.052A2.076,2.076,0,0,0,308.691,320.4Z" transform="translate(-296.065 -309.328)"/>
      <ellipse id="Ellipse_1202" data-name="Ellipse 1202" class="cls-1" cx="1.426" cy="1.398" rx="1.426" ry="1.398" transform="translate(11.2 4.638)"/>
      <path id="Path_8075" data-name="Path 8075" class="cls-1" d="M128.557,276.069a1.485,1.485,0,0,0-.441-.069,1.4,1.4,0,0,0-.441,2.734,1.484,1.484,0,0,0,.441.069,1.413,1.413,0,0,0,1.354-.969,1.367,1.367,0,0,0-.086-1.066A1.386,1.386,0,0,0,128.557,276.069Z" transform="translate(-122.356 -266.465)"/>
      <path id="Path_8076" data-name="Path 8076" class="cls-1" d="M205.078,505.266a1.444,1.444,0,0,0-1.991.312,1.387,1.387,0,0,0,.314,1.955,1.418,1.418,0,0,0,.837.267,1.437,1.437,0,0,0,1.154-.578A1.387,1.387,0,0,0,205.078,505.266Z" transform="translate(-195.855 -487.539)"/>
      <path id="Path_8077" data-name="Path 8077" class="cls-1" d="M450.437,505a1.451,1.451,0,0,0-.837.266,1.387,1.387,0,0,0-.313,1.956,1.444,1.444,0,0,0,1.991.311,1.387,1.387,0,0,0,.317-1.955A1.438,1.438,0,0,0,450.437,505Z" transform="translate(-433.574 -487.539)"/>
      <path id="Path_8078" data-name="Path 8078" class="cls-1" d="M526.52,276a1.485,1.485,0,0,0-.441.069,1.4,1.4,0,0,0-.916,1.765,1.421,1.421,0,0,0,1.354.966,1.483,1.483,0,0,0,.441-.069,1.408,1.408,0,0,0,.83-.7,1.369,1.369,0,0,0,.086-1.066A1.413,1.413,0,0,0,526.52,276Z" transform="translate(-507.031 -266.465)"/>
      <path id="Path_8079" data-name="Path 8079" class="cls-1" d="M23.22,3.348C20.609,1.023,17.153.5,13.932.5H12.909c-3.338,0-6.814.568-9.277,2.848C1.327,5.968.8,9.447.8,12.683v1c0,3.347.565,6.87,2.835,9.345,2.625,2.333,6.1,2.848,9.339,2.848h.9c3.345,0,6.869-.561,9.346-2.848,2.322-2.637,2.835-6.14,2.835-9.39v-.9C26.052,9.371,25.494,5.83,23.22,3.348ZM11.1,20.73a2.4,2.4,0,0,1-3.318.516,2.306,2.306,0,0,1-.524-3.257,2.4,2.4,0,0,1,2.9-.751l.413-.557.768.547-.413.557A2.3,2.3,0,0,1,11.1,20.73ZM13.426,16.8a3.2,3.2,0,0,1-3.228-3.17,2.958,2.958,0,0,1,.048-.526l-1.619-.519a2.37,2.37,0,0,1-2.064,1.184,2.407,2.407,0,0,1-.734-.114A2.33,2.33,0,0,1,4.3,10.714,2.366,2.366,0,0,1,6.563,9.1a2.407,2.407,0,0,1,.734.114,2.351,2.351,0,0,1,1.381,1.159A2.3,2.3,0,0,1,8.923,11.7l1.616.516a3.358,3.358,0,0,1,2.508-1.689V8.845A2.459,2.459,0,0,1,11.052,6.54a2.374,2.374,0,0,1,4.747,0,2.287,2.287,0,0,1-1.805,2.305v1.679a3.079,3.079,0,0,1,2.66,3.1A3.2,3.2,0,0,1,13.426,16.8Zm5.636,4.447a2.4,2.4,0,0,1-3.318-.516,2.305,2.305,0,0,1,.169-2.945l-.41-.557.768-.547.413.557a2.4,2.4,0,0,1,2.9.751A2.31,2.31,0,0,1,19.062,21.246ZM22.4,12.493a2.361,2.361,0,0,1-1.381,1.159,2.407,2.407,0,0,1-.734.114,2.37,2.37,0,0,1-2.064-1.184l-.668.215-.293-.886.665-.215a2.335,2.335,0,0,1,1.626-2.482,2.407,2.407,0,0,1,.734-.114,2.361,2.361,0,0,1,2.256,1.613A2.27,2.27,0,0,1,22.4,12.493Z" transform="translate(-0.8 -0.5)"/>
    </g>
    <path id="Path_8080" data-name="Path 8080" class="cls-1" d="M906.953,51.851a2.47,2.47,0,0,0,.324-1.308,2.2,2.2,0,0,0-.586-1.641,2.266,2.266,0,0,0-1.66-.578H902.6v6.808h1.292v-2.35h.813l1.45,2.35H907.7l-1.674-2.52A1.838,1.838,0,0,0,906.953,51.851Zm-1.922-.18h-1.14V49.463H905q.956,0,.954,1.111C905.947,51.3,905.64,51.671,905.03,51.671ZM891.512,53.61,890.5,48.335h-1.388l-.992,5.264-.992-5.275H885.8l1.6,6.808h1.406l.992-5.039,1,5.039h1.406l1.609-6.808H892.5Zm6.332-5.41a2.653,2.653,0,0,0-2.157.89,4.022,4.022,0,0,0-.744,2.637,4.022,4.022,0,0,0,.744,2.637,3.059,3.059,0,0,0,4.313,0,4.022,4.022,0,0,0,.744-2.637A4.022,4.022,0,0,0,900,49.09,2.649,2.649,0,0,0,897.844,48.2Zm0,5.9q-1.571,0-1.571-2.371c0-1.578.524-2.371,1.571-2.371s1.571.789,1.571,2.371S898.895,54.1,897.844,54.1Zm20.525-2.914-.768-.215a1.579,1.579,0,0,1-.692-.343.735.735,0,0,1-.214-.55c0-.495.341-.744,1.02-.744a4.984,4.984,0,0,1,1.712.367l.42-1.014a5.477,5.477,0,0,0-1.047-.35,4.837,4.837,0,0,0-1.068-.121,2.4,2.4,0,0,0-1.674.547,1.969,1.969,0,0,0-.6,1.533,1.787,1.787,0,0,0,.389,1.211,2.514,2.514,0,0,0,1.257.7l.768.215a1.544,1.544,0,0,1,.692.35.75.75,0,0,1,.217.554c0,.54-.389.81-1.171.81a3.61,3.61,0,0,1-1.826-.516l-.413,1.014a3.81,3.81,0,0,0,1.034.457,4.384,4.384,0,0,0,1.2.166,2.582,2.582,0,0,0,1.774-.561,2.007,2.007,0,0,0,.63-1.585,1.831,1.831,0,0,0-.382-1.222A2.429,2.429,0,0,0,918.369,51.183Zm27.674-2.859V51.1H943.5V48.325h-1.292v6.808H943.5V52.256h2.546v2.876h1.292V48.325Zm-10.049,1.166h1.685v5.642h1.292V49.491h1.685V48.325h-4.661Zm-6.78,4.119L928.2,48.335H926.82l-.992,5.264-.992-5.275h-1.33l1.6,6.808h1.406l.992-5.039,1,5.039h1.406l1.609-6.808H930.2Zm-14.8-5.285h-1.526l-2.387,3.2v-3.2h-1.292v6.808H910.5V53.2l.72-.9,1.816,2.831h1.526l-2.529-3.845Zm18.717,6.808h1.292V48.325h-1.292Z" transform="translate(-854.512 -46.049)"/>
  </g>
</svg>
