<svg version="1.2" baseProfile="tiny-ps" xmlns="http://www.w3.org/2000/svg" viewBox="0 0 35 24" width="35" height="24">
	<title>Layer 1</title>
	<style>
		tspan { white-space:pre }
		.shp0 { fill: #0077c8 } 
		.shp1 { fill: #ffffff } 
		.shp2 { fill: none;stroke: #ffffff;stroke-width: 1.5 } 
	</style>
	<g id="Layer 1">
		<g id="&lt;Group&gt;">
			<path id="&lt;Path&gt;" class="shp0" d="M16.92 22.38C13.95 22.38 10.77 21.68 7.45 20.29L7.45 8.86L25.28 8.86L25.28 20.34C22.67 21.69 19.86 22.38 16.92 22.38Z" />
			<path id="&lt;Compound Path&gt;" fill-rule="evenodd" class="shp1" d="M26.03 20.79C23.17 22.36 20.13 23.13 16.92 23.13C13.69 23.13 10.28 22.35 6.7 20.79L6.7 8.11L26.03 8.11L26.03 20.79ZM8.2 9.61L8.2 19.79C11.26 21.01 14.19 21.63 16.92 21.63C19.58 21.63 22.14 21.04 24.53 19.88L24.53 9.61L8.2 9.61Z" />
		</g>
		<g id="&lt;Group&gt;">
			<path id="&lt;Path&gt;" class="shp0" d="M2 8.11L16.47 0.8L30.94 8.11L16.47 15.43L2 8.11Z" />
			<path id="&lt;Compound Path&gt;" fill-rule="evenodd" class="shp1" d="M32.6 8.11L16.47 16.27L0.34 8.11L16.47 -0.04L32.6 8.11ZM3.67 8.11L16.47 14.59L29.27 8.11L16.47 1.64L3.67 8.11Z" />
		</g>
		<g id="&lt;Group&gt;">
			<path id="&lt;Path&gt;" class="shp2" d="M16.47 8.11L30.36 8.11" />
		</g>
		<path id="&lt;Path&gt;" class="shp2" d="M31.84 8.11L31.84 16.76" />
		<g id="&lt;Group&gt;">
			<path id="&lt;Path&gt;" class="shp0" d="M31.84 19.18C30.51 19.18 29.43 18.1 29.43 16.77C29.43 15.44 30.51 14.36 31.84 14.36C33.17 14.36 34.25 15.44 34.25 16.77C34.25 18.1 33.17 19.18 31.84 19.18Z" />
			<path id="&lt;Compound Path&gt;" fill-rule="evenodd" class="shp1" d="M35 16.77C35 18.51 33.59 19.93 31.84 19.93C30.1 19.93 28.68 18.51 28.68 16.77C28.68 15.02 30.1 13.61 31.84 13.61C33.59 13.61 35 15.02 35 16.77ZM30.18 16.77C30.18 17.68 30.93 18.43 31.84 18.43C32.76 18.43 33.5 17.68 33.5 16.77C33.5 15.85 32.76 15.11 31.84 15.11C30.93 15.11 30.18 15.85 30.18 16.77Z" />
		</g>
	</g>
</svg>