<svg version="1.2" baseProfile="tiny-ps" xmlns="http://www.w3.org/2000/svg" viewBox="0 0 22 32" width="22" height="32">
	<title>Layer 1</title>
	<style>
		tspan { white-space:pre }
		.shp0 { fill: #ffffff } 
		.shp1 { fill: #0077c8 } 
	</style>
	<g id="Layer 1">
		<g id="&lt;Group&gt;">
			<path id="&lt;Compound Path&gt; copy" fill-rule="evenodd" class="shp0" d="M12.97 12.04L21.99 12.05L7.95 31.74L7.95 19.6L-0.12 19.6L6.29 2.93L16.48 2.93L12.97 12.04ZM7.32 4.43L2.06 18.1L9.45 18.1L9.45 27.06L19.08 13.54L12.97 13.54L10.79 13.53L11.57 11.5L14.29 4.43L7.32 4.43Z" />
		</g>
		<g id="&lt;Group&gt;">
			<path id="&lt;Path&gt;" class="shp1" d="M6.79 6.15C5.46 6.15 4.38 5.07 4.38 3.74C4.38 2.41 5.46 1.33 6.79 1.33C8.12 1.33 9.2 2.41 9.2 3.74C9.2 5.07 8.12 6.15 6.79 6.15Z" />
			<path id="&lt;Compound Path&gt;" fill-rule="evenodd" class="shp0" d="M9.95 3.74C9.95 5.48 8.54 6.9 6.79 6.9C5.05 6.9 3.63 5.48 3.63 3.74C3.63 1.99 5.05 0.58 6.79 0.58C8.54 0.58 9.95 1.99 9.95 3.74ZM5.13 3.74C5.13 4.65 5.88 5.4 6.79 5.4C7.71 5.4 8.45 4.65 8.45 3.74C8.45 2.82 7.71 2.08 6.79 2.08C5.88 2.08 5.13 2.82 5.13 3.74Z" />
		</g>
	</g>
</svg>