<?xml version="1.0" encoding="UTF-8"?>
<svg width="66px" height="46px" viewBox="0 0 66 46" version="1.1" xmlns="http://www.w3.org/2000/svg" xmlns:xlink="http://www.w3.org/1999/xlink">
    <!-- Generator: Sketch 52.5 (67469) - http://www.bohemiancoding.com/sketch -->
    <title>down@2x</title>
    <desc>Created with Sketch.</desc>
    <g id="down" stroke="none" stroke-width="1" fill="none" fill-rule="evenodd" opacity="0.35">
        <g transform="translate(33.000000, 23.000000) rotate(-270.000000) translate(-33.000000, -23.000000) translate(10.000000, -10.000000)" fill="#FFFFFF" id="Fill-1">
            <path d="M37.6582906,30.0799457 C37.2896839,29.5708052 37.0871749,29.2799549 36.8758342,29.0004866 C31.0419632,21.2784213 25.2263753,13.5325758 19.3571776,5.85705473 C18.1063319,4.22150452 18.3495906,1.79185779 19.8903325,0.792072586 C20.7727264,0.219518223 21.6369921,0.491059802 22.4760023,1.58637235 C25.9530526,6.12554757 29.4231306,10.6740723 32.8994062,15.2140605 C36.8327603,20.3511963 40.7676639,25.4862996 44.7070607,30.6151021 C45.7293671,31.945981 45.7795683,33.5622225 44.7620651,34.9109874 C37.3158691,44.7805889 29.8637853,54.6430766 22.4062785,64.4982473 C21.421468,65.7994518 20.1774398,65.8230288 19.2429854,64.6273109 C18.2550761,63.3633011 18.2453148,61.6539712 19.2558456,60.3151656 C25.1236489,52.5418814 30.9987344,44.7779467 36.8704112,37.0095404 C37.0846958,36.7260071 37.2892191,36.4298723 37.6655728,35.9073174 L37.6582906,30.0799457 Z"></path>
            <path d="M19.6582906,30.0799457 C19.2896839,29.5708052 19.0871749,29.2799549 18.8758342,29.0004866 C13.0419632,21.2784213 7.22637531,13.5325758 1.35717757,5.85705473 C0.106331914,4.22150452 0.349590638,1.79185779 1.89033252,0.792072586 C2.77272642,0.219518223 3.63699213,0.491059802 4.47600232,1.58637235 C7.95305265,6.12554757 11.4231306,10.6740723 14.8994062,15.2140605 C18.8327603,20.3511963 22.7676639,25.4862996 26.7070607,30.6151021 C27.7293671,31.945981 27.7795683,33.5622225 26.7620651,34.9109874 C19.3158691,44.7805889 11.8637853,54.6430766 4.40627848,64.4982473 C3.421468,65.7994518 2.17743979,65.8230288 1.24298542,64.6273109 C0.255076102,63.3633011 0.245314764,61.6539712 1.25584559,60.3151656 C7.12364886,52.5418814 12.9987344,44.7779467 18.8704112,37.0095404 C19.0846958,36.7260071 19.2892191,36.4298723 19.6655728,35.9073174 L19.6582906,30.0799457 Z"></path>
        </g>
    </g>
</svg>