<?xml version="1.0" encoding="UTF-8"?>
<svg width="133px" height="133px" viewBox="0 0 133 133" version="1.1" xmlns="http://www.w3.org/2000/svg" xmlns:xlink="http://www.w3.org/1999/xlink">
    <!-- Generator: Sketch 52.5 (67469) - http://www.bohemiancoding.com/sketch -->
    <title>Play@2x</title>
    <desc>Created with Sketch.</desc>
    <defs>
        <polygon id="path-1" points="0.000133210659 0.378642857 132.6295 0.378642857 132.6295 132.999476 0.000133210659 132.999476"></polygon>
    </defs>
    <g id="Play" stroke="none" stroke-width="1" fill="none" fill-rule="evenodd">
        <g id="Group-6">
            <g id="Group-3">
                <mask id="mask-2" fill="white">
                    <use xlink:href="#path-1"></use>
                </mask>
                <g id="Clip-2"></g>
                <path d="M66.2847571,121.920693 C96.7526143,121.955979 121.519114,97.2152643 121.540829,66.7229786 C121.559829,36.2496929 96.8340429,11.4913357 66.3431143,11.45605 C35.8996857,11.4221214 11.1196143,36.1791214 11.0829714,66.6646214 C11.0463286,97.1243357 35.7816143,121.885407 66.2847571,121.920693 M132.630043,66.7541929 C132.559471,103.361764 102.721329,133.129336 66.2223286,132.99905 C29.5577571,132.870121 -0.127028571,103.094407 0.000542857143,66.5723357 C0.126757143,29.9756214 29.8468286,0.326121429 66.3526143,0.377692857 C102.957471,0.429264286 132.699257,30.2144786 132.630043,66.7541929" id="Fill-1" fill="#FEFEFE" mask="url(#mask-2)"></path>
            </g>
            <path d="M55.0135732,66.9613557 C55.0135732,60.5571636 55.0230233,54.1529714 55.004123,47.7501194 C55.001423,46.623121 55.2228261,45.622089 56.096288,44.8394885 C57.3086047,43.7526921 58.9488772,43.7071297 60.4554979,44.7845456 C64.0816477,47.37624 67.6915973,49.9880355 71.3042469,52.5944706 C76.550419,56.3801669 81.792541,60.1712236 87.038713,63.9555798 C89.6374987,65.828997 89.6604491,68.1674182 87.0670634,70.0408354 C78.2676426,76.3914247 69.4574216,82.7299534 60.6607007,89.0859031 C59.4632343,89.9515879 58.1928668,90.3268074 56.8266481,89.6567727 C55.4536792,88.9840578 54.9933229,87.773975 55.000073,86.2797975 C55.0297734,79.8394235 55.0135732,73.4017297 55.0135732,66.9613557" id="Fill-4" fill="#FEFEFE"></path>
        </g>
    </g>
</svg>