<svg version="1.2" baseProfile="tiny-ps" xmlns="http://www.w3.org/2000/svg" viewBox="0 0 14 31" width="14" height="31">
	<title>Layer 1</title>
	<style>
		tspan { white-space:pre }
		.shp0 { fill: #ffffff } 
		.shp1 { fill: none;stroke: #ffffff;stroke-width: 1.5 } 
	</style>
	<g id="Layer 1">
		<g id="&lt;Group&gt;">
			<path id="&lt;Compound Path&gt;" fill-rule="evenodd" class="shp0" d="M10.02 23.94C10.02 25.74 8.55 27.21 6.75 27.21C4.94 27.21 3.47 25.74 3.47 23.94C3.47 22.13 4.94 20.66 6.75 20.66C8.55 20.66 10.02 22.13 10.02 23.94ZM4.97 23.94C4.97 24.91 5.77 25.71 6.75 25.71C7.72 25.71 8.52 24.91 8.52 23.94C8.52 22.96 7.72 22.17 6.75 22.17C5.77 22.17 4.97 22.96 4.97 23.94Z" />
			<path id="&lt;Compound Path&gt; copy" fill-rule="evenodd" class="shp0" d="M10.02 23.94C10.02 25.74 8.55 27.21 6.75 27.21C4.94 27.21 3.47 25.74 3.47 23.94C3.47 22.13 4.94 20.66 6.75 20.66C8.55 20.66 10.02 22.13 10.02 23.94ZM4.97 23.94C4.97 24.91 5.77 25.71 6.75 25.71C7.72 25.71 8.52 24.91 8.52 23.94C8.52 22.96 7.72 22.17 6.75 22.17C5.77 22.17 4.97 22.96 4.97 23.94Z" />
		</g>
		<g id="&lt;Group&gt;">
			<path id="&lt;Compound Path&gt;" fill-rule="evenodd" class="shp0" d="M7.11 0.31C9.57 0.5 11.5 2.54 11.5 5.04L11.5 19.54C12.57 20.69 13.23 22.24 13.23 23.94C13.23 27.53 10.33 30.43 6.75 30.43C3.16 30.43 0.26 27.53 0.26 23.94C0.26 22.24 0.92 20.69 1.99 19.54L1.99 5.04C1.99 2.54 3.93 0.5 6.38 0.31C6.5 0.3 6.62 0.29 6.75 0.29C6.87 0.29 6.99 0.3 7.11 0.31ZM6.53 1.8L6.51 1.8L6.49 1.8C4.81 1.93 3.49 3.36 3.49 5.04L3.49 20.13L3.09 20.56C2.23 21.48 1.76 22.68 1.76 23.94C1.76 26.69 4 28.93 6.75 28.93C9.5 28.93 11.73 26.69 11.73 23.94C11.73 22.68 11.26 21.48 10.4 20.56L10 20.13L10 5.04C10 3.36 8.68 1.93 7 1.8L6.98 1.8L6.96 1.8C6.89 1.79 6.82 1.79 6.75 1.79C6.67 1.79 6.6 1.79 6.53 1.8Z" />
		</g>
		<path id="&lt;Path&gt;" class="shp1" d="M1.99 6.35L6.75 6.35" />
		<path id="&lt;Path&gt;" class="shp1" d="M1.99 9.85L6.75 9.85" />
		<path id="&lt;Path&gt;" class="shp1" d="M1.99 13.35L6.75 13.35" />
	</g>
</svg>