<svg xmlns="http://www.w3.org/2000/svg" width="703" height="240" viewBox="0 0 703 240">
  <g fill="#FFF" transform="translate(-12 -52)">
    <path d="M278.204179,477.741504 C278.204179,477.741504 243.00952,442.7683 236.734079,378.361166 C233.008461,340.626448 230.332438,-4.74824701 284.191466,-87.4446869 C304.026882,-117.900459 323.339008,-168.054304 349.854739,-180.296413 C413.806222,-209.984493 501.350205,-120.821904 491.189588,18.4855729 C480.865173,160.038811 452.752786,209.535645 451.631504,275.64156 C448.865523,438.711723 434.207822,473.657184 383.943559,504.150173 C348.938768,525.38595 313.857366,518.955653 278.204179,477.741504 Z" opacity=".451" transform="rotate(-96 363.5 165)"/>
    <path d="M289.155404,436.029161 C289.155404,436.029161 258.889643,405.889091 253.492233,350.38168 C250.287895,317.861113 247.981791,20.2094462 294.29611,-51.061174 C311.352931,-77.3090003 327.959475,-120.533061 350.761219,-131.084059 C405.755185,-156.671057 481.038948,-79.8302837 472.303407,40.228228 C463.427041,162.222191 439.252797,204.880181 438.289498,261.851773 C435.91323,402.389373 423.308993,432.506422 380.085215,458.786864 C349.983524,477.088961 319.81556,471.54781 289.155404,436.029161 Z" transform="rotate(-94 362.5 166.5)"/>
  </g>
</svg>
