<?xml version="1.0" encoding="utf-8"?>
<!-- Generator: Adobe Illustrator 21.1.0, SVG Export Plug-In . SVG Version: 6.00 Build 0)  -->
<svg version="1.1" id="Layer_1" xmlns="http://www.w3.org/2000/svg" xmlns:xlink="http://www.w3.org/1999/xlink" x="0px" y="0px"
	 viewBox="0 0 1210 100" style="enable-background:new 0 0 1210 100;" xml:space="preserve">
<style type="text/css">
	.st0{fill:#006E94;}
	.st1{fill:#FFFFFF;}
	.st2{opacity:0.835;fill:#008ABA;enable-background:new    ;}
	.st3{fill:#31ADBF;}
	.st4{opacity:0.997;fill:#65D7E7;enable-background:new    ;}
	.st5{fill:#89D9E4;}
</style>
<g>
	<polygon class="st0" points="948,0 1170,0 1210,50 1170,100 948,100 988,50 	"/>
	<path class="st1" d="M1033.8,17.4c0,2.2-0.3,4.9-1,8.2c-0.4,2.4-1.3,5.3-2.7,8.9c-1.7,4.6-3.2,6.9-4.5,6.9c-1.2,0-2.2-0.2-2.9-0.6
		c-1.7-0.9-3-4.1-4-9.7l-1.9-11.4c-0.1-0.3-0.2-0.7-0.3-1.2c-0.3-0.4-0.5-0.7-0.5-1c0-0.5,0.3-0.9,0.9-1.3c0.6-0.4,1.1-0.6,1.7-0.6
		c0.6,0,1.2,0.2,1.7,0.7c0.5,0.5,0.8,1,0.8,1.6c0,0.4,0,1.1-0.1,2.1c0,1.3-0.1,1.9-0.1,2.1c0,2.1,0.3,4.6,0.9,7.4
		c1.2,5.4,2.1,8,2.8,8c0.5,0,0.9-0.4,1.4-1.2c1.2-2.1,2.3-5,3.2-9c0.9-3.8,1.4-7,1.4-9.5c0-0.6-0.2-1-0.6-1.3
		c-0.3-0.3-0.5-0.5-0.5-0.5c0-0.3,0.3-0.6,0.9-1.1c0.7-0.5,1.1-0.7,1.4-0.7c0.5,0,1,0.4,1.4,1.1
		C1033.6,16.2,1033.8,16.8,1033.8,17.4z M1044.6,30.6c0-0.7-0.2-1.2-0.6-1.8s-0.8-0.8-1.4-0.8c-0.8,0-1.5,0.4-1.9,1.1
		c-0.4,0.7-0.6,1.4-0.6,2.2c0,0.5,0.2,0.9,0.5,1.2c0.3,0.3,0.7,0.5,1.2,0.5C1043.7,32.9,1044.6,32.1,1044.6,30.6z M1048.7,37.7
		c0,1.2-0.8,2.2-2.5,2.9c-1.3,0.6-2.7,0.8-4.2,0.8c-3.8,0-5.8-2.2-5.8-6.6c0-1.8,0.4-3.7,1.3-6c1.1-2.7,2.4-4.1,3.9-4.1
		c1.4,0,2.9,0.6,4.4,1.8c1.6,1.2,2.4,2.5,2.4,3.8c0,1.7-0.7,3-2.2,3.9c-1.3,0.9-2.9,1.3-4.7,1.3c-0.3,0-0.9-0.2-1.7-0.6
		c0.1,2.4,0.8,3.6,2.1,3.6c1.1,0,2.2-0.3,3.2-0.9c1.1-0.6,1.8-0.9,2.1-0.9C1048.1,36.8,1048.7,37.1,1048.7,37.7z M1060.8,28.1
		c0,0,0,0.3-0.1,0.8c-0.5,0.8-1.1,1.1-1.7,1.1c-0.5,0-0.9-0.3-1.3-0.8c-0.1-1.1-0.4-1.7-1.2-1.7c-0.5,0-1,1.2-1.7,3.6
		c-0.3,1.1-0.5,2.5-0.5,4.4c0,1.8,0.1,2.9,0.3,3.2c0.2,0.5,0.3,0.8,0.3,1c0,0.4-0.2,0.8-0.6,1s-0.8,0.4-1.3,0.4c-1.3,0-2-0.6-2-1.9
		c0-0.1,0-0.3,0.1-0.5c0.1-0.3,0.1-0.4,0.1-0.5c0-1-0.1-2.9-0.2-5.7s-0.2-4.7-0.2-5.7c0-1.1,0.7-1.7,2-1.7c0.8,0,1.4,0.2,1.7,0.7
		c0.7-0.8,1.5-1.2,2.4-1.2c0.6,0,1.2,0.2,1.7,0.5c0.4,0.2,0.8,0.6,1.3,1.3C1060.6,27.2,1060.8,27.7,1060.8,28.1z M1076.3,26.6
		c-0.3,1.7-0.5,2.9-0.6,3.7c-0.2,1.4-0.4,2.6-0.4,3.7v10.2c0,1.8-0.5,3.2-1.6,4.2c-1.1,1-2.5,1.5-4.4,1.5c-1.2,0-2.6-0.3-4-0.9
		c-1.7-0.7-2.6-1.6-2.6-2.6c0-0.4,0.1-0.6,0.4-0.9c0.3-0.2,0.6-0.4,1-0.4c0.2,0,0.8,0.3,1.6,1c0.9,0.7,1.8,1,2.9,1
		c1.4,0,2.3-0.5,2.8-1.5c0.3-0.8,0.5-1.9,0.5-3.4c0-0.7,0-1.2,0-1.4c-0.8,0.6-1.7,0.8-2.8,0.8c-1.9,0-3.3-0.7-4.3-2
		c-0.9-1.2-1.4-2.8-1.4-4.7c0-0.5,0.1-3.6,0.4-9.4c0.7-0.3,1.3-0.5,1.8-0.5c0.5,0,1.2,0.3,2.2,0.9c-0.6,1.5-0.9,4.5-0.9,9
		c0,2.9,0.7,4.3,2.2,4.3c1.1,0,1.9-0.9,2.5-2.7c0.4-1.4,0.6-2.7,0.6-4v-4.6c0,0.1,0-0.4-0.1-1.2c1-0.5,1.8-0.8,2.3-0.8
		C1075,25.9,1075.6,26.1,1076.3,26.6z M1105.6,17.9c0,0.2-0.2,0.5-0.5,0.8s-0.6,0.5-0.6,0.6c-0.7,1.3-1,3.7-0.9,7.2l0,1.5
		c0.1,0,0.1,0,0.3,0c0.4,0,0.7,0.2,1.1,0.6c0.3,0.4,0.5,0.8,0.5,1.2c0,0.3-0.2,0.5-0.7,0.6l-1.1,0.2l0.1,3.6c0,1.5,0.2,2.6,0.5,3.4
		c0.2,0.7,0.3,1.1,0.3,1.2c0,0.5-0.2,1-0.6,1.4s-0.8,0.6-1.3,0.6c-1,0-1.6-0.5-1.9-1.5l-0.3-2.6c-0.1-0.4-0.1-1-0.1-2v-1.5
		c0-1-0.1-1.8-0.2-2.5c-1.4,0-3.1,0.2-5.2,0.6l-5.1,1c0.1,0.3,0.1,1.6,0.1,4c0,1.9,0.3,3.1,0.9,3.8c0.1,0.1,0.1,0.2,0.1,0.4
		c0,0.7-0.5,1-1.5,1c-0.9,0-1.7-0.3-2.2-0.9c-0.3-0.3-0.6-2.9-0.9-7.8c-0.4-0.1-0.8-0.4-1.1-0.8c-0.3-0.5-0.4-1-0.4-1.5
		c0-0.1,0-0.1,0-0.2c0-0.1,0.1-0.1,0.1-0.2l0.2-0.2c0.1,0,0.2-0.1,0.3-0.1c0.1,0,0.2-0.1,0.3-0.1s0.2,0,0.3-0.1s0.2-0.1,0.3-0.1
		l0.2-1.8c0.1-0.7,0.1-1.3,0.1-1.7c0-4.4,0.2-7.2,0.7-8.4c0.4-1,1.1-1.5,2.1-1.5c0.6,0,1.2,0.2,1.7,0.6c0.5,0.4,0.8,0.9,0.8,1.4
		c0,0.3-0.1,0.6-0.3,1.1l-0.4,1c-0.7,2.1-1,4.6-1,7.5v0.9c1.1-0.2,1.6-0.3,1.8-0.3c2.9-0.6,5.7-0.9,8.3-0.9c0.1-3.5,0.2-5.9,0.3-7.1
		c0.4-3.6,1.3-5.4,2.6-5.4c0.8,0,1.4,0.3,1.9,0.9C1105.3,16.4,1105.6,17.1,1105.6,17.9z M1112.5,26.6c0,0.4-0.1,1-0.3,1.9
		c-0.2,0.9-0.3,1.5-0.3,1.9v7.7c0,0.5,0.1,1.2,0.4,2.2c-0.4,0.6-0.8,0.9-1.2,0.9c-1.6,0-2.4-0.8-2.6-2.4c-0.2-2.8-0.4-5-0.4-6.6
		c0-2.4,0.1-4.4,0.3-6.2c0-0.1,0-0.2,0-0.4c0-0.5,0.3-0.7,1-0.7c0.6,0,1.2,0.1,1.9,0.4C1112.1,25.7,1112.5,26.1,1112.5,26.6z
		 M1112.8,21.3c0,0.6-0.2,1-0.6,1.4c-0.4,0.4-0.8,0.5-1.4,0.5c-0.7,0-1.3-0.2-1.8-0.7c-0.5-0.5-0.8-1-0.8-1.7c0-0.6,0.2-1,0.6-1.3
		c0.4-0.4,0.9-0.5,1.4-0.5c0.7,0,1.3,0.2,1.8,0.7C1112.6,20.1,1112.8,20.7,1112.8,21.3z M1123.7,32.1c0-0.4-0.2-0.7-0.5-0.9
		c-0.2-2.3-1-3.4-2.4-3.4c-0.8,0-1.5,1.2-2.1,3.5c-0.4,1.7-0.6,3.2-0.6,4.6c0,2.5,0.6,3.7,1.9,3.7c1.2,0,2.1-1,2.8-2.9
		C1123.5,35.1,1123.7,33.6,1123.7,32.1z M1127.5,29.9c0,0.4-0.2,1.5-0.5,3.3c-0.2,1.3-0.4,2.4-0.4,3.3c0,0.8,0,1.9,0.1,3.4
		c0.1,1.5,0.1,2.6,0.1,3.4c0,1.6-0.1,2.7-0.4,3.4c-0.3,0.9-1,1.7-2,2.3s-2,0.9-3.1,0.9c-1.1,0-2.5-0.3-4.1-0.9
		c-1.9-0.7-2.9-1.5-2.9-2.3c0-1.1,0.5-1.7,1.5-1.7c0.4,0,0.8,0.1,1,0.4c0.4,0.6,0.6,0.9,0.6,0.9c0.1,0.1,0.5,0.2,1.2,0.3
		c0.7,0.2,1.2,0.2,1.5,0.2c2.2,0,3.4-1.4,3.4-4.2c0-0.8,0-1.5-0.1-2.1c-1.1,0.9-2.4,1.4-3.9,1.4c-0.6,0-1.3-0.2-2.1-0.5
		c-0.8-0.4-1.4-0.8-1.8-1.2c-0.8-0.9-1.2-2.2-1.2-4c0-2.1,0.5-4.5,1.5-7c1.2-3.1,2.7-4.7,4.4-4.7c1.1,0,2.1,0.5,3,1.5l2.1,2.7
		c0.2,0.3,0.5,0.5,0.9,0.7C1127,29.6,1127.4,29.7,1127.5,29.9z M1141.7,33.2v8.4c-0.5,0.5-1.1,0.7-1.9,0.7c-0.5,0-1-0.3-1.6-1
		c0-1.5,0-3.2,0-5.1c0-5.6-0.8-8.3-2.4-8.3c-1.7,0-2.5,2.2-2.5,6.7c0,0.1,0,0.2,0,0.5c0,0.2,0,0.4,0,0.6v1.1c0,0.3,0.1,0.8,0.2,1.7
		c0.1,0.8,0.2,1.4,0.2,1.7c0,0.3-0.2,0.6-0.6,0.9s-0.7,0.4-1.1,0.4c-0.6,0-1.1-0.3-1.6-0.8c-0.5-0.5-0.7-1.1-0.7-1.7l0.2-21.7
		c0,0,0-0.1,0-0.3c0-0.2,0-0.2,0-0.3c0-0.9,0.5-1.3,1.5-1.3c0.5,0,1,0.2,1.7,0.7c0.6,0.4,0.9,0.8,0.9,1.3c0,0.6-0.1,1.4-0.4,2.4
		c-0.2,1.1-0.3,1.9-0.3,2.4c0,0.2,0,1.3,0.1,3.3c0.6-0.3,1-0.5,1.4-0.5c1,0,2.1,0.2,3.2,0.7c1.5,0.7,2.5,1.7,3.1,3
		C1141.5,30,1141.7,31.4,1141.7,33.2z M1054.5,72.3c0,1.7-0.5,3.1-1.6,4.4c-2.4,3-5.7,4.5-9.9,4.5c-1.9,0-3.6-0.2-5.1-0.6
		c-1-0.2-2-0.8-3-1.6c-1.2-1-1.8-1.9-1.8-2.7c0-0.4,0.2-0.8,0.6-1.1s0.8-0.5,1.2-0.5c0.7,0,1.3,0.3,1.6,1c0.5,1.1,0.9,1.7,1.2,1.9
		c0.8,0.7,2.2,1,4.1,1c1.8,0,3.3-0.3,4.6-0.9c1.5-0.7,2.7-1.7,3.5-3c0.5-0.9,0.8-1.7,0.8-2.2c0-1.2-0.7-2.2-2.2-3
		c-1.2-0.7-2.5-1.1-3.8-1.1c-0.3,0-1.2,0.3-2.8,0.9c-1.5,0.6-2.7,0.8-3.6,0.8c-0.4,0-0.9-0.1-1.3-0.3c-0.5-0.2-0.8-0.5-0.8-1
		c0-0.6,0.3-1.2,0.9-1.7c0.6-0.5,1.6-0.8,2.9-0.9c1.8-0.1,2.9-0.3,3.2-0.4c0.7-0.3,1.7-1.1,2.8-2.3c1-1.2,1.5-2.3,1.5-3.4
		c0-1.4-0.7-2.1-2.1-2.1c-0.8,0-2,0.3-3.4,0.9c-1.5,0.7-2.4,1.2-2.8,1.8v0.1l0,0.2c0,0,0,0,0.1,0.1c0,0,0,0.1,0,0.1s0,0.1,0.1,0.2
		c-0.2,0.6-0.8,1.2-1.6,1.8c-0.9,0.7-1.6,1-2.1,1c-0.4,0-0.9-0.2-1.3-0.5s-0.6-0.7-0.6-1c0-0.6,0.3-1.3,1-2.1
		c1.1-1.5,2.7-2.7,4.8-3.8c2.1-1.1,4.1-1.7,5.8-1.7c1.6,0,2.9,0.4,3.9,1.2c1.2,0.9,1.7,2.1,1.7,3.6c0,1-0.3,2.2-1,3.4
		c-0.7,1.1-1.4,2-2.3,2.8C1052.3,67.1,1054.5,69.1,1054.5,72.3z M1074.1,71.9c0-1.6-0.5-2.8-1.4-3.7c-0.9-0.9-2.2-1.3-3.8-1.3
		c-1.4,0-2.7,0.4-4,1.3c-1.3,0.9-2.3,2-2.9,3.2c-0.1,0.2-0.3,0.7-0.6,1.7c0.2,1.8,0.7,3.2,1.6,4.3c1,1.3,2.4,1.9,4.1,1.9
		c2,0,3.7-0.7,5-2.2C1073.5,75.6,1074.1,73.9,1074.1,71.9z M1077.5,72.4c0,2.8-1,5.1-3,6.9c-2,1.9-4.4,2.8-7.2,2.8
		c-2.9,0-5.2-1-7-2.9c-1.7-1.9-2.5-4.3-2.5-7.2c0-2.7,0.8-5.4,2.3-8.2c1.5-2.6,3.3-4.7,5.7-6.4c1.9-1.4,3.3-2,4.2-2
		c0.5,0,1.1,0.2,1.7,0.7s0.9,1,0.9,1.5c0,0.4-0.1,0.8-0.4,1.1s-0.6,0.5-1,0.5c-0.4,0-0.8-0.2-1-0.6c-1.2,0.2-2.8,1.2-4.7,3.2
		c-1.9,2-2.8,3.6-2.8,4.9v0.3c2.2-1.9,4.3-2.8,6.2-2.8c2.5,0,4.6,0.7,6.2,2.2C1076.7,67.8,1077.5,69.8,1077.5,72.4z M1098.2,67.5
		c0-2.4-0.5-4.3-1.4-5.9c-1.1-1.9-2.8-2.9-5-2.9c-0.7,0-1.4,0.2-2.2,0.7c-1.7,1-3.1,2.5-4,4.6c-0.9,2-1.3,4-1.3,6.1
		c0,2.3,0.6,4.2,1.7,5.6c1.3,1.6,3,2.4,5.3,2.4c2.4,0,4.2-1.2,5.5-3.7C1097.7,72.4,1098.2,70.1,1098.2,67.5z M1101.5,67.7
		c0,3.5-0.9,6.5-2.7,9.2c-2.1,3-4.7,4.5-8,4.5c-3.1,0-5.6-1.1-7.5-3.4c-1.8-2.1-2.6-4.8-2.6-8c0-2.8,0.8-5.5,2.3-8.2
		c1.7-3,3.8-4.8,6.4-5.5c0.8-0.3,1.9-0.4,3.1-0.4c2.7,0,5,1.3,6.7,4C1100.8,62.3,1101.5,64.9,1101.5,67.7z M1123.9,67.6
		c0,1.6-0.8,2.4-2.5,2.4h-5.8v4.4c0,0.5,0.1,1.2,0.4,2.2c-0.4,0.6-0.8,0.8-1.2,0.8c-1.7,0-2.6-0.8-2.6-2.3V70h-7.2
		c-0.4-0.7-0.6-1.2-0.6-1.6c0-0.5,0.2-0.9,0.5-1.3c0.4-0.4,0.8-0.6,1.2-0.6c0.5,0,1.2,0,2,0.2c0.8,0.1,1.4,0.1,2,0.1h2.1V60
		c0.7-0.4,1.3-0.5,1.7-0.5s0.9,0.2,1.5,0.5c0.6,0.4,0.9,0.7,0.9,1c0,0.4-0.1,1-0.3,1.9c-0.2,0.9-0.3,1.5-0.3,1.8v2.1h5
		c0.6,0,1.4-0.1,2.4-0.4C1123.6,66.8,1123.9,67.2,1123.9,67.6z"/>
	<polygon class="st2" points="711,0 933,0 973,50 933,100 711,100 751,50 	"/>
	<path class="st1" d="M834.2,17.9c0,0.2-0.2,0.5-0.5,0.8c-0.3,0.3-0.5,0.5-0.6,0.6c-0.7,1.3-1,3.7-0.9,7.2l0,1.5c0,0,0.1,0,0.3,0
		c0.4,0,0.7,0.2,1.1,0.6c0.3,0.4,0.5,0.8,0.5,1.2c0,0.3-0.2,0.5-0.7,0.6l-1.1,0.2l0.1,3.6c0,1.5,0.2,2.6,0.5,3.4
		c0.2,0.7,0.3,1.1,0.3,1.2c0,0.5-0.2,1-0.6,1.4s-0.8,0.6-1.3,0.6c-1,0-1.6-0.5-1.9-1.5l-0.3-2.6c0-0.4-0.1-1-0.1-2v-1.5
		c0-1-0.1-1.8-0.2-2.5c-1.4,0-3.1,0.2-5.2,0.6l-5.1,1c0.1,0.3,0.1,1.6,0.1,4c0,1.9,0.3,3.1,0.9,3.8c0.1,0.1,0.1,0.2,0.1,0.4
		c0,0.7-0.5,1-1.5,1c-0.9,0-1.7-0.3-2.2-0.9c-0.3-0.3-0.6-2.9-0.9-7.8c-0.4-0.1-0.8-0.4-1.1-0.8c-0.3-0.5-0.4-1-0.4-1.5
		c0-0.1,0-0.1,0-0.2c0-0.1,0.1-0.1,0.1-0.2l0.2-0.2c0.1,0,0.1-0.1,0.3-0.1c0.1,0,0.2-0.1,0.3-0.1s0.2,0,0.3-0.1s0.2-0.1,0.3-0.1
		l0.2-1.8c0.1-0.7,0.1-1.3,0.1-1.7c0-4.4,0.2-7.2,0.7-8.4c0.4-1,1.1-1.5,2.1-1.5c0.6,0,1.2,0.2,1.7,0.6c0.5,0.4,0.8,0.9,0.8,1.4
		c0,0.3-0.1,0.6-0.3,1.1l-0.5,1c-0.7,2.1-1,4.6-1,7.5v0.9c1-0.2,1.6-0.3,1.8-0.3c3-0.6,5.7-0.9,8.3-0.9c0.1-3.5,0.2-5.9,0.3-7.1
		c0.4-3.6,1.3-5.4,2.6-5.4c0.8,0,1.4,0.3,1.9,0.9S834.2,17.1,834.2,17.9z M841.1,26.6c0,0.4-0.1,1-0.3,1.9c-0.2,0.9-0.3,1.5-0.3,1.9
		v7.7c0,0.5,0.1,1.2,0.4,2.2c-0.4,0.6-0.8,0.9-1.2,0.9c-1.6,0-2.4-0.8-2.6-2.4c-0.2-2.8-0.4-5-0.4-6.6c0-2.4,0.1-4.4,0.3-6.2
		c0-0.1,0-0.2,0-0.4c0-0.5,0.3-0.7,1-0.7c0.5,0,1.2,0.1,1.9,0.4C840.7,25.7,841.1,26.1,841.1,26.6z M841.5,21.3c0,0.6-0.2,1-0.6,1.4
		c-0.4,0.4-0.8,0.5-1.4,0.5c-0.7,0-1.3-0.2-1.8-0.7c-0.5-0.5-0.8-1-0.8-1.7c0-0.6,0.2-1,0.6-1.3c0.4-0.4,0.9-0.5,1.4-0.5
		c0.7,0,1.3,0.2,1.8,0.7S841.5,20.7,841.5,21.3z M852.4,32.1c0-0.4-0.2-0.7-0.5-0.9c-0.2-2.3-1-3.4-2.4-3.4c-0.8,0-1.5,1.2-2.1,3.5
		c-0.4,1.7-0.6,3.2-0.6,4.6c0,2.5,0.6,3.7,1.9,3.7c1.2,0,2.1-1,2.9-2.9C852.1,35.1,852.4,33.6,852.4,32.1z M856.2,29.9
		c0,0.4-0.2,1.5-0.5,3.3c-0.2,1.3-0.4,2.4-0.4,3.3c0,0.8,0,1.9,0.1,3.4s0.1,2.6,0.1,3.4c0,1.6-0.1,2.7-0.5,3.4c-0.3,0.9-1,1.7-2,2.3
		c-1,0.6-2,0.9-3.1,0.9c-1.1,0-2.5-0.3-4.1-0.9c-2-0.7-2.9-1.5-2.9-2.3c0-1.1,0.5-1.7,1.5-1.7c0.5,0,0.8,0.1,1,0.4
		c0.4,0.6,0.6,0.9,0.6,0.9c0.1,0.1,0.5,0.2,1.2,0.3c0.7,0.2,1.2,0.2,1.5,0.2c2.3,0,3.4-1.4,3.4-4.2c0-0.8,0-1.5-0.1-2.1
		c-1.1,0.9-2.4,1.4-3.9,1.4c-0.6,0-1.3-0.2-2.1-0.5c-0.8-0.4-1.4-0.8-1.8-1.2c-0.8-0.9-1.2-2.2-1.2-4c0-2.1,0.5-4.5,1.5-7
		c1.2-3.1,2.7-4.7,4.4-4.7c1,0,2,0.5,3,1.5l2.1,2.7c0.2,0.3,0.5,0.5,0.9,0.7C855.7,29.6,856,29.7,856.2,29.9z M870.4,33.2v8.4
		c-0.5,0.5-1.1,0.7-1.9,0.7c-0.5,0-1-0.3-1.6-1c0-1.5,0-3.2,0-5.1c0-5.6-0.8-8.3-2.4-8.3c-1.7,0-2.5,2.2-2.5,6.7c0,0.1,0,0.2,0,0.5
		s0,0.4,0,0.6v1.1c0,0.3,0.1,0.8,0.2,1.7c0.1,0.8,0.2,1.4,0.2,1.7c0,0.3-0.2,0.6-0.6,0.9s-0.7,0.4-1.1,0.4c-0.6,0-1.1-0.3-1.6-0.8
		s-0.7-1.1-0.7-1.7l0.2-21.7c0,0,0-0.1,0-0.3c0-0.2,0-0.2,0-0.3c0-0.9,0.5-1.3,1.5-1.3c0.5,0,1,0.2,1.7,0.7c0.6,0.4,0.9,0.8,0.9,1.3
		c0,0.6-0.1,1.4-0.4,2.4c-0.2,1.1-0.3,1.9-0.3,2.4c0,0.2,0,1.3,0.1,3.3c0.5-0.3,1-0.5,1.4-0.5c1,0,2.1,0.2,3.2,0.7
		c1.5,0.7,2.5,1.7,3.1,3C870.2,30,870.4,31.4,870.4,33.2z M787.5,78.6c0,0.4-0.1,0.7-0.4,1.1s-0.5,0.5-0.9,0.5
		c-0.3,0-0.7-0.1-1.4-0.2c-0.6-0.1-1.1-0.2-1.4-0.2c-3.9,0-7.9,0.6-11.8,1.8c-0.8,0.2-1.3,0.3-1.5,0.3c-0.6,0-1.1-0.2-1.6-0.6
		c-0.4-0.4-0.6-0.8-0.6-1.4c0-0.7,0.3-1.3,0.9-1.9c0.1-0.2,0.7-0.6,1.7-1.4c2.6-2.1,4.9-4.3,6.8-6.7c2.6-3.2,3.9-6,3.9-8.4
		c0-0.9-0.3-1.6-1-2.2c-0.7-0.6-1.5-0.9-2.4-0.9c-1,0-2.2,0.4-3.4,1.2c-1.2,0.9-2,1.7-2.2,2.7c-0.1,0.3-0.3,1.2-0.5,2.5
		c-0.3,1.1-0.8,1.7-1.6,1.7c-0.3,0-0.8-0.2-1.4-0.6c-0.5-0.4-0.8-0.8-0.8-1.2c0-1.5,0.7-3,2.1-4.7c1.2-1.6,2.6-2.7,4-3.4
		c1.3-0.6,2.6-0.9,4-0.9c1.7,0,3.3,0.6,4.7,1.9c1.4,1.2,2.1,2.7,2.1,4.5c0,2.7-1.3,5.5-4,8.4c-1,1.1-3.4,3.3-7.1,6.7
		c-0.5,0.4-0.8,0.7-1,0.9l12.3-1.8c0.1,0,0.2,0,0.4,0c0.5,0,1,0.2,1.4,0.7C787.3,77.5,787.5,78,787.5,78.6z M806.7,71.9
		c0-1.6-0.5-2.8-1.4-3.7c-0.9-0.9-2.2-1.3-3.8-1.3c-1.3,0-2.7,0.4-4,1.3c-1.3,0.9-2.3,2-2.9,3.2c0,0.2-0.3,0.7-0.6,1.7
		c0.2,1.8,0.7,3.2,1.6,4.3c1,1.3,2.4,1.9,4,1.9c2,0,3.7-0.7,5-2.2C806,75.6,806.7,73.9,806.7,71.9z M810,72.4c0,2.8-1,5.1-3,6.9
		c-2,1.9-4.4,2.8-7.2,2.8c-2.9,0-5.2-1-7-2.9c-1.7-1.9-2.5-4.3-2.5-7.2c0-2.7,0.8-5.4,2.3-8.2c1.5-2.6,3.3-4.7,5.7-6.4
		c1.9-1.4,3.3-2,4.2-2c0.5,0,1,0.2,1.7,0.7c0.6,0.5,0.9,1,0.9,1.5c0,0.4-0.1,0.8-0.4,1.1s-0.6,0.5-1,0.5c-0.5,0-0.8-0.2-1-0.6
		c-1.2,0.2-2.8,1.2-4.7,3.2c-1.9,2-2.8,3.6-2.8,4.9v0.3c2.2-1.9,4.3-2.8,6.2-2.8c2.5,0,4.6,0.7,6.2,2.2
		C809.2,67.8,810,69.8,810,72.4z M830.8,67.5c0-2.4-0.5-4.3-1.4-5.9c-1.1-1.9-2.8-2.9-5-2.9c-0.7,0-1.5,0.2-2.2,0.7
		c-1.7,1-3.1,2.5-4.1,4.6c-0.9,2-1.3,4-1.3,6.1c0,2.3,0.6,4.2,1.7,5.6c1.3,1.6,3,2.4,5.3,2.4c2.4,0,4.2-1.2,5.5-3.7
		C830.2,72.4,830.8,70.1,830.8,67.5z M834.1,67.7c0,3.5-0.9,6.5-2.7,9.2c-2.1,3-4.7,4.5-8,4.5c-3.1,0-5.6-1.1-7.5-3.4
		c-1.8-2.1-2.6-4.8-2.6-8c0-2.8,0.8-5.5,2.3-8.2c1.7-3,3.9-4.8,6.4-5.5c0.9-0.3,1.9-0.4,3.1-0.4c2.7,0,5,1.3,6.7,4
		C833.3,62.3,834.1,64.9,834.1,67.7z M847.1,70.5c-0.2,0.1-0.2,0.1-0.2,0.3c0,0.1,0,0.2,0.1,0.3s0.1,0.2,0.1,0.3
		c0,0.3-0.4,0.4-1.3,0.4c-0.1,0-0.4,0-0.7-0.1c-0.3-0.1-0.6-0.1-0.7-0.1c-0.7,0-1.4,0-2,0s-1.2,0-2,0c-2.3,0-3.5-0.4-3.5-1.3
		c0-0.7,0.3-1.1,1-1.1c0.1,0,0.4,0,0.9,0.1c0.5,0.1,0.8,0.2,0.9,0.2c0.2,0,1,0,2.4-0.1c1.5-0.1,2.2-0.1,2.4-0.1
		C846,69.4,846.9,69.8,847.1,70.5z M870.8,72.3c0,1.7-0.5,3.1-1.6,4.4c-2.4,3-5.7,4.5-9.9,4.5c-1.9,0-3.6-0.2-5.1-0.6
		c-1-0.2-2-0.8-3-1.6c-1.2-1-1.8-1.9-1.8-2.7c0-0.4,0.2-0.8,0.6-1.1s0.8-0.5,1.2-0.5c0.7,0,1.3,0.3,1.6,1c0.5,1.1,0.9,1.7,1.2,1.9
		c0.8,0.7,2.2,1,4.1,1c1.8,0,3.3-0.3,4.6-0.9c1.5-0.7,2.7-1.7,3.5-3c0.5-0.9,0.8-1.7,0.8-2.2c0-1.2-0.7-2.2-2.2-3
		c-1.2-0.7-2.5-1.1-3.8-1.1c-0.3,0-1.2,0.3-2.8,0.9c-1.5,0.6-2.7,0.8-3.6,0.8c-0.4,0-0.9-0.1-1.3-0.3c-0.5-0.2-0.8-0.5-0.8-1
		c0-0.6,0.3-1.2,0.9-1.7c0.6-0.5,1.6-0.8,2.9-0.9c1.8-0.1,2.9-0.3,3.2-0.4c0.7-0.3,1.7-1.1,2.8-2.3c1-1.2,1.5-2.3,1.5-3.4
		c0-1.4-0.7-2.1-2.1-2.1c-0.8,0-2,0.3-3.4,0.9c-1.5,0.7-2.4,1.2-2.8,1.8v0.1l0,0.2c0,0,0,0,0.1,0.1c0,0,0,0.1,0,0.1s0,0.1,0.1,0.2
		c-0.2,0.6-0.8,1.2-1.6,1.8c-0.9,0.7-1.6,1-2.1,1c-0.5,0-0.9-0.2-1.3-0.5s-0.6-0.7-0.6-1c0-0.6,0.3-1.3,1-2.1
		c1.1-1.5,2.7-2.7,4.8-3.8c2.1-1.1,4.1-1.7,5.8-1.7c1.6,0,2.9,0.4,3.9,1.2c1.2,0.9,1.7,2.1,1.7,3.6c0,1-0.3,2.2-1,3.4
		c-0.7,1.1-1.4,2-2.3,2.8C868.7,67.1,870.8,69.1,870.8,72.3z M894,72.3c0,2.7-1.1,5-3.4,6.9c-2.2,1.7-4.7,2.6-7.5,2.6
		c-1.2,0-2.3-0.1-3.2-0.3c-1-0.2-2.1-0.6-3.4-1.4c-1.6-0.9-2.4-1.6-2.4-2.3c0-1,0.6-1.5,2-1.5c0.8,0,1.8,0.5,3,1.4
		c1.3,0.9,2.4,1.4,3.3,1.4c2.1,0,3.9-0.5,5.4-1.6c1.7-1.2,2.5-2.8,2.5-4.8c0-1.4-0.5-2.4-1.5-3.2c-0.9-0.7-2.1-1.1-3.5-1.1
		c-0.7,0-1.7,0.1-2.8,0.4c-1.3,0.3-2.1,0.7-2.6,1.1c-0.8,0.7-1.3,1-1.7,1c-0.4,0-1.1-0.2-2-0.8c0-0.2,0.1-0.6,0.2-1.2
		c0.2-0.6,0.2-1.1,0.2-1.3v-1.9c0-0.3,0-0.7,0-1.1c0-0.4,0-0.7,0-0.8c0-3.2,0.4-5.8,1.3-7.7c0.4-0.2,0.8-0.3,1.3-0.3
		c0.7,0,1.2,0.2,1.6,0.7c0.1,0,0.8-0.1,2-0.2c2.3-0.3,4.1-0.5,5.5-0.5c0.7,0,1.3,0.2,2,0.5c0.8,0.4,1.1,0.9,1.1,1.5
		c0,0.5-0.3,1.1-0.8,2.1h-0.8c-0.2,0-0.5,0-0.8-0.1l-0.7-0.3c-0.3-0.1-0.8-0.2-1.7-0.2c-0.6,0-1.7,0.1-3.2,0.2
		c-1.8,0.1-2.8,0.2-2.9,0.5c-0.4,0.4-0.6,2-0.6,5c0,0.8,0,1.3,0,1.6c1.9-0.9,3.9-1.3,5.9-1.3c2.3,0,4.2,0.6,5.7,1.7
		C893.2,68.3,894,70,894,72.3z M911.4,65.4c0-1.8-0.4-3.4-1.2-4.8c-1-1.7-2.2-2.6-3.9-2.6c-1.7,0-3.1,0.9-4.3,2.7
		c-1,1.6-1.5,3.2-1.5,5c0,1.4,0.4,2.5,1.2,3.4s1.9,1.3,3.2,1.3c0.7,0,1.8-0.5,3.4-1.4c1.6-1,2.5-1.7,2.8-2.4
		C911.3,66.2,911.4,65.8,911.4,65.4z M914.8,65.2c0,3.4-0.8,6.5-2.5,9.3c-0.8,1.4-1.8,2.7-3.1,4.1c-1.7,1.8-3.1,2.7-4.1,2.7
		c-0.5,0-1.2-0.2-1.9-0.7c-0.9-0.5-1.3-1-1.3-1.5c0-0.4,0.1-0.7,0.4-1c0.3-0.3,0.6-0.4,1-0.4s0.8,0.2,1.2,0.5c0.8,0,1.9-1,3.2-2.8
		c0.9-1.2,1.6-2.5,2.3-4c-1.8,1.1-3.5,1.6-5.1,1.6c-2.4,0-4.2-0.7-5.6-2.1c-1.4-1.5-2.1-3.3-2.1-5.6c0-2.9,0.8-5.3,2.4-7.1
		c1.7-2,3.9-3,6.7-3c2.7,0,4.8,1,6.3,3C914.1,60.2,914.8,62.5,914.8,65.2z"/>
	<polygon class="st3" points="474,0 696,0 736,50 696,100 474,100 514,50 	"/>
	<path class="st1" d="M580.7,16.7c0,0.4-0.1,0.6-0.3,0.9l-0.6,0.7c-0.1,0.3-0.3,0.9-0.4,2c-0.6,5-0.9,10-0.9,15.1
		c0,2.8,0.5,4.4,1.5,4.7v1c-0.3,0.6-0.8,0.9-1.4,0.9c-1.3,0-2.2-1.1-2.9-3.3c-0.5-1.5-0.7-3.2-0.7-5c0-3.6,0.1-6.8,0.3-9.4l-2.3,8.8
		c-0.6,2.2-1.2,3.9-2,5.1c-0.7,1.2-1.4,1.7-2.1,1.7c-1.5,0-2.8-1.3-3.9-4c-1-2.4-2.3-6.5-3.9-12.2c-0.1,1.7-0.2,3.4-0.2,5.2
		c0,3.6,0.1,6.2,0.3,8c0,0.4,0.2,0.9,0.4,1.5c0.3,0.7,0.4,1.2,0.4,1.5c0,0.8-0.7,1.2-2.1,1.2c-1.6,0-2.4-2.2-2.4-6.6
		c0-1.6,0.1-4.2,0.3-7.9s0.3-6.4,0.3-7.9c0-0.1-0.1-0.3-0.3-0.6c-0.2-0.3-0.3-0.5-0.3-0.6c0-1.4,1.2-2.1,3.8-2.1
		c0.6,0,1.3,0.4,2.1,1.1c0.1,1.3,0.2,2.4,0.4,3.5c0.3,2.4,0.9,5.3,1.8,8.7c1.2,4.7,2.3,7,3.2,7c0.2,0,0.5-0.4,0.8-1.2
		c0.7-1.6,1.3-3.7,1.8-6.3l1.3-6.5c0.5-2.3,0.9-3.7,1.1-4.4c0.4-1.4,1.5-2.1,3.3-2.1c0.5,0,1.3,0.1,2.2,0.4
		C580.2,15.9,580.7,16.3,580.7,16.7z M591.7,30.6c0-0.7-0.2-1.2-0.6-1.8s-0.8-0.8-1.4-0.8c-0.8,0-1.5,0.4-1.9,1.1
		c-0.4,0.7-0.6,1.4-0.6,2.2c0,0.5,0.2,0.9,0.5,1.2c0.3,0.3,0.7,0.5,1.2,0.5C590.8,32.9,591.7,32.1,591.7,30.6z M595.8,37.7
		c0,1.2-0.9,2.2-2.6,2.9c-1.3,0.6-2.7,0.8-4.2,0.8c-3.9,0-5.8-2.2-5.8-6.6c0-1.8,0.4-3.7,1.3-6c1.1-2.7,2.4-4.1,3.9-4.1
		c1.4,0,2.9,0.6,4.4,1.8c1.6,1.2,2.4,2.5,2.4,3.8c0,1.7-0.7,3-2.2,3.9c-1.3,0.9-2.9,1.3-4.6,1.3c-0.3,0-0.9-0.2-1.7-0.6
		c0.1,2.4,0.8,3.6,2.1,3.6c1.1,0,2.2-0.3,3.2-0.9c1.1-0.6,1.8-0.9,2.1-0.9C595.2,36.8,595.8,37.1,595.8,37.7z M606.6,30.9
		c0-0.8-0.2-1.6-0.6-2.3c-0.5-0.9-1.1-1.3-1.9-1.3c-1.1,0-2,1.1-2.6,3.3c-0.5,1.6-0.7,3.2-0.7,4.7c0,2.3,0.7,3.5,2,3.5
		c1.4,0,2.4-1,3-3.1C606.4,34.3,606.6,32.7,606.6,30.9z M610.9,18.2c0,0.6-0.1,1.3-0.2,2.1c0,0.4-0.1,0.7-0.2,1l-0.2,0.8
		c0,0.2-0.1,0.3-0.1,0.4c0,0.5-0.2,2.8-0.4,6.9c-0.2,3.8-0.2,5.9-0.2,6.3c0,2.4,0.3,4.2,0.8,5.4c-0.4,0.7-0.9,1-1.5,1
		s-1.1-0.2-1.5-0.6c-0.5-0.4-0.7-0.9-0.8-1.5c-1.2,1.1-2.4,1.6-3.6,1.6c-1.8,0-3.2-0.6-4.2-1.9c-0.9-1.2-1.4-2.7-1.4-4.5
		c0-2.2,0.5-4.4,1.4-6.7c1.1-2.9,2.6-4.3,4.5-4.3c1.1,0,2.2,0.5,3.4,1.5c0.1-1.3,0.2-4.3,0.2-9c0-0.5,0.3-0.7,1-0.7
		c0.8,0,1.6,0.2,2.1,0.6S610.9,17.4,610.9,18.2z M617.1,26.6c0,0.4-0.1,1-0.3,1.9c-0.2,0.9-0.3,1.5-0.3,1.9v7.7
		c0,0.5,0.1,1.2,0.4,2.2c-0.4,0.6-0.8,0.9-1.2,0.9c-1.6,0-2.4-0.8-2.6-2.4c-0.2-2.8-0.4-5-0.4-6.6c0-2.4,0.1-4.4,0.3-6.2
		c0-0.1,0-0.2,0-0.4c0-0.5,0.3-0.7,1-0.7c0.5,0,1.2,0.1,1.9,0.4C616.7,25.7,617.1,26.1,617.1,26.6z M617.4,21.3c0,0.6-0.2,1-0.6,1.4
		c-0.4,0.4-0.8,0.5-1.4,0.5c-0.7,0-1.3-0.2-1.8-0.7c-0.5-0.5-0.8-1-0.8-1.7c0-0.6,0.2-1,0.6-1.3c0.4-0.4,0.9-0.5,1.4-0.5
		c0.7,0,1.3,0.2,1.8,0.7S617.4,20.7,617.4,21.3z M630.8,27.6c0,0.7-0.1,1.8-0.3,3.5c-0.2,1.4-0.3,2.6-0.3,3.5c0,0.3,0,1.3,0.1,3.2
		c0.1,1.4,0.1,2.4,0.1,3.1c0,0.6-0.5,0.9-1.5,0.9c-1,0-1.7-0.5-1.9-1.5c-0.9,0.6-1.9,0.9-2.8,0.9c-0.7,0-1.5-0.2-2.5-0.6
		c-1-0.4-1.6-0.9-2-1.4c-0.7-1.1-1.1-2.8-1.1-5.1c0-1.5,0-2.9,0.1-4.2c0-2.6,0.1-4,0.1-4.2c0.7-0.6,1.3-0.8,1.9-0.8
		c1.2,0,1.8,0.6,1.8,1.8c0,0.3-0.1,0.9-0.2,1.8c-0.1,0.7-0.2,1.3-0.2,1.8v5.3c0,0.6,0.2,1.2,0.5,1.9c0.4,0.8,0.9,1.1,1.4,1.1
		c1.1,0,1.9-0.7,2.4-2.1c0.4-1,0.5-2.1,0.5-3.5v-4.5c0-0.6-0.2-1.3-0.5-2.1c0.7-0.6,1.2-0.9,1.8-0.9c0.6,0,1.2,0.2,1.7,0.6
		S630.8,27,630.8,27.6z M651.7,34.2v6.7c-0.9,0.5-1.5,0.8-2,0.8c-0.3,0-0.8-0.2-1.5-0.5c0-0.7,0-1.4,0-2.1c0-0.6,0-1.3,0-2.1
		c0-6.7-0.6-10-1.7-10c-0.8,0-1.5,1-2,3c-0.4,1.5-0.6,2.8-0.6,4.1v3.4c0,0.1,0.1,0.4,0.2,0.8c0.1,0.4,0.2,0.6,0.2,0.8
		c0,0.4-0.2,0.7-0.6,1c-0.4,0.3-0.8,0.5-1.3,0.5c-0.4,0-0.8-0.2-1.3-0.6c-0.4-0.4-0.6-0.8-0.6-1.2v-7c0-2.8-0.3-4.2-0.9-4.2
		c-0.1,0-0.3,0.2-0.6,0.7c-1.8,2.4-2.7,5-2.7,7.7c0,0.5,0,1.1,0.1,1.8c0.1,0.7,0.2,1.2,0.2,1.7c0,0.5-0.2,0.9-0.5,1.2
		c-0.3,0.3-0.7,0.5-1.2,0.5c-0.6,0-1.1-0.2-1.4-0.6c-0.1-0.2-0.3-0.8-0.5-1.8c-0.1-1-0.2-1.6-0.2-1.9v-8.2c0-0.6,0.2-1.4,0.5-2.4
		c0.4-1.2,0.8-1.8,1.2-1.8c0.5,0,1,0.2,1.4,0.6c0.4,0.4,0.6,0.8,0.5,1.3c0.7-1.2,1.7-1.8,2.8-1.8c1.4,0,2.6,0.9,3.5,2.9
		c0.5-1.2,0.9-1.9,1.3-2.3c0.7-0.7,1.4-1.1,2.3-1.1c0.9,0,1.9,0.5,2.8,1.5C650.8,27.3,651.7,30.2,651.7,34.2z M544.7,57.8
		c0,0.3-0.2,1.1-0.5,2.5c-0.8,3.5-1.1,6.3-1.1,8.2v7.4c0,1.9,0.1,3,0.3,3.3c0.4,0.7,0.6,1,0.6,1.2c0,0.4-0.1,0.7-0.4,0.9
		c-0.3,0.3-0.6,0.4-1,0.4c-0.5,0-1.2-0.2-2.1-0.6c-0.3-0.7-0.4-1.2-0.4-1.7V63.8l-0.6-0.5v-1.2c0-1.2,0.3-2.4,0.8-3.9
		c0.7-1.8,1.4-2.7,2.2-2.7c0.5,0,0.9,0.3,1.4,0.8C544.5,56.8,544.7,57.3,544.7,57.8z M564.3,71.9c0-1.6-0.5-2.8-1.4-3.7
		c-0.9-0.9-2.2-1.3-3.8-1.3c-1.4,0-2.7,0.4-4,1.3c-1.3,0.9-2.3,2-2.9,3.2c0,0.2-0.3,0.7-0.6,1.7c0.2,1.8,0.7,3.2,1.6,4.3
		c1,1.3,2.4,1.9,4,1.9c2,0,3.7-0.7,5-2.2C563.6,75.6,564.3,73.9,564.3,71.9z M567.7,72.4c0,2.8-1,5.1-3,6.9c-2,1.9-4.4,2.8-7.2,2.8
		c-2.9,0-5.2-1-7-2.9c-1.7-1.9-2.5-4.3-2.5-7.2c0-2.7,0.8-5.4,2.3-8.2c1.5-2.6,3.3-4.7,5.7-6.4c1.9-1.4,3.3-2,4.2-2
		c0.5,0,1,0.2,1.6,0.7c0.6,0.5,0.9,1,0.9,1.5c0,0.4-0.1,0.8-0.4,1.1c-0.3,0.3-0.6,0.5-1,0.5c-0.4,0-0.8-0.2-1-0.6
		c-1.2,0.2-2.8,1.2-4.7,3.2c-1.9,2-2.8,3.6-2.8,4.9v0.3c2.2-1.9,4.3-2.8,6.2-2.8c2.5,0,4.6,0.7,6.2,2.2
		C566.9,67.8,567.7,69.8,567.7,72.4z M588.3,67.5c0-2.4-0.5-4.3-1.4-5.9c-1.1-1.9-2.8-2.9-5-2.9c-0.7,0-1.5,0.2-2.2,0.7
		c-1.7,1-3.1,2.5-4,4.6c-0.9,2-1.3,4-1.3,6.1c0,2.3,0.6,4.2,1.7,5.6c1.3,1.6,3,2.4,5.3,2.4c2.4,0,4.2-1.2,5.5-3.7
		C587.8,72.4,588.3,70.1,588.3,67.5z M591.7,67.7c0,3.5-0.9,6.5-2.7,9.2c-2,3-4.7,4.5-8,4.5c-3.1,0-5.6-1.1-7.5-3.4
		c-1.8-2.1-2.6-4.8-2.6-8c0-2.8,0.8-5.5,2.3-8.2c1.7-3,3.8-4.8,6.4-5.5c0.8-0.3,1.9-0.4,3.1-0.4c2.7,0,5,1.3,6.7,4
		C590.9,62.3,591.7,64.9,591.7,67.7z M604.7,70.5c-0.1,0.1-0.2,0.1-0.2,0.3c0,0.1,0,0.2,0.1,0.3s0.1,0.2,0.1,0.3
		c0,0.3-0.4,0.4-1.3,0.4c-0.1,0-0.4,0-0.7-0.1c-0.4-0.1-0.6-0.1-0.7-0.1c-0.7,0-1.4,0-2,0c-0.6,0-1.2,0-1.9,0
		c-2.3,0-3.5-0.4-3.5-1.3c0-0.7,0.3-1.1,1-1.1c0.1,0,0.4,0,0.9,0.1c0.5,0.1,0.8,0.2,0.9,0.2c0.2,0,1,0,2.4-0.1
		c1.5-0.1,2.2-0.1,2.4-0.1C603.6,69.4,604.5,69.8,604.7,70.5z M626.6,78.6c0,0.4-0.1,0.7-0.4,1.1s-0.5,0.5-0.9,0.5
		c-0.3,0-0.7-0.1-1.4-0.2c-0.6-0.1-1.1-0.2-1.4-0.2c-3.9,0-7.9,0.6-11.8,1.8c-0.8,0.2-1.3,0.3-1.5,0.3c-0.6,0-1.2-0.2-1.6-0.6
		c-0.4-0.4-0.6-0.8-0.6-1.4c0-0.7,0.3-1.3,0.9-1.9c0.2-0.2,0.7-0.6,1.7-1.4c2.7-2.1,4.9-4.3,6.8-6.7c2.6-3.2,3.9-6,3.9-8.4
		c0-0.9-0.3-1.6-1-2.2s-1.5-0.9-2.4-0.9c-1,0-2.1,0.4-3.4,1.2c-1.2,0.9-2,1.7-2.2,2.7c-0.1,0.3-0.3,1.2-0.5,2.5
		c-0.3,1.1-0.8,1.7-1.6,1.7c-0.3,0-0.8-0.2-1.4-0.6c-0.5-0.4-0.8-0.8-0.8-1.2c0-1.5,0.7-3,2.1-4.7c1.2-1.6,2.6-2.7,4-3.4
		c1.3-0.6,2.6-0.9,4.1-0.9c1.7,0,3.3,0.6,4.6,1.9c1.4,1.2,2.1,2.7,2.1,4.5c0,2.7-1.3,5.5-4,8.4c-1,1.1-3.4,3.3-7.1,6.7
		c-0.5,0.4-0.8,0.7-1,0.9l12.3-1.8c0.1,0,0.2,0,0.4,0c0.6,0,1,0.2,1.4,0.7C626.5,77.5,626.6,78,626.6,78.6z M649.3,72.3
		c0,2.7-1.2,5-3.5,6.9c-2.2,1.7-4.7,2.6-7.5,2.6c-1.2,0-2.3-0.1-3.2-0.3c-0.9-0.2-2.1-0.6-3.4-1.4c-1.6-0.9-2.4-1.6-2.4-2.3
		c0-1,0.7-1.5,2-1.5c0.8,0,1.8,0.5,3,1.4c1.3,0.9,2.4,1.4,3.3,1.4c2.1,0,3.9-0.5,5.4-1.6c1.7-1.2,2.5-2.8,2.5-4.8
		c0-1.4-0.5-2.4-1.5-3.2c-0.9-0.7-2.1-1.1-3.5-1.1c-0.7,0-1.7,0.1-2.8,0.4c-1.3,0.3-2.1,0.7-2.6,1.1c-0.8,0.7-1.3,1-1.7,1
		c-0.4,0-1.1-0.2-2-0.8c0-0.2,0.1-0.6,0.2-1.2c0.2-0.6,0.2-1.1,0.2-1.3v-1.9c0-0.3,0-0.7,0-1.1c0-0.4,0-0.7,0-0.8
		c0-3.2,0.4-5.8,1.3-7.7c0.4-0.2,0.8-0.3,1.3-0.3c0.7,0,1.2,0.2,1.6,0.7c0.1,0,0.8-0.1,2-0.2c2.3-0.3,4.1-0.5,5.5-0.5
		c0.7,0,1.3,0.2,2,0.5c0.8,0.4,1.1,0.9,1.1,1.5c0,0.5-0.3,1.1-0.8,2.1h-0.8c-0.2,0-0.5,0-0.8-0.1l-0.7-0.3c-0.3-0.1-0.8-0.2-1.7-0.2
		c-0.6,0-1.7,0.1-3.2,0.2c-1.8,0.1-2.8,0.2-2.9,0.5c-0.4,0.4-0.6,2-0.6,5c0,0.8,0,1.3,0,1.6c1.9-0.9,3.9-1.3,5.9-1.3
		c2.3,0,4.2,0.6,5.7,1.7C648.5,68.3,649.3,70,649.3,72.3z M666.8,65.4c0-1.8-0.4-3.4-1.2-4.8c-0.9-1.7-2.2-2.6-3.9-2.6
		c-1.7,0-3.1,0.9-4.3,2.7c-1,1.6-1.5,3.2-1.5,5c0,1.4,0.4,2.5,1.2,3.4s1.9,1.3,3.2,1.3c0.7,0,1.8-0.5,3.4-1.4c1.6-1,2.5-1.7,2.8-2.4
		C666.7,66.2,666.8,65.8,666.8,65.4z M670.2,65.2c0,3.4-0.8,6.5-2.5,9.3c-0.8,1.4-1.8,2.7-3.1,4.1c-1.7,1.8-3.1,2.7-4.1,2.7
		c-0.5,0-1.2-0.2-1.9-0.7c-0.8-0.5-1.3-1-1.3-1.5c0-0.4,0.1-0.7,0.4-1c0.3-0.3,0.6-0.4,1-0.4s0.8,0.2,1.2,0.5c0.8,0,1.9-1,3.2-2.8
		c0.9-1.2,1.6-2.5,2.3-4c-1.8,1.1-3.5,1.6-5.1,1.6c-2.4,0-4.2-0.7-5.6-2.1c-1.4-1.5-2.1-3.3-2.1-5.6c0-2.9,0.8-5.3,2.4-7.1
		c1.7-2,3.9-3,6.7-3c2.7,0,4.8,1,6.3,3C669.5,60.2,670.2,62.5,670.2,65.2z"/>
	<polygon class="st4" points="237,0 459,0 499,50 459,100 237,100 277,50 	"/>
	<path class="st1" d="M358.1,40c-2.7,1-5.5,1.5-8.5,1.5c-2.4,0-4-0.8-5-2.5c-0.7-1.3-1.1-3.2-1.1-5.7c0-1.5,0.1-3.7,0.3-6.6
		c0.2-2.8,0.4-4.9,0.4-6.6c0-0.1,0-0.5-0.1-1.3c-0.1-0.8-0.1-1.2-0.1-1.4c0-0.2,0-0.5,0.1-1c0.5-0.6,1.1-0.9,1.8-0.9
		c0.7,0,1.2,0.4,1.6,1.3c0.3,0.7,0.5,1.5,0.5,2.2c0,1.8-0.2,4.3-0.5,7.6c-0.3,3.2-0.5,5.7-0.5,7.5c0,3,0.8,4.4,2.5,4.4
		c0.7,0,1.8-0.2,3.2-0.8c1.4-0.5,2.5-0.8,3.2-0.8c0.7,0,1.2,0.3,1.6,0.9C358,38.6,358.1,39.2,358.1,40z M370.6,33.5
		c0-3.8-0.9-5.7-2.8-5.7c-1.3,0-2.3,0.8-3,2.4c-0.5,1.3-0.8,2.7-0.8,4.2c0,3.3,1,5,3,5c1.3,0,2.2-0.7,2.9-2.1
		C370.4,36.3,370.6,35,370.6,33.5z M373.9,33.6c0,2.2-0.6,4.1-1.7,5.8c-1.3,1.8-3,2.7-5.2,2.7c-2.2,0-3.9-0.7-5-2.2
		c-1-1.3-1.5-3.1-1.5-5.4c0-2.3,0.6-4.4,1.7-6.4c1.3-2.4,3-3.6,5.1-3.6c0.6,0,1.4,0.3,2.4,0.9C372.5,27.1,373.9,29.8,373.9,33.6z
		 M391.9,29.4c0,2.3-0.4,4.6-1.2,7c-1.1,3.2-2.5,4.7-4.3,4.7c-1.7,0-3.1-1-4.2-3.1c-0.8,2.2-1.9,3.3-3.6,3.3c-2.1,0-3.6-1.4-4.5-4.3
		c-0.7-2-1-4.3-1-6.9c0-1.6,0.1-2.9,0.2-4c0.3-0.6,0.8-0.8,1.4-0.8c0.5,0,1,0.2,1.5,0.5s0.8,0.7,0.8,1.1c0,0.2-0.1,0.7-0.2,1.5
		s-0.2,1.2-0.2,1.4c0,5.5,0.6,8.2,1.8,8.2c1.3,0,2.1-1.5,2.4-4.6c0.1-1,0.2-3,0.2-6c0-1,0.5-1.4,1.6-1.4c1.2,0,1.8,0.7,1.8,2.1
		c0,0.1,0,0.3-0.1,0.5c0,0.3-0.1,0.4-0.1,0.5v4.2c0,3.2,0.6,4.7,1.7,4.7c1,0,1.7-1.1,2.2-3.5c0.4-1.6,0.6-3.2,0.6-4.7
		c0-1.3-0.1-2-0.2-2.3l-0.4-0.4c-0.1-0.2-0.2-0.4-0.2-0.6c0-0.5,0.2-0.9,0.6-1.2c0.4-0.4,0.8-0.5,1.3-0.5c0.7,0,1.2,0.6,1.6,1.8
		C391.8,27.6,391.9,28.5,391.9,29.4z M329.1,71.9c0-1.6-0.5-2.8-1.4-3.7c-0.9-0.9-2.2-1.3-3.8-1.3c-1.4,0-2.7,0.4-4,1.3
		c-1.3,0.9-2.3,2-2.9,3.2c-0.1,0.2-0.3,0.7-0.6,1.7c0.2,1.8,0.7,3.2,1.6,4.3c1,1.3,2.4,1.9,4.1,1.9c2,0,3.7-0.7,5-2.2
		C328.5,75.6,329.1,73.9,329.1,71.9z M332.5,72.4c0,2.8-1,5.1-3,6.9c-2,1.9-4.4,2.8-7.2,2.8c-2.9,0-5.2-1-7-2.9
		c-1.6-1.9-2.5-4.3-2.5-7.2c0-2.7,0.8-5.4,2.3-8.2c1.5-2.6,3.4-4.7,5.7-6.4c1.9-1.4,3.3-2,4.2-2c0.5,0,1.1,0.2,1.7,0.7
		c0.6,0.5,0.9,1,0.9,1.5c0,0.4-0.1,0.8-0.4,1.1c-0.3,0.3-0.6,0.5-1,0.5c-0.5,0-0.8-0.2-1-0.6c-1.2,0.2-2.8,1.2-4.7,3.2
		c-1.9,2-2.8,3.6-2.8,4.9v0.3c2.2-1.9,4.3-2.8,6.2-2.8c2.5,0,4.6,0.7,6.2,2.2C331.7,67.8,332.5,69.8,332.5,72.4z M353.2,67.5
		c0-2.4-0.5-4.3-1.4-5.9c-1.1-1.9-2.8-2.9-5-2.9c-0.7,0-1.4,0.2-2.2,0.7c-1.7,1-3.1,2.5-4,4.6c-0.9,2-1.3,4-1.3,6.1
		c0,2.3,0.6,4.2,1.7,5.6c1.3,1.6,3,2.4,5.3,2.4c2.4,0,4.2-1.2,5.5-3.7C352.7,72.4,353.2,70.1,353.2,67.5z M356.5,67.7
		c0,3.5-0.9,6.5-2.7,9.2c-2.1,3-4.7,4.5-8,4.5c-3.1,0-5.6-1.1-7.5-3.4c-1.8-2.1-2.6-4.8-2.6-8c0-2.8,0.8-5.5,2.3-8.2
		c1.7-3,3.8-4.8,6.4-5.5c0.9-0.3,1.9-0.4,3.1-0.4c2.7,0,5,1.3,6.7,4C355.8,62.3,356.5,64.9,356.5,67.7z M369.5,70.5
		c-0.1,0.1-0.2,0.1-0.2,0.3c0,0.1,0,0.2,0.1,0.3s0.1,0.2,0.1,0.3c0,0.3-0.4,0.4-1.3,0.4c-0.1,0-0.4,0-0.7-0.1s-0.6-0.1-0.7-0.1
		c-0.7,0-1.4,0-2,0s-1.2,0-2,0c-2.3,0-3.4-0.4-3.4-1.3c0-0.7,0.3-1.1,1-1.1c0.1,0,0.4,0,0.9,0.1c0.5,0.1,0.8,0.2,0.9,0.2
		c0.2,0,1,0,2.4-0.1c1.4-0.1,2.2-0.1,2.4-0.1C368.5,69.4,369.3,69.8,369.5,70.5z M378,57.8c0,0.3-0.1,1.1-0.4,2.5
		c-0.8,3.5-1.1,6.3-1.1,8.2v7.4c0,1.9,0.1,3,0.3,3.3c0.4,0.7,0.6,1,0.6,1.2c0,0.4-0.1,0.7-0.4,0.9c-0.3,0.3-0.6,0.4-1,0.4
		c-0.5,0-1.2-0.2-2.1-0.6c-0.3-0.7-0.5-1.2-0.5-1.7V63.8l-0.6-0.5v-1.2c0-1.2,0.3-2.4,0.8-3.9c0.7-1.8,1.4-2.7,2.2-2.7
		c0.5,0,1,0.3,1.4,0.8C377.8,56.8,378,57.3,378,57.8z M401.1,72.3c0,2.7-1.1,5-3.4,6.9c-2.2,1.7-4.7,2.6-7.5,2.6
		c-1.3,0-2.3-0.1-3.2-0.3c-1-0.2-2.1-0.6-3.4-1.4c-1.6-0.9-2.4-1.6-2.4-2.3c0-1,0.6-1.5,2-1.5c0.8,0,1.8,0.5,3,1.4
		c1.3,0.9,2.4,1.4,3.3,1.4c2.1,0,3.9-0.5,5.4-1.6c1.7-1.2,2.5-2.8,2.5-4.8c0-1.4-0.5-2.4-1.5-3.2c-0.9-0.7-2.1-1.1-3.5-1.1
		c-0.7,0-1.7,0.1-2.9,0.4c-1.3,0.3-2.1,0.7-2.6,1.1c-0.8,0.7-1.4,1-1.7,1c-0.4,0-1.1-0.2-2-0.8c0-0.2,0.1-0.6,0.2-1.2
		c0.2-0.6,0.2-1.1,0.2-1.3v-1.9c0-0.3,0-0.7,0-1.1c0-0.4,0-0.7,0-0.8c0-3.2,0.4-5.8,1.3-7.7c0.4-0.2,0.8-0.3,1.3-0.3
		c0.7,0,1.2,0.2,1.6,0.7c0.1,0,0.8-0.1,2-0.2c2.3-0.3,4.1-0.5,5.6-0.5c0.6,0,1.3,0.2,1.9,0.5c0.8,0.4,1.1,0.9,1.1,1.5
		c0,0.5-0.3,1.1-0.8,2.1h-0.8c-0.2,0-0.5,0-0.8-0.1l-0.7-0.3c-0.3-0.1-0.8-0.2-1.7-0.2c-0.6,0-1.7,0.1-3.2,0.2
		c-1.8,0.1-2.8,0.2-2.9,0.5c-0.4,0.4-0.6,2-0.6,5c0,0.8,0,1.3,0,1.6c1.9-0.9,3.9-1.3,5.9-1.3c2.3,0,4.2,0.6,5.7,1.7
		C400.3,68.3,401.1,70,401.1,72.3z M418.5,65.4c0-1.8-0.4-3.4-1.2-4.8c-1-1.7-2.2-2.6-3.9-2.6c-1.7,0-3.1,0.9-4.3,2.7
		c-1,1.6-1.5,3.2-1.5,5c0,1.4,0.4,2.5,1.2,3.4s1.9,1.3,3.2,1.3c0.7,0,1.8-0.5,3.4-1.4s2.5-1.7,2.8-2.4
		C418.5,66.2,418.5,65.8,418.5,65.4z M422,65.2c0,3.4-0.8,6.5-2.5,9.3c-0.8,1.4-1.8,2.7-3.1,4.1c-1.7,1.8-3.1,2.7-4.1,2.7
		c-0.5,0-1.2-0.2-1.9-0.7c-0.9-0.5-1.3-1-1.3-1.5c0-0.4,0.1-0.7,0.4-1s0.6-0.4,1-0.4s0.8,0.2,1.2,0.5c0.8,0,1.9-1,3.2-2.8
		c0.9-1.2,1.6-2.5,2.3-4c-1.8,1.1-3.5,1.6-5.1,1.6c-2.4,0-4.2-0.7-5.6-2.1c-1.4-1.5-2.1-3.3-2.1-5.6c0-2.9,0.8-5.3,2.4-7.1
		c1.7-2,3.9-3,6.7-3c2.6,0,4.8,1,6.3,3C421.2,60.2,422,62.5,422,65.2z"/>
	<polygon class="st5" points="0,0 222,0 262,50 222,100 0,100 	"/>
	<path class="st1" d="M73.9,17.4c0,2.2-0.3,4.9-1,8.2c-0.4,2.4-1.3,5.3-2.7,8.9c-1.7,4.6-3.2,6.9-4.5,6.9c-1.2,0-2.2-0.2-2.9-0.6
		c-1.7-0.9-3-4.1-4-9.7L57,19.8c-0.1-0.3-0.2-0.7-0.3-1.2c-0.4-0.4-0.5-0.7-0.5-1c0-0.5,0.3-0.9,0.9-1.3c0.6-0.4,1.1-0.6,1.7-0.6
		c0.6,0,1.2,0.2,1.7,0.7c0.5,0.5,0.8,1,0.8,1.6c0,0.4,0,1.1-0.1,2.1c0,1.3-0.1,1.9-0.1,2.1c0,2.1,0.3,4.6,0.9,7.4
		c1.2,5.4,2.1,8,2.8,8c0.5,0,0.9-0.4,1.4-1.2c1.2-2.1,2.3-5,3.2-9c0.9-3.8,1.4-7,1.4-9.5c0-0.6-0.2-1-0.6-1.3
		c-0.4-0.3-0.5-0.5-0.5-0.5c0-0.3,0.3-0.6,0.9-1.1c0.7-0.5,1.1-0.7,1.4-0.7c0.5,0,1,0.4,1.4,1.1C73.7,16.2,73.9,16.8,73.9,17.4z
		 M84.7,30.6c0-0.7-0.2-1.2-0.6-1.8c-0.4-0.6-0.8-0.8-1.4-0.8c-0.8,0-1.5,0.4-1.9,1.1c-0.4,0.7-0.6,1.4-0.6,2.2
		c0,0.5,0.2,0.9,0.5,1.2c0.3,0.3,0.7,0.5,1.2,0.5C83.8,32.9,84.7,32.1,84.7,30.6z M88.8,37.7c0,1.2-0.8,2.2-2.5,2.9
		c-1.3,0.6-2.7,0.8-4.2,0.8c-3.9,0-5.8-2.2-5.8-6.6c0-1.8,0.4-3.7,1.3-6c1.1-2.7,2.4-4.1,3.9-4.1c1.4,0,2.9,0.6,4.4,1.8
		c1.6,1.2,2.4,2.5,2.4,3.8c0,1.7-0.7,3-2.2,3.9c-1.3,0.9-2.9,1.3-4.7,1.3c-0.3,0-0.9-0.2-1.7-0.6c0.1,2.4,0.8,3.6,2.1,3.6
		c1.1,0,2.2-0.3,3.2-0.9c1.1-0.6,1.8-0.9,2.1-0.9C88.3,36.8,88.8,37.1,88.8,37.7z M100.9,28.1c0,0,0,0.3-0.1,0.8
		c-0.5,0.8-1.1,1.1-1.7,1.1c-0.5,0-0.9-0.3-1.3-0.8c-0.1-1.1-0.4-1.7-1.2-1.7c-0.5,0-1,1.2-1.7,3.6c-0.3,1.1-0.5,2.5-0.5,4.4
		c0,1.8,0.1,2.9,0.3,3.2c0.2,0.5,0.3,0.8,0.3,1c0,0.4-0.2,0.8-0.6,1c-0.4,0.3-0.8,0.4-1.3,0.4c-1.4,0-2-0.6-2-1.9
		c0-0.1,0-0.3,0.1-0.5c0.1-0.3,0.1-0.4,0.1-0.5c0-1-0.1-2.9-0.2-5.7s-0.2-4.7-0.2-5.7c0-1.1,0.7-1.7,2-1.7c0.8,0,1.3,0.2,1.7,0.7
		c0.7-0.8,1.5-1.2,2.4-1.2c0.6,0,1.2,0.2,1.7,0.5c0.4,0.2,0.8,0.6,1.3,1.3C100.7,27.2,100.9,27.7,100.9,28.1z M116.5,26.6
		c-0.3,1.7-0.5,2.9-0.6,3.7c-0.2,1.4-0.4,2.6-0.4,3.7v10.2c0,1.8-0.5,3.2-1.6,4.2c-1.1,1-2.5,1.5-4.4,1.5c-1.2,0-2.5-0.3-4-0.9
		c-1.7-0.7-2.6-1.6-2.6-2.6c0-0.4,0.1-0.6,0.4-0.9c0.3-0.2,0.6-0.4,1-0.4c0.2,0,0.8,0.3,1.6,1c0.9,0.7,1.8,1,2.9,1
		c1.4,0,2.3-0.5,2.8-1.5c0.4-0.8,0.5-1.9,0.5-3.4c0-0.7,0-1.2,0-1.4c-0.8,0.6-1.7,0.8-2.8,0.8c-1.9,0-3.3-0.7-4.3-2
		c-0.9-1.2-1.4-2.8-1.4-4.7c0-0.5,0.1-3.6,0.4-9.4c0.7-0.3,1.3-0.5,1.8-0.5c0.5,0,1.2,0.3,2.2,0.9c-0.6,1.5-0.9,4.5-0.9,9
		c0,2.9,0.7,4.3,2.2,4.3c1.1,0,1.9-0.9,2.5-2.7c0.4-1.4,0.6-2.7,0.6-4v-4.6c0,0.1,0-0.4-0.1-1.2c1.1-0.5,1.8-0.8,2.3-0.8
		C115.1,25.9,115.8,26.1,116.5,26.6z M139.5,40c-2.7,1-5.5,1.5-8.6,1.5c-2.4,0-4-0.8-4.9-2.5c-0.7-1.3-1.1-3.2-1.1-5.7
		c0-1.5,0.1-3.7,0.3-6.6c0.2-2.8,0.4-4.9,0.4-6.6c0-0.1,0-0.5-0.1-1.3c0-0.8-0.1-1.2-0.1-1.4c0-0.2,0-0.5,0.1-1
		c0.5-0.6,1.1-0.9,1.8-0.9c0.7,0,1.2,0.4,1.6,1.3c0.3,0.7,0.4,1.5,0.4,2.2c0,1.8-0.2,4.3-0.5,7.6c-0.3,3.2-0.5,5.7-0.5,7.5
		c0,3,0.8,4.4,2.5,4.4c0.7,0,1.8-0.2,3.2-0.8c1.4-0.5,2.4-0.8,3.2-0.8c0.7,0,1.2,0.3,1.6,0.9C139.3,38.6,139.5,39.2,139.5,40z
		 M152,33.5c0-3.8-0.9-5.7-2.8-5.7c-1.3,0-2.3,0.8-3,2.4c-0.5,1.3-0.8,2.7-0.8,4.2c0,3.3,1,5,3,5c1.3,0,2.2-0.7,2.9-2.1
		C151.8,36.3,152,35,152,33.5z M155.3,33.6c0,2.2-0.6,4.1-1.7,5.8c-1.3,1.8-3,2.7-5.2,2.7c-2.2,0-3.9-0.7-5-2.2
		c-1-1.3-1.5-3.1-1.5-5.4c0-2.3,0.6-4.4,1.7-6.4c1.3-2.4,3-3.6,5.1-3.6c0.6,0,1.4,0.3,2.4,0.9C153.9,27.1,155.3,29.8,155.3,33.6z
		 M173.3,29.4c0,2.3-0.4,4.6-1.2,7c-1.1,3.2-2.5,4.7-4.3,4.7c-1.7,0-3.1-1-4.2-3.1c-0.8,2.2-1.9,3.3-3.6,3.3c-2.1,0-3.6-1.4-4.5-4.3
		c-0.7-2-1-4.3-1-6.9c0-1.6,0.1-2.9,0.2-4c0.3-0.6,0.8-0.8,1.4-0.8c0.5,0,1,0.2,1.5,0.5s0.8,0.7,0.8,1.1c0,0.2-0.1,0.7-0.2,1.5
		c-0.2,0.8-0.2,1.2-0.2,1.4c0,5.5,0.6,8.2,1.8,8.2c1.3,0,2.1-1.5,2.4-4.6c0.1-1,0.2-3,0.2-6c0-1,0.5-1.4,1.6-1.4
		c1.2,0,1.8,0.7,1.8,2.1c0,0.1,0,0.3-0.1,0.5c0,0.3-0.1,0.4-0.1,0.5v4.2c0,3.2,0.6,4.7,1.7,4.7c1,0,1.7-1.1,2.2-3.5
		c0.4-1.6,0.6-3.2,0.6-4.7c0-1.3-0.1-2-0.2-2.3l-0.4-0.4c-0.1-0.2-0.2-0.4-0.2-0.6c0-0.5,0.2-0.9,0.6-1.2c0.4-0.4,0.8-0.5,1.3-0.5
		c0.7,0,1.2,0.6,1.6,1.8C173.2,27.6,173.3,28.5,173.3,29.4z M93.4,67.5c0-2.4-0.5-4.3-1.4-5.9c-1.1-1.9-2.8-2.9-5-2.9
		c-0.7,0-1.4,0.2-2.2,0.7c-1.7,1-3.1,2.5-4.1,4.6c-0.9,2-1.3,4-1.3,6.1c0,2.3,0.6,4.2,1.7,5.6c1.3,1.6,3,2.4,5.3,2.4
		c2.4,0,4.2-1.2,5.5-3.7C92.9,72.4,93.4,70.1,93.4,67.5z M96.7,67.7c0,3.5-0.9,6.5-2.7,9.2c-2.1,3-4.7,4.5-8,4.5
		c-3.1,0-5.6-1.1-7.5-3.4c-1.8-2.1-2.6-4.8-2.6-8c0-2.8,0.8-5.5,2.3-8.2c1.7-3,3.8-4.8,6.4-5.5c0.9-0.3,1.9-0.4,3.1-0.4
		c2.7,0,5,1.3,6.7,4C96,62.3,96.7,64.9,96.7,67.7z M109.7,70.5c-0.2,0.1-0.2,0.1-0.2,0.3c0,0.1,0,0.2,0.1,0.3s0.1,0.2,0.1,0.3
		c0,0.3-0.4,0.4-1.3,0.4c-0.1,0-0.4,0-0.7-0.1s-0.6-0.1-0.7-0.1c-0.7,0-1.4,0-1.9,0s-1.2,0-2,0c-2.3,0-3.4-0.4-3.4-1.3
		c0-0.7,0.3-1.1,1-1.1c0.1,0,0.4,0,0.9,0.1c0.4,0.1,0.8,0.2,0.9,0.2c0.2,0,1,0,2.4-0.1c1.5-0.1,2.2-0.1,2.4-0.1
		C108.7,69.4,109.5,69.8,109.7,70.5z M131.9,72.3c0,2.7-1.1,5-3.4,6.9c-2.2,1.7-4.7,2.6-7.5,2.6c-1.3,0-2.3-0.1-3.2-0.3
		c-1-0.2-2.1-0.6-3.4-1.4c-1.6-0.9-2.4-1.6-2.4-2.3c0-1,0.6-1.5,1.9-1.5c0.8,0,1.8,0.5,3,1.4c1.3,0.9,2.4,1.4,3.3,1.4
		c2.1,0,3.9-0.5,5.4-1.6c1.7-1.2,2.5-2.8,2.5-4.8c0-1.4-0.5-2.4-1.5-3.2c-0.9-0.7-2.1-1.1-3.5-1.1c-0.7,0-1.7,0.1-2.8,0.4
		c-1.3,0.3-2.1,0.7-2.6,1.1c-0.8,0.7-1.3,1-1.7,1c-0.4,0-1.1-0.2-2-0.8c0-0.2,0.1-0.6,0.2-1.2c0.2-0.6,0.2-1.1,0.2-1.3v-1.9
		c0-0.3,0-0.7,0-1.1c0-0.4,0-0.7,0-0.8c0-3.2,0.4-5.8,1.3-7.7c0.4-0.2,0.8-0.3,1.3-0.3c0.7,0,1.2,0.2,1.6,0.7c0.1,0,0.8-0.1,2-0.2
		c2.3-0.3,4.1-0.5,5.5-0.5c0.7,0,1.3,0.2,2,0.5c0.8,0.4,1.1,0.9,1.1,1.5c0,0.5-0.3,1.1-0.8,2.1h-0.8c-0.2,0-0.5,0-0.8-0.1l-0.7-0.3
		c-0.3-0.1-0.8-0.2-1.7-0.2c-0.6,0-1.7,0.1-3.2,0.2c-1.8,0.1-2.8,0.2-2.9,0.5c-0.4,0.4-0.6,2-0.6,5c0,0.8,0,1.3,0,1.6
		c1.9-0.9,3.9-1.3,5.9-1.3c2.3,0,4.2,0.6,5.7,1.7C131.1,68.3,131.9,70,131.9,72.3z M149.4,65.4c0-1.8-0.4-3.4-1.2-4.8
		c-1-1.7-2.2-2.6-3.9-2.6c-1.7,0-3.1,0.9-4.3,2.7c-1,1.6-1.5,3.2-1.5,5c0,1.4,0.4,2.5,1.2,3.4s1.9,1.3,3.2,1.3
		c0.7,0,1.8-0.5,3.4-1.4s2.5-1.7,2.8-2.4C149.3,66.2,149.4,65.8,149.4,65.4z M152.8,65.2c0,3.4-0.8,6.5-2.5,9.3
		c-0.8,1.4-1.8,2.7-3.1,4.1c-1.7,1.8-3.1,2.7-4.1,2.7c-0.5,0-1.2-0.2-1.9-0.7c-0.9-0.5-1.3-1-1.3-1.5c0-0.4,0.1-0.7,0.4-1
		c0.3-0.3,0.6-0.4,1-0.4s0.8,0.2,1.2,0.5c0.8,0,1.9-1,3.2-2.8c0.9-1.2,1.6-2.5,2.3-4c-1.8,1.1-3.5,1.6-5.1,1.6
		c-2.4,0-4.2-0.7-5.6-2.1c-1.4-1.5-2.1-3.3-2.1-5.6c0-2.9,0.8-5.3,2.4-7.1c1.7-2,3.9-3,6.7-3c2.7,0,4.8,1,6.3,3
		C152.1,60.2,152.8,62.5,152.8,65.2z"/>
</g>
</svg>
