<?xml version="1.0" encoding="utf-8"?>
<!-- Generator: Adobe Illustrator 21.1.0, SVG Export Plug-In . SVG Version: 6.00 Build 0)  -->
<svg version="1.1" id="Layer_1" xmlns="http://www.w3.org/2000/svg" xmlns:xlink="http://www.w3.org/1999/xlink" x="0px" y="0px"
	 viewBox="0 0 118 172" style="enable-background:new 0 0 118 172;" xml:space="preserve">
<style type="text/css">
	.st0{fill:#2B414D;}
	.st1{fill:#475F6C;}
	.st2{opacity:0.303;fill:#231F20;enable-background:new    ;}
	.st3{fill:#F4B008;}
	.st4{fill:#0F3C47;}
	.st5{fill:#231F20;}
	.st6{fill:#FFFFFF;}
	.st7{fill:#3F616F;stroke:#000000;stroke-width:1.118;}
	.st8{fill:#3F616F;}
	.st9{opacity:0.502;fill:#231F20;enable-background:new    ;}
	.st10{fill:#E6E7E8;}
	.st11{opacity:0.5;fill:#FFFFFF;enable-background:new    ;}
	.st12{opacity:0.146;fill:#231F20;enable-background:new    ;}
	.st13{fill:#A73E5C;}
	.st14{fill:#F3C85C;}
	.st15{fill:none;stroke:#000000;stroke-linecap:round;stroke-linejoin:round;}
	.st16{fill:#455E6B;}
	.st17{fill:#4B6370;}
	.st18{fill:#27AAE1;}
</style>
<g>
	<path class="st0" d="M11.5,51.5H8.9C8.8,61.7,7.1,65.7,7.1,65.7l9.8,1.8C16.9,67.4,11.5,60.8,11.5,51.5z M11.5,29.3H8.9v20.4h2.7
		V29.3z M11.5,51.5H8.9C8.8,61.7,7.1,65.7,7.1,65.7l9.8,1.8C16.9,67.4,11.5,60.8,11.5,51.5z M11.5,29.3H8.9v20.4h2.7V29.3z"/>
	<path class="st1" d="M10.2,47c2.7,0,4.9,2.2,4.9,4.9c0,2.7-2.2,4.9-4.9,4.9s-4.9-2.1-4.9-4.9C5.3,49.2,7.5,47,10.2,47z"/>
	<path class="st0" d="M1.2,25.5L54.1,0.6c1.6-0.8,4.3-0.8,5.9,0l52.9,24.9c1.6,0.8,1.6,2.2,0,3L60,53.5c-1.6,0.8-4.3,0.8-5.9,0
		L1.2,28.6C-0.4,27.8-0.4,26.3,1.2,25.5z M57,38.9c16.8,0,30.3,6,30.3,13.4S73.8,65.7,57,65.7s-30.3-6-30.3-13.4S40.3,38.9,57,38.9z
		"/>
	<g transform="matrix(-1 0 0 1 118 37)">
		<path class="st2" d="M62.9,110.8c0,0,29.1-1.8,37.9,5.6c8.9,7.4-9.7,19.6-51.9,17.7c-42.2-2-29.1-13.2-44.2-15.1
			C-10.4,117,17.7,106.8,62.9,110.8z"/>
		<path class="st2" d="M60.7,113c0,0,23.4-1.5,30.5,4.5c7.1,6-7.8,15.8-41.8,14.2s-23.5-10.6-35.6-12.2
			C1.7,117.9,24.3,109.7,60.7,113z"/>
		<path class="st3" d="M32.8,117.2l-10,6.4c0,0,10.3-3,15.4,4l3.5-7.7L32.8,117.2z M65.2,120.2l6.5,8.8c0,0,6.2-5.9,14.7-5.8
			l-9.9-6.9L65.2,120.2z"/>
		<g transform="matrix(1 0 0 -1 4.7 68.694)">
			<path class="st4" d="M16,16c0,0-6.4-1.5-7.9-6.2c-0.8-2.6-1.3-5.3-1.3-8c0,0-0.5-2.3-3.3-1.7C0.6,0.8-0.2,5.3,0,11.2
				S6.4,27,14.2,29.5S16,16,16,16z"/>
			<path class="st5" d="M1.7,4.3c0,0-4.1,13.6,10.2,22.8l1.1-6.8c0,0-10.8-6.1-9-16.4C3.9,3.9,3.3,1.5,1.7,4.3z"/>
			<path class="st6" d="M6.1,1.9c0,0,0-1.1-1.6-1.3S1.3,1.6,2.2,2.1s2.8-0.2,3.1,0.6S4.5,8.8,8.3,13.5c0,0,3.6,3.5,5.3,4.5l0.6-1.9
				c0,0-5.3-1.6-6.7-6.4C6,4.8,6.1,1.9,6.1,1.9z"/>
		</g>
		<path class="st7" d="M93.3,108.9c0,0,18.1-64.3-8.1-103.9c0,0-29.5-10.3-51.9,0.5c0,0-22.8,42.8-18.1,99.9c0,0,3.8,16.5,34,17.2
			C79.5,123.2,93.3,108.9,93.3,108.9z"/>
		<g transform="matrix(1 0 0 -1 90.09 72.59)">
			<path class="st8" d="M0.5,16.6c0,0,5.9-1.3,8.6-5.3c2.7-4,4.7-12.5,8.4-11.2c3.7,1.3,4.7,6.7,3,14.9
				c-1.7,8.3-10.1,12.7-15.1,14.1C0.5,30.6-0.9,22,0.5,16.6z"/>
			<path class="st9" d="M20.1,4.9c0,0,1.2,8.4-1.8,13.6s-7.4,8.6-12,8.7c-4.7,0.2-3.3-2.5-2.8-3.1C3.9,23.6,18.9,20.3,20.1,4.9z"/>
			<path class="st6" d="M18.4,2.6c0,0-0.1-1.5-2.4-0.9s-4.6,13-14.8,15.1v2C1.2,18.9,14.5,18,18.4,2.6z"/>
			<path class="st5" d="M20.1,4.9c0,0,1.2,8.4-1.8,13.6s-7.4,8.6-12,8.7c-4.7,0.2-3.3-2.5-2.8-3.1C3.9,23.6,18.9,20.3,20.1,4.9z"/>
		</g>
		<path class="st10" d="M52.5,14.9c0,0,5.2-8.3,12.5-7.2c7.3,1.1,12.5,23.2,9.5,35.5c0,0,16.4,13.1,10.6,41.6s-30,37.1-48.9,27.9
			s-21.7-51.5-8.6-68.5c0,0-2.4-12.9,4.1-25.5C38.2,6.2,48.5,1.3,52.5,14.9z"/>
		<path class="st11" d="M83.3,6.7c0,0-26.6-9.6-48.6,0c0,0-3.6,1.9-1.4,4C35.5,12.9,86.8,17.5,83.3,6.7z"/>
		<path class="st12" d="M19.6,61.9c0,0-4.5,24-2.6,42.1c0,0,8.2,16,34.2,16c26,0,38.8-12.1,38.8-12.1s7.2-19.4,7.3-40.7
			c0,0-24.8,30-50.9,27.2C20.4,91.7,19.6,61.9,19.6,61.9z"/>
	</g>
	<g transform="rotate(-15 299.129 -148.174)">
		<path class="st3" d="M23,0.6c7,2,2,6,6,6c4,0,7,2,7,5s-7,7-17,2c-10,0-19-1-19-7c0-6,12-4,14-4C16,2.6,16-1.4,23,0.6z"/>
		<path class="st13" d="M4,6.6c1-5,14,1,15,4c4-2,14-2,13,1c-0.7,2-5,2-13,0C8.3,11.6,3.3,9.9,4,6.6z"/>
		<path class="st14" d="M15,4.6c5.3-2.7,9-2.3,11,1c-2,1.3-4.3,2.3-7,3L15,4.6z"/>
	</g>
	<path class="st15" d="M53,63.1c4.8-0.4,7.5,0.2,8,1.9"/>
	<path class="st15" d="M81.9,60.9c-4.9-0.2-7.5,0.6-7.9,2.3"/>
	<path class="st15" d="M53,51c2-1.3,3.7-1.7,5-1"/>
	<path class="st15" d="M77.1,48.8c-2.3-0.7-4-0.5-5.1,0.5"/>
	<g transform="translate(26.115 22.16)">
		<path class="st16" d="M59.8,11.8C59.8,5.3,47.1,0,31.4,0C15.7,0,3,5.2,2.9,11.7c0,0-3,21.2-2.9,21.2c0-6.2,13.2-13.8,31.4-13.8
			c16.9,0,29.5,7.9,31.2,13.7C62.6,32.8,59.8,11.8,59.8,11.8z"/>
		<path class="st17" d="M33.1,0v19.2c16,0.5,27.8,8,29.4,13.7l-2.8-21.1C59.8,5.5,48,0.5,33.1,0z"/>
	</g>
	<path class="st18" d="M67.3,99.4c-0.7,2.9-1.1,5.8-1.2,8.7c0,3.6,2.5,6.8,6.2,6.8c3.7-0.1,6.6-3.1,6.6-6.8v-0.6
		c3.7,4.5,5.8,10.2,5.8,16c0,8-6.5,14.5-14.5,14.5s-14.5-6.5-14.5-14.5C55.7,113.6,60.1,104.9,67.3,99.4z M70.2,132.2
		c1.5,0,3-0.5,4.1-1.6c1.1-1.1,1.7-2.5,1.7-4c0-2.9-1.9-5.1-5.1-5.6c-3.3-0.6-6.6-2.1-8.3-4.7c-0.8,2.4-1.2,4.9-1.2,7.4
		C61.5,128.4,65.4,132.2,70.2,132.2L70.2,132.2z"/>
</g>
</svg>
