<?xml version="1.0" encoding="utf-8"?>
<!-- Generator: Adobe Illustrator 21.1.0, SVG Export Plug-In . SVG Version: 6.00 Build 0)  -->
<svg version="1.1" id="Layer_1" xmlns="http://www.w3.org/2000/svg" xmlns:xlink="http://www.w3.org/1999/xlink" x="0px" y="0px"
	 viewBox="0 0 118 170" style="enable-background:new 0 0 118 170;" xml:space="preserve">
<style type="text/css">
	.st0{fill:#2B414D;}
	.st1{fill:#475F6C;}
	.st2{opacity:0.303;fill:#231F20;enable-background:new    ;}
	.st3{fill:#F4B008;}
	.st4{fill:#0F3C47;}
	.st5{fill:#3F616F;stroke:#000000;stroke-width:1.118;}
	.st6{fill:#3F616F;}
	.st7{fill:#E6E7E8;}
	.st8{fill:#193441;}
	.st9{fill:#A73E5C;}
	.st10{opacity:0.203;fill:#FFFFFF;enable-background:new    ;}
	.st11{fill:#231F20;}
	.st12{fill:#FFFFFF;}
	.st13{opacity:0.5;fill:#FFFFFF;enable-background:new    ;}
	.st14{opacity:0.146;fill:#231F20;enable-background:new    ;}
	.st15{opacity:0.502;fill:#231F20;enable-background:new    ;}
	.st16{fill:#27AAE1;}
	.st17{fill:#455E6B;}
	.st18{fill:#4B6370;}
</style>
<g>
	<path class="st0" d="M11.5,51.5H8.9C8.8,61.7,7.1,65.7,7.1,65.7l9.8,1.8C16.9,67.4,11.5,60.8,11.5,51.5z M11.5,29.3H8.9v20.4h2.7
		V29.3z M11.5,51.5H8.9C8.8,61.7,7.1,65.7,7.1,65.7l9.8,1.8C16.9,67.4,11.5,60.8,11.5,51.5z M11.5,29.3H8.9v20.4h2.7V29.3z"/>
	<path class="st1" d="M10.2,47c2.7,0,4.9,2.2,4.9,4.9c0,2.7-2.2,4.9-4.9,4.9s-4.9-2.1-4.9-4.9C5.3,49.2,7.5,47,10.2,47z"/>
	<path class="st0" d="M1.2,25.5L54.1,0.6c1.6-0.8,4.3-0.8,5.9,0l52.9,24.9c1.6,0.8,1.6,2.2,0,3L60,53.5c-1.6,0.8-4.3,0.8-5.9,0
		L1.2,28.6C-0.4,27.8-0.4,26.3,1.2,25.5z M57,38.9c16.8,0,30.3,6,30.3,13.4S73.8,65.7,57,65.7s-30.3-6-30.3-13.4S40.3,38.9,57,38.9z
		"/>
	<g transform="matrix(-1 0 0 1 118 37)">
		<path class="st2" d="M62.9,108.8c0,0,29.1-1.8,37.9,5.6c8.9,7.4-9.7,19.6-51.9,17.7c-42.2-2-29.1-13.2-44.2-15.1
			C-10.4,115,17.7,104.8,62.9,108.8z"/>
		<path class="st2" d="M60.7,111c0,0,23.4-1.5,30.5,4.5c7.1,6-7.8,15.8-41.8,14.2s-23.5-10.6-35.6-12.2
			C1.7,115.9,24.3,107.7,60.7,111z"/>
		<path class="st3" d="M32.8,117.2l-10,6.4c0,0,10.3-3,15.4,4l3.5-7.7L32.8,117.2z M65.2,120.2l6.5,8.8c0,0,6.2-5.9,14.7-5.8
			l-9.9-6.9L65.2,120.2z"/>
		<path class="st4" d="M20.7,45.7c0,0-6.4-1.5-7.9-6.2c-0.8-2.6-1.3-5.3-1.3-8c0,0-0.5-2.3-3.3-1.7C5.3,30.5,4.5,35,4.7,40.9
			s6.4,15.8,14.2,18.3S20.7,45.7,20.7,45.7z"/>
		<path class="st5" d="M93.3,108.9c0,0,18.1-64.3-8.1-103.9c0,0-29.5-10.3-51.9,0.5c0,0-22.8,42.8-18.1,99.9c0,0,3.8,16.5,34,17.2
			C79.5,123.2,93.3,108.9,93.3,108.9z"/>
		<path class="st6" d="M90.6,49.2c0,0,5.9-1.3,8.6-5.3c2.7-4,4.7-12.5,8.4-11.2c3.7,1.3,4.7,6.7,3,14.9
			c-1.7,8.3-10.1,12.7-15.1,14.1C90.6,63.2,89.2,54.6,90.6,49.2z"/>
		<path class="st7" d="M52.5,14.9c0,0,5.2-8.3,12.5-7.2c7.3,1.1,12.5,23.2,9.5,35.5c0,0,16.4,13.1,10.6,41.6s-30,37.1-48.9,27.9
			s-21.7-51.5-8.6-68.5c0,0-2.4-12.9,4.1-25.5C38.2,6.2,48.5,1.3,52.5,14.9z"/>
		<path class="st8" d="M62.4,25.7c-0.8,4-2.4,7.1-3.6,6.9c-1.2-0.2-1.6-3.7-0.8-7.7c0.8-4,2.4-7.1,3.6-6.9
			C62.9,18.2,63.2,21.7,62.4,25.7z M44.8,24.6c-0.8,4-2.4,7.1-3.6,6.9c-1.2-0.2-1.6-3.7-0.8-7.7c0.8-4,2.4-7.1,3.6-6.9
			C45.2,17.2,45.6,20.6,44.8,24.6z"/>
		<path class="st9" d="M44.8,49.8c0,0,2.3-3.7,0.4-10.8c-1.9-7.2,3.2-1.5,3.2-1.5s6,0.5,6.5,0.3c0.6-0.2,2.7,0.6,2.8,0.6
			s-2,4.2-2,4.2S55.7,49.1,44.8,49.8z"/>
		<path class="st3" d="M61.2,34.2c0,0-2.8,3.5-6,2.4c-3.2-1.1-5-4.4-5-4.4c-6.2-0.8-12.4-0.4-18.4,1.1c0,0,10.7,4.5,14.7,7.3
			c4,2.9,7.9,1.8,9.6-0.4c0,0-2.3,8.7-11.4,9.6C44.8,49.8,59.1,52.8,61.2,34.2z"/>
		<path class="st10" d="M49.5,32.6c0,0-10.8-0.4-15.4,0.9c2.9,0.7,5.7,1.9,8.2,3.6c3.8,2.6,8.4,5.6,10.7,4.4s2.6-3.9,2.6-3.9
			S49.9,36.3,49.5,32.6z"/>
		<path class="st11" d="M110.2,37.5c0,0,1.2,8.4-1.8,13.6s-7.4,8.5-12,8.7c-4.7,0.2-3.3-2.5-2.8-3.1C93.9,56.2,109,52.9,110.2,37.5z
			 M6.4,33.9c0,0-4.1,13.6,10.2,22.8l1.1-6.8c0,0-10.8-6.1-9-16.4C8.6,33.6,8,31.2,6.4,33.9z"/>
		<path class="st12" d="M108.5,35.3c0,0-0.1-1.5-2.4-0.9c-2.3,0.6-4.6,13-14.8,15.1v2C91.3,51.6,104.6,50.8,108.5,35.3z M10.8,31.5
			c0,0,0-1.1-1.6-1.3C7.7,30,6,31.3,6.9,31.8s2.8-0.2,3.1,0.6c0.3,0.8-0.7,6.1,3.1,10.8c0,0,3.6,3.5,5.3,4.5l0.6-1.9
			c0,0-5.3-1.6-6.7-6.4C10.7,34.5,10.8,31.5,10.8,31.5z"/>
		<path class="st13" d="M83.3,6.7c0,0-26.6-9.6-48.6,0c0,0-3.6,1.9-1.4,4C35.5,12.9,86.8,17.5,83.3,6.7z"/>
		<path class="st14" d="M19.6,61.9c0,0-4.5,24-2.6,42.1c0,0,8.2,16,34.2,16c26,0,38.8-12.1,38.8-12.1s7.2-19.4,7.3-40.7
			c0,0-24.8,30-50.9,27.2C20.4,91.7,19.6,61.9,19.6,61.9z"/>
		<path class="st15" d="M110.2,37.5c0,0,1.2,8.4-1.8,13.6s-7.4,8.5-12,8.7c-4.7,0.2-3.3-2.5-2.8-3.1C93.9,56.2,109,52.9,110.2,37.5z
			"/>
		<path class="st12" d="M108.5,35.2c0,0-0.1-1.5-2.4-0.9c-2.3,0.6-4.6,13-14.8,15.1v2C91.3,51.4,104.6,50.6,108.5,35.2z"/>
		<path class="st16" d="M46,61.4c-0.7,2.9-1.1,5.8-1.2,8.7c0,3.6,2.5,6.8,6.2,6.8c3.7-0.1,6.6-3.1,6.6-6.8v-0.6
			c3.7,4.5,5.8,10.2,5.8,16c0,8-6.5,14.5-14.5,14.5s-14.5-6.5-14.5-14.5C34.4,75.6,38.8,66.9,46,61.4z M48.9,94.2
			c1.5,0,3-0.5,4.1-1.6c1.1-1.1,1.7-2.5,1.7-4c0-2.9-1.9-5.1-5.1-5.6c-3.3-0.6-6.6-2.1-8.3-4.7c-0.8,2.4-1.2,4.9-1.2,7.4
			C40.2,90.4,44.1,94.2,48.9,94.2L48.9,94.2z"/>
	</g>
	<g transform="translate(26.115 22.16)">
		<path class="st17" d="M59.8,11.8C59.8,5.3,47.1,0,31.4,0C15.7,0,3,5.2,2.9,11.7c0,0-3,21.2-2.9,21.2c0-6.2,13.2-13.8,31.4-13.8
			c16.9,0,29.5,7.9,31.2,13.7C62.6,32.8,59.8,11.8,59.8,11.8z"/>
		<path class="st18" d="M33.1,0v19.2c16,0.5,27.8,8,29.4,13.7l-2.8-21.1C59.8,5.5,48,0.5,33.1,0z"/>
	</g>
</g>
</svg>
