<?xml version="1.0" encoding="utf-8"?>
<!-- Generator: Adobe Illustrator 23.0.3, SVG Export Plug-In . SVG Version: 6.00 Build 0)  -->
<svg version="1.1" id="Layer_1" xmlns="http://www.w3.org/2000/svg" xmlns:xlink="http://www.w3.org/1999/xlink" x="0px" y="0px"
	 viewBox="0 0 113 165" style="enable-background:new 0 0 113 165;" xml:space="preserve">
<style type="text/css">
	.st0{fill:#2B414D;}
	.st1{fill:#475F6C;}
	.st2{opacity:0.303;fill:#231F20;enable-background:new    ;}
	.st3{fill:#F4B008;}
	.st4{fill:#0F3C47;}
	.st5{fill:#231F20;}
	.st6{fill:#FFFFFF;}
	.st7{fill:#3F616F;stroke:#000000;stroke-width:1.0722;}
	.st8{fill:#3F616F;}
	.st9{opacity:0.502;fill:#231F20;enable-background:new    ;}
	.st10{fill:#E6E7E8;}
	.st11{opacity:0.5;fill:#FFFFFF;enable-background:new    ;}
	.st12{opacity:0.146;fill:#231F20;enable-background:new    ;}
	.st13{fill:#A73E5C;}
	.st14{fill:#F3C85C;}
	.st15{fill:none;stroke:#000000;stroke-width:0.9593;stroke-linecap:round;stroke-linejoin:round;}
	.st16{fill:#455E6B;}
	.st17{fill:#4B6370;}
</style>
<title>Cody</title>
<desc>Created with Sketch.</desc>
<g id="Samsung-School">
	<g id="Energy_Weather.-Electricity" transform="translate(-1001.000000, -606.000000)">
		<g transform="translate(935.000000, 391.000000)">
			<g id="Cody" transform="translate(66.000000, 215.000000)">
				<g id="Mortarboard" transform="translate(0.000000, -0.000000)">
					<path id="Shape" class="st0" d="M11.1,49.4H8.5C8.4,59.2,6.8,63,6.8,63l9.4,1.7C16.2,64.7,11.1,58.3,11.1,49.4z M11.1,28.1H8.5
						v19.6h2.6V28.1z M11.1,49.4H8.5C8.4,59.2,6.8,63,6.8,63l9.4,1.7C16.2,64.7,11.1,58.3,11.1,49.4z M11.1,28.1H8.5v19.6h2.6V28.1z
						"/>
					<path id="Path" class="st1" d="M9.8,45.1c2.6,0,4.7,2.1,4.7,4.7c0,2.6-2.1,4.7-4.7,4.7s-4.7-2-4.7-4.7
						C5.1,47.2,7.2,45.1,9.8,45.1z"/>
					<path class="st0" d="M1.2,24.5L51.8,0.6c1.5-0.8,4.1-0.8,5.6,0l50.6,23.9c1.5,0.8,1.5,2.1,0,2.9L57.4,51.3
						c-1.5,0.8-4.1,0.8-5.6,0L1.2,27.4C-0.4,26.6-0.4,25.3,1.2,24.5z M54.6,37.3c16.1,0,29,5.8,29,12.9S70.7,63,54.6,63
						s-29-5.8-29-12.9S38.6,37.3,54.6,37.3z"/>
				</g>
				
					<g id="Rico" transform="translate(59.000000, 99.994186) scale(-1, 1) translate(-59.000000, -99.994186) translate(5.000000, 35.494186)">
					<path id="Shadow" class="st2" d="M60.2,106.3c0,0,27.9-1.8,36.3,5.4c8.5,7.1-9.3,18.8-49.7,16.9c-40.4-1.9-27.9-12.7-42.4-14.5
						C-9.9,112.2,16.9,102.4,60.2,106.3z"/>
					<path class="st2" d="M58.1,108.4c0,0,22.4-1.4,29.2,4.3c6.8,5.7-7.5,15.2-40,13.6s-22.5-10.2-34.1-11.7
						C1.6,113.1,23.3,105.2,58.1,108.4z"/>
					<path id="Paw" class="st3" d="M31.4,112.4l-9.6,6.1c0,0,9.8-2.9,14.7,3.8L40,115L31.4,112.4z"/>
					<path class="st3" d="M62.4,115.3l6.2,8.4c0,0,6-5.7,14.1-5.6l-9.5-6.6L62.4,115.3z"/>
					
						<g transform="translate(13.598772, 51.508642) scale(1, -1) translate(-13.598772, -51.508642) translate(4.501315, 37.119107)">
						<path id="Path_2340" class="st4" d="M15.3,15.4c0,0-6.1-1.4-7.5-6C7,7,6.5,4.3,6.5,1.7c0,0-0.5-2.3-3.2-1.6
							C0.6,0.8-0.2,5.1,0,10.7s6.1,15.2,13.6,17.6S15.3,15.4,15.3,15.4z"/>
						<path id="Path_2351" class="st5" d="M1.6,4.1c0,0-3.9,13,9.8,21.9l1-6.5c0,0-10.3-5.8-8.6-15.8C3.8,3.7,3.2,1.4,1.6,4.1z"/>
						<path id="Path_2353" class="st6" d="M5.8,1.8c0,0,0-1.1-1.5-1.3S1.2,1.6,2.1,2S4.7,1.8,5,2.6c0.3,0.8-0.6,5.9,2.9,10.3
							c0,0,3.5,3.4,5.1,4.3l0.6-1.8c0,0-5.1-1.6-6.4-6.2C5.7,4.6,5.8,1.8,5.8,1.8z"/>
					</g>
					<path id="Body" class="st7" d="M89.4,104.5c0,0,17.3-61.7-7.7-99.7c0,0-28.3-9.9-49.7,0.5c0,0-21.9,41-17.3,95.8
						c0,0,3.6,15.8,32.6,16.5C76.1,118.2,89.4,104.5,89.4,104.5z"/>
					
						<g transform="translate(96.806262, 55.246144) scale(1, -1) translate(-96.806262, -55.246144) translate(86.272364, 40.856609)">
						<path id="Path_2343" class="st8" d="M0.5,15.9c0,0,5.6-1.2,8.2-5c2.6-3.8,4.5-12,8.1-10.8c3.5,1.3,4.5,6.4,2.9,14.3
							C18,22.3,9.9,26.6,5.2,27.9C0.5,29.3-0.8,21.1,0.5,15.9z"/>
						<path id="Path_2361" class="st9" d="M19.2,4.7c0,0,1.1,8.1-1.8,13.1s-7,8.2-11.5,8.4c-4.5,0.2-3.1-2.4-2.7-2.9
							C3.7,22.6,18.1,19.5,19.2,4.7z"/>
						<path id="Path_2362" class="st6" d="M17.6,2.5c0,0-0.1-1.4-2.3-0.9S10.9,14.1,1.2,16.2v1.9C1.2,18.1,13.9,17.3,17.6,2.5z"/>
						<path id="Path_2350" class="st5" d="M19.2,4.7c0,0,1.1,8.1-1.8,13.1s-7,8.2-11.5,8.4c-4.5,0.2-3.1-2.4-2.7-2.9
							C3.7,22.6,18.1,19.5,19.2,4.7z"/>
					</g>
					<path id="Chest" class="st10" d="M50.3,14.3c0,0,5-7.9,12-6.9s12,22.3,9.1,34c0,0,15.7,12.5,10.2,39.9
						c-5.5,27.3-28.8,35.6-46.9,26.8s-20.8-49.4-8.2-65.7c0,0-2.3-12.3,3.9-24.4C36.6,5.9,46.5,1.2,50.3,14.3z"/>
					<path id="Glow" class="st11" d="M79.8,6.5c0,0-25.5-9.2-46.5,0c0,0-3.5,1.8-1.3,3.9C34,12.4,83.1,16.8,79.8,6.5z"/>
					<path class="st12" d="M18.8,59.4c0,0-4.3,23-2.5,40.4c0,0,7.9,15.3,32.7,15.3c24.9,0,37.2-11.6,37.2-11.6s6.9-18.7,7-39.1
						c0,0-23.7,28.8-48.7,26.1C19.6,87.9,18.8,59.4,18.8,59.4z"/>
				</g>
				
					<g id="Beak" transform="translate(65.118644, 72.369767) rotate(-15.000000) translate(-65.118644, -72.369767) translate(47.881356, 64.695349)">
					<path id="Path-5" class="st3" d="M22,0.5c6.7,1.9,1.9,5.8,5.7,5.8c3.8,0,6.7,1.9,6.7,4.8s-6.7,6.7-16.3,1.9C8.6,13,0,12,0,6.3
						s11.5-3.8,13.4-3.8C15.3,2.5,15.3-1.4,22,0.5z"/>
					<path id="Path-6" class="st13" d="M3.8,6.3c1-4.8,13.4,1,14.4,3.8c3.8-1.9,13.4-1.9,12.4,1c-0.6,1.9-4.8,1.9-12.4,0
						C8,11.1,3.2,9.5,3.8,6.3z"/>
					<path id="Path-7" class="st14" d="M14.4,4.4c5.1-2.6,8.6-2.2,10.5,1c-1.9,1.3-4.1,2.2-6.7,2.9L14.4,4.4z"/>
				</g>
				<path id="Eye" class="st15" d="M50.8,60.6c4.6-0.4,7.2,0.2,7.7,1.8"/>
				<path class="st15" d="M78.5,58.4c-4.7-0.2-7.2,0.6-7.6,2.2"/>
				<path id="Eyebrow" class="st15" d="M50.8,48.9c1.9-1.3,3.5-1.6,4.8-1"/>
				<path class="st15" d="M73.8,46.8c-2.2-0.7-3.8-0.5-4.9,0.5"/>
				<g transform="translate(25.008143, 21.257235)">
					<path class="st16" d="M57.3,11.3C57.3,5.1,45.1,0,30.1,0C15.1,0,2.9,5,2.8,11.2c0,0-2.9,20.3-2.8,20.3c0-6,12.6-13.2,30-13.2
						c16.2,0,28.3,7.5,29.9,13.1C59.9,31.5,57.3,11.3,57.3,11.3z"/>
					<path class="st17" d="M31.7,0v18.4c15.3,0.5,26.6,7.7,28.2,13.1l-2.6-20.2C57.3,5.3,46,0.4,31.7,0z"/>
				</g>
			</g>
		</g>
	</g>
</g>
</svg>
