<?xml version="1.0" encoding="utf-8"?>
<!-- Generator: Adobe Illustrator 23.0.3, SVG Export Plug-In . SVG Version: 6.00 Build 0)  -->
<svg version="1.1" id="Layer_1" xmlns="http://www.w3.org/2000/svg" xmlns:xlink="http://www.w3.org/1999/xlink" x="0px" y="0px"
	 viewBox="0 0 115 165" style="enable-background:new 0 0 115 165;" xml:space="preserve">
<style type="text/css">
	.st0{fill:#2B414D;}
	.st1{fill:#475F6C;}
	.st2{opacity:0.303;fill:#231F20;enable-background:new    ;}
	.st3{fill:#F4B008;}
	.st4{fill:#0F3C47;}
	.st5{fill:#3F616F;stroke:#000000;stroke-width:1.0848;}
	.st6{fill:#3F616F;}
	.st7{fill:#E6E7E8;}
	.st8{fill:#193441;}
	.st9{fill:#A73E5C;}
	.st10{opacity:0.203;fill:#FFFFFF;enable-background:new    ;}
	.st11{fill:#231F20;}
	.st12{fill:#FFFFFF;}
	.st13{opacity:0.5;fill:#FFFFFF;enable-background:new    ;}
	.st14{opacity:0.146;fill:#231F20;enable-background:new    ;}
	.st15{opacity:0.502;fill:#231F20;enable-background:new    ;}
	.st16{fill:#455E6B;}
	.st17{fill:#4B6370;}
</style>
<title>Cody</title>
<desc>Created with Sketch.</desc>
<g id="Samsung-School">
	<g id="Energy_Weather.-Electricity" transform="translate(-1752.000000, -232.000000)">
		<g transform="translate(1704.000000, 13.000000)">
			<g id="Cody" transform="translate(48.000000, 219.000000)">
				<g id="Mortarboard" transform="translate(0.000000, 0.000000)">
					<path id="Shape" class="st0" d="M11.3,49.9H8.6c-0.1,9.9-1.7,13.8-1.7,13.8l9.6,1.7C16.5,65.5,11.3,59,11.3,49.9z M11.3,28.4
						H8.6v19.8h2.6V28.4z M11.3,49.9H8.6c-0.1,9.9-1.7,13.8-1.7,13.8l9.6,1.7C16.5,65.5,11.3,59,11.3,49.9z M11.3,28.4H8.6v19.8h2.6
						V28.4z"/>
					<path id="Path" class="st1" d="M10,45.6c2.6,0,4.8,2.2,4.8,4.7c0,2.6-2.2,4.7-4.8,4.7S5.2,53,5.2,50.4
						C5.2,47.8,7.3,45.6,10,45.6z"/>
					<path class="st0" d="M1.2,24.8L52.7,0.6c1.6-0.8,4.2-0.8,5.7,0L110,24.8c1.6,0.8,1.6,2.2,0,2.9L58.5,51.9
						c-1.6,0.8-4.2,0.8-5.7,0L1.2,27.7C-0.4,26.9-0.4,25.6,1.2,24.8z M55.6,37.7c16.3,0,29.6,5.9,29.6,13s-13.2,13-29.6,13
						S26,57.9,26,50.7S39.2,37.7,55.6,37.7z"/>
				</g>
				
					<g id="Rico" transform="translate(60.500000, 100.411765) scale(-1, 1) translate(-60.500000, -100.411765) translate(6.000000, 35.911765)">
					<path id="Path_2291" class="st2" d="M61.3,105.6c0,0,28.3-1.8,36.9,5.4c8.6,7.2-9.4,19-50.6,17.1c-41.1-2-28.4-12.8-43.1-14.6
						C-10.1,111.6,17.2,101.7,61.3,105.6z"/>
					<path id="Path_2292" class="st2" d="M59.1,107.7c0,0,22.8-1.5,29.8,4.4c7,5.8-7.6,15.3-40.7,13.8S25.3,115.6,13.5,114
						C1.6,112.5,23.7,104.5,59.1,107.7z"/>
					<path id="Path_2338" class="st3" d="M32,113.8l-9.7,6.2c0,0,10-2.9,15,3.9l3.4-7.4L32,113.8z"/>
					<path id="Path_2339" class="st3" d="M63.5,116.6l6.4,8.5c0,0,6.1-5.7,14.3-5.6l-9.7-6.7L63.5,116.6z"/>
					<path id="Path_2340" class="st4" d="M20.1,44.4c0,0-6.2-1.4-7.7-6c-0.8-2.5-1.2-5.2-1.2-7.8c0,0-0.5-2.3-3.3-1.6
						c-2.8,0.7-3.6,5-3.4,10.7S10.9,55,18.4,57.5S20.1,44.4,20.1,44.4z"/>
					<path id="Path_2342" class="st5" d="M91,105.7c0,0,17.6-62.4-7.9-100.8c0,0-28.8-10-50.6,0.5c0,0-22.3,41.5-17.6,96.9
						c0,0,3.7,16,33.2,16.7C77.5,119.6,91,105.7,91,105.7z"/>
					<path id="Path_2343" class="st6" d="M88.3,47.8c0,0,5.7-1.2,8.4-5.1c2.6-3.9,4.6-12.1,8.2-10.9c3.6,1.3,4.6,6.5,2.9,14.4
						c-1.7,8-9.9,12.4-14.7,13.7C88.3,61.3,86.9,53,88.3,47.8z"/>
					<path id="Path_2344" class="st7" d="M51.2,14.5c0,0,5.1-8,12.2-6.9S75.6,30.1,72.7,42c0,0,16,12.7,10.4,40.4
						c-5.6,27.7-29.3,36-47.7,27.1s-21.2-50-8.4-66.5c0,0-2.3-12.5,4-24.7C37.3,6,47.3,1.2,51.2,14.5z"/>
					<path id="Path_2345" class="st8" d="M60.8,25c-0.8,3.9-2.3,6.9-3.5,6.7c-1.1-0.2-1.5-3.6-0.8-7.5c0.8-3.9,2.3-6.9,3.5-6.7
						C61.3,17.7,61.6,21.1,60.8,25z"/>
					<path id="Path_2346" class="st8" d="M43.7,23.9c-0.8,3.9-2.3,6.9-3.5,6.7s-1.5-3.6-0.8-7.5c0.8-3.9,2.3-6.9,3.5-6.7
						C44.1,16.7,44.4,20,43.7,23.9z"/>
					<path id="Path_2347" class="st9" d="M43.7,48.4c0,0,2.3-3.6,0.4-10.5c-1.8-6.9,3.1-1.5,3.1-1.5s5.8,0.5,6.4,0.3
						c0.5-0.2,2.7,0.5,2.7,0.5s-2,4.1-2,4.1S54.2,47.6,43.7,48.4z"/>
					<path id="Path_2348" class="st3" d="M59.7,33.2c0,0-2.8,3.4-5.9,2.3s-4.9-4.2-4.9-4.2c-6-0.8-12.1-0.4-18,1.1
						c0,0,10.4,4.3,14.3,7.1c3.9,2.8,7.7,1.8,9.4-0.4c0,0-2.2,8.4-11.1,9.3C43.7,48.4,57.6,51.2,59.7,33.2z"/>
					<path id="Path_2349" class="st10" d="M48.2,31.6c0,0-10.5-0.4-15,0.9c2.8,0.7,5.6,1.8,8,3.5c3.7,2.5,8.2,5.4,10.4,4.2
						s2.6-3.8,2.6-3.8S48.6,35.2,48.2,31.6z"/>
					<path id="Path_2350" class="st11" d="M107.4,36.4c0,0,1.1,8.2-1.8,13.2c-2.9,5-7.2,8.3-11.7,8.5c-4.6,0.2-3.2-2.4-2.7-3
						C91.6,54.5,106.2,51.3,107.4,36.4z"/>
					<path id="Path_2351" class="st11" d="M6.2,33c0,0-4,13.2,9.9,22.1l1-6.6c0,0-10.5-5.9-8.7-15.9C8.4,32.6,7.8,30.2,6.2,33z"/>
					<path id="Path_2352" class="st12" d="M105.7,34.3c0,0-0.1-1.5-2.3-0.9S98.9,46.1,89,48.1v2C89,50.1,101.9,49.3,105.7,34.3z"/>
					<path id="Path_2353" class="st12" d="M10.5,30.6c0,0,0-1.1-1.5-1.3s-3.2,1.1-2.3,1.6c0.9,0.5,2.7-0.2,3,0.5
						c0.3,0.8-0.7,6,3,10.5c0,0,3.5,3.4,5.2,4.4l0.6-1.8c0,0-5.2-1.6-6.5-6.2C10.4,33.4,10.5,30.6,10.5,30.6z"/>
					<path id="Path_2354" class="st13" d="M81.2,6.5c0,0-26-9.3-47.4,0c0,0-3.5,1.8-1.4,3.9C34.6,12.5,84.6,17,81.2,6.5z"/>
					<path id="Path_2355" class="st14" d="M19.1,60.1c0,0-4.3,23.3-2.5,40.9c0,0,8,15.5,33.3,15.5c25.3,0,37.9-11.8,37.9-11.8
						s7.1-18.9,7.1-39.5c0,0-24.2,29.1-49.6,26.4C19.9,89,19.1,60.1,19.1,60.1z"/>
					<path id="Path_2361" class="st15" d="M107.4,36.4c0,0,1.1,8.2-1.8,13.2c-2.9,5-7.2,8.3-11.7,8.5c-4.6,0.2-3.2-2.4-2.7-3
						C91.6,54.5,106.2,51.3,107.4,36.4z"/>
					<path id="Path_2362" class="st12" d="M105.7,34.1c0,0-0.1-1.5-2.3-0.9S98.9,45.9,89,48v2C89,49.9,101.9,49.1,105.7,34.1z"/>
				</g>
				<g transform="translate(25.450764, 21.507320)">
					<path class="st16" d="M58.3,11.4C58.3,5.1,45.9,0,30.6,0C15.3,0,3,5.1,2.9,11.4c0,0-3,20.6-2.9,20.6c0-6,12.8-13.4,30.6-13.4
						c16.5,0,28.8,7.6,30.4,13.3C61,31.8,58.3,11.4,58.3,11.4z"/>
					<path class="st17" d="M32.3,0v18.6c15.6,0.5,27.1,7.8,28.7,13.3l-2.7-20.5C58.3,5.3,46.8,0.4,32.3,0z"/>
				</g>
			</g>
		</g>
	</g>
</g>
</svg>
