<?xml version="1.0" encoding="utf-8"?>
<!-- Generator: Adobe Illustrator 23.0.3, SVG Export Plug-In . SVG Version: 6.00 Build 0)  -->
<svg version="1.1" id="Layer_1" xmlns="http://www.w3.org/2000/svg" xmlns:xlink="http://www.w3.org/1999/xlink" x="0px" y="0px"
	 viewBox="0 0 112 165" style="enable-background:new 0 0 112 165;" xml:space="preserve">
<style type="text/css">
	.st0{fill:#2B414D;}
	.st1{fill:#475F6C;}
	.st2{opacity:0.303;fill:#231F20;enable-background:new    ;}
	.st3{fill:#F4B008;}
	.st4{fill:#0F3C47;}
	.st5{fill:#231F20;}
	.st6{fill:#FFFFFF;}
	.st7{fill:#3F616F;stroke:#000000;stroke-width:1.0598;}
	.st8{fill:#3F616F;}
	.st9{opacity:0.502;fill:#231F20;enable-background:new    ;}
	.st10{fill:#E6E7E8;}
	.st11{fill:#193441;}
	.st12{opacity:0.5;fill:#FFFFFF;enable-background:new    ;}
	.st13{opacity:0.146;fill:#231F20;enable-background:new    ;}
	.st14{opacity:0.198;fill:#FFFFFF;enable-background:new    ;}
	.st15{fill:#455E6B;}
	.st16{fill:#4B6370;}
</style>
<title>Cody</title>
<desc>Created with Sketch.</desc>
<g id="Samsung-School">
	<g id="Energy_Weather.-Electricity" transform="translate(-1382.000000, -411.000000)">
		<g transform="translate(1329.000000, 196.000000)">
			<g id="Cody" transform="translate(53.000000, 215.000000)">
				<g id="Mortarboard" transform="translate(0.000000, 0.000000)">
					<path id="Shape" class="st0" d="M11,48.8H8.4c-0.1,9.7-1.7,13.5-1.7,13.5L16,64C16,64,11,57.6,11,48.8z M11,27.8H8.4v19.4H11
						V27.8z M11,48.8H8.4c-0.1,9.7-1.7,13.5-1.7,13.5L16,64C16,64,11,57.6,11,48.8z M11,27.8H8.4v19.4H11V27.8z"/>
					<path id="Path" class="st1" d="M9.7,44.6c2.5,0,4.7,2.1,4.7,4.6c0,2.5-2.1,4.6-4.7,4.6S5,51.8,5,49.2C5,46.7,7.2,44.6,9.7,44.6
						z"/>
					<path class="st0" d="M1.1,24.2L51.3,0.6c1.5-0.8,4.1-0.8,5.6,0l50.2,23.7c1.5,0.8,1.5,2.1,0,2.9L56.9,50.7
						c-1.5,0.8-4.1,0.8-5.6,0L1.1,27.1C-0.4,26.3-0.4,25,1.1,24.2z M54.1,36.8c15.9,0,28.8,5.7,28.8,12.7S70,62.3,54.1,62.3
						s-28.8-5.7-28.8-12.7S38.2,36.8,54.1,36.8z"/>
				</g>
				
					<g id="Rico" transform="translate(58.500000, 100.086207) scale(-1, 1) translate(-58.500000, -100.086207) translate(5.000000, 35.086207)">
					<path id="Shadow" class="st2" d="M59.7,106.9c0,0,27.6-1.7,36,5.3c8.4,7-9.2,18.6-49.2,16.7c-40-1.9-27.7-12.5-42-14.3
						C-9.8,112.8,16.8,103.1,59.7,106.9z"/>
					<path class="st2" d="M57.6,109c0,0,22.2-1.4,29,4.3c6.8,5.7-7.4,15-39.7,13.5c-32.3-1.5-22.3-10.1-33.8-11.6
						C1.6,113.7,23.1,105.9,57.6,109z"/>
					<path id="Paw" class="st3" d="M31.1,111.2l-9.5,6c0,0,9.7-2.9,14.6,3.8l3.3-7.3L31.1,111.2z"/>
					<path class="st3" d="M61.9,114l6.2,8.3c0,0,5.9-5.6,14-5.5l-9.4-6.5L61.9,114z"/>
					
						<g transform="translate(13.478429, 50.916588) scale(1, -1) translate(-13.478429, -50.916588) translate(4.461480, 36.692450)">
						<path id="Path_2340" class="st4" d="M15.2,15.2c0,0-6.1-1.4-7.5-5.9c-0.8-2.5-1.2-5-1.2-7.6c0,0-0.5-2.2-3.2-1.6
							C0.6,0.8-0.2,5,0,10.6s6.1,15,13.4,17.4S15.2,15.2,15.2,15.2z"/>
						<path id="Path_2351" class="st5" d="M1.6,4c0,0-3.9,12.9,9.7,21.6l1-6.4c0,0-10.2-5.8-8.5-15.6C3.7,3.7,3.2,1.4,1.6,4z"/>
						<path id="Path_2353" class="st6" d="M5.8,1.8c0,0,0-1.1-1.5-1.3S1.2,1.5,2,2S4.7,1.8,5,2.6S4.3,8.4,7.9,12.8
							c0,0,3.4,3.3,5,4.3l0.6-1.8c0,0-5-1.5-6.3-6.1C5.7,4.5,5.8,1.8,5.8,1.8z"/>
					</g>
					<path id="Body" class="st7" d="M88.6,103.3c0,0,17.2-61-7.7-98.5c0,0-28-9.8-49.3,0.5c0,0-21.7,40.5-17.2,94.7
						c0,0,3.6,15.6,32.3,16.3C75.5,116.9,88.6,103.3,88.6,103.3z"/>
					
						<g transform="translate(95.949570, 54.611131) scale(1, -1) translate(-95.949570, -54.611131) translate(85.508892, 40.386993)">
						<path id="Path_2343" class="st8" d="M0.5,15.8c0,0,5.6-1.2,8.1-5c2.5-3.8,4.5-11.9,8-10.7c3.5,1.3,4.5,6.3,2.9,14.1
							c-1.6,7.8-9.6,12.1-14.3,13.4C0.5,29-0.8,20.9,0.5,15.8z"/>
						<path id="Path_2361" class="st9" d="M19,4.7c0,0,1.1,8-1.7,12.9s-7,8.1-11.4,8.3C1.4,26,2.8,23.5,3.2,23
							C3.7,22.4,17.9,19.3,19,4.7z"/>
						<path id="Path_2362" class="st6" d="M17.5,2.5c0,0-0.1-1.4-2.3-0.8S10.9,14,1.2,16v1.9C1.2,17.9,13.8,17.1,17.5,2.5z"/>
						<path id="Path_2350" class="st5" d="M19,4.7c0,0,1.1,8-1.7,12.9s-7,8.1-11.4,8.3C1.4,26,2.8,23.5,3.2,23
							C3.7,22.4,17.9,19.3,19,4.7z"/>
					</g>
					<path id="Chest" class="st10" d="M49.8,14.2c0,0,5-7.8,11.9-6.8s11.9,22,9,33.6c0,0,15.5,12.4,10.1,39.4
						c-5.4,27-28.5,35.2-46.4,26.4s-20.6-48.8-8.1-65c0,0-2.3-12.2,3.9-24.2C36.3,5.9,46.1,1.2,49.8,14.2z"/>
					<path id="Eye" class="st11" d="M59.2,24.4c-0.7,3.8-2.3,6.7-3.4,6.5c-1.1-0.2-1.5-3.5-0.7-7.3s2.3-6.7,3.4-6.5
						C59.7,17.3,60,20.6,59.2,24.4z"/>
					<path class="st11" d="M42.5,23.3c-0.7,3.8-2.3,6.7-3.4,6.5s-1.5-3.5-0.7-7.3s2.3-6.7,3.4-6.5C42.9,16.3,43.3,19.5,42.5,23.3z"
						/>
					<path id="Glow" class="st12" d="M79.1,6.4c0,0-25.3-9.1-46.1,0c0,0-3.4,1.8-1.3,3.8C33.7,12.2,82.3,16.6,79.1,6.4z"/>
					<path class="st13" d="M18.6,58.7c0,0-4.2,22.7-2.4,40c0,0,7.8,15.2,32.4,15.2c24.6,0,36.9-11.5,36.9-11.5s6.9-18.4,6.9-38.6
						c0,0-23.5,28.5-48.3,25.8C19.4,86.9,18.6,58.7,18.6,58.7z"/>
					
						<g id="Beak" transform="translate(44.992125, 39.923252) scale(-1, 1) translate(-44.992125, -39.923252) translate(30.280261, 31.862907)">
						<path id="Path_2402" class="st3" d="M0.9,1.5c0,0,2.7,3.3,5.8,2.3s4.8-2.2,4.8-3.2c5.9-0.8,11.9,0.5,17.7,2
							c0,0-10.3,4.2-14.1,6.9s-7.6,0.8-9.2-1.3C5.9,8.2,5.6,9.9,0.9,1.5z"/>
						<path class="st3" d="M1.6,3.6c0,0,2.3,3.6,5.5,3s5-1.6,5.2-2.6c6,0,8.8,1.8,14.3,3.9c0,0-7.7,3.2-11.9,5.4s-7.6-0.1-9-2.4
							C5.6,10.9,5.2,12.5,1.6,3.6z"/>
						<path id="Path_2403" class="st14" d="M12.2,0c0,0.9,10.4,0.5,14.7,1.8c-2.8,0.7-5.5,1.8-7.9,3.4C15.4,7.7,11,9.5,8.9,8.3
							S6.3,4.7,6.3,4.7S11.9,3.5,12.2,0z"/>
					</g>
				</g>
				<g transform="translate(24.786832, 21.012899)">
					<path class="st15" d="M56.8,11.2C56.8,5,44.7,0,29.8,0C14.9,0,2.9,4.9,2.8,11.1c0,0-2.9,20.1-2.8,20.1
						c0-5.9,12.5-13.1,29.8-13.1c16.1,0,28,7.5,29.6,13C59.4,31.1,56.8,11.2,56.8,11.2z"/>
					<path class="st16" d="M31.4,0v18.2c15.2,0.5,26.4,7.6,27.9,13l-2.6-20C56.8,5.2,45.6,0.4,31.4,0z"/>
				</g>
			</g>
		</g>
	</g>
</g>
</svg>
