<?xml version="1.0" encoding="utf-8"?>
<!-- Generator: Adobe Illustrator 21.1.0, SVG Export Plug-In . SVG Version: 6.00 Build 0)  -->
<svg version="1.1" id="Layer_1" xmlns="http://www.w3.org/2000/svg" xmlns:xlink="http://www.w3.org/1999/xlink" x="0px" y="0px"
	 viewBox="0 0 415 208" preserveAspectRatio="none" style="enable-background:new 0 0 415 208;" xml:space="preserve">
<style type="text/css">
	.st0{opacity:0.446;fill:#FFFFFF;enable-background:new    ;}
	.st1{fill:#FFFFFF;}
</style>
<title>message_cut</title>
<g id="Message">
	<path id="_1" class="st0" d="M0,0v194.1c95.3,2.9,232.2-18.9,308.3-50.3C361.5,121.9,402.4,62.1,414.8,0H0z"/>
	<path id="_2" class="st1" d="M0,0v160.7c25.2,2.6,52.9,3.3,82.5,2.7c135.8-2.7,219.4-11,268.5-76.8c20.9-28,35.8-57.7,38.5-86.6
		C389.5,0,0,0,0,0z"/>
	<path id="_1-2" class="st1" d="M241.1,201.9c0,0,0.2,2.2,1.4,2.8s4.7,1.2,6.3-0.1s1.1-3.5,0.6-4.7s-2.5-1.7-4.3-1.7
		S240.4,199.2,241.1,201.9z"/>
	<path id="_2-2" class="st1" d="M212.9,199.9c0,0,0.5,4.8,3,6.2s10.1,2.7,13.6-0.2s2.3-7.6,1.3-10.3s-5.4-3.8-9.3-3.8
		S211.5,194,212.9,199.9z"/>
	<path id="_3" class="st1" d="M179.3,182.3c0,0,0.7,7.6,4.7,9.8s16.1,4.2,21.6-0.3s3.7-12,2.1-16.3s-8.6-6-14.7-6
		C187,169.4,177,172.9,179.3,182.3z"/>
</g>
</svg>
