<?xml version="1.0" encoding="utf-8"?>
<!-- Generator: Adobe Illustrator 21.1.0, SVG Export Plug-In . SVG Version: 6.00 Build 0)  -->
<svg version="1.1" id="Layer_1" xmlns="http://www.w3.org/2000/svg" xmlns:xlink="http://www.w3.org/1999/xlink" x="0px" y="0px"
	 viewBox="0 0 182 157" style="enable-background:new 0 0 182 157;" xml:space="preserve">
<style type="text/css">
	.st0{opacity:0.446;fill:#FFFFFF;enable-background:new    ;}
	.st1{opacity:0.241;fill:#FFFFFF;enable-background:new    ;}
	.st2{fill:#FFFFFF;}
</style>
<g transform="translate(-4 -5)">
	<path class="st0" d="M23.3,73.8c0,0,2.6-24.5,22-39.4c19.5-14.8,86.4-25,112.3,2.9c25.9,28-1.2,92.5-27.7,102.7s-72.2,7.6-88.3-6.6
		S18.9,99.7,23.3,73.8z"/>
	<path class="st1" d="M169.7,128.7c0,0-14.6,25.4-42.8,32c-28.2,6.7-105.7-14.6-120.2-57.4C-7.9,60.5,52.7,3.7,86.4,5.5
		s81.9,26.6,92.5,49.8C189.5,78.4,187,102.8,169.7,128.7z"/>
	<path class="st2" d="M33.2,86.5c0,0,0.9-30.8,16.3-40.7c15.5-9.8,64-21.4,87.7-4.8s18.5,47.3,13.1,65s-33.3,26.5-57.9,28.3
		S26.4,124.6,33.2,86.5z"/>
</g>
</svg>
