<?xml version="1.0" encoding="utf-8"?>
<!-- Generator: Adobe Illustrator 21.1.0, SVG Export Plug-In . SVG Version: 6.00 Build 0)  -->
<svg version="1.1" id="Layer_1" xmlns="http://www.w3.org/2000/svg" xmlns:xlink="http://www.w3.org/1999/xlink" x="0px" y="0px"
	 viewBox="0 0 168.8 165" style="enable-background:new 0 0 168.8 165;" xml:space="preserve">
<style type="text/css">
	.st0{fill:#0F3C47;}
	.st1{fill:#3F616F;}
	.st2{fill:#E6E7E8;}
	.st3{fill:#193441;}
	.st4{fill:#231F20;}
	.st5{opacity:0.379;fill:#FFFFFF;enable-background:new    ;}
	.st6{opacity:0.5;fill:#FFFFFF;enable-background:new    ;}
	.st7{opacity:0.146;fill:#231F20;enable-background:new    ;}
	.st8{fill:#F7941E;}
	.st9{opacity:0.49;fill:#FFFFFF;enable-background:new    ;}
	.st10{opacity:0.29;fill:#231F20;enable-background:new    ;}
	.st11{fill:#F38F31;}
	.st12{fill:#E87E25;}
	.st13{fill:#798987;}
	.st14{fill:#A73E5C;}
	.st15{fill:#F4B008;}
	.st16{opacity:0.348;fill:#FFFFFF;enable-background:new    ;}
	.st17{fill:#3F616F;stroke:#000000;stroke-width:0.9314;stroke-linecap:round;stroke-linejoin:round;}
	.st18{fill:#FBB245;}
	.st19{fill:#FCC246;}
	.st20{fill:#FACB48;}
	.st21{fill:#FBDC48;}
</style>
<title>Rico_Cut</title>
<g id="Rico_Cut">
	<path class="st0" d="M26.2,117.4c0,0-10.6-2.3-12.9-10c-1.3-4.2-2.1-8.6-2.2-13c0,0-0.8-3.8-5.4-2.7s-6,8.3-5.6,17.9
		s10.6,25.5,23.1,29.5C35.8,143.2,26.2,117.4,26.2,117.4z"/>
	<path class="st1" d="M46.8,52.4c0,0-24.8,45.8-29.8,112.6h136.8c2.7-34.8,0.3-79.6-22.3-113.4C131.5,51.6,83.3,35,46.8,52.4z"/>
	<path d="M131.8,51.2l-0.1-0.1C131.2,51,82.8,34.7,46.6,52h-0.1l-0.1,0.1C46.1,52.7,21.6,98.7,16.6,165h0.9
		c4.9-64.3,28.1-109.4,29.6-112.2C82,36.2,128.2,51,131.2,52c22,32.9,24.4,76.6,22.6,107.5c-0.1,1.9-0.2,3.7-0.4,5.5h0.9
		c0.1-1.8,0.3-3.6,0.4-5.5c1.9-31-0.6-75-22.8-108.2L131.8,51.2z"/>
	<path class="st1" d="M168.8,131.6c-5.2-8.7-15.3-13.7-21.7-15.6c-8-2.3-10.3,11.6-8,20.3c0,0,9.5,2.1,14,8.5s7.8,20.2,13.8,18.1
		c0.7-0.3,1.4-0.6,2-1.1v-30.2H168.8z"/>
	<path class="st2" d="M114.1,113.4c4.9-19.9-3.7-55.6-15.6-57.4c-4.9-0.8-9.2,1.1-12.7,3.5c-3.9,2.8-9.4,2.2-12.6-1.4
		c-7.9-9-20.6-0.7-29.2,15.8C33.7,94.2,37.5,115,37.5,115c-9.1,11.7-13.5,30.8-13.2,50h109C134.7,129.7,114.1,113.4,114.1,113.4z"/>
	<path class="st3" d="M94.8,85.2c-0.6,3.3-2.8,5.6-5,5.3c-2.1-0.4-3.3-3.4-2.6-6.7c0.6-3.4,2.8-5.6,5-5.3
		C94.3,78.8,95.5,81.8,94.8,85.2z"/>
	<path class="st3" d="M65.5,83.3c-0.6,3.3-2.8,5.6-4.8,5.3c-2.1-0.4-3.2-3.4-2.5-6.7c0.6-3.3,2.8-5.6,4.8-5.3
		C65,77,66.1,80,65.5,83.3z"/>
	<path class="st4" d="M168.8,135c-0.3-0.6-0.6-1.2-0.9-1.8c-4.8-8.4-12-13.8-19.7-14.1c-7.7-0.2-5.3,4-4.5,5
		c0.7,0.8,18.8,4.7,25.1,21.5L168.8,135z"/>
	<path class="st4" d="M2.8,98.4c0,0-6.7,21.9,16.6,36.8l1.8-10.9c0,0-17.6-9.8-14.7-26.5C6.5,97.7,5.5,93.9,2.8,98.4z"/>
	<path class="st4" d="M168.2,158.7c0,0-0.1,2.4-3.8,1.4c-3.8-1-7.5-21.1-24.1-24.4v-3.2C140.2,132.5,161.8,133.7,168.2,158.7z"/>
	<path class="st5" d="M10,94.4c0,0,0-1.8-2.5-2.1s-5.4,1.8-3.9,2.6c1.4,0.8,4.5-0.4,5,0.9s-1.1,9.8,5,17.4c0,0,5.8,5.6,8.5,7.3
		l1-3.1c0,0-8.5-2.6-11-10.4C9.8,99.2,10,94.4,10,94.4z"/>
	<path class="st6" d="M128.3,54.5c0,0-43.5-15.4-79.3,0c0,0-5.8,3.1-2.3,6.4C50.3,64.3,134,71.7,128.3,54.5z"/>
	<g>
		<path class="st7" d="M138.3,165h12.3c0.3-4.3,0.5-8.7,0.5-13.1C147.2,156.5,142.9,160.9,138.3,165z"/>
		<path class="st7" d="M29.1,165c-2.7-6.9-4.3-14.1-4.7-21.5c0,0-1.7,8.9-3.1,21.5H29.1z"/>
	</g>
	<path class="st8" d="M93.3,147.2H71c-0.5,0-1,0.3-1.2,0.8l-8.4,17h21.1l11.9-15.6c0.3-0.4,0.4-1,0.1-1.4
		C94.3,147.5,93.8,147.2,93.3,147.2z"/>
	<path class="st9" d="M168.8,135c-0.3-0.6-0.6-1.2-0.9-1.8c-4.8-8.4-12-13.8-19.7-14.1c-7.7-0.2-5.3,4-4.5,5
		c0.7,0.8,18.8,4.7,25.1,21.5L168.8,135z"/>
	<path class="st10" d="M152.3,113.6c-1.5,1.8-7.2,4.4-7.2,4.4c-12.8,7-41.8,9-53.4,9.5c-6.4,0.2-16.1-1.1-25.1-3.1
		c-6.3-1.3-12.6-3-18.7-5.2c-5.2-1.9-21.3-6.8-21.3-6.8c-10.9,0-4.7,6.9-4,12.6c0.4,3.1,2.3,5.5,5.1,7.9
		c14.1,12.6,34,21.3,58.8,21.3c6.2,0,4.7,6.3,5.5,10.8h51.5c1.5-7.1,0.8-17.5,1.2-22.7c0.2-2.5-2.6-2.7-2.5-5.3
		c0.2-2.1,4.8-2.1,4.2-5.1c-1.2-6.3,3.5-10.2,6.1-12.8c0.6-0.6,0.8-1.3,0.6-2.1L152.3,113.6z"/>
	<path class="st11" d="M144.8,115.3c0,0,6.8-3.5,8.4-5.3c1.3-1.5,2.5,5.6,1.2,7.6c-0.2,0.3,0,0-0.2,0.2c-3.3,3.6-11.1,5.3-11.1,5.3
		c-6.5,1.7-4.2,9.3-7.5,16.1c-2.4,4.9-10,9.5-14.8,9.9c-38.4,4-69.8-6.3-93-18.8c-2.7-1.4-5-5.1-5.4-8.2c-0.7-5.6-6.8-12.6,4-12.6
		c0,0,16.1,4.8,21.3,6.8c6.1,2.2,12.3,3.9,18.7,5.2c9,2,18.7,3.4,25.1,3.1C103,124.3,132,122.3,144.8,115.3"/>
	<path class="st12" d="M27.9,130.4c-1.9-1.1-3.1-3.1-3-5.3c0.5-15.7,7.9-13.2,8.3-13.5l0,0l3.5,1.1l2.5,0.8
		c-0.3,0.2-11-2.3-8.8,18.3L27.9,130.4z"/>
	<path class="st12" d="M40.6,136.7c-1.5-15.1,6.6-19.7,7-20.2l5.8,1.9c-4.5,6.1-6.7,13.6-6.1,21.1L40.6,136.7z"/>
	<path class="st12" d="M57.1,142.8c-0.4-16.8,6.4-21.4,6.7-21.8l2.7,0.6l1.8,0.4l1.4,0.3c0.4-1.1-6.4,7.6-6.1,22.4L57.1,142.8z"/>
	<path class="st12" d="M75.7,147.4c-0.4-16.8,5.5-22.9,5.8-23.3l2.5,0.3l1.8,0.2l1.8,0.1c0.4-1.1-4.9,9.1-4.6,23.9h-0.5
		c-1.9-0.1-3.9-0.4-5.7-0.9L75.7,147.4z"/>
	<path class="st13" d="M138.1,128.9c0.4-2.7,2.3-3.8,1.3-6.8c-0.3-1-0.5-3.4-3.7-3.4l0,0l-5.9,1.5c0.1,0.1,8.4,0.8,4.2,21.2
		C134,141.6,136.3,140.7,138.1,128.9z"/>
	<path class="st12" d="M144.6,122.5c-0.7-2-1.5-4-2.5-5.9c0,0,1.6-0.8,2.2-1c0.5-0.2,4.2-2.3,4.2-2.3c0.5,2.4,1.2,4.8,2.2,7.1
		c-1.9,1-3.8,1.7-5.8,2.3L144.6,122.5z"/>
	<path class="st8" d="M140.7,121.1c-4.5-3.4-8.7-4-14.2-3c-8,1.4-11.3,6-21.9,4.6c-17.7-2.4-11.6,23.2-12.3,39.5
		c0,0.9-0.1,1.9-0.1,2.8H143c-0.1-3.2-0.3-6.5-0.4-10.1C142.3,149.2,146.2,125.3,140.7,121.1z"/>
	<path class="st12" d="M92.2,159.2l-0.1-7.3c1.2-0.3,27.9-5.7,50.5-0.3l0.1,7.7C121.5,154.2,92.5,159.1,92.2,159.2z"/>
	<path class="st12" d="M91.8,141v-3.7c0-0.8,0.3-3.3,0.3-3.3c1.2-0.3,28.8-7.2,51.4-1.8v3.6c-0.1,2.3-0.2,3.8-0.2,3.8
		C122.2,134.6,92.1,140.9,91.8,141z"/>
	<path class="st14" d="M65.5,124c0,0,3.8-5.9,0.7-17.5c-3.1-11.6,5.2-2.4,5.2-2.4s9.7,0.8,10.6,0.5c0.9-0.2,4.5,0.9,4.5,0.9
		c0.1,0-3.2,6.8-3.2,6.8S83.3,122.8,65.5,124z"/>
	<path class="st15" d="M92.3,98.8c0,0-4.6,5.6-9.8,3.8s-8.2-7-8.2-7c-10-1.3-20.2-0.7-30,1.8c0,0,17.5,7.2,24,11.9s12.9,3,15.8-0.6
		c0,0-3.8,14.1-18.6,15.4C65.5,124,88.8,128.7,92.3,98.8z"/>
	<path class="st16" d="M73.1,96.2c0,0-17.7-0.8-25,1.4c4.8,1.1,9.3,3,13.4,5.7c6.2,4.3,13.7,8.9,17.5,7s4.2-6.3,4.2-6.3
		S73.8,102.1,73.1,96.2z"/>
	<path class="st17" d="M96.1,46.4c0,0,1.6-1.9,1.4-6.6c-1.2,2.8-3.6,4.9-6.5,5.7c0,0,4.6-4,3.2-15.8c0,0-0.3,10.9-7.2,15.7
		c0,0,2.2-2.8,0.8-9.2c0,0,0.3,6-4.6,9.1"/>
	<g>
		<path class="st18" d="M33.3,49.2c-1.5,0.9-2.7,2.2-3.4,3.7c-1.3,3.4,1.6,6.9,4.4,9.3c12.6,10.8,28.5,18.1,45.1,18
			c7.6,0,15.2-1.6,22.6-3.4c9.9-2.4,19.7-5.2,29.4-8.3c3.2-1.1,6.4-2.2,8.9-4.4s3.9-5.9,2.6-9c-1.2-2.7-4.2-4.2-7-5.4
			C109.7,38.6,80.9,35,52.7,39c-3.3,0.3-6.5,1.3-9.2,3.1C40,44.4,36.6,46.6,33.3,49.2z"/>
		<path class="st19" d="M33.4,50.1c-1.2,1.3-2.3,2.9-2,4.6c0.2,0.9,0.7,1.8,1.4,2.4c8.9,10.8,21.4,18,35.3,20.3
			c18.5,3,37.2-2.9,54.9-9.2c3.6-1.2,7.1-2.7,10.6-4.3c2.1-0.9,4-2.4,5.4-4.2c1.5-1.8,1.8-4.4,0.9-6.5c-0.8-1.8-2.8-2.9-4.5-3.8
			c-2.7-1.3-5.5-2.5-8.3-3.6c-7.5-2.7-15.4-4.2-23.3-5.5C87.7,37.5,71.1,35,55,37.7C46.3,39.2,39.1,43.8,33.4,50.1z"/>
		<path class="st18" d="M138.2,52.3c-1.1,2.4-3.1,4.2-5.4,5.3c-5.5,3-12.1,3.8-18.4,4.3c-11.1,0.8-22.2,0.8-33.3,0.1
			c-4-0.1-8-0.7-11.9-2c-3.9-1.6-7.6-3.6-11-6c-2.5-1.6-5-3.4-7.3-5.3C50,48,49.1,47,48.5,46c-1.3-2.2-1.2-5-0.7-7.6
			c1.4-7.7,4.7-15,9.6-21.1c1.2-1.5,2.5-3,3.9-4.3c5.8-5.7,13-9.8,20.8-12c3.5-0.9,7.2-1.2,10.9-0.8c5,0.6,10,1.1,15,1.8
			c2.2,0.2,4.4,0.6,6.5,1.1c8.9,2.4,15.1,10.8,19,18.6c0.8,1.6,1.5,3.2,2.1,4.9c2.6,6.7,3.7,13.9,3.2,21v0.2
			C139,49.3,138.8,50.9,138.2,52.3z"/>
		<path class="st20" d="M135.9,26.7c-0.3,2.4-0.8,4.9-1.5,7.2c-2.7,8.5-9.2,15.8-17.3,20c-8.1,4.1-17.2,6-26.3,5.4
			c-6.7-0.2-13.3-1.8-19.4-4.7s-11-7.9-13.9-14c-1.4-3.3-2.2-6.9-2.2-10.4c-0.1-4.4,0.6-8.8,2.1-13c1.2-1.5,2.5-3,3.9-4.3
			c5.8-5.6,13-9.7,20.8-11.9c3.5-0.9,7.2-1.2,10.9-0.8c5,0.6,10,1.1,15.1,1.8c2.2,0.2,4.4,0.6,6.5,1.1c8.9,2.4,15.1,10.8,19,18.6
			C134.5,23.3,135.3,25,135.9,26.7z"/>
		<path class="st18" d="M122.1,6.5c-5.6-2.1-11.7-2.5-17.5-1.2C98.8,6.5,93.3,9,88.5,12.4c-3.8,2.5-7.1,5.7-9.7,9.3
			c-3.5,5.1-5.1,11.3-5.9,17.4s-0.8,12.4-1.5,18.4c0,1.3-0.4,2.6-1.1,3.7c-1.2,1.5-3.2,2.2-5.1,1.8c-1.2-0.1-2.4-0.6-3.4-1.3
			c-2.6-1.9-5.4-3.7-7.9-5.7c-2.1-1.7-4.5-2.9-6.7-4.5C45,49.8,46,47,46.6,44.6c4.9-18,19.5-32.6,36.8-40c3.2-1.4,6.5-2.5,9.9-3.2
			c7.5-1.6,15.6-0.5,22.7,2.1l1.2,0.5c1.5,0.7,3,1.5,4.4,2.4C121.7,6.4,121.9,6.4,122.1,6.5z"/>
		<path class="st18" d="M135.4,23.1c-0.8,1.8-3-0.3-4.2-0.6c-1.9-0.5-3.9-0.7-5.9-0.6c-4,0.3-7.8,1.2-11.5,2.8
			c-6.2,2.6-12.3,6.1-16.7,11.2c-1.8,2-3.2,4.2-5.2,5.9c-0.4,0.3-0.8,0.6-1.3,0.7c-0.6,0-1.1-0.2-1.6-0.5c-1.2-0.6-2.4-1.2-3.5-1.8
			c-0.8-0.5-2.5-0.8-3-1.7s0.2-2.6,0.8-3.8c0.1-0.2,0.1-0.4,0.2-0.5c2.9-6.9,8.3-11.3,14.8-14.9c7.2-4.1,15.4-6.2,23.7-6
			c2.5,0.1,4.9,0.6,7.1,1.6c1.6,0.6,3.1,1.6,4.4,2.8c0.9,1.1,1.6,2.4,2,3.7C135.6,22,135.5,22.5,135.4,23.1L135.4,23.1z"/>
		<path class="st21" d="M135.4,21.6c-0.1,0.1-0.2,0.2-0.4,0.2c-0.9-0.6-1.9-1.1-2.9-1.6c-1-0.2-2-0.4-3-0.5
			c-8.3-1.1-16.8,1.8-23.9,5.9c-1.5,0.9-2.9,1.8-4.2,2.9c-3.3,2.6-7.1,5.8-9.3,9.4c-0.3,0.5-0.6,0.9-1.1,1.2
			c-2.1,1.1-6.1-1.8-7.1-3.4c-0.2-0.3-0.3-0.7-0.3-1c0.1-0.2,0.1-0.4,0.2-0.5C86.1,27.3,91.6,23,98,19.4c7.2-4.1,15.5-6.2,23.8-5.9
			c2.5,0.1,4.9,0.6,7.1,1.6c1.6,0.6,3.1,1.6,4.4,2.8C134.3,18.9,135,20.2,135.4,21.6z"/>
		<path class="st21" d="M116,3.4h-0.9c-9.9-0.6-19.7,2.3-27.7,8.2c-6.2,4.2-11.1,10-14.5,16.7c-1.7,3.9-3,7.9-3.9,12.1
			c-1.1,4-1.8,8.2-2.2,12.4c0,3.1-0.4,6.3-1,9.3c-0.1,0.4-0.2,0.8-0.4,1.1c-1.2-0.1-2.4-0.6-3.4-1.3c-2.6-1.9-5.4-3.7-7.9-5.7
			c-2.1-1.7-4.5-2.9-6.7-4.5c-2.2-1.7-1.2-4.5-0.6-6.9C51.4,26.6,65.9,12,83.2,4.6c3.2-1.4,6.5-2.5,9.9-3.2
			C100.8-0.1,108.7,0.6,116,3.4z"/>
	</g>
</g>
</svg>
