<?xml version="1.0" encoding="utf-8"?>
<!-- Generator: Adobe Illustrator 21.1.0, SVG Export Plug-In . SVG Version: 6.00 Build 0)  -->
<svg version="1.1" id="Layer_1" xmlns="http://www.w3.org/2000/svg" xmlns:xlink="http://www.w3.org/1999/xlink" x="0px" y="0px"
	 viewBox="0 0 180 256" style="enable-background:new 0 0 180 256;" xml:space="preserve">
<style type="text/css">
	.st0{opacity:0.3;fill:#231F20;enable-background:new    ;}
	.st1{fill:#F4B008;}
	.st2{fill:#0F3C47;}
	.st3{fill:#3F616F;stroke:#000000;stroke-width:0.927;}
	.st4{fill:#3F616F;}
	.st5{fill:#E6E7E8;}
	.st6{fill:#193441;}
	.st7{fill:#231F20;}
	.st8{opacity:0.379;fill:#FFFFFF;enable-background:new    ;}
	.st9{opacity:0.5;fill:#FFFFFF;enable-background:new    ;}
	.st10{opacity:0.146;fill:#231F20;enable-background:new    ;}
	.st11{fill:#F7941E;}
	.st12{opacity:0.49;fill:#FFFFFF;enable-background:new    ;}
	.st13{opacity:0.29;fill:#231F20;enable-background:new    ;}
	.st14{fill:#F38F31;}
	.st15{fill:#E87E25;}
	.st16{fill:#798987;}
	.st17{fill:#A73E5C;}
	.st18{opacity:0.348;fill:#FFFFFF;enable-background:new    ;}
	.st19{fill:#3F616F;stroke:#000000;stroke-width:0.927;stroke-linecap:round;stroke-linejoin:round;}
	.st20{fill:#FBB245;}
	.st21{fill:#FCC246;}
	.st22{fill:#FACB48;}
	.st23{fill:#FBDC48;}
</style>
<g transform="translate(.421)">
	<g transform="translate(0 29.654)">
		<path class="st0" d="M101.1,188.5c0,0,47.2-3,61.6,9S147,229,78.5,225.8s-47.4-21.1-71.8-24.3S27.7,182,101.1,188.5z"/>
		<path class="st0" d="M97.7,192c0,0,38.1-2.4,49.6,7.2c11.5,9.7-12.7,25.4-67.8,22.8c-55.2-2.6-38.2-17-57.8-19.5
			C1.8,200,38.5,186.8,97.7,192z"/>
		<path class="st1" d="M50.7,199.5l-16.2,10.2c0,0,18.4-2.4,26.6,8.9l5.7-12.3L50.7,199.5z"/>
		<path class="st1" d="M105,206.8l10.5,14.1c0,0,10.2-9.5,23.9-9.4l-16.2-11L105,206.8z"/>
		<path class="st2" d="M32.7,87.2c0,0-10.5-2.3-12.8-10s-2.2-12.9-2.2-12.9s-0.8-3.8-5.4-2.7s-6,8.3-5.6,17.8s10.5,25.4,23,29.4
			C42.3,112.9,32.7,87.2,32.7,87.2z"/>
		<path class="st3" d="M150.7,188.7c0,0,29.5-103.3-13.2-167c0,0-48-16.5-84.3,0.8c0,0-37.2,68.7-29.4,160.4c0,0,6.2,26.5,55.3,27.6
			C128.2,211.7,150.7,188.7,150.7,188.7z"/>
		<path class="st4" d="M145,106c0,0,9.5,2.1,13.9,8.5s7.8,20.1,13.7,18c5.9-2.1,7.8-10.7,4.9-23.9C174.7,95.3,161,88.1,153,85.8
			C145,83.5,142.7,97.3,145,106z"/>
		<path class="st5" d="M79.6,28.2c3.1,3.6,8.6,4.2,12.5,1.4c3.4-2.4,7.7-4.3,12.6-3.5c11.8,1.8,20.4,37.3,15.5,57.1
			c0,0,26.5,21,17.3,66.8c-9.3,45.8-48.8,59.6-79.5,44.8C27.3,180,22.7,112.1,44,84.8c0,0-3.8-20.7,6.5-40.9
			C59.1,27.5,71.7,19.2,79.6,28.2z"/>
		<path class="st6" d="M101,55.2c-0.6,3.3-2.8,5.6-5,5.3c-2.1-0.4-3.3-3.4-2.6-6.7c0.6-3.4,2.8-5.6,5-5.3
			C100.5,48.8,101.7,51.8,101,55.2z"/>
		<path class="st6" d="M71.8,53.3c-0.6,3.3-2.8,5.6-4.8,5.3c-2.1-0.4-3.2-3.4-2.5-6.7c0.6-3.3,2.8-5.6,4.8-5.3
			C71.3,47,72.4,50,71.8,53.3z"/>
		<path class="st7" d="M176.7,124.8c0,0,1.9-13.5-3-21.9c-4.8-8.4-11.9-13.7-19.6-14c-7.7-0.2-5.3,4-4.5,5
			C150.4,94.8,174.8,100,176.7,124.8z"/>
		<path class="st7" d="M9.4,68.3c0,0-6.7,21.8,16.5,36.6l1.8-10.8c0,0-17.5-9.8-14.6-26.4C13.1,67.6,12.1,63.8,9.4,68.3z"/>
		<path class="st7" d="M174,128.3c0,0-0.1,2.4-3.8,1.4c-3.8-1-7.5-21-24-24.3v-3.2C146.2,102.2,167.7,103.4,174,128.3z"/>
		<path class="st8" d="M16.6,64.3c0,0,0-1.8-2.5-2.1c-2.5-0.3-5.4,1.8-3.9,2.6c1.4,0.8,4.5-0.4,5,0.9c0.5,1.3-1.1,9.8,5,17.3
			c0,0,5.8,5.6,8.5,7.3l1-3.1c0,0-8.5-2.6-10.9-10.4C16.4,69.1,16.6,64.3,16.6,64.3z"/>
		<path class="st9" d="M134.3,24.6c0,0-43.3-15.3-78.9,0c0,0-5.8,3.1-2.3,6.4C56.7,34.4,140,41.7,134.3,24.6z"/>
		<path class="st10" d="M30.9,113.2c0,0-7.2,38.5-4.2,67.7c0,0,13.4,25.6,55.5,25.6s63.1-19.5,63.1-19.5s11.8-31.2,11.8-65.5
			c0,0-40.2,48.2-82.6,43.7C32.3,160.9,30.9,113.2,30.9,113.2z"/>
		<path class="st11" d="M66.1,180.4l20.7-20.7c0.4-0.4,0.5-0.9,0.3-1.4c-0.2-0.5-0.7-0.8-1.2-0.8h-1.6c-0.5,0-1-0.3-1.2-0.7
			c-0.2-0.5-0.2-1,0.1-1.4l11-13.7c0.3-0.4,0.4-0.9,0.1-1.4s-0.7-0.7-1.2-0.7h-5.5c-0.5,0-1-0.3-1.2-0.7c-0.2-0.5-0.2-1,0.1-1.4
			l14.1-18.5c0.3-0.4,0.4-0.9,0.1-1.4c-0.2-0.5-0.7-0.7-1.2-0.7H77.3c-0.5,0-1,0.3-1.2,0.8l-10.8,21.7c-0.2,0.4-0.2,0.9,0.1,1.3
			c0.3,0.4,0.7,0.6,1.2,0.6h5c0.5,0,0.9,0.2,1.1,0.6s0.3,0.9,0.1,1.3l-7.4,14.9c-0.2,0.4-0.2,0.9,0.1,1.3c0.3,0.4,0.7,0.6,1.2,0.6
			h4.6c0.5,0,0.9,0.2,1.1,0.6c0.2,0.4,0.3,0.9,0.1,1.3L64,178.8c-0.3,0.6-0.2,1.3,0.4,1.7C64.9,180.9,65.6,180.9,66.1,180.4
			L66.1,180.4z"/>
		<path class="st12" d="M176.7,124.8c0,0,1.9-13.5-3-21.9c-4.8-8.4-11.9-13.7-19.6-14c-7.7-0.2-5.3,4-4.5,5
			C150.4,94.8,174.8,100,176.7,124.8z"/>
		<path class="st13" d="M151,87.8c-12.7,7-41.6,9-53.1,9.5c-6.4,0.2-16-1.1-25-3.1c-6.3-1.3-12.5-3-18.6-5.2
			c-5.2-1.9-21.2-6.8-21.2-6.8c-10.8,0-4.7,6.9-4,12.5c0.4,3.1,2.3,5.5,5.1,7.9c14,12.5,33.8,21.2,58.5,21.2c9.8,0,0.3,16.1,11.1,15
			c3.2-0.3,28.5,9.7,41.6,2.7c6.5-3.4,4.5-22,5.2-29.5c0.2-2.5-2.6-2.7-2.5-5.3c0.2-2.1,4.8-2.1,4.2-5.1c-1.2-6.3,3.5-10.2,6.1-12.7
			c0.5-0.5,0.8-1.3,0.6-2.1l-0.8-3.4C156.7,85.2,151,87.8,151,87.8"/>
		<path class="st14" d="M150.7,85.1c0,0,6.8-3.5,8.4-5.3c1.3-1.5,2.5,5.6,1.2,7.6c-0.2,0.3,0,0-0.2,0.2c-3.3,3.6-11,5.3-11,5.3
			c-6.5,1.7-4.2,9.3-7.5,16c-2.4,4.9-10,9.5-14.7,9.9c-38.2,4-69.5-6.3-92.6-18.7c-2.7-1.4-5-5.1-5.4-8.2c-0.7-5.6-6.8-12.5,4-12.5
			c0,0,16,4.8,21.2,6.8c6.1,2.2,12.3,3.9,18.6,5.2c9,2,18.6,3.4,25,3.1C109.1,94.1,138,92.1,150.7,85.1"/>
		<path class="st15" d="M34.4,100.2c-1.9-1-3.1-3.1-3-5.3c0.5-15.6,7.9-13.1,8.3-13.4l0,0l3.5,1.1l2.5,0.8
			c-0.3,0.2-10.9-2.3-8.8,18.2L34.4,100.2z"/>
		<path class="st15" d="M47,106.4c-1.5-15,6.6-19.6,7-20.1l5.8,1.9c0.7-0.8-7.3,8.2-6.1,21L47,106.4z"/>
		<path class="st15" d="M63.5,112.5c-0.4-16.7,6.4-21.3,6.7-21.7l2.7,0.6l1.8,0.4l1.4,0.3c0.4-1.1-6.4,7.6-6.1,22.3L63.5,112.5z"/>
		<path class="st15" d="M82,117.1c-0.4-16.7,5.5-22.8,5.8-23.2l2.5,0.3l1.8,0.2l1.8,0.1c0.4-1.1-4.9,9.1-4.6,23.8h-0.5
			c-1.9-0.1-3.8-0.4-5.7-0.9L82,117.1z"/>
		<path class="st16" d="M144.1,98.7c0.4-2.7,2.3-3.8,1.3-6.8c-0.3-1-0.5-3.4-3.7-3.4l0,0l-5.9,1.5c0.1,0.1,8.4,0.8,4.2,21.1
			C140,111.3,142.3,110.4,144.1,98.7z"/>
		<path class="st15" d="M150.5,92.3c-0.7-2-1.5-4-2.5-5.9c0,0,1.6-0.8,2.2-1c0.5-0.2,4.2-2.3,4.2-2.3c0.5,2.4,1.2,4.8,2.2,7.1
			c-1.9,1-3.8,1.7-5.8,2.3L150.5,92.3z"/>
		<path class="st11" d="M132.6,87.9c-8,1.4-11.2,6-21.8,4.6c-17.6-2.4-11.5,23.1-12.2,39.3c-0.8,20.8-3.5,35.3-0.8,38.5
			c3.8,4.4,49.5,5.4,51.2,4c1.4-1.1,0.8-18-0.5-49.8c-0.2-5.6,3.6-29.4-1.8-33.6C142.2,87.5,138,86.9,132.6,87.9z"/>
		<path class="st11" d="M104.8,169.3c0,0.2,0,0.4,0.1,0.5c0.1,0.3,0.2,0.8,0.2,1.4c0.1,0.6,0.2,1.3,0.4,2c0.2,0.8,0.4,1.4,0.6,2.2
			c0.2,0.8,0.5,1.5,0.8,2.2c0.3,0.7,0.6,1.3,0.8,1.8c0.1,0.2,0.3,0.5,0.5,0.7c0.1,0.2,0.2,0.4,0.4,0.5c0.1,0.1,0.2,0.3,0.3,0.5
			l-0.4-0.4c-0.1-0.2-0.3-0.3-0.5-0.5c-0.2-0.2-0.4-0.4-0.5-0.6c-0.3-0.5-0.8-1.1-1.2-1.8c-0.3-0.7-0.8-1.4-1.1-2.1
			c-0.3-0.8-0.7-1.4-0.9-2.2c-0.3-0.6-0.5-1.3-0.7-2c-0.2-0.5-0.3-1-0.5-1.4c-0.1-0.3-0.2-0.5-0.2-0.5L104.8,169.3z M112,170.2
			c0,0.2,0,0.4,0.1,0.5c0.1,0.3,0.2,0.8,0.2,1.4c0.1,0.6,0.2,1.3,0.4,2c0.2,0.8,0.4,1.4,0.6,2.2c0.2,0.8,0.5,1.5,0.8,2.2
			c0.3,0.7,0.6,1.3,0.8,1.8c0.1,0.2,0.3,0.5,0.5,0.7c0.1,0.2,0.2,0.4,0.4,0.5c0.1,0.1,0.2,0.3,0.3,0.5l-0.4-0.4
			c-0.1-0.2-0.3-0.3-0.5-0.5c-0.2-0.2-0.4-0.4-0.5-0.6c-0.3-0.5-0.8-1.1-1.2-1.8c-0.3-0.7-0.8-1.4-1.1-2.1c-0.3-0.8-0.7-1.4-0.9-2.2
			c-0.3-0.6-0.5-1.3-0.7-2c-0.2-0.5-0.3-1-0.5-1.4c-0.1-0.3-0.2-0.5-0.2-0.5L112,170.2z M119,171.2c0,0.2,0,0.4,0.1,0.5
			c0.1,0.3,0.2,0.8,0.2,1.4c0.1,0.6,0.2,1.2,0.4,2c0.2,0.8,0.4,1.4,0.6,2.2s0.5,1.5,0.8,2.2c0.3,0.7,0.6,1.3,0.8,1.8
			c0.1,0.2,0.3,0.5,0.5,0.7c0.1,0.2,0.2,0.4,0.4,0.5c0.1,0.1,0.2,0.3,0.3,0.5l-0.4-0.4c-0.1-0.2-0.3-0.3-0.5-0.5
			c-0.2-0.2-0.4-0.4-0.5-0.6c-0.3-0.5-0.8-1.1-1.2-1.8c-0.3-0.7-0.8-1.4-1.1-2.1s-0.7-1.4-0.9-2.2c-0.3-0.6-0.5-1.3-0.7-2
			c-0.2-0.5-0.3-1-0.5-1.4c-0.1-0.3-0.2-0.5-0.2-0.5L119,171.2z M126.1,172.2c0,0.2,0,0.4,0.1,0.5c0.1,0.3,0.2,0.8,0.2,1.4
			c0.1,0.6,0.2,1.3,0.4,2c0.2,0.8,0.4,1.4,0.6,2.2c0.2,0.8,0.5,1.5,0.8,2.2c0.3,0.7,0.6,1.3,0.8,1.8c0.1,0.2,0.3,0.5,0.5,0.7
			c0.1,0.2,0.2,0.4,0.4,0.5c0.1,0.1,0.2,0.3,0.3,0.5l-0.4-0.4c-0.1-0.2-0.3-0.3-0.5-0.5c-0.2-0.2-0.4-0.4-0.5-0.6
			c-0.3-0.5-0.8-1.1-1.2-1.8c-0.3-0.7-0.8-1.4-1.1-2.1c-0.3-0.8-0.7-1.4-0.9-2.2c-0.3-0.6-0.5-1.3-0.7-2c-0.2-0.5-0.3-1-0.5-1.4
			c-0.1-0.3-0.2-0.5-0.2-0.5L126.1,172.2z M133.1,171.5c0,0.2,0,0.4,0.1,0.5c0.1,0.3,0.2,0.8,0.2,1.4c0.1,0.6,0.2,1.3,0.4,2
			c0.2,0.8,0.4,1.4,0.6,2.2c0.2,0.8,0.5,1.5,0.8,2.2c0.3,0.7,0.6,1.3,0.8,1.8c0.1,0.2,0.3,0.5,0.5,0.7c0.1,0.2,0.2,0.4,0.4,0.5
			c0.1,0.1,0.2,0.3,0.3,0.5l-0.4-0.4c-0.1-0.2-0.3-0.3-0.5-0.5c-0.2-0.2-0.4-0.4-0.5-0.6c-0.3-0.5-0.8-1.1-1.2-1.8
			c-0.3-0.7-0.8-1.4-1.1-2.1c-0.3-0.8-0.7-1.4-0.9-2.2c-0.3-0.6-0.5-1.3-0.7-2c-0.2-0.5-0.3-1-0.5-1.4c-0.1-0.3-0.2-0.5-0.2-0.5
			L133.1,171.5z M140.2,172.5c0,0.2,0,0.4,0.1,0.5c0.1,0.3,0.2,0.8,0.2,1.4c0.1,0.6,0.2,1.3,0.4,2c0.2,0.8,0.4,1.4,0.6,2.2
			c0.2,0.8,0.5,1.5,0.8,2.2c0.3,0.7,0.6,1.3,0.8,1.8c0.1,0.2,0.3,0.5,0.5,0.7c0.1,0.2,0.2,0.4,0.4,0.5c0.1,0.1,0.2,0.3,0.3,0.5
			l-0.4-0.4c-0.1-0.2-0.3-0.3-0.5-0.5c-0.2-0.2-0.4-0.4-0.5-0.6c-0.3-0.5-0.8-1.1-1.2-1.8c-0.3-0.7-0.8-1.4-1.1-2.1
			c-0.3-0.8-0.7-1.4-0.9-2.2c-0.3-0.6-0.5-1.3-0.7-2c-0.2-0.5-0.3-1-0.5-1.4c-0.1-0.3-0.2-0.5-0.2-0.5L140.2,172.5z M146.5,171.8
			c0,0.2,0,0.4,0.1,0.5c0.1,0.3,0.2,0.8,0.2,1.4c0.1,0.6,0.2,1.3,0.4,2c0.2,0.8,0.4,1.4,0.6,2.2c0.2,0.8,0.5,1.5,0.8,2.2
			c0.3,0.7,0.6,1.3,0.8,1.8c0.1,0.2,0.3,0.5,0.5,0.7c0.1,0.2,0.2,0.4,0.4,0.5c0.1,0.1,0.2,0.3,0.3,0.5l-0.4-0.4
			c-0.1-0.2-0.3-0.3-0.5-0.5c-0.2-0.2-0.4-0.4-0.5-0.6c-0.3-0.5-0.8-1.1-1.2-1.8c-0.3-0.7-0.8-1.4-1.1-2.1c-0.3-0.8-0.7-1.4-0.9-2.2
			c-0.3-0.6-0.5-1.3-0.7-2c-0.2-0.5-0.3-1-0.5-1.4c-0.1-0.3-0.2-0.5-0.2-0.5L146.5,171.8z M143.6,172.1c0,0.2,0,0.4,0.1,0.5
			c0.1,0.3,0.2,0.8,0.2,1.4c0.1,0.6,0.2,1.3,0.4,2c0.2,0.8,0.4,1.4,0.6,2.2c0.2,0.8,0.5,1.5,0.8,2.2c0.3,0.7,0.6,1.3,0.8,1.8
			c0.1,0.2,0.3,0.5,0.5,0.7c0.1,0.2,0.2,0.4,0.4,0.5c0.1,0.1,0.2,0.3,0.3,0.5l-0.4-0.4c-0.1-0.2-0.3-0.3-0.5-0.5
			c-0.2-0.2-0.4-0.4-0.5-0.6c-0.3-0.5-0.8-1.1-1.2-1.8c-0.3-0.7-0.8-1.4-1.1-2.1c-0.3-0.8-0.7-1.4-0.9-2.2c-0.3-0.6-0.5-1.3-0.7-2
			c-0.2-0.5-0.3-1-0.5-1.4c-0.1-0.3-0.2-0.5-0.2-0.5L143.6,172.1z M136.9,172.8c0,0.2,0,0.4,0.1,0.5c0.1,0.3,0.2,0.8,0.2,1.4
			c0.1,0.6,0.2,1.3,0.4,2c0.2,0.8,0.4,1.4,0.6,2.2c0.2,0.8,0.5,1.5,0.8,2.2c0.3,0.7,0.6,1.3,0.8,1.8c0.1,0.2,0.3,0.5,0.5,0.7
			c0.1,0.2,0.2,0.4,0.4,0.5c0.1,0.1,0.2,0.3,0.3,0.5l-0.4-0.4c-0.1-0.2-0.3-0.3-0.5-0.5c-0.2-0.2-0.4-0.4-0.5-0.6
			c-0.3-0.5-0.8-1.1-1.2-1.8c-0.3-0.7-0.8-1.4-1.1-2.1c-0.3-0.8-0.7-1.4-0.9-2.2c-0.3-0.6-0.5-1.3-0.7-2c-0.2-0.5-0.3-1-0.5-1.4
			c-0.1-0.3-0.2-0.5-0.2-0.5L136.9,172.8z M129.6,173.3c0,0.2,0,0.4,0.1,0.5c0.1,0.3,0.2,0.8,0.2,1.4c0.1,0.6,0.2,1.3,0.4,2
			c0.2,0.8,0.4,1.4,0.6,2.2c0.2,0.8,0.5,1.5,0.8,2.2c0.3,0.7,0.6,1.3,0.8,1.8c0.1,0.2,0.3,0.5,0.5,0.7c0.1,0.2,0.2,0.4,0.4,0.5
			c0.1,0.1,0.2,0.3,0.3,0.5l-0.4-0.4c-0.1-0.2-0.3-0.3-0.5-0.5c-0.2-0.2-0.4-0.4-0.5-0.6c-0.3-0.5-0.8-1.1-1.2-1.8
			c-0.3-0.7-0.8-1.4-1.1-2.1s-0.7-1.4-0.9-2.2c-0.3-0.6-0.5-1.3-0.7-2c-0.2-0.5-0.3-1-0.5-1.4c-0.1-0.3-0.2-0.5-0.2-0.5L129.6,173.3
			z M123.1,172.5c0,0.2,0,0.4,0.1,0.5c0.1,0.3,0.2,0.8,0.2,1.4c0.1,0.6,0.2,1.3,0.4,2c0.2,0.8,0.4,1.4,0.6,2.2
			c0.2,0.8,0.5,1.5,0.8,2.2c0.3,0.7,0.6,1.3,0.8,1.8c0.1,0.2,0.3,0.5,0.5,0.7c0.1,0.2,0.2,0.4,0.4,0.5c0.1,0.1,0.2,0.3,0.3,0.5
			l-0.4-0.4c-0.1-0.2-0.3-0.3-0.5-0.5c-0.2-0.2-0.4-0.4-0.5-0.6c-0.3-0.5-0.8-1.1-1.2-1.8c-0.3-0.7-0.8-1.4-1.1-2.1
			c-0.3-0.8-0.7-1.4-0.9-2.2c-0.3-0.6-0.5-1.3-0.7-2c-0.2-0.5-0.3-1-0.5-1.4c-0.1-0.3-0.2-0.5-0.2-0.5L123.1,172.5z M115.2,170.7
			c0,0.2,0,0.4,0.1,0.5c0.1,0.3,0.2,0.8,0.2,1.4c0.1,0.6,0.2,1.3,0.4,2c0.2,0.8,0.4,1.4,0.6,2.2s0.5,1.5,0.8,2.2
			c0.3,0.7,0.6,1.3,0.8,1.8c0.1,0.2,0.3,0.5,0.5,0.7c0.1,0.2,0.2,0.4,0.4,0.5c0.1,0.1,0.2,0.3,0.3,0.5l-0.4-0.4
			c-0.1-0.2-0.3-0.3-0.5-0.5c-0.2-0.2-0.4-0.4-0.5-0.6c-0.3-0.5-0.8-1.1-1.2-1.8c-0.3-0.7-0.8-1.4-1.1-2.1s-0.7-1.4-0.9-2.2
			c-0.3-0.6-0.5-1.3-0.7-2c-0.2-0.5-0.3-1-0.5-1.4c-0.1-0.3-0.2-0.5-0.2-0.5L115.2,170.7z M108.7,169.8c0,0.2,0,0.4,0.1,0.5
			c0.1,0.3,0.2,0.8,0.2,1.4c0.1,0.6,0.2,1.3,0.4,2c0.2,0.8,0.4,1.4,0.6,2.2c0.2,0.8,0.5,1.5,0.8,2.2c0.3,0.7,0.6,1.3,0.8,1.8
			c0.1,0.2,0.3,0.5,0.5,0.7c0.1,0.2,0.2,0.4,0.4,0.5c0.1,0.1,0.2,0.3,0.3,0.5l-0.4-0.4c-0.1-0.2-0.3-0.3-0.5-0.5
			c-0.2-0.2-0.4-0.4-0.5-0.6c-0.3-0.5-0.8-1.1-1.2-1.8c-0.3-0.7-0.8-1.4-1.1-2.1s-0.7-1.4-0.9-2.2c-0.3-0.6-0.5-1.3-0.7-2
			c-0.2-0.5-0.3-1-0.5-1.4c-0.1-0.3-0.2-0.5-0.2-0.5L108.7,169.8z M101.5,169.4c0,0.2,0,0.4,0.1,0.5c0.1,0.3,0.2,0.8,0.2,1.4
			c0.1,0.6,0.2,1.3,0.4,2c0.2,0.8,0.4,1.4,0.6,2.2c0.2,0.8,0.5,1.5,0.8,2.2c0.3,0.7,0.6,1.3,0.8,1.8c0.1,0.2,0.3,0.5,0.5,0.7
			c0.1,0.2,0.2,0.4,0.4,0.5c0.1,0.1,0.2,0.3,0.3,0.5l-0.4-0.4c-0.1-0.2-0.3-0.3-0.5-0.5c-0.2-0.2-0.4-0.4-0.5-0.6
			c-0.3-0.5-0.8-1.1-1.2-1.8c-0.3-0.7-0.8-1.4-1.1-2.1s-0.7-1.4-0.9-2.2c-0.3-0.6-0.5-1.3-0.7-2c-0.2-0.5-0.3-1-0.5-1.4
			c-0.1-0.3-0.2-0.5-0.2-0.5L101.5,169.4z"/>
		<path class="st15" d="M98.4,128.8l-0.1-7.3c1.2-0.3,27.8-5.7,50.3-0.3l0.1,7.7C127.6,123.8,98.7,128.7,98.4,128.8z"/>
		<path class="st15" d="M98,110.7v-3.7c0-0.8,0.3-3.3,0.3-3.3c1.2-0.3,28.7-7.2,51.2-1.8v3.6c-0.1,2.3-0.2,3.8-0.2,3.8
			C128.3,104.3,98.3,110.6,98,110.7z"/>
		<path class="st15" d="M97.7,146.4l0.5-6.7c1.3-0.2,32.8-2.7,51.1,1.2l0.2,6.7C132,143.9,98,146.4,97.7,146.4z"/>
		<path class="st15" d="M96.6,162.4l0.4-6.6c1.3-0.1,30.6,0.8,52.8,2.1l0.1,6.4C123.9,164.4,96.9,162.4,96.6,162.4z"/>
		<path class="st17" d="M71.8,93.8c0,0,3.8-5.9,0.7-17.4c-3.1-11.5,5.2-2.4,5.2-2.4s9.7,0.8,10.5,0.5c0.9-0.2,4.5,0.9,4.5,0.9
			c0.1,0-3.2,6.8-3.2,6.8S89.5,92.6,71.8,93.8z"/>
		<path class="st1" d="M98.5,68.7c0,0-4.6,5.6-9.8,3.8c-5.2-1.8-8.2-7-8.2-7c-10-1.3-20.1-0.7-29.9,1.8c0,0,17.4,7.2,23.9,11.8
			c6.5,4.6,12.8,3,15.7-0.6c0,0-3.8,14-18.5,15.3C71.8,93.8,95,98.5,98.5,68.7z"/>
		<path class="st18" d="M79.4,66.1c0,0-17.6-0.8-24.9,1.4c4.7,1.1,9.3,3,13.3,5.7c6.2,4.3,13.6,8.9,17.4,7s4.2-6.3,4.2-6.3
			S80.1,72,79.4,66.1z"/>
		<path class="st19" d="M102.3,16.6c0,0,1.6-1.9,1.4-6.6c-1.2,2.8-3.6,4.8-6.5,5.7c0,0,4.6-4,3.2-15.7c0,0-0.3,10.8-7.2,15.6
			c0,0,2.2-2.8,0.8-9.2c0,0,0.3,6-4.6,9.1"/>
	</g>
	<g transform="matrix(-1 0 0 1 150.055 0)">
		<path class="st20" d="M110.3,49c1.4,1,2.8,2.1,3.4,3.7c1.3,3.4-1.6,6.9-4.4,9.3c-12.5,10.7-28.4,18-44.9,17.9
			c-7.6,0-15.1-1.6-22.5-3.4c-9.9-2.4-19.6-5.2-29.3-8.3c-3.2-1.1-6.4-2.2-8.9-4.4c-2.5-2.2-3.9-5.9-2.6-9c1.2-2.7,4.2-4.2,7-5.4
			C34.3,38.5,63,34.8,91,38.8c3.8,0.5,6,1.1,9.2,3.1C103.6,44.2,107,46.4,110.3,49z"/>
		<path class="st21" d="M110.2,49.9c1.2,1.3,2.3,2.9,2,4.6c-0.2,0.9-0.7,1.8-1.4,2.4C102,67.6,89.5,74.8,75.7,77.1
			c-18.4,3-37-2.9-54.6-9.2c-3.6-1.2-7.1-2.7-10.5-4.3c-2.1-1.1-4.1-2.3-5.4-4.2c-1.5-1.8-1.8-4.3-0.9-6.5c0.8-1.8,2.8-2.9,4.5-3.8
			c2.7-1.3,5.5-2.5,8.3-3.6c7.5-2.7,15.3-4.2,23.2-5.5c16-2.8,32.5-5.3,48.6-2.6C97.3,39,104.5,43.6,110.2,49.9z"/>
		<path class="st20" d="M5.9,52.1c1,2.4,3.1,4.1,5.4,5.3c5.5,3,12,3.8,18.3,4.3c11,0.8,22.1,0.8,33.1,0.1c4-0.2,8.1-0.6,11.8-2
			c3.9-1.4,7.4-3.7,10.9-6c2.5-1.7,5-3.3,7.3-5.3c1-0.8,1.9-1.7,2.5-2.7c1.3-2.2,1.2-5,0.7-7.6c-1.4-7.7-4.7-14.9-9.6-21
			c-1.2-1.5-2.5-3-3.9-4.3C76.6,7.2,69.5,3.1,61.7,1c-3.5-0.9-7.2-1.2-10.8-0.8c-5,0.6-10,1.1-15,1.8c-2.2,0.2-4.4,0.6-6.5,1.1
			c-8.9,2.4-15,10.7-18.9,18.5c-0.8,1.6-1.5,3.3-2.1,4.9c-2.6,6.7-3.6,13.8-3.2,20.9v0.2C5.1,49.2,5.3,50.7,5.9,52.1z"/>
		<path class="st22" d="M8.2,26.6C8.5,29,9,31.4,9.7,33.8c2.7,8.5,9.2,15.7,17.2,19.9s17.2,5.9,26.2,5.4c6.7-0.3,13.4-1.7,19.3-4.7
			c6-3,11.1-7.9,13.8-13.9c1.4-3.3,2.2-6.8,2.2-10.4c0.1-3.9-0.5-8.9-2.1-12.9c-1.2-1.5-2.5-3-3.9-4.3C76.6,7.3,69.5,3.2,61.7,1.1
			c-3.5-0.9-7.2-1.2-10.8-0.8c-5,0.6-10,1.1-15,1.8c-2.2,0.2-4.4,0.6-6.5,1.1c-8.9,2.4-15,10.7-18.9,18.5
			C9.6,23.2,8.8,24.9,8.2,26.6z"/>
		<path class="st20" d="M21.9,6.5C27.5,4.4,33.5,4,39.3,5.3c5.8,1.2,11.2,3.7,16,7.1c3.8,2.5,7,5.6,9.7,9.3
			c3.5,5.1,5.1,11.2,5.9,17.3s0.8,12.3,1.5,18.3c0,1.3,0.4,2.6,1.1,3.7c1.2,1.6,3.1,2.1,5.1,1.8c1.2-0.1,2.4-0.6,3.4-1.3
			c2.6-1.9,5.4-3.7,7.9-5.7c2.1-1.7,4.5-2.9,6.7-4.5c2.2-1.7,1.2-4.5,0.6-6.9C92.3,26.5,77.8,12,60.6,4.6c-3.2-1.4-6.5-2.5-9.9-3.2
			c-7.5-1.6-15.5-0.5-22.6,2.1L26.9,4c-1.5,0.7-3,1.5-4.4,2.4C22.3,6.4,22.1,6.4,21.9,6.5z"/>
		<path class="st20" d="M8.7,23c0.8,1.8,3-0.3,4.2-0.6c1.9-0.5,3.9-0.7,5.9-0.6c3.9,0.3,7.8,1.2,11.4,2.8
			c6.2,2.6,12.2,6.1,16.6,11.1c1.8,2,3.2,4.2,5.2,5.9c0.4,0.3,0.8,0.6,1.3,0.7c0.6,0,1.1-0.1,1.5-0.5c1.2-0.6,2.4-1.2,3.5-1.8
			c0.8-0.5,2.5-0.8,3-1.7c0.5-0.9-0.2-2.6-0.8-3.8c-0.1-0.2-0.1-0.4-0.2-0.5c-2.9-6.9-8.3-11.2-14.7-14.8C38.5,15.1,30.3,13,22,13.2
			c-2.4,0.1-4.8,0.6-7.1,1.6c-1.6,0.6-3.1,1.6-4.4,2.8c-0.9,1.1-1.6,2.4-2,3.7C8.5,21.9,8.5,22.5,8.7,23L8.7,23z"/>
		<path class="st23" d="M8.7,21.5c0.1,0.1,0.2,0.2,0.4,0.2c0.9-0.6,1.9-1.1,2.9-1.6c1-0.2,2-0.4,3-0.5c8.3-1.1,16.7,1.8,23.8,5.9
			c1.5,0.9,2.9,1.8,4.2,2.9c3.3,2.6,7.1,5.8,9.3,9.4c0.3,0.5,0.6,0.9,1.1,1.2c2.1,1.1,6.1-1.8,7.1-3.4c0.1-0.3,0.3-0.6,0.3-1
			c-0.1-0.2-0.1-0.4-0.2-0.5c-2.9-6.9-8.3-11.2-14.7-14.8c-7.2-4.1-15.4-6.2-23.7-5.9c-2.4,0.1-4.8,0.6-7.1,1.6
			c-1.6,0.6-3.1,1.6-4.4,2.8C9.7,18.8,9.1,20.1,8.7,21.5z"/>
		<path class="st23" d="M28,3.4h0.9c10.4-0.5,19.2,2.3,27.6,8.2c6.1,4.2,11.1,9.9,14.4,16.6c1.7,3.9,3,7.9,3.9,12
			c1.1,4,1.8,8.1,2.2,12.3c0.2,3.1,0.2,6.2,1,9.3c0.1,0.4,0.2,0.7,0.4,1.1c1.2-0.1,2.4-0.6,3.4-1.3c2.6-1.9,5.4-3.7,7.9-5.7
			c2.1-1.7,4.5-2.9,6.7-4.5c2.2-1.7,1.2-4.5,0.6-6.9C92.3,26.5,77.8,12,60.6,4.6c-3.2-1.4-6.5-2.5-9.9-3.2C43.1-0.2,35.1,0.8,28,3.4
			z"/>
	</g>
</g>
</svg>
