<svg xmlns="http://www.w3.org/2000/svg" xmlns:xlink="http://www.w3.org/1999/xlink" version="1.1" x="0px" y="0px" viewBox="0 0 64 80" style="enable-background:new 0 0 64 64;" xml:space="preserve"><path d="M17,62h30c0.552,0,1-0.447,1-1v-6h1c0.216,0,0.427-0.07,0.6-0.2l4-3c0.252-0.188,0.4-0.485,0.4-0.8v-4v-4v-3.764  l2.895-5.789c0.027-0.055,0.049-0.111,0.066-0.169l2.346-8.112C59.767,23.806,60,22.404,60,21c0-7.168-5.832-13-13-13  s-13,5.832-13,13c0,1.404,0.233,2.806,0.681,4.124l2.359,8.154c0.017,0.058,0.039,0.114,0.066,0.169L40,39.236V43v4v4  c0,0.314,0.148,0.611,0.4,0.8l4,3c0.173,0.13,0.384,0.2,0.6,0.2h1v5H18v-4.451c0.229-0.029,0.439-0.069,0.645-0.11  c0.001,0,0.001,0,0.002,0c0.151-0.03,0.289-0.061,0.426-0.095c0.057-0.014,0.111-0.028,0.165-0.042  c0.18-0.048,0.341-0.093,0.488-0.141c0.078-0.025,0.157-0.05,0.224-0.073c0.063-0.022,0.114-0.041,0.168-0.061  c0.106-0.039,0.195-0.074,0.256-0.1c0.004-0.002,0.011-0.004,0.015-0.006c0.009-0.004,0.016-0.009,0.025-0.012  c0.283-0.121,0.553-0.257,0.812-0.403c0.031-0.018,0.062-0.04,0.094-0.058c0.245-0.143,0.48-0.297,0.704-0.461  c0.016-0.011,0.031-0.019,0.047-0.031l-0.003-0.004c3.061-2.269,4.227-6.336,4.894-8.677c1.159-4.068,0.917-6.645,0.683-9.136  c-0.206-2.191-0.418-4.458,0.333-7.927c1.409-6.508,3.856-10.657,3.881-10.699c0.244-0.408,0.166-0.933-0.187-1.253  c-0.354-0.319-0.881-0.349-1.265-0.064c-0.165,0.122-2.715,2.009-5.514,4.5c-0.012-0.207-0.033-0.404-0.047-0.608  c0.005-0.057,0.026-0.112,0.021-0.17c-0.034-0.405-0.085-0.813-0.131-1.22c-0.014-0.145-0.031-0.286-0.046-0.429  c-0.022-0.182-0.041-0.363-0.066-0.545c-0.157-1.344-0.362-2.628-0.613-3.844c-0.026-0.127-0.053-0.25-0.079-0.376  c-0.1-0.462-0.205-0.913-0.318-1.353c-0.034-0.133-0.061-0.278-0.096-0.408c-0.051-0.192-0.107-0.375-0.16-0.563  c-0.021-0.072-0.04-0.145-0.061-0.216c-0.356-1.218-0.764-2.354-1.221-3.374c-0.026-0.059-0.065-0.108-0.102-0.16  C20.396,4.037,18.316,2,16,2c-4.51,0-8.042,7.309-8.832,17.594c-0.01,0.108-0.026,0.216-0.035,0.323  c-0.002,0.029,0.01,0.056,0.011,0.085C7.054,21.295,7,22.625,7,24c0,0.431,0.013,0.868,0.024,1.304  c-1.838-1.766-3.274-2.981-3.38-3.07c-0.374-0.314-0.921-0.312-1.293,0.005c-0.372,0.318-0.459,0.858-0.207,1.277  c0.026,0.043,2.622,4.41,3.871,11.653c0.286,1.661,0.34,3.123,0.393,4.537c0.094,2.54,0.19,5.167,1.671,8.681  c0.691,1.643,1.462,3.44,2.698,4.215c0.792,1.017,1.728,1.796,2.797,2.302c0.822,0.388,1.647,0.585,2.427,0.665V61  C16,61.553,16.448,62,17,62z M42,40h3h4h3v2H42V40z M45.809,38l-2.312-10.788C44.429,27.652,45.606,28,47,28  c0.666,0,2.027-0.1,3.502-0.785L48.191,38H45.809z M42,44h10v2H42V44z M36.588,24.525C36.198,23.372,36,22.186,36,21  c0-6.065,4.935-11,11-11s11,4.935,11,11c0,1.186-0.198,2.372-0.602,3.567l-2.333,8.067L52.382,38h-2.145l2.741-12.79  c0.092-0.43-0.106-0.868-0.489-1.082c-0.384-0.215-0.861-0.153-1.178,0.147C49.676,25.832,47.751,26,47,26  c-2.322,0-3.886-1.319-4.31-1.724c-0.317-0.302-0.795-0.362-1.179-0.149c-0.383,0.215-0.582,0.653-0.49,1.083L43.763,38h-2.145  l-2.683-5.365L36.588,24.525z M42,50.5V48h10v2.5L48.667,53h-3.333L42,50.5z M10.812,10.871c0.131-0.41,0.267-0.803,0.408-1.18  c0.031-0.082,0.062-0.162,0.093-0.242C11.373,9.292,11.437,9.15,11.499,9h1.413l-0.068,2h-2.074  c0.001-0.002,0.001-0.004,0.002-0.005C10.784,10.952,10.799,10.913,10.812,10.871z M17.088,9l0.071,2h-2.314l0.068-2H17.088z   M21.2,10.931c0.007,0.023,0.014,0.046,0.021,0.069H19.16l-0.071-2h1.415C20.753,9.605,20.985,10.252,21.2,10.931z M14.229,29h2.948  c-0.092,0.112-0.182,0.226-0.274,0.339c-0.181,0.223-0.358,0.446-0.539,0.672c-0.187,0.233-0.372,0.466-0.563,0.708  c-0.169,0.215-0.335,0.428-0.501,0.645c-0.099,0.129-0.197,0.253-0.297,0.384c-0.114,0.15-0.223,0.299-0.335,0.45  c-0.192,0.257-0.385,0.511-0.576,0.773L14.229,29z M20.309,25.27c-0.023,0.027-0.049,0.055-0.071,0.081  c-0.178,0.21-0.366,0.432-0.547,0.646L19.656,25h0.888C20.464,25.09,20.387,25.18,20.309,25.27z M17.725,27h-3.428l0.068-2h3.289  L17.725,27z M9.069,26.515c-0.02-0.408-0.037-0.813-0.047-1.211C9.019,25.202,9.019,25.101,9.017,25h3.348l-0.068,2H9.093  C9.083,26.837,9.077,26.677,9.069,26.515z M14.434,23l0.068-2h3.01l0.071,2H14.434z M14.571,19l0.068-2h2.732l0.071,2H14.571z   M22.195,15h-2.893l-0.071-2h2.542C21.926,13.638,22.067,14.307,22.195,15z M17.3,15h-2.592l0.068-2h2.453L17.3,15z M12.706,15  h-2.91c0.013-0.07,0.026-0.14,0.039-0.209c0.1-0.521,0.21-1.031,0.327-1.531c0.02-0.087,0.04-0.175,0.061-0.26h2.552L12.706,15z   M9.267,18.731C9.334,18.154,9.409,17.576,9.5,17h3.138l-0.068,2H9.24C9.249,18.91,9.258,18.82,9.267,18.731z M19.372,17H22.5  c0.088,0.551,0.158,1.105,0.223,1.657c0.011,0.112,0.018,0.23,0.029,0.343h-3.309L19.372,17z M9.091,21h3.41l-0.068,2H9.019  C9.032,22.32,9.055,21.653,9.091,21z M10.6,29h1.627l-0.063,1.844c-0.133-0.162-0.255-0.313-0.392-0.479  C11.393,29.904,10.999,29.448,10.6,29z M22.435,23h-2.85l-0.071-2H22.9c0.027,0.488,0.055,0.975,0.069,1.479  C22.789,22.652,22.611,22.825,22.435,23z M19.546,7H17V4.259C17.874,4.674,18.747,5.605,19.546,7z M15,4.263V7h-2.536  C13.26,5.613,14.128,4.679,15,4.263z M9.921,47.611c-1.338-3.177-1.425-5.509-1.516-7.979c-0.055-1.479-0.111-3.01-0.42-4.803  c-0.546-3.167-1.333-5.803-2.074-7.815c0.545,0.529,1.122,1.111,1.702,1.712c0.368,0.382,0.717,0.756,1.053,1.124  c0.119,0.13,0.239,0.258,0.358,0.39c0.406,0.453,0.788,0.894,1.139,1.32c0.021,0.026,0.045,0.051,0.066,0.077  c0.309,0.376,0.594,0.724,0.881,1.076c0.228,0.28,0.453,0.558,0.672,0.833c0.016,0.019,0.03,0.038,0.045,0.057  c0.204,0.256,0.402,0.508,0.596,0.757c0.25,0.322,0.493,0.64,0.72,0.947c0.006,0.009,0.013,0.018,0.02,0.026  c0.018,0.024,0.037,0.049,0.055,0.073c0.178,0.242,0.347,0.481,0.511,0.719c0.17,0.248,0.333,0.493,0.485,0.736  c0.098,0.155,0.189,0.31,0.28,0.465c0.15,0.257,0.291,0.512,0.419,0.767c0.055,0.108,0.109,0.215,0.16,0.323  c0.161,0.344,0.307,0.689,0.427,1.038c0.022,0.063,0.037,0.129,0.058,0.193c0.098,0.303,0.178,0.61,0.244,0.922  c0.022,0.104,0.044,0.209,0.062,0.315c0.066,0.378,0.117,0.762,0.136,1.161c0.153,3.292-1.325,6.81-2.842,8.308  c-0.124,0.122-0.241,0.223-0.35,0.307c-0.029,0.022-0.053,0.034-0.08,0.054c-0.078,0.055-0.156,0.11-0.224,0.147  c-0.024,0.013-0.042,0.018-0.064,0.029c-0.066,0.032-0.131,0.063-0.186,0.079c-0.023,0.007-0.04,0.007-0.062,0.011  c-0.048,0.01-0.097,0.022-0.134,0.02C11.332,50.959,10.415,48.781,9.921,47.611z M13.548,52.57c0.088-0.051,0.175-0.119,0.263-0.178  c0.062-0.042,0.125-0.08,0.187-0.127c0.19-0.144,0.38-0.302,0.567-0.487c0.462-0.457,0.92-1.047,1.343-1.738  c1.27-2.074,2.232-5.059,2.091-8.086c0,0,0,0,0,0c0,0,0-0.001,0-0.001c-0.022-0.464-0.079-0.907-0.153-1.339  c-0.024-0.144-0.052-0.288-0.082-0.43c-0.069-0.329-0.151-0.65-0.246-0.962c-0.045-0.148-0.09-0.297-0.141-0.443  c-0.119-0.341-0.252-0.671-0.397-0.993c-0.06-0.135-0.123-0.27-0.188-0.404c-0.181-0.371-0.372-0.734-0.578-1.084  c-0.058-0.099-0.124-0.2-0.185-0.3c-0.168-0.273-0.341-0.541-0.519-0.804c-0.003-0.004-0.003-0.009-0.006-0.013  c-0.001-0.002-0.018-0.027-0.019-0.029c-0.003-0.005-0.008-0.007-0.011-0.012c-0.006-0.009-0.012-0.018-0.018-0.027  c-0.07-0.103-0.132-0.206-0.205-0.309c0.25-0.354,0.505-0.707,0.765-1.059c0.156-0.211,0.308-0.423,0.467-0.633  c0.128-0.169,0.256-0.337,0.384-0.504c0.286-0.372,0.577-0.741,0.869-1.109c0.073-0.092,0.145-0.184,0.218-0.276  c0.507-0.632,0.996-1.231,1.445-1.771c0.032-0.039,0.065-0.079,0.097-0.118c0.199-0.24,0.4-0.486,0.598-0.722  c0.361-0.429,0.716-0.847,1.073-1.266c0.196-0.231,0.399-0.472,0.592-0.698c0.009-0.011,0.02-0.022,0.029-0.033  c0.367-0.429,0.765-0.86,1.185-1.299l0.548-0.569c0.039-0.04,0.077-0.078,0.116-0.118c0.098-0.098,0.195-0.196,0.293-0.294  c0.17-0.168,0.347-0.339,0.526-0.511c1.29-1.238,2.635-2.411,3.807-3.385c-0.755,1.88-1.598,4.371-2.243,7.35  c-0.816,3.771-0.589,6.194-0.369,8.538c0.227,2.413,0.44,4.693-0.616,8.399c-0.635,2.231-1.645,5.761-4.153,7.619l0,0  c-0.42,0.31-0.837,0.55-1.275,0.735c-0.049,0.021-0.132,0.053-0.224,0.087c-0.019,0.007-0.037,0.014-0.058,0.021  c-0.104,0.037-0.228,0.079-0.371,0.121c-0.023,0.007-0.05,0.014-0.074,0.021c-0.129,0.037-0.274,0.074-0.428,0.109  c-0.036,0.008-0.069,0.017-0.107,0.025c-0.171,0.036-0.357,0.067-0.55,0.093c-0.057,0.008-0.116,0.014-0.175,0.021  c-0.202,0.022-0.411,0.039-0.63,0.044c-0.004,0-0.008,0.001-0.012,0.001c0,0-0.001,0-0.001,0c-0.792,0.013-1.679-0.112-2.554-0.525  C14.118,52.949,13.826,52.775,13.548,52.57z"/><rect x="46" y="2" width="2" height="4"/><rect x="56.197" y="5.5" transform="matrix(0.5547 -0.8321 0.8321 0.5547 20.4191 51.1534)" width="3.606" height="2"/><rect x="35" y="4.697" transform="matrix(0.8321 -0.5547 0.5547 0.8321 2.4406 21.0609)" width="2" height="3.606"/></svg>