<svg xmlns="http://www.w3.org/2000/svg" xmlns:xlink="http://www.w3.org/1999/xlink" version="1.1" x="0px" y="0px" viewBox="0 0 100 125" style="enable-background:new 0 0 100 100;" xml:space="preserve"><style type="text/css">
	.st0{fill:none;stroke:#000000;stroke-width:2;stroke-linecap:round;stroke-linejoin:round;stroke-miterlimit:10;}
</style><path d="M40.8,60c-0.2-0.3-0.6-0.4-1-0.3L32,61.4l3.2-7.7c0.2-0.5,0-1.1-0.5-1.3c-0.5-0.2-1.1,0-1.3,0.5l-4,9.5  c-0.1,0.3-0.1,0.7,0.2,1c0.2,0.3,0.6,0.4,1,0.3l7.9-1.7l-2.9,8.6c-0.2,0.5,0.1,1.1,0.6,1.3c0.1,0,0.2,0.1,0.3,0.1  c0.4,0,0.8-0.3,0.9-0.7L41,61C41.1,60.6,41,60.3,40.8,60z"/><path d="M27.8,33.2c-0.3-0.4-1-0.5-1.4-0.2l-2.3,1.8l-3.2-4.1c-0.2-0.2-0.4-0.3-0.7-0.4c-0.3,0-0.5,0-0.7,0.2l-10.4,8  c-0.4,0.3-0.5,1-0.2,1.4l3.2,4.1l-2.3,1.8c-0.2,0.2-0.3,0.4-0.4,0.7c0,0.3,0,0.5,0.2,0.7l8.4,11c0,0,25.8,33.8,25.8,33.8  c0.2,0.3,0.5,0.4,0.8,0.4c0.2,0,0.4-0.1,0.6-0.2l16.6-12.7c0.2-0.2,0.3-0.4,0.4-0.7c0-0.3,0-0.5-0.2-0.7L27.8,33.2z M22,60l-1.7-2.3  l15-11.5l1.7,2.3l16.3,21.4l-15,11.5L22,60z M11.1,39.4l8.8-6.8l2.5,3.3l-8.8,6.8L11.1,39.4z M26.8,35.3l7.2,9.4L19,56.2l-7.2-9.4  L26.8,35.3z M44.9,90l-5.3-7l15-11.5l5.3,7L44.9,90z"/><path d="M52.8,78.6c-0.3-0.4-1-0.5-1.4-0.2L47,81.8c-0.4,0.3-0.5,1-0.2,1.4c0.2,0.3,0.5,0.4,0.8,0.4c0.2,0,0.4-0.1,0.6-0.2l4.4-3.4  C53,79.7,53.1,79.1,52.8,78.6z"/><path d="M20.7,48.4c0.2,0,0.4-0.1,0.6-0.2l1.4-1.1l1.1,1.4c0.2,0.3,0.5,0.4,0.8,0.4c0.2,0,0.4-0.1,0.6-0.2c0.4-0.3,0.5-1,0.2-1.4  l-1.1-1.4l1.4-1.1c0.4-0.3,0.5-1,0.2-1.4c-0.3-0.4-1-0.5-1.4-0.2l-1.4,1.1L22,42.9c-0.3-0.4-1-0.5-1.4-0.2c-0.4,0.3-0.5,1-0.2,1.4  l1.1,1.4l-1.4,1.1c-0.4,0.3-0.5,1-0.2,1.4C20.1,48.3,20.4,48.4,20.7,48.4z"/><path d="M64.2,30.8c-0.3-0.2-0.7-0.1-1,0.1l-6.5,4.6l-0.1-8.4c0-0.5-0.5-1-1-1c0,0,0,0,0,0c-0.6,0-1,0.5-1,1l0.1,10.3  c0,0.4,0.2,0.7,0.5,0.9c0.3,0.2,0.7,0.1,1-0.1l6.6-4.7l0.7,9.1c0,0.5,0.5,0.9,1,0.9c0,0,0.1,0,0.1,0c0.6,0,1-0.5,0.9-1.1l-0.8-10.9  C64.7,31.3,64.5,31,64.2,30.8z"/><path d="M90.8,39.1L41.7,11.3c-0.5-0.3-1.1-0.1-1.4,0.4l-1.4,2.5l-4.5-2.6c-0.2-0.1-0.5-0.2-0.8-0.1c-0.3,0.1-0.5,0.2-0.6,0.5  l-6.5,11.4c-0.3,0.5-0.1,1.1,0.4,1.4l4.5,2.6l-1.4,2.5c-0.1,0.2-0.2,0.5-0.1,0.8c0.1,0.3,0.2,0.5,0.5,0.6L79.5,59  c0.2,0.1,0.3,0.1,0.5,0.1c0.1,0,0.2,0,0.3,0c0.3-0.1,0.5-0.2,0.6-0.5l10.3-18.2C91.5,40,91.3,39.4,90.8,39.1z M44.4,36.8l9.3-16.4  L79.6,35l-9.3,16.4L44.4,36.8z M28.8,23.5l5.5-9.7l3.6,2.1l-1.4,2.5l-4.1,7.2L28.8,23.5z M41.6,13.5L52,19.4l-9.3,16.4l-10.3-5.9  L41.6,13.5z M79.7,56.8L72,52.5L81.3,36l7.6,4.3L79.7,56.8z"/><path d="M81.2,43.6l-2.7,4.8c-0.3,0.5-0.1,1.1,0.4,1.4c0.2,0.1,0.3,0.1,0.5,0.1c0.3,0,0.7-0.2,0.9-0.5l2.7-4.8  c0.3-0.5,0.1-1.1-0.4-1.4C82,42.9,81.4,43.1,81.2,43.6z"/><path d="M42.5,26l1.5,0.9c0.2,0.1,0.3,0.1,0.5,0.1c0.3,0,0.7-0.2,0.9-0.5c0.3-0.5,0.1-1.1-0.4-1.4l-1.5-0.9l0.9-1.5  c0.3-0.5,0.1-1.1-0.4-1.4c-0.5-0.3-1.1-0.1-1.4,0.4l-0.9,1.5l-1.5-0.9c-0.5-0.3-1.1-0.1-1.4,0.4c-0.3,0.5-0.1,1.1,0.4,1.4l1.5,0.9  l-0.9,1.5c-0.3,0.5-0.1,1.1,0.4,1.4c0.2,0.1,0.3,0.1,0.5,0.1c0.3,0,0.7-0.2,0.9-0.5L42.5,26z"/></svg>