<svg xmlns="http://www.w3.org/2000/svg" viewBox="0 0 64 80" x="0px" y="0px"><title>hydro-power-plant-generation-electronics</title><g><path d="M32,20A12,12,0,1,0,44,32,12.013,12.013,0,0,0,32,20Zm0,22A10,10,0,1,1,42,32,10.011,10.011,0,0,1,32,42Z"/><path d="M37,30H34.766l2.091-3.485A1,1,0,0,0,36,25H29a1,1,0,0,0-.99.858l-1,7A1,1,0,0,0,28,34h.819l-.8,4.836a1,1,0,0,0,1.693.871l8-8A1,1,0,0,0,37,30Zm-6.5,6.086.486-2.922A1,1,0,0,0,30,32h-.847l.714-5h4.367l-2.091,3.485A1,1,0,0,0,33,32h1.586Z"/><path d="M61,51c-1.961,0-2.933,1.338-3.712,2.412C56.552,54.427,56.091,55,55.193,55s-1.358-.573-2.093-1.587C52.32,52.338,51.349,51,49.387,51c-.137,0-.259.021-.387.033V48.927a.982.982,0,0,0-.029-1.37L45.4,43.981a18,18,0,0,0,3.2-5.017c.136.008.267.036.4.036a6.973,6.973,0,0,0,5-2.111V39h2V32a1,1,0,0,0-1-1H49.949a17.83,17.83,0,0,0-1.289-5.79c.1-.093.211-.181.311-.281a6.957,6.957,0,0,0,1.983-4.062,21.845,21.845,0,0,1,1.679,3.481,1,1,0,1,0,1.875-.7,23.834,23.834,0,0,0-5.267-8.347c-.017-.017-.039-.024-.057-.039-.071-.079-.137-.161-.213-.237a1,1,0,0,0-1.414,0l-3.576,3.576a18.006,18.006,0,0,0-5.016-3.2c.007-.135.035-.269.035-.4a6.956,6.956,0,0,0-1.486-4.3,21.884,21.884,0,0,1,5.007,1.971,1,1,0,0,0,.958-1.756A24.037,24.037,0,0,0,32,8a1,1,0,0,0-1,1v5.051a17.852,17.852,0,0,0-5.806,1.3c-.092-.1-.167-.219-.265-.317a6.954,6.954,0,0,0-4.084-1.987,21.913,21.913,0,0,1,4.459-2A1,1,0,1,0,24.7,9.132,24.109,24.109,0,0,0,15.3,14.759a.634.634,0,0,0-.041.06c-.078.07-.159.135-.234.21a1,1,0,0,0,0,1.414l3.576,3.576a18,18,0,0,0-3.2,5.017c-.136-.008-.267-.036-.4-.036a6.956,6.956,0,0,0-4.3,1.486,21.849,21.849,0,0,1,1.971-5.007,1,1,0,1,0-1.756-.958A24.034,24.034,0,0,0,8,32a1,1,0,0,0,1,1h5.051a17.83,17.83,0,0,0,1.289,5.79c-.1.093-.211.181-.311.281a6.962,6.962,0,0,0-1.988,4.091,21.893,21.893,0,0,1-2.085-4.726,1,1,0,1,0-1.913.584A24.1,24.1,0,0,0,14.759,48.7c.017.018.04.023.058.039.071.078.137.16.212.236a1,1,0,0,0,1.414,0L20.019,45.4a18.01,18.01,0,0,0,5.006,3.2c-.008.136-.025.27-.025.408a6.956,6.956,0,0,0,.331,2.1,5.047,5.047,0,0,0-2.852,2.308C21.744,54.427,21.285,55,20.389,55s-1.355-.573-2.09-1.587C17.52,52.338,16.55,51,14.59,51s-2.929,1.338-3.708,2.413C10.148,54.427,9.689,55,8.793,55s-1.353-.573-2.086-1.586C5.928,52.338,4.959,51,3,51a1,1,0,0,0,0,2c.9,0,1.353.573,2.087,1.587C5.866,55.662,6.835,57,8.793,57s2.93-1.338,3.709-2.413C13.236,53.573,13.7,53,14.59,53s1.355.573,2.09,1.587C17.459,55.662,18.429,57,20.389,57s2.93-1.338,3.709-2.413C24.833,53.573,25.292,53,26.188,53s1.355.573,2.09,1.587C29.057,55.662,30.027,57,31.987,57s2.93-1.338,3.71-2.413C36.432,53.573,36.891,53,37.788,53s1.354.573,2.088,1.587C40.655,55.662,41.625,57,43.585,57s2.931-1.338,3.71-2.413C48.031,53.573,48.49,53,49.387,53s1.359.573,2.094,1.588C52.261,55.662,53.232,57,55.193,57s2.933-1.338,3.713-2.412C59.642,53.573,60.1,53,61,53a1,1,0,0,0,0-2ZM32,48A16,16,0,1,1,48,32,16.019,16.019,0,0,1,32,48Zm11.981-2.6,2.8,2.8a5,5,0,0,1-6.071-.45A18.021,18.021,0,0,0,43.981,45.4Zm5.3-8.42A17.913,17.913,0,0,0,49.949,33H53.9A5,5,0,0,1,49.285,36.975ZM47.742,23.293A17.987,17.987,0,0,0,45.4,20.019l2.8-2.8A5,5,0,0,1,47.742,23.293ZM33,14.051V10.1a5,5,0,0,1,3.975,4.614A17.913,17.913,0,0,0,33,14.051Zm-9.707,2.207a17.987,17.987,0,0,0-3.274,2.347l-2.8-2.8A5,5,0,0,1,23.293,16.258ZM14.715,27.025A17.913,17.913,0,0,0,14.051,31H10.1A5,5,0,0,1,14.715,27.025Zm1.543,13.682a17.987,17.987,0,0,0,2.347,3.274l-2.8,2.8A5,5,0,0,1,16.258,40.707Zm11.26,10.535c-.007-.016,0-.033-.013-.049a4.929,4.929,0,0,1-.489-1.91A17.936,17.936,0,0,0,31,49.949V53.9a4.951,4.951,0,0,1-.966-.306c-.047-.064-.088-.113-.137-.181A5.586,5.586,0,0,0,27.518,51.242Zm18.158,2.171C44.941,54.427,44.481,55,43.585,55s-1.355-.573-2.089-1.587C40.717,52.338,39.747,51,37.788,51s-2.931,1.338-3.71,2.413A5.859,5.859,0,0,1,33,54.643V49.949a17.867,17.867,0,0,0,5.8-1.293c.092.1.173.216.271.315A6.984,6.984,0,0,0,47,50.346v1.538A8.413,8.413,0,0,0,45.676,53.413Z"/><rect x="54" y="41" width="2" height="2"/><rect x="54" y="45" width="2" height="2"/></g></svg>