<svg xmlns="http://www.w3.org/2000/svg" xmlns:xlink="http://www.w3.org/1999/xlink" version="1.1" x="0px" y="0px" viewBox="0 0 100 125" style="enable-background:new 0 0 100 100;" xml:space="preserve"><style type="text/css">
	.st0{fill:none;stroke:#000000;stroke-width:2;stroke-linecap:round;stroke-linejoin:round;stroke-miterlimit:10;}
</style><path d="M58,32.1c1.6-2.4,2.2-5.2,1.7-8c-1.1-5.8-6.7-9.6-12.5-8.5c-2.8,0.5-5.2,2.1-6.9,4.5c-1.6,2.4-2.2,5.2-1.7,8  c1,5.1,5.5,8.7,10.5,8.7c0.6,0,1.3-0.1,2-0.2C53.9,36,56.3,34.5,58,32.1z M50.7,34.6c-2.3,0.4-4.6-0.1-6.5-1.4  c-1.9-1.3-3.2-3.3-3.6-5.6s0.1-4.6,1.4-6.5c1.3-1.9,3.3-3.2,5.6-3.6c0.5-0.1,1.1-0.1,1.6-0.1c4.1,0,7.8,2.9,8.5,7.1  c0.4,2.3-0.1,4.6-1.4,6.5C55,32.9,53,34.2,50.7,34.6z"/><path d="M46.8,14.4c0.1,0,0.1,0,0.2,0c0.5-0.1,0.9-0.6,0.8-1.2L47,8.8c-0.1-0.5-0.6-0.9-1.2-0.8c-0.5,0.1-0.9,0.6-0.8,1.2l0.8,4.4  C45.9,14.1,46.4,14.4,46.8,14.4z"/><path d="M51.4,37.9c-0.5,0.1-0.9,0.6-0.8,1.2l0.8,4.4c0.1,0.5,0.5,0.8,1,0.8c0.1,0,0.1,0,0.2,0c0.5-0.1,0.9-0.6,0.8-1.2l-0.8-4.4  C52.5,38.1,51.9,37.8,51.4,37.9z"/><path d="M53.4,14.9c0.4,0,0.8-0.3,0.9-0.7l1.5-4.2c0.2-0.5-0.1-1.1-0.6-1.3c-0.5-0.2-1.1,0.1-1.3,0.6l-1.5,4.2  c-0.2,0.5,0.1,1.1,0.6,1.3C53.1,14.9,53.3,14.9,53.4,14.9z"/><path d="M59.5,18.3l3.4-2.9c0.4-0.4,0.5-1,0.1-1.4c-0.4-0.4-1-0.5-1.4-0.1l-3.4,2.9c-0.4,0.4-0.5,1-0.1,1.4c0.2,0.2,0.5,0.3,0.8,0.3  C59.1,18.6,59.3,18.5,59.5,18.3z"/><path d="M67.1,22.4c-0.1-0.5-0.6-0.9-1.2-0.8l-4.4,0.9c-0.5,0.1-0.9,0.6-0.8,1.2c0.1,0.5,0.5,0.8,1,0.8c0.1,0,0.1,0,0.2,0l4.4-0.9  C66.9,23.5,67.2,22.9,67.1,22.4z"/><path d="M65.6,32.5c0.4,0,0.8-0.3,1-0.7c0.2-0.5-0.1-1.1-0.6-1.3l-4.3-1.4c-0.5-0.2-1.1,0.1-1.3,0.6c-0.2,0.5,0.1,1.1,0.6,1.3  l4.3,1.4C65.4,32.5,65.5,32.5,65.6,32.5z"/><path d="M60.1,39.6c0.2,0.2,0.5,0.3,0.7,0.3c0.2,0,0.5-0.1,0.7-0.3c0.4-0.4,0.4-1,0.1-1.4l-3-3.3c-0.4-0.4-1-0.4-1.4-0.1  c-0.4,0.4-0.4,1-0.1,1.4L60.1,39.6z"/><path d="M44.4,38.1l-1.3,4.3c-0.2,0.5,0.1,1.1,0.7,1.3c0.1,0,0.2,0,0.3,0c0.4,0,0.8-0.3,1-0.7l1.3-4.3c0.2-0.5-0.1-1.1-0.7-1.3  C45.1,37.2,44.5,37.5,44.4,38.1z"/><path d="M36.5,38.9c0.2,0,0.5-0.1,0.7-0.3l3.3-3.1c0.4-0.4,0.4-1,0-1.4c-0.4-0.4-1-0.4-1.4,0l-3.3,3.1c-0.4,0.4-0.4,1,0,1.4  C36,38.8,36.2,38.9,36.5,38.9z"/><path d="M31.3,30.3c0.1,0.5,0.5,0.8,1,0.8c0.1,0,0.2,0,0.2,0l4.4-1c0.5-0.1,0.9-0.7,0.7-1.2c-0.1-0.5-0.7-0.9-1.2-0.7l-4.4,1  C31.5,29.3,31.2,29.8,31.3,30.3z"/><path d="M31.5,20.9c-0.2,0.5,0.1,1.1,0.7,1.2l4.3,1.3c0.1,0,0.2,0,0.3,0c0.4,0,0.8-0.3,1-0.7c0.2-0.5-0.1-1.1-0.7-1.2l-4.3-1.3  C32.2,20.1,31.7,20.4,31.5,20.9z"/><path d="M40.2,17.8c0.3,0,0.5-0.1,0.7-0.3c0.4-0.4,0.4-1,0-1.4l-3.1-3.2c-0.4-0.4-1-0.4-1.4,0c-0.4,0.4-0.4,1,0,1.4l3.1,3.2  C39.7,17.7,39.9,17.8,40.2,17.8z"/><path d="M76.5,48.3H22.8c-0.5,0-0.9,0.4-1,0.9l-3.6,32.2c0,0.3,0.1,0.6,0.2,0.8c0.2,0.2,0.5,0.3,0.7,0.3h20.7l-1,8.4  c0,0,0,0.1,0,0.1H27.3c-0.6,0-1,0.4-1,1s0.4,1,1,1h44.8c0.6,0,1-0.4,1-1s-0.4-1-1-1H60.4c0,0,0-0.1,0-0.1l-1-8.4h20.7  c0.3,0,0.6-0.1,0.7-0.3c0.2-0.2,0.3-0.5,0.2-0.8l-3.6-32.2C77.5,48.7,77,48.3,76.5,48.3z M40.9,91l1-8.4h15.5l1,8.4H40.9z   M77.2,63.9h-9.1l-0.6-6.1h9L77.2,63.9z M66.1,63.9h-9.2l-0.3-6.1h8.9L66.1,63.9z M44.5,72l0.3-6.1H55l0.3,6.1H44.5z M55.4,74  l0.3,6.5H44l0.4-6.5H55.4z M44.9,63.9l0.3-6.1h9.3l0.3,6.1H44.9z M56.5,55.9l-0.3-5.6h8.5l0.6,5.6H56.5z M54.5,55.9h-9.1l0.3-5.6  h8.6L54.5,55.9z M43.4,55.9h-8.7l0.5-5.6h8.5L43.4,55.9z M43.3,57.9l-0.3,6.1h-9.1l0.6-6.1H43.3z M31.8,63.9h-9.7l0.7-6.1h9.6  L31.8,63.9z M22,65.9h9.7L31.1,72h-9.8L22,65.9z M33.7,65.9h9.1L42.5,72h-9.4L33.7,65.9z M42.4,74L42,80.5h-9.7l0.6-6.5H42.4z   M57.7,80.5L57.4,74h9.7l0.6,6.5H57.7z M57.3,72L57,65.9h9.3l0.6,6.1H57.3z M68.3,65.9h9.1l0.7,6.1h-9.2L68.3,65.9z M76.3,55.9h-8.9  l-0.6-5.6h8.9L76.3,55.9z M33.1,50.3l-0.5,5.6h-9.5l0.6-5.6H33.1z M21.1,74h9.8l-0.6,6.5h-9.9L21.1,74z M69.7,80.5L69.1,74h9.2  l0.7,6.5H69.7z"/></svg>