<svg xmlns="http://www.w3.org/2000/svg" viewBox="0 0 64 80" x="0px" y="0px"><title>wind-power-energy-renewable-ecology</title><g data-name="01-Wind power"><path d="M50,55.277V40H48V55.069c-.645-.043-1.309-.069-2-.069-.429,0-.848.024-1.263.049A20.87,20.87,0,0,0,33,51.037V20H31V51.041a18.969,18.969,0,0,0-11.026,4.112C18.964,55.056,17.984,55,17,55c-.343,0-.668.02-1,.034V40H14V55.189a20.954,20.954,0,0,0-11.707,5.1A1,1,0,0,0,3,62H61a1,1,0,0,0,.707-1.707C61.521,60.107,57.638,56.329,50,55.277Zm-32.185,1.8q-.4.408-.734.792c-.03.034-.06.067-.089.1-.223.256-.424.5-.606.729-.02.027-.041.052-.062.078-.182.233-.342.448-.482.643l-.034.048c-.144.2-.264.38-.362.53l0,.007H6.025A21.023,21.023,0,0,1,17,57c.29,0,.579,0,.869.013C17.849,57.033,17.834,57.052,17.815,57.072ZM17.9,60c.071-.09.157-.192.235-.287.1-.125.2-.245.312-.379s.228-.251.343-.378.22-.248.345-.379.267-.262.4-.394.268-.271.418-.41.313-.271.47-.407.306-.274.475-.411A17.122,17.122,0,0,1,32,53a19.077,19.077,0,0,1,11.836,3.857c.365.277.7.556,1.022.833.125.11.229.216.346.324.181.167.37.335.533.5.093.092.167.177.254.268.166.173.338.348.485.512.059.066.1.123.159.188.155.178.31.357.44.518v0Zm31.652,0c-.1-.155-.228-.34-.38-.55l-.011-.014c-.149-.206-.322-.434-.52-.681l-.032-.039c-.2-.243-.415-.5-.659-.774-.016-.019-.034-.037-.05-.055q-.366-.407-.8-.84l-.025-.026A23.15,23.15,0,0,1,57.9,60Z"/><rect x="14" y="36" width="2" height="2"/><path d="M27.553,12.9l4,2A1,1,0,0,0,33,14V3a1,1,0,0,0-1.914-.406l-4,9A1,1,0,0,0,27.553,12.9ZM31,7.712v4.67l-1.7-.849Z"/><path d="M34.1,19.366l9.527,5.5a1,1,0,0,0,1.342-1.406l-5.125-8a1,1,0,0,0-1.336-.33l-4.4,2.5a1,1,0,0,0-.006,1.736Zm4.571-2.028,2.4,3.742L36.61,18.507Z"/><path d="M28.969,24.247l1.4-5.5A1,1,0,0,0,28.9,17.634l-9.527,5.5a1,1,0,0,0,.5,1.866H28A1,1,0,0,0,28.969,24.247ZM27.223,23H23.607l4.24-2.447Z"/><rect x="31" y="16" width="2" height="2"/><path d="M6.639,15.752A3.737,3.737,0,0,0,8,16h8A5,5,0,0,0,16,6a4.883,4.883,0,0,0-1.2.148A4,4,0,0,0,8.126,8,4.031,4.031,0,0,0,4,12,3.957,3.957,0,0,0,6.639,15.752ZM8,10a1.8,1.8,0,0,1,.648.112,1.006,1.006,0,0,0,.993-.165A1.017,1.017,0,0,0,10,9a2,2,0,0,1,3.654-1.125,1,1,0,0,0,1.218.355A2.873,2.873,0,0,1,16,8a3,3,0,0,1,0,6H8a1.843,1.843,0,0,1-.677-.126A1.973,1.973,0,0,1,6,12,2,2,0,0,1,8,10Z"/><path d="M49.18,17h4.68a4.76,4.76,0,0,0,.679-.06A2.718,2.718,0,0,0,55,17h4a3.015,3.015,0,0,0,3-3,3,3,0,0,0-3-3h-.1a5,5,0,0,0-9.482-1H48.5a3.477,3.477,0,0,0-2.477,1.023A3.52,3.52,0,0,0,45,13.3a3.251,3.251,0,0,0,.9,2.431A4.434,4.434,0,0,0,49.18,17ZM58,13h1a1,1,0,0,1,1,1,.974.974,0,0,1-.306.712A.957.957,0,0,1,59,15H55a.88.88,0,0,1-.239-.035A.992.992,0,0,1,54,14a.974.974,0,0,1,.306-.712A.957.957,0,0,1,55,13Zm-10.563-.563A1.491,1.491,0,0,1,48.5,12h1.63a1,1,0,0,0,.969-.753A3,3,0,0,1,56.829,11H55a3.065,3.065,0,0,0-.593.058,2.891,2.891,0,0,0-1.515.816l0,0,0,0a2.851,2.851,0,0,0-.194.233,2.477,2.477,0,0,0-.181.217,2.82,2.82,0,0,0-.159.291c-.039.074-.087.144-.12.222a2.906,2.906,0,0,0-.116.382c-.016.06-.042.116-.055.178A3.076,3.076,0,0,0,52,14a2.986,2.986,0,0,0,.174,1H49.18a2.5,2.5,0,0,1-1.825-.649A1.248,1.248,0,0,1,47,13.414,1.51,1.51,0,0,1,47.437,12.437Z"/><path d="M16,23a1,1,0,0,0-1.914-.406l-4,9a1,1,0,0,0,.467,1.3l4,2A1,1,0,0,0,16,34Zm-2,9.382-1.7-.849L14,27.712Z"/><path d="M22.842,35.46a1,1,0,0,0-1.336-.33l-4.4,2.5a1,1,0,0,0-.006,1.736l9.527,5.5a1,1,0,0,0,1.342-1.406ZM19.61,38.507l2.059-1.169,2.4,3.742Z"/><path d="M2.875,45H11a1,1,0,0,0,.969-.753l1.4-5.5A1,1,0,0,0,11.9,37.634l-9.527,5.5A1,1,0,0,0,2.875,45Zm7.972-4.447L10.223,43H6.607Z"/><rect x="48" y="36" width="2" height="2"/><path d="M50,23a1,1,0,0,0-1.914-.406l-4,9a1,1,0,0,0,.467,1.3l4,2A1,1,0,0,0,50,34Zm-2,9.382-1.7-.849L48,27.712Z"/><path d="M56.842,35.46a1,1,0,0,0-1.336-.33l-4.4,2.5a1,1,0,0,0-.006,1.736l9.527,5.5a1,1,0,0,0,1.342-1.406ZM53.61,38.507l2.059-1.169,2.4,3.742Z"/><path d="M45.9,37.634l-9.527,5.5a1,1,0,0,0,.5,1.866H45a1,1,0,0,0,.969-.753l1.4-5.5A1,1,0,0,0,45.9,37.634ZM44.223,43H40.607l4.24-2.447Z"/></g></svg>