<?xml version="1.0" encoding="utf-8"?>
<!-- Generator: Adobe Illustrator 22.1.0, SVG Export Plug-In . SVG Version: 6.00 Build 0)  -->
<svg version="1.1" id="Layer_1" xmlns="http://www.w3.org/2000/svg" xmlns:xlink="http://www.w3.org/1999/xlink" x="0px" y="0px"
	 viewBox="0 0 113.3 109.3" style="enable-background:new 0 0 113.3 109.3;" xml:space="preserve">
<style type="text/css">
	.st0{fill:#F38F31;}
	.st1{enable-background:new    ;}
	.st2{fill:#FFFFFF;}
</style>
<ellipse id="Ellipse_1079" transform="matrix(0.766 -0.6428 0.6428 0.766 -21.886 49.1927)" class="st0" cx="56.6" cy="54.7" rx="47.5" ry="31.5"/>
<g class="st1">
	<path class="st2" d="M59.6,36.7c0,0.4-0.2,1.5-0.6,3.3c-1,4.7-1.5,8.4-1.5,11v9.8c0,2.6,0.1,4.1,0.4,4.4c0.6,0.8,0.9,1.4,0.9,1.5
		c0,0.5-0.2,0.9-0.6,1.2c-0.4,0.3-0.8,0.5-1.3,0.5c-0.7,0-1.6-0.3-2.8-0.8c-0.4-0.9-0.6-1.6-0.6-2.3V44.7l-0.8-0.6v-1.6
		c0-1.4,0.3-3.1,1.1-5.1c0.9-2.4,1.9-3.7,3-3.7c0.6,0,1.3,0.3,1.9,1C59.3,35.4,59.6,36,59.6,36.7z"/>
</g>
</svg>
