<svg xmlns="http://www.w3.org/2000/svg" viewBox="0 0 210.87 250.16"><defs><style>.cls-1{isolation:isolate;}.cls-10,.cls-13,.cls-2{fill:#231f20;}.cls-2{opacity:0.3;}.cls-10,.cls-11,.cls-13,.cls-17,.cls-2,.cls-9{mix-blend-mode:soft-light;}.cls-3{fill:#f4b008;}.cls-4{fill:#0f3c47;}.cls-4,.cls-5{stroke:#000;stroke-miterlimit:10;}.cls-15,.cls-4,.cls-5{stroke-width:2px;}.cls-16,.cls-5{fill:#3f616f;}.cls-6{fill:#e6e7e8;}.cls-7{fill:#193441;}.cls-8{fill:#a73e5c;}.cls-11,.cls-17,.cls-9{fill:#fff;}.cls-9{opacity:0.55;}.cls-11{opacity:0.4;}.cls-12,.cls-15{fill:#e87e25;}.cls-13{opacity:0.51;}.cls-14{fill:#f38f31;}.cls-15{stroke:#f38f31;stroke-linecap:round;stroke-linejoin:round;}.cls-18{fill:#f7941e;}</style></defs><title>1_gas</title><g class="cls-1"><g id="Layer_2" data-name="Layer 2"><g id="OBJECTS"><path class="cls-2" d="M111.76,208.2s52.18-3.33,68,10-17.36,35.14-93.08,31.57-52.34-23.55-79.37-27S30.65,201,111.76,208.2Z"/><path class="cls-2" d="M107.88,212.12s42-2.69,54.82,8.06-14,28.3-75,25.43-42.16-19-63.93-21.77S42.54,206.32,107.88,212.12Z"/><path class="cls-3" d="M134.37,220.15l20.26,12.92s-20.91-6.14-31.24,8.08l-7.11-15.51Z"/><path class="cls-3" d="M68.79,225.88,55.55,240.34s-10-11.69-25.19-13.1l19-10.37Z"/><path class="cls-4" d="M41.12,101S29.57,103.59,27,112.14a49.11,49.11,0,0,0-2.35,14.36s-.86,4.23-6,2.95-6.62-9.27-6.19-19.81S24,81.36,37.91,76.87,41.12,101,41.12,101Z"/><path class="cls-5" d="M171,66.94c10.5,67.54-4.53,141.52-4.53,141.52s-24.79,25.65-79.07,24.37-61.13-30.78-61.13-30.78C17.68,99.89,60.89,17.58,60.89,17.58s33-39.65,109.81,3.68a10.87,10.87,0,0,0-1,2.77c-.19.74-14.12-.47-14.31.63-.11.69,13.51,3.57,13.41,4.42s-.17,1.55-.24,2.42c0,.65-.09,1.34-.12,2.07s-10.53.33-10.55,1.26S168.33,38,168.34,39c0,.69-5.84,0-5.82.75,0,1.21,5.86,2.52,5.94,3.87s-4.11.42-4,2c.05.69,4.22,2,4.29,2.75s.41,5,.51,5.87C169.68,58,170.23,62.25,171,66.94Z"/><path class="cls-6" d="M93.2,40.33s9.4-14.82,22.51-12.82,22.51,41.6,17.1,63.55c0,0,29.35,23.36,19.09,74.37S98,231.83,64.13,215.3s-39-92.11-15.39-122.57c0,0-4.27-23,7.27-45.56S86.08,15.82,93.2,40.33Z"/><path class="cls-7" d="M111,59.6c-.9,4.64-3.36,8.06-5.51,7.65s-3.15-4.51-2.26-9.15,3.37-8.06,5.51-7.64S111.91,55,111,59.6Z"/><path class="cls-7" d="M79.36,57.64c-.68,3.49-2.73,6-4.59,5.66s-2.82-3.47-2.15-7,2.73-6,4.59-5.66S80,54.16,79.36,57.64Z"/><path class="cls-8" d="M76.7,85.22c8.18-4.32,5.86-8,5.86-8S96,80.66,96,80.76c.31,7.33,6.2,3.65,5.2,3.94L92,93.62"/><path class="cls-3" d="M108.87,74.81S103.74,81.08,98,79.09s-9-7.84-9-7.84a83.26,83.26,0,0,0-31.55,8.59S71.1,79,78.3,84.17s18.32,5.46,21.45,1.47c0,0-5.32,9.69-23-.42C76.7,85.22,102.92,114.89,108.87,74.81Z"/><path class="cls-9" d="M87.89,73a166.58,166.58,0,0,0-24.42,5.83s7.83.42,11.36,1.4c8,2.24,14,7.9,18.14,5.74a14.54,14.54,0,0,0,5.81-5.22S90.53,80.86,87.89,73Z"/><path class="cls-10" d="M15.39,120.53A48,48,0,0,1,38.07,78.66L35.2,90.25a4.88,4.88,0,0,1-2,4.75c-5.09,3.67-16.12,13.45-13.68,27.82,0,0-.84,3.13-2.93.88A4.92,4.92,0,0,1,15.39,120.53Z"/><path class="cls-10" d="M34.17,124.38s-8,42.89-4.58,75.4c0,0,14.77,28.57,61.32,28.57s69.74-21.68,69.74-21.68,13-34.8,13.08-72.9c0,0-44.49,53.66-91.29,48.73S34.17,124.38,34.17,124.38Z"/><path class="cls-11" d="M156.39,17.65s-45-24.07-82.27-6.53a17,17,0,0,0-7,5.36c-1.32,1.89-1.79,4.33.76,3.31C103.89,5.33,153.81,27.55,156.39,17.65Z"/><path class="cls-12" d="M114.64,164.08s49.5-25.7,81.63-58.76c0,0,5.15-5.68.41-4.47-2.06.53-17.41,13.21-34.58,28.17C140.4,147.94,108.37,162.31,114.64,164.08Z"/><path class="cls-13" d="M116.3,162.11s48.61-25.06,80-57.6c0,0,5.12-4.42.45-3.26-2,.5-17.15,11.78-33.95,26.48C141.57,146.31,110.1,160.29,116.3,162.11Z"/><path class="cls-12" d="M198.71,190.07c2.67,1.5,5.92-2,4.23-4.85,1.81-.32,3.85,1.21,5.78-3.25,1-2.28-.53-6.87-3.57-6.38.92-1.89,1.46-4.55-.38-6.35s-5-1.84-5.94,0c-1.78-2.26-2.76-3.64-5.64-3.47-2.66.22-4.74,1.28-4.4,4.14-5.73-4.65-12.85,5.76-8.45,7.21-1.82.87-4.46,2.73-3.75,5.33.64,2.24,3.51,3.11,5.31,2.47-2.69,4.17,1.78,11.57,6.45,8.07,2.38,5.77,12.27,1.06,10.36-3"/><path class="cls-14" d="M207.85,114.89s14.14,36.29-18.74,61.18c0,0-31.4,22-58.46-3.08C130.65,173,160.1,138.4,207.85,114.89Z"/><path class="cls-12" d="M115,170.43c3.89,4.2,7.1,5.81,13.08,4.11C137,172,159.31,159,170.92,150.81c7.24-5.11,36.75-31.79,39-37.62,1.81-4.77-1.49-8.47-4.13-12-2.21-3-5.69-4.61-9.16.26-7.26,10.2-24.81,23.17-34.51,30.56s-32.44,22.07-38.45,24.32C123.64,156.34,107.29,162.14,115,170.43Z"/><path class="cls-15" d="M205.82,113.27l-3.93-7.84"/><path class="cls-15" d="M200.79,118.76c-5.87-11.71-4.44-8.2-4.44-8.2"/><path class="cls-15" d="M194.83,124.87c-5.87-11.7-5.56-9.16-5.56-9.16"/><path class="cls-15" d="M187.72,131.4c-5.87-11.71-5.55-9.16-5.55-9.16"/><path class="cls-15" d="M179.59,138.86c-5.87-11.71-5.55-9.16-5.55-9.16"/><path class="cls-15" d="M170.7,145.52c-5.87-11.71-5.56-9.16-5.56-9.16"/><path class="cls-15" d="M162.63,151.38c-5.87-11.71-5.56-9.16-5.56-9.16"/><path class="cls-15" d="M153.09,157.45c-5.87-11.7-5.55-9.16-5.55-9.16"/><path class="cls-15" d="M142.81,162.35c-5.87-11.71-5.55-9.16-5.55-9.16"/><path class="cls-15" d="M135.44,166.5c-6.27-11.51-5.86-9-5.86-9"/><path class="cls-15" d="M129.7,169c-6.76-11.21-3.94-6.95-3.94-6.95"/><path class="cls-15" d="M124.94,171.66c-6.89-11.14-4.34-6.7-4.34-6.7"/><path class="cls-16" d="M158.11,98.11s10.17,3.59,14.06,11.29,5.6,23.34,12.41,21.82,10-10.68,8.78-25.73-15.17-24.9-23.6-28.58S156.81,88.17,158.11,98.11Z"/><path class="cls-10" d="M190.2,123.3s4-14.68-.14-24.62S179,81.79,170.6,80.46s-6.41,3.71-5.68,4.85S191.66,95.74,190.2,123.3Z"/><path class="cls-17" d="M186.73,126.79s-.42,2.65-4.44,1-5.15-24.19-22.81-30.24l.46-3.53S183.35,98.48,186.73,126.79Z"/><path class="cls-17" d="M32.38,103.74a16.48,16.48,0,0,0-6.58,8.76c-2.57,8.69-2.42,14-2.42,14s0,2-2.78,2.35-5.91-2-4.35-2.85,5,.43,5.49-1-1.21-11,5.48-19.3c0,0,2.58-2.49,5.23-4.8"/><g id="whatshot"><path class="cls-18" d="M91.88,123.37A80,80,0,0,1,94,138.87c0,6.54-4.48,12-11,12a11.9,11.9,0,0,1-11.71-12v-1a44.72,44.72,0,0,0-10.33,28.59,25.83,25.83,0,1,0,51.65,0A54.22,54.22,0,0,0,91.88,123.37Zm-5.16,58.54a10.07,10.07,0,0,1-10.34-10c0-5.17,3.45-9,9-10,5.85-1,11.71-3.79,14.81-8.27a41.88,41.88,0,0,1,2.06,13.09A15.36,15.36,0,0,1,86.72,181.91Z"/></g><path class="cls-7" d="M115.52,50.12a8.25,8.25,0,0,0-1.15-3.69,8.72,8.72,0,0,0-2.45-2.67c-.25-.16-.51-.31-.77-.46s-.57-.23-.84-.34a12.21,12.21,0,0,1-1.63-.79,14.21,14.21,0,0,1-1.65-1,8.73,8.73,0,0,1-1.74-1.3h0a.16.16,0,0,1,0-.24.15.15,0,0,1,.06-.05,7.67,7.67,0,0,1,2.24-.44,9.84,9.84,0,0,1,2.22.27A8.34,8.34,0,0,1,113.52,42a9.29,9.29,0,0,1,2.24,3.9,8.33,8.33,0,0,1,.06,4.29.15.15,0,0,1-.18.11.14.14,0,0,1-.11-.13Z"/><path class="cls-7" d="M83.08,45.78A5.49,5.49,0,0,0,80,45a10.33,10.33,0,0,0-1.57.08l-.78.1-.78.16a19.87,19.87,0,0,1-3.07.89,9.43,9.43,0,0,1-1.69,0A6.65,6.65,0,0,1,70.26,46h0a.18.18,0,0,1-.12-.23.08.08,0,0,1,0,0,6.59,6.59,0,0,1,2.9-2.38,5.07,5.07,0,0,1,1.77-.4c.62,0,1.23,0,1.85,0a10.84,10.84,0,0,1,3.65.57,5.74,5.74,0,0,1,3,2.1.16.16,0,0,1,0,.21.15.15,0,0,1-.16,0Z"/></g></g></g></svg>