<svg xmlns="http://www.w3.org/2000/svg" viewBox="0 0 204 236.54"><defs><style>.cls-1{isolation:isolate;}.cls-2,.cls-6{fill:#231f20;}.cls-2{opacity:0.3;}.cls-16,.cls-19,.cls-2,.cls-5,.cls-6{mix-blend-mode:soft-light;}.cls-3{fill:#f4b008;}.cls-4{fill:#0f3c47;}.cls-16,.cls-19,.cls-5{fill:#fff;}.cls-7{fill:#e5bd17;}.cls-8{opacity:0.3;mix-blend-mode:multiply;}.cls-9{fill:#1e0707;}.cls-10{fill:#f6d433;}.cls-11{fill:#d1b12a;}.cls-12,.cls-13{fill:#3f616f;}.cls-12{stroke:#000;stroke-miterlimit:10;stroke-width:2px;}.cls-14{fill:#e6e7e8;}.cls-15{fill:#193441;}.cls-16{opacity:0.4;}.cls-17{fill:#efc929;}.cls-18{fill:#a73e5c;}.cls-19{opacity:0.55;}</style></defs><title>1_sun</title><g class="cls-1"><g id="Layer_2" data-name="Layer 2"><g id="OBJECTS"><path class="cls-2" d="M81.86,194.58s-52.18-3.33-68,10,17.36,35.14,93.08,31.57,52.33-23.55,79.36-27S163,187.38,81.86,194.58Z"/><path class="cls-2" d="M85.73,198.5s-42-2.69-54.81,8.05,14,28.31,75,25.44,42.16-19,63.93-21.77S151.07,192.7,85.73,198.5Z"/><path class="cls-3" d="M133.26,209.16l19.07,15s-20.4-8.27-32.22,5l-5.59-16.3Z"/><path class="cls-3" d="M81.64,213.41l5.62,16.34s-21.53-9.24-41.42-6.47l16.3-18.7Z"/><path class="cls-4" d="M153,99.84s11.8-.58,16.54,7S171,118.5,171,118.5s1.95,3.85,6.56,1.26,8.51-9.15,5.31-19.19S164.25,76.35,149.67,75.7,153,99.84,153,99.84Z"/><path class="cls-5" d="M163,100.47a16.15,16.15,0,0,1,7.81,6.38c4.78,7.7,1,11.54,1,11.54s.55,1.91,3.3,1.54,5.17-3.49,3.43-3.9-2.27.93-3.12-.32,6.75-5.73-7.82-15.08c0,0-2.33-1.28-5-2.6"/><path class="cls-6" d="M161.39,92.94c6.48,2.9,15.57,8.42,16.84,21.17,0,0,2.23,3.8,3.74-1.79,0,0,1.9-22-23.23-32.07"/><path class="cls-7" d="M165,121.7h0c-2.94,3.89-3.29,16.11-2.65,22.69l-5.47.54v-.05l-1.37.14c-.19-2-1.08-19.39,3.59-26.81h0s10-18.08,27.21-7.51a6,6,0,0,1,1.08,1.12c6.13,6.27,6,25.31,6,27.46l-1.37,0v.12l-5.5-.12c.11-7.18-1-19.85-4.33-23.29l-.42-.43A5.88,5.88,0,0,0,179.4,114C176.66,113.1,170.93,112.71,165,121.7Z"/><g class="cls-8"><path class="cls-9" d="M190.4,136.34c-1.36-1.53-4.2-2.17-5.53,1.81-2.86-4.32-6.9-3.4-8.35,3-4.6-.43-8.33,8.5-3.73,10.77-2.4,5-5.06,12.92,1,12.46-2.8,6.7,1,10.63,5.45,8,1.1,4.53,4.9,8.45,8.24,3.1,4.34,3.43,11.87-1.59,12-9.52,4.85-2.57,6.16-10.22,2.23-13.56,3.21-4.78,1.41-11.75,0-14.62-1.84-3.72-7.67-7.91-11.28-1.4"/></g><path class="cls-10" d="M188.4,133.34c-1.36-1.53-4.2-2.17-5.53,1.81-2.86-4.32-6.9-3.4-8.35,3-4.6-.43-8.33,8.5-3.73,10.77-2.4,5-5.06,12.92,1,12.46-2.8,6.7,1,10.63,5.45,8,1.1,4.53,4.9,8.45,8.24,3.1,4.34,3.43,11.87-1.59,12-9.52,4.85-2.57,6.16-10.22,2.23-13.56,3.21-4.78,1.41-11.75,0-14.62-1.84-3.72-7.67-7.91-11.28-1.4"/><g class="cls-8"><path class="cls-9" d="M161.23,134.38c-1.29-1.45-3.92-1.94-5,2.09-2.72-4.14-6.43-3-7.63,3.44-4.24-.19-7.48,8.92-3.2,10.93-2.1,5.06-4.39,13.13,1.2,12.35-2.44,6.83,1.14,10.53,5.17,7.64,1.11,4.45,4.69,8.15,7.66,2.64,4.06,3.18,10.89-2.22,10.81-10.12,4.4-2.82,5.45-10.51,1.76-13.63,2.86-4.93,1.05-11.77-.31-14.55-1.78-3.61-7.23-7.48-10.41-.79"/></g><path class="cls-10" d="M159.23,133.38c-1.29-1.45-3.92-1.94-5,2.09-2.72-4.14-6.43-3-7.63,3.44-4.24-.19-7.48,8.92-3.2,10.93-2.1,5.06-4.39,13.13,1.2,12.35-2.44,6.83,1.14,10.53,5.17,7.64,1.11,4.45,4.69,8.15,7.66,2.64,4.06,3.18,10.89-2.22,10.81-10.12,4.4-2.82,5.45-10.51,1.76-13.63,2.86-4.93,1.05-11.77-.31-14.55-1.78-3.61-7.23-7.48-10.41-.79"/><ellipse class="cls-11" cx="183.73" cy="152.48" rx="12.38" ry="4.4" transform="translate(8.5 314.66) rotate(-82.47)"/><path class="cls-12" d="M20.79,164.22c-4.82-29.84-8.66-76.72,4-118.58A62.62,62.62,0,0,1,79.68,1.47Q83.84,1.13,88.2,1a62.66,62.66,0,0,1,60.62,42.27,363,363,0,0,1,19.71,112.44,62.68,62.68,0,0,1-60,63.41l-2.23.07a143.16,143.16,0,0,1-39.67-4.34A62.6,62.6,0,0,1,20.79,164.22Z"/><path class="cls-13" d="M34.4,98.07s-9.78,4.54-12.93,12.56-3.38,23.77-10.3,22.9-11-9.7-11.17-24.8S12.77,82.52,20.82,78.06,34.76,88.05,34.4,98.07Z"/><path class="cls-14" d="M100.42,26.71S91,11.89,77.9,13.88,55.39,55.49,60.81,77.43c0,0-29.36,23.37-19.1,74.38s53.86,66.4,87.78,49.87,39-92.11,15.38-122.57c0,0,4.27-23-7.26-45.56S107.54,2.2,100.42,26.71Z"/><path class="cls-15" d="M114.26,44c.9,4.62,3.36,8,5.5,7.62s3.16-4.5,2.26-9.12-3.35-8-5.5-7.61S113.36,39.4,114.26,44Z"/><path class="cls-15" d="M80.25,47.15c.9,4.62,3.36,8,5.5,7.61s3.16-4.49,2.27-9.11-3.36-8-5.51-7.62S79.35,42.53,80.25,47.15Z"/><path class="cls-6" d="M4.83,126.17s-5.37-14.24-2.18-24.53,9.45-17.85,17.66-20S27,84.76,26.43,86,.78,98.87,4.83,126.17Z"/><path class="cls-5" d="M8.61,129.32s.66,2.59,4.51.58S16,105.33,33,97.64l-.79-3.47S9.31,100.82,8.61,129.32Z"/><path class="cls-16" d="M52.78,11.16C57.13,9.9,65.4,2.89,86.78,2c16.79-.71,27.54,5,35.49,9.49.1.06.21.09.31.15.87.45,4.86,2.76,1.94,5.3-3.17,2.77-73.63,8.67-73.41-4A2,2,0,0,1,52.78,11.16Z"/><path class="cls-6" d="M159.67,110a376,376,0,0,1,4.9,40.9c2,32.56-22.61,60.93-55.17,62.88-2.09.12-4.25.19-6.48.19-5,0-9.71-.25-14.16-.69-33.67-3.37-59.78-22.5-66-62.76a207.13,207.13,0,0,1-2.63-31.13S64.6,173,111.4,168.1,159.67,110,159.67,110Z"/><path class="cls-17" d="M81.09,156.69a1,1,0,0,0,.64.8l8.86,3.31-3.66,9.63a1.19,1.19,0,0,0,.12,1.07,1,1,0,0,0,.88.42l9.27-1.27.39,10.45a1.1,1.1,0,0,0,.51.91.86.86,0,0,0,1,0l7.89-5.6,4.35,9a1,1,0,0,0,.81.58h0a.92.92,0,0,0,.81-.51l5-8.56,7.48,6.28a.85.85,0,0,0,1,.12,1,1,0,0,0,.58-.86L128.06,172l9.15,2.08a.89.89,0,0,0,.91-.34,1.17,1.17,0,0,0,.19-1.06l-3-9.92,9.06-2.52a1,1,0,0,0,.7-.74,1.2,1.2,0,0,0-.24-1.05l-6.48-7.53,7.22-6.64a1.11,1.11,0,0,0,.34-1,1,1,0,0,0-.61-.83l-8.73-3.7,4-9.46a1.16,1.16,0,0,0-.08-1.07.92.92,0,0,0-.87-.46l-9.3.87,0-10.47a1.1,1.1,0,0,0-.48-.93.88.88,0,0,0-1,0l-9.27,6-5.36-10.4a.91.91,0,0,0-1.66,0l-4.67,9.06L100.21,116a.85.85,0,0,0-.95-.08,1.08,1.08,0,0,0-.55.88L98,127.2l-9.22-1.67a.89.89,0,0,0-.9.38,1.2,1.2,0,0,0-.15,1.06L91,136.75l-9,2.92a1,1,0,0,0-.67.77,1.17,1.17,0,0,0,.27,1l6.74,7.24-7,6.95A1.16,1.16,0,0,0,81.09,156.69Z"/><ellipse class="cls-10" cx="113.72" cy="148.92" rx="19.78" ry="22.27"/><path class="cls-15" d="M122,28.09a8.45,8.45,0,0,0-3.79-.72,8.64,8.64,0,0,0-3.51.9l-.77.47c-.25.17-.47.39-.7.58a12.23,12.23,0,0,1-1.47,1.06,14.66,14.66,0,0,1-1.67,1,9,9,0,0,1-2,.92h0a.16.16,0,0,1-.21-.11.25.25,0,0,1,0-.08,7.58,7.58,0,0,1,.67-2.18,9.7,9.7,0,0,1,1.28-1.83,8.27,8.27,0,0,1,4-2.06,9.32,9.32,0,0,1,4.51-.14,8.39,8.39,0,0,1,3.81,2,.17.17,0,0,1,0,.22.16.16,0,0,1-.17,0Z"/><path class="cls-15" d="M87.45,32.89a5.49,5.49,0,0,0-3.06-.76,9.2,9.2,0,0,0-1.57.1l-.78.12-.78.17a19.27,19.27,0,0,1-3.06.93,9.19,9.19,0,0,1-1.68.08,6.64,6.64,0,0,1-1.89-.26h0a.17.17,0,0,1-.12-.22.08.08,0,0,1,0,0,6.57,6.57,0,0,1,2.86-2.43,5.11,5.11,0,0,1,1.76-.43c.63,0,1.24,0,1.86,0a11.17,11.17,0,0,1,3.66.51,5.8,5.8,0,0,1,3,2.06.14.14,0,0,1,0,.2.15.15,0,0,1-.16,0Z"/><path class="cls-18" d="M119.43,76.31c-8.18-4.32-5.86-8-5.86-8s-13.45,3.42-13.46,3.53c-.31,7.32-6.2,3.65-5.2,3.93l9.24,8.92"/><path class="cls-3" d="M87.26,65.9s5.13,6.27,10.83,4.28,9-7.84,9-7.84a83.26,83.26,0,0,1,31.55,8.59s-13.58-.79-20.78,4.34-18.32,5.45-21.45,1.46c0,0,5.32,9.69,23.05-.42C119.43,76.31,93.21,106,87.26,65.9Z"/><path class="cls-19" d="M108.24,64.05a168.2,168.2,0,0,1,24.42,5.83s-7.83.42-11.36,1.4c-8,2.24-14,7.9-18.14,5.74a14.56,14.56,0,0,1-5.81-5.21S105.6,72,108.24,64.05Z"/></g></g></g></svg>