<?xml version="1.0" encoding="utf-8"?>
<!-- Generator: Adobe Illustrator 22.1.0, SVG Export Plug-In . SVG Version: 6.00 Build 0)  -->
<svg version="1.1" id="Layer_1" xmlns="http://www.w3.org/2000/svg" xmlns:xlink="http://www.w3.org/1999/xlink" x="0px" y="0px"
	 viewBox="0 0 113.3 109.3" style="enable-background:new 0 0 113.3 109.3;" xml:space="preserve">
<style type="text/css">
	.st0{opacity:0.25;fill:#F38F31;}
	.st1{enable-background:new    ;}
	.st2{fill:#F38F31;}
</style>
<ellipse id="Ellipse_1082" transform="matrix(0.766 -0.6428 0.6428 0.766 -21.886 49.1927)" class="st0" cx="56.6" cy="54.7" rx="47.5" ry="31.5"/>
<g class="st1">
	<path class="st2" d="M69.5,65.5c0,0.5-0.2,0.9-0.5,1.4c-0.3,0.5-0.7,0.7-1.2,0.7c-0.4,0-1-0.1-1.8-0.3c-0.8-0.2-1.4-0.3-1.9-0.3
		c-5.3,0-10.5,0.8-15.8,2.4c-1,0.3-1.7,0.5-2,0.5c-0.8,0-1.5-0.2-2.1-0.7c-0.6-0.5-0.9-1.1-0.9-1.9c0-0.8,0.4-1.7,1.2-2.5
		c0.3-0.3,1.1-1,2.2-1.9c3.4-2.7,6.4-5.7,9.1-9c3.5-4.3,5.2-8,5.2-11.1c0-1.2-0.4-2.2-1.3-3c-0.9-0.8-1.9-1.1-3.2-1.1
		c-1.4,0-2.9,0.6-4.5,1.7c-1.6,1.1-2.6,2.3-3,3.6c-0.2,1.1-0.5,2.3-0.7,3.4c-0.4,1.5-1.1,2.2-2.1,2.2c-0.5,0-1.1-0.3-1.8-0.9
		c-0.7-0.6-1.1-1.1-1.1-1.5c0-2,0.9-4.1,2.8-6.3c1.7-2.1,3.5-3.6,5.4-4.5c1.7-0.8,3.5-1.2,5.4-1.2c2.3,0,4.4,0.8,6.2,2.5
		c1.8,1.7,2.7,3.7,2.7,6c0,3.5-1.8,7.2-5.3,11.2c-1.2,1.4-4.4,4.3-9.5,8.9c-0.5,0.4-0.9,0.8-1.3,1.2l16.4-2.5c0.2,0,0.4,0,0.6,0
		c0.8,0,1.4,0.3,1.8,1C69.3,64,69.5,64.7,69.5,65.5z"/>
</g>
</svg>
