<svg id="svg" version="1.1" width="400" height="385.96491228070175" viewBox="0 0 400 385.96491228070175" xmlns="http://www.w3.org/2000/svg" xmlns:xlink="http://www.w3.org/1999/xlink" ><g id="svgg"><path id="path0" d="M191.120 120.448 C 188.323 120.693,184.366 121.744,183.610 122.441 C 183.408 122.628,182.962 122.780,182.619 122.780 C 181.620 122.780,177.915 124.842,176.499 126.187 C 175.784 126.866,174.742 127.534,174.183 127.671 C 173.334 127.880,169.147 131.003,168.819 131.672 C 168.763 131.784,167.244 133.426,165.442 135.319 C 163.640 137.212,162.055 139.111,161.919 139.540 C 161.783 139.968,161.244 140.655,160.720 141.067 C 160.196 141.479,159.443 142.573,159.047 143.498 C 158.346 145.133,158.027 145.622,156.699 147.093 C 156.349 147.481,155.844 148.467,155.577 149.285 C 154.232 153.402,153.552 155.083,152.972 155.726 C 152.484 156.267,152.332 157.221,152.325 159.796 L 152.317 163.160 154.278 165.124 C 161.221 172.073,167.044 169.245,168.197 158.364 C 168.562 154.923,168.962 153.046,169.638 151.607 C 170.152 150.511,170.945 148.446,171.399 147.018 C 171.855 145.585,172.729 143.871,173.351 143.190 C 173.970 142.512,174.669 141.493,174.904 140.924 C 175.140 140.356,175.931 139.606,176.662 139.257 C 177.394 138.908,177.992 138.448,177.992 138.236 C 177.992 138.023,178.731 137.378,179.633 136.803 C 180.536 136.227,181.659 135.419,182.128 135.006 C 183.841 133.502,190.916 129.987,193.583 129.315 C 198.256 128.138,204.802 129.295,207.405 131.757 C 207.686 132.022,208.412 132.496,209.019 132.810 C 209.625 133.123,210.659 134.166,211.314 135.126 C 211.970 136.087,212.747 137.054,213.040 137.275 C 215.882 139.422,215.459 156.025,212.487 158.996 C 212.202 159.281,211.969 159.849,211.969 160.258 C 211.969 161.448,210.391 165.759,209.646 166.602 C 208.972 167.366,207.677 170.034,207.163 171.719 C 207.017 172.197,206.585 172.755,206.203 172.959 C 205.822 173.163,205.034 174.334,204.453 175.561 C 203.872 176.788,202.824 178.426,202.124 179.201 C 201.424 179.976,200.732 180.985,200.587 181.444 C 200.441 181.903,199.748 182.852,199.047 183.553 C 198.345 184.254,197.657 185.188,197.518 185.628 C 197.378 186.068,196.620 187.131,195.833 187.990 C 195.046 188.850,194.000 190.036,193.510 190.626 C 186.472 199.095,174.970 210.574,166.126 217.954 C 165.362 218.591,163.941 219.854,162.967 220.761 C 161.994 221.669,160.844 222.503,160.413 222.616 C 159.982 222.729,159.398 223.345,159.114 223.986 C 158.828 224.631,158.024 225.425,157.313 225.764 C 156.605 226.102,155.822 226.873,155.571 227.479 C 155.320 228.085,154.537 229.212,153.831 229.983 C 151.323 232.721,151.546 236.024,154.438 238.994 C 155.474 240.057,156.590 240.927,156.919 240.927 C 157.248 240.927,158.274 241.129,159.199 241.376 C 160.945 241.843,169.063 240.987,171.389 240.091 C 171.942 239.878,173.682 239.455,175.257 239.151 C 176.832 238.847,178.334 238.421,178.597 238.203 C 178.859 237.985,180.692 237.627,182.669 237.406 C 184.647 237.185,186.551 236.852,186.900 236.665 C 187.248 236.478,189.166 236.130,191.161 235.892 C 193.155 235.653,195.414 235.223,196.179 234.936 C 198.332 234.129,215.435 233.424,223.745 233.799 C 236.899 234.393,238.389 234.329,239.499 233.131 C 241.629 230.831,241.506 227.597,239.199 225.222 C 238.450 224.451,237.838 223.589,237.838 223.307 C 237.838 222.791,237.237 222.587,234.749 222.256 C 232.543 221.962,220.844 222.748,218.340 223.357 C 217.066 223.668,214.373 224.099,212.355 224.317 C 210.338 224.534,207.992 224.951,207.143 225.243 C 206.293 225.535,203.514 225.891,200.965 226.035 C 198.417 226.178,195.290 226.542,194.015 226.843 C 192.741 227.144,189.876 227.582,187.649 227.817 C 185.421 228.052,183.381 228.425,183.115 228.646 C 180.420 230.882,175.418 227.658,176.970 224.685 C 177.254 224.140,177.601 223.241,177.740 222.687 C 177.879 222.133,178.528 221.276,179.182 220.782 C 179.837 220.288,181.080 219.146,181.944 218.243 C 182.809 217.341,183.717 216.602,183.962 216.602 C 184.207 216.602,184.919 215.911,185.544 215.067 C 186.168 214.223,186.791 213.528,186.928 213.523 C 187.116 213.516,192.374 208.585,195.073 205.884 C 199.909 201.047,206.755 193.890,207.208 193.198 C 207.540 192.692,208.043 192.278,208.327 192.278 C 208.612 192.278,209.134 191.668,209.487 190.922 C 209.841 190.176,210.593 189.177,211.158 188.702 C 211.723 188.226,212.749 187.056,213.436 186.100 C 214.124 185.145,215.288 183.581,216.022 182.625 C 216.755 181.670,217.360 180.700,217.365 180.470 C 217.370 180.240,217.958 179.458,218.672 178.732 C 219.385 178.007,220.088 176.918,220.233 176.313 C 220.480 175.285,221.581 173.470,222.674 172.290 C 222.934 172.009,223.390 170.962,223.688 169.963 C 224.486 167.284,225.419 165.194,226.031 164.711 C 228.935 162.425,228.661 139.892,225.685 136.174 C 225.143 135.497,224.550 134.757,224.369 134.530 C 224.187 134.303,223.808 133.478,223.525 132.696 C 223.242 131.914,222.897 131.274,222.759 131.274 C 222.341 131.274,220.588 129.525,220.110 128.633 C 219.865 128.174,219.402 127.799,219.082 127.799 C 218.762 127.799,217.682 127.061,216.682 126.158 C 214.751 124.415,213.905 123.817,212.355 123.100 C 211.824 122.855,210.471 122.224,209.348 121.699 C 206.226 120.239,199.085 119.749,191.120 120.448 " stroke="none" fill="#fcf4eb" fill-rule="evenodd"></path><path id="path1" d="M235.270 51.532 C 235.390 51.844,235.321 52.202,235.118 52.327 C 234.915 52.453,234.749 52.290,234.749 51.965 C 234.749 51.600,234.529 51.460,234.170 51.598 C 233.813 51.735,233.591 52.322,233.591 53.130 L 233.591 54.440 228.089 54.471 C 225.063 54.488,221.240 54.505,219.595 54.508 C 217.949 54.511,216.602 54.666,216.602 54.851 C 216.602 55.036,216.342 55.088,216.023 54.966 C 215.705 54.844,215.444 54.920,215.444 55.135 C 215.444 55.350,215.128 55.443,214.741 55.342 C 213.946 55.134,212.970 56.092,213.218 56.837 C 213.597 57.971,212.424 58.278,207.310 58.386 C 203.353 58.470,202.146 58.616,202.009 59.031 C 201.887 59.396,202.000 59.470,202.363 59.264 C 202.793 59.018,202.803 59.060,202.413 59.480 C 202.148 59.766,201.931 60.400,201.931 60.888 C 201.931 61.702,197.798 62.269,195.230 61.808 C 195.048 61.776,194.624 61.972,194.287 62.245 C 193.819 62.624,193.743 62.627,193.964 62.259 C 194.147 61.955,194.031 61.776,193.652 61.776 C 193.308 61.776,193.050 62.106,193.050 62.548 C 193.050 63.240,192.649 63.501,191.795 63.366 C 191.636 63.341,191.506 63.581,191.506 63.900 C 191.506 64.218,191.680 64.479,191.892 64.479 C 192.104 64.479,192.278 64.653,192.278 64.865 C 192.278 65.077,192.148 65.230,191.988 65.205 C 191.829 65.180,190.092 65.180,188.127 65.205 L 184.556 65.251 184.556 66.988 L 184.556 68.726 181.413 68.726 C 178.878 68.726,178.169 68.856,177.744 69.402 C 177.243 70.045,177.229 70.045,177.453 69.402 C 177.585 69.023,177.501 68.726,177.261 68.726 C 177.026 68.726,176.834 69.073,176.834 69.498 C 176.834 69.923,176.676 70.270,176.484 70.270 C 176.292 70.270,176.225 69.923,176.336 69.498 C 176.596 68.505,175.646 68.465,174.770 69.432 C 174.019 70.262,173.912 71.212,174.614 70.815 C 174.879 70.665,174.720 70.909,174.260 71.357 C 173.587 72.012,172.889 72.185,170.691 72.240 C 168.752 72.289,167.817 72.483,167.473 72.908 C 167.203 73.242,167.178 73.394,167.417 73.251 C 167.653 73.110,167.566 73.592,167.224 74.322 C 166.624 75.604,165.776 75.951,163.832 75.711 C 163.583 75.680,163.279 75.817,163.156 76.015 C 163.034 76.213,162.559 76.277,162.101 76.158 C 161.535 76.010,161.357 76.082,161.543 76.383 C 161.726 76.679,161.596 76.741,161.150 76.569 C 160.634 76.371,160.541 76.464,160.739 76.980 C 160.891 77.377,160.840 77.551,160.613 77.410 C 160.403 77.281,160.232 77.451,160.232 77.790 C 160.232 78.547,161.493 77.986,162.175 76.926 C 162.584 76.291,162.595 76.291,162.396 76.931 C 162.281 77.302,162.292 77.606,162.421 77.606 C 162.550 77.606,162.902 77.302,163.203 76.931 C 163.707 76.306,163.721 76.314,163.378 77.031 C 162.880 78.071,161.448 79.338,161.130 79.020 C 160.990 78.879,161.078 78.764,161.326 78.764 C 161.573 78.764,161.776 78.571,161.776 78.334 C 161.776 78.084,161.332 78.198,160.714 78.607 C 160.130 78.994,158.958 79.318,158.108 79.327 C 156.590 79.343,156.564 79.368,156.564 80.759 C 156.564 82.588,156.415 82.703,154.072 82.685 C 152.935 82.676,152.200 82.823,152.330 83.034 C 152.641 83.536,151.987 83.492,151.470 82.976 C 151.165 82.671,150.796 82.691,150.138 83.049 L 149.228 83.543 150.193 83.818 C 150.724 83.969,150.941 84.110,150.676 84.131 C 150.410 84.153,150.193 84.431,150.193 84.749 C 150.193 85.068,150.009 85.328,149.784 85.328 C 149.559 85.328,149.483 85.502,149.614 85.714 C 149.890 86.162,149.423 86.244,147.338 86.116 C 146.109 86.040,145.876 86.134,146.066 86.628 C 146.194 86.961,146.105 87.353,145.869 87.499 C 145.610 87.660,145.549 87.588,145.716 87.318 C 145.881 87.052,145.742 86.873,145.372 86.873 C 144.718 86.873,143.083 88.318,142.810 89.138 C 142.721 89.404,142.044 89.634,141.305 89.649 C 139.530 89.686,138.996 90.171,138.996 91.746 C 138.996 92.999,138.938 93.050,137.529 93.050 C 135.680 93.050,135.135 93.595,135.135 95.444 C 135.135 96.892,135.115 96.911,133.632 96.911 C 132.077 96.911,130.174 98.239,129.622 99.710 C 129.384 100.344,128.510 100.584,126.931 100.452 C 126.559 100.421,126.255 100.567,126.255 100.777 C 126.255 100.987,126.049 101.115,125.797 101.062 C 125.546 101.009,125.295 101.443,125.241 102.027 C 125.175 102.739,125.326 103.089,125.699 103.089 C 126.005 103.089,126.255 103.246,126.255 103.439 C 126.255 103.631,125.880 103.691,125.422 103.571 C 124.938 103.444,124.686 103.509,124.819 103.725 C 124.953 103.940,124.387 104.087,123.469 104.075 C 121.857 104.054,121.009 104.807,122.276 105.135 C 122.827 105.278,122.791 105.325,122.104 105.361 C 121.594 105.387,121.236 105.654,121.236 106.007 C 121.236 106.338,121.409 106.502,121.622 106.371 C 121.834 106.239,122.008 106.320,122.008 106.551 C 122.008 106.975,120.056 107.541,118.822 107.473 C 118.451 107.453,118.147 107.573,118.147 107.741 C 118.147 107.908,118.030 108.348,117.888 108.719 C 117.692 109.231,117.761 109.314,118.178 109.063 C 118.641 108.783,118.646 108.831,118.210 109.368 C 117.926 109.718,117.806 110.186,117.943 110.408 C 118.091 110.648,117.792 110.811,117.204 110.811 C 116.661 110.811,116.214 111.028,116.210 111.293 C 116.206 111.638,116.107 111.622,115.863 111.237 C 115.450 110.585,114.286 110.950,114.286 111.732 C 114.286 112.039,114.503 112.378,114.768 112.486 C 115.154 112.641,115.154 112.686,114.768 112.711 C 114.503 112.728,114.286 113.089,114.286 113.514 C 114.286 114.049,114.028 114.286,113.447 114.286 C 112.986 114.286,112.251 114.590,111.813 114.961 C 111.053 115.606,111.041 115.606,111.548 114.953 C 112.011 114.355,111.998 114.299,111.445 114.511 C 111.007 114.679,110.811 115.220,110.811 116.258 C 110.811 117.084,110.637 117.782,110.425 117.809 C 110.212 117.835,109.879 117.879,109.685 117.905 C 109.490 117.932,109.200 118.084,109.041 118.243 C 108.882 118.403,108.470 118.533,108.126 118.533 C 107.702 118.533,107.470 118.923,107.408 119.744 C 107.286 121.344,107.098 121.588,106.177 121.347 C 105.712 121.226,105.405 121.336,105.405 121.624 C 105.405 121.999,105.284 122.002,104.842 121.635 C 104.253 121.146,103.527 122.699,103.992 123.452 C 104.379 124.079,103.620 124.708,102.295 124.859 C 101.563 124.942,100.826 125.030,100.656 125.053 C 100.486 125.077,100.417 125.792,100.502 126.641 C 100.662 128.237,100.497 128.384,98.745 128.206 C 98.374 128.168,98.069 128.321,98.069 128.547 C 98.069 128.773,97.852 128.914,97.587 128.861 C 97.321 128.808,97.148 128.982,97.201 129.247 C 97.254 129.513,97.103 129.730,96.866 129.730 C 96.618 129.730,96.525 130.075,96.648 130.545 C 96.802 131.133,96.654 131.414,96.114 131.555 C 95.703 131.662,95.367 131.898,95.367 132.079 C 95.367 132.260,95.134 132.319,94.850 132.210 C 94.218 131.967,93.273 133.015,93.619 133.574 C 93.756 133.795,93.684 133.977,93.459 133.977 C 93.234 133.977,93.050 134.250,93.050 134.584 C 93.050 135.300,92.088 136.361,91.747 136.020 C 91.257 135.530,89.903 137.233,90.074 138.126 C 90.167 138.615,90.122 139.090,89.973 139.182 C 89.824 139.274,89.678 139.990,89.648 140.772 C 89.583 142.509,89.674 142.420,87.818 142.564 C 86.343 142.678,86.293 142.728,86.293 144.088 C 86.293 145.857,86.018 146.124,84.318 146.010 C 83.451 145.951,83.039 146.065,83.196 146.318 C 83.332 146.538,83.271 146.718,83.061 146.718 C 82.851 146.718,82.689 147.196,82.701 147.780 C 82.756 150.430,82.605 151.229,82.227 150.290 C 81.795 149.215,81.033 149.180,80.116 150.193 C 79.731 150.618,79.589 150.965,79.799 150.965 C 80.008 150.965,80.180 151.218,80.180 151.527 C 80.180 151.837,80.054 152.011,79.899 151.916 C 79.744 151.820,79.513 152.016,79.384 152.350 C 79.045 153.233,79.092 153.363,79.633 153.037 C 79.996 152.820,80.013 152.886,79.703 153.304 C 79.476 153.610,79.260 154.354,79.222 154.957 C 79.133 156.384,78.869 156.773,78.172 156.505 C 77.860 156.385,77.301 156.614,76.930 157.013 C 76.558 157.412,76.385 157.570,76.544 157.363 C 77.067 156.686,76.847 156.265,76.235 156.773 C 75.815 157.122,75.680 157.760,75.782 158.909 C 75.920 160.446,75.861 160.561,74.833 160.767 C 74.124 160.909,73.570 161.365,73.266 162.057 C 73.007 162.646,72.618 163.258,72.402 163.417 C 72.149 163.602,72.216 163.843,72.587 164.087 C 72.974 164.341,73.006 164.469,72.683 164.473 C 72.418 164.476,72.201 164.926,72.201 165.472 C 72.201 166.457,71.327 167.723,70.924 167.321 C 70.438 166.834,69.066 167.626,69.496 168.145 C 69.808 168.521,69.798 168.734,69.457 168.944 C 69.163 169.126,69.093 169.068,69.268 168.786 C 69.420 168.540,69.360 168.340,69.135 168.340 C 68.910 168.340,68.726 168.600,68.726 168.919 C 68.726 169.623,69.550 169.676,70.216 169.015 C 70.606 168.628,70.651 168.667,70.445 169.208 C 70.303 169.580,69.859 169.884,69.457 169.884 C 68.828 169.884,68.726 170.182,68.726 172.008 C 68.726 174.121,68.720 174.131,67.540 174.131 C 65.663 174.131,65.251 174.855,65.251 178.158 C 65.251 179.849,65.088 181.081,64.865 181.081 C 64.653 181.081,64.479 181.429,64.479 181.853 C 64.479 182.278,64.321 182.625,64.129 182.625 C 63.936 182.625,63.870 182.278,63.981 181.853 C 64.121 181.316,63.993 181.081,63.559 181.081 C 63.215 181.081,62.934 181.265,62.934 181.490 C 62.934 181.715,62.773 181.799,62.576 181.677 C 62.127 181.400,61.828 182.413,61.841 184.170 C 61.872 188.160,61.827 188.358,60.943 188.127 C 60.323 187.965,60.191 188.038,60.424 188.416 C 60.622 188.736,60.586 188.829,60.326 188.668 C 59.851 188.375,58.687 188.742,58.687 189.185 C 58.687 189.350,59.035 189.576,59.459 189.687 C 59.905 189.804,60.213 190.190,60.187 190.601 C 60.146 191.247,60.126 191.251,59.966 190.637 C 59.762 189.860,58.301 189.708,58.301 190.463 C 58.301 190.739,58.518 191.199,58.784 191.485 C 59.132 191.861,59.137 191.932,58.801 191.743 C 58.493 191.570,58.348 191.780,58.373 192.362 C 58.610 197.910,58.315 198.710,55.920 199.003 C 55.326 199.076,55.136 199.614,55.704 199.614 C 56.046 199.614,56.449 199.814,56.601 200.060 C 56.771 200.336,56.706 200.401,56.430 200.230 C 56.166 200.067,55.985 200.200,55.985 200.556 C 55.985 200.902,55.654 201.158,55.208 201.158 C 54.514 201.158,54.438 201.393,54.488 203.378 C 54.627 208.856,54.527 209.407,53.273 210.121 C 52.523 210.548,52.027 211.199,51.875 211.955 C 51.746 212.600,51.521 213.127,51.376 213.127 C 51.230 213.127,51.069 218.085,51.020 224.145 L 50.929 235.163 49.732 236.307 C 49.073 236.937,48.397 237.452,48.229 237.452 C 48.062 237.452,47.913 237.756,47.899 238.127 C 47.886 238.499,47.768 239.564,47.637 240.495 C 47.478 241.630,47.533 242.104,47.804 241.936 C 48.027 241.799,48.335 241.890,48.489 242.138 C 48.661 242.418,48.601 242.487,48.330 242.319 C 48.033 242.136,47.887 242.522,47.878 243.515 C 47.870 244.321,47.850 245.763,47.834 246.718 C 47.788 249.434,48.020 250.105,49.541 251.663 L 50.962 253.118 50.982 261.512 C 50.994 266.730,51.141 269.821,51.369 269.680 C 51.873 269.369,51.835 270.018,51.320 270.533 C 50.724 271.129,52.283 274.044,53.491 274.595 C 54.364 274.993,54.440 275.239,54.440 277.649 C 54.440 279.723,54.581 280.361,55.116 280.705 C 55.759 281.119,55.759 281.129,55.116 280.929 C 54.744 280.814,54.440 280.888,54.440 281.093 C 54.440 281.299,54.624 281.467,54.849 281.467 C 55.074 281.467,55.162 281.623,55.044 281.813 C 54.927 282.003,55.105 282.264,55.439 282.392 C 56.347 282.740,56.833 282.675,56.564 282.239 C 56.432 282.027,56.509 281.853,56.734 281.853 C 56.959 281.853,57.143 282.046,57.143 282.281 C 57.143 282.516,57.403 282.608,57.722 282.486 C 58.208 282.300,58.302 282.776,58.307 285.437 C 58.314 289.120,58.426 289.357,60.232 289.524 C 61.910 289.679,61.735 289.374,61.822 292.296 C 61.874 294.035,62.082 294.942,62.512 295.299 C 62.990 295.696,62.999 295.748,62.548 295.532 C 62.078 295.306,62.060 295.351,62.453 295.775 C 62.719 296.062,63.414 296.304,63.998 296.314 C 64.923 296.330,65.074 296.504,65.186 297.682 C 65.357 299.479,65.859 300.000,67.422 300.000 C 68.712 300.000,68.726 300.019,68.726 301.754 C 68.726 302.934,68.884 303.488,69.208 303.446 C 71.601 303.135,72.154 303.436,72.275 305.116 C 72.394 306.753,72.398 306.757,74.131 306.950 C 75.693 307.123,75.856 307.235,75.741 308.053 C 75.539 309.491,76.034 311.091,76.468 310.405 C 76.663 310.097,76.825 310.041,76.828 310.280 C 76.831 310.519,77.276 310.714,77.815 310.714 C 79.025 310.714,79.034 310.724,79.270 312.235 C 79.533 313.922,79.731 314.156,80.971 314.240 C 83.649 314.420,84.001 314.524,84.395 315.251 C 84.956 316.288,84.684 316.539,84.004 315.609 C 83.705 315.201,83.321 315.006,83.151 315.176 C 82.980 315.347,83.096 315.648,83.409 315.845 C 83.774 316.076,83.809 316.207,83.506 316.210 C 83.248 316.214,83.136 316.477,83.258 316.795 C 83.380 317.114,83.646 317.375,83.848 317.375 C 84.050 317.375,84.126 317.230,84.017 317.053 C 83.907 316.876,84.063 316.731,84.363 316.731 C 84.663 316.731,84.819 316.876,84.709 317.053 C 84.600 317.230,84.694 317.375,84.919 317.375 C 85.144 317.375,85.328 317.114,85.328 316.795 C 85.328 316.110,85.939 316.029,86.330 316.662 C 86.501 316.938,86.436 317.003,86.160 316.832 C 85.910 316.678,85.715 316.778,85.715 317.062 C 85.716 317.398,86.313 317.584,87.498 317.618 C 89.135 317.664,90.165 318.278,89.745 318.957 C 89.654 319.104,89.839 319.324,90.157 319.445 C 90.474 319.567,90.736 320.063,90.740 320.548 C 90.744 321.258,90.818 321.316,91.120 320.849 C 91.398 320.419,91.495 320.402,91.500 320.782 C 91.504 321.136,92.011 321.274,93.147 321.229 C 95.975 321.117,96.525 321.212,96.525 321.815 C 96.525 322.133,96.693 322.394,96.899 322.394 C 97.105 322.394,97.173 322.654,97.051 322.973 C 96.929 323.292,97.031 323.552,97.279 323.552 C 97.526 323.552,97.633 323.707,97.517 323.896 C 97.217 324.381,99.216 324.652,103.442 324.702 C 107.542 324.749,107.854 324.845,107.503 325.950 C 107.337 326.475,107.396 326.650,107.681 326.473 C 107.916 326.328,108.108 326.393,108.108 326.618 C 108.108 326.843,107.934 327.027,107.722 327.027 C 107.103 327.027,107.277 327.694,107.964 327.958 C 108.309 328.090,108.864 327.978,109.196 327.709 C 109.530 327.439,109.685 327.413,109.543 327.650 C 109.366 327.945,109.977 328.082,111.496 328.087 C 121.607 328.122,122.171 328.238,121.508 330.153 C 121.119 331.278,125.264 332.237,125.936 331.178 C 126.182 330.792,126.244 330.792,126.249 331.178 C 126.252 331.443,126.439 331.660,126.664 331.660 C 126.889 331.660,126.942 331.443,126.783 331.178 C 126.557 330.802,126.617 330.795,127.054 331.148 C 127.885 331.820,158.185 331.846,159.013 331.176 C 159.488 330.792,159.549 330.792,159.318 331.178 C 159.103 331.536,159.483 331.660,160.788 331.660 C 162.426 331.660,162.756 331.431,162.594 330.405 C 162.569 330.246,162.742 330.116,162.979 330.116 C 163.220 330.116,163.322 329.775,163.209 329.344 C 162.910 328.201,163.002 328.188,171.210 328.167 C 177.005 328.153,178.722 328.040,178.509 327.684 C 178.350 327.420,178.520 327.455,178.903 327.766 C 179.913 328.586,181.096 327.404,180.276 326.393 C 179.925 325.961,179.902 325.824,180.212 326.010 C 180.536 326.205,180.695 326.039,180.695 325.505 C 180.695 324.651,180.053 324.702,191.770 324.621 L 193.772 324.607 194.024 323.117 C 194.345 321.216,194.263 321.252,198.398 321.174 C 200.782 321.129,201.823 320.974,201.664 320.689 C 201.536 320.459,201.665 320.487,201.951 320.753 C 202.697 321.445,203.473 321.348,203.487 320.560 C 203.500 319.841,204.344 318.533,204.795 318.533 C 204.943 318.533,204.957 318.707,204.826 318.919 C 204.695 319.131,204.792 319.305,205.042 319.305 C 205.305 319.305,205.411 318.982,205.294 318.533 C 205.112 317.837,205.290 317.757,207.082 317.724 C 212.060 317.633,212.316 317.538,212.197 315.809 C 212.095 314.346,212.091 314.349,214.888 314.252 C 216.149 314.209,217.432 313.982,217.738 313.747 C 218.161 313.423,218.225 313.436,218.005 313.803 C 217.811 314.127,217.977 314.286,218.510 314.286 C 218.989 314.286,219.305 314.034,219.305 313.654 C 219.305 313.307,219.739 312.620,220.270 312.128 C 221.282 311.191,221.647 311.503,220.675 312.475 C 220.366 312.783,220.236 313.171,220.385 313.336 C 220.534 313.502,220.439 313.512,220.174 313.360 C 219.908 313.207,219.691 313.266,219.691 313.491 C 219.691 314.193,221.197 313.938,222.043 313.092 C 222.522 312.613,222.773 311.984,222.659 311.547 C 222.447 310.739,222.776 310.643,225.248 310.795 C 226.549 310.876,226.726 310.791,226.562 310.164 C 226.441 309.704,226.699 309.193,227.269 308.763 C 228.145 308.103,228.171 308.110,228.410 309.063 C 228.545 309.600,228.820 310.039,229.022 310.039 C 229.224 310.039,229.282 309.865,229.151 309.653 C 229.019 309.440,229.107 309.266,229.345 309.266 C 229.583 309.266,229.747 308.962,229.710 308.591 C 229.556 307.086,229.718 306.950,231.660 306.950 C 232.771 306.950,233.591 306.775,233.591 306.538 C 233.591 306.293,233.924 306.231,234.411 306.386 C 234.959 306.560,235.145 306.506,234.970 306.223 C 234.801 305.949,234.943 305.890,235.375 306.056 C 235.891 306.254,235.984 306.162,235.786 305.645 C 235.620 305.213,235.679 305.071,235.953 305.241 C 236.234 305.414,236.291 305.234,236.123 304.705 C 235.868 303.900,238.208 302.795,239.056 303.319 C 239.236 303.430,239.382 303.336,239.382 303.112 C 239.382 302.887,239.566 302.703,239.791 302.703 C 240.016 302.703,240.076 302.903,239.925 303.148 C 239.747 303.435,239.819 303.489,240.126 303.299 C 240.426 303.114,240.538 302.447,240.429 301.502 L 240.256 300.000 241.749 299.952 C 243.603 299.892,243.632 299.885,244.682 299.302 C 245.427 298.888,245.510 298.908,245.304 299.446 C 245.119 299.929,245.272 300.039,245.988 299.937 C 246.496 299.866,246.911 299.604,246.911 299.356 C 246.911 299.109,247.042 298.776,247.201 298.616 C 247.360 298.457,247.485 298.052,247.478 297.716 C 247.468 297.218,247.361 297.243,246.899 297.854 C 246.587 298.266,246.332 298.423,246.332 298.203 C 246.332 297.324,247.792 296.525,249.400 296.525 C 250.963 296.525,251.045 296.471,250.868 295.546 C 250.765 295.008,250.776 294.663,250.893 294.780 C 251.009 294.896,251.551 294.569,252.097 294.053 C 252.642 293.537,253.436 293.057,253.861 292.986 C 254.286 292.915,254.761 292.683,254.917 292.471 C 255.093 292.232,255.203 292.269,255.206 292.568 C 255.210 292.833,255.473 293.050,255.792 293.050 C 256.113 293.050,256.371 292.707,256.371 292.278 C 256.371 291.587,256.772 291.325,257.625 291.460 C 257.785 291.485,257.915 291.245,257.915 290.927 C 257.915 290.608,257.741 290.347,257.529 290.347 C 257.317 290.347,257.143 290.163,257.143 289.939 C 257.143 289.714,257.286 289.618,257.460 289.726 C 257.635 289.834,258.248 289.677,258.824 289.379 C 259.400 289.080,259.768 289.002,259.642 289.205 C 259.313 289.739,260.377 289.661,260.927 289.112 C 261.464 288.574,261.559 287.495,261.040 287.816 C 260.847 287.934,260.891 287.599,261.136 287.069 C 261.510 286.265,261.853 286.106,263.224 286.103 C 264.551 286.101,264.865 285.966,264.865 285.399 C 264.865 284.536,267.487 282.144,268.050 282.492 C 268.275 282.631,268.351 282.570,268.219 282.356 C 267.772 281.634,268.985 280.427,269.569 281.012 C 269.989 281.434,269.986 281.501,269.546 281.398 C 269.254 281.330,268.939 281.482,268.846 281.736 C 268.694 282.147,269.241 282.186,271.139 281.897 C 271.298 281.873,271.429 281.669,271.429 281.444 C 271.429 281.220,271.211 281.160,270.946 281.313 C 270.681 281.466,270.594 281.447,270.754 281.271 C 270.913 281.095,270.768 280.646,270.431 280.273 C 269.867 279.649,269.874 279.605,270.526 279.714 C 270.916 279.779,271.192 280.026,271.139 280.264 C 271.086 280.501,271.236 280.695,271.474 280.695 C 271.711 280.695,271.816 280.356,271.707 279.941 C 271.424 278.856,272.229 277.889,272.973 278.422 C 273.441 278.758,273.404 278.789,272.780 278.585 C 272.191 278.393,272.114 278.440,272.457 278.785 C 272.781 279.113,273.208 279.127,274.001 278.838 C 274.604 278.619,274.869 278.426,274.591 278.409 C 274.313 278.392,274.193 278.205,274.324 277.992 C 274.456 277.780,274.336 277.604,274.058 277.600 C 273.680 277.596,273.694 277.505,274.113 277.240 C 274.421 277.045,274.812 276.971,274.982 277.075 C 275.151 277.180,275.290 276.982,275.290 276.636 C 275.290 276.290,275.550 275.746,275.869 275.427 C 276.187 275.109,276.448 275.034,276.448 275.262 C 276.448 275.490,276.727 275.676,277.068 275.676 C 277.485 275.676,277.609 275.468,277.446 275.042 C 277.242 274.512,277.299 274.488,277.790 274.896 C 278.114 275.165,278.392 275.319,278.408 275.240 C 278.654 274.042,278.641 273.776,278.344 273.959 C 278.151 274.079,277.992 273.993,277.992 273.768 C 277.992 273.543,278.166 273.359,278.378 273.359 C 278.591 273.359,278.744 273.229,278.719 273.069 C 278.564 272.089,278.800 271.274,279.102 271.749 C 279.510 272.393,281.698 272.194,281.564 271.525 C 281.511 271.260,281.684 271.086,281.950 271.139 C 282.619 271.273,282.818 269.086,282.174 268.677 C 281.823 268.454,281.996 268.350,282.722 268.346 C 283.306 268.342,284.131 267.992,284.556 267.568 C 284.981 267.143,285.328 266.969,285.328 267.181 C 285.328 267.394,285.521 267.568,285.757 267.568 C 286.019 267.568,286.124 267.043,286.027 266.216 C 285.872 264.885,286.280 264.563,287.781 264.832 C 288.475 264.957,289.576 264.406,289.353 264.046 C 289.225 263.839,288.911 263.808,288.654 263.977 C 288.397 264.147,288.509 263.990,288.902 263.628 C 289.296 263.266,289.564 262.658,289.500 262.276 C 289.411 261.750,289.824 261.444,291.218 261.004 C 292.967 260.452,293.048 260.364,292.955 259.119 C 292.891 258.263,293.057 257.718,293.436 257.538 C 293.755 257.387,294.450 257.054,294.981 256.798 L 295.946 256.333 295.034 257.124 C 294.153 257.889,294.149 257.915,294.924 257.915 C 295.365 257.915,295.906 257.579,296.125 257.168 C 296.634 256.219,296.641 255.481,296.139 255.792 C 295.927 255.923,295.753 255.749,295.753 255.405 C 295.753 255.062,295.912 254.879,296.106 254.999 C 296.300 255.119,296.521 255.032,296.596 254.805 C 296.672 254.579,297.309 254.377,298.013 254.357 C 299.383 254.318,300.237 253.071,299.866 251.652 C 299.767 251.274,299.844 250.965,300.036 250.965 C 300.229 250.965,300.386 250.628,300.386 250.216 C 300.386 249.347,300.993 248.841,301.347 249.415 C 301.481 249.630,301.406 249.807,301.181 249.807 C 300.956 249.807,300.772 249.959,300.772 250.145 C 300.772 250.331,301.212 250.483,301.750 250.483 C 302.754 250.483,303.706 249.334,303.277 248.641 C 302.913 248.051,302.391 248.195,302.197 248.938 C 302.064 249.447,302.009 249.399,301.975 248.745 C 301.943 248.119,302.146 247.876,302.703 247.876 C 303.372 247.876,303.475 247.619,303.475 245.946 C 303.475 243.886,303.588 243.801,306.059 243.997 C 306.808 244.057,306.919 243.851,307.024 242.206 C 307.131 240.528,307.227 240.359,308.012 240.468 C 308.531 240.540,308.883 240.385,308.886 240.082 C 308.891 239.711,308.990 239.730,309.256 240.151 C 309.853 241.095,310.372 240.149,310.472 237.934 C 310.522 236.819,310.724 235.907,310.921 235.907 C 311.118 235.907,311.180 236.168,311.057 236.486 C 310.752 237.283,311.567 237.217,312.245 236.390 C 312.549 236.018,312.689 235.931,312.554 236.197 C 312.420 236.462,312.419 236.680,312.553 236.680 C 312.857 236.680,313.932 235.622,313.913 235.342 C 313.721 232.454,315.101 229.730,316.756 229.730 C 317.049 229.730,317.281 229.513,317.271 229.247 C 317.171 226.553,317.371 225.975,318.340 226.160 C 319.148 226.315,319.306 226.197,319.311 225.431 C 319.314 224.929,319.444 224.691,319.601 224.903 C 319.965 225.399,320.980 225.620,320.683 225.139 C 320.559 224.940,320.665 224.708,320.916 224.624 C 321.181 224.536,321.265 224.185,321.115 223.794 C 320.969 223.413,320.642 223.225,320.370 223.363 C 320.103 223.499,320.195 223.355,320.574 223.045 C 320.954 222.735,321.237 222.331,321.204 222.148 C 320.893 220.425,321.285 219.305,322.201 219.305 C 322.732 219.305,323.166 219.131,323.166 218.919 C 323.166 218.707,323.514 218.533,323.938 218.533 C 324.363 218.533,324.710 218.359,324.710 218.147 C 324.710 217.934,324.493 217.758,324.228 217.755 C 323.867 217.750,323.875 217.666,324.261 217.422 C 324.544 217.242,324.762 216.984,324.743 216.849 C 324.637 216.052,324.805 215.821,325.647 215.610 C 327.194 215.221,328.057 214.015,327.466 213.068 C 327.195 212.635,327.072 212.181,327.193 212.060 C 327.314 211.939,327.413 212.078,327.413 212.368 C 327.413 214.071,328.155 211.769,328.257 209.750 C 328.359 207.717,328.958 206.151,328.958 207.915 C 328.958 208.234,329.131 208.494,329.344 208.494 C 329.556 208.494,329.732 208.277,329.736 208.012 C 329.740 207.689,329.863 207.720,330.106 208.105 C 330.413 208.591,330.548 208.599,330.968 208.153 C 331.361 207.738,331.365 207.588,330.988 207.450 C 330.629 207.318,330.658 207.124,331.103 206.680 C 331.515 206.267,331.671 205.454,331.612 204.010 C 331.517 201.658,331.630 201.448,332.988 201.448 C 334.090 201.448,335.274 200.372,334.469 200.101 C 334.106 199.979,334.119 199.748,334.524 199.102 C 334.852 198.580,335.078 196.950,335.120 194.794 C 335.196 190.880,335.145 191.023,336.470 191.023 C 337.010 191.023,337.452 190.877,337.452 190.697 C 337.452 190.518,337.689 190.463,337.978 190.574 C 338.384 190.730,338.506 190.265,338.512 188.534 C 338.528 184.047,338.532 184.034,339.966 183.105 C 340.738 182.604,341.313 181.914,341.313 181.486 C 341.313 181.076,341.479 180.638,341.682 180.512 C 341.885 180.387,342.054 178.088,342.057 175.403 C 342.064 170.258,342.184 169.902,343.905 169.890 C 345.349 169.880,345.473 168.907,345.536 157.157 C 345.569 150.900,345.645 145.732,345.705 145.672 C 345.766 145.611,346.279 145.524,346.846 145.477 C 347.474 145.425,347.879 145.160,347.882 144.800 C 347.887 144.329,347.955 144.313,348.215 144.723 C 348.740 145.553,348.934 144.590,348.998 140.825 C 349.041 138.319,348.929 137.450,348.562 137.446 C 348.206 137.442,348.193 137.361,348.514 137.156 C 349.045 136.817,349.116 133.977,348.593 133.977 C 348.393 133.977,348.280 133.691,348.342 133.341 C 348.405 132.992,348.238 132.630,347.973 132.537 C 347.708 132.444,347.490 132.643,347.490 132.979 C 347.490 133.316,347.306 133.591,347.081 133.591 C 346.857 133.591,346.779 133.762,346.908 133.972 C 347.050 134.201,346.872 134.250,346.468 134.095 C 346.049 133.934,345.969 133.776,346.257 133.680 C 346.513 133.595,346.608 133.339,346.468 133.112 C 346.317 132.868,346.395 132.812,346.658 132.975 C 346.928 133.141,347.104 132.994,347.104 132.603 C 347.104 132.146,346.877 132.016,346.332 132.158 C 345.575 132.356,345.559 132.158,345.512 122.358 C 345.452 110.036,345.621 111.039,343.582 110.883 C 341.947 110.759,342.084 111.121,341.931 106.521 C 341.768 101.613,341.803 101.826,341.216 102.157 C 340.830 102.375,340.830 102.326,341.216 101.910 C 341.792 101.289,341.860 100.627,341.313 100.965 C 341.100 101.096,340.927 101.042,340.927 100.843 C 340.927 100.645,340.485 100.483,339.945 100.483 C 338.575 100.483,338.547 100.415,338.533 97.119 C 338.519 93.814,338.094 93.050,336.266 93.050 C 335.239 93.050,335.135 92.931,335.135 91.746 C 335.135 89.721,334.154 87.826,332.646 86.936 C 331.724 86.392,331.359 85.941,331.514 85.538 C 331.640 85.210,331.551 84.942,331.315 84.942 C 331.080 84.942,330.888 84.758,330.888 84.533 C 330.888 84.308,331.062 84.232,331.274 84.363 C 331.486 84.494,331.660 84.410,331.660 84.176 C 331.660 83.942,331.356 83.801,330.985 83.863 C 330.524 83.941,330.345 83.761,330.422 83.301 C 330.485 82.930,330.344 82.625,330.110 82.625 C 329.876 82.625,329.792 82.799,329.923 83.012 C 330.054 83.224,329.977 83.398,329.753 83.398 C 329.528 83.398,329.344 83.205,329.344 82.970 C 329.344 82.735,329.083 82.643,328.764 82.765 C 328.317 82.937,328.185 82.677,328.185 81.625 C 328.185 80.638,328.052 80.343,327.703 80.553 C 327.370 80.753,327.384 80.641,327.746 80.195 C 328.392 79.398,327.592 78.952,326.046 79.248 C 324.867 79.474,324.536 79.008,324.652 77.284 C 324.724 76.219,324.623 76.013,324.126 76.203 C 323.789 76.333,323.612 76.278,323.733 76.081 C 323.855 75.884,323.299 75.669,322.498 75.603 C 321.146 75.491,321.052 75.404,321.172 74.377 C 321.271 73.538,321.178 73.347,320.786 73.583 C 320.368 73.835,320.361 73.781,320.750 73.301 C 321.433 72.457,320.986 72.201,318.829 72.201 C 317.140 72.201,316.962 72.121,317.171 71.461 C 317.300 71.054,317.207 70.598,316.963 70.448 C 316.642 70.249,316.664 70.081,317.044 69.836 C 317.478 69.556,317.469 69.435,316.992 69.128 C 316.624 68.892,316.282 68.892,316.046 69.128 C 315.557 69.617,314.946 69.605,315.251 69.113 C 315.388 68.890,315.112 68.768,314.598 68.823 C 313.874 68.901,313.729 68.756,313.827 68.050 C 313.914 67.426,313.751 67.180,313.248 67.176 C 312.700 67.171,312.664 67.097,313.080 66.833 C 313.373 66.647,313.493 66.302,313.347 66.066 C 312.981 65.474,312.252 65.523,312.554 66.120 C 312.689 66.385,312.569 66.334,312.287 66.006 C 311.953 65.616,310.982 65.379,309.477 65.321 C 307.319 65.238,306.349 64.753,306.819 63.993 C 307.738 62.505,306.573 61.776,303.274 61.776 C 300.019 61.776,300.000 61.770,300.000 60.788 C 300.000 60.100,299.853 59.888,299.517 60.090 C 299.173 60.297,299.183 60.197,299.551 59.744 C 300.525 58.542,299.694 58.301,294.572 58.301 C 289.785 58.301,289.575 58.268,289.575 57.506 C 289.575 56.979,289.412 56.805,289.093 56.989 C 288.827 57.142,288.741 57.123,288.900 56.947 C 289.060 56.770,288.886 56.265,288.514 55.823 C 287.838 55.020,287.839 55.020,288.707 55.755 C 289.661 56.563,289.917 55.996,289.008 55.087 C 288.558 54.637,287.107 54.511,281.984 54.479 C 275.334 54.437,274.671 54.280,275.114 52.854 C 275.351 52.090,274.344 51.187,273.582 51.480 C 273.274 51.598,272.952 51.487,272.865 51.233 C 272.744 50.879,272.425 50.876,271.489 51.221 C 270.819 51.468,270.270 51.512,270.270 51.318 C 270.270 51.124,269.749 50.965,269.112 50.965 C 268.446 50.965,267.951 51.170,267.948 51.448 C 267.944 51.789,267.858 51.803,267.658 51.498 C 267.259 50.889,238.922 50.892,238.519 51.501 C 238.321 51.802,238.234 51.786,238.230 51.448 C 238.227 51.182,237.891 50.965,237.484 50.965 C 237.077 50.965,236.656 51.182,236.549 51.448 C 236.393 51.834,236.348 51.834,236.324 51.448 C 236.307 51.182,236.014 50.965,235.673 50.965 C 235.286 50.965,235.134 51.179,235.270 51.532 M191.988 62.032 C 191.316 62.303,191.384 62.934,192.085 62.934 C 192.403 62.934,192.664 62.674,192.664 62.355 C 192.664 62.037,192.621 61.790,192.568 61.807 C 192.514 61.823,192.254 61.925,191.988 62.032 M131.695 98.777 C 131.212 99.680,130.160 100.559,129.888 100.287 C 129.712 100.111,131.619 98.069,131.959 98.069 C 132.022 98.069,131.903 98.388,131.695 98.777 M127.027 101.820 C 126.708 101.938,126.227 102.209,125.956 102.423 C 125.589 102.714,125.526 102.652,125.708 102.178 C 125.842 101.830,126.324 101.558,126.779 101.575 C 127.344 101.596,127.422 101.673,127.027 101.820 M207.529 116.151 C 208.775 116.567,209.595 117.103,209.841 117.664 C 210.081 118.212,210.558 118.533,211.132 118.533 C 212.320 118.533,214.227 119.672,214.505 120.547 C 214.759 121.347,215.110 121.415,215.739 120.787 C 216.080 120.445,216.279 120.579,216.569 121.342 C 216.989 122.446,218.053 123.166,219.266 123.166 C 220.054 123.166,221.088 124.523,220.924 125.343 C 220.875 125.584,221.254 125.886,221.765 126.015 C 222.947 126.311,225.016 128.650,225.314 130.026 C 225.676 131.695,226.294 132.739,227.036 132.933 C 228.164 133.228,229.010 134.956,229.344 137.649 C 229.582 139.565,229.893 140.423,230.610 141.140 C 232.749 143.279,232.662 156.513,230.493 158.880 C 230.041 159.373,229.691 160.560,229.525 162.162 C 229.157 165.707,228.269 168.610,227.248 169.608 C 226.767 170.078,226.068 171.468,225.695 172.696 C 225.036 174.866,224.263 176.062,223.518 176.062 C 223.088 176.062,222.258 177.901,221.632 180.245 C 221.331 181.370,220.846 182.115,220.149 182.521 C 219.578 182.853,218.764 183.831,218.340 184.694 C 217.915 185.558,217.046 186.544,216.409 186.887 C 215.772 187.230,215.198 187.870,215.133 188.309 C 215.068 188.749,214.677 189.414,214.264 189.788 C 213.851 190.161,213.514 190.766,213.514 191.132 C 213.514 191.953,212.533 192.819,211.986 192.481 C 211.764 192.345,211.583 192.509,211.583 192.848 C 211.583 193.849,210.431 195.356,206.895 198.979 C 205.059 200.860,203.408 202.559,203.227 202.756 C 199.591 206.673,184.071 221.425,183.289 221.706 C 182.265 222.074,182.095 223.231,182.958 223.950 C 183.548 224.441,192.723 223.877,192.526 223.362 C 192.053 222.130,204.196 220.175,206.318 221.141 C 206.926 221.418,207.371 221.432,207.623 221.180 C 207.956 220.847,213.647 220.117,216.142 220.088 C 216.633 220.082,216.942 219.929,216.830 219.748 C 216.718 219.566,217.029 219.235,217.521 219.010 C 218.353 218.631,219.592 218.416,226.908 217.381 C 233.714 216.418,238.996 217.458,238.996 219.761 C 238.996 220.158,239.387 220.633,239.865 220.818 C 243.756 222.320,244.832 235.907,241.060 235.907 C 240.774 235.907,240.541 236.225,240.541 236.612 C 240.541 239.132,236.795 239.827,228.958 238.761 C 223.238 237.983,222.429 237.983,208.116 238.772 C 201.378 239.144,198.048 239.191,197.546 238.923 C 197.042 238.653,196.522 238.663,195.879 238.956 C 195.365 239.191,194.301 239.384,193.515 239.386 C 190.627 239.392,188.088 239.854,188.274 240.339 C 188.632 241.273,181.383 242.894,180.089 242.170 C 179.605 241.899,178.965 241.996,177.834 242.509 C 176.897 242.935,175.357 243.230,174.047 243.235 C 172.241 243.242,171.880 243.349,172.062 243.824 C 172.384 244.663,170.302 245.424,166.192 245.971 C 160.247 246.762,154.440 245.804,154.440 244.032 C 154.440 243.664,153.827 243.035,153.071 242.628 C 149.898 240.922,148.569 230.005,151.269 227.821 C 151.677 227.491,152.118 226.916,152.249 226.544 C 152.379 226.173,152.730 225.869,153.030 225.869 C 153.541 225.869,154.681 223.795,154.384 223.407 C 154.189 223.153,156.049 221.231,156.330 221.395 C 156.961 221.762,158.339 220.734,158.847 219.519 C 159.257 218.538,159.589 218.221,160.029 218.389 C 160.389 218.527,160.915 218.310,161.305 217.862 C 161.670 217.442,162.351 216.978,162.819 216.831 C 163.286 216.683,164.037 215.965,164.488 215.236 C 164.939 214.506,165.888 213.634,166.595 213.298 C 167.303 212.962,168.078 212.214,168.318 211.635 C 168.560 211.050,169.261 210.392,169.896 210.152 C 170.525 209.915,171.344 209.184,171.716 208.527 C 172.089 207.871,172.695 207.237,173.063 207.118 C 173.432 206.999,174.365 206.131,175.137 205.188 C 175.909 204.246,176.747 203.475,176.999 203.475 C 177.251 203.475,178.009 202.693,178.682 201.737 C 179.356 200.782,180.128 199.999,180.397 199.997 C 180.667 199.996,181.307 199.380,181.819 198.628 C 182.331 197.877,183.252 196.903,183.867 196.466 C 184.482 196.028,185.412 194.994,185.934 194.167 C 186.455 193.340,187.131 192.664,187.435 192.664 C 187.739 192.664,188.412 191.951,188.932 191.080 C 189.451 190.209,190.287 189.294,190.788 189.048 C 191.289 188.801,192.001 187.994,192.369 187.253 C 192.770 186.448,193.536 185.701,194.274 185.395 C 195.235 184.996,195.386 184.804,194.955 184.532 C 194.501 184.245,194.523 184.181,195.077 184.176 C 195.501 184.172,195.753 183.872,195.753 183.372 C 195.753 182.310,196.416 181.105,197.663 179.897 C 198.226 179.352,198.988 178.270,199.357 177.493 C 199.726 176.716,200.629 175.621,201.365 175.060 C 202.186 174.434,202.703 173.707,202.703 173.180 C 202.703 172.051,203.637 170.214,204.803 169.048 C 205.316 168.534,205.852 167.600,205.993 166.972 C 206.389 165.214,207.219 163.546,208.092 162.756 C 208.971 161.960,209.415 160.558,210.038 156.605 C 210.271 155.128,210.889 153.207,211.427 152.289 C 213.143 149.360,213.264 143.127,211.632 141.699 C 211.268 141.380,210.560 140.271,210.059 139.234 C 209.558 138.197,208.857 137.272,208.502 137.179 C 208.147 137.087,207.563 136.514,207.205 135.908 C 206.834 135.280,205.974 134.614,205.207 134.361 C 204.467 134.117,203.861 133.751,203.861 133.547 C 203.861 133.322,203.569 133.334,203.114 133.577 C 202.086 134.128,195.247 134.082,194.006 133.516 C 193.208 133.153,192.931 133.159,192.692 133.545 C 192.526 133.815,191.703 134.127,190.863 134.240 C 189.794 134.384,189.228 134.693,188.974 135.273 C 188.729 135.829,188.254 136.106,187.524 136.117 C 186.927 136.126,186.319 136.319,186.173 136.546 C 186.027 136.772,185.338 137.250,184.642 137.606 C 183.946 137.963,182.916 138.771,182.353 139.403 C 181.791 140.034,180.672 140.748,179.867 140.989 C 179.062 141.230,178.491 141.568,178.597 141.740 C 178.909 142.246,177.863 143.629,177.169 143.629 C 176.818 143.629,176.429 144.039,176.303 144.539 C 176.178 145.039,175.457 146.123,174.701 146.948 C 173.198 148.589,173.116 148.831,172.808 152.510 C 172.478 156.450,171.920 159.004,171.096 160.346 C 170.679 161.026,170.154 162.539,169.930 163.707 C 169.190 167.560,168.927 168.106,167.274 169.219 C 166.399 169.808,165.573 170.636,165.439 171.057 C 164.847 172.925,160.427 173.652,158.566 172.188 C 157.910 171.673,157.259 171.482,156.663 171.631 C 155.709 171.871,154.163 170.645,154.576 169.976 C 154.693 169.788,154.005 169.253,153.048 168.788 C 150.468 167.535,150.071 166.308,150.088 159.653 C 150.104 153.844,150.564 151.280,151.839 149.904 C 152.281 149.427,153.004 148.004,153.445 146.742 C 154.047 145.019,154.582 144.223,155.594 143.544 C 156.595 142.872,157.000 142.275,157.171 141.222 C 157.298 140.443,157.865 139.232,158.431 138.532 C 158.997 137.832,160.111 136.349,160.908 135.236 C 161.704 134.124,162.564 133.212,162.819 133.209 C 163.075 133.207,163.813 132.434,164.461 131.493 C 165.109 130.552,165.992 129.669,166.425 129.532 C 166.857 129.395,167.637 128.606,168.159 127.780 C 168.801 126.763,169.513 126.174,170.364 125.954 C 171.232 125.730,171.660 125.369,171.745 124.788 C 171.905 123.689,173.231 122.783,174.700 122.768 C 175.904 122.755,177.563 121.799,177.220 121.316 C 177.114 121.166,177.299 121.043,177.632 121.043 C 177.965 121.043,178.566 120.714,178.968 120.313 C 179.987 119.296,181.964 118.533,183.578 118.533 C 184.519 118.533,184.942 118.357,184.942 117.967 C 184.942 115.705,202.070 114.328,207.529 116.151 M334.063 199.296 C 333.715 199.644,333.720 199.887,334.083 200.335 C 334.458 200.800,334.456 200.861,334.073 200.630 C 333.788 200.459,333.578 200.547,333.560 200.846 C 333.537 201.235,333.485 201.240,333.335 200.869 C 333.228 200.603,332.971 200.386,332.764 200.386 C 332.556 200.386,332.509 200.603,332.659 200.869 C 332.832 201.174,332.733 201.156,332.393 200.820 C 332.029 200.463,331.993 200.238,332.281 200.131 C 332.516 200.044,333.038 199.723,333.439 199.419 C 334.330 198.745,334.684 198.675,334.063 199.296 M326.641 212.764 C 326.641 212.989,326.440 213.049,326.194 212.897 C 325.890 212.709,325.814 212.878,325.957 213.424 C 326.104 213.985,326.014 214.169,325.660 214.033 C 325.306 213.898,325.216 214.082,325.363 214.641 C 325.478 215.083,325.414 215.444,325.220 215.444 C 324.683 215.444,324.834 213.716,325.433 212.994 C 326.034 212.270,326.641 212.155,326.641 212.764 M227.220 309.266 C 226.944 309.712,227.300 310.425,227.798 310.425 C 227.985 310.425,228.111 310.077,228.079 309.653 C 228.017 308.823,227.608 308.639,227.220 309.266 M203.861 320.367 C 203.861 320.668,204.067 320.845,204.319 320.761 C 205.020 320.528,205.118 319.820,204.451 319.820 C 204.126 319.820,203.861 320.066,203.861 320.367 " stroke="none" fill="#f38c34" fill-rule="evenodd"></path><path id="path2" d="M130.545 99.271 C 130.068 99.715,129.782 100.181,129.908 100.307 C 130.034 100.433,130.514 100.160,130.974 99.700 C 132.065 98.609,131.675 98.218,130.545 99.271 M180.535 119.288 C 179.721 119.703,178.809 120.393,178.509 120.821 C 178.210 121.249,177.354 121.888,176.607 122.243 C 175.647 122.698,175.183 123.215,175.025 124.006 C 174.775 125.258,173.659 126.037,172.538 125.744 C 171.035 125.351,169.132 126.238,168.153 127.789 C 167.635 128.610,166.857 129.395,166.425 129.532 C 165.992 129.669,165.109 130.552,164.461 131.493 C 163.813 132.434,163.075 133.207,162.819 133.209 C 162.564 133.212,161.704 134.124,160.908 135.236 C 160.111 136.349,158.997 137.832,158.431 138.532 C 157.865 139.232,157.298 140.443,157.171 141.222 C 157.000 142.275,156.595 142.872,155.594 143.544 C 154.582 144.223,154.047 145.019,153.445 146.742 C 153.004 148.004,152.281 149.427,151.839 149.904 C 150.564 151.280,150.104 153.844,150.088 159.653 C 150.068 167.231,150.940 168.845,155.394 169.474 C 156.523 169.634,157.054 169.946,157.406 170.656 C 158.847 173.561,164.554 173.846,165.439 171.057 C 165.573 170.636,166.399 169.808,167.274 169.219 C 168.927 168.106,169.190 167.560,169.930 163.707 C 170.154 162.539,170.679 161.026,171.096 160.346 C 171.941 158.970,172.497 156.376,172.817 152.317 C 173.038 149.511,173.602 147.490,174.164 147.490 C 174.772 147.490,176.448 144.614,176.448 143.571 C 176.448 141.858,176.834 141.313,178.046 141.313 C 179.632 141.313,181.479 140.431,182.703 139.090 C 183.277 138.461,184.278 137.727,184.928 137.458 C 185.627 137.168,186.205 136.589,186.343 136.041 C 186.636 134.873,187.576 134.364,189.453 134.358 C 191.647 134.350,192.610 133.988,192.890 133.066 C 193.476 131.140,194.085 130.888,198.155 130.888 C 202.489 130.888,203.278 131.161,203.600 132.769 C 203.775 133.642,204.143 134.010,205.190 134.356 C 205.973 134.614,206.831 135.275,207.205 135.908 C 207.563 136.514,208.147 137.087,208.502 137.179 C 208.857 137.272,209.558 138.197,210.059 139.234 C 210.560 140.271,211.268 141.380,211.632 141.699 C 213.264 143.127,213.143 149.360,211.427 152.289 C 210.889 153.207,210.271 155.128,210.038 156.605 C 209.415 160.558,208.971 161.960,208.092 162.756 C 207.219 163.546,206.389 165.214,205.993 166.972 C 205.852 167.600,205.316 168.534,204.803 169.048 C 203.637 170.214,202.703 172.051,202.703 173.180 C 202.703 173.707,202.186 174.434,201.365 175.060 C 200.629 175.621,199.736 176.695,199.379 177.446 C 199.023 178.197,198.151 179.409,197.443 180.139 C 196.734 180.869,196.048 181.944,195.918 182.528 C 195.428 184.729,195.280 184.976,194.174 185.436 C 193.535 185.701,192.747 186.496,192.369 187.253 C 192.001 187.994,191.289 188.801,190.788 189.048 C 190.287 189.294,189.451 190.209,188.932 191.080 C 188.412 191.951,187.739 192.664,187.435 192.664 C 187.131 192.664,186.455 193.340,185.934 194.167 C 185.412 194.994,184.482 196.028,183.867 196.466 C 183.252 196.903,182.331 197.877,181.819 198.628 C 181.307 199.380,180.667 199.996,180.397 199.997 C 180.128 199.999,179.356 200.782,178.682 201.737 C 178.009 202.693,177.251 203.475,176.999 203.475 C 176.747 203.475,175.909 204.246,175.137 205.188 C 174.365 206.131,173.432 206.999,173.063 207.118 C 172.695 207.237,172.089 207.871,171.716 208.527 C 171.344 209.184,170.525 209.915,169.896 210.152 C 169.261 210.392,168.560 211.050,168.318 211.635 C 168.078 212.214,167.303 212.962,166.595 213.298 C 165.888 213.634,164.939 214.506,164.488 215.236 C 164.037 215.965,163.286 216.683,162.819 216.831 C 161.812 217.148,160.618 218.429,160.618 219.191 C 160.618 219.488,159.992 219.992,159.227 220.312 C 158.200 220.741,157.679 221.291,157.238 222.416 C 156.785 223.567,156.426 223.938,155.761 223.938 C 154.758 223.938,153.668 224.872,153.668 225.731 C 153.668 226.476,152.900 227.237,151.794 227.588 C 148.742 228.557,149.522 240.543,152.761 242.454 C 155.909 244.311,180.576 243.306,179.379 241.369 C 178.495 239.940,180.369 239.522,187.645 239.524 C 195.164 239.526,196.525 239.267,196.525 237.833 C 196.525 235.967,196.759 235.949,219.807 235.996 L 241.352 236.039 242.188 235.204 C 243.939 233.453,243.528 224.401,241.596 222.155 C 240.239 220.578,239.757 220.518,226.965 220.337 C 210.884 220.109,206.950 220.490,206.950 222.276 C 206.950 223.842,206.278 223.938,195.298 223.943 C 183.401 223.949,183.059 223.992,182.759 225.489 C 182.479 226.892,180.978 227.743,180.088 227.004 C 178.761 225.903,179.968 221.979,181.605 222.069 C 182.060 222.094,182.867 221.933,183.398 221.712 C 184.097 221.421,200.424 205.814,203.171 202.811 C 203.323 202.645,204.973 200.946,206.839 199.035 C 210.831 194.945,211.583 193.874,211.583 192.272 C 211.583 191.287,211.806 190.987,212.869 190.543 C 214.320 189.937,214.912 189.333,215.113 188.255 C 215.189 187.848,215.772 187.233,216.409 186.889 C 217.046 186.545,217.915 185.558,218.340 184.694 C 218.764 183.831,219.578 182.853,220.149 182.521 C 220.846 182.115,221.331 181.370,221.632 180.245 C 222.258 177.901,223.088 176.062,223.518 176.062 C 224.263 176.062,225.036 174.866,225.695 172.696 C 226.068 171.468,226.767 170.078,227.248 169.608 C 228.269 168.610,229.157 165.707,229.525 162.162 C 229.691 160.560,230.041 159.373,230.493 158.880 C 232.662 156.513,232.749 143.279,230.610 141.140 C 229.893 140.423,229.582 139.565,229.344 137.649 C 229.010 134.956,228.164 133.228,227.036 132.933 C 226.294 132.739,225.676 131.695,225.314 130.026 C 224.843 127.853,221.903 125.456,220.145 125.812 C 219.376 125.968,218.612 125.176,218.341 123.943 C 218.161 123.127,217.665 122.638,216.415 122.051 C 215.489 121.616,214.631 120.944,214.509 120.559 C 213.894 118.621,213.133 118.533,197.030 118.533 C 182.892 118.533,181.930 118.577,180.535 119.288 M210.226 120.104 C 211.285 120.377,212.588 121.016,213.122 121.523 C 213.656 122.030,214.579 122.702,215.173 123.018 C 215.767 123.333,216.874 124.277,217.631 125.116 C 218.389 125.955,219.223 126.641,219.484 126.641 C 220.342 126.641,223.602 129.889,224.329 131.467 C 224.720 132.317,225.636 133.658,226.364 134.447 C 227.393 135.563,227.822 136.509,228.290 138.694 C 228.622 140.241,229.180 142.635,229.530 144.015 C 230.321 147.131,230.327 151.795,229.544 155.598 C 229.216 157.191,228.678 159.958,228.349 161.747 C 227.769 164.896,227.082 166.752,226.051 167.954 C 225.778 168.272,225.350 169.299,225.101 170.235 C 224.629 172.008,223.899 173.382,222.712 174.732 C 222.328 175.168,221.473 176.645,220.811 178.014 C 220.149 179.382,219.490 180.589,219.346 180.695 C 219.203 180.801,218.447 181.844,217.668 183.012 C 216.888 184.180,215.799 185.554,215.246 186.066 C 214.694 186.577,213.987 187.489,213.675 188.093 C 213.363 188.696,212.965 189.189,212.790 189.189 C 212.157 189.189,210.881 190.590,210.321 191.901 C 209.632 193.512,206.196 197.250,197.757 205.569 C 186.232 216.930,182.831 220.076,181.365 220.736 C 179.686 221.491,178.926 222.492,178.563 224.427 C 177.889 228.019,181.093 229.277,183.862 226.508 C 184.388 225.981,190.972 225.333,200.579 224.862 C 205.895 224.601,206.693 224.442,207.905 223.401 C 208.684 222.731,209.633 222.428,211.527 222.244 C 223.873 221.047,236.730 220.892,238.293 221.923 C 241.004 223.711,243.058 228.615,242.095 231.002 C 241.907 231.470,241.651 232.328,241.527 232.908 C 241.028 235.241,240.918 235.252,218.340 235.292 C 197.078 235.330,197.045 235.332,195.472 236.906 C 195.202 237.175,193.982 237.505,192.761 237.638 C 191.540 237.771,189.378 238.044,187.957 238.245 C 186.536 238.446,184.419 238.610,183.252 238.610 C 180.948 238.610,179.357 239.076,178.254 240.074 C 175.178 242.858,156.204 243.186,153.436 240.503 C 150.237 237.402,149.950 231.380,152.876 228.737 C 153.736 227.959,154.440 227.124,154.440 226.881 C 154.440 226.637,154.918 226.094,155.502 225.674 C 156.086 225.254,157.131 224.300,157.824 223.555 C 158.517 222.810,159.274 222.027,159.507 221.815 C 159.739 221.602,160.641 220.762,161.511 219.948 C 162.380 219.133,163.409 218.244,163.796 217.973 C 164.450 217.515,169.959 212.475,174.096 208.549 C 180.600 202.378,186.010 196.827,190.541 191.677 C 191.815 190.228,193.610 188.251,194.530 187.282 C 195.450 186.314,196.472 185.008,196.800 184.382 C 197.681 182.702,200.327 178.861,202.211 176.529 C 203.119 175.406,203.861 174.268,203.861 174.000 C 203.861 173.732,204.528 172.479,205.343 171.216 C 206.157 169.953,207.016 168.356,207.251 167.669 C 207.486 166.981,208.185 165.678,208.803 164.773 C 209.421 163.868,210.152 162.172,210.428 161.004 C 210.703 159.836,211.433 157.664,212.051 156.178 C 214.193 151.021,214.428 142.167,212.490 139.633 C 212.097 139.120,211.515 138.308,211.197 137.829 C 209.971 135.985,208.867 134.846,207.263 133.768 C 206.348 133.153,204.962 132.093,204.185 131.414 C 201.291 128.887,192.754 129.361,191.575 132.115 C 191.507 132.274,190.448 132.602,189.223 132.843 C 187.696 133.143,186.614 133.637,185.786 134.411 C 184.171 135.920,180.151 138.752,177.951 139.931 C 176.535 140.690,175.969 141.313,175.174 142.992 C 174.625 144.152,173.997 145.211,173.778 145.347 C 173.129 145.748,172.256 147.899,171.656 150.579 C 171.346 151.959,170.655 154.739,170.119 156.757 C 169.584 158.774,168.944 161.728,168.698 163.320 C 167.813 169.055,161.911 172.890,158.615 169.872 C 157.911 169.229,156.688 168.507,155.896 168.269 C 155.050 168.015,153.775 167.109,152.807 166.075 L 151.158 164.315 151.168 159.860 C 151.178 155.644,151.243 155.278,152.386 153.028 C 153.050 151.720,153.716 150.243,153.867 149.746 C 154.444 147.837,155.402 146.085,156.626 144.700 C 157.325 143.908,158.160 142.633,158.480 141.866 C 158.801 141.099,159.456 139.978,159.937 139.375 C 160.418 138.772,161.332 137.619,161.969 136.811 C 165.947 131.771,171.222 127.067,173.555 126.482 C 174.181 126.325,175.317 125.558,176.081 124.778 C 176.844 123.997,178.058 123.012,178.779 122.587 C 179.500 122.162,180.570 121.516,181.156 121.152 C 183.923 119.431,204.716 118.681,210.226 120.104 " stroke="none" fill="#f4b471" fill-rule="evenodd"></path><path id="path3" d="M188.996 119.543 C 185.456 119.820,182.233 120.482,181.156 121.152 C 180.570 121.516,179.500 122.162,178.779 122.587 C 178.058 123.012,176.844 123.997,176.081 124.778 C 175.317 125.558,174.181 126.325,173.555 126.482 C 171.222 127.067,165.947 131.771,161.969 136.811 C 161.332 137.619,160.418 138.772,159.937 139.375 C 159.456 139.978,158.801 141.099,158.480 141.866 C 158.160 142.633,157.325 143.908,156.626 144.700 C 155.402 146.085,154.444 147.837,153.867 149.746 C 153.716 150.243,153.050 151.720,152.386 153.028 C 151.243 155.278,151.178 155.644,151.168 159.860 L 151.158 164.315 152.807 166.075 C 153.775 167.109,155.050 168.015,155.896 168.269 C 156.688 168.507,157.911 169.229,158.615 169.872 C 161.911 172.890,167.813 169.055,168.698 163.320 C 168.944 161.728,169.584 158.774,170.119 156.757 C 170.655 154.739,171.346 151.959,171.656 150.579 C 172.256 147.899,173.129 145.748,173.778 145.347 C 173.997 145.211,174.625 144.152,175.174 142.992 C 175.969 141.313,176.535 140.690,177.951 139.931 C 180.151 138.752,184.171 135.920,185.786 134.411 C 186.614 133.637,187.696 133.143,189.223 132.843 C 190.448 132.602,191.507 132.274,191.575 132.115 C 192.754 129.361,201.291 128.887,204.185 131.414 C 204.962 132.093,206.348 133.153,207.263 133.768 C 208.867 134.846,209.971 135.985,211.197 137.829 C 211.515 138.308,212.097 139.120,212.490 139.633 C 214.428 142.167,214.193 151.021,212.051 156.178 C 211.433 157.664,210.703 159.836,210.428 161.004 C 210.152 162.172,209.421 163.868,208.803 164.773 C 208.185 165.678,207.486 166.981,207.251 167.669 C 207.016 168.356,206.157 169.953,205.343 171.216 C 204.528 172.479,203.861 173.732,203.861 174.000 C 203.861 174.268,203.119 175.406,202.211 176.529 C 200.327 178.861,197.681 182.702,196.800 184.382 C 196.472 185.008,195.450 186.314,194.530 187.282 C 193.610 188.251,191.815 190.228,190.541 191.677 C 186.010 196.827,180.600 202.378,174.096 208.549 C 169.959 212.475,164.450 217.515,163.796 217.973 C 163.409 218.244,162.380 219.133,161.511 219.948 C 160.641 220.762,159.739 221.602,159.507 221.815 C 159.274 222.027,158.517 222.810,157.824 223.555 C 157.131 224.300,156.086 225.254,155.502 225.674 C 154.918 226.094,154.440 226.637,154.440 226.881 C 154.440 227.124,153.736 227.959,152.876 228.737 C 149.950 231.380,150.237 237.402,153.436 240.503 C 156.204 243.186,175.178 242.858,178.254 240.074 C 179.357 239.076,180.948 238.610,183.252 238.610 C 184.419 238.610,186.536 238.446,187.957 238.245 C 189.378 238.044,191.540 237.771,192.761 237.638 C 193.982 237.505,195.202 237.175,195.472 236.906 C 197.045 235.332,197.078 235.330,218.340 235.292 C 240.918 235.252,241.028 235.241,241.527 232.908 C 241.651 232.328,241.907 231.470,242.095 231.002 C 243.058 228.615,241.004 223.711,238.293 221.923 C 236.730 220.892,223.873 221.047,211.527 222.244 C 209.633 222.428,208.684 222.731,207.905 223.401 C 206.693 224.442,205.895 224.601,200.579 224.862 C 190.972 225.333,184.388 225.981,183.862 226.508 C 181.093 229.277,177.889 228.019,178.563 224.427 C 178.926 222.492,179.686 221.491,181.365 220.736 C 184.381 219.379,209.096 194.768,210.321 191.901 C 210.881 190.590,212.157 189.189,212.790 189.189 C 212.965 189.189,213.363 188.696,213.675 188.093 C 213.987 187.489,214.694 186.577,215.246 186.066 C 215.799 185.554,216.888 184.180,217.668 183.012 C 218.447 181.844,219.203 180.801,219.346 180.695 C 219.490 180.589,220.149 179.382,220.811 178.014 C 221.473 176.645,222.328 175.168,222.712 174.732 C 223.899 173.382,224.629 172.008,225.101 170.235 C 225.350 169.299,225.778 168.272,226.051 167.954 C 227.082 166.752,227.769 164.896,228.349 161.747 C 228.678 159.958,229.216 157.191,229.544 155.598 C 230.327 151.795,230.321 147.131,229.530 144.015 C 229.180 142.635,228.622 140.241,228.290 138.694 C 227.822 136.509,227.393 135.563,226.364 134.447 C 225.636 133.658,224.720 132.317,224.329 131.467 C 223.602 129.889,220.342 126.641,219.484 126.641 C 219.223 126.641,218.389 125.955,217.631 125.116 C 216.874 124.277,215.767 123.333,215.173 123.018 C 214.579 122.702,213.656 122.030,213.122 121.523 C 211.332 119.823,198.667 118.784,188.996 119.543 M204.328 120.431 C 206.113 120.619,208.123 121.126,209.348 121.699 C 210.471 122.224,211.824 122.855,212.355 123.100 C 213.905 123.817,214.751 124.415,216.682 126.158 C 217.682 127.061,218.762 127.799,219.082 127.799 C 219.402 127.799,219.865 128.174,220.110 128.633 C 220.588 129.525,222.341 131.274,222.759 131.274 C 222.897 131.274,223.242 131.914,223.525 132.696 C 223.808 133.478,224.187 134.303,224.369 134.530 C 224.550 134.757,225.143 135.497,225.685 136.174 C 228.661 139.892,228.935 162.425,226.031 164.711 C 225.419 165.194,224.486 167.284,223.688 169.963 C 223.390 170.962,222.934 172.009,222.674 172.290 C 221.581 173.470,220.480 175.285,220.233 176.313 C 220.088 176.918,219.385 178.007,218.672 178.732 C 217.958 179.458,217.370 180.240,217.365 180.470 C 217.360 180.700,216.755 181.670,216.022 182.625 C 215.288 183.581,214.124 185.145,213.436 186.100 C 212.749 187.056,211.723 188.226,211.158 188.702 C 210.593 189.177,209.841 190.176,209.487 190.922 C 209.134 191.668,208.612 192.278,208.327 192.278 C 208.043 192.278,207.540 192.692,207.208 193.198 C 206.755 193.890,199.909 201.047,195.073 205.884 C 192.374 208.585,187.116 213.516,186.928 213.523 C 186.791 213.528,186.168 214.223,185.544 215.067 C 184.919 215.911,184.207 216.602,183.962 216.602 C 183.717 216.602,182.809 217.341,181.944 218.243 C 181.080 219.146,179.837 220.288,179.182 220.782 C 178.528 221.276,177.879 222.133,177.740 222.687 C 177.601 223.241,177.254 224.140,176.970 224.685 C 175.418 227.658,180.420 230.882,183.115 228.646 C 183.381 228.425,185.421 228.052,187.649 227.817 C 189.876 227.582,192.741 227.144,194.015 226.843 C 195.290 226.542,198.417 226.178,200.965 226.035 C 203.514 225.891,206.293 225.535,207.143 225.243 C 207.992 224.951,210.338 224.534,212.355 224.317 C 214.373 224.099,217.066 223.668,218.340 223.357 C 224.138 221.946,237.838 221.910,237.838 223.307 C 237.838 223.589,238.450 224.451,239.199 225.222 C 241.506 227.597,241.629 230.831,239.499 233.131 C 238.389 234.329,236.899 234.393,223.745 233.799 C 215.435 233.424,198.332 234.129,196.179 234.936 C 195.414 235.223,193.155 235.653,191.161 235.892 C 189.166 236.130,187.248 236.478,186.900 236.665 C 186.551 236.852,184.647 237.185,182.669 237.406 C 180.692 237.627,178.859 237.985,178.597 238.203 C 178.334 238.421,176.832 238.847,175.257 239.151 C 173.682 239.455,171.942 239.878,171.389 240.091 C 169.063 240.987,160.945 241.843,159.199 241.376 C 158.274 241.129,157.248 240.927,156.919 240.927 C 156.590 240.927,155.474 240.057,154.438 238.994 C 151.546 236.024,151.323 232.721,153.831 229.983 C 154.537 229.212,155.320 228.085,155.571 227.479 C 155.822 226.873,156.605 226.102,157.313 225.764 C 158.024 225.425,158.828 224.631,159.114 223.986 C 159.398 223.345,159.982 222.729,160.413 222.616 C 160.844 222.503,161.994 221.669,162.967 220.761 C 163.941 219.854,165.362 218.591,166.126 217.954 C 174.970 210.574,186.472 199.095,193.510 190.626 C 194.000 190.036,195.046 188.850,195.833 187.990 C 196.620 187.131,197.378 186.068,197.518 185.628 C 197.657 185.188,198.345 184.254,199.047 183.553 C 199.748 182.852,200.441 181.903,200.587 181.444 C 200.732 180.985,201.424 179.976,202.124 179.201 C 202.824 178.426,203.872 176.788,204.453 175.561 C 205.034 174.334,205.822 173.163,206.203 172.959 C 206.585 172.755,207.017 172.197,207.163 171.719 C 207.677 170.034,208.972 167.366,209.646 166.602 C 210.391 165.759,211.969 161.448,211.969 160.258 C 211.969 159.849,212.202 159.281,212.487 158.996 C 215.459 156.025,215.882 139.422,213.040 137.275 C 212.747 137.054,211.970 136.087,211.314 135.126 C 210.659 134.166,209.625 133.123,209.019 132.810 C 208.412 132.496,207.686 132.022,207.405 131.757 C 204.802 129.295,198.256 128.138,193.583 129.315 C 190.916 129.987,183.841 133.502,182.128 135.006 C 181.659 135.419,180.536 136.227,179.633 136.803 C 178.731 137.378,177.992 138.023,177.992 138.236 C 177.992 138.448,177.394 138.908,176.662 139.257 C 175.931 139.606,175.140 140.356,174.904 140.924 C 174.669 141.493,173.970 142.512,173.351 143.190 C 172.729 143.871,171.855 145.585,171.399 147.018 C 170.945 148.446,170.152 150.511,169.638 151.607 C 168.962 153.046,168.562 154.923,168.197 158.364 C 167.044 169.245,161.221 172.073,154.278 165.124 L 152.317 163.160 152.325 159.796 C 152.332 157.221,152.484 156.267,152.972 155.726 C 153.552 155.083,154.232 153.402,155.577 149.285 C 155.844 148.467,156.349 147.481,156.699 147.093 C 158.027 145.622,158.346 145.133,159.047 143.498 C 159.443 142.573,160.196 141.479,160.720 141.067 C 161.244 140.655,161.783 139.968,161.919 139.540 C 162.055 139.111,163.640 137.212,165.442 135.319 C 167.244 133.426,168.763 131.784,168.819 131.672 C 169.147 131.003,173.334 127.880,174.183 127.671 C 174.742 127.534,175.784 126.866,176.499 126.187 C 177.915 124.842,181.620 122.780,182.619 122.780 C 182.962 122.780,183.408 122.628,183.610 122.441 C 185.549 120.651,196.397 119.599,204.328 120.431 " stroke="none" fill="#fccca4" fill-rule="evenodd"></path><path id="path4" d="M192.709 62.230 C 192.684 62.586,192.360 62.938,191.988 63.012 C 191.594 63.090,191.481 63.252,191.717 63.401 C 192.360 63.806,193.144 63.105,192.940 62.309 C 192.789 61.719,192.745 61.704,192.709 62.230 M161.434 77.481 C 160.553 78.403,160.396 78.704,160.952 78.406 C 161.493 78.117,161.776 78.102,161.776 78.365 C 161.776 78.585,161.573 78.764,161.326 78.764 C 161.078 78.764,160.990 78.879,161.130 79.020 C 161.448 79.338,162.880 78.071,163.378 77.031 C 163.721 76.314,163.707 76.306,163.203 76.931 C 162.461 77.848,162.039 77.786,162.548 76.834 C 163.101 75.801,162.968 75.878,161.434 77.481 M329.344 82.754 C 329.344 83.044,331.242 84.942,331.532 84.942 C 331.655 84.942,331.538 84.681,331.274 84.363 C 330.924 83.941,330.916 83.784,331.242 83.784 C 331.559 83.784,331.545 83.625,331.193 83.243 C 330.919 82.945,330.635 82.865,330.561 83.066 C 330.484 83.274,330.195 83.238,329.885 82.980 C 329.587 82.733,329.344 82.631,329.344 82.754 M149.586 84.556 C 149.586 84.981,149.723 85.328,149.890 85.328 C 150.057 85.328,150.193 85.082,150.193 84.781 C 150.193 84.480,150.410 84.147,150.676 84.039 C 150.941 83.932,150.805 83.831,150.372 83.814 C 149.834 83.793,149.586 84.027,149.586 84.556 M125.869 101.953 C 125.869 102.178,125.668 102.238,125.423 102.087 C 125.140 101.912,125.082 101.981,125.264 102.276 C 125.445 102.568,125.718 102.609,126.000 102.387 C 126.246 102.193,126.708 101.938,127.027 101.820 C 127.409 101.679,127.310 101.595,126.737 101.575 C 126.260 101.558,125.869 101.728,125.869 101.953 M188.415 115.994 C 186.078 116.639,184.942 117.285,184.942 117.967 C 184.942 118.452,186.728 118.533,197.490 118.533 C 210.435 118.533,211.205 118.437,209.514 117.034 C 207.634 115.473,192.924 114.748,188.415 115.994 M215.478 121.002 C 215.139 121.410,215.181 121.586,215.659 121.770 C 216.529 122.104,216.602 122.079,216.602 121.451 C 216.602 120.638,215.985 120.391,215.478 121.002 M172.651 123.396 C 171.574 124.150,171.656 125.625,172.783 125.787 C 173.822 125.936,174.757 125.137,175.058 123.842 C 175.353 122.571,174.147 122.348,172.651 123.396 M218.361 124.035 C 218.893 125.772,219.848 126.330,220.747 125.431 C 221.417 124.761,220.215 123.166,219.042 123.166 C 218.238 123.166,218.135 123.298,218.361 124.035 M193.689 131.594 C 192.193 133.247,193.708 133.977,198.635 133.977 C 202.894 133.977,203.475 133.811,203.475 132.598 C 203.475 130.783,195.192 129.933,193.689 131.594 M347.149 132.552 C 347.122 132.976,346.929 133.142,346.658 132.975 C 346.395 132.812,346.317 132.868,346.468 133.112 C 346.608 133.339,346.513 133.595,346.257 133.680 C 345.969 133.776,346.049 133.934,346.468 134.095 C 346.840 134.237,347.047 134.197,346.929 134.005 C 346.810 133.814,346.908 133.592,347.146 133.512 C 347.384 133.433,347.492 133.027,347.386 132.611 C 347.217 131.944,347.188 131.937,347.149 132.552 M187.080 134.884 C 186.277 135.471,186.574 136.293,187.590 136.293 C 188.384 136.293,189.189 135.574,189.189 134.865 C 189.189 134.211,187.986 134.221,187.080 134.884 M176.682 141.923 C 176.268 143.004,176.431 143.629,177.127 143.629 C 177.894 143.629,178.911 142.249,178.562 141.683 C 178.197 141.093,176.939 141.254,176.682 141.923 M69.498 169.337 C 68.587 169.843,68.579 169.873,69.360 169.878 C 69.815 169.882,70.288 169.624,70.410 169.305 C 70.532 168.986,70.594 168.743,70.548 168.764 C 70.501 168.785,70.029 169.043,69.498 169.337 M154.609 169.923 C 154.174 170.628,155.776 171.933,156.711 171.636 C 157.623 171.347,157.767 170.663,157.066 169.961 C 156.485 169.381,154.959 169.357,154.609 169.923 M58.953 189.825 C 59.418 189.926,59.886 190.302,59.993 190.661 C 60.133 191.130,60.165 191.096,60.109 190.541 C 60.056 190.016,59.722 189.748,59.069 189.705 C 58.264 189.652,58.245 189.672,58.953 189.825 M212.259 190.765 C 211.508 191.202,211.365 192.098,211.986 192.481 C 212.550 192.830,213.514 191.942,213.514 191.072 C 213.514 190.258,213.242 190.192,212.259 190.765 M333.435 199.441 C 333.036 199.733,332.516 200.044,332.281 200.131 C 331.993 200.238,332.029 200.463,332.393 200.820 C 332.733 201.156,332.832 201.174,332.659 200.869 C 332.509 200.603,332.556 200.386,332.764 200.386 C 332.971 200.386,333.198 200.544,333.269 200.736 C 333.340 200.929,333.702 200.679,334.074 200.180 C 334.865 199.120,334.482 198.676,333.435 199.441 M55.116 199.870 C 55.811 200.150,55.709 200.687,54.923 200.892 C 54.414 201.025,54.462 201.080,55.116 201.114 C 55.664 201.142,55.985 200.936,55.985 200.556 C 55.985 200.200,56.166 200.067,56.430 200.230 C 56.706 200.401,56.771 200.336,56.601 200.060 C 56.449 199.814,55.944 199.628,55.479 199.644 C 55.014 199.661,54.850 199.762,55.116 199.870 M325.433 212.994 C 324.855 213.690,324.662 215.520,325.202 215.186 C 325.385 215.073,325.435 214.717,325.312 214.397 C 325.162 214.006,325.266 213.882,325.628 214.021 C 326.018 214.170,326.109 214.005,325.957 213.424 C 325.814 212.878,325.890 212.709,326.194 212.897 C 326.440 213.049,326.641 212.989,326.641 212.764 C 326.641 212.155,326.034 212.270,325.433 212.994 M226.448 217.424 C 225.174 217.609,222.828 217.952,221.236 218.186 C 213.249 219.362,215.446 220.166,227.246 220.386 C 237.218 220.571,238.996 220.445,238.996 219.551 C 238.996 217.456,233.104 216.458,226.448 217.424 M158.999 219.121 C 158.459 220.307,158.755 220.661,159.812 220.095 C 160.758 219.589,160.868 218.711,160.027 218.389 C 159.641 218.241,159.284 218.495,158.999 219.121 M199.228 221.274 C 190.147 222.293,190.189 223.938,199.297 223.938 C 206.230 223.938,206.950 223.763,206.950 222.077 C 206.950 220.773,205.261 220.598,199.228 221.274 M155.314 222.108 C 154.182 223.360,154.304 224.211,155.588 224.022 C 156.543 223.882,157.529 222.548,157.529 221.395 C 157.529 220.986,155.837 221.531,155.314 222.108 M180.370 222.513 C 179.558 223.491,179.374 226.412,180.088 227.004 C 181.008 227.767,182.480 226.886,182.778 225.393 C 183.208 223.246,181.479 221.178,180.370 222.513 M319.311 225.352 C 319.307 225.883,319.520 226.155,319.895 226.100 C 320.219 226.052,320.480 225.894,320.474 225.748 C 320.468 225.602,320.352 225.497,320.217 225.516 C 320.081 225.534,319.823 225.317,319.644 225.033 C 319.407 224.659,319.315 224.747,319.311 225.352 M152.257 226.465 C 151.920 227.342,152.384 227.594,153.070 226.908 C 153.825 226.153,153.826 225.869,153.077 225.869 C 152.751 225.869,152.383 226.137,152.257 226.465 M197.348 236.533 C 196.895 236.850,196.525 237.419,196.525 237.798 C 196.525 239.222,197.890 239.336,208.146 238.771 C 222.425 237.983,223.240 237.983,228.958 238.761 C 235.205 239.610,238.274 239.446,239.611 238.190 C 240.709 237.159,240.802 236.417,239.865 236.161 C 237.894 235.624,198.150 235.971,197.348 236.533 M179.855 240.203 C 178.035 242.482,181.026 243.041,186.403 241.426 C 188.872 240.684,188.820 240.050,186.263 239.706 C 182.404 239.186,180.552 239.330,179.855 240.203 M154.440 243.971 C 154.440 246.514,168.327 247.052,171.630 244.636 C 173.237 243.461,171.901 243.243,163.105 243.243 C 154.872 243.243,154.440 243.280,154.440 243.971 M47.490 244.208 C 47.490 244.527,47.664 244.788,47.876 244.788 C 48.089 244.788,48.263 244.527,48.263 244.208 C 48.263 243.890,48.089 243.629,47.876 243.629 C 47.664 243.629,47.490 243.890,47.490 244.208 M301.975 248.745 C 302.007 249.361,302.070 249.424,302.192 248.962 C 302.287 248.603,302.657 248.233,303.016 248.138 C 303.478 248.016,303.415 247.953,302.799 247.921 C 302.130 247.887,301.941 248.076,301.975 248.745 M300.633 249.303 C 300.497 249.438,300.400 249.912,300.417 250.354 C 300.438 250.921,300.512 250.987,300.668 250.579 C 300.789 250.261,301.054 249.891,301.257 249.759 C 301.492 249.606,301.490 249.433,301.253 249.287 C 301.048 249.160,300.769 249.167,300.633 249.303 M295.174 256.757 C 295.043 256.969,294.619 257.143,294.233 257.143 C 293.847 257.143,293.292 257.437,293.001 257.796 C 292.544 258.360,292.550 258.401,293.050 258.097 C 293.369 257.902,293.872 257.707,294.169 257.662 C 294.722 257.579,296.122 256.371,295.665 256.371 C 295.526 256.371,295.305 256.544,295.174 256.757 M290.927 261.004 L 290.154 261.336 290.927 261.336 C 291.351 261.336,292.046 261.186,292.471 261.004 L 293.243 260.672 292.471 260.672 C 292.046 260.672,291.351 260.821,290.927 261.004 M284.459 267.653 C 283.816 268.307,283.816 268.339,284.459 268.334 C 285.535 268.324,286.097 267.835,285.575 267.363 C 285.267 267.086,284.932 267.173,284.459 267.653 M274.120 277.235 C 273.701 277.500,273.685 277.596,274.058 277.600 C 274.336 277.604,274.456 277.780,274.324 277.992 C 274.193 278.205,274.341 278.378,274.653 278.378 C 274.966 278.378,275.184 278.123,275.138 277.810 C 275.016 276.978,274.758 276.832,274.120 277.235 M270.490 280.338 C 270.860 280.747,271.352 281.078,271.585 281.075 C 271.821 281.072,271.780 280.925,271.492 280.742 C 271.209 280.563,271.035 280.278,271.106 280.109 C 271.177 279.941,270.916 279.757,270.526 279.699 C 269.851 279.600,269.849 279.630,270.490 280.338 M268.180 281.664 C 267.731 282.349,267.689 282.604,268.039 282.533 C 268.311 282.478,268.662 282.117,268.819 281.732 C 268.984 281.328,269.296 281.149,269.554 281.309 C 269.834 281.482,269.899 281.418,269.728 281.141 C 269.306 280.457,268.875 280.603,268.180 281.664 M256.853 291.397 C 256.588 291.492,256.391 291.947,256.415 292.407 C 256.448 293.023,256.506 293.071,256.632 292.591 C 256.727 292.233,257.098 291.881,257.456 291.810 C 257.815 291.739,257.934 291.578,257.722 291.452 C 257.510 291.327,257.119 291.302,256.853 291.397 M227.184 308.831 C 226.618 309.289,226.460 309.709,226.655 310.244 C 226.908 310.941,226.943 310.926,227.075 310.069 C 227.155 309.555,227.461 309.054,227.756 308.957 C 228.051 308.860,228.193 308.941,228.071 309.138 C 227.950 309.335,228.010 309.749,228.205 310.057 C 228.489 310.506,228.560 310.464,228.560 309.846 C 228.560 308.471,228.072 308.112,227.184 308.831 M220.141 312.212 C 219.610 312.720,219.313 313.365,219.420 313.778 C 219.594 314.451,219.603 314.451,219.646 313.780 C 219.674 313.356,219.866 313.190,220.137 313.357 C 220.413 313.528,220.478 313.463,220.307 313.187 C 220.156 312.942,220.197 312.741,220.399 312.741 C 220.733 312.741,221.398 311.558,221.148 311.410 C 221.090 311.376,220.637 311.737,220.141 312.212 M83.199 314.704 C 82.573 314.949,82.553 315.009,83.089 315.031 C 83.450 315.046,83.915 315.361,84.122 315.730 C 84.653 316.680,84.903 316.196,84.389 315.214 C 84.072 314.609,83.772 314.481,83.199 314.704 M85.373 317.085 C 85.407 317.746,85.460 317.791,85.595 317.273 C 85.693 316.899,85.960 316.709,86.189 316.850 C 86.437 317.003,86.494 316.927,86.330 316.662 C 85.872 315.920,85.325 316.161,85.373 317.085 M203.881 319.460 C 203.608 319.970,203.479 320.621,203.593 320.908 C 203.707 321.196,203.814 321.030,203.831 320.537 C 203.847 320.047,204.000 319.731,204.169 319.836 C 204.338 319.941,204.729 319.867,205.038 319.672 C 205.457 319.407,205.471 319.315,205.093 319.311 C 204.815 319.308,204.695 319.131,204.826 318.919 C 204.957 318.707,204.910 318.533,204.721 318.533 C 204.532 318.533,204.154 318.950,203.881 319.460 M89.820 319.565 C 90.061 319.741,90.354 320.232,90.471 320.656 C 90.638 321.265,90.668 321.231,90.612 320.494 C 90.573 319.979,90.280 319.488,89.961 319.402 C 89.579 319.299,89.531 319.354,89.820 319.565 M194.037 322.994 C 193.892 323.769,193.859 324.490,193.966 324.596 C 194.072 324.702,194.278 324.155,194.423 323.381 C 194.568 322.606,194.600 321.885,194.494 321.779 C 194.388 321.672,194.182 322.220,194.037 322.994 " stroke="none" fill="#ce8c4c" fill-rule="evenodd"></path></g></svg>