<?xml version="1.0" encoding="utf-8"?>
<svg viewBox="9.261 5.988 113.267 109.324" width="113.267" height="109.324" xmlns="http://www.w3.org/2000/svg">
  <g transform="matrix(1, 0, 0, 1, 132.928024, -100.930779)">
    <ellipse id="Ellipse_1079" transform="matrix(0.76602, -0.642817, 0.642817, 0.76602, -145.55214, 156.062776)" class="st0" cx="56.6" cy="54.7" rx="47.499" ry="31.499" style="fill: rgb(243, 143, 49);"/>
    <path id="path0" d="M -67.787 142.745 C -68.605 142.816 -69.763 143.124 -69.984 143.328 C -70.043 143.382 -70.173 143.427 -70.273 143.427 C -70.566 143.427 -71.649 144.03 -72.063 144.423 C -72.272 144.622 -72.577 144.817 -72.741 144.857 C -72.989 144.918 -74.213 145.832 -74.309 146.027 C -74.326 146.06 -74.77 146.54 -75.297 147.094 C -75.824 147.647 -76.287 148.203 -76.327 148.328 C -76.367 148.453 -76.525 148.654 -76.678 148.775 C -76.831 148.895 -77.051 149.215 -77.167 149.486 C -77.372 149.964 -77.465 150.107 -77.854 150.537 C -77.956 150.651 -78.104 150.939 -78.182 151.178 C -78.575 152.382 -78.774 152.874 -78.944 153.062 C -79.086 153.22 -79.131 153.499 -79.133 154.252 L -79.135 155.236 L -78.562 155.81 C -76.531 157.843 -74.828 157.016 -74.491 153.833 C -74.384 152.827 -74.267 152.278 -74.07 151.857 C -73.919 151.537 -73.687 150.933 -73.555 150.515 C -73.421 150.096 -73.166 149.595 -72.984 149.396 C -72.803 149.197 -72.598 148.899 -72.53 148.733 C -72.461 148.567 -72.229 148.348 -72.016 148.246 C -71.801 148.143 -71.627 148.009 -71.627 147.947 C -71.627 147.885 -71.41 147.696 -71.147 147.528 C -70.883 147.359 -70.554 147.123 -70.417 147.002 C -69.916 146.563 -67.847 145.535 -67.067 145.338 C -65.7 144.994 -63.786 145.332 -63.025 146.052 C -62.943 146.13 -62.73 146.268 -62.553 146.36 C -62.375 146.452 -62.073 146.757 -61.882 147.037 C -61.69 147.318 -61.462 147.601 -61.377 147.666 C -60.546 148.294 -60.669 153.149 -61.538 154.018 C -61.622 154.102 -61.69 154.268 -61.69 154.387 C -61.69 154.735 -62.151 155.996 -62.369 156.243 C -62.566 156.466 -62.945 157.246 -63.095 157.739 C -63.138 157.879 -63.265 158.042 -63.376 158.102 C -63.488 158.161 -63.718 158.504 -63.888 158.863 C -64.058 159.222 -64.364 159.701 -64.569 159.927 C -64.774 160.154 -64.976 160.449 -65.019 160.583 C -65.061 160.717 -65.264 160.995 -65.469 161.2 C -65.674 161.405 -65.876 161.678 -65.916 161.807 C -65.957 161.936 -66.179 162.246 -66.409 162.498 C -66.639 162.749 -66.945 163.096 -67.088 163.268 C -69.147 165.745 -72.51 169.102 -75.097 171.261 C -75.32 171.447 -75.736 171.816 -76.021 172.082 C -76.305 172.347 -76.642 172.591 -76.768 172.624 C -76.894 172.657 -77.064 172.837 -77.147 173.025 C -77.231 173.213 -77.466 173.446 -77.674 173.545 C -77.881 173.644 -78.11 173.869 -78.184 174.046 C -78.257 174.223 -78.486 174.553 -78.693 174.779 C -79.426 175.579 -79.361 176.545 -78.515 177.414 C -78.212 177.725 -77.886 177.979 -77.789 177.979 C -77.693 177.979 -77.393 178.038 -77.123 178.11 C -76.612 178.247 -74.238 177.997 -73.558 177.735 C -73.396 177.672 -72.887 177.549 -72.426 177.46 C -71.966 177.371 -71.527 177.246 -71.45 177.182 C -71.373 177.119 -70.837 177.014 -70.259 176.949 C -69.68 176.885 -69.124 176.787 -69.021 176.733 C -68.92 176.678 -68.359 176.576 -67.775 176.507 C -67.192 176.437 -66.532 176.311 -66.308 176.227 C -65.678 175.991 -60.676 175.785 -58.246 175.895 C -54.399 176.068 -53.963 176.05 -53.639 175.699 C -53.016 175.027 -53.052 174.081 -53.727 173.386 C -53.946 173.161 -54.125 172.909 -54.125 172.826 C -54.125 172.675 -54.3 172.616 -55.028 172.519 C -55.673 172.433 -59.094 172.663 -59.827 172.841 C -60.199 172.932 -60.987 173.058 -61.577 173.121 C -62.167 173.185 -62.853 173.307 -63.101 173.392 C -63.35 173.478 -64.163 173.582 -64.908 173.624 C -65.653 173.666 -66.568 173.772 -66.941 173.86 C -67.313 173.948 -68.151 174.076 -68.802 174.145 C -69.454 174.214 -70.051 174.323 -70.128 174.388 C -70.917 175.041 -72.379 174.099 -71.925 173.229 C -71.842 173.07 -71.741 172.807 -71.7 172.645 C -71.66 172.483 -71.47 172.232 -71.279 172.088 C -71.087 171.943 -70.724 171.609 -70.471 171.345 C -70.218 171.081 -69.952 170.865 -69.881 170.865 C -69.809 170.865 -69.601 170.663 -69.418 170.416 C -69.236 170.169 -69.053 169.966 -69.013 169.965 C -68.958 169.963 -67.421 168.521 -66.631 167.731 C -65.217 166.316 -63.215 164.223 -63.082 164.021 C -62.985 163.873 -62.838 163.752 -62.755 163.752 C -62.672 163.752 -62.519 163.573 -62.416 163.355 C -62.312 163.137 -62.092 162.845 -61.927 162.706 C -61.762 162.567 -61.462 162.224 -61.261 161.945 C -61.06 161.666 -60.719 161.208 -60.505 160.929 C -60.29 160.649 -60.113 160.366 -60.112 160.298 C -60.11 160.231 -59.938 160.002 -59.73 159.79 C -59.521 159.578 -59.316 159.26 -59.273 159.083 C -59.201 158.782 -58.879 158.251 -58.559 157.906 C -58.483 157.824 -58.35 157.518 -58.263 157.226 C -58.029 156.442 -57.756 155.831 -57.578 155.69 C -56.728 155.021 -56.808 148.431 -57.679 147.344 C -57.837 147.146 -58.011 146.93 -58.064 146.863 C -58.117 146.797 -58.228 146.555 -58.31 146.327 C -58.393 146.098 -58.494 145.911 -58.534 145.911 C -58.657 145.911 -59.169 145.399 -59.309 145.139 C -59.381 145.004 -59.516 144.895 -59.61 144.895 C -59.703 144.895 -60.019 144.679 -60.312 144.415 C -60.876 143.905 -61.124 143.73 -61.577 143.52 C -61.732 143.449 -62.128 143.264 -62.456 143.111 C -63.37 142.684 -65.458 142.54 -67.787 142.745" stroke="none" fill="#fcf4eb" fill-rule="evenodd" style=""/>
  </g>
</svg>