<svg xmlns="http://www.w3.org/2000/svg" viewBox="0 0 197.59 252.83"><defs><style>.cls-1{isolation:isolate;}.cls-13,.cls-2,.cls-9{fill:#231f20;}.cls-2{opacity:0.3;}.cls-10,.cls-11,.cls-2,.cls-9{mix-blend-mode:soft-light;}.cls-3{fill:#f4b008;}.cls-4{fill:#0f3c47;}.cls-18,.cls-5,.cls-6{fill:#3f616f;}.cls-18,.cls-5{stroke:#000;stroke-width:2px;}.cls-5{stroke-miterlimit:10;}.cls-7{fill:#e6e7e8;}.cls-8{fill:#193441;}.cls-10,.cls-11{fill:#fff;}.cls-11{opacity:0.5;}.cls-12{fill:#27aae1;}.cls-13{opacity:0.29;}.cls-14{fill:#279fc9;}.cls-15{fill:#1c75bc;}.cls-16{fill:#798987;}.cls-17{fill:#a73e5c;}.cls-18{stroke-linecap:round;stroke-linejoin:round;}</style></defs><title>2_electricity</title><g class="cls-1"><g id="Layer_2" data-name="Layer 2"><g id="OBJECTS"><path class="cls-2" d="M111.76,210.87s52.18-3.33,68,10S162.44,256,86.72,252.44s-52.34-23.55-79.37-27S30.65,203.68,111.76,210.87Z"/><path class="cls-2" d="M107.88,214.79s42-2.69,54.82,8.06-14,28.3-75,25.43-42.16-19-63.93-21.77S42.54,209,107.88,214.79Z"/><path class="cls-3" d="M56,223.14l-17.87,11.4s20.29-2.61,29.41,9.93l6.27-13.67Z"/><path class="cls-3" d="M116,231.3,127.68,247s11.19-10.6,26.4-10.44l-17.85-12.27Z"/><path class="cls-4" d="M36.06,98.07S24.52,95.51,22,87a48.89,48.89,0,0,1-2.34-14.37s-.86-4.23-6-3S7,78.92,7.42,89.46,19,117.73,32.86,122.22,36.06,98.07,36.06,98.07Z"/><path class="cls-5" d="M166.43,211.13S199,96.05,151.9,25.19c0,0-53-18.38-93.18.85,0,0-41,76.52-32.49,178.68,0,0,6.84,29.5,61.13,30.78S166.43,211.13,166.43,211.13Z"/><path class="cls-6" d="M160.23,119s10.54,2.26,15.39,9.4,8.54,22.43,15.1,20.05,8.55-11.88,5.41-26.65S177.89,99.07,169.06,96.5,157.66,109.33,160.23,119Z"/><path class="cls-7" d="M88,32.43a10.29,10.29,0,0,0,13.8,1.65c3.75-2.68,8.53-4.73,13.94-3.9,13.11,2,22.51,41.6,17.1,63.55,0,0,29.35,23.36,19.09,74.37S98,234.5,64.13,218s-39-92.11-15.39-122.57c0,0-4.27-23.05,7.27-45.56C65.33,31.65,79.22,22.39,88,32.43Z"/><path class="cls-8" d="M111.66,62.4c-.72,3.7-3.18,6.33-5.51,5.88s-3.62-3.81-2.91-7.51,3.18-6.33,5.51-5.88S112.37,58.7,111.66,62.4Z"/><path class="cls-8" d="M79.36,60.31C78.64,64,76.23,66.62,74,66.18s-3.53-3.78-2.81-7.45,3.12-6.3,5.39-5.87S80.07,56.64,79.36,60.31Z"/><path class="cls-9" d="M195.27,139.89s2.09-15.07-3.29-24.4-13.16-15.32-21.63-15.58-5.89,4.5-5,5.54S193.2,112.38,195.27,139.89Z"/><path class="cls-9" d="M10.44,77s-7.38,24.3,18.28,40.8l1.93-12.1S11.36,94.81,14.51,76.27C14.51,76.27,13.38,72,10.44,77Z"/><path class="cls-10" d="M192.29,143.8s-.08,2.68-4.28,1.56-8.21-23.34-26.5-27.07v-3.56S185.3,116.16,192.29,143.8Z"/><path class="cls-10" d="M18.32,72.64s0-2-2.78-2.36-5.91,2-4.34,2.86,5-.43,5.48,1-1.21,11,5.49,19.31c0,0,6.48,6.27,9.47,8.12l1.15-3.42s-9.48-2.85-12-11.54S18.32,72.64,18.32,72.64Z"/><path class="cls-11" d="M148.49,28.31s-47.84-17.09-87.19,0c0,0-6.5,3.38-2.55,7.17S154.71,47.46,148.49,28.31Z"/><path class="cls-9" d="M34.17,127.05s-8,42.89-4.58,75.4c0,0,14.77,28.57,61.32,28.57s69.74-21.68,69.74-21.68,13-34.8,13.08-72.9c0,0-44.49,53.66-91.29,48.74S34.17,127.05,34.17,127.05Z"/><path class="cls-12" d="M73,201.87l22.91-23a1.49,1.49,0,0,0-1.06-2.54H93a1.49,1.49,0,0,1-1.17-2.42L104,158.59a1.48,1.48,0,0,0-1.17-2.41h-6.1a1.49,1.49,0,0,1-1.19-2.39l15.51-20.63a1.49,1.49,0,0,0-1.19-2.39H85.33a1.47,1.47,0,0,0-1.33.83L72,155.86A1.5,1.5,0,0,0,73.34,158h5.53a1.49,1.49,0,0,1,1.33,2.15L72,176.77a1.49,1.49,0,0,0,1.34,2.15h5.21a1.49,1.49,0,0,1,1.34,2.14l-9.26,19.11A1.49,1.49,0,0,0,73,201.87Z"/><path class="cls-9" d="M195.27,139.89s2.09-15.07-3.29-24.4-13.16-15.32-21.63-15.58-5.89,4.5-5,5.54S193.2,112.38,195.27,139.89Z"/><path class="cls-10" d="M192.29,144.09s-.08,2.68-4.28,1.57-8.21-23.34-26.5-27.07V115S185.3,116.45,192.29,144.09Z"/><path class="cls-13" d="M166.8,98.71c-14,7.81-46,10.06-58.65,10.54-7.09.27-17.66-1.3-27.64-3.49A162.82,162.82,0,0,1,60,100c-5.73-2.14-23.4-7.54-23.4-7.54-12,0-5.18,7.7-4.39,14,.42,3.36,2.53,6.1,5.61,8.87,15.49,14,37.41,23.62,64.67,23.62,10.91,0,.37,17.9,12.24,16.65,3.45-.36,31.44,10.76,46,3.06,7.13-3.79,4.92-24.46,5.75-32.88.28-2.81-2.91-3.08-2.75-5.87.13-2.31,5.31-2.38,4.66-5.68-1.38-7,3.88-11.35,6.69-14.16a2.52,2.52,0,0,0,.69-2.32l-.83-3.79c-1.74,2-8.06,4.8-8.06,4.8"/><path class="cls-14" d="M166.5,95.71s7.5-3.88,9.25-5.86c1.47-1.66,2.84,6.3,1.28,8.4-.23.31,0,0-.26.28-3.65,4-12.14,5.94-12.14,5.94-7.24,1.84-4.63,10.37-8.22,17.86-2.6,5.41-11.08,10.5-16.22,11-42.12,4.41-76.81-7-102.35-20.87-3-1.61-5.55-5.73-6-9.09-.79-6.27-7.56-14,4.39-14,0,0,17.68,5.4,23.4,7.54a162.82,162.82,0,0,0,20.55,5.78c10,2.19,20.55,3.76,27.64,3.49,12.69-.48,44.66-2.73,58.65-10.54"/><path class="cls-15" d="M38,112.57a6.42,6.42,0,0,1-3.33-5.86c.58-17.46,8.72-14.65,9.22-14.87h0l3.95,1.23,2.82.9c-.38.18-12-2.52-9.67,20.21Z"/><path class="cls-15" d="M51.91,119.41c-1.6-16.68,7.33-21.87,7.75-22.43l6.4,2.11c.76-.86-8.08,9.18-6.73,23.38Z"/><path class="cls-15" d="M70.15,126.28c-.4-18.63,7.08-23.68,7.4-24.13l3,.68,2,.42,1.56.32c.39-1.22-7,8.45-6.69,24.84Z"/><path class="cls-15" d="M90.54,131.41c-.4-18.63,6.07-25.39,6.38-25.83l2.84.37,1.95.16,1.94.11c.4-1.22-5.41,10.11-5.05,26.51l-.57,0a34.63,34.63,0,0,1-6.32-1Z"/><path class="cls-16" d="M159.22,111c.44-3,2.54-4.28,1.47-7.57-.35-1.08-.47-3.75-4.1-3.75h0l-6.53,1.68c.06.12,9.25.81,4.7,23.53C154.76,124.87,157.32,123.91,159.22,111Z"/><path class="cls-15" d="M166.29,103.79a37.44,37.44,0,0,0-2.83-6.59l2.39-1.13c.54-.26,4.57-2.52,4.57-2.52a43.74,43.74,0,0,0,2.37,7.91,35.32,35.32,0,0,1-6.45,2.57Z"/><path class="cls-12" d="M146.47,98.9c-8.87,1.63-12.34,6.71-24.14,5.12-19.49-2.63-12.77,25.79-13.48,43.77C108,170.9,105,187,108,190.6c4.16,4.94,54.76,6.06,56.63,4.5,1.49-1.24.91-20-.47-55.42-.24-6.21,4-32.72-2-37.41C157.15,98.33,152.49,97.79,146.47,98.9Z"/><path class="cls-12" d="M115.86,189.48l.08.6c.06.38.14.91.27,1.56s.27,1.4.46,2.21.42,1.65.65,2.5.56,1.66.82,2.46.67,1.44.94,2.05a6.47,6.47,0,0,0,.48.77l.39.58c.21.33.34.51.34.51l-.41-.45-.48-.53c-.17-.21-.41-.42-.6-.7-.36-.56-.82-1.21-1.26-1.95s-.84-1.54-1.21-2.36-.75-1.66-1-2.45-.59-1.54-.8-2.19-.4-1.19-.52-1.58l-.18-.59Z"/><path class="cls-12" d="M123.69,190.59s0,.22.09.6.13.91.26,1.56.27,1.4.46,2.2.42,1.65.65,2.51.57,1.66.83,2.45.66,1.45.93,2.06a7.19,7.19,0,0,0,.48.76l.39.59c.22.32.34.51.34.51l-.41-.46-.47-.52a5.57,5.57,0,0,1-.6-.71c-.37-.56-.83-1.21-1.26-1.94s-.85-1.54-1.21-2.37-.76-1.65-1-2.45-.59-1.54-.8-2.18-.39-1.2-.52-1.58l-.17-.6Z"/><path class="cls-12" d="M131.52,191.7l.09.6c.06.37.13.9.26,1.55s.27,1.41.46,2.21.42,1.65.65,2.5.57,1.67.83,2.46.66,1.45.93,2a6.47,6.47,0,0,0,.48.77l.39.58.34.51-.41-.45-.47-.52a6.37,6.37,0,0,1-.6-.71c-.37-.56-.83-1.21-1.26-1.94s-.85-1.55-1.21-2.37-.76-1.65-1.05-2.45-.59-1.54-.8-2.18-.39-1.2-.51-1.58-.18-.6-.18-.6Z"/><path class="cls-12" d="M139.36,192.8s0,.22.09.6.13.91.26,1.56.27,1.4.46,2.2.42,1.65.65,2.51.56,1.66.83,2.45.66,1.45.93,2.06a7.19,7.19,0,0,0,.48.76l.39.58.34.52-.41-.46-.48-.52a7.9,7.9,0,0,1-.6-.71c-.36-.56-.82-1.21-1.26-1.94s-.84-1.54-1.21-2.37-.75-1.65-1-2.45-.59-1.54-.8-2.18-.4-1.2-.52-1.58-.18-.59-.18-.59Z"/><path class="cls-12" d="M147.12,192l.08.6c.06.37.14.91.27,1.56s.27,1.4.46,2.2.42,1.65.65,2.51.56,1.66.82,2.45.67,1.45.94,2.06a7.19,7.19,0,0,0,.48.76l.39.59.34.51-.41-.46-.48-.52c-.17-.21-.41-.42-.6-.7-.36-.57-.82-1.22-1.26-1.95s-.84-1.54-1.21-2.37-.75-1.65-1-2.45-.59-1.53-.81-2.18-.39-1.19-.51-1.58-.18-.59-.18-.59Z"/><path class="cls-12" d="M155,193.1s0,.22.09.6.13.91.26,1.56.27,1.4.46,2.21.42,1.65.65,2.5.56,1.66.83,2.45.66,1.45.93,2.06a7.4,7.4,0,0,0,.48.77l.39.58.34.51-.41-.45-.48-.53c-.17-.21-.41-.42-.6-.7-.36-.57-.82-1.22-1.26-1.95s-.84-1.54-1.21-2.36-.75-1.66-1-2.45-.59-1.54-.8-2.19-.4-1.19-.52-1.58l-.18-.59Z"/><path class="cls-12" d="M161.91,192.29s0,.22.09.61.14.9.26,1.55.28,1.4.46,2.21.43,1.65.66,2.5.56,1.67.82,2.46.66,1.45.94,2.06a7.22,7.22,0,0,0,.47.76c.16.22.29.42.39.58l.35.51-.41-.45c-.14-.14-.3-.32-.48-.52a6.37,6.37,0,0,1-.6-.71c-.36-.56-.83-1.21-1.26-1.95s-.85-1.54-1.21-2.36-.76-1.66-1-2.45-.59-1.54-.81-2.19-.39-1.19-.51-1.57-.18-.6-.18-.6Z"/><path class="cls-12" d="M158.66,192.67s0,.22.09.6.13.91.26,1.55.27,1.41.46,2.21.42,1.65.65,2.5.57,1.67.83,2.46.66,1.45.93,2.06a7.19,7.19,0,0,0,.48.76l.39.58.34.52-.41-.46-.47-.52a6.37,6.37,0,0,1-.6-.71c-.37-.56-.83-1.21-1.26-1.94s-.85-1.54-1.21-2.37-.76-1.65-1-2.45-.59-1.54-.8-2.18-.39-1.2-.51-1.58-.18-.6-.18-.6Z"/><path class="cls-12" d="M151.24,193.51s0,.22.09.6.13.91.26,1.56.27,1.4.46,2.2.42,1.65.65,2.51.57,1.66.83,2.45.66,1.45.93,2.06a7.19,7.19,0,0,0,.48.76l.39.59c.22.32.34.51.34.51l-.41-.45-.47-.53a6.22,6.22,0,0,1-.6-.7c-.37-.57-.83-1.22-1.26-1.95s-.85-1.54-1.21-2.37-.76-1.65-1.05-2.45-.59-1.53-.8-2.18-.39-1.19-.52-1.58l-.17-.59Z"/><path class="cls-12" d="M143.18,194s0,.22.09.6.13.91.26,1.56.27,1.4.46,2.21.42,1.65.65,2.5.57,1.66.83,2.45.66,1.45.93,2.06a7.19,7.19,0,0,0,.48.76l.39.59.34.51-.41-.45-.47-.53a7.46,7.46,0,0,1-.61-.7c-.36-.57-.82-1.22-1.25-2s-.85-1.54-1.21-2.37-.76-1.65-1-2.45-.59-1.53-.8-2.18-.39-1.19-.52-1.58l-.17-.59Z"/><path class="cls-12" d="M136,193s0,.22.09.6.14.91.26,1.56.27,1.4.46,2.21.43,1.65.65,2.5.57,1.66.83,2.45.66,1.45.93,2.06a8.64,8.64,0,0,0,.48.77l.39.58.34.51-.41-.45-.47-.53a6.22,6.22,0,0,1-.6-.7c-.37-.57-.83-1.22-1.26-1.95s-.85-1.54-1.21-2.37-.76-1.65-1.05-2.45-.58-1.53-.8-2.18-.39-1.19-.51-1.58-.18-.59-.18-.59Z"/><path class="cls-12" d="M127.27,191.09s0,.22.09.6.13.91.26,1.56.27,1.4.46,2.21.42,1.65.65,2.5.57,1.66.83,2.46.66,1.44.93,2.05a6.47,6.47,0,0,0,.48.77l.39.58.34.51-.41-.45-.48-.53c-.17-.21-.41-.42-.6-.7-.36-.57-.82-1.22-1.25-2s-.85-1.54-1.21-2.36-.76-1.66-1-2.45-.59-1.54-.8-2.19-.39-1.19-.51-1.58-.18-.59-.18-.59Z"/><path class="cls-12" d="M120.11,190.08s0,.22.09.61.13.9.26,1.55.27,1.4.46,2.21.43,1.65.65,2.5.57,1.67.83,2.46.66,1.45.94,2.05a5.4,5.4,0,0,0,.47.77l.39.58.34.51-.41-.45-.47-.52a6.37,6.37,0,0,1-.6-.71c-.37-.56-.83-1.21-1.26-1.94s-.85-1.55-1.21-2.37-.76-1.66-1-2.45-.59-1.54-.8-2.19-.39-1.19-.51-1.57-.18-.6-.18-.6Z"/><path class="cls-12" d="M112.18,189.65s0,.22.09.6.14.91.27,1.56.27,1.4.45,2.2.43,1.65.66,2.51.56,1.66.82,2.45.66,1.45.94,2.06a7.22,7.22,0,0,0,.47.76l.39.59.34.51s-.14-.17-.41-.46l-.47-.52a5.57,5.57,0,0,1-.6-.71c-.37-.56-.83-1.21-1.26-1.94s-.85-1.54-1.21-2.37-.76-1.65-1-2.45-.59-1.54-.81-2.18-.39-1.2-.51-1.58-.18-.6-.18-.6Z"/><path class="cls-15" d="M108.77,144.44l-.11-8.14c1.37-.32,30.69-6.34,55.63-.37l.06,8.58C140.94,138.89,109.09,144.37,108.77,144.44Z"/><path class="cls-15" d="M108.38,124.25s0-3.06,0-4,.33-3.62.33-3.62c1.37-.32,31.71-8,56.65-2,0,0,0,2.33,0,4-.06,2.53-.2,4.26-.2,4.26C141.72,117.17,108.7,124.18,108.38,124.25Z"/><path class="cls-15" d="M107.89,164.08l.51-7.44c1.47-.15,36.18-3.06,56.46,1.32l.25,7.44C145.88,161.25,108.24,164.05,107.89,164.08Z"/><path class="cls-15" d="M106.71,181.82l.39-7.28c1.47-.13,33.81.83,58.32,2.3l.09,7.13C136.9,184.16,107.06,181.8,106.71,181.82Z"/><path class="cls-17" d="M79.38,105.41s4.16-6.56.72-19.38,5.69-2.71,5.69-2.71,10.69.86,11.68.57,4.92,1,5,1-3.6,7.58-3.6,7.58S98.9,104.13,79.38,105.41Z"/><path class="cls-3" d="M108.87,77.48S103.74,83.75,98,81.76s-9-7.84-9-7.84a88.63,88.63,0,0,0-33.06,2s19.23,8,26.43,13.1,14.18,3.28,17.31-.71c0,0-4.13,15.53-20.37,17.1C79.38,105.41,105,110.68,108.87,77.48Z"/><path class="cls-10" d="M87.77,74.55s-19.44-.84-27.56,1.63a46.23,46.23,0,0,1,14.71,6.38c6.89,4.73,15.06,10,19.2,7.82s4.66-7,4.66-7S88.49,81.15,87.77,74.55Z"/><path class="cls-18" d="M113.1,19.52s1.79-2.14,1.54-7.4a11.47,11.47,0,0,1-7.16,6.42S112.61,14,111.06,1c0,0-.3,12-8,17.31,0,0,2.44-3.19.82-10.19,0,0,.37,6.59-5.13,10.09"/></g></g></g></svg>