<svg xmlns="http://www.w3.org/2000/svg" viewBox="0 0 193.62 293.84"><defs><style>.cls-1{isolation:isolate;}.cls-10,.cls-2{fill:#231f20;}.cls-2{opacity:0.3;}.cls-10,.cls-12,.cls-2,.cls-9{mix-blend-mode:soft-light;}.cls-3{fill:#f4b008;}.cls-4{fill:#0f3c47;}.cls-4,.cls-5{stroke:#000;stroke-miterlimit:10;}.cls-16,.cls-4,.cls-5{stroke-width:2px;}.cls-11,.cls-5{fill:#3f616f;}.cls-6{fill:#e6e7e8;}.cls-7{fill:#193441;}.cls-8{fill:#a73e5c;}.cls-12,.cls-9{fill:#fff;}.cls-9{opacity:0.55;}.cls-13{fill:#f7941e;}.cls-14,.cls-16{fill:#e87e25;}.cls-15{fill:#f38f31;}.cls-16{stroke:#f38f31;stroke-linecap:round;stroke-linejoin:round;}</style></defs><title>2_gas</title><g class="cls-1"><g id="Layer_2" data-name="Layer 2"><g id="OBJECTS"><path class="cls-2" d="M111.76,251.88s52.18-3.33,68,10S162.44,297,86.72,293.45s-52.34-23.55-79.37-27S30.65,244.68,111.76,251.88Z"/><path class="cls-2" d="M107.88,255.8s42-2.69,54.82,8.06-14,28.3-75,25.43-42.16-19-63.93-21.77S42.54,250,107.88,255.8Z"/><path class="cls-3" d="M134.37,263.83l20.26,12.92s-20.91-6.14-31.24,8.08l-7.11-15.51Z"/><path class="cls-3" d="M68.79,269.56,55.55,284s-10-11.7-25.19-13.1l19-10.37Z"/><path class="cls-4" d="M41.12,144.71S29.57,147.27,27,155.82a49.11,49.11,0,0,0-2.35,14.36s-.86,4.23-6,2.95-6.62-9.28-6.19-19.81S24,125,37.91,120.55,41.12,144.71,41.12,144.71Z"/><path class="cls-5" d="M166.43,252.14S199,137.06,151.9,66.2c0,0-53-18.38-93.18.85,0,0-41,76.52-32.49,178.68,0,0,6.84,29.49,61.13,30.78S166.43,252.14,166.43,252.14Z"/><path class="cls-6" d="M93.2,84s9.4-14.82,22.51-12.82,22.51,41.6,17.1,63.55c0,0,29.35,23.36,19.09,74.37S98,275.51,64.13,259s-39-92.11-15.39-122.57c0,0-4.27-23,7.27-45.56S86.08,59.5,93.2,84Z"/><path class="cls-7" d="M111,103.28c-.9,4.64-3.36,8.06-5.51,7.65s-3.15-4.51-2.26-9.15,3.37-8.06,5.51-7.64S111.91,98.65,111,103.28Z"/><path class="cls-7" d="M79.36,101.32C78.45,106,76,109.44,73.84,109s-3.15-4.54-2.25-9.21,3.38-8.12,5.52-7.7S80.26,96.66,79.36,101.32Z"/><path class="cls-8" d="M80.7,136.6s5.88-3,5.69-8.57c-.46-13.27,2.29-3.14,2.29-3.14s7.8.3,8.79,0,4.92,1,5,1-3.6,7.58-3.6,7.58S100.22,135.32,80.7,136.6Z"/><path class="cls-3" d="M108.87,118.49s-5.13,6.27-10.83,4.28-9-7.84-9-7.84a83.26,83.26,0,0,0-31.55,8.59S75.24,124.9,82.44,130s14.18,3.28,17.31-.71c0,0-1,6.86-19,7.28C80.7,136.6,105,151.69,108.87,118.49Z"/><path class="cls-9" d="M87.89,116.64a166.58,166.58,0,0,0-24.42,5.83s7.83.42,11.36,1.4c8,2.24,14,7.9,18.14,5.74a14.54,14.54,0,0,0,5.81-5.22S90.53,124.54,87.89,116.64Z"/><path class="cls-10" d="M15.39,164.21a48,48,0,0,1,22.68-41.87L35.2,133.92a4.89,4.89,0,0,1-2,4.76c-5.09,3.67-16.12,13.45-13.68,27.82,0,0-.84,3.13-2.93.88A4.92,4.92,0,0,1,15.39,164.21Z"/><path class="cls-11" d="M158.11,141.78s10.17,3.6,14.06,11.3,5.6,23.34,12.41,21.82,10-10.68,8.78-25.73-15.17-24.9-23.6-28.58S156.81,131.85,158.11,141.78Z"/><path class="cls-10" d="M190.2,167s4-14.68-.14-24.62S179,125.47,170.6,124.14s-6.41,3.71-5.68,4.85S191.66,139.42,190.2,167Z"/><path class="cls-12" d="M186.73,170.47s-.42,2.65-4.44,1-5.15-24.19-22.81-30.24l.46-3.53S183.35,142.16,186.73,170.47Z"/><path class="cls-12" d="M32.38,147.42a16.48,16.48,0,0,0-6.58,8.76c-2.57,8.69-2.42,14-2.42,14s0,2-2.78,2.35-5.91-2-4.35-2.85,5,.43,5.49-1-1.21-11,5.48-19.3c0,0,2.58-2.49,5.23-4.8"/><path class="cls-10" d="M151.63,64.9s-54.69.7-97.32,15.77c0,0-7,2.75-2.3,3.8,2,.46,21.05-4,42.64-9.6C122,67.74,156.37,69.3,151.63,64.9Z"/><path class="cls-10" d="M34.17,168.06s-8,42.89-4.58,75.4c0,0,14.77,28.57,61.32,28.57s69.74-21.68,69.74-21.68,13-34.8,13.08-72.9c0,0-44.49,53.66-91.29,48.73S34.17,168.06,34.17,168.06Z"/><g id="whatshot"><path class="cls-13" d="M91.88,167.05A80,80,0,0,1,94,182.55c0,6.54-4.48,12-11,12a11.9,11.9,0,0,1-11.71-12v-1A44.72,44.72,0,0,0,60.89,210.1a25.83,25.83,0,1,0,51.65,0A54.22,54.22,0,0,0,91.88,167.05Zm-5.16,58.54a10.07,10.07,0,0,1-10.34-10c0-5.17,3.45-9,9-10,5.85-1,11.71-3.79,14.81-8.27a41.88,41.88,0,0,1,2.06,13.09A15.36,15.36,0,0,1,86.72,225.59Z"/></g><path class="cls-14" d="M90.4,3.06c-1.71-2.54-6.2-.83-5.94,2.45-1.77-.53-2.92-2.81-6.63.32-1.9,1.61-2.6,6.38.34,7.31-1.67,1.28-3.33,3.41-2.49,5.85.81,2.27,3.66,3.88,5.33,2.61.59,2.81.84,4.48,3.5,5.62,2.48,1,4.8,1,5.79-1.74,3,6.72,14.06.59,10.77-2.67,2,0,5.21-.45,5.74-3.1.43-2.29-1.75-4.35-3.65-4.57C107.43,12.61,106.74,4,101,5c.45-6.23-10.5-6.44-10.6-2"/><path class="cls-15" d="M48.63,66.23s3.57-38.78,44.1-46.36c0,0,37.91-5.61,50.92,28.89C143.65,48.76,101.85,66.54,48.63,66.23Z"/><path class="cls-14" d="M156.55,58.05c-1.6-5.49-3.76-8.36-9.86-9.52-9.12-1.73-34.92-.07-49,2.07-8.76,1.34-47.09,12-51.67,16.24-3.76,3.46-2.46,8.24-1.67,12.57.65,3.63,3,6.66,8.31,3.86,11.06-5.88,32.54-9.64,44.53-11.92s38.88-5.24,45.27-4.56C142.49,66.79,159.71,68.9,156.55,58.05Z"/><path class="cls-16" d="M49.72,68.59c0,13.1,0,8.77,0,8.77"/><path class="cls-16" d="M56.68,65.92c0,13.1.3,9.32.3,9.32"/><path class="cls-16" d="M64.74,63.12c0,13.1.88,10.67.88,10.67"/><path class="cls-16" d="M74,60.46c0,13.09.87,10.67.87,10.67"/><path class="cls-16" d="M84.62,57.41c0,13.1.88,10.68.88,10.68"/><path class="cls-16" d="M95.55,55.43c0,13.1.88,10.68.88,10.68"/><path class="cls-16" d="M105.39,53.8c0,13.1.88,10.68.88,10.68"/><path class="cls-16" d="M116.64,52.62c0,13.1.87,10.68.87,10.68"/><path class="cls-16" d="M128,52.84c0,13.09.88,10.67.88,10.67"/><path class="cls-16" d="M136.47,52.43c.46,13.08,1.24,10.64,1.24,10.64"/><path class="cls-16" d="M142.72,52.74c1,13.06.42,8,.42,8"/><path class="cls-16" d="M148.17,52.5c1.18,13,.89,7.93.89,7.93"/></g></g></g></svg>