<svg xmlns="http://www.w3.org/2000/svg" viewBox="0 0 193.62 257.29"><defs><style>.cls-1{isolation:isolate;}.cls-11,.cls-2{fill:#231f20;}.cls-2{opacity:0.3;}.cls-10,.cls-11,.cls-2{mix-blend-mode:soft-light;}.cls-3{fill:#f4b008;}.cls-4{fill:#0f3c47;}.cls-5,.cls-6{fill:#3f616f;}.cls-5{stroke:#000;stroke-miterlimit:10;stroke-width:2px;}.cls-7{fill:#e6e7e8;}.cls-8{fill:#193441;}.cls-9{fill:#a73e5c;}.cls-10{fill:#fff;}.cls-12{fill:#f4cb1c;}.cls-13{opacity:0.3;mix-blend-mode:multiply;}.cls-14{fill:#1e0707;}.cls-15{fill:#f6d433;}.cls-16{fill:#efc929;}</style></defs><title>2_sun</title><g class="cls-1"><g id="Layer_2" data-name="Layer 2"><g id="OBJECTS"><path class="cls-2" d="M81.86,215.33s-52.18-3.33-68,10,17.36,35.14,93.08,31.57,52.33-23.55,79.36-27S163,208.13,81.86,215.33Z"/><path class="cls-2" d="M85.73,219.25s-42-2.69-54.81,8.05,14,28.31,75,25.44,42.16-19,63.93-21.77S151.07,213.45,85.73,219.25Z"/><path class="cls-3" d="M133.26,229.91l19.07,15s-20.4-8.27-32.22,5l-5.59-16.3Z"/><path class="cls-3" d="M81.64,234.16l5.62,16.34S65.73,241.26,45.84,244l16.3-18.7Z"/><path class="cls-4" d="M153,120.59s11.8-.58,16.54,7a48.89,48.89,0,0,1,6.07,13.23s1.94,3.86,6.55,1.26,3.93-10.7.73-20.74S164.25,97.1,149.67,96.45,153,120.59,153,120.59Z"/><path class="cls-5" d="M20.79,185c-4.82-29.84-8.66-76.72,4-118.58a62.62,62.62,0,0,1,54.9-44.17q4.16-.34,8.52-.45A62.66,62.66,0,0,1,148.82,64a363,363,0,0,1,19.71,112.44,62.68,62.68,0,0,1-60,63.41c-.73,0-1.48.05-2.23.06a142.81,142.81,0,0,1-39.67-4.33A62.6,62.6,0,0,1,20.79,185Z"/><path class="cls-6" d="M34.4,118.82s-9.78,4.54-12.93,12.56-3.38,23.77-10.3,22.9-11-9.7-11.17-24.8,12.77-26.21,20.82-30.67S34.76,108.8,34.4,118.82Z"/><path class="cls-7" d="M100.42,47.46S91,32.64,77.9,34.63,55.39,76.24,60.81,98.18c0,0-29.36,23.37-19.1,74.38s53.86,66.4,87.78,49.87,39-92.11,15.38-122.57c0,0,4.27-23-7.26-45.56S107.54,23,100.42,47.46Z"/><path class="cls-8" d="M114.26,64.77c.9,4.62,3.36,8,5.5,7.62s3.16-4.5,2.26-9.12-3.35-8-5.5-7.62S113.36,60.15,114.26,64.77Z"/><path class="cls-8" d="M80.25,67.9c.9,4.62,3.36,8,5.5,7.61S88.91,71,88,66.4s-3.36-8-5.51-7.62S79.35,63.28,80.25,67.9Z"/><path class="cls-9" d="M106.2,99.85s-4.1-9.78,7-10.81c13.22-1.22-4.25-1.26-4.25-1.26s-10.69.86-11.68.57-4.92,1-5,1,3.6,7.58,3.6,7.58S86.68,98.57,106.2,99.85Z"/><path class="cls-3" d="M87.62,85.6s3.38,2.61,9.08.62,9-7.84,9-7.84,12.52-2,21.44,16.47a73.49,73.49,0,0,0-16.84-1.67c-3.21.09-12.16,3.58-15.29-.41,0,0,4.88,6.74,11.21,7.08C106.2,99.85,91.28,111.35,87.62,85.6Z"/><path class="cls-10" d="M124.66,92.76C116.38,81.5,106.8,79.94,106.8,79.94c-3.1,8.57-13.29,8.32-13.29,8.32A7.14,7.14,0,0,0,102,92,40.84,40.84,0,0,1,124.66,92.76Z"/><path class="cls-11" d="M4.83,146.92s-5.37-14.24-2.18-24.53,9.45-17.85,17.66-20,6.73,3.09,6.12,4.3S.78,119.62,4.83,146.92Z"/><path class="cls-11" d="M161.39,113.69c6.48,2.9,16.85,9.47,18.12,22.22,0,0,2.23,3.8,3.74-1.8,0,0,.62-23-24.51-33.11"/><path class="cls-10" d="M8.61,150.07s.66,2.59,4.51.58S16,126.08,33,118.39l-.79-3.47S9.31,121.57,8.61,150.07Z"/><path class="cls-10" d="M163,121.22a16.15,16.15,0,0,1,7.81,6.38c4.78,7.7,6,12.82,6,12.82s.55,1.91,3.31,1.53,5.17-3.49,3.43-3.9-4.7,1.74-5.55.5-1.74-10.91-10.4-17.17c0,0-2.33-1.28-5-2.6"/><path class="cls-10" d="M52.78,31.91c4.35-1.26,12.62-8.27,34-9.17,16.79-.71,27.54,5,35.49,9.49.1.06.21.09.31.14.87.46,4.86,2.77,1.94,5.31-3.17,2.77-73.63,8.67-73.41-4A2,2,0,0,1,52.78,31.91Z"/><path class="cls-11" d="M159.67,130.73a376,376,0,0,1,4.9,40.9c2,32.56-22.61,60.93-55.17,62.88-2.09.12-4.25.19-6.48.19a140.7,140.7,0,0,1-14.16-.7c-33.67-3.36-59.78-22.49-66-62.75a207.13,207.13,0,0,1-2.63-31.13s44.49,53.66,91.29,48.73S159.67,130.73,159.67,130.73Z"/><path class="cls-12" d="M34.78,29c.28-.37.59-.79.92-1.25C41.3,20.1,54.38,2.1,85.9.39H86l.62,0,.67-.05h.09c32.71-2.76,50.31,15.09,56.09,21l.31.3c6.1,6.19,6.89,23.74,7,25.73l-1.37,0v0l-5.5.18c-.23-6.6-1.87-18.37-5.3-21.83l-.3-.31c-5.91-6-21.62-21.9-51.87-19.34h-.09c-.44,0-.87.06-1.31.09-27.06,2.33-38.53,18.13-43.51,25-.35.48-.67.93-1,1.32C37.62,36.31,38.22,49,39.27,56.12L33.83,57s0-.08,0-.12l-1.36.21C32.15,54.93,29.53,36.06,34.78,29Z"/><g class="cls-13"><path class="cls-14" d="M144.77,40.47c.78-1.51,2.79-2.16,4.37,1.71,1.47-4.24,4.61-3.39,6.65,2.85,3.34-.47,7.46,8.23,4.38,10.48,2.53,4.83,5.7,12.57,1.13,12.19,3.08,6.52.85,10.39-2.84,7.83-.14,4.43-2.37,8.3-5.66,3.1-2.7,3.4-9-1.43-10.31-9.18-4-2.46-6.1-9.92-3.69-13.22C135.7,51.59,136,44.77,136.61,42c.81-3.65,4.5-7.81,8.16-1.48"/></g><path class="cls-15" d="M146.77,39.47c.78-1.51,2.79-2.16,4.37,1.71,1.47-4.24,4.61-3.39,6.65,2.85,3.34-.47,7.46,8.23,4.38,10.48,2.53,4.83,5.7,12.57,1.13,12.19,3.08,6.52.85,10.39-2.84,7.83-.14,4.43-2.37,8.3-5.66,3.1-2.7,3.4-9-1.43-10.31-9.18-4-2.46-6.1-9.92-3.69-13.22C137.7,50.59,138,43.77,138.61,41c.81-3.65,4.5-7.81,8.16-1.48"/><g class="cls-13"><path class="cls-14" d="M35.07,49.87c1.54-1.35,4.43-1.63,5.25,2.48,3.38-3.92,7.28-2.51,7.92,4,4.61.14,7.2,9.48,2.35,11.15C52.36,72.74,54,81,48,79.76c1.95,7-2.31,10.42-6.39,7.22-1.66,4.36-5.92,7.77-8.57,2C28.34,91.88,21.49,86,22.39,78.09c-4.49-3.16-4.84-10.91-.52-13.74-2.59-5.14.06-11.83,1.83-14.5,2.29-3.46,8.6-6.9,11.37,0"/></g><path class="cls-15" d="M33.07,46.87c1.54-1.35,4.43-1.63,5.25,2.48,3.38-3.92,7.28-2.51,7.92,4,4.61.14,7.2,9.48,2.35,11.15C50.36,69.74,52,78,46,76.76c1.95,7-2.31,10.42-6.39,7.22-1.66,4.36-5.92,7.77-8.57,2C26.34,88.88,19.49,83,20.39,75.09c-4.49-3.16-4.84-10.91-.52-13.74-2.59-5.14.06-11.83,1.83-14.5,2.29-3.46,8.6-6.9,11.37,0"/><path class="cls-16" d="M81.09,177.44a1,1,0,0,0,.64.8l8.86,3.31-3.66,9.63a1.19,1.19,0,0,0,.12,1.07,1,1,0,0,0,.88.42l9.27-1.27.39,10.45a1.1,1.1,0,0,0,.51.91.86.86,0,0,0,1,0l7.89-5.6,4.35,9a1,1,0,0,0,.81.58h0a.92.92,0,0,0,.81-.51l5-8.56,7.48,6.28a.85.85,0,0,0,1,.12,1.06,1.06,0,0,0,.58-.86l1.11-10.39,9.15,2.08a.89.89,0,0,0,.91-.34,1.17,1.17,0,0,0,.19-1.06l-3-9.92L144.4,181a1,1,0,0,0,.7-.74,1.2,1.2,0,0,0-.24-1.05l-6.48-7.53L145.6,165a1.11,1.11,0,0,0,.34-1,1,1,0,0,0-.61-.83l-8.73-3.7,4-9.46a1.16,1.16,0,0,0-.08-1.07.92.92,0,0,0-.87-.46l-9.3.87,0-10.47a1.1,1.1,0,0,0-.48-.93.88.88,0,0,0-1,0l-9.27,6-5.36-10.4a.91.91,0,0,0-1.66,0l-4.67,9.06-7.69-5.94a.85.85,0,0,0-.95-.08,1.08,1.08,0,0,0-.55.88L98,148l-9.22-1.67a.89.89,0,0,0-.9.38,1.2,1.2,0,0,0-.15,1.06L91,157.5l-9,2.92a1,1,0,0,0-.67.77,1.17,1.17,0,0,0,.27,1l6.74,7.24-7,6.95A1.16,1.16,0,0,0,81.09,177.44Z"/><ellipse class="cls-15" cx="113.72" cy="169.67" rx="19.78" ry="22.27"/></g></g></g></svg>