<?xml version="1.0" encoding="utf-8"?>
<!-- Generator: Adobe Illustrator 22.1.0, SVG Export Plug-In . SVG Version: 6.00 Build 0)  -->
<svg version="1.1" id="Layer_1" xmlns="http://www.w3.org/2000/svg" xmlns:xlink="http://www.w3.org/1999/xlink" x="0px" y="0px"
	 viewBox="0 0 113.3 109.3" style="enable-background:new 0 0 113.3 109.3;" xml:space="preserve">
<style type="text/css">
	.st0{fill:#F38F31;}
	.st1{enable-background:new    ;}
	.st2{fill:#FFFFFF;}
</style>
<ellipse id="Ellipse_1080" transform="matrix(0.766 -0.6428 0.6428 0.766 -21.886 49.1927)" class="st0" cx="56.6" cy="54.7" rx="47.5" ry="31.5"/>
<g class="st1">
	<path class="st2" d="M70.9,60.1c0,2.2-0.7,4.2-2.1,5.9c-3.2,4-7.6,6-13.2,6c-2.5,0-4.8-0.3-6.8-0.8c-1.3-0.3-2.7-1-4-2.1
		c-1.6-1.2-2.4-2.5-2.4-3.7c0-0.6,0.3-1.1,0.8-1.5c0.5-0.5,1.1-0.7,1.6-0.7c1,0,1.7,0.5,2.2,1.4c0.6,1.3,1.2,2.2,1.6,2.5
		c1.1,0.9,2.9,1.3,5.5,1.3c2.2,0,4.2-0.4,6.1-1.2c2.1-0.9,3.6-2.2,4.7-4c0.7-1.2,1.1-2.2,1.1-3c0-1.6-1-3-2.9-4
		c-1.6-1-3.3-1.5-5-1.5c-0.5,0-1.7,0.4-3.7,1.1s-3.6,1.1-4.8,1.1c-0.6,0-1.2-0.1-1.8-0.4c-0.7-0.3-1-0.7-1-1.3
		c0-0.7,0.4-1.4,1.1-2.2c0.7-0.8,2.1-1.2,4-1.3c2.3-0.1,3.8-0.3,4.3-0.5c1-0.4,2.2-1.4,3.8-3.1c1.4-1.6,2.1-3.1,2.1-4.5
		c0-1.8-1-2.8-2.9-2.8c-1.1,0-2.6,0.4-4.5,1.2c-2,0.8-3.2,1.6-3.8,2.4v0.2c0,0,0.1,0.3,0.2,0.7c-0.4,0.8-1.1,1.6-2.1,2.4
		c-1.1,0.9-2.1,1.3-2.9,1.3c-0.6,0-1.1-0.2-1.7-0.6c-0.6-0.4-0.9-0.9-0.9-1.4c0-0.7,0.5-1.7,1.3-2.8c1.5-1.9,3.6-3.6,6.5-5.1
		c2.8-1.5,5.4-2.2,7.8-2.2c2.1,0,3.9,0.6,5.2,1.7c1.5,1.2,2.3,2.8,2.3,4.8c0,1.4-0.4,2.9-1.3,4.6c-0.8,1.5-1.8,2.7-3,3.7
		C68.1,53.1,70.9,55.8,70.9,60.1z"/>
</g>
</svg>
