<svg xmlns="http://www.w3.org/2000/svg" viewBox="0 0 198.95 252.13"><defs><style>.cls-1{isolation:isolate;}.cls-15,.cls-18,.cls-2{fill:#231f20;}.cls-2{opacity:0.3;}.cls-14,.cls-15,.cls-16,.cls-2{mix-blend-mode:soft-light;}.cls-3{fill:#f4b008;}.cls-4{fill:#0f3c47;}.cls-21,.cls-5,.cls-6{fill:#3f616f;}.cls-21,.cls-5{stroke:#000;stroke-width:2px;}.cls-5{stroke-miterlimit:10;}.cls-7{fill:#e6e7e8;}.cls-8{fill:#193441;}.cls-9{fill:#0d414f;stroke:#0d414f;stroke-width:4px;}.cls-21,.cls-9{stroke-linecap:round;stroke-linejoin:round;}.cls-10{fill:#29a2ab;}.cls-10,.cls-11{opacity:0.8;}.cls-11,.cls-14,.cls-16{fill:#fff;}.cls-12{fill:#1c75bc;}.cls-13{fill:#a73e5c;}.cls-16{opacity:0.5;}.cls-17{fill:#27aae1;}.cls-18{opacity:0.29;}.cls-19{fill:#279fc9;}.cls-20{fill:#798987;}</style></defs><title>3_electricity</title><g class="cls-1"><g id="Layer_2" data-name="Layer 2"><g id="OBJECTS"><path class="cls-2" d="M111.76,210.18s52.18-3.34,68,10-17.36,35.13-93.08,31.56-52.34-23.55-79.37-27S30.65,203,111.76,210.18Z"/><path class="cls-2" d="M107.88,214.09s42-2.68,54.82,8.06-14,28.3-75,25.43-42.16-19-63.93-21.76S42.54,208.29,107.88,214.09Z"/><path class="cls-3" d="M54.51,223.11l-17.87,11.4s21.79-3.27,30.91,9.27l6.27-13.68Z"/><path class="cls-3" d="M116,230.6l11.68,15.74s11.19-10.6,26.4-10.44l-17.85-12.27Z"/><path class="cls-4" d="M36.06,97.37S24.52,94.81,22,86.26A48.85,48.85,0,0,1,19.61,71.9s-.86-4.24-6-3S7,78.22,7.42,88.76,19,117,32.86,121.52,36.06,97.37,36.06,97.37Z"/><path class="cls-5" d="M166.43,210.44S199,95.35,151.9,24.49c0,0-53-18.38-93.18.86,0,0-41,76.51-32.49,178.67,0,0,6.84,29.5,61.13,30.78S166.43,210.44,166.43,210.44Z"/><path class="cls-6" d="M161.59,103.56s10.55-2.27,15.39-9.4,8.55-22.44,15.1-20,8.55,11.87,5.42,26.64-18.24,22.75-27.07,25.32S159,113.25,161.59,103.56Z"/><path class="cls-7" d="M87.23,31A12.79,12.79,0,0,0,103,32.53a18.32,18.32,0,0,1,12.68-3.05c13.11,2,22.51,41.6,17.1,63.55,0,0,29.35,23.36,19.09,74.37S98,233.8,64.13,217.27s-39-92.11-15.39-122.57c0,0-4.27-23,7.27-45.56C65.08,31.45,78.46,22.21,87.23,31Z"/><path class="cls-8" d="M111,61.58c-.81,4.19-3.34,7.23-5.64,6.78s-3.51-4.2-2.7-8.4,3.34-7.23,5.64-6.79S111.82,57.38,111,61.58Z"/><path class="cls-8" d="M79.36,59.62c-.81,4.17-3.2,7.21-5.35,6.8s-3.22-4.14-2.42-8.31,3.2-7.21,5.35-6.8S80.17,55.45,79.36,59.62Z"/><path class="cls-9" d="M128.54,77.14l2.28-20.62s26.64-1.64,34-12.81A25.85,25.85,0,0,1,171,64.53S151,77.23,128.54,77.14Z"/><path class="cls-9" d="M50.46,45.69s-6-.85-7,4.05c-1.61,7.57-3.3,15.82,4.74,16.57Z"/><path class="cls-10" d="M94.68,74.58a14.52,14.52,0,0,0,3.48,3.75c9.39-8.37,18.38-17.22,28-25.29-3-4.5-7.37-7.21-13.63-9.92a33.16,33.16,0,0,0-5-1.44C92.4,53.58,77.67,66,63.11,78.7c6.25,1.22,12.8-.07,16.11-4C86.72,65.84,91.65,69.6,94.68,74.58Z"/><path class="cls-11" d="M128.49,57.66A22.66,22.66,0,0,0,126.17,53c-9.63,8.07-18.62,16.92-28,25.29a23.53,23.53,0,0,0,6,3.36c8.33-7.39,16.68-14.75,25-22.19C128.93,58.89,128.73,58.28,128.49,57.66Z"/><path class="cls-10" d="M104.15,81.69a20,20,0,0,0,11.56,1.08c11.2-2.6,17.09-11.15,13.4-23.27C120.83,66.94,112.48,74.3,104.15,81.69Z"/><path class="cls-11" d="M88.11,38.78c-1.29,1.27-2.58,2.56-3.94,3.75-10.58,10.69-20.9,21.07-31.42,31,.38.37.76.73,1.17,1.06a21.65,21.65,0,0,0,9.19,4.07C77.67,66,92.4,53.58,107.59,41.68A145.9,145.9,0,0,0,88.11,38.78Z"/><path class="cls-11" d="M80.74,38.37c-2.19-.06-4.36,0-6.44,0C66.21,48.05,57.46,57.11,48.5,66a19,19,0,0,0,1.85,4.45C60.91,60.16,71,49.45,80.74,38.37Z"/><path class="cls-10" d="M59.39,41.58C48.65,47.71,46.31,58,48.5,66c9-8.84,17.71-17.9,25.8-27.54C68.25,38.67,62.87,39.6,59.39,41.58Z"/><path class="cls-10" d="M80.74,38.37C71,49.45,60.91,60.16,50.35,70.4a15.36,15.36,0,0,0,2.4,3.17c10.52-10,20.84-20.35,31.42-31,1.36-1.19,2.65-2.48,3.94-3.75C85.67,38.58,83.19,38.43,80.74,38.37Z"/><path class="cls-12" d="M64.72,82.17A25.43,25.43,0,0,1,51.87,77.1c-5-3.93-7.88-11.16-7.35-18.43.61-8.29,5.3-15.34,13.2-19.85C66.24,34,83.27,35,92.66,36c8.93,1,17.85,2.75,21.19,4.19,8.55,3.69,14.49,7.72,17.73,16.38,2.68,7.19,2.55,13.8-.38,19.12-2.8,5.08-7.89,8.59-14.71,10.18a21.27,21.27,0,0,1-7.11.37h0c-7.08-.78-14.45-5-17.52-10-1.35-2.2-2.75-3.49-4-3.62-1.52-.17-3.76,1.35-6.15,4.17C78.22,80.94,71.85,83,64.72,82.17ZM92,42.36c-14.38-1.59-25.93-.85-30.89,2C53,49,51.33,55.61,51.07,59.17c-.37,5.15,1.6,10.37,4.91,13a18.71,18.71,0,0,0,9.44,3.67c4.85.54,9.16-.67,11.26-3.15,4-4.71,8-6.88,11.93-6.44C92,66.6,95,68.87,97.5,73c1.78,2.93,7,6.32,12.58,6.94h0a14.4,14.4,0,0,0,4.85-.24c5-1.15,8.58-3.57,10.48-7,2-3.67,2-8.49,0-13.92C123,52.15,118.53,49.2,111.22,46,109.27,45.2,101.79,43.44,92,42.36Z"/><path class="cls-13" d="M79.38,104.71s4.16-6.56.72-19.38,5.69-2.7,5.69-2.7,10.69.85,11.68.57,3.65,2.64,3.75,2.64-2.32,5.93-2.32,5.93S98.9,103.43,79.38,104.71Z"/><path class="cls-3" d="M106.88,86.39C92.72,82.84,91.29,76.42,90,74.57A3.9,3.9,0,0,0,87.19,73,90.05,90.05,0,0,0,56,75.22s19.23,8,26.43,13.11,14.18,3.27,17.31-.72c0,0-4.13,15.53-20.37,17.1,0,0,20.32,4.18,27.5-18.32"/><path class="cls-14" d="M88.18,74.59s-19.85-1.57-28,.9a46.08,46.08,0,0,1,14.71,6.37c6.89,4.73,15.06,10,19.2,7.82s4-5.42,4-5.42S88.9,81.19,88.18,74.59Z"/><path class="cls-15" d="M196.64,82.68s2.09,15.07-3.29,24.4-13.16,15.33-21.63,15.58-5.89-4.5-5-5.54S194.56,110.2,196.64,82.68Z"/><path class="cls-15" d="M10.44,76.32s-7.38,24.29,18.28,40.79L30.65,105S11.36,94.12,14.51,75.57C14.51,75.57,13.38,71.32,10.44,76.32Z"/><path class="cls-14" d="M193.65,78.78s-.07-2.68-4.27-1.57-8.21,23.34-26.5,27.07v3.56S186.67,106.42,193.65,78.78Z"/><path class="cls-14" d="M18.32,71.94s0-2-2.78-2.35-5.91,2-4.34,2.85,5-.43,5.48,1-1.21,11,5.49,19.31c0,0,6.48,6.27,9.47,8.12l1.15-3.42s-9.48-2.85-12-11.54S18.32,71.94,18.32,71.94Z"/><path class="cls-16" d="M148.49,27.61s-47.84-17.08-87.19,0c0,0-6.5,3.38-2.55,7.18S154.71,46.76,148.49,27.61Z"/><path class="cls-15" d="M34.17,126.35s-8,42.89-4.58,75.4c0,0,14.77,28.57,61.32,28.57s69.74-21.67,69.74-21.67,13-34.8,13.08-72.91c0,0-44.49,53.66-91.29,48.74S34.17,126.35,34.17,126.35Z"/><path class="cls-17" d="M73,201.17l22.91-23a1.49,1.49,0,0,0-1.06-2.54H93a1.49,1.49,0,0,1-1.17-2.41L104,157.89a1.48,1.48,0,0,0-1.17-2.41h-6.1a1.49,1.49,0,0,1-1.19-2.39l15.51-20.63a1.49,1.49,0,0,0-1.19-2.39H85.33a1.47,1.47,0,0,0-1.33.83L72,155.17a1.49,1.49,0,0,0,1.34,2.15h5.53a1.49,1.49,0,0,1,1.33,2.15L72,176.07a1.49,1.49,0,0,0,1.34,2.15h5.21a1.49,1.49,0,0,1,1.34,2.14l-9.26,19.11A1.49,1.49,0,0,0,73,201.17Z"/><path class="cls-15" d="M196.64,82.68s2.09,15.07-3.29,24.4-13.16,15.33-21.63,15.58-5.89-4.5-5-5.54S194.56,110.2,196.64,82.68Z"/><path class="cls-14" d="M193.65,78.48s-.07-2.68-4.27-1.57-8.21,23.34-26.5,27.08v3.56S186.67,106.12,193.65,78.48Z"/><path class="cls-18" d="M166.8,98s6.32-2.84,8.06-4.81c1.47-1.67-.67,1.73-2.23,3.83-.23.3-2,.37-2.27.66-3.65,4-2.92,3.92-2.92,3.92-3.16,2,2.24,6.64.87,11.87-.85,3.25-4.53,3.36-4.66,5.67-.16,2.79,3,3.07,2.75,5.88-.83,8.41,1.38,29.09-5.75,32.87-14.52,7.71-42.51-3.41-46-3-11.87,1.24-1.33-16.65-12.24-16.65-27.26,0-49.18-9.66-64.67-23.62-3.08-2.78-5.19-5.52-5.61-8.88-.79-6.27-7.56-13.95,4.39-14,0,0,17.67,5.4,23.4,7.54a162.82,162.82,0,0,0,20.55,5.78c10,2.19,20.55,3.76,27.64,3.49,12.69-.48,44.65-2.72,58.65-10.53"/><path class="cls-19" d="M166.5,95s6.32-2.84,8.06-4.81c1.47-1.67,2.7,4.66,1.13,6.76-.23.31,0,0-.25.28-3.65,4-10.81,6.52-10.81,6.52-7.24,1.84-4.63,10.38-8.22,17.86-2.6,5.41-11.08,10.5-16.22,11-42.12,4.41-76.81-7-102.35-20.87-3-1.61-5.55-5.73-6-9.09-.79-6.27-7.56-13.95,4.39-14,0,0,17.68,5.4,23.4,7.54a162.82,162.82,0,0,0,20.55,5.78c10,2.19,20.55,3.76,27.64,3.49,12.69-.48,44.66-2.72,58.65-10.53"/><path class="cls-12" d="M38,111.87A6.42,6.42,0,0,1,34.7,106c.58-17.45,8.72-14.64,9.22-14.86h0l3.95,1.23,2.82.89c-.38.18-12-2.51-9.67,20.22Z"/><path class="cls-12" d="M51.91,118.72c-1.6-16.69,7.33-21.88,7.75-22.44l6.4,2.11c.76-.85-8.08,9.18-6.73,23.38Z"/><path class="cls-12" d="M70.15,125.58c-.4-18.63,7.08-23.68,7.4-24.12l3,.67,2,.42,1.56.32c.39-1.22-7,8.45-6.69,24.85Z"/><path class="cls-12" d="M90.54,130.72c-.4-18.64,6.07-25.39,6.38-25.84l2.84.37,1.95.16,1.94.11c.4-1.22-5.41,10.11-5.05,26.51L98,132a34.63,34.63,0,0,1-6.32-1Z"/><path class="cls-20" d="M159.22,110.28c.44-3,2.54-4.27,1.47-7.56-.35-1.08-.47-3.76-4.1-3.76h0l-6.53,1.68c.06.12,9.25.82,4.7,23.53C154.76,124.17,157.32,123.22,159.22,110.28Z"/><path class="cls-12" d="M168.48,102.11a22.88,22.88,0,0,0-3.14-6.48s1.33-.72,2-1L170,93.28c.16.18.85,2.35,2.62,6.38,0,0-2.9,2.14-4,2.38Z"/><path class="cls-17" d="M146.47,98.2c-8.87,1.63-12.34,6.72-24.14,5.12-19.49-2.63-12.77,25.79-13.48,43.77C108,170.2,105,186.34,108,189.9c4.16,4.94,54.76,6.06,56.63,4.51,1.49-1.24.91-20-.47-55.43-.24-6.21,4-32.72-2-37.41C157.15,97.63,152.49,97.09,146.47,98.2Z"/><path class="cls-17" d="M115.86,188.79s0,.21.08.6.14.9.27,1.55.27,1.41.46,2.21.42,1.65.65,2.5.56,1.67.82,2.46.67,1.45.94,2.06a7.19,7.19,0,0,0,.48.76l.39.58.34.52-.41-.46-.48-.52c-.17-.21-.41-.43-.6-.71-.36-.56-.82-1.21-1.26-1.94s-.84-1.54-1.21-2.37-.75-1.65-1-2.45-.59-1.54-.8-2.18-.4-1.2-.52-1.58-.18-.6-.18-.6Z"/><path class="cls-17" d="M123.69,189.89s0,.22.09.6.13.91.26,1.56.27,1.4.46,2.2.42,1.65.65,2.51.57,1.66.83,2.45.66,1.45.93,2.06a7.19,7.19,0,0,0,.48.76l.39.59.34.51-.41-.45-.47-.53a6.22,6.22,0,0,1-.6-.7c-.37-.57-.83-1.22-1.26-1.95s-.85-1.54-1.21-2.37-.76-1.65-1-2.45-.59-1.53-.8-2.18-.39-1.19-.52-1.58l-.17-.59Z"/><path class="cls-17" d="M131.52,191s0,.22.09.6.13.91.26,1.56.27,1.4.46,2.2.42,1.65.65,2.51.57,1.66.83,2.45.66,1.45.93,2.06a7.19,7.19,0,0,0,.48.76l.39.58.34.52-.41-.46-.47-.52a5.57,5.57,0,0,1-.6-.71c-.37-.56-.83-1.21-1.26-1.94s-.85-1.54-1.21-2.37-.76-1.65-1.05-2.45-.59-1.54-.8-2.18-.39-1.2-.51-1.58-.18-.6-.18-.6Z"/><path class="cls-17" d="M139.36,192.1s0,.22.09.6.13.91.26,1.56.27,1.4.46,2.21.42,1.64.65,2.5.56,1.66.83,2.45.66,1.45.93,2.06a7.19,7.19,0,0,0,.48.76l.39.59.34.51-.41-.45-.48-.53c-.17-.21-.41-.42-.6-.7-.36-.57-.82-1.22-1.26-1.95s-.84-1.54-1.21-2.37-.75-1.65-1-2.45-.59-1.53-.8-2.18-.4-1.19-.52-1.58-.18-.59-.18-.59Z"/><path class="cls-17" d="M147.12,191.3l.08.6c.06.38.14.91.27,1.56s.27,1.4.46,2.21.42,1.64.65,2.5.56,1.66.82,2.45.67,1.45.94,2.06a7.19,7.19,0,0,0,.48.76l.39.59.34.51-.41-.45-.48-.53c-.17-.21-.41-.42-.6-.7-.36-.57-.82-1.22-1.26-2s-.84-1.54-1.21-2.37-.75-1.65-1-2.45-.59-1.53-.81-2.18-.39-1.19-.51-1.58-.18-.59-.18-.59Z"/><path class="cls-17" d="M155,192.41s0,.21.09.6.13.9.26,1.55.27,1.41.46,2.21.42,1.65.65,2.5.56,1.67.83,2.46.66,1.45.93,2.05a6.47,6.47,0,0,0,.48.77l.39.58.34.51-.41-.45-.48-.52c-.17-.21-.41-.43-.6-.71-.36-.56-.82-1.21-1.26-1.94s-.84-1.54-1.21-2.37-.75-1.65-1-2.45-.59-1.54-.8-2.18-.4-1.2-.52-1.58-.18-.6-.18-.6Z"/><path class="cls-17" d="M161.91,191.6s0,.21.09.6.14.91.26,1.55.28,1.41.46,2.21.43,1.65.66,2.5.56,1.67.82,2.46.66,1.45.94,2.06a7.22,7.22,0,0,0,.47.76c.16.23.29.42.39.58l.35.52-.41-.46c-.14-.14-.3-.32-.48-.52a6.37,6.37,0,0,1-.6-.71c-.36-.56-.83-1.21-1.26-1.94s-.85-1.54-1.21-2.37-.76-1.65-1-2.45-.59-1.54-.81-2.18-.39-1.2-.51-1.58-.18-.6-.18-.6Z"/><path class="cls-17" d="M158.66,192s0,.22.09.6.13.91.26,1.56.27,1.4.46,2.2.42,1.65.65,2.51.57,1.66.83,2.45.66,1.45.93,2.06a7.19,7.19,0,0,0,.48.76l.39.59.34.51-.41-.46-.47-.52a5.57,5.57,0,0,1-.6-.71c-.37-.56-.83-1.21-1.26-1.94s-.85-1.54-1.21-2.37-.76-1.65-1-2.45-.59-1.53-.8-2.18-.39-1.2-.51-1.58-.18-.59-.18-.59Z"/><path class="cls-17" d="M151.24,192.81s0,.22.09.6.13.91.26,1.56.27,1.4.46,2.21.42,1.65.65,2.5.57,1.66.83,2.45.66,1.45.93,2.06a8.64,8.64,0,0,0,.48.77l.39.58.34.51-.41-.45-.47-.53a6.22,6.22,0,0,1-.6-.7c-.37-.57-.83-1.22-1.26-2s-.85-1.54-1.21-2.37-.76-1.65-1.05-2.45-.59-1.53-.8-2.18-.39-1.19-.52-1.58l-.17-.59Z"/><path class="cls-17" d="M143.18,193.32s0,.22.09.61.13.9.26,1.55.27,1.4.46,2.21.42,1.65.65,2.5.57,1.66.83,2.46.66,1.44.93,2a6.47,6.47,0,0,0,.48.77l.39.58.34.51-.41-.45-.47-.53a7.46,7.46,0,0,1-.61-.7c-.36-.57-.82-1.22-1.25-1.95s-.85-1.54-1.21-2.36-.76-1.66-1-2.45-.59-1.54-.8-2.19-.39-1.19-.52-1.57l-.17-.6Z"/><path class="cls-17" d="M136,192.31s0,.22.09.61.14.9.26,1.55.27,1.41.46,2.21.43,1.65.65,2.5.57,1.67.83,2.46.66,1.44.93,2.05a6.47,6.47,0,0,0,.48.77l.39.58.34.51-.41-.45-.47-.53a6.22,6.22,0,0,1-.6-.7c-.37-.56-.83-1.21-1.26-2s-.85-1.54-1.21-2.36-.76-1.66-1.05-2.45-.58-1.54-.8-2.19-.39-1.19-.51-1.57-.18-.6-.18-.6Z"/><path class="cls-17" d="M127.27,190.4s0,.21.09.6.13.9.26,1.55.27,1.41.46,2.21.42,1.65.65,2.5.57,1.67.83,2.46.66,1.45.93,2.06a7.19,7.19,0,0,0,.48.76l.39.58.34.52-.41-.46-.48-.52c-.17-.21-.41-.43-.6-.71-.36-.56-.82-1.21-1.25-1.94s-.85-1.54-1.21-2.37-.76-1.65-1-2.45-.59-1.54-.8-2.18-.39-1.2-.51-1.58-.18-.6-.18-.6Z"/><path class="cls-17" d="M120.11,189.39l.09.6c.06.37.13.91.26,1.55s.27,1.41.46,2.21.43,1.65.65,2.5.57,1.67.83,2.46.66,1.45.94,2.06a5.87,5.87,0,0,0,.47.76l.39.58.34.52s-.14-.17-.41-.46l-.47-.52a5.57,5.57,0,0,1-.6-.71c-.37-.56-.83-1.21-1.26-1.94s-.85-1.54-1.21-2.37-.76-1.65-1-2.45-.59-1.54-.8-2.18-.39-1.2-.51-1.58-.18-.6-.18-.6Z"/><path class="cls-17" d="M112.18,189s0,.22.09.6.14.91.27,1.56.27,1.4.45,2.2.43,1.65.66,2.51.56,1.66.82,2.45.66,1.45.94,2.06a7.22,7.22,0,0,0,.47.76l.39.59.34.51s-.14-.17-.41-.45l-.47-.53a6.22,6.22,0,0,1-.6-.7c-.37-.57-.83-1.22-1.26-1.95s-.85-1.54-1.21-2.37-.76-1.65-1-2.45-.59-1.53-.81-2.18-.39-1.19-.51-1.58-.18-.59-.18-.59Z"/><path class="cls-12" d="M108.77,143.74l-.11-8.14c1.37-.32,30.69-6.34,55.63-.37l.06,8.58C140.94,138.2,109.09,143.67,108.77,143.74Z"/><path class="cls-12" d="M108.38,123.55s0-3.06,0-4,.33-3.63.33-3.63c1.37-.32,31.71-8,56.65-2,0,0,0,2.33,0,4-.06,2.53-.2,4.27-.2,4.27C141.72,116.47,108.7,123.48,108.38,123.55Z"/><path class="cls-12" d="M107.89,163.39l.51-7.45c1.47-.15,36.18-3.05,56.46,1.32l.25,7.44C145.88,160.55,108.24,163.35,107.89,163.39Z"/><path class="cls-12" d="M106.71,181.13l.39-7.29c1.47-.13,33.81.83,58.32,2.3l.09,7.13C136.9,183.46,107.06,181.1,106.71,181.13Z"/><path class="cls-13" d="M79.38,104.71s4.16-6.56.72-19.38,5.69-2.7,5.69-2.7,10.69.85,11.68.57,3.65,2.64,3.75,2.64-2.32,5.93-2.32,5.93S98.9,103.43,79.38,104.71Z"/><path class="cls-3" d="M106.88,86.39C92.72,82.84,91.29,76.42,90,74.57A3.9,3.9,0,0,0,87.19,73,90.05,90.05,0,0,0,56,75.22s19.23,8,26.43,13.11,14.18,3.27,17.31-.72c0,0-4.13,15.53-20.37,17.1,0,0,20.32,4.18,27.5-18.32"/><path class="cls-14" d="M88.18,74.59s-19.85-1.57-28,.9a46.08,46.08,0,0,1,14.71,6.37c6.89,4.73,15.06,10,19.2,7.82s4-5.42,4-5.42S88.9,81.19,88.18,74.59Z"/><path class="cls-21" d="M113.1,19.52s1.79-2.14,1.54-7.4a11.47,11.47,0,0,1-7.16,6.42S112.61,14,111.06,1c0,0-.3,12-8,17.31,0,0,2.44-3.19.82-10.19,0,0,.37,6.59-5.13,10.09"/></g></g></g></svg>