<svg xmlns="http://www.w3.org/2000/svg" viewBox="0 0 198.95 293.11"><defs><style>.cls-1{isolation:isolate;}.cls-15,.cls-2,.cls-9{fill:#231f20;}.cls-2{opacity:0.3;}.cls-10,.cls-2,.cls-9{mix-blend-mode:soft-light;}.cls-3{fill:#0f3c47;}.cls-3,.cls-5{stroke:#000;stroke-miterlimit:10;}.cls-14,.cls-3,.cls-5{stroke-width:2px;}.cls-4{fill:#f4b008;}.cls-5,.cls-6{fill:#3f616f;}.cls-7{fill:#e6e7e8;}.cls-8{fill:#193441;}.cls-10,.cls-17{fill:#fff;}.cls-11,.cls-14{fill:#e87e25;}.cls-12{fill:#f38f31;}.cls-13{fill:#f7941e;}.cls-14{stroke:#f38f31;stroke-linecap:round;stroke-linejoin:round;}.cls-15{opacity:0.2;}.cls-16{fill:#29a2ab;}.cls-16,.cls-17{opacity:0.8;}.cls-18{fill:#dd7222;}.cls-19{fill:#a73e5c;}</style></defs><title>3_gas</title><g class="cls-1"><g id="Layer_2" data-name="Layer 2"><g id="OBJECTS"><path class="cls-2" d="M111.76,251.15s52.18-3.33,68,10-17.36,35.14-93.08,31.57-52.34-23.56-79.37-27S30.65,244,111.76,251.15Z"/><path class="cls-2" d="M107.88,255.07s42-2.69,54.82,8.05-14,28.31-75,25.43-42.16-19-63.93-21.76S42.54,249.27,107.88,255.07Z"/><path class="cls-3" d="M36.06,138.35S24.52,135.78,22,127.23a48.85,48.85,0,0,1-2.34-14.36s-.86-4.23-6-3S7,119.2,7.42,129.73,19,158,32.86,162.5,36.06,138.35,36.06,138.35Z"/><path class="cls-4" d="M138.17,264.92l20.26,12.92s-20.9-6.14-31.24,8.07l-7.11-15.5Z"/><path class="cls-4" d="M72.59,270.65,59.35,285.1s-10-11.69-25.18-13.09l19-10.37Z"/><path class="cls-5" d="M166.43,251.41S199,136.33,151.9,65.46c0,0-53-18.37-93.18.86,0,0-41,76.51-32.49,178.68,0,0,6.84,29.49,61.13,30.77S166.43,251.41,166.43,251.41Z"/><path class="cls-6" d="M161.59,144.53s10.55-2.26,15.39-9.4,8.55-22.43,15.1-20,8.55,11.88,5.42,26.65S179.26,164.48,170.43,167,159,154.22,161.59,144.53Z"/><path class="cls-7" d="M93.2,83.28s9.4-14.82,22.51-12.83,22.51,41.61,17.1,63.55c0,0,29.35,23.37,19.09,74.38S98,274.78,64.13,258.25s-39-92.11-15.39-122.57c0,0-4.27-23.05,7.27-45.56S86.08,58.77,93.2,83.28Z"/><path class="cls-8" d="M111,102.55c-1.18,6.08-3.87,10.68-6,10.26s-2.92-5.68-1.75-11.76,3.87-10.68,6-10.26S112.19,96.47,111,102.55Z"/><path class="cls-8" d="M79.36,100.59c-1.15,5.91-3.81,10.37-6,10s-3-5.54-1.81-11.45,3.81-10.37,6-10S80.5,94.68,79.36,100.59Z"/><path class="cls-9" d="M196.64,123.65s2.09,15.08-3.29,24.41-13.16,15.32-21.63,15.57-5.89-4.5-5-5.53S194.56,151.17,196.64,123.65Z"/><path class="cls-9" d="M10.44,117.29s-7.38,24.29,18.28,40.8L30.65,146s-19.29-10.9-16.14-29.44C14.51,116.55,13.38,112.29,10.44,117.29Z"/><path class="cls-10" d="M193.65,119.75s-.07-2.68-4.27-1.56-8.21,23.33-26.5,27.07v3.56S186.67,147.39,193.65,119.75Z"/><path class="cls-10" d="M18.32,112.91s0-2-2.78-2.35-5.91,2-4.34,2.85,5-.43,5.48,1-1.21,11,5.49,19.31c0,0,6.48,6.27,9.47,8.12l1.15-3.42s-9.48-2.85-12-11.54S18.32,112.91,18.32,112.91Z"/><path class="cls-9" d="M163.56,78.71S109,64.07,62.33,66.62c0,0-7.74.69-3.36,3,1.9,1,22,2.09,45.12,2.71C133.26,73.13,167,84.26,163.56,78.71Z"/><path class="cls-9" d="M34.17,167.33s-8,42.88-4.58,75.39c0,0,14.77,28.58,61.32,28.58s69.74-21.68,69.74-21.68,13-34.8,13.08-72.91c0,0-44.49,53.67-91.29,48.74S34.17,167.33,34.17,167.33Z"/><path class="cls-11" d="M118.28,2c-1-2.91-5.73-2.51-6.39.72-1.55-1-2-3.5-6.46-1.52-2.27,1-4.25,5.42-1.69,7.11-1.95.77-4.14,2.37-4,4.94.16,2.41,2.46,4.75,4.41,4-.21,2.87-.43,4.54,1.81,6.37,2.11,1.63,4.35,2.26,6-.08,1.07,7.3,13.35,4.45,11.09.41,1.93.59,5.13,1,6.37-1.4,1-2.08-.48-4.66-2.25-5.4,4.81-1.25,6.52-9.73.71-10.3C130.07.93,119.6-2.3,118.28,2"/><path class="cls-12" d="M60.71,51.16s14.12-36.29,55.18-32.4c0,0,38,5.07,41,41.82C156.86,60.58,111.77,66.13,60.71,51.16Z"/><path class="cls-11" d="M166.69,73.07c0-5.72-1.3-9.08-6.85-11.87C151.55,57,126.3,51.49,112.2,49.68c-8.79-1.14-48.57-1.44-54.15,1.35-4.56,2.29-4.63,7.24-5.07,11.62-.37,3.68,1.08,7.25,6.92,6,12.25-2.6,33.95-.29,46.1.83s38.81,5.68,44.77,8.09C150.77,77.58,166.74,84.37,166.69,73.07Z"/><g id="whatshot"><path class="cls-13" d="M91.88,166.31A80,80,0,0,1,94,181.81c0,6.55-4.48,12.06-11,12.06a11.91,11.91,0,0,1-11.71-12.06v-1a44.72,44.72,0,0,0-10.33,28.58,25.83,25.83,0,1,0,51.65,0A54.24,54.24,0,0,0,91.88,166.31Zm-5.16,58.55a10.08,10.08,0,0,1-10.34-10c0-5.16,3.45-9,9-10,5.85-1,11.71-3.79,14.81-8.27a41.84,41.84,0,0,1,2.06,13.09A15.36,15.36,0,0,1,86.72,224.86Z"/></g><path class="cls-14" d="M61.11,53.73,58.7,62.16"/><path class="cls-14" d="M68.52,53.08c-3.59,12.6-2.27,9-2.27,9"/><path class="cls-14" d="M77.05,52.61c-3.6,12.6-2.11,10.5-2.11,10.5"/><path class="cls-14" d="M86.7,52.61c-3.6,12.6-2.11,10.5-2.11,10.5"/><path class="cls-14" d="M97.73,52.61c-3.59,12.6-2.1,10.5-2.1,10.5"/><path class="cls-14" d="M108.78,53.73c-3.59,12.59-2.1,10.5-2.1,10.5"/><path class="cls-14" d="M118.69,54.87c-3.59,12.59-2.1,10.5-2.1,10.5"/><path class="cls-14" d="M129.83,56.84c-3.6,12.6-2.11,10.51-2.11,10.51"/><path class="cls-14" d="M140.71,60.18c-3.59,12.6-2.1,10.51-2.1,10.51"/><path class="cls-14" d="M148.94,62.12c-3.16,12.71-1.74,10.57-1.74,10.57"/><path class="cls-14" d="M154.87,64.15c-2.61,12.84-1.8,7.79-1.8,7.79"/><path class="cls-14" d="M160.17,65.42c-2.46,12.86-1.33,7.87-1.33,7.87"/><path class="cls-13" d="M127.23,118l2.28-20.62s25.19-1.8,33.51-12a1.44,1.44,0,0,1,2-.21c2.45,2.09,7.27,8.06,5.85,17.89a3.93,3.93,0,0,1-2,2.87C163.34,109.12,145.73,118.08,127.23,118Z"/><path class="cls-13" d="M50.12,85.29s-5.83-1.61-7.49,3.11c-2.58,7.3-5.32,15.26,2.56,17Z"/><path class="cls-15" d="M64.7,126.31a25.61,25.61,0,0,1-12.85-5.07c-5-3.94-7.88-11.17-7.35-18.43.61-8.3,5.3-15.35,13.2-19.86,8.52-4.86,25.55-3.85,34.94-2.81,8.93,1,17.85,2.75,21.19,4.2,8.55,3.68,13.33,8.27,16.56,16.94,2.68,7.19,1.43,10.24-1.5,15.56-2.8,5.07-5.76,9.33-12.58,10.91a17,17,0,0,1-6.42.75h0c-7.08-.78-15-3.13-18-8.17-1.34-2.2-2.74-3.49-4-3.62-1.52-.17-3.76,1.35-6.15,4.18C78.2,125.07,71.83,127.09,64.7,126.31ZM91.94,86.49c-14.39-1.59-25.94-.85-30.89,2-8.09,4.61-9.73,11.27-10,14.83-.38,5.15,1.59,10.37,4.9,13A18.81,18.81,0,0,0,65.4,120c4.85.53,9.16-.68,11.26-3.16,4-4.71,8-6.88,11.93-6.44,3.41.37,6.4,2.64,8.89,6.73,1.78,2.93,7,6.32,12.58,6.94h0a14.4,14.4,0,0,0,4.85-.24c5-1.15,8.59-3.57,10.48-7,2-3.68,2-8.49,0-13.92-2.46-6.58-6.88-9.54-14.19-12.69C109.25,89.33,101.77,87.58,91.94,86.49Z"/><path class="cls-16" d="M93.36,115.45a14.71,14.71,0,0,0,3.49,3.74c9.38-8.36,18.37-17.21,28-25.29-3-4.5-7.36-7.2-13.63-9.91a33.16,33.16,0,0,0-5-1.44c-15.18,11.9-29.91,24.35-44.47,37,6.24,1.21,12.79-.08,16.1-4C85.41,106.71,90.33,110.47,93.36,115.45Z"/><path class="cls-17" d="M127.18,98.53a23,23,0,0,0-2.33-4.63c-9.63,8.08-18.62,16.93-28,25.29a23.38,23.38,0,0,0,6,3.37c8.32-7.39,16.67-14.75,25-22.19C127.61,99.76,127.41,99.15,127.18,98.53Z"/><path class="cls-16" d="M102.84,122.56a20,20,0,0,0,11.56,1.07c11.19-2.59,17.08-11.14,13.39-23.26C119.51,107.81,111.16,115.17,102.84,122.56Z"/><path class="cls-17" d="M86.8,79.65c-1.3,1.27-2.58,2.55-3.94,3.75-10.59,10.69-20.9,21.07-31.43,31a13,13,0,0,0,1.18,1.06,21.61,21.61,0,0,0,9.19,4.08c14.56-12.67,29.29-25.12,44.47-37A144.35,144.35,0,0,0,86.8,79.65Z"/><path class="cls-17" d="M79.43,79.24c-2.2-.06-4.36,0-6.45,0C64.9,88.92,56.15,98,47.18,106.82A19.39,19.39,0,0,0,49,111.27C59.59,101,69.67,90.32,79.43,79.24Z"/><path class="cls-16" d="M58.08,82.45C47.33,88.57,45,98.9,47.18,106.82,56.15,98,64.9,88.92,73,79.28,66.94,79.53,61.55,80.46,58.08,82.45Z"/><path class="cls-16" d="M79.43,79.24C69.67,90.32,59.59,101,49,111.27a15.94,15.94,0,0,0,2.4,3.16c10.53-10,20.84-20.34,31.43-31,1.36-1.2,2.64-2.48,3.94-3.75C84.35,79.44,81.87,79.3,79.43,79.24Z"/><path class="cls-18" d="M63.41,123A25.47,25.47,0,0,1,50.55,118c-5-3.93-7.87-11.16-7.34-18.43.61-8.29,5.29-15.34,13.19-19.85,8.53-4.87,25.55-3.85,34.94-2.82,8.94,1,17.85,2.76,21.2,4.2,8.54,3.69,14.49,7.72,17.72,16.38,2.69,7.19,2.55,13.8-.38,19.12-2.8,5.07-7.88,8.59-14.71,10.17a21,21,0,0,1-7.1.38h0c-7.08-.78-14.45-5-17.52-10.06-1.34-2.2-2.74-3.48-3.94-3.62-1.53-.16-3.77,1.36-6.16,4.18C76.9,121.8,70.53,123.83,63.41,123ZM90.64,83.23c-14.39-1.59-25.93-.85-30.89,2C51.66,89.82,50,96.48,49.76,100c-.38,5.16,1.59,10.38,4.9,13a18.67,18.67,0,0,0,9.45,3.68c4.84.54,9.15-.67,11.25-3.15,4-4.71,8-6.88,11.94-6.45,3.4.38,6.39,2.65,8.88,6.74,1.78,2.92,7,6.32,12.59,6.94h0a14.17,14.17,0,0,0,4.85-.25c5-1.14,8.58-3.57,10.47-7,2-3.68,2-8.49,0-13.92-2.46-6.58-6.88-9.53-14.18-12.69C108,86.07,100.47,84.31,90.64,83.23Z"/><path class="cls-19" d="M78.06,145.58s4.17-6.56.73-19.38,5.68-2.71,5.68-2.71,10.69.86,11.69.57,3.64,2.65,3.75,2.65-2.33,5.93-2.33,5.93S97.58,144.3,78.06,145.58Z"/><path class="cls-4" d="M105.56,127.26c-14.15-3.55-15.59-10-16.92-11.82a3.92,3.92,0,0,0-2.76-1.59,89.85,89.85,0,0,0-31.19,2.24s19.24,8,26.44,13.1,14.17,3.28,17.31-.71c0,0-4.13,15.53-20.38,17.1,0,0,20.32,4.18,27.5-18.32"/><path class="cls-10" d="M86.87,115.46s-19.85-1.58-28,.89a46.14,46.14,0,0,1,14.71,6.38c6.89,4.73,15.06,10,19.21,7.82s4-5.43,4-5.43S87.59,122.05,86.87,115.46Z"/><path class="cls-18" d="M137.55,103.37a24.32,24.32,0,0,0,3.54-.48c1.16-.21,2.3-.5,3.43-.8q3.4-.91,6.7-2.16c2.23-.77,4.39-1.72,6.6-2.59,1.08-.48,2.18-.93,3.29-1.38s2.2-.94,3.36-1.34c-.93.78-1.91,1.49-2.89,2.2s-2,1.31-3.08,1.92-2.13,1.15-3.23,1.67-2.22,1-3.36,1.39-2.31.77-3.49,1.1a33.53,33.53,0,0,1-3.59.72c-.6.08-1.22.14-1.82.19s-1.23.07-1.84,0A12.6,12.6,0,0,1,137.55,103.37Z"/><path class="cls-18" d="M136.24,107.76a24.53,24.53,0,0,0,3.55-.34c1.17-.17,2.32-.41,3.47-.66,2.28-.53,4.55-1.16,6.77-1.91s4.45-1.54,6.69-2.33c1.11-.43,2.23-.84,3.35-1.25s2.24-.86,3.4-1.21c-.95.74-2,1.41-3,2.09s-2.08,1.23-3.15,1.8-2.18,1.06-3.3,1.54-2.25.89-3.41,1.26-2.34.68-3.53,1a36.36,36.36,0,0,1-3.62.57c-.6.06-1.22.1-1.83.13s-1.22,0-1.83,0A12.84,12.84,0,0,1,136.24,107.76Z"/></g></g></g></svg>