<svg xmlns="http://www.w3.org/2000/svg" xmlns:xlink="http://www.w3.org/1999/xlink" viewBox="0 0 198.95 257.17"><defs><style>.cls-1{isolation:isolate;}.cls-2,.cls-9{fill:#231f20;}.cls-2{opacity:0.3;}.cls-10,.cls-2,.cls-9{mix-blend-mode:soft-light;}.cls-3{fill:#f4b008;}.cls-4{fill:#0f3c47;}.cls-5,.cls-6{fill:#3f616f;}.cls-5{stroke:#000;stroke-miterlimit:10;stroke-width:2px;}.cls-7{fill:#e6e7e8;}.cls-8{fill:#193441;}.cls-10{fill:#fff;}.cls-11{fill:#f4cb1c;}.cls-12{opacity:0.3;mix-blend-mode:multiply;}.cls-13{fill:#1e0707;}.cls-14{fill:#f6d433;}.cls-15{fill:#efc929;}.cls-16{fill:url(#Laranja_Amarelo);}.cls-17{fill:url(#Laranja_Amarelo-2);}.cls-18{fill:url(#Laranja_Amarelo-3);}.cls-19{fill:#262262;opacity:0.8;}.cls-20{fill:url(#Laranja_Amarelo-4);}.cls-21{fill:url(#Laranja_Amarelo-5);}.cls-22{fill:#fffaef;opacity:0.45;}.cls-23{fill:#a73e5c;}</style><linearGradient id="Laranja_Amarelo" x1="63.06" y1="60.82" x2="86.31" y2="60.82" gradientTransform="translate(1.67 -2.56) rotate(1.33)" gradientUnits="userSpaceOnUse"><stop offset="0" stop-color="#fff33b"/><stop offset="0.04" stop-color="#fee72e"/><stop offset="0.12" stop-color="#fed51b"/><stop offset="0.2" stop-color="#fdca10"/><stop offset="0.28" stop-color="#fdc70c"/><stop offset="0.67" stop-color="#f3903f"/><stop offset="0.89" stop-color="#ed683c"/><stop offset="1" stop-color="#e93e3a"/></linearGradient><linearGradient id="Laranja_Amarelo-2" x1="127.58" y1="50.06" x2="152.37" y2="50.06" xlink:href="#Laranja_Amarelo"/><linearGradient id="Laranja_Amarelo-3" x1="99.85" y1="60.89" x2="115.16" y2="60.89" gradientTransform="matrix(0.94, 0.03, -0.01, 1, 8.26, -3.45)" xlink:href="#Laranja_Amarelo"/><linearGradient id="Laranja_Amarelo-4" x1="67.11" y1="73.16" x2="108.2" y2="73.16" xlink:href="#Laranja_Amarelo"/><linearGradient id="Laranja_Amarelo-5" x1="111.88" y1="65.84" x2="152.96" y2="65.84" xlink:href="#Laranja_Amarelo"/></defs><title>3_sun</title><g class="cls-1"><g id="Layer_2" data-name="Layer 2"><g id="OBJECTS"><path class="cls-2" d="M87.2,215.21s-52.19-3.33-68.05,10,17.36,35.14,93.09,31.57,52.33-23.55,79.36-27S168.3,208,87.2,215.21Z"/><path class="cls-2" d="M91.07,219.13s-42-2.68-54.82,8.06,14,28.3,75,25.43,42.16-19,63.93-21.76S156.41,213.33,91.07,219.13Z"/><path class="cls-3" d="M141.09,230.29,159,241.69s-18.44-5.41-27.56,7.13l-6.27-13.68Z"/><path class="cls-3" d="M83,235.64,71.27,251.38s-11.19-10.6-26.4-10.44l17.85-12.27Z"/><path class="cls-4" d="M162.89,102.41S174.43,99.85,177,91.3a49.11,49.11,0,0,0,2.35-14.36s.85-4.24,6-3,6.63,9.27,6.2,19.81S180,122.07,166.1,126.56,162.89,102.41,162.89,102.41Z"/><path class="cls-5" d="M26.12,184.85c-4.82-29.84-8.65-76.71,4-118.57A62.59,62.59,0,0,1,85,22.1c2.76-.22,5.61-.38,8.51-.45a62.67,62.67,0,0,1,60.62,42.27,362.68,362.68,0,0,1,19.71,112.44,62.66,62.66,0,0,1-60,63.41l-2.24.07a142.83,142.83,0,0,1-39.67-4.34A62.6,62.6,0,0,1,26.12,184.85Z"/><path class="cls-6" d="M37.36,108.6S26.81,106.33,22,99.2,13.42,76.76,6.87,79.14-1.68,91,1.45,105.79s18.24,22.75,27.08,25.32S39.92,118.28,37.36,108.6Z"/><path class="cls-7" d="M105.75,47.34s-9.4-14.82-22.51-12.82-22.51,41.6-17.1,63.55c0,0-29.35,23.36-19.09,74.37s53.86,66.4,87.77,49.87,39-92.11,15.39-122.57c0,0,4.27-23-7.27-45.56S112.88,22.83,105.75,47.34Z"/><path class="cls-8" d="M88,67c1,5,3.51,8.78,5.65,8.37s3.09-4.83,2.12-9.87-3.51-8.79-5.65-8.37S87,62,88,67Z"/><path class="cls-8" d="M119.59,64.66c1,4.9,3.46,8.53,5.6,8.12s3.12-4.73,2.17-9.63-3.46-8.53-5.6-8.12S118.64,59.76,119.59,64.66Z"/><path class="cls-9" d="M2.31,87.72S.22,102.79,5.6,112.12s13.16,15.33,21.63,15.58,5.89-4.5,5-5.54S4.39,115.24,2.31,87.72Z"/><path class="cls-9" d="M188.52,81.36s7.37,24.29-18.29,40.79l-1.93-12.09s19.29-10.9,16.14-29.45C184.44,80.61,185.57,76.36,188.52,81.36Z"/><path class="cls-10" d="M5.3,83.82s.08-2.68,4.27-1.57,8.21,23.34,26.51,27.07v3.56S12.28,111.46,5.3,83.82Z"/><path class="cls-10" d="M180.63,77s0-2,2.78-2.35,5.91,2,4.34,2.85-5-.43-5.48,1,1.21,11-5.49,19.31c0,0-6.48,6.27-9.47,8.12l-1.14-3.42s9.47-2.85,12-11.54S180.63,77,180.63,77Z"/><path class="cls-10" d="M58.11,31.79c4.36-1.26,12.62-8.27,34-9.17,16.79-.71,27.54,5,35.49,9.5.1.06.21.09.31.14.88.46,4.86,2.76,1.94,5.31-3.16,2.76-73.62,8.66-73.41-4.06A2.08,2.08,0,0,1,58.11,31.79Z"/><path class="cls-9" d="M165,130.61a377.6,377.6,0,0,1,4.89,40.91c2,32.55-22.6,60.92-55.17,62.87q-3.12.2-6.47.19c-5,0-9.71-.25-14.17-.69-33.67-3.36-59.78-22.49-66-62.75A207.38,207.38,0,0,1,25.44,140s44.49,53.66,91.29,48.74S165,130.61,165,130.61Z"/><path class="cls-11" d="M40,28.94l.9-1.26C46.33,20,59,2,89.74.37h.08l.6,0,.66,0h.08c31.86-2.69,49,15.19,54.68,21.06l.29.31c6,6.19,6.76,23.75,6.83,25.73l-1.33,0v.05l-5.35.17c-.24-6.6-1.86-18.37-5.2-21.84l-.3-.31c-5.77-6-21.1-21.93-50.57-19.43h-.08l-1.27.08C62.5,8.43,51.36,24.2,46.52,31c-.34.49-.66.93-.94,1.32-2.8,3.84-2.2,16.55-1.16,23.66l-5.29.83a.5.5,0,0,1,0-.12l-1.32.21C37.48,54.81,34.9,35.94,40,28.94Z"/><g class="cls-12"><path class="cls-13" d="M150.1,40.36c.78-1.51,2.79-2.17,4.38,1.7,1.47-4.24,4.6-3.39,6.64,2.85,3.35-.47,7.46,8.23,4.39,10.49,2.52,4.82,5.7,12.56,1.12,12.18,3.09,6.52.86,10.39-2.84,7.83-.14,4.44-2.37,8.3-5.65,3.11-2.71,3.39-9-1.44-10.31-9.18-4-2.47-6.11-9.93-3.69-13.23-3.1-4.63-2.82-11.46-2.2-14.28.81-3.65,4.5-7.81,8.16-1.47"/></g><path class="cls-14" d="M152.1,39.36c.78-1.51,2.79-2.17,4.38,1.7,1.47-4.24,4.6-3.39,6.64,2.85,3.35-.47,7.46,8.23,4.39,10.49,2.52,4.82,5.7,12.56,1.12,12.18,3.09,6.52.86,10.39-2.84,7.83-.14,4.44-2.37,8.3-5.65,3.11-2.71,3.39-9-1.44-10.31-9.18-4-2.47-6.11-9.93-3.69-13.23-3.1-4.63-2.82-11.46-2.2-14.28.81-3.65,4.5-7.81,8.16-1.47"/><g class="cls-12"><path class="cls-13" d="M39.4,49.75c1.54-1.34,4.44-1.63,5.26,2.49,3.37-3.93,7.27-2.52,7.91,4,4.62.15,7.2,9.48,2.36,11.15,1.76,5.22,3.41,13.45-2.56,12.24,1.94,7-2.32,10.42-6.39,7.22-1.66,4.36-5.92,7.78-8.57,2C32.67,91.77,25.83,85.85,26.72,78c-4.49-3.15-4.84-10.91-.52-13.73-2.59-5.14.06-11.83,1.83-14.51,2.29-3.46,8.6-6.89,11.37,0"/></g><path class="cls-14" d="M37.4,46.75c1.54-1.34,4.44-1.63,5.26,2.49,3.37-3.93,7.27-2.52,7.91,4,4.62.15,7.2,9.48,2.36,11.15,1.76,5.22,3.41,13.45-2.56,12.24,1.94,7-2.32,10.42-6.39,7.22-1.66,4.36-5.92,7.78-8.57,2C30.67,88.77,23.83,82.85,24.72,75c-4.49-3.15-4.84-10.91-.52-13.73-2.59-5.14.06-11.83,1.83-14.51,2.29-3.46,8.6-6.89,11.37,0"/><path class="cls-15" d="M86.42,177.32a1,1,0,0,0,.64.8l8.86,3.31-3.65,9.63a1.16,1.16,0,0,0,.12,1.07.89.89,0,0,0,.88.42l9.27-1.27.38,10.45a1.09,1.09,0,0,0,.52.91.88.88,0,0,0,1,0l7.89-5.61,4.35,9a1,1,0,0,0,.81.58h0a1,1,0,0,0,.81-.5l5-8.56,7.47,6.27a.89.89,0,0,0,1,.13,1.07,1.07,0,0,0,.57-.86l1.11-10.39,9.16,2.07a.9.9,0,0,0,.91-.34,1.19,1.19,0,0,0,.19-1.05l-3-9.92,9.06-2.53a1,1,0,0,0,.69-.74,1.19,1.19,0,0,0-.23-1.05l-6.48-7.53,7.22-6.63a1.19,1.19,0,0,0,.34-1,1.06,1.06,0,0,0-.61-.83l-8.74-3.69,4-9.47a1.19,1.19,0,0,0-.07-1.07,1,1,0,0,0-.87-.46l-9.31.87,0-10.46a1.14,1.14,0,0,0-.48-.94.86.86,0,0,0-1,0l-9.28,6-5.35-10.4a1,1,0,0,0-.84-.54.94.94,0,0,0-.83.54l-4.67,9.06-7.68-6a.88.88,0,0,0-1-.08,1.08,1.08,0,0,0-.55.88l-.75,10.43-9.21-1.67a.91.91,0,0,0-.9.38A1.17,1.17,0,0,0,93,147.6l3.32,9.78-9,2.92a1,1,0,0,0-.66.78,1.16,1.16,0,0,0,.26,1l6.74,7.24-7,7A1.17,1.17,0,0,0,86.42,177.32Z"/><ellipse class="cls-14" cx="119.06" cy="169.56" rx="19.78" ry="22.27"/><path class="cls-16" d="M69.17,67.23,64,63.53l-.71-5.23s12.23-5.37,23.39-5.45C86.72,52.85,72.79,56.12,69.17,67.23Z"/><path class="cls-17" d="M148.86,56.26l4-4.93-.71-5.23s-13.21-1.94-24,.95C128.13,47.05,142.43,46.5,148.86,56.26Z"/><path class="cls-18" d="M113.51,63.65s-4.62-3.37-8.08,1.09l-4.33-5.91,14.38-1.94Z"/><ellipse class="cls-19" cx="87.67" cy="73.17" rx="19.36" ry="19.71" transform="translate(-8.99 12.38) rotate(-7.68)"/><path class="cls-20" d="M90.39,93.33a20.9,20.9,0,1,1,17.55-23.46A20.74,20.74,0,0,1,90.39,93.33ZM85.12,54.27a18.52,18.52,0,1,0,20.5,15.92A18.38,18.38,0,0,0,85.12,54.27Z"/><ellipse class="cls-19" cx="132.6" cy="66.88" rx="19.36" ry="19.71" transform="translate(-7.75 18.33) rotate(-7.68)"/><path class="cls-21" d="M135.32,87.05a20.9,20.9,0,1,1,17.55-23.46A20.75,20.75,0,0,1,135.32,87.05ZM130.05,48a18.52,18.52,0,1,0,20.5,15.92A18.37,18.37,0,0,0,130.05,48Z"/><path class="cls-22" d="M98.25,64.69S97.37,57,87.53,57.34C82.06,57.5,95.84,71.29,98.25,64.69Z"/><path class="cls-22" d="M145.19,58.36s-.88-7.65-10.72-7.36C129,51.17,142.77,65,145.19,58.36Z"/><path class="cls-23" d="M122,113.38s-4.17-6.56-.73-19.38-5.69-2.7-5.69-2.7-10.68.85-11.68.57-4.92,1-5,1,3.6,7.59,3.6,7.59S102.45,112.1,122,113.38Z"/><path class="cls-3" d="M103.3,89.73c5.61-2.23,9-7.84,9-7.84a88.58,88.58,0,0,1,33.05,2S126.1,91.87,118.9,97s-14.17,3.27-17.31-.72c0,0,4.13,15.53,20.38,17.1,0,0-15.91,3.27-24.55-11.56a7.58,7.58,0,0,1,2-10A17.19,17.19,0,0,1,103.3,89.73Z"/><path class="cls-10" d="M113.57,82.53s19.44-.84,27.57,1.63a46,46,0,0,0-14.71,6.37c-6.89,4.73-15.07,10-19.21,7.82s-4.65-7-4.65-7S112.85,89.13,113.57,82.53Z"/></g></g></g></svg>