<?xml version="1.0" encoding="utf-8"?>
<!-- Generator: Adobe Illustrator 22.1.0, SVG Export Plug-In . SVG Version: 6.00 Build 0)  -->
<svg version="1.1" id="Layer_1" xmlns="http://www.w3.org/2000/svg" xmlns:xlink="http://www.w3.org/1999/xlink" x="0px" y="0px"
	 viewBox="0 0 113.3 109.3" style="enable-background:new 0 0 113.3 109.3;" xml:space="preserve">
<style type="text/css">
	.st0{opacity:0.25;fill:#F38F31;}
	.st1{enable-background:new    ;}
	.st2{fill:#F38F31;}
</style>
<ellipse id="Ellipse_1081" transform="matrix(0.766 -0.6428 0.6428 0.766 -21.886 49.1927)" class="st0" cx="56.6" cy="54.7" rx="47.5" ry="31.5"/>
<g class="st1">
	<path class="st2" d="M70.3,59.7c0,0.7-0.4,1.1-1.1,1.1c0.3,0-0.4-0.1-2.2-0.3c-1.6-0.2-3.4-0.3-5.4-0.5c0,1.2,0.1,2.3,0.1,3.5
		c0.1,1.4,0.4,2.5,0.9,3.4c0.3,0.6,0.5,1,0.5,1.2c0,0.4-0.2,1-0.8,1.8c-0.6,0.3-1.1,0.4-1.7,0.4s-1-0.1-1.5-0.4
		c-1.3,0-1.9-1.5-1.9-4.6c0-0.4,0-1.1,0.1-2c0.1-0.9,0.1-1.5,0.1-2c0-0.1,0-0.3,0.1-0.6c0-0.2,0.1-0.4,0.1-0.5
		c-1.4,0-3.5,0.2-6.3,0.6c-2.8,0.4-5,0.6-6.5,0.6c-1.1,0-2.4-0.4-3.8-1.3c-1.6-1-2.4-2-2.4-3c0-1.2,1-2.8,3.1-4.7
		c1.6-1.3,3.1-2.5,4.6-3.8c2.5-2,6-5.1,10.7-9.4c0.8-0.9,1.5-1.8,2.3-2.7c0.9-1,1.9-1.5,3.1-1.5c0.8,0,1.5,0.3,2.1,0.8
		s0.9,1.2,0.9,1.9c0,0.5-0.1,1.1-0.4,1.8l-0.5,1.7c-0.1,0.5-0.6,3.3-1.4,8.2C62.3,53,62,55.2,62,56.1c0.5-0.2,1.3-0.2,2.4-0.2
		c2.9,0,4.8,0.7,5.8,2L70.3,59.7z M58.8,43.2c-2.3,1.6-5.2,3.7-8.5,6.5c-4.3,3.6-6.5,6-6.5,7c0,0.3,0.2,0.5,0.7,0.5l0.3,0l12.7-1
		L58.8,43.2z"/>
</g>
</svg>
