<svg xmlns="http://www.w3.org/2000/svg" viewBox="0 0 13.67 20">
  <defs>
    <style>
      .cls-1 {
        fill: #3c3c3c;
      }
    </style>
  </defs>
  <g id="address_flag" transform="translate(-81.017)">
    <g id="Group_1771" data-name="Group 1771" transform="translate(81.017)">
      <path id="Path_641" data-name="Path 641" class="cls-1" d="M91.985,6.937l2.611-3.5a.461.461,0,0,0-.37-.737H82.985V2.111a1.106,1.106,0,1,0-.922,0V19.078h-.584a.461.461,0,1,0,0,.922h2.091a.461.461,0,1,0,0-.922h-.585v-7.92H94.21a.461.461,0,0,0,.37-.737ZM82.524,1.382a.276.276,0,1,1,.276-.276A.276.276,0,0,1,82.524,1.382Zm.461,8.853h0V8.7h1.47a.461.461,0,1,0,0-.922h-1.47V6.076h2.3a.461.461,0,1,0,0-.922h-2.3V3.622H93.307L91.04,6.661a.461.461,0,0,0,0,.551l2.251,3.023H82.985Z" transform="translate(-81.017)"/>
    </g>
  </g>
</svg>
