<svg xmlns="http://www.w3.org/2000/svg" viewBox="0 0 38 33">
  <defs>
    <style>
      .cls-1 {
        fill: #fff;
      }
    </style>
  </defs>
  <g id="alert" transform="translate(0 -38.365)">
    <g id="Group_2347" data-name="Group 2347" transform="translate(0 38.365)">
      <path id="Path_2288" data-name="Path 2288" class="cls-1" d="M37.666,67.759,20.994,39.515a2.3,2.3,0,0,0-3.988,0L.334,67.759a2.423,2.423,0,0,0-.033,2.4,2.32,2.32,0,0,0,2.027,1.209H35.672A2.32,2.32,0,0,0,37.7,70.156,2.423,2.423,0,0,0,37.666,67.759ZM19.013,48.135a1.589,1.589,0,0,1,1.768,1.53c0,2.984-.344,7.273-.344,10.257,0,.777-.835,1.1-1.424,1.1-.786,0-1.448-.326-1.448-1.1,0-2.984-.344-7.273-.344-10.257A1.585,1.585,0,0,1,19.013,48.135Zm.025,18.483A1.932,1.932,0,1,1,20.9,64.687,1.941,1.941,0,0,1,19.037,66.618Z" transform="translate(0 -38.365)"/>
    </g>
  </g>
</svg>
