<svg xmlns="http://www.w3.org/2000/svg" viewBox="0 0 11 13">
  <defs>
    <style>
      .cls-1 {
        fill: #fff;
      }
    </style>
  </defs>
  <g id="down-arrow_6_" data-name="down-arrow (6)" transform="translate(43.305 13) rotate(180)">
    <g id="Group_4535" data-name="Group 4535" transform="translate(32.304)">
      <path id="Path_8314" data-name="Path 8314" class="cls-1" d="M43.284,7.207a.263.263,0,0,0-.242-.167H40.169V.271A.267.267,0,0,0,39.907,0H35.712a.267.267,0,0,0-.262.271V7.039H32.566a.263.263,0,0,0-.242.167.278.278,0,0,0,.057.3l5.23,5.419a.257.257,0,0,0,.371,0L43.227,7.5A.277.277,0,0,0,43.284,7.207Z" transform="translate(-32.304)"/>
    </g>
  </g>
</svg>
