<?xml version="1.0" encoding="UTF-8" standalone="no"?>
<!-- Svg Vector Icons : http://www.onlinewebfonts.com/icon -->

<svg
   xmlns:dc="http://purl.org/dc/elements/1.1/"
   xmlns:cc="http://creativecommons.org/ns#"
   xmlns:rdf="http://www.w3.org/1999/02/22-rdf-syntax-ns#"
   xmlns:svg="http://www.w3.org/2000/svg"
   xmlns="http://www.w3.org/2000/svg"
   xmlns:sodipodi="http://sodipodi.sourceforge.net/DTD/sodipodi-0.dtd"
   xmlns:inkscape="http://www.inkscape.org/namespaces/inkscape"
   version="1.1"
   x="0px"
   y="0px"
   viewBox="0 0 512 512"
   enable-background="new 0 0 1000 1000"
   xml:space="preserve"
   id="svg74"
   sodipodi:docname="browser_hub.svg"
   width="512"
   height="512"
   inkscape:version="0.92.4 (33fec40, 2019-01-16)"><defs
   id="defs78" /><sodipodi:namedview
   pagecolor="#ffffff"
   bordercolor="#666666"
   borderopacity="1"
   objecttolerance="10"
   gridtolerance="10"
   guidetolerance="10"
   inkscape:pageopacity="0"
   inkscape:pageshadow="2"
   inkscape:window-width="1920"
   inkscape:window-height="1016"
   id="namedview76"
   showgrid="false"
   inkscape:zoom="0.834"
   inkscape:cx="500"
   inkscape:cy="452.03837"
   inkscape:window-x="1920"
   inkscape:window-y="27"
   inkscape:window-maximized="1"
   inkscape:current-layer="svg74" />
<metadata
   id="metadata64"> Svg Vector Icons : http://www.onlinewebfonts.com/icon <rdf:RDF><cc:Work
     rdf:about=""><dc:format>image/svg+xml</dc:format><dc:type
       rdf:resource="http://purl.org/dc/dcmitype/StillImage" /><dc:title></dc:title></cc:Work></rdf:RDF></metadata>
<g
   id="g72"
   transform="matrix(0.49956141,0,0,0.49956141,5.005637,4.1091499)"
   style="fill:#aaaaaa"><g
     transform="matrix(0.1,0,0,-0.1,0,511)"
     id="g70"
     style="fill:#aaaaaa"><path
       d="M 4637.4,4936.3 C 2917.2,4848.2 1331.3,3826.2 573.6,2317.4 355.6,1883.5 227.8,1489.2 139.7,984.8 86.8,678.6 86.8,-72.5 139.7,-380.8 c 174,-1004.4 621.1,-1856.8 1350.2,-2568.3 784.1,-762.1 1812.7,-1242.3 2920.6,-1361.2 259.9,-28.6 832.6,-30.8 832.6,-4.4 0,17.6 -74.9,398.7 -99.1,500 -8.8,44.1 -26.4,46.3 -389.9,59.5 -612.3,22 -1160.8,158.6 -1733.4,436.1 l -275.3,132.2 77.1,37.4 c 105.7,52.9 105.7,116.8 0,400.9 -107.9,288.6 -114.5,370 -28.7,462.5 44.1,48.5 103.5,77.1 235.7,110.1 231.3,61.7 363.4,134.4 544,306.1 105.7,96.9 171.8,185 226.9,293 118.9,237.9 101.3,326 -66.1,326 -279.7,0 -579.3,152 -892.1,453.7 -127.7,123.4 -266.5,240.2 -306.1,262.2 -174,88.1 -614.5,57.3 -770.9,-55.1 -112.3,-81.5 -328.2,-409.7 -480.2,-724.6 l -123.3,-253.3 -70.5,140.9 C 948,-1140.7 800.4,-684.8 738.8,-325.8 l -13.2,77.1 215.9,105.7 c 482.3,238 909.6,493.4 1013.1,605.8 83.7,90.3 66.1,149.8 -92.5,301.8 l -143.2,136.6 2.2,306.2 c 0,167.4 8.8,385.4 17.6,480.2 13.2,165.2 19.8,178.4 96.9,244.5 44,39.6 204.9,123.3 356.8,185 555.1,233.5 654.2,370 539.6,729.1 -48.5,154.2 -218,471.4 -323.8,612.3 -66.1,85.9 -77.1,70.5 215.9,255.5 506.7,319.2 1064,524 1682.9,621 301.8,46.3 887.6,52.9 1180.6,11 l 211.4,-28.6 37.5,-185 c 81.5,-418.5 237.9,-786.3 385.4,-914.1 44.1,-37.4 169.6,-125.5 277.5,-193.8 110.1,-70.5 365.6,-257.7 570.5,-416.3 202.6,-158.6 411.9,-317.2 462.5,-348 52.9,-33 116.7,-92.5 143.2,-130 127.7,-189.4 279.7,-676.2 304,-982.4 C 7897.2,918.7 7857.6,813 7652.7,544.3 7443.5,264.6 7390.6,183.1 7414.8,161 c 33,-30.8 2099.1,-1257.7 2127.7,-1262.1 30.8,-8.8 92.5,182.8 160.8,502.2 176.2,810.5 105.7,1702.6 -196,2488.9 -497.8,1306.1 -1599.1,2343.6 -2977.9,2801.7 -596.9,200.5 -1202.6,277.6 -1892,244.6 z M 8826.7,1971.6 c 143.2,-304 257.7,-658.6 319.4,-991.2 39.6,-215.8 48.5,-330.4 46.3,-678.4 -2.2,-229.1 -11,-453.8 -22,-495.6 l -19.8,-74.9 -50.7,141 c -103.5,290.8 -259.9,508.8 -513.2,718.1 -204.8,169.6 -275.3,273.1 -354.6,511 -116.7,352.4 -116.7,649.8 2.2,795.1 52.9,63.9 422.9,310.6 467,310.6 8.7,-0.1 65.9,-105.8 125.4,-235.7 z"
       id="path66"
       inkscape:connector-curvature="0"
       style="fill:#aaaaaa" /><path
       d="m 4780.5,1039.9 -55.1,-41.8 561.7,-2797.3 c 308.4,-1539.6 566.1,-2799.5 572.7,-2799.5 6.6,0 253.3,367.8 548.5,815 295.1,449.3 546.2,812.8 555,810.6 8.8,-4.4 251.1,-332.6 539.6,-733.5 286.3,-398.7 557.3,-764.3 601.3,-810.6 312.8,-330.4 843.6,-251.1 960.3,145.4 81.5,277.5 61.7,323.8 -596.9,1240.1 -308.4,431.7 -557.3,788.5 -552.9,792.9 4.4,4.4 449.3,92.5 986.8,196 537.4,103.5 986.8,189.4 997.8,193.8 11,4.4 -127.8,94.7 -308.4,200.4 -180.6,107.9 -1284.1,766.5 -2453.7,1462.5 -1169.5,698.2 -2165,1290.7 -2213.5,1317.2 -85.9,50.6 -88.1,50.6 -143.2,8.8 z"
       id="path68"
       inkscape:connector-curvature="0"
       style="fill:#aaaaaa" /></g></g>
</svg>