<svg xmlns="http://www.w3.org/2000/svg" xmlns:xlink="http://www.w3.org/1999/xlink" width="371" height="225" viewBox="0 0 371 225"><defs><path id="ibjsa" d="M207.256 627.616s7.453-43.393 57.11-70.383c49.806-26.899 219.673-47.647 284.005.644 64.48 48.383-6.744 163.405-74.27 182.472-67.525 19.068-182.977 16.259-223.166-8.113-40.19-24.372-55.864-58.69-43.68-104.62z"/><path id="ibjsb" d="M231.728 649.627s3.441-54.432 42.984-72.43c39.542-18 162.686-40.38 222.115-11.94 59.43 28.44 44.823 82.76 30.447 114.172-14.376 31.413-85.319 48.072-147.617 52.232-62.298 4.161-166.567-14.563-147.93-82.034z"/></defs><g><g transform="translate(-203 -528)"><g opacity=".45"><use fill="#fff" xlink:href="#ibjsa"/></g><g><use fill="#fff" xlink:href="#ibjsb"/></g></g></g></svg>