<?xml version="1.0" encoding="utf-8"?>
<!-- Generator: Adobe Illustrator 22.1.0, SVG Export Plug-In . SVG Version: 6.00 Build 0)  -->
<svg version="1.1" id="Layer_1" xmlns="http://www.w3.org/2000/svg" xmlns:xlink="http://www.w3.org/1999/xlink" x="0px" y="0px"
	 viewBox="0 0 586.5 596.5" style="enable-background:new 0 0 586.5 596.5;" xml:space="preserve">
<style type="text/css">
	.st0{fill:#1D1D1B;}
	.st1{fill:#FFFFFF;}
	.st2{fill:#E2F2F1;}
	.st3{fill:#C6C6C6;}
	.st4{fill:#5B4E45;}
	.st5{opacity:0.26;fill:#B2B2B2;enable-background:new    ;}
	.st6{opacity:0.34;fill:#C6C6C6;enable-background:new    ;}
	.st7{fill:#231F20;}
	.st8{fill:#48A13F;}
	.st9{fill:#3D8F37;}
	.st10{fill:#77BC6F;}
	.st11{fill:#56A050;}
	.st12{fill:#76A52D;}
	.st13{fill:#6E8951;}
	.st14{fill:#D67D1D;}
	.st15{fill:#A9641C;}
	.st16{fill:#F29100;}
	.st17{opacity:0.446;fill:#FFFFFF;enable-background:new    ;}
	.st18{enable-background:new    ;}
	.st19{fill:#4D8289;}
	.st20{fill:#00BCD4;}
</style>
<g id="Group_3194" transform="translate(7840.958 16550.225)">
	<g id="Group_2396_2_" transform="translate(0.042)">
		<path id="Path_2293_2_" class="st0" d="M-7408.2-16236.6c-0.5-19.9-3.9-39.7-10-58.7c-11.8-38.4-32.4-73.1-52.4-107.5
			c-0.6-1,0.5-2.8,1.7-2.3c7.1,2.8,6.5,0.8,7.4-4.6l1.9,0.1c-0.1,3-0.3,6-0.5,9c0,0.8-0.6,1.4-1.4,1.5c-0.2,0-0.3,0-0.5-0.1
			c-1.3-0.5-2.6-0.9-3.7-1.4c23.5,39.8,47.1,80.6,56.8,126.1 M-7468.5-16352.4c-0.1-0.6,0.2-1.1,0.8-1.3c0,0,0,0,0,0
			c0.5-0.1,1.1,0.2,1.3,0.7c16,44.8,24.1,93.1,29.3,140.2"/>
		<path id="Path_2294_2_" class="st1" d="M-7437.1-16212.5c-5.2-47.1-13.3-95.4-29.3-140.2c-0.2-0.6-0.8-0.9-1.3-0.7c0,0,0,0,0,0
			c-0.5,0.2-0.8,0.7-0.7,1.3 M-7713.8-16195.4c3.2-29.1,9.9-57.8,19.8-85.4c11.1-30.9,26-60.3,44.3-87.6c0.3-0.7,0.1-1.6-0.6-2.1
			c-0.3-0.2-0.7-0.2-1-0.1l-6.3,2.1c1.3-5.7,2.6-11.4,3.9-17c0.2-0.7-0.2-1.4-0.8-1.6c-0.1,0-0.1,0-0.2,0c-0.3-0.1-0.6,0-0.9,0.1
			c-1.9,0.9-3.7,2-5.7,2.9c1.7-3.4,2.9-7,3.6-10.7c0.5-0.1,0.8-0.3,1.3-0.5c0.4-0.1,0.8-0.2,1.3-0.2c0.9-36.3,4.5-73.4,23.1-105.3
			c0.3-0.5,0.3-1,0.1-1.5c0.3-0.6,0.1-1.2-0.3-1.6c-5.6-4.2-11-8.6-13.5-15.2c-2.9-7.9-0.8-18.1,8.6-20.4c15-3.7,23.4,12.1,29,22.8
			c0.8,1.5,2.3,1,3,0c0.2,0,0.3,0,0.5-0.1c3-2.4,6.2-4.6,9.5-6.6c7.1-4.4,15-7.4,23.3-8.8c-1.6,3.7-2.8,7.5-3.6,11.5
			c-0.2,1.2,0.8,2.6,2.1,2.1c8.9-3.1,17.9-5.8,26.9-8.3c-2.3,3.3-5.1,6.4-8.1,9c-1,0.9-0.2,3.1,1.3,2.9c7.5-0.8,15.1-1.5,22.6-2.8
			c0.5-0.2,0.9-0.5,1-1c0.6,0.5,1.5,0.3,1.9-0.3c0,0,0-0.1,0.1-0.1c0.1-0.1,0.1-0.1,0.1-0.2c2.3-6.5,5.9-12.4,10.7-17.4
			c5.3-5.6,16.6-12.9,24-6c6.1,5.7,3.5,15.7-1.3,21.1c-4.1,4.6-9.6,7.8-15.1,10.7c-0.1,0.1-0.3,0.2-0.5,0.3
			c-0.1-0.1-0.3-0.3-0.5-0.3c-1.2-0.8-2.6,1-1.5,1.9c32.2,26.6,45.4,55.8,50.5,94c0.3-0.1-0.6,6-0.3,5.9c-0.9,5.5-0.3,7.4-7.4,4.6
			c-1.3-0.5-2.3,1.2-1.7,2.3c20.1,34.4,40.6,69.1,52.4,107.5c6.1,18.9,9.5,38.6,10,58.4 M-7649.4-16183.2
			c0.3-38.6-8.5-80.8,15-114.8c1.3-2-1.9-3.7-3.1-1.9c-14.7,21.3-17.4,47.3-16.8,72.5c0.3,16.4,1.9,32.7,1.4,49.1 M-7468.3-16254.2
			c-6.7-27.1-14.6-56.1-37.5-74.1c-19.3-15.1-44.4-20.6-68.2-15c-0.6-0.5-1.4-0.5-2.1-0.1c-42.9,25.7-50,85-50.8,130.3
			 M-7497.3-16525.8c2.9-3.2,4.2-8.8,0.5-12.1c-10.1-9-21.6,12.1-25.6,18c-0.2,0.3-0.2,0.7,0,0.9c-0.8,0.3-1.3,1.3-0.5,2
			c1.1,1.1,2.2,2,3.5,2.8c0.3,0.2,0.7,0.2,0.9,0c0.4,0.1,0.8,0.1,1.2-0.1C-7510.7-16516.9-7502.1-16520.3-7497.3-16525.8
			L-7497.3-16525.8z M-7524.1-16408.5c5-9,2.3-20.6-7.2-25.3c-0.5-0.2-1-0.2-1.5,0c0.1-1,0.1-2-0.1-3c-2.1-10.6-19.6-7.3-26.8-7.3
			c-5.6,0-22.7-1.4-22.6,8c0.1,1.5,0.5,2.9,1,4.3c-8.4,5.5-15.1,13.8-10.9,24.2c5.5,13.5,21,15.9,33.7,15.2
			C-7545.5-16393.1-7530.7-16396.2-7524.1-16408.5L-7524.1-16408.5z M-7615.9-16513c0.9-0.1,1.3-1.3,1.2-2.1
			c-1.2-6.7-4.4-13.3-9.9-17.6c-3.8-3-9.5-4.5-13.5-0.8c-3.9,3.7-2.3,10.1-0.1,14.3c2.8,5.4,8,9,14,9.9c0.2,0,0.5,0,0.7-0.1
			c0.6,0.4,1.4,0.4,2-0.1C-7620.1-16511.4-7618.1-16512.6-7615.9-16513L-7615.9-16513z"/>
		<path id="Path_2296_2_" class="st0" d="M-7459.6-16409.9C-7460-16409.9-7459.1-16409.9-7459.6-16409.9v0.5l-1.9-0.1
			c-0.3,0.1,0.3,0.1,0,0.2c-5-38.2-18-73.4-50.2-100.1c-1-0.9,0.3-2.7,1.5-1.9c0.1,0.1,0.3,0.2,0.5,0.3c0.1-0.1,0.3-0.3,0.5-0.3
			c5.3-2.9,11-5.9,15.1-10.7c4.8-5.5,7.4-15.4,1.3-21.1c-7.4-7-18.7,0.5-24,6c-4.7,5-8.4,10.9-10.7,17.4c-0.3,0.7-1.1,1-1.8,0.7
			c0,0,0,0-0.1,0c-0.1,0-0.2-0.1-0.2-0.1l-0.3-1.4c3.6-13.7,21.9-37.9,38.4-26.4c6.1,4.3,7.3,12.6,5.2,19.5
			c-2.9,9.2-11.7,14.6-19.7,19c27.6,21.1,40.8,55.9,46.6,89.3C-7459.1-16416.2-7459.9-16412.9-7459.6-16409.9z"/>
		<path id="Path_2297_2_" class="st2" d="M-7622.9-16197.1c-1.5-47.5,3-115.3,48.7-142.9c0.5-0.2,0.8-0.7,0.8-1.2
			c21.5-4.4,43.8,0.1,61.8,12.6c21,14.7,29.7,38.6,36.2,62.4"/>
		<path id="Path_2298_2_" class="st0" d="M-7627-16213.1c0.8-45.3,8-104.6,50.8-130.3c0.6-0.4,1.5-0.4,2.1,0.1
			c23.8-5.6,48.9-0.1,68.2,15c23.1,18,30.8,47,37.6,74.1 M-7475.1-16266.1c-6.5-23.8-15.2-47.7-36.2-62.4
			c-18-12.6-40.3-17.1-61.8-12.6c-0.1,0.5-0.4,0.9-0.8,1.2c-45.6,27.6-50.1,95.3-48.7,142.9"/>
		<path id="Path_2299_2_" class="st0" d="M-7496.7-16537.8c3.6,3.2,2.4,8.8-0.5,12.1c-5,5.5-13.5,8.8-20.1,11.7
			c-0.4,0.2-0.8,0.2-1.2,0.1c-0.3,0.1-0.6,0.1-0.9,0c-1.2-0.9-2.3-1.7-3.5-2.8c-0.5-0.4-0.5-1.1-0.2-1.6c0,0,0,0,0,0
			c0.1-0.2,0.3-0.4,0.6-0.3c-0.2-0.3-0.2-0.7,0-0.9C-7518.3-16525.8-7506.9-16546.9-7496.7-16537.8z M-7500.6-16526.8
			c3.2-2.9,4.8-9.7-1.5-9.9c-4.4-0.1-7.4,4.1-9.9,7.2c-2.9,3.7-5.7,7.4-8.8,11l-0.1,0.1c0.6,0.5,1.1,1,1.6,1.6
			c0.1-0.1,0.1-0.1,0.2-0.1c0.1-0.1,0.2-0.1,0.3-0.2c0.1-0.1,0.3-0.1,0.5-0.2c4.2-1.9,8.3-3.9,12.3-6.1
			C-7504.1-16524.4-7502.3-16525.5-7500.6-16526.8L-7500.6-16526.8z"/>
		<path id="Path_2300_2_" class="st2" d="M-7502.1-16536.8c6.3,0.1,4.8,7,1.5,9.9c-1.6,1.3-3.3,2.5-5.2,3.4c-4,2.3-8.1,4.3-12.3,6.1
			c-0.2,0-0.4,0.1-0.5,0.2c-0.1,0.1-0.2,0.1-0.3,0.2c-0.1,0-0.1,0.1-0.2,0.1c-0.5-0.6-1-1.1-1.6-1.6l0.1-0.1c3-3.6,5.8-7.4,8.8-11
			C-7509.6-16532.7-7506.5-16536.9-7502.1-16536.8z"/>
		<path id="Path_2301_2_" class="st0" d="M-7531.2-16433.8c9.5,4.6,12.2,16.2,7.2,25.3c-6.7,12.2-21.5,15.3-34.2,16
			c-12.8,0.7-28.3-1.7-33.7-15.2c-4.3-10.6,2.6-18.8,10.9-24.2c-0.7-1.3-1.1-2.8-1-4.3c-0.1-9.4,16.9-8,22.6-8
			c7.1,0,24.7-3.1,26.8,7.3c0.2,1,0.3,2,0.1,3C-7532.2-16434-7531.7-16434-7531.2-16433.8z M-7531-16405c7.5-7.4,8.6-20.3-2-25.6
			c-0.2-0.1-0.3-0.2-0.5-0.3c-3.4,8.1-16.4,13.8-22.1,17.7c-0.6,0.5-1.4,0.5-2,0c0.1,1.2,0.1,2.3,0.2,3.6c0,1.3,3.8-0.1,3.7,1
			c3.2-0.3,2.9,1.2,5.7-0.6c1.6-1,6.4,4.5,4.9,5.6c-7.5,5.3-21.9,2-28.9-4.2c-0.7-0.6,0.2-1.6,0.9-1.2c3.4,2.1,5.6-2,9.5-2
			c-0.1-1.3,1.9,2.7,1.9,1.4c0.1-1.4,0.1-2.9,0.2-4.3c-5.9-2.6-16.5-9-20.8-16.2c-7.5,7.5-14.6,16.8-5.3,26.9
			c6.6,7.1,16.8,8.1,25.9,7.7C-7549.7-16396.1-7538.4-16397.8-7531-16405L-7531-16405z M-7539-16429.8c0.5-7.4-1.7-10.9-6.6-10.3
			h-15.4c-3.2,0-7.1-0.5-10.2,0.5c-8,2.3-6.1,6-2.1,11c4.3,5,9.4,9.3,15.2,12.5c0.1-0.2,0.3-0.3,0.6-0.6c3.6-2.4,7.3-4.9,10.9-7.3
			C-7544.7-16425.4-7540.4-16427.5-7539-16429.8L-7539-16429.8z"/>
		<path id="Path_2302_2_" class="st0" d="M-7530.1-16520.4l0.3,1.4c-0.2,0.5-0.5,0.9-1,1c-7.4,1.3-15.1,2-22.6,2.8
			c-1,0-1.7-0.8-1.7-1.7c0-0.4,0.1-0.9,0.5-1.2c3.1-2.6,5.8-5.7,8.1-9c-9,2.6-18.1,5.2-26.9,8.4c-1.3,0.5-2.3-0.9-2.1-2.1
			c0.8-3.9,2-7.8,3.6-11.5c-8.3,1.4-16.2,4.4-23.3,8.8l-1.2-1.7c8.2-5.3,17.3-9,26.9-10.8c0.8-0.2,1.7,0.2,1.9,1.1
			c0,0.1,0,0.1,0,0.2c0.1,0.4,0,0.8-0.1,1.2c-1.6,3.4-2.9,6.9-3.8,10.6c9.4-3.2,18.9-6.1,28.4-8.7c0.9-0.2,1.9,0.4,2.1,1.3
			c0,0,0,0.1,0,0.1c0.1,0.4,0,0.8-0.1,1.2c-2,3.6-4.4,6.9-7.3,9.9c5.7-0.7,11.5-1.5,17.2-1.7
			C-7530.8-16520.9-7530.3-16520.8-7530.1-16520.4z"/>
		<path id="Path_2303_2_" class="st3" d="M-7533-16430.7c10.6,5.2,9.5,18.2,2,25.6c-7.4,7.3-18.7,8.9-28.6,9.4
			c-9.2,0.5-19.3-0.6-25.9-7.7c-9.3-10-2.2-19.4,5.3-26.9c4.3,7.2,14.8,13.7,20.8,16.2c-0.1,1.4-0.1,2.9-0.2,4.3
			c-0.2,0.7-0.2,1.5-0.1,2.2c-3.9-0.1-7.8,0.3-11.2-1.6c-0.7-0.5-1.6,0.6-0.9,1.2c7,6.1,16.7,1.6,25.2,3.7c2-0.3,0-2.6-1.7-2.8
			c-2.9-0.7-5.9-0.9-8.9-0.6c0.1-0.8,0.1-1.5,0.1-2.3c-0.1-1.2-0.1-2.3-0.2-3.6c0.6,0.5,1.4,0.5,2,0c5.8-3.8,18.8-9.6,22.1-17.7
			C-7533.4-16430.9-7533.2-16430.8-7533-16430.7z"/>
		<path id="Path_2304_2_" class="st4" d="M-7545.6-16440.2c4.9-0.6,7.1,2.9,6.6,10.3c-1.4,2.3-5.7,4.4-7.8,5.8
			c-3.6,2.4-7.2,4.9-10.9,7.3c-0.2,0.1-0.4,0.3-0.6,0.6c-5.7-3.4-10.8-7.6-15.2-12.5c-4.1-5-5.9-8.7,2.1-11c3.1-0.9,7-0.5,10.2-0.5
			L-7545.6-16440.2z"/>
		<path id="Path_2306_2_" class="st0" d="M-7596.4-16525.2l1.2,1.7c-3.3,2-6.5,4.2-9.5,6.6c-0.1,0.1-0.3,0.1-0.5,0.1
			c-0.7,1-2.3,1.5-3,0c-5.6-10.8-14-26.6-29-22.8c-9.3,2.3-11.5,12.5-8.6,20.4c2.4,6.7,7.9,11.1,13.5,15.2c0.5,0.4,0.6,1.1,0.3,1.6
			c0.3,0.5,0.2,1.1-0.1,1.5c-18.6,31.9-22.1,69-23.1,105.3c-0.5,0.1-0.9,0.1-1.3,0.2c-0.5,0.1-0.8,0.3-1.3,0.5l-1.7-0.2
			c0.5-1.6,0.8-3.2,1.2-4.9v-2.2c1.2-34.7,5.6-69.9,23.3-100.4l0.1-0.1c-12.3-7.3-24-26-9.6-37.5c16.7-13.3,33.5,8.1,39.5,21.6
			c0,0.1,0,0.1,0.1,0.2C-7602.3-16520.9-7599.5-16523.2-7596.4-16525.2z"/>
		<path id="Path_2308_2_" class="st0" d="M-7614.6-16515c0.2,0.9-0.3,1.8-1.2,2.1c-2.2,0.4-4.2,1.6-5.6,3.4c-0.5,0.6-1.4,0.6-2,0.1
			c-0.2,0.1-0.5,0.1-0.7,0.1c-6-0.9-11.2-4.5-14-9.9c-2.2-4.2-3.8-10.6,0.1-14.3c3.9-3.7,9.6-2.2,13.5,0.8
			C-7619.1-16528.3-7615.9-16521.7-7614.6-16515z M-7623.9-16511.5c1.3-2.1,3.2-3.6,5.6-4.3c-2-7-9.5-21.9-17-14.8
			c-3.7,3.6-0.5,10,2.4,13.3c2.4,2.7,5.5,4.7,8.9,5.9C-7624-16511.5-7624-16511.5-7623.9-16511.5L-7623.9-16511.5z"/>
		<path id="Path_2309_2_" class="st2" d="M-7618.3-16515.8c-2.3,0.7-4.3,2.2-5.6,4.3c0,0.1,0,0.1-0.1,0.1l0,0
			c-3.5-1.1-6.5-3.2-8.9-5.9c-2.9-3.4-6.1-9.9-2.4-13.3C-7627.8-16537.7-7620.3-16522.7-7618.3-16515.8z"/>
		<path id="Path_2310_4_" class="st0" d="M-7653.1-16178.3c0.5-16.4-1-32.7-1.4-49.1c-0.3-25.2,2.3-51.1,17-72.5
			c1.3-1.9,4.5-0.1,3.1,1.9c-23.5,34-14.6,76.3-15,114.8"/>
		<path id="Path_2310_1_" class="st0" d="M-7717.6-16191c5.6-62.4,28.2-123.5,63.1-175.3c-1.5,0.5-3.1,1-4.6,1.5
			c-0.8,0.2-1.6-0.3-1.7-1.1c0,0,0,0,0-0.1v-0.6c1.3-5.6,2.7-11.1,3.9-16.7l-7,3.5c-1,0.6-2.6-0.6-1.7-1.7c2.8-4.1,4.8-8.7,6.1-13.5
			l1.7,0.2c-0.7,3.7-1.9,7.3-3.6,10.7c1.9-0.9,3.8-2,5.7-2.9c0.6-0.3,1.4-0.1,1.9,0.5c0.2,0.3,0.3,0.7,0.1,1
			c-1.3,5.7-2.6,11.4-3.9,17l6.3-2.1c1.2-0.3,2.4,1.2,1.6,2.2c-18.3,27.3-33.2,56.7-44.3,87.6c-9.9,27.6-16.5,56.2-19.8,85.4"/>
		<path id="Path_2311_2_" class="st5" d="M-7574.5-16534.3c-11.1,1.7-23.9,7.8-30.8,16.7c-0.8,1,0.2,2.8,1.5,2
			c4.8-2.7,9.2-5.7,14.1-7.9c5.4-2.2,11.1-3.9,16.8-5C-7569.1-16529.3-7570.7-16534.9-7574.5-16534.3z"/>
		<path id="Path_2312_2_" class="st5" d="M-7546.8-16530.2c-10,1.1-19.7,4.5-28.1,10.1c-1.4,0.9-0.6,3.4,1.2,2.9
			c4.5-1.3,9-2.9,13.7-4.1c4.6-1.2,9.4-1.7,14-2.7C-7542.6-16524.7-7543.3-16530.5-7546.8-16530.2z"/>
		<path id="Path_2313_2_" class="st5" d="M-7493.1-16550.2c-10.7,0.1-19.9,6.4-26.3,14.6c-2.1,2.8-3.5,5.8-5.4,8.6
			c-2,2.9-2.3,3.2-6,4.3c-7.1,2-14.8,2.2-22,3.9c-1,0.3-1.6,1.4-1.3,2.4c0,0,0,0,0,0.1c0.2,0.8,0.9,1.4,1.7,1.4
			c6.5,0.1,13.1-0.1,19.6-0.7c4.3-0.3,8.7,0.1,11.6-3.6c3.7-4.8,5.1-10.7,9.3-15.3c5.3-5.9,11.8-8.7,19.6-9.9
			C-7488.9-16544.9-7489.8-16550.2-7493.1-16550.2z"/>
		<path id="Path_2314_2_" class="st5" d="M-7527.2-16436c-0.4-3.2-2.9-5.8-6-6.4c-3.6-0.9-5.8,4.2-2.6,6c0.7,0.3,1.1,1,1.3,1.7
			c-0.6,0.8-0.8,1.8-0.7,2.8c-3.6,6.4-18.2,16.4-20.5,18c-1.6,1.2-0.7,4.3,1.5,3.6c8.5-3,17.9-8.5,23.9-15.3
			c0.6-0.6,1.1-1.3,1.5-2.1c7.2,3.1,8.7,11.8,4.4,19c-4.3,7.1-12.9,11.4-20.6,13.5c-13,3.4-39.5,2.1-44.4-13.7
			c-0.1-0.4-0.5-0.6-0.8-0.5c0,0-0.1,0-0.1,0c-0.3,0.1-0.6,0.4-0.6,0.7c0.2,10,10.4,16.2,18.9,19.4c12.3,4.6,25.9,4.2,37.9-0.9
			c10.4-4.5,20.4-13.3,21.1-25.4C-7512.6-16425.2-7518.3-16433.9-7527.2-16436z"/>
		<path id="Path_2315_4_" class="st5" d="M-7706.8-16178c0.2-11.1,3.5-22.3,5.8-33.2c2.4-11.4,4.9-22.8,7.2-34.2
			c4.6-22.3,7.9-44,18.8-64.2c3-5.7,6.3-11.1,9.6-16.6c2.1-3,4.2-6,6.3-9.2c1.4-2.2,2.7-4.4,3.9-6.7c5.5-8.2,11.1-16.4,17-24.4
			c1.6-2.2-0.1-4.8-2.2-5.6c-0.4-0.7-1.1-1.3-1.9-1.5c0.7-1.5-1-3.4-2.8-3c-2,0.5-3.8,0.9-5.7,1.3c1.1-4.3,2-8.8,2.6-13.2
			c0.2-2.3-2.2-4.5-4.5-4.4c2.5-7.3,4.6-14.8,6.3-22.4c2.2-10.1,2.8-20.4,4.3-30.8c1.4-9.4,4.8-18.4,6.4-27.7
			c1.7-9.5,3.7-18.2,9.6-26.1c1.7-2.3-0.7-5.1-3.2-5.1c-2.2-2.2-5.2-3.4-7.5-5.6c-3.5-3.6-5.8-8.1-6.6-13c-1-6.3,1.7-7.7,6.5-10.4
			c2.1-1.3,2.6-1.4,3.5-3.8c1-2.9-2.8-4.4-4.8-2.8c-1.2,0.9-3.5,0.8-4.8,1.5c-2,1-3.7,2.5-5,4.3c-2.5,3.9-3.4,8.6-2.4,13.1
			c1.6,8.7,7.9,18.2,17,19.8c-4.5,5.8-6.7,12.9-8.3,20.1c-0.2,1.3-0.6,2.6-0.9,3.8c-10.3,14.6-11.7,35-10.8,52.2
			c0,0.3,0.1,0.5,0.3,0.7c-0.2,1.6-0.6,3.4-0.9,5c-2.2,11.3-5.4,22.4-9.5,33.2c-1.2,2.9,2.3,6,5.1,5.1c0.1,0,0.1,0,0.2-0.1
			c-0.7,3.7-1.6,7.3-2.8,10.9c-0.9,2.9,2.2,6.4,5.2,5.2c2.1-0.8,4.2-1.7,6.1-2.7c-2.4,2.9-5,5.6-6.3,9.3c-0.9,2.5-1.9,5.1-2.8,7.5
			c-10.1,14.4-19.1,29.6-27,45.3c-7,14-10.9,29.3-14.3,44.6c-0.1,0.3-0.2,0.7-0.2,1c-4.2,14.3-10.3,28.4-10.2,43.5
			c0,0.6,0.5,1.1,1,1.2c-1.4,6.7-2.8,13.3-4.1,20.1"/>
		<path id="Path_2315_1_" class="st5" d="M-7644.9-16189.3c-0.9-17.2-2.9-34.1-1.9-51.4c1.2-17.9,3.5-39.3,15.4-53.7
			c2.3-2.8-1.6-7-4.1-4.1c-18.3,21.5-17,54.7-17.2,81.2c0,7.9-0.2,15.7-0.2,23.5"/>
		<path id="Path_2318_1_" class="st5" d="M-7612.5-16202.9c-0.8-16.1-1.6-32.5,0.8-48.6c2.2-14.4,7.1-28.3,12.3-41.9
			c5.2-13.5,9.7-27.4,22.7-35.4c14.3-8.7,29.5-7.9,45.3-6.3c3.4,0.5,3.2-4.3,0.7-5.3c-19.3-8.1-49.2-2.4-63,13.8
			c-7.3,8.7-11,20.2-15,30.7c-4.9,12.6-9.4,25.5-11.8,38.8"/>
		<path id="Path_2319_1_" class="st5" d="M-7425.9-16222.6c-2.7-15.1-6.8-29.8-10.4-44.6c-3.6-15-7.2-29.9-11-44.8
			c-3.6-13.7-7.5-28.5-16-40.1c-0.7-1.1-2.2-1.5-3.4-0.8c0,0-0.1,0-0.1,0.1c-0.9,0.5-1.4,1.6-1,2.7c3.2,13.2,7.8,26.1,11.1,39.3
			c3.2,12.9,6.3,25.7,9.4,38.6c2.4,9.9,4.9,19.6,7.2,29.5c-4.2,3.4-1.2,13.9-0.7,18"/>
	</g>
	<ellipse id="Ellipse_955_2_" class="st6" cx="-7525.9" cy="-16478.9" rx="18.1" ry="24.7"/>
	
		<ellipse id="Ellipse_956_2_" transform="matrix(0.5177 -0.8555 0.8555 0.5177 10434.6592 -14428.3037)" class="st7" cx="-7580.5" cy="-16469.6" rx="6.8" ry="4.3"/>
	
		<ellipse id="Ellipse_957_2_" transform="matrix(0.4452 -0.8954 0.8954 0.4452 10573 -15877.3477)" class="st7" cx="-7526.5" cy="-16471.1" rx="6.8" ry="4.3"/>
	<g id="Group_3093" transform="translate(126.618 56.36)">
		<path id="Path_5499" d="M-7717.6-16537.1c-0.1-2.4,0.6-4.8,1.9-6.8c1.3-2.2,3.2-3.9,5.4-5c0.6-0.3,1.1-0.5,1.7-0.7
			c0.6-0.2,1.2-0.4,1.9-0.5c0.6-0.1,1.2-0.1,1.9-0.1c0.6,0,1.3,0.1,1.9,0.1c0.6,0.1,1.2,0.2,1.7,0.3c0.6,0.1,1.2,0.3,1.7,0.6
			c1.1,0.5,2.1,1,3,1.7c-1.1,0.1-2.2,0.1-3.4,0c-0.5,0-1.1,0-1.6,0.1h-0.8c-0.2,0-0.5,0.1-0.8,0.1c-0.5,0.1-1,0.1-1.5,0.1l-1.5,0.3
			c-0.5,0.1-0.9,0.3-1.4,0.5c-0.5,0.1-1,0.3-1.4,0.6c-1.8,0.8-3.4,2-4.8,3.5C-7715.1-16540.7-7716.5-16539-7717.6-16537.1z"/>
	</g>
	<g id="Group_3094" transform="translate(184.962 54.821)">
		<path id="Path_5500" d="M-7717.6-16547.2c1.8-1.6,4-2.6,6.4-2.9c2.5-0.4,5,0,7.3,1c1.1,0.6,2.2,1.3,3.1,2.1
			c0.5,0.4,0.9,0.8,1.3,1.3c0.3,0.5,0.7,1,1,1.5c0.3,0.5,0.6,1.1,0.8,1.6c0.2,0.6,0.5,1.2,0.7,1.6c0.4,1.1,0.6,2.3,0.6,3.5
			c-0.8-0.9-1.4-1.9-2.1-2.7c-0.3-0.4-0.7-0.8-1-1.2l-0.5-0.6c-0.1-0.2-0.3-0.3-0.6-0.6l-1.1-1l-1.2-0.9c-0.4-0.3-0.8-0.6-1.3-0.8
			c-0.4-0.3-0.8-0.5-1.3-0.7c-1.8-0.8-3.7-1.3-5.7-1.4C-7713.2-16547.5-7715.4-16547.4-7717.6-16547.2z"/>
	</g>
</g>
<g id="Group_3198" transform="translate(8052.313 16626.889)">
	<g id="Group_2952_2_">
		<path id="Path_5381_1_" class="st8" d="M-7614.2-16461.3c-0.4,0.5-0.9,0.5-1.5,0.2c-25.7-11.5-40.9,43.6-40.9,43.6l-10.3,45.1
			l-2.5-0.5l9.8-43.1c0,0,17.8-60.4,45.5-45.5L-7614.2-16461.3z"/>
	</g>
	<g id="Group_2958_1_" transform="translate(15.921 34.398)">
		<g id="Group_2955_1_">
			<g id="Group_2954_1_">
				<path id="Path_5382_1_" class="st8" d="M-7619.6-16487.1c-1.5-2-2.5-4.3-2.9-6.7c-0.6-3.5-6-5.2-8.4-2.3L-7619.6-16487.1z"/>
			</g>
		</g>
		<g id="Group_2957_1_" transform="translate(1.719)">
			<g id="Group_2956_1_">
				<path id="Path_5383_1_" class="st9" d="M-7621.3-16487.1c-2.3-0.9-4.7-1.3-7.2-1.4c-3.6,0-6.4-4.7-4.1-7.6L-7621.3-16487.1z"/>
			</g>
		</g>
	</g>
	<g id="Group_2982_1_" transform="translate(10.259 85.115)">
		<g id="Group_2979_1_" transform="translate(6.512)">
			<g id="Group_2976_1_">
				<g id="Group_2975_1_">
					<path id="Path_5388_1_" class="st10" d="M-7626.7-16524.1c-5.7-0.1-11.4-1.4-16.5-3.9c-0.4-0.2-2.7,2.7-3.1,2.5
						c-0.3-0.2,1.3-3.4,1-3.6c-0.2-0.1-0.4-0.2-0.6-0.3c-8.3-3.8-19.9,4.5-17.7,13.9L-7626.7-16524.1z"/>
				</g>
			</g>
			<g id="Group_2978_1_" transform="translate(2.243)">
				<g id="Group_2977_1_">
					<path id="Path_5389_1_" class="st11" d="M-7628.9-16524.1c-5.5,3.4-10.4,7.7-14.5,12.7c-5.9,7.3-20.2,5.6-22.5-4
						L-7628.9-16524.1z"/>
				</g>
			</g>
		</g>
		<g id="Group_2981_1_" transform="translate(0 25.497)">
			<g id="Group_2980_1_">
				<polygon id="Rectangle_3512_1_" class="st8" points="-7657.3,-16542 -7656.8,-16539.9 -7664.7,-16538 -7663.8,-16540 				"/>
			</g>
		</g>
	</g>
	<g id="Group_2990_2_" transform="translate(10.393 117.589)">
		<g id="Group_2987_2_" transform="translate(7.154)">
			<g id="Group_2984_2_">
				<g id="Group_2983_2_">
					<path id="Path_5390_2_" class="st8" d="M-7625.1-16531.7c-8.6,1.3-17.4,0.5-25.7-2.2c-11.9-3.9-26.2,10-21,22L-7625.1-16531.7z
						"/>
				</g>
			</g>
			<g id="Group_2986_2_" transform="translate(2.456)">
				<g id="Group_2985_2_">
					<path id="Path_5391_2_" class="st9" d="M-7627.6-16531.7c-5.5,4.8-10.3,10.4-14.2,16.6c-0.2,0.4-3.7-0.6-4-0.2
						c-0.5,0.8,2.4,2.9,1.9,3.6c-1.8,3.2-4.7,5.6-8.1,7c-1,0.4-3.2-5.6-4.2-5.4c-1.1,0.3-1,6.8-2.2,6.9c-6.6,0.4-13.2-2.3-15.9-8.7
						L-7627.6-16531.7z"/>
				</g>
			</g>
		</g>
		<g id="Group_2989_2_" transform="translate(0 27.889)">
			<g id="Group_2988_2_">
				
					<rect id="Rectangle_3513_2_" x="-7674.9" y="-16539.1" transform="matrix(0.9201 -0.3918 0.3918 0.9201 5865.9941 -4326.7974)" class="st8" width="10.8" height="3"/>
			</g>
		</g>
	</g>
	<g id="Group_2999_1_" transform="translate(14.671)">
		<g id="Group_2996_1_">
			<g id="Group_2993_1_">
				<g id="Group_2992_1_">
					<path id="Path_5392_1_" class="st8" d="M-7638-16484.3c-0.4,3.6,0,7.3,1.2,10.8c1.8,5-3.9,11.1-9,9.1L-7638-16484.3z"/>
				</g>
			</g>
			<g id="Group_2995_1_">
				<g id="Group_2994_1_">
					<path id="Path_5393_1_" class="st9" d="M-7638-16484.3c-2.3,2.8-5.1,5.2-8.2,7.1c-4.6,2.7-4.7,10.8,0.4,12.8L-7638-16484.3z"/>
				</g>
			</g>
		</g>
		<g id="Group_2998_1_" transform="translate(28.579 19.664)">
			<g id="Group_2997_1_">
				
					<rect id="Rectangle_3514_1_" x="-7677.5" y="-16482.7" transform="matrix(0.3658 -0.9307 0.9307 0.3658 10472.084 -17596.4902)" class="st8" width="4.5" height="1.2"/>
			</g>
		</g>
	</g>
	<g id="Group_3007_1_" transform="translate(12.583 24.232)">
		<g id="Group_3004_1_">
			<g id="Group_3001_1_">
				<g id="Group_3000_1_">
					<path id="Path_5394_1_" class="st12" d="M-7669.7-16507.1c3.1,3.9,7.2,6.9,11.7,8.9c6.6,2.9,7.2,14.3,0.4,17.4L-7669.7-16507.1
						z"/>
				</g>
			</g>
			<g id="Group_3003_1_">
				<g id="Group_3002_1_">
					<path id="Path_5395_1_" class="st13" d="M-7669.7-16507.1c0.6,4.9,0.3,9.9-0.8,14.7c-1.7,7,6.1,14.8,13,11.6L-7669.7-16507.1z"
						/>
				</g>
			</g>
		</g>
		<g id="Group_3006_1_" transform="translate(30.627 21.036)">
			<g id="Group_3005_1_">
				
					<rect id="Rectangle_3515_1_" x="-7687.8" y="-16502.2" transform="matrix(0.9081 -0.4188 0.4188 0.9081 6203.5054 -4736.23)" class="st8" width="1.7" height="6.2"/>
			</g>
		</g>
	</g>
	<g id="Group_3023_2_" transform="translate(0 83.192)">
		<g id="Group_3020_2_">
			<g id="Group_3017_2_">
				<g id="Group_3016_2_">
					<path id="Path_5398_2_" class="st8" d="M-7705.2-16522.7c7.3,4.7,15.7,7.6,24.3,8.4c12.5,1.2,19.8,19.8,10.2,28.7
						L-7705.2-16522.7z"/>
				</g>
			</g>
			<g id="Group_3019_2_">
				<g id="Group_3018_2_">
					<path id="Path_5399_2_" class="st9" d="M-7705.2-16522.7c2.3,5,4.1,10.3,5.2,15.7c0,0.2,3.2-0.2,0.1,0.5c-0.1,0,0,0.2,0.1,0.2
						c0.4,1.9,0.7,3.8,1,5.8c0,0.3,5-0.1,5,0.2c0,0.2-4.9,1-4.9,1.2c0,0.4,0.1,0.9,0.1,1.3c0.2,2.7,1.2,5.2,2.7,7.4
						c0.8,1.2,3.5-1.5,4.6-0.5c1.1,1,0.7,5.8,2,6.5c5.9,3.3,13.4,3.7,18.6-1.2L-7705.2-16522.7z"/>
				</g>
			</g>
		</g>
		<g id="Group_3022_2_" transform="translate(40.576 27.868)">
			<g id="Group_3021_2_">
				
					<rect id="Rectangle_3517_2_" x="-7709.1" y="-16515" transform="matrix(0.7323 -0.681 0.681 0.7323 9179.7441 -9669.2041)" class="st8" width="3" height="10.8"/>
			</g>
		</g>
	</g>
	<g id="Group_2951" transform="translate(1.044 170.779)">
		<g id="Group_2947">
			<path id="Rectangle_3508" class="st14" d="M-7706.1-16550.2h37.5l0,0v11.5l0,0h-49l0,0l0,0
				C-7717.6-16545.1-7712.5-16550.2-7706.1-16550.2z"/>
		</g>
		<g id="Group_2948" transform="translate(48.959)">
			<path id="Rectangle_3509" class="st15" d="M-7717.6-16550.2h37.1c6.3,0,11.5,5.1,11.5,11.5l0,0l0,0l0,0h-48.6l0,0V-16550.2
				L-7717.6-16550.2z"/>
		</g>
		<g id="Group_2949" transform="translate(3.187 11.484)">
			<path id="Path_5379" class="st16" d="M-7717.6-16550.2l12.1,59h33.7v-59H-7717.6z"/>
		</g>
		<g id="Group_2950" transform="translate(48.959 11.484)">
			<path id="Path_5380" class="st14" d="M-7672.2-16550.2h-45.4v59h35.2L-7672.2-16550.2z"/>
		</g>
	</g>
</g>
<g id="Group_3199" transform="matrix(-0.375, 0.927, -0.927, -0.375, 8177.166, 16839.301)">
	<g id="Group_3081_4_" transform="translate(-0.046 -0.006)">
		<g id="Group_3080_4_" transform="translate(0 0)">
			<g id="Group_2348_4_" transform="translate(0 0)">
				<path id="Path_2310_4_2" class="st1" d="M-12392.7,13361.7c0.9-1.3,3.1-0.1,2.2,1.3c-16.3,23.5-10.1,52.9-10.4,79.6
					c-0.1,14.1-4.7,36.4-22.2,36.4c-1.1,0-2.2-0.1-3.3-0.3c-19.7-2.8-23.3-25.5-21.9-41.6c0.1-11.9,16.3-62.3,16.3-62.3"/>
			</g>
		</g>
	</g>
	<g id="Group_3081_3_" transform="translate(-0.046 -0.006)">
		<g id="Group_3080_3_" transform="translate(0 0)">
			<g id="Group_2348_3_" transform="translate(0 0)">
				<path id="Path_2310_1_2" class="st0" d="M-12431.9,13375c-6.9,19.1-11.5,39-13.7,59.2c-1.1,10.2-1.6,21.5,3.6,30.7
					c5.2,9.2,17,15.5,26.8,9.2c9.5-6,11.4-17.9,11.8-28.2c0.3-11.4-0.8-22.7-1-34.1c-0.3-17.4,1.6-35.4,11.8-50.2
					c0.9-1.3,3.1-0.1,2.2,1.3c-16.3,23.5-10.1,52.9-10.4,79.6c-0.1,14.1-4.7,36.4-22.2,36.4c-1.1,0-2.2-0.1-3.3-0.3
					c-19.7-2.8-23.3-25.5-21.9-41.6C-12448.2,13425.4-12431.9,13375-12431.9,13375z"/>
			</g>
		</g>
	</g>
</g>
<g id="Group_3200" transform="translate(7687.75 17182.168) rotate(-93)">
	<path id="Path_2457" class="st17" d="M17169.5-6782.8c0,0,65.6,14.8,102.9,92.8c37.1,78.2,55.2,339.1-23.7,433.4
		c-79,94.6-248.9-23.4-272.6-128c-23.7-104.6-10.2-280.6,30.2-340C17046.7-6783.9,17100.3-6805.1,17169.5-6782.8z"/>
	<g transform="matrix(-0.05, 1, -1, -0.05, 629.51, 62.89)">
		<path id="Path_2459-2" class="st1" d="M-7615.2-16123.2c0,0,5.3-83.2,65.7-110.7s248.7-61.7,339.5-18.2
			c90.8,43.5,68.5,126.5,46.5,174.5s-130.4,73.5-225.6,79.8C-7484.3-15991.4-7643.7-16020.1-7615.2-16123.2z"/>
	</g>
</g>
<g class="st18">
	<path class="st19" d="M162.2,462.1c0,3.6-0.9,6.7-2.7,9.1c-2,2.8-4.7,4.2-8.1,4.2c-1,0-2-0.2-3.1-0.6c-2.5-0.8-4.3-2.2-5.4-4.2
		c-0.9-1.7-1.4-4-1.4-6.8c0-3.7,0.9-7,2.7-9.8c2-3.3,4.8-5,8.3-5c3.1,0,5.5,1.4,7.4,4.3C161.4,456,162.2,458.8,162.2,462.1z
		 M158.6,461.8c0-5.2-1.7-8.3-5-9.3c-0.4-0.1-0.8-0.2-1.2-0.2c-1.4,0-2.8,0.6-4.2,1.9c-2.2,2-3.3,5.6-3.3,10.8c0,0.5,0.1,1.1,0.3,2
		c0.4,1.9,1.1,3.3,1.9,4.2c1,1,2.4,1.5,4.3,1.5c2.6,0,4.5-1.2,5.8-3.7C158.1,467,158.6,464.6,158.6,461.8z"/>
	<path class="st19" d="M183.8,474.7c-0.8,0.5-1.5,0.8-1.9,0.8c-0.3,0-0.8-0.2-1.5-0.5c0-0.4,0-1.1,0-2.1c0-0.9,0-1.6,0-2.1
		c0-6.6-0.5-10-1.6-10c-0.8,0-1.5,1-2,3c-0.4,1.5-0.6,2.8-0.6,4.1v3.4c0,0.2,0.1,0.4,0.2,0.8c0.1,0.3,0.2,0.6,0.2,0.8
		c0,0.4-0.2,0.8-0.6,1.1c-0.4,0.3-0.8,0.5-1.2,0.5c-0.4,0-0.9-0.2-1.3-0.6c-0.4-0.4-0.6-0.8-0.6-1.2v-7c0-2.8-0.3-4.2-1-4.2
		c-0.1,0-0.3,0.2-0.6,0.7c-1.8,2.4-2.7,5-2.7,7.7c0,0.4,0.1,1,0.2,1.7c0.1,0.8,0.2,1.3,0.2,1.7c0,0.5-0.2,0.9-0.5,1.2
		c-0.3,0.3-0.7,0.5-1.2,0.5c-0.6,0-1-0.2-1.4-0.6c-0.1-0.2-0.3-0.8-0.4-1.8c-0.2-0.9-0.2-1.6-0.2-1.9v-8.2c0-0.6,0.1-1.4,0.4-2.4
		c0.4-1.2,0.8-1.8,1.2-1.8c0.5,0,0.9,0.2,1.4,0.6c0.4,0.4,0.6,0.8,0.5,1.3c0.7-1.2,1.7-1.8,2.8-1.8c1.4,0,2.6,1,3.5,2.9
		c0.5-1.1,0.9-1.9,1.3-2.3c0.6-0.7,1.4-1.1,2.3-1.1c0.9,0,1.9,0.5,2.8,1.5c1.6,1.7,2.5,4.5,2.5,8.6V474.7z"/>
	<path class="st19" d="M199.7,468.4c0,3.2-0.1,5.5-0.3,6.8c-0.1,0.8-0.7,1.2-1.6,1.2c-1.4,0-2-0.7-1.9-2.1c-1.3,0.6-2.5,0.9-3.9,0.9
		c-1.3,0-2.5-0.3-3.7-1c-1.4-0.8-2.1-1.8-2.1-3c0-1.2,0.8-2.3,2.4-3.3c1.4-0.9,2.8-1.4,4.1-1.4h3.2v-0.9c0-2.6-0.8-3.9-2.3-3.9
		c-2,0-3,0.9-3,2.7c0,0.6-0.4,0.9-1,0.9c-0.4,0-0.9-0.2-1.3-0.6c-0.5-0.4-0.7-0.8-0.7-1.2c0-1.4,0.5-2.5,1.5-3.5
		c1-0.9,2.2-1.3,3.6-1.3C197.4,458.8,199.7,462,199.7,468.4z M195.9,469.8c0-0.5-0.4-0.8-1.1-0.8c-3.1,0-4.7,0.7-4.7,2.2
		c0,0.8,0.7,1.2,2.1,1.2c0.8,0,1.6-0.2,2.4-0.7C195.5,471.2,195.9,470.5,195.9,469.8z"/>
	<path class="st19" d="M212.5,461.9c0,0.2,0,0.5-0.1,0.8c-0.5,0.8-1.1,1.1-1.6,1.1c-0.5,0-0.9-0.3-1.3-0.8c-0.1-1.1-0.4-1.7-1.2-1.7
		c-0.5,0-1,1.2-1.6,3.6c-0.3,1.1-0.5,2.5-0.5,4.4c0,1.8,0.1,2.9,0.2,3.2c0.2,0.5,0.3,0.8,0.3,1c0,0.4-0.2,0.8-0.6,1
		s-0.8,0.4-1.3,0.4c-1.3,0-2-0.6-2-1.9c0-0.1,0-0.3,0.1-0.5c0.1-0.2,0.1-0.4,0.1-0.5c0-1.3-0.1-3.2-0.2-5.7
		c-0.1-2.5-0.2-4.4-0.2-5.6c0-1.1,0.7-1.7,2-1.7c0.8,0,1.4,0.2,1.6,0.7c0.7-0.8,1.5-1.2,2.4-1.2c0.6,0,1.2,0.2,1.7,0.5
		c0.4,0.2,0.8,0.6,1.3,1.3S212.5,461.5,212.5,461.9z"/>
	<path class="st19" d="M214.4,452.1c0-0.6,0.3-1.1,0.8-1.5c0.5-0.5,1.1-0.7,1.8-0.7c0.7,0,1.3,0.3,1.9,1c0.5,0.7,0.8,1.5,0.8,2.4
		c0,1.1-0.1,1.9-0.3,2.6c-0.2,0.7-0.6,1.3-1,2c-0.5,0.7-1.1,1.2-1.7,1.7c-0.6,0.5-1.2,0.7-1.7,0.7c-0.4,0-0.7-0.2-0.9-0.5
		s-0.1-0.6,0.1-0.9c0.5-0.3,1-0.6,1.4-1c0.4-0.4,0.8-0.9,1-1.5c0.1-0.3,0.2-0.7,0.1-1.1c0-0.4-0.3-0.8-0.7-1
		c-0.4-0.3-0.8-0.5-1.1-0.8C214.6,452.9,214.4,452.6,214.4,452.1z"/>
	<path class="st19" d="M232,471c0,1.2-0.5,2.2-1.5,3.1c-1.1,1-2.6,1.4-4.4,1.4c-0.8,0-1.7-0.1-2.6-0.5c-3-1.1-4.5-2-4.5-2.7
		c0-1.1,0.8-1.6,2.4-1.6c0.2,0,0.5,0,0.7,0c0.1,0.8,0.7,1.3,1.8,1.8c1,0.4,1.9,0.6,2.8,0.5c0.7,0,1.1-0.3,1.1-0.8
		c0-0.1,0-0.2-0.1-0.3c0-0.1-0.1-0.3-0.1-0.4s-0.5-0.3-1.4-0.6c-1.1-0.3-1.7-0.5-1.8-0.6c-2.9-1.7-4.3-3.8-4.3-6.1
		c0-1.5,0.4-2.8,1.2-4c0.9-1.3,2.1-2,3.5-2c1,0,2.2,0.4,3.5,1.2c1.3,0.8,2.1,1.7,2.4,2.6c0.2,0.7,0.3,1.2,0.3,1.6
		c0,0.5-0.1,0.8-0.2,1.1c-0.1,0.4-0.3,0.8-0.4,1.1c-0.5,0.3-1,0.5-1.4,0.5c-0.2,0-0.7-0.2-1.3-0.5c-0.6-0.3-0.9-0.6-0.9-0.8
		c0-0.1,0.1-0.4,0.4-1c0.2-0.3,0.3-0.6,0.3-0.8c0-1.5-0.6-2.2-1.8-2.2c-0.7,0-1.2,0.5-1.6,1.4c-0.3,0.7-0.4,1.5-0.4,2.2
		c0,1,0.7,1.9,2.1,2.7c1.3,0.6,2.6,1.2,3.9,1.8C231.3,469.7,232,470.3,232,471z"/>
	<path class="st19" d="M253.2,465.9c0,2.5-0.5,4.7-1.4,6.5c-1.1,2.3-2.8,3.5-5.1,3.5c-1.2,0-2.3-0.4-3.1-1c0,0.3,0,0.6,0,1.1
		c0,0.5,0,0.9,0,1.1c0,2.4,0.3,4.3,0.8,5.7c0.2,0.5,0.4,0.9,0.4,1c0,0.8-0.5,1.3-1.5,1.3c-0.8,0-1.3-0.1-1.7-0.4
		c-0.3-0.2-0.6-0.8-0.8-1.9c-0.2-1-0.3-1.7-0.3-2.2v-9c0-0.8,0-2,0.1-3.4c0.1-1.6,0.2-2.7,0.2-3.3c0-0.6,0-1.4,0-2.5
		c0-1.3,0-2.1,0-2.5c0-2.1,0.7-3.2,2.1-3.2c0.3,0,0.7,0.1,1,0.4s0.4,0.5,0.4,0.8c0,0.5-0.1,1.5-0.2,3c1-1.4,2.1-2.1,3.5-2.1
		c1.8,0,3.3,0.8,4.3,2.2C252.8,462.3,253.2,463.9,253.2,465.9z M249.9,465.5c0-2.7-0.6-4-1.7-4c-0.5,0-1.2,0.5-2,1.5
		c-1.6,1.9-2.4,4.5-2.6,7.8c0.3,0.2,0.8,0.7,1.5,1.6c0.6,0.7,1.1,1,1.7,1C248.8,473.3,249.9,470.7,249.9,465.5z"/>
	<path class="st19" d="M260.1,473.8c0,0.5-0.2,0.8-0.5,1.1c-0.4,0.3-0.8,0.5-1.3,0.5c-1.6,0-2.4-2.1-2.4-6.2c0-1.9,0-4.7,0.1-8.4
		c0-3.8,0.1-6.6,0.1-8.4c0-0.3,0-0.7-0.1-1.3c-0.1-0.6-0.1-1-0.1-1.3c0.8-0.5,1.5-0.8,1.9-0.8c0.5,0,1.1,0.2,1.6,0.5
		c0.5,0.4,0.8,0.8,0.8,1.4c0,0.3-0.1,0.6-0.2,1c-0.2,0.6-0.3,0.9-0.3,1c-0.3,1.6-0.5,3.8-0.5,6.6c0,4.5,0,6.8,0,7
		c0.1,3.2,0.3,5.4,0.8,6.6C260,473.3,260.1,473.6,260.1,473.8z"/>
	<path class="st19" d="M275.2,468.4c0,3.2-0.1,5.5-0.3,6.8c-0.1,0.8-0.7,1.2-1.6,1.2c-1.4,0-2-0.7-1.9-2.1c-1.3,0.6-2.5,0.9-3.9,0.9
		c-1.3,0-2.5-0.3-3.7-1c-1.4-0.8-2.1-1.8-2.1-3c0-1.2,0.8-2.3,2.4-3.3c1.4-0.9,2.8-1.4,4.1-1.4h3.2v-0.9c0-2.6-0.8-3.9-2.3-3.9
		c-2,0-3,0.9-3,2.7c0,0.6-0.4,0.9-1,0.9c-0.4,0-0.9-0.2-1.3-0.6c-0.5-0.4-0.7-0.8-0.7-1.2c0-1.4,0.5-2.5,1.5-3.5
		c1-0.9,2.2-1.3,3.6-1.3C272.9,458.8,275.2,462,275.2,468.4z M271.4,469.8c0-0.5-0.4-0.8-1.1-0.8c-3.1,0-4.7,0.7-4.7,2.2
		c0,0.8,0.7,1.2,2.1,1.2c0.8,0,1.6-0.2,2.4-0.7C271,471.2,271.4,470.5,271.4,469.8z"/>
	<path class="st19" d="M291.6,474.5c-0.4,0.6-0.8,0.9-1.4,0.9c-0.4,0-1.1-0.2-2.1-0.8v-0.4c0-0.5,0-1.4,0-2.4c0-1.1,0-1.9,0-2.4
		c0-5.3-0.8-8-2.4-8c-0.4,0-1,0.4-1.5,1c-1.8,2.2-2.6,4.7-2.6,7.8c0,0.4,0.1,1.1,0.2,1.9c0.2,0.8,0.2,1.5,0.2,1.9
		c0,0.4-0.2,0.6-0.5,0.9c-0.3,0.2-0.7,0.3-1.1,0.3c-1.5,0-2.2-1-2.2-2.8v-7.8c0-0.2,0-0.5,0.1-0.9c0-0.4,0.1-0.7,0.1-0.9
		c0-0.3,0-0.7-0.1-1.3c-0.1-0.6-0.1-1-0.1-1.3c0-0.4,0.2-0.8,0.7-1.1c0.5-0.4,0.9-0.5,1.3-0.5c0.5,0,1.1,0.3,1.7,0.9l-0.1,1.5
		c0.9-1.5,2.1-2.2,3.4-2.2c0.9,0,1.8,0.3,2.8,0.9c1,0.6,1.7,1.3,2.1,2c1,1.9,1.5,4.4,1.5,7.5V474.5z"/>
	<path class="st19" d="M301.8,461.4c0,0.7-1,1.2-3.1,1.4c0,0.5-0.1,1.8-0.1,3.8v2.5c0,0.5,0.1,1.2,0.2,2.2c0.1,1,0.2,1.7,0.2,2.2
		c0,0.4-0.2,0.8-0.6,1.1c-0.4,0.3-0.8,0.5-1.2,0.5c-0.6,0-1.2-0.5-1.6-1.6c-0.3-0.8-0.5-1.6-0.5-2.4v-8c-1.2-0.2-1.8-0.3-2-0.3
		c-0.7-0.2-1-0.5-1-0.9c0-0.1,0-0.2,0.1-0.3c0.6-0.9,1.4-1.4,2.2-1.4c0,0,0.1,0,0.2,0c0.1,0,0.2,0,0.2,0c0.5,0,0.8-0.6,0.8-1.8v-2.7
		c-0.1-0.3-0.2-0.5-0.2-0.7c0-0.3,0.2-0.6,0.6-0.9c0.4-0.3,0.7-0.4,1.1-0.4c0.5,0,1,0.2,1.5,0.7s0.7,1,0.7,1.6
		c0,0.6-0.1,1.2-0.3,1.8c-0.2,0.6-0.3,1.2-0.2,1.8v0.2C300.8,459.8,301.8,460.4,301.8,461.4z"/>
	<path class="st19" d="M314,460.3c0,0.5-0.1,1.1-0.3,1.9c-0.2,0.8-0.3,1.5-0.3,1.9v7.7c0,0.5,0.1,1.2,0.4,2.2
		c-0.4,0.6-0.8,0.9-1.2,0.9c-1.6,0-2.5-0.8-2.6-2.4c-0.2-2.9-0.4-5.1-0.4-6.6c0-2.5,0.1-4.5,0.3-6.2c0-0.1,0-0.2,0-0.4
		c0-0.4,0.3-0.7,1-0.7c0.6,0,1.2,0.1,1.9,0.4C313.6,459.4,314,459.8,314,460.3z M314.4,455.1c0,0.5-0.2,1-0.6,1.3
		c-0.4,0.4-0.8,0.5-1.4,0.5c-0.7,0-1.3-0.2-1.8-0.7s-0.8-1-0.8-1.7c0-0.5,0.2-1,0.6-1.3c0.4-0.3,0.9-0.5,1.4-0.5
		c0.7,0,1.3,0.2,1.8,0.7C314.1,453.9,314.4,454.4,314.4,455.1z"/>
	<path class="st19" d="M327.6,471c0,1.2-0.5,2.2-1.5,3.1c-1.1,1-2.6,1.4-4.4,1.4c-0.8,0-1.7-0.1-2.6-0.5c-3-1.1-4.5-2-4.5-2.7
		c0-1.1,0.8-1.6,2.4-1.6c0.2,0,0.5,0,0.7,0c0.1,0.8,0.7,1.3,1.8,1.8c1,0.4,1.9,0.6,2.8,0.5c0.7,0,1.1-0.3,1.1-0.8
		c0-0.1,0-0.2-0.1-0.3c0-0.1-0.1-0.3-0.1-0.4s-0.5-0.3-1.4-0.6c-1.1-0.3-1.7-0.5-1.8-0.6c-2.8-1.7-4.3-3.8-4.3-6.1
		c0-1.5,0.4-2.8,1.2-4c0.9-1.3,2.1-2,3.5-2c1,0,2.2,0.4,3.5,1.2c1.3,0.8,2.1,1.7,2.4,2.6c0.2,0.7,0.3,1.2,0.3,1.6
		c0,0.5-0.1,0.8-0.2,1.1c-0.2,0.4-0.3,0.8-0.5,1.1c-0.5,0.3-1,0.5-1.4,0.5c-0.2,0-0.7-0.2-1.3-0.5c-0.6-0.3-0.9-0.6-0.9-0.8
		c0-0.1,0.2-0.4,0.5-1c0.2-0.3,0.3-0.6,0.3-0.8c0-1.5-0.6-2.2-1.8-2.2c-0.7,0-1.2,0.5-1.6,1.4c-0.3,0.7-0.4,1.5-0.4,2.2
		c0,1,0.7,1.9,2.1,2.7c1.3,0.6,2.6,1.2,3.9,1.8C326.8,469.7,327.6,470.3,327.6,471z"/>
	<path class="st19" d="M348.6,471c0,1.2-0.5,2.2-1.5,3.1c-1.1,1-2.6,1.4-4.4,1.4c-0.8,0-1.7-0.1-2.6-0.5c-3-1.1-4.5-2-4.5-2.7
		c0-1.1,0.8-1.6,2.4-1.6c0.2,0,0.5,0,0.7,0c0.1,0.8,0.7,1.3,1.8,1.8c1,0.4,1.9,0.6,2.8,0.5c0.7,0,1.1-0.3,1.1-0.8
		c0-0.1,0-0.2-0.1-0.3c0-0.1-0.1-0.3-0.1-0.4s-0.5-0.3-1.4-0.6c-1.1-0.3-1.7-0.5-1.8-0.6c-2.8-1.7-4.3-3.8-4.3-6.1
		c0-1.5,0.4-2.8,1.2-4c0.9-1.3,2.1-2,3.5-2c1,0,2.2,0.4,3.5,1.2c1.3,0.8,2.1,1.7,2.4,2.6c0.2,0.7,0.3,1.2,0.3,1.6
		c0,0.5-0.1,0.8-0.2,1.1c-0.2,0.4-0.3,0.8-0.5,1.1c-0.5,0.3-1,0.5-1.4,0.5c-0.2,0-0.7-0.2-1.3-0.5c-0.6-0.3-0.9-0.6-0.9-0.8
		c0-0.1,0.2-0.4,0.5-1c0.2-0.3,0.3-0.6,0.3-0.8c0-1.5-0.6-2.2-1.8-2.2c-0.7,0-1.2,0.5-1.6,1.4c-0.3,0.7-0.4,1.5-0.4,2.2
		c0,1,0.7,1.9,2.1,2.7c1.3,0.6,2.6,1.2,3.9,1.8C347.9,469.7,348.6,470.3,348.6,471z"/>
	<path class="st19" d="M361.8,461.4c0,0.8-0.1,1.9-0.3,3.5c-0.2,1.6-0.3,2.7-0.3,3.5c0,0.7,0,1.7,0.1,3.1s0.1,2.4,0.1,3.1
		c0,0.6-0.5,0.9-1.5,0.9c-1,0-1.6-0.5-1.9-1.4c-1,0.6-1.9,0.9-2.8,0.9c-0.7,0-1.5-0.2-2.5-0.6c-0.9-0.4-1.6-0.9-2-1.4
		c-0.7-1-1.1-2.7-1.1-5.1c0-0.8,0-2.2,0.1-4.2c0.1-1.8,0.1-3.2,0.1-4.2c0.8-0.5,1.4-0.8,1.9-0.8c1.2,0,1.8,0.6,1.8,1.8
		c0,0.4-0.1,1-0.2,1.8c-0.1,0.8-0.2,1.4-0.2,1.8v5.3c0,0.6,0.2,1.2,0.5,1.9c0.4,0.8,0.9,1.1,1.4,1.1c1.1,0,1.9-0.7,2.4-2.1
		c0.3-1,0.5-2.1,0.5-3.5v-4.5c0-0.6-0.1-1.3-0.4-2.1c0.6-0.6,1.2-0.9,1.8-0.9c0.6,0,1.1,0.2,1.6,0.6S361.8,460.8,361.8,461.4z"/>
	<path class="st19" d="M376.1,452.4c0,0.4-0.2,0.8-0.6,1c-0.4,0.3-0.8,0.4-1.3,0.4c-0.3,0-0.7-0.2-1-0.5c0-0.5-0.1-0.8-0.3-1
		s-0.5-0.2-1.1-0.2c-1.1,0-1.9,1.3-2.3,4c-0.2,1.5-0.4,3.3-0.4,5.3c0.1,0,0.3,0,0.4,0c0.2,0,0.4,0,0.5,0c1,0,1.8,0.4,2.2,1.2
		l-0.3,1.4c-0.5,0.2-1.3,0.4-2.5,0.4c-0.2,0-0.4,0-0.5,0c-0.1,0.8-0.1,1.7-0.1,2.7v3.4c0,1.3,0.2,2.7,0.6,4.1
		c-1,0.5-1.7,0.8-2.1,0.8c-0.6,0-1.1-0.5-1.4-1.4c-0.3-0.7-0.5-1.5-0.5-2.2c0-0.5,0-2.9,0.1-7.2c-0.8,0.1-1.2,0.1-1.2,0.1
		c-0.4,0-0.8-0.1-1.1-0.4c-0.3-0.3-0.5-0.6-0.5-1.1c0-0.8,0.3-1.3,1-1.5c0.3-0.1,1-0.1,2-0.1c0.1-0.2,0.1-1,0.1-2.3
		c0-2.6,0.4-4.8,1.2-6.7c1.1-2.5,2.8-3.7,5.1-3.7c1.1,0,2,0.2,2.8,0.8C375.7,450.5,376.1,451.3,376.1,452.4z"/>
	<path class="st19" d="M385.7,452.4c0,0.4-0.2,0.8-0.6,1c-0.4,0.3-0.8,0.4-1.3,0.4c-0.3,0-0.7-0.2-1-0.5c0-0.5-0.1-0.8-0.3-1
		c-0.2-0.1-0.5-0.2-1.1-0.2c-1.1,0-1.9,1.3-2.3,4c-0.2,1.5-0.4,3.3-0.4,5.3c0.1,0,0.3,0,0.5,0c0.2,0,0.4,0,0.5,0
		c1,0,1.8,0.4,2.2,1.2l-0.3,1.4c-0.5,0.2-1.3,0.4-2.5,0.4c-0.2,0-0.4,0-0.5,0c-0.1,0.8-0.1,1.7-0.1,2.7v3.4c0,1.3,0.2,2.7,0.6,4.1
		c-1,0.5-1.7,0.8-2.1,0.8c-0.6,0-1.1-0.5-1.4-1.4c-0.3-0.7-0.5-1.5-0.5-2.2c0-0.5,0-2.9,0.2-7.2c-0.8,0.1-1.2,0.1-1.2,0.1
		c-0.4,0-0.8-0.1-1.1-0.4s-0.5-0.6-0.5-1.1c0-0.8,0.3-1.3,1-1.5c0.3-0.1,1-0.1,1.9-0.1c0.1-0.2,0.1-1,0.1-2.3c0-2.6,0.4-4.8,1.2-6.7
		c1.1-2.5,2.8-3.7,5.1-3.7c1.1,0,2,0.2,2.8,0.8C385.3,450.5,385.7,451.3,385.7,452.4z"/>
	<path class="st19" d="M395.8,471.5c0,1.2-0.9,2.2-2.5,2.9c-1.3,0.5-2.7,0.8-4.2,0.8c-3.8,0-5.8-2.2-5.8-6.6c0-1.8,0.4-3.8,1.3-6
		c1.1-2.7,2.4-4,3.9-4c1.4,0,2.9,0.6,4.4,1.8c1.6,1.2,2.4,2.5,2.4,3.8c0,1.7-0.7,3-2.2,3.9c-1.3,0.9-2.8,1.3-4.6,1.3
		c-0.4,0-0.9-0.2-1.7-0.6c0.1,2.4,0.8,3.6,2.1,3.6c1.1,0,2.2-0.3,3.2-0.9c1.1-0.6,1.7-0.9,2-0.9
		C395.2,470.6,395.8,470.9,395.8,471.5z M391.7,464.4c0-0.6-0.2-1.2-0.5-1.8s-0.8-0.8-1.4-0.8c-0.8,0-1.5,0.4-1.9,1.1
		c-0.4,0.6-0.6,1.4-0.6,2.2c0,0.5,0.2,0.9,0.5,1.2c0.3,0.3,0.7,0.5,1.2,0.5C390.8,466.7,391.7,465.9,391.7,464.4z"/>
	<path class="st19" d="M407.5,461.9c0,0.2,0,0.5-0.1,0.8c-0.5,0.8-1.1,1.1-1.6,1.1c-0.5,0-0.9-0.3-1.3-0.8c-0.1-1.1-0.5-1.7-1.2-1.7
		c-0.5,0-1,1.2-1.6,3.6c-0.3,1.1-0.5,2.5-0.5,4.4c0,1.8,0.1,2.9,0.2,3.2c0.2,0.5,0.3,0.8,0.3,1c0,0.4-0.2,0.8-0.6,1
		s-0.8,0.4-1.3,0.4c-1.3,0-2-0.6-2-1.9c0-0.1,0-0.3,0.1-0.5c0.1-0.2,0.1-0.4,0.1-0.5c0-1.3-0.1-3.2-0.2-5.7s-0.2-4.4-0.2-5.6
		c0-1.1,0.7-1.7,2-1.7c0.8,0,1.3,0.2,1.6,0.7c0.7-0.8,1.5-1.2,2.4-1.2c0.6,0,1.2,0.2,1.7,0.5c0.4,0.2,0.8,0.6,1.3,1.3
		S407.5,461.5,407.5,461.9z"/>
	<path class="st19" d="M413.9,460.3c0,0.5-0.1,1.1-0.3,1.9c-0.2,0.8-0.3,1.5-0.3,1.9v7.7c0,0.5,0.1,1.2,0.4,2.2
		c-0.4,0.6-0.8,0.9-1.2,0.9c-1.6,0-2.5-0.8-2.6-2.4c-0.2-2.9-0.4-5.1-0.4-6.6c0-2.5,0.1-4.5,0.3-6.2c0-0.1,0-0.2,0-0.4
		c0-0.4,0.3-0.7,1-0.7c0.6,0,1.2,0.1,1.9,0.4C413.5,459.4,413.9,459.8,413.9,460.3z M414.3,455.1c0,0.5-0.2,1-0.6,1.3
		c-0.4,0.4-0.8,0.5-1.4,0.5c-0.7,0-1.3-0.2-1.8-0.7s-0.8-1-0.8-1.7c0-0.5,0.2-1,0.6-1.3c0.4-0.3,0.9-0.5,1.4-0.5
		c0.7,0,1.3,0.2,1.8,0.7C414,453.9,414.3,454.4,414.3,455.1z"/>
	<path class="st19" d="M429.4,474.5c-0.4,0.6-0.8,0.9-1.4,0.9c-0.4,0-1.1-0.2-2.1-0.8v-0.4c0-0.5,0-1.4,0-2.4c0-1.1,0-1.9,0-2.4
		c0-5.3-0.8-8-2.4-8c-0.4,0-1,0.4-1.5,1c-1.8,2.2-2.6,4.7-2.6,7.8c0,0.4,0.1,1.1,0.2,1.9c0.2,0.8,0.2,1.5,0.2,1.9
		c0,0.4-0.2,0.6-0.5,0.9c-0.3,0.2-0.7,0.3-1,0.3c-1.5,0-2.2-1-2.2-2.8v-7.8c0-0.2,0-0.5,0.1-0.9c0-0.4,0.1-0.7,0.1-0.9
		c0-0.3,0-0.7-0.1-1.3c-0.1-0.6-0.1-1-0.1-1.3c0-0.4,0.2-0.8,0.7-1.1c0.5-0.4,0.9-0.5,1.3-0.5c0.5,0,1.1,0.3,1.7,0.9l-0.1,1.5
		c0.9-1.5,2.1-2.2,3.4-2.2c0.9,0,1.8,0.3,2.8,0.9c1,0.6,1.7,1.3,2.1,2c1,1.9,1.5,4.4,1.5,7.5V474.5z"/>
	<path class="st19" d="M444.9,463.6c-0.1,0.6-0.2,1.7-0.5,3.3c-0.2,1.4-0.4,2.5-0.4,3.3c0,0.8,0,1.9,0.1,3.4
		c0.1,1.5,0.1,2.6,0.1,3.4c0,1.5-0.2,2.7-0.5,3.4c-0.4,1-1,1.7-2,2.3c-1,0.6-2,0.9-3,0.9c-1.1,0-2.5-0.3-4.1-0.9
		c-2-0.7-2.9-1.5-2.9-2.3c0-1.1,0.5-1.7,1.5-1.7c0.5,0,0.8,0.1,1,0.4c0.3,0.5,0.5,0.8,0.7,0.9c0.1,0.1,0.5,0.2,1.2,0.4
		s1.2,0.2,1.5,0.2c2.2,0,3.4-1.4,3.4-4.2c0-0.8,0-1.5-0.1-2.1c-1.1,0.9-2.4,1.4-3.9,1.4c-0.6,0-1.3-0.2-2.1-0.5
		c-0.8-0.4-1.4-0.8-1.8-1.2c-0.8-0.9-1.2-2.2-1.2-4c0-2.1,0.5-4.5,1.5-7c1.2-3.1,2.7-4.7,4.4-4.7c1.1,0,2,0.5,3,1.5
		c0.7,0.9,1.4,1.8,2.1,2.7c0.2,0.2,0.5,0.5,0.9,0.7C444.4,463.3,444.8,463.5,444.9,463.6z M441.1,465.9c0-0.4-0.2-0.7-0.5-0.9
		c-0.2-2.3-1-3.5-2.4-3.5c-0.8,0-1.5,1.2-2.1,3.5c-0.4,1.8-0.6,3.3-0.6,4.6c0,2.5,0.6,3.7,1.9,3.7c1.2,0,2.1-1,2.8-2.9
		C440.9,468.9,441.1,467.4,441.1,465.9z"/>
</g>
<g class="st18">
	<path class="st20" d="M180.1,338.6c0,0.6-0.2,1.4-0.5,2.3c-0.8,2.2-2.4,3.9-4.7,5.2c-2.1,1.1-4.4,1.7-6.9,1.7
		c-4.1,0-7.2-1.5-9.5-4.6c-1.9-2.7-2.9-6.2-2.9-10.4c0-3.5,0.6-6.8,1.7-9.9c1.2-3.5,3-6.3,5.4-8.3c1.9-1.6,3.8-2.3,5.8-2.3
		c2.8,0,5,1.2,6.4,3.7c1.2,2,1.8,4.5,1.8,7.5c0,1.4-0.4,3.1-1.1,5.2c-0.8,2.5-1.8,3.8-2.8,3.8c-1.2,0-2.1-0.7-2.6-2.2
		c0.3-0.2,0.8-0.6,1.4-1.1c0.7-0.7,1-2.2,1-4.3c0-2.1-0.2-3.8-0.6-5.2c-0.7-2.2-1.8-3.2-3.3-3.2c-1.1,0-2.2,0.7-3.5,2
		c-1,1-1.8,2.2-2.4,3.4c-1.6,3.2-2.5,7.2-2.5,11.9c0,6.9,2.6,10.4,7.8,10.4c2.2,0,4-0.6,5.3-1.9c0.5-0.6,1.3-1.7,2.4-3.5
		c0.7-1.3,1.4-1.9,2.2-1.9c0.5,0,1,0.2,1.4,0.6S180.1,338.1,180.1,338.6z"/>
	<path class="st20" d="M201.8,338.3c0,4.3-0.1,7.3-0.4,9.1c-0.2,1-0.9,1.6-2.1,1.6c-1.9,0-2.7-0.9-2.5-2.8c-1.7,0.8-3.4,1.2-5.2,1.2
		c-1.7,0-3.4-0.4-4.9-1.3c-1.9-1-2.8-2.3-2.8-4c0-1.6,1.1-3,3.2-4.4c1.9-1.2,3.8-1.9,5.5-1.9h4.2v-1.2c0-3.5-1-5.2-3.1-5.2
		c-2.6,0-4,1.2-4,3.7c0,0.8-0.5,1.2-1.4,1.2c-0.6,0-1.2-0.3-1.8-0.8c-0.6-0.5-0.9-1.1-0.9-1.6c0-1.9,0.7-3.4,2-4.6
		c1.3-1.2,2.9-1.8,4.8-1.8C198.6,325.5,201.8,329.8,201.8,338.3z M196.7,340.1c0-0.7-0.5-1-1.5-1c-4.2,0-6.2,1-6.2,3
		c0,1.1,0.9,1.6,2.8,1.6c1.1,0,2.2-0.3,3.2-0.9C196.1,342,196.7,341.1,196.7,340.1z"/>
	<path class="st20" d="M218.8,329.6c0,0.2,0,0.6-0.1,1.1c-0.7,1-1.4,1.5-2.2,1.5c-0.6,0-1.2-0.4-1.7-1.1c-0.1-1.5-0.6-2.2-1.6-2.2
		c-0.6,0-1.3,1.6-2.2,4.8c-0.4,1.4-0.6,3.4-0.6,5.9c0,2.4,0.1,3.8,0.3,4.3c0.2,0.6,0.4,1.1,0.4,1.3c0,0.6-0.3,1-0.8,1.4
		s-1.1,0.5-1.7,0.5c-1.8,0-2.7-0.8-2.7-2.5c0-0.2,0-0.4,0.1-0.7c0.1-0.3,0.1-0.5,0.1-0.7c0-1.7-0.1-4.2-0.2-7.6
		c-0.2-3.3-0.2-5.9-0.2-7.5c0-1.5,0.9-2.2,2.7-2.2c1.1,0,1.8,0.3,2.2,1c0.9-1,2-1.6,3.1-1.6c0.8,0,1.6,0.2,2.3,0.7
		c0.5,0.3,1.1,0.8,1.8,1.7C218.5,328.4,218.8,329.1,218.8,329.6z"/>
	<path class="st20" d="M238,335.4c0,3-0.5,5.5-1.5,7.6c-1.3,2.7-3.4,4-6.1,4c-0.9,0-2.2-0.3-4.1-0.9c0,0.2,0,0.4,0,0.6
		c0,1.1-0.6,1.7-1.9,1.7c-0.9,0-1.6-0.3-2.2-1c-0.3-0.3-0.5-1.3-0.7-3.1c-0.2-1.5-0.2-2.6-0.2-3.4v-0.2l0.8-28.2
		c0.5-0.8,1.2-1.2,1.9-1c0.2-0.1,0.3-0.1,0.5-0.1c0.6,0,1.2,0.4,1.7,1.1c0.5,0.7,0.8,1.4,0.8,2c0,1.4-0.1,3.3-0.4,5.8
		c-0.3,2.8-0.5,4.7-0.5,5.7c1-1.2,2.2-1.8,3.8-1.8c1.8,0,3.5,0.7,4.9,2c1.5,1.3,2.4,2.9,2.9,4.8C237.8,332,238,333.5,238,335.4z
		 M233.3,335.1c0-4.5-0.9-6.8-2.8-6.8c-1.6,0-2.8,1.2-3.6,3.5c-0.6,1.7-0.9,3.6-0.9,5.5c0,4.2,1.3,6.3,3.8,6.3
		C232.1,343.6,233.3,340.7,233.3,335.1z"/>
	<path class="st20" d="M259.2,336.9c0,3-0.8,5.6-2.2,7.7c-1.7,2.4-4,3.7-6.9,3.7c-2.9,0-5.1-1-6.6-3c-1.4-1.8-2.1-4.2-2.1-7.2
		c0-3,0.8-5.8,2.2-8.5c1.7-3.2,4-4.8,6.8-4.8c0.9,0,2,0.4,3.2,1.2C257.4,328.2,259.2,331.9,259.2,336.9z M254.8,336.8
		c0-5.1-1.2-7.6-3.7-7.6c-1.8,0-3.1,1.1-4,3.2c-0.7,1.6-1,3.5-1,5.5c0,4.4,1.3,6.6,4,6.6c1.7,0,3-0.9,3.8-2.8
		C254.5,340.5,254.8,338.8,254.8,336.8z"/>
	<path class="st20" d="M280.2,346.4c-0.5,0.8-1.1,1.1-1.9,1.1c-0.6,0-1.5-0.3-2.8-1V346c0-0.7,0-1.8,0-3.2c0-1.4,0.1-2.5,0.1-3.2
		c0-7.1-1.1-10.7-3.2-10.7c-0.6,0-1.3,0.5-2,1.4c-2.4,2.9-3.5,6.3-3.5,10.3c0,0.6,0.1,1.4,0.3,2.5c0.2,1.1,0.3,2,0.3,2.5
		c0,0.5-0.2,0.8-0.6,1.1c-0.4,0.3-0.9,0.5-1.4,0.5c-2,0-3-1.3-3-3.8V333c0-0.3,0-0.7,0.1-1.2c0.1-0.5,0.1-0.9,0.1-1.2
		c0-0.4-0.1-1-0.2-1.8c-0.1-0.8-0.2-1.3-0.2-1.7c0-0.5,0.3-1,0.9-1.5c0.6-0.5,1.2-0.7,1.7-0.7c0.7,0,1.5,0.4,2.2,1.2l-0.1,2
		c1.2-2,2.8-3,4.5-3c1.2,0,2.4,0.4,3.7,1.2s2.2,1.7,2.9,2.7c1.4,2.5,2,5.9,2,10V346.4z"/>
	<path class="st20" d="M297.4,327.5c0,0.6-0.1,1.5-0.4,2.5c-0.3,1.1-0.4,2-0.4,2.5v10.3c0,0.6,0.2,1.6,0.6,3
		c-0.5,0.8-1.1,1.1-1.7,1.1c-2.1,0-3.3-1-3.5-3.1c-0.3-3.9-0.5-6.8-0.5-8.8c0-3.3,0.1-6.1,0.4-8.3c0-0.2,0-0.3,0-0.5
		c0-0.6,0.5-0.9,1.4-0.9c0.8,0,1.7,0.2,2.5,0.5C296.8,326.3,297.4,326.8,297.4,327.5z M297.8,320.5c0,0.7-0.2,1.3-0.8,1.8
		c-0.5,0.5-1.1,0.7-1.9,0.7c-0.9,0-1.7-0.3-2.4-0.9c-0.8-0.6-1.1-1.3-1.1-2.2c0-0.7,0.3-1.3,0.8-1.8c0.5-0.5,1.2-0.7,1.9-0.7
		c0.9,0,1.7,0.3,2.4,0.9C297.5,318.9,297.8,319.6,297.8,320.5z"/>
	<path class="st20" d="M318,346.4c-0.5,0.8-1.1,1.1-1.9,1.1c-0.6,0-1.5-0.3-2.8-1V346c0-0.7,0-1.8,0-3.2c0-1.4,0.1-2.5,0.1-3.2
		c0-7.1-1.1-10.7-3.2-10.7c-0.6,0-1.3,0.5-2,1.4c-2.4,2.9-3.5,6.3-3.5,10.3c0,0.6,0.1,1.4,0.3,2.5c0.2,1.1,0.3,2,0.3,2.5
		c0,0.5-0.2,0.8-0.6,1.1c-0.4,0.3-0.9,0.5-1.4,0.5c-2,0-3-1.3-3-3.8V333c0-0.3,0-0.7,0.1-1.2s0.1-0.9,0.1-1.2c0-0.4-0.1-1-0.2-1.8
		c-0.1-0.8-0.2-1.3-0.2-1.7c0-0.5,0.3-1,0.9-1.5c0.6-0.5,1.2-0.7,1.7-0.7c0.7,0,1.5,0.4,2.2,1.2l-0.2,2c1.2-2,2.8-3,4.5-3
		c1.2,0,2.4,0.4,3.7,1.2s2.2,1.7,2.9,2.7c1.4,2.5,2,5.9,2,10V346.4z"/>
	<path class="st20" d="M331.6,328.9c0,0.9-1.4,1.5-4.1,1.9c-0.1,0.7-0.1,2.4-0.1,5v3.3c0,0.7,0.1,1.7,0.3,3s0.3,2.3,0.3,2.9
		c0,0.5-0.3,1-0.8,1.4s-1.1,0.6-1.6,0.6c-0.8,0-1.5-0.7-2.1-2.2c-0.4-1.1-0.6-2.2-0.6-3.2V331c-1.5-0.2-2.4-0.4-2.7-0.5
		c-0.9-0.3-1.3-0.6-1.3-1.1c0-0.1,0-0.3,0.1-0.5c0.9-1.2,1.8-1.9,2.9-1.9c0.1,0,0.2,0,0.3,0c0.1,0,0.2,0.1,0.3,0.1
		c0.7,0,1-0.8,1-2.5v-3.7c-0.2-0.4-0.2-0.7-0.2-1c0-0.4,0.3-0.8,0.8-1.2c0.5-0.3,1-0.5,1.5-0.5c0.7,0,1.4,0.3,2,1s0.9,1.3,0.9,2.1
		c0,0.8-0.1,1.6-0.4,2.4s-0.4,1.6-0.3,2.4v0.2C330.3,326.7,331.6,327.5,331.6,328.9z"/>
	<path class="st20" d="M349.2,342.4c0,1.7-1.1,3-3.4,3.9c-1.8,0.7-3.6,1.1-5.5,1.1c-5.1,0-7.7-2.9-7.7-8.8c0-2.4,0.6-5.1,1.8-8
		c1.4-3.6,3.2-5.4,5.2-5.4c1.8,0,3.8,0.8,5.9,2.5s3.2,3.3,3.2,5.1c0,2.2-1,4-3,5.2c-1.7,1.2-3.8,1.8-6.2,1.8c-0.5,0-1.2-0.3-2.2-0.8
		c0.1,3.2,1.1,4.8,2.8,4.8c1.5,0,2.9-0.4,4.3-1.2c1.4-0.8,2.3-1.2,2.7-1.2C348.5,341.2,349.2,341.6,349.2,342.4z M343.8,332.9
		c0-0.8-0.2-1.6-0.7-2.4c-0.5-0.8-1.1-1.1-1.9-1.1c-1.1,0-2,0.5-2.6,1.4c-0.5,0.8-0.8,1.8-0.8,3c0,0.6,0.2,1.2,0.7,1.5
		c0.4,0.4,1,0.6,1.7,0.6C342.6,336,343.8,335,343.8,332.9z"/>
	<path class="st20" d="M369.9,346.4c-0.5,0.8-1.1,1.1-1.9,1.1c-0.6,0-1.5-0.3-2.8-1V346c0-0.7,0-1.8,0-3.2c0-1.4,0.1-2.5,0.1-3.2
		c0-7.1-1.1-10.7-3.2-10.7c-0.6,0-1.3,0.5-2,1.4c-2.4,2.9-3.5,6.3-3.5,10.3c0,0.6,0.1,1.4,0.3,2.5c0.2,1.1,0.3,2,0.3,2.5
		c0,0.5-0.2,0.8-0.6,1.1c-0.4,0.3-0.9,0.5-1.4,0.5c-2,0-3-1.3-3-3.8V333c0-0.3,0-0.7,0.1-1.2s0.1-0.9,0.1-1.2c0-0.4-0.1-1-0.2-1.8
		c-0.1-0.8-0.2-1.3-0.2-1.7c0-0.5,0.3-1,0.9-1.5c0.6-0.5,1.2-0.7,1.7-0.7c0.7,0,1.5,0.4,2.2,1.2l-0.2,2c1.2-2,2.8-3,4.5-3
		c1.2,0,2.4,0.4,3.7,1.2s2.2,1.7,2.9,2.7c1.4,2.5,2,5.9,2,10V346.4z"/>
	<path class="st20" d="M390.2,341.7c0,1.6-0.7,2.9-2,4.1c-1.5,1.3-3.4,1.9-5.9,1.9c-1.1,0-2.2-0.2-3.5-0.7c-4-1.5-6-2.7-6-3.6
		c0-1.5,1-2.2,3.2-2.2c0.3,0,0.6,0,0.9,0c0.1,1,0.9,1.8,2.4,2.4c1.3,0.5,2.5,0.8,3.8,0.6c1-0.1,1.5-0.4,1.5-1c0-0.1,0-0.2-0.1-0.5
		s-0.1-0.4-0.1-0.5c0-0.1-0.6-0.4-1.9-0.8c-1.4-0.4-2.2-0.7-2.4-0.8c-3.8-2.3-5.7-5-5.7-8.2c0-1.9,0.5-3.7,1.7-5.3
		c1.2-1.8,2.8-2.7,4.6-2.7c1.4,0,2.9,0.5,4.7,1.6s2.8,2.2,3.2,3.4c0.3,0.9,0.4,1.6,0.4,2.2c0,0.6-0.1,1.1-0.2,1.5
		c-0.2,0.5-0.4,1-0.6,1.5c-0.6,0.4-1.3,0.7-1.9,0.7c-0.3,0-0.9-0.2-1.7-0.6s-1.2-0.8-1.2-1.1c0-0.1,0.2-0.6,0.6-1.3
		c0.2-0.4,0.4-0.8,0.4-1.1c0-2-0.8-3-2.4-3c-0.9,0-1.6,0.6-2.1,1.8c-0.4,0.9-0.5,1.9-0.5,3c0,1.3,0.9,2.5,2.8,3.6
		c1.7,0.8,3.5,1.5,5.2,2.3C389.3,339.9,390.2,340.8,390.2,341.7z"/>
	<path class="st20" d="M398.8,327.5c0,0.6-0.1,1.5-0.4,2.5c-0.3,1.1-0.4,2-0.4,2.5v10.3c0,0.6,0.2,1.6,0.6,3
		c-0.5,0.8-1.1,1.1-1.7,1.1c-2.1,0-3.3-1-3.5-3.1c-0.3-3.9-0.5-6.8-0.5-8.8c0-3.3,0.1-6.1,0.4-8.3c0-0.2,0-0.3,0-0.5
		c0-0.6,0.5-0.9,1.4-0.9c0.8,0,1.7,0.2,2.5,0.5C398.3,326.3,398.8,326.8,398.8,327.5z M399.3,320.5c0,0.7-0.2,1.3-0.8,1.8
		c-0.5,0.5-1.1,0.7-1.9,0.7c-0.9,0-1.7-0.3-2.4-0.9c-0.8-0.6-1.1-1.3-1.1-2.2c0-0.7,0.3-1.3,0.8-1.8c0.5-0.5,1.2-0.7,1.9-0.7
		c0.9,0,1.7,0.3,2.4,0.9C398.9,318.9,399.3,319.6,399.3,320.5z"/>
	<path class="st20" d="M411.8,328.9c0,0.9-1.4,1.5-4.1,1.9c-0.1,0.7-0.1,2.4-0.1,5v3.3c0,0.7,0.1,1.7,0.3,3s0.3,2.3,0.3,2.9
		c0,0.5-0.3,1-0.8,1.4s-1.1,0.6-1.6,0.6c-0.8,0-1.5-0.7-2.1-2.2c-0.4-1.1-0.6-2.2-0.6-3.2V331c-1.5-0.2-2.4-0.4-2.7-0.5
		c-0.9-0.3-1.3-0.6-1.3-1.1c0-0.1,0-0.3,0.1-0.5c0.9-1.2,1.8-1.9,2.9-1.9c0.1,0,0.2,0,0.3,0c0.1,0,0.2,0.1,0.3,0.1
		c0.7,0,1-0.8,1-2.5v-3.7c-0.2-0.4-0.2-0.7-0.2-1c0-0.4,0.3-0.8,0.8-1.2c0.5-0.3,1-0.5,1.5-0.5c0.7,0,1.4,0.3,2,1s0.9,1.3,0.9,2.1
		c0,0.8-0.1,1.6-0.4,2.4s-0.4,1.6-0.3,2.4v0.2C410.5,326.7,411.8,327.5,411.8,328.9z"/>
	<path class="st20" d="M430.8,327.6c-0.3,1.7-0.6,3.3-0.9,5c-0.3,1.9-0.5,3.6-0.5,5v13.6c0,2.5-0.7,4.4-2.1,5.7s-3.4,2-5.8,2
		c-1.6,0-3.4-0.4-5.3-1.2c-2.3-1-3.5-2.1-3.5-3.5c0-0.5,0.2-0.9,0.6-1.2c0.4-0.3,0.8-0.5,1.3-0.5c0.3,0,1,0.5,2.1,1.3
		c1.1,0.9,2.4,1.4,3.9,1.4c1.9,0,3.1-0.7,3.8-2c0.5-0.9,0.7-2.4,0.7-4.5c0-0.8,0-1.4,0-1.9c-1.1,0.7-2.3,1.1-3.7,1.1
		c-2.5,0-4.4-0.9-5.8-2.7c-1.2-1.6-1.9-3.7-1.9-6.2c0-0.3,0.2-4.5,0.5-12.6c1-0.4,1.8-0.6,2.4-0.6c0.7,0,1.6,0.4,3,1.2
		c-0.8,2-1.2,6-1.2,12c0,3.8,1,5.8,2.9,5.8c1.4,0,2.5-1.2,3.3-3.6c0.6-1.7,0.8-3.5,0.8-5.4v-6.1c0,0,0-0.5-0.2-1.7
		c1.4-0.7,2.4-1,3.1-1C429,326.6,429.8,326.9,430.8,327.6z"/>
</g>
</svg>
