<svg id="svg" version="1.1" width="400" height="187.5" viewBox="0 0 400 187.5" xmlns="http://www.w3.org/2000/svg" xmlns:xlink="http://www.w3.org/1999/xlink" ><g id="svgg"><path id="path0" d="M273.820 0.338 C 273.679 0.533,273.296 0.694,272.911 0.720 C 272.545 0.745,272.007 0.888,271.716 1.039 C 271.424 1.189,271.032 1.313,270.843 1.313 C 270.655 1.313,270.325 1.436,270.109 1.587 C 269.894 1.738,269.436 1.911,269.091 1.971 C 268.746 2.032,268.376 2.151,268.268 2.235 C 268.035 2.418,265.870 3.169,265.344 3.249 C 265.140 3.280,264.874 3.406,264.751 3.528 C 264.629 3.650,264.417 3.751,264.279 3.751 C 264.142 3.751,263.547 3.949,262.957 4.192 C 260.963 5.011,261.114 4.959,260.243 5.127 C 259.958 5.182,259.594 5.358,259.432 5.520 C 259.271 5.681,258.896 5.813,258.599 5.813 C 258.302 5.813,257.991 5.919,257.909 6.049 C 257.770 6.267,255.933 6.969,255.509 6.966 C 255.406 6.966,255.195 7.076,255.040 7.212 C 254.667 7.539,253.164 8.210,252.590 8.305 C 252.339 8.346,251.899 8.477,251.613 8.594 C 251.326 8.712,250.876 8.848,250.612 8.895 C 250.348 8.943,250.033 9.061,249.913 9.158 C 249.793 9.254,249.400 9.395,249.039 9.470 C 248.678 9.546,248.298 9.671,248.195 9.749 C 248.092 9.827,247.670 9.997,247.257 10.127 C 246.845 10.257,246.423 10.427,246.320 10.504 C 246.217 10.582,245.837 10.708,245.476 10.783 C 245.115 10.858,244.705 11.013,244.564 11.126 C 244.424 11.239,244.087 11.362,243.815 11.398 C 243.543 11.435,243.252 11.585,243.170 11.733 C 243.087 11.881,242.839 12.002,242.619 12.002 C 242.399 12.002,241.833 12.179,241.363 12.395 C 239.668 13.173,239.190 13.408,238.940 13.586 C 238.801 13.686,238.548 13.787,238.378 13.812 C 238.055 13.859,236.263 14.646,236.099 14.813 C 235.894 15.021,234.417 15.752,234.202 15.752 C 234.076 15.752,233.839 15.869,233.676 16.011 C 233.513 16.153,233.000 16.472,232.536 16.720 C 232.072 16.968,231.335 17.400,230.899 17.681 C 230.463 17.961,230.019 18.190,229.913 18.190 C 229.806 18.190,229.299 18.486,228.786 18.847 C 228.272 19.208,227.773 19.503,227.677 19.503 C 227.581 19.503,227.115 19.798,226.642 20.159 C 226.169 20.520,225.740 20.816,225.689 20.816 C 225.569 20.816,222.534 22.895,222.410 23.062 C 222.358 23.131,221.789 23.543,221.144 23.978 C 220.499 24.412,219.972 24.849,219.972 24.948 C 219.972 25.048,219.888 25.129,219.786 25.129 C 219.600 25.129,219.086 25.506,218.443 26.113 C 218.253 26.294,218.029 26.442,217.947 26.442 C 217.865 26.442,217.591 26.691,217.338 26.996 C 217.085 27.301,216.820 27.554,216.749 27.559 C 216.678 27.563,216.170 28.010,215.620 28.551 C 215.070 29.093,214.453 29.670,214.249 29.833 C 212.807 30.986,206.282 38.176,206.282 38.611 C 206.282 38.725,206.217 38.819,206.137 38.819 C 206.057 38.819,205.614 39.333,205.153 39.962 C 204.691 40.591,203.916 41.646,203.430 42.306 C 202.944 42.967,202.592 43.507,202.647 43.507 C 202.701 43.507,202.571 43.729,202.358 44.001 C 202.144 44.273,201.969 44.610,201.969 44.751 C 201.969 44.892,201.886 45.007,201.784 45.007 C 201.682 45.007,201.468 45.281,201.309 45.617 C 200.846 46.588,200.183 47.767,199.927 48.077 C 199.469 48.629,197.468 52.533,197.468 52.875 C 197.468 52.983,197.384 53.071,197.281 53.071 C 197.178 53.071,197.093 53.218,197.092 53.399 C 197.091 53.579,196.923 53.980,196.718 54.290 C 196.513 54.599,196.345 54.994,196.344 55.167 C 196.344 55.340,196.230 55.596,196.091 55.734 C 195.952 55.873,195.781 56.293,195.711 56.667 C 195.641 57.040,195.464 57.445,195.319 57.565 C 195.174 57.686,195.057 57.926,195.059 58.100 C 195.063 58.462,194.435 60.244,194.253 60.384 C 194.186 60.436,194.030 60.858,193.906 61.322 C 193.782 61.786,193.613 62.250,193.529 62.353 C 193.445 62.457,193.319 62.879,193.249 63.291 C 193.179 63.704,193.009 64.294,192.871 64.604 C 192.733 64.913,192.593 65.420,192.560 65.729 C 192.526 66.038,192.393 66.403,192.264 66.539 C 192.135 66.676,192.021 66.929,192.010 67.102 C 191.948 68.071,191.885 68.408,191.671 68.917 C 191.541 69.226,191.390 69.902,191.334 70.417 C 191.279 70.933,191.160 71.498,191.069 71.673 C 190.977 71.847,190.855 72.438,190.797 72.985 C 190.738 73.533,190.575 74.328,190.433 74.752 C 190.292 75.177,190.160 76.063,190.140 76.721 C 190.120 77.380,189.987 78.256,189.843 78.669 C 189.700 79.081,189.538 80.220,189.484 81.200 C 189.380 83.085,189.320 83.650,189.093 84.857 C 188.913 85.822,188.896 94.358,189.069 97.046 C 189.142 98.181,189.250 100.248,189.308 101.641 C 189.367 103.033,189.508 104.721,189.623 105.391 C 189.855 106.747,189.904 107.141,190.158 109.705 C 190.387 112.008,190.377 111.955,190.572 111.955 C 190.664 111.955,190.699 112.020,190.651 112.099 C 190.512 112.323,190.888 115.324,191.106 115.732 C 191.214 115.932,191.329 116.409,191.363 116.792 C 191.397 117.174,191.481 117.698,191.551 117.956 C 191.620 118.214,191.708 118.551,191.745 118.706 C 191.783 118.861,191.827 118.987,191.842 118.987 C 191.902 118.987,192.017 119.763,192.060 120.453 C 192.085 120.846,192.174 121.211,192.258 121.263 C 192.342 121.315,192.363 121.436,192.303 121.532 C 192.244 121.628,192.285 121.707,192.394 121.707 C 192.503 121.707,192.596 122.065,192.599 122.504 C 192.603 122.942,192.726 123.511,192.874 123.769 C 193.021 124.027,193.145 124.491,193.149 124.801 C 193.152 125.110,193.324 125.807,193.530 126.350 C 193.737 126.892,193.905 127.583,193.905 127.884 C 193.905 128.185,194.032 128.557,194.187 128.712 C 194.341 128.867,194.468 129.196,194.468 129.443 C 194.468 129.690,194.763 130.729,195.124 131.753 C 195.485 132.776,195.781 133.741,195.781 133.898 C 195.781 134.055,195.950 134.498,196.156 134.883 C 196.362 135.268,196.495 135.584,196.452 135.584 C 196.346 135.584,197.086 137.687,197.276 137.928 C 197.358 138.031,197.486 138.411,197.561 138.772 C 197.635 139.133,197.850 139.681,198.037 139.991 C 198.225 140.300,198.371 140.595,198.362 140.647 C 198.320 140.890,198.871 142.295,199.182 142.739 C 199.374 143.013,199.531 143.445,199.531 143.700 C 199.531 143.955,199.658 144.269,199.812 144.398 C 199.967 144.526,200.094 144.757,200.094 144.910 C 200.094 145.063,200.344 145.665,200.650 146.247 C 200.956 146.828,201.293 147.515,201.400 147.773 C 201.506 148.031,201.678 148.390,201.781 148.570 C 201.884 148.751,202.054 149.046,202.158 149.226 C 202.262 149.407,202.394 149.681,202.451 149.836 C 202.685 150.464,203.384 151.809,203.506 151.864 C 203.577 151.896,203.731 152.213,203.848 152.567 C 203.965 152.922,204.139 153.211,204.234 153.211 C 204.329 153.211,204.407 153.327,204.407 153.467 C 204.407 153.608,204.566 153.926,204.760 154.173 C 205.073 154.571,205.643 155.569,206.778 157.712 C 206.970 158.073,207.175 158.410,207.235 158.462 C 207.294 158.514,207.582 158.999,207.874 159.541 C 208.166 160.082,208.466 160.525,208.540 160.525 C 208.615 160.525,208.903 160.989,209.181 161.556 C 209.458 162.124,209.758 162.588,209.846 162.588 C 209.935 162.588,210.067 162.774,210.139 163.001 C 210.211 163.228,210.385 163.530,210.526 163.671 C 210.667 163.812,210.783 164.089,210.783 164.287 C 210.783 164.486,210.952 164.753,211.158 164.882 C 211.364 165.011,211.533 165.222,211.533 165.352 C 211.533 165.482,211.617 165.588,211.721 165.588 C 211.824 165.588,211.908 165.715,211.908 165.870 C 211.908 166.024,212.056 166.301,212.236 166.485 C 212.417 166.668,212.760 167.216,212.998 167.701 C 213.237 168.187,213.680 168.832,213.983 169.134 C 214.286 169.437,214.534 169.805,214.534 169.952 C 214.534 170.099,214.681 170.393,214.862 170.605 C 215.042 170.818,215.316 171.177,215.471 171.403 C 216.270 172.570,217.196 173.753,217.355 173.808 C 217.453 173.843,217.534 173.984,217.534 174.123 C 217.534 174.262,217.642 174.487,217.775 174.623 C 217.907 174.760,218.222 175.165,218.475 175.525 C 218.728 175.884,219.084 176.328,219.266 176.509 C 219.448 176.691,219.597 176.967,219.597 177.121 C 219.597 177.276,219.723 177.403,219.878 177.403 C 220.033 177.403,220.159 177.532,220.159 177.690 C 220.159 177.848,220.286 178.026,220.441 178.085 C 220.595 178.144,220.722 178.265,220.722 178.352 C 220.722 178.644,221.852 180.162,222.832 181.185 C 223.012 181.374,223.160 181.582,223.160 181.648 C 223.160 181.714,223.624 182.343,224.191 183.045 C 224.759 183.747,225.223 184.364,225.223 184.417 C 225.223 184.469,225.413 184.715,225.645 184.963 C 226.337 185.704,227.562 187.186,227.629 187.364 C 227.752 187.688,397.187 187.572,397.187 187.248 C 397.187 187.093,397.262 186.967,397.353 186.967 C 397.444 186.967,398.014 186.505,398.619 185.941 C 399.224 185.377,399.782 184.913,399.859 184.909 C 400.248 184.894,400.014 49.231,399.625 48.989 C 399.419 48.860,399.250 48.667,399.250 48.561 C 399.250 48.454,399.165 48.265,399.061 48.140 C 398.859 47.896,397.483 46.068,396.964 45.351 C 396.789 45.110,396.433 44.618,396.171 44.257 C 395.910 43.896,395.612 43.411,395.509 43.179 C 395.406 42.947,395.235 42.757,395.129 42.757 C 395.023 42.757,394.937 42.634,394.937 42.485 C 394.937 42.335,394.827 42.145,394.693 42.063 C 394.559 41.980,394.245 41.617,393.995 41.256 C 393.361 40.340,393.214 40.160,392.733 39.709 C 392.501 39.492,392.311 39.209,392.311 39.082 C 392.311 38.954,392.234 38.822,392.140 38.787 C 391.999 38.736,391.001 37.469,388.842 34.599 C 388.310 33.892,387.529 32.960,386.873 32.251 C 386.512 31.861,386.090 31.357,385.935 31.132 C 385.781 30.906,385.232 30.278,384.716 29.737 C 384.201 29.195,383.357 28.257,382.841 27.651 C 382.325 27.045,381.587 26.251,381.200 25.886 C 380.814 25.521,380.497 25.117,380.497 24.988 C 380.497 24.859,380.420 24.754,380.326 24.754 C 380.231 24.754,379.907 24.417,379.604 24.006 C 379.302 23.595,379.007 23.306,378.949 23.364 C 378.891 23.422,378.788 23.294,378.720 23.080 C 378.652 22.866,378.475 22.691,378.328 22.691 C 378.180 22.691,378.059 22.611,378.059 22.512 C 378.059 22.180,369.566 13.815,366.870 11.491 C 366.647 11.299,365.798 10.537,364.984 9.799 C 364.170 9.060,363.257 8.262,362.954 8.025 C 362.652 7.789,362.256 7.447,362.074 7.267 C 361.893 7.086,361.676 6.939,361.594 6.939 C 361.511 6.939,361.053 6.559,360.575 6.095 C 360.098 5.631,359.617 5.251,359.507 5.251 C 359.396 5.251,359.306 5.172,359.306 5.076 C 359.306 4.980,359.147 4.850,358.952 4.789 C 358.757 4.727,358.385 4.489,358.124 4.260 C 357.194 3.444,356.579 2.997,356.071 2.767 C 355.788 2.639,355.556 2.428,355.556 2.298 C 355.556 2.169,355.421 2.063,355.257 2.063 C 355.093 2.063,354.734 1.893,354.460 1.685 C 354.186 1.477,353.766 1.160,353.528 0.981 C 353.289 0.803,352.930 0.509,352.731 0.328 C 352.157 -0.190,274.194 -0.181,273.820 0.338 " stroke="none" fill="#fccc73" fill-rule="evenodd"></path><path id="path1" d="M0.000 93.765 L 0.000 187.529 96.109 187.529 C 148.969 187.529,192.211 187.466,192.204 187.389 C 192.196 187.311,192.027 186.995,191.828 186.685 C 191.629 186.376,191.338 185.870,191.180 185.560 C 191.022 185.251,190.727 184.744,190.524 184.435 C 190.322 184.126,190.063 183.640,189.949 183.357 C 189.836 183.073,189.667 182.841,189.574 182.841 C 189.481 182.841,189.405 182.747,189.405 182.631 C 189.405 182.516,189.119 181.946,188.771 181.365 C 188.422 180.785,187.817 179.719,187.426 178.997 C 187.036 178.275,186.529 177.346,186.300 176.934 C 184.855 174.328,180.068 164.503,178.992 161.934 C 178.840 161.572,178.594 161.001,178.446 160.666 C 178.297 160.331,178.001 159.634,177.787 159.119 C 177.573 158.603,177.272 157.942,177.119 157.650 C 176.966 157.358,176.840 156.991,176.840 156.835 C 176.840 156.679,176.717 156.327,176.567 156.053 C 176.130 155.260,175.528 153.817,175.521 153.550 C 175.518 153.415,175.392 153.141,175.240 152.941 C 175.089 152.741,174.964 152.446,174.964 152.285 C 174.963 152.124,174.836 151.751,174.682 151.455 C 174.528 151.160,174.402 150.822,174.401 150.705 C 174.400 150.588,174.277 150.256,174.126 149.967 C 173.975 149.678,173.770 149.172,173.670 148.842 C 173.476 148.205,172.966 146.742,172.773 146.273 C 172.401 145.365,171.350 142.315,171.192 141.686 C 171.091 141.277,170.938 140.855,170.854 140.748 C 170.770 140.641,170.642 140.226,170.570 139.827 C 170.497 139.427,170.366 138.963,170.277 138.795 C 170.188 138.628,169.935 137.857,169.714 137.084 C 169.493 136.310,169.227 135.424,169.123 135.115 C 168.881 134.396,168.450 132.783,168.140 131.441 C 168.007 130.864,167.840 130.299,167.770 130.186 C 167.700 130.072,167.552 129.489,167.442 128.890 C 167.332 128.291,167.176 127.717,167.095 127.614 C 167.014 127.511,166.889 127.014,166.816 126.511 C 166.743 126.008,166.613 125.417,166.526 125.198 C 166.440 124.980,166.198 123.999,165.988 123.019 C 165.779 122.039,165.515 120.816,165.401 120.300 C 164.146 114.584,163.000 106.158,162.583 99.578 C 162.376 96.310,162.373 87.623,162.578 85.326 C 162.900 81.709,163.155 79.573,163.416 78.293 C 163.563 77.571,163.782 76.474,163.902 75.856 C 164.023 75.237,164.240 74.245,164.386 73.652 C 164.532 73.059,164.763 72.089,164.900 71.496 C 165.036 70.902,165.247 70.233,165.368 70.008 C 165.489 69.782,165.588 69.454,165.588 69.278 C 165.588 68.975,166.615 66.197,167.177 64.979 C 167.319 64.669,167.743 63.657,168.118 62.729 C 168.493 61.800,168.912 60.788,169.049 60.478 C 169.697 59.016,170.694 56.887,170.849 56.634 C 170.944 56.479,171.139 56.099,171.282 55.790 C 172.481 53.209,173.565 51.125,174.745 49.133 C 175.508 47.843,176.209 46.620,176.302 46.414 C 176.395 46.207,176.617 45.814,176.796 45.539 C 176.975 45.265,177.369 44.633,177.671 44.136 C 177.973 43.638,178.289 43.146,178.373 43.041 C 178.509 42.871,179.373 41.586,181.277 38.725 C 181.620 38.209,182.064 37.576,182.263 37.318 C 182.462 37.060,183.571 35.584,184.728 34.037 C 186.634 31.487,187.440 30.482,188.939 28.786 C 189.213 28.476,189.788 27.803,190.218 27.288 C 191.667 25.554,199.026 18.059,199.682 17.649 C 199.910 17.507,202.235 15.404,203.751 13.970 C 204.369 13.384,205.171 12.711,205.532 12.474 C 205.893 12.236,206.357 11.885,206.564 11.692 C 207.259 11.042,211.867 7.501,212.017 7.501 C 212.098 7.501,212.339 7.345,212.552 7.155 C 212.765 6.964,213.783 6.232,214.815 5.527 C 219.155 2.561,220.096 1.927,220.264 1.856 C 220.741 1.655,222.785 0.265,222.785 0.141 C 222.785 0.064,172.658 0.000,111.392 0.000 L 0.000 0.000 0.000 93.765 M396.812 0.209 C 396.812 0.451,399.613 3.376,399.845 3.376 C 399.930 3.376,400.000 2.616,400.000 1.688 L 400.000 0.000 398.406 0.000 C 397.359 0.000,396.812 0.072,396.812 0.209 " stroke="none" fill="#fcbc3c" fill-rule="evenodd"></path><path id="path2" d="M223.160 0.286 C 223.160 0.443,222.970 0.658,222.738 0.763 C 222.072 1.064,221.503 1.414,221.130 1.751 C 220.941 1.923,220.734 2.063,220.670 2.063 C 220.606 2.063,220.178 2.316,219.720 2.625 C 219.261 2.935,218.828 3.188,218.757 3.188 C 218.686 3.188,218.268 3.483,217.828 3.844 C 217.387 4.205,216.963 4.501,216.885 4.501 C 216.808 4.501,216.399 4.775,215.976 5.110 C 215.554 5.445,215.059 5.804,214.876 5.907 C 214.693 6.010,214.056 6.437,213.460 6.856 C 209.914 9.350,210.283 9.077,209.406 9.855 C 209.113 10.115,208.649 10.470,208.375 10.645 C 208.101 10.819,207.809 11.069,207.726 11.200 C 207.644 11.332,207.454 11.439,207.304 11.439 C 207.155 11.439,207.032 11.507,207.032 11.590 C 207.032 11.673,206.463 12.175,205.767 12.707 C 205.070 13.238,203.952 14.192,203.282 14.826 C 202.611 15.461,201.346 16.625,200.470 17.414 C 199.593 18.202,197.581 20.113,195.998 21.660 C 194.415 23.207,193.018 24.567,192.893 24.683 C 192.769 24.799,192.376 25.254,192.020 25.694 C 191.113 26.815,190.146 27.938,189.517 28.598 C 189.222 28.908,188.507 29.752,187.927 30.474 C 187.347 31.195,186.776 31.871,186.658 31.974 C 186.540 32.077,186.113 32.645,185.709 33.236 C 185.306 33.827,184.753 34.586,184.482 34.924 C 183.471 36.178,181.298 39.174,180.870 39.902 C 180.569 40.414,179.952 41.341,179.845 41.444 C 179.581 41.696,178.903 42.764,178.903 42.927 C 178.903 43.029,178.796 43.181,178.665 43.263 C 178.533 43.346,178.323 43.624,178.197 43.882 C 177.902 44.487,177.531 45.075,177.368 45.198 C 177.297 45.252,177.145 45.505,177.030 45.761 C 176.915 46.017,176.616 46.564,176.366 46.976 C 176.116 47.389,175.824 47.895,175.717 48.101 C 175.610 48.308,175.356 48.729,175.152 49.039 C 174.949 49.348,174.694 49.805,174.586 50.053 C 174.478 50.301,174.139 50.875,173.833 51.328 C 173.527 51.781,173.277 52.231,173.277 52.327 C 173.277 52.424,173.026 52.989,172.720 53.584 C 172.413 54.178,172.075 54.876,171.970 55.134 C 171.864 55.391,171.680 55.771,171.560 55.977 C 171.111 56.751,171.021 56.927,170.837 57.384 C 170.734 57.642,170.523 58.077,170.369 58.351 C 170.215 58.624,170.089 58.983,170.089 59.148 C 170.089 59.312,170.006 59.447,169.905 59.447 C 169.804 59.447,169.666 59.679,169.598 59.962 C 169.531 60.246,169.370 60.689,169.242 60.947 C 169.114 61.205,168.818 61.880,168.585 62.447 C 167.896 64.127,167.712 64.559,167.296 65.468 C 167.079 65.944,166.901 66.419,166.901 66.525 C 166.901 66.631,166.775 66.959,166.621 67.255 C 166.467 67.550,166.340 67.971,166.340 68.191 C 166.339 68.410,166.212 68.695,166.057 68.823 C 165.902 68.952,165.776 69.305,165.776 69.609 C 165.776 69.912,165.680 70.339,165.564 70.557 C 165.347 70.962,165.010 72.281,164.569 74.449 C 164.432 75.120,164.226 75.906,164.111 76.196 C 163.995 76.486,163.901 77.078,163.901 77.510 C 163.901 77.942,163.810 78.591,163.698 78.951 C 163.448 79.760,163.029 83.822,162.763 88.008 C 162.478 92.484,163.060 104.636,163.694 107.454 C 163.799 107.918,163.892 108.847,163.901 109.517 C 163.910 110.188,164.039 111.074,164.187 111.486 C 164.336 111.899,164.462 112.616,164.469 113.080 C 164.475 113.544,164.566 114.304,164.673 114.768 C 164.779 115.232,164.981 116.308,165.122 117.158 C 165.263 118.009,165.437 118.801,165.510 118.918 C 165.583 119.036,165.704 119.648,165.780 120.279 C 165.856 120.909,166.006 121.678,166.115 121.988 C 166.223 122.297,166.406 123.015,166.521 123.582 C 166.937 125.643,167.235 126.874,167.441 127.391 C 167.557 127.682,167.651 128.190,167.651 128.522 C 167.651 128.853,167.765 129.291,167.905 129.494 C 168.044 129.698,168.213 130.277,168.280 130.783 C 168.347 131.288,168.477 131.794,168.568 131.908 C 168.659 132.021,168.796 132.494,168.871 132.958 C 168.947 133.422,169.125 134.030,169.267 134.309 C 169.410 134.587,169.526 135.038,169.526 135.311 C 169.526 135.584,169.643 136.031,169.785 136.305 C 169.927 136.579,170.144 137.182,170.267 137.647 C 170.774 139.560,171.336 141.272,171.704 142.022 C 171.847 142.314,171.964 142.723,171.964 142.931 C 171.964 143.139,172.087 143.575,172.237 143.900 C 172.592 144.669,173.074 146.018,173.271 146.794 C 173.357 147.132,173.510 147.512,173.612 147.638 C 173.713 147.764,173.856 148.147,173.929 148.489 C 174.003 148.831,174.181 149.337,174.325 149.614 C 174.469 149.891,174.591 150.244,174.595 150.398 C 174.599 150.553,174.726 150.844,174.877 151.044 C 175.028 151.244,175.152 151.592,175.152 151.818 C 175.152 152.043,175.279 152.333,175.434 152.461 C 175.588 152.590,175.715 152.842,175.715 153.023 C 175.715 153.379,176.484 155.281,177.332 157.024 C 177.474 157.316,177.590 157.637,177.590 157.738 C 177.590 157.902,177.767 158.335,178.633 160.291 C 178.781 160.626,179.024 161.174,179.173 161.510 C 179.321 161.845,179.620 162.541,179.836 163.057 C 180.052 163.572,180.310 164.121,180.411 164.276 C 180.511 164.430,180.640 164.684,180.698 164.838 C 180.962 165.549,181.968 167.696,182.456 168.589 C 182.540 168.744,183.104 169.883,183.710 171.120 C 184.315 172.358,184.873 173.399,184.951 173.433 C 185.028 173.468,185.091 173.625,185.091 173.784 C 185.091 173.942,185.387 174.558,185.748 175.152 C 186.109 175.747,186.404 176.359,186.404 176.514 C 186.404 176.668,186.531 176.899,186.685 177.028 C 186.840 177.156,186.967 177.371,186.967 177.506 C 186.967 177.641,187.093 177.877,187.247 178.032 C 187.402 178.186,187.613 178.508,187.717 178.748 C 187.822 178.988,188.204 179.691,188.568 180.309 C 188.931 180.928,189.351 181.703,189.501 182.031 C 189.651 182.359,189.860 182.681,189.964 182.746 C 190.069 182.810,190.155 183.027,190.155 183.227 C 190.155 183.427,190.241 183.591,190.346 183.591 C 190.452 183.591,190.638 183.823,190.762 184.107 C 190.885 184.391,191.198 184.960,191.457 185.373 C 191.716 185.785,192.034 186.292,192.164 186.498 C 192.293 186.704,192.452 187.021,192.518 187.201 C 192.644 187.552,227.473 187.733,227.473 187.383 C 227.473 187.303,227.325 187.106,227.145 186.946 C 226.708 186.558,226.084 185.830,224.834 184.248 C 223.898 183.063,223.056 181.971,220.353 178.434 C 219.880 177.815,219.169 176.851,218.772 176.292 C 218.375 175.732,217.974 175.184,217.880 175.073 C 217.787 174.962,217.378 174.407,216.971 173.840 C 216.565 173.272,216.125 172.685,215.992 172.534 C 215.860 172.383,215.668 172.111,215.565 171.929 C 215.462 171.748,215.019 171.088,214.580 170.463 C 214.142 169.838,213.783 169.288,213.783 169.240 C 213.783 169.192,213.383 168.578,212.893 167.875 C 211.947 166.519,211.888 166.429,210.930 164.865 C 210.591 164.312,210.188 163.667,210.033 163.432 C 209.878 163.196,209.456 162.521,209.095 161.931 C 208.734 161.341,208.245 160.551,208.009 160.176 C 207.772 159.801,207.530 159.346,207.471 159.165 C 207.412 158.985,207.297 158.837,207.216 158.837 C 207.135 158.837,206.976 158.605,206.863 158.322 C 206.749 158.038,206.491 157.553,206.290 157.243 C 206.089 156.934,205.703 156.259,205.432 155.743 C 205.161 155.227,204.838 154.679,204.714 154.524 C 204.590 154.369,204.284 153.863,204.033 153.399 C 203.783 152.935,203.393 152.218,203.166 151.805 C 202.940 151.392,202.400 150.338,201.968 149.461 C 201.535 148.584,201.104 147.740,201.011 147.586 C 200.918 147.431,200.793 147.178,200.733 147.023 C 200.673 146.868,200.336 146.130,199.984 145.382 C 199.632 144.633,199.344 143.944,199.344 143.850 C 199.344 143.755,199.217 143.418,199.062 143.100 C 198.908 142.782,198.654 142.262,198.500 141.944 C 198.345 141.627,198.216 141.268,198.212 141.147 C 198.209 141.027,198.043 140.591,197.843 140.178 C 197.644 139.766,197.478 139.299,197.475 139.142 C 197.471 138.984,197.354 138.689,197.214 138.485 C 197.075 138.282,196.913 137.904,196.855 137.647 C 196.738 137.130,196.242 135.702,195.975 135.115 C 195.881 134.909,195.752 134.529,195.688 134.271 C 195.624 134.013,195.460 133.507,195.323 133.146 C 195.099 132.554,194.804 131.601,193.957 128.739 C 193.805 128.223,193.597 127.548,193.496 127.239 C 193.395 126.929,193.192 126.170,193.044 125.551 C 192.896 124.932,192.659 123.962,192.517 123.394 C 192.375 122.827,192.155 121.857,192.029 121.238 C 191.902 120.619,191.682 119.717,191.539 119.233 C 191.397 118.750,191.280 118.171,191.280 117.948 C 191.280 117.724,191.160 116.980,191.013 116.295 C 190.498 113.898,189.963 110.730,189.965 110.096 C 189.966 109.744,189.844 108.731,189.694 107.846 C 188.815 102.677,188.490 87.741,189.131 82.044 C 189.552 78.313,190.343 73.500,190.934 71.074 C 191.048 70.609,191.208 69.834,191.290 69.351 C 191.373 68.868,191.531 68.304,191.642 68.098 C 191.752 67.892,191.842 67.549,191.842 67.336 C 191.842 67.123,192.000 66.464,192.193 65.870 C 192.387 65.277,192.693 64.285,192.875 63.666 C 193.218 62.497,193.390 61.991,194.084 60.103 C 194.818 58.110,195.257 57.003,195.831 55.696 C 195.990 55.335,196.302 54.618,196.526 54.102 C 196.749 53.586,197.011 53.038,197.108 52.883 C 197.204 52.729,197.329 52.475,197.385 52.321 C 197.593 51.748,199.327 48.526,200.039 47.389 C 200.284 46.997,200.566 46.491,200.664 46.264 C 200.762 46.037,200.949 45.689,201.078 45.492 C 201.819 44.358,203.689 41.580,204.307 40.694 C 207.916 35.516,214.700 28.541,220.066 24.492 C 222.556 22.612,226.141 20.066,226.296 20.066 C 226.358 20.066,226.835 19.791,227.355 19.456 C 228.414 18.775,228.429 18.766,230.218 17.722 C 230.924 17.309,231.672 16.871,231.879 16.747 C 232.086 16.624,233.015 16.132,233.943 15.655 C 234.871 15.177,235.757 14.711,235.912 14.619 C 236.162 14.470,236.719 14.216,239.569 12.950 C 239.981 12.766,241.078 12.301,242.007 11.916 C 242.935 11.531,243.947 11.105,244.257 10.970 C 244.566 10.835,245.326 10.536,245.945 10.307 C 246.564 10.077,247.239 9.818,247.445 9.732 C 248.047 9.479,249.453 8.994,250.164 8.794 C 250.525 8.692,250.989 8.533,251.195 8.441 C 251.402 8.349,251.858 8.216,252.210 8.147 C 252.562 8.077,253.319 7.777,253.893 7.480 C 254.466 7.182,255.006 6.939,255.092 6.939 C 255.178 6.939,255.602 6.785,256.035 6.597 C 256.467 6.409,257.201 6.106,257.665 5.923 C 258.129 5.741,258.762 5.475,259.072 5.334 C 259.381 5.192,260.183 4.899,260.853 4.681 C 261.524 4.464,262.241 4.212,262.447 4.121 C 264.169 3.360,267.415 2.159,268.500 1.882 C 268.839 1.796,269.218 1.648,269.344 1.555 C 269.577 1.383,271.773 0.681,272.714 0.479 C 274.670 0.058,271.688 0.000,248.195 0.000 C 225.886 0.000,223.160 0.031,223.160 0.286 M353.118 0.165 C 353.118 0.256,353.687 0.723,354.383 1.204 C 357.822 3.576,361.967 6.737,363.526 8.175 C 363.938 8.556,365.245 9.720,366.429 10.763 C 371.976 15.644,378.753 22.527,384.529 29.144 C 385.148 29.853,385.739 30.527,385.842 30.641 C 385.946 30.755,386.410 31.309,386.874 31.871 C 387.337 32.434,387.909 33.103,388.144 33.357 C 388.613 33.867,388.966 34.314,390.016 35.735 C 390.402 36.256,390.823 36.805,390.951 36.954 C 391.080 37.103,391.663 37.857,392.246 38.631 C 392.830 39.405,393.362 40.080,393.429 40.131 C 393.495 40.183,393.798 40.563,394.102 40.975 C 394.405 41.388,394.704 41.767,394.766 41.819 C 394.910 41.938,397.271 45.257,398.936 47.679 C 399.344 48.272,399.750 48.758,399.839 48.758 C 399.928 48.758,400.000 38.708,400.000 26.254 C 400.000 9.035,399.948 3.751,399.778 3.751 C 399.545 3.751,396.259 0.385,396.253 0.141 C 396.248 -0.060,353.118 -0.036,353.118 0.165 M399.620 185.232 C 399.617 185.309,399.158 185.752,398.600 186.217 C 397.242 187.345,397.268 187.529,398.781 187.529 L 400.000 187.529 400.000 186.310 C 400.000 185.395,399.650 184.403,399.620 185.232 " stroke="none" fill="#fcc454" fill-rule="evenodd"></path><path id="path3" d="M222.754 0.155 C 222.694 0.304,220.401 1.875,220.245 1.875 C 220.173 1.875,219.245 2.499,214.815 5.527 C 213.783 6.232,212.765 6.964,212.552 7.155 C 212.339 7.345,212.098 7.501,212.017 7.501 C 211.867 7.501,207.259 11.042,206.564 11.692 C 206.357 11.885,205.893 12.236,205.532 12.474 C 205.171 12.711,204.369 13.384,203.751 13.970 C 202.235 15.404,199.910 17.507,199.682 17.649 C 199.026 18.059,191.667 25.554,190.218 27.288 C 189.788 27.803,189.213 28.476,188.939 28.786 C 187.440 30.482,186.634 31.487,184.728 34.037 C 183.571 35.584,182.462 37.060,182.263 37.318 C 182.064 37.576,181.620 38.209,181.277 38.725 C 179.373 41.586,178.509 42.871,178.373 43.041 C 178.289 43.146,177.973 43.638,177.671 44.136 C 177.369 44.633,176.975 45.265,176.796 45.539 C 176.617 45.814,176.395 46.207,176.302 46.414 C 176.209 46.620,175.508 47.843,174.745 49.133 C 173.565 51.125,172.481 53.209,171.282 55.790 C 171.139 56.099,170.944 56.479,170.849 56.634 C 170.694 56.887,169.697 59.016,169.049 60.478 C 168.912 60.788,168.493 61.800,168.118 62.729 C 167.743 63.657,167.319 64.669,167.177 64.979 C 166.615 66.197,165.588 68.975,165.588 69.278 C 165.588 69.454,165.489 69.782,165.368 70.008 C 165.247 70.233,165.036 70.902,164.900 71.496 C 164.763 72.089,164.532 73.059,164.386 73.652 C 164.240 74.245,164.023 75.237,163.902 75.856 C 163.782 76.474,163.563 77.571,163.416 78.293 C 163.155 79.573,162.900 81.709,162.578 85.326 C 161.998 91.817,162.570 103.051,163.937 112.049 C 164.286 114.344,165.096 118.910,165.401 120.300 C 165.515 120.816,165.779 122.039,165.988 123.019 C 166.198 123.999,166.440 124.980,166.526 125.198 C 166.613 125.417,166.743 126.008,166.816 126.511 C 166.889 127.014,167.014 127.511,167.095 127.614 C 167.176 127.717,167.332 128.291,167.442 128.890 C 167.552 129.489,167.700 130.072,167.770 130.186 C 167.840 130.299,168.007 130.864,168.140 131.441 C 168.450 132.783,168.881 134.396,169.123 135.115 C 169.227 135.424,169.493 136.310,169.714 137.084 C 169.935 137.857,170.188 138.628,170.277 138.795 C 170.366 138.963,170.497 139.427,170.570 139.827 C 170.642 140.226,170.770 140.641,170.854 140.748 C 170.938 140.855,171.091 141.277,171.192 141.686 C 171.350 142.315,172.401 145.365,172.773 146.273 C 172.966 146.742,173.476 148.205,173.670 148.842 C 173.770 149.172,173.975 149.678,174.126 149.967 C 174.277 150.256,174.400 150.588,174.401 150.705 C 174.402 150.822,174.528 151.160,174.682 151.455 C 174.836 151.751,174.963 152.124,174.964 152.285 C 174.964 152.446,175.089 152.741,175.240 152.941 C 175.392 153.141,175.518 153.415,175.521 153.550 C 175.528 153.817,176.130 155.260,176.567 156.053 C 176.717 156.327,176.840 156.679,176.840 156.835 C 176.840 156.991,176.966 157.358,177.119 157.650 C 177.272 157.942,177.573 158.603,177.787 159.119 C 178.001 159.634,178.297 160.331,178.446 160.666 C 178.594 161.001,178.840 161.572,178.992 161.934 C 180.068 164.503,184.855 174.328,186.300 176.934 C 186.529 177.346,187.036 178.275,187.426 178.997 C 187.817 179.719,188.422 180.785,188.771 181.365 C 189.119 181.946,189.405 182.516,189.405 182.631 C 189.405 182.747,189.481 182.841,189.574 182.841 C 189.667 182.841,189.836 183.073,189.949 183.357 C 190.063 183.640,190.322 184.126,190.524 184.435 C 190.727 184.744,191.023 185.251,191.183 185.560 C 191.809 186.774,192.291 187.529,192.438 187.529 C 192.696 187.529,192.611 187.028,192.311 186.779 C 192.157 186.651,192.030 186.457,192.030 186.349 C 192.030 186.241,191.910 186.019,191.764 185.856 C 191.617 185.693,191.275 185.117,191.004 184.576 C 190.732 184.034,190.430 183.591,190.332 183.591 C 190.235 183.591,190.155 183.427,190.155 183.227 C 190.155 183.027,190.069 182.810,189.964 182.746 C 189.860 182.681,189.651 182.359,189.501 182.031 C 189.351 181.703,188.931 180.928,188.568 180.309 C 188.204 179.691,187.822 178.988,187.717 178.748 C 187.613 178.508,187.402 178.186,187.247 178.032 C 187.093 177.877,186.967 177.641,186.967 177.506 C 186.967 177.371,186.840 177.156,186.685 177.028 C 186.531 176.899,186.404 176.668,186.404 176.514 C 186.404 176.359,186.109 175.747,185.748 175.152 C 185.387 174.558,185.091 173.942,185.091 173.784 C 185.091 173.625,185.028 173.468,184.951 173.433 C 184.873 173.399,184.315 172.358,183.710 171.120 C 183.104 169.883,182.540 168.744,182.456 168.589 C 182.165 168.056,181.289 166.244,181.007 165.588 C 180.851 165.227,180.651 164.805,180.562 164.651 C 180.473 164.496,180.347 164.243,180.281 164.088 C 180.214 163.933,179.999 163.427,179.802 162.963 C 179.604 162.499,179.321 161.845,179.173 161.510 C 179.024 161.174,178.781 160.626,178.633 160.291 C 177.767 158.335,177.590 157.902,177.590 157.738 C 177.590 157.637,177.474 157.316,177.332 157.024 C 176.484 155.281,175.715 153.379,175.715 153.023 C 175.715 152.842,175.588 152.590,175.434 152.461 C 175.279 152.333,175.152 152.043,175.152 151.818 C 175.152 151.592,175.028 151.244,174.877 151.044 C 174.726 150.844,174.599 150.553,174.595 150.398 C 174.591 150.244,174.469 149.891,174.325 149.614 C 174.181 149.337,174.003 148.831,173.929 148.489 C 173.856 148.147,173.713 147.764,173.612 147.638 C 173.510 147.512,173.357 147.132,173.271 146.794 C 173.074 146.018,172.592 144.669,172.237 143.900 C 172.087 143.575,171.964 143.139,171.964 142.931 C 171.964 142.723,171.847 142.314,171.704 142.022 C 171.336 141.272,170.774 139.560,170.267 137.647 C 170.144 137.182,169.927 136.579,169.785 136.305 C 169.643 136.031,169.526 135.584,169.526 135.311 C 169.526 135.038,169.410 134.587,169.267 134.309 C 169.125 134.030,168.947 133.422,168.871 132.958 C 168.796 132.494,168.659 132.021,168.568 131.908 C 168.477 131.794,168.347 131.288,168.280 130.783 C 168.213 130.277,168.044 129.698,167.905 129.494 C 167.765 129.291,167.651 128.853,167.651 128.522 C 167.651 128.190,167.557 127.682,167.441 127.391 C 167.235 126.874,166.937 125.643,166.521 123.582 C 166.406 123.015,166.223 122.297,166.115 121.988 C 166.006 121.678,165.856 120.909,165.780 120.279 C 165.704 119.648,165.583 119.036,165.510 118.918 C 165.437 118.801,165.263 118.009,165.122 117.158 C 164.981 116.308,164.779 115.232,164.673 114.768 C 164.566 114.304,164.475 113.544,164.469 113.080 C 164.462 112.616,164.336 111.899,164.187 111.486 C 164.039 111.074,163.910 110.188,163.901 109.517 C 163.892 108.847,163.799 107.918,163.694 107.454 C 163.060 104.636,162.478 92.484,162.763 88.008 C 163.029 83.822,163.448 79.760,163.698 78.951 C 163.810 78.591,163.901 77.942,163.901 77.510 C 163.901 77.078,163.995 76.486,164.111 76.196 C 164.226 75.906,164.432 75.120,164.569 74.449 C 165.010 72.281,165.347 70.962,165.564 70.557 C 165.680 70.339,165.776 69.912,165.776 69.609 C 165.776 69.305,165.902 68.952,166.057 68.823 C 166.212 68.695,166.339 68.410,166.340 68.191 C 166.340 67.971,166.467 67.550,166.621 67.255 C 166.775 66.959,166.901 66.631,166.901 66.525 C 166.901 66.419,167.079 65.944,167.296 65.468 C 167.712 64.559,167.896 64.127,168.585 62.447 C 168.818 61.880,169.114 61.205,169.242 60.947 C 169.370 60.689,169.531 60.246,169.598 59.962 C 169.666 59.679,169.804 59.447,169.905 59.447 C 170.006 59.447,170.089 59.312,170.089 59.148 C 170.089 58.983,170.215 58.624,170.369 58.351 C 170.523 58.077,170.734 57.642,170.837 57.384 C 170.941 57.126,171.124 56.746,171.243 56.540 C 171.690 55.771,171.782 55.591,171.970 55.134 C 172.075 54.876,172.413 54.178,172.720 53.584 C 173.026 52.989,173.277 52.424,173.277 52.327 C 173.277 52.231,173.527 51.781,173.833 51.328 C 174.139 50.875,174.478 50.301,174.586 50.053 C 174.694 49.805,174.949 49.348,175.152 49.039 C 175.356 48.729,175.610 48.308,175.717 48.101 C 175.824 47.895,176.116 47.389,176.366 46.976 C 176.616 46.564,176.915 46.017,177.030 45.761 C 177.145 45.505,177.297 45.252,177.368 45.198 C 177.531 45.075,177.902 44.487,178.197 43.882 C 178.323 43.624,178.533 43.346,178.665 43.263 C 178.796 43.181,178.903 43.029,178.903 42.927 C 178.903 42.764,179.581 41.696,179.845 41.444 C 179.952 41.341,180.569 40.414,180.870 39.902 C 181.298 39.174,183.471 36.178,184.482 34.924 C 184.753 34.586,185.306 33.827,185.709 33.236 C 186.113 32.645,186.540 32.077,186.658 31.974 C 186.776 31.871,187.347 31.195,187.927 30.474 C 188.507 29.752,189.222 28.908,189.517 28.598 C 190.146 27.938,191.113 26.815,192.020 25.694 C 192.376 25.254,192.769 24.799,192.893 24.683 C 193.018 24.567,194.415 23.207,195.998 21.660 C 197.581 20.113,199.593 18.202,200.470 17.414 C 201.346 16.625,202.611 15.461,203.282 14.826 C 203.952 14.192,205.070 13.238,205.767 12.707 C 206.463 12.175,207.032 11.673,207.032 11.590 C 207.032 11.507,207.155 11.439,207.304 11.439 C 207.454 11.439,207.644 11.332,207.726 11.200 C 207.809 11.069,208.101 10.819,208.375 10.645 C 208.649 10.470,209.113 10.115,209.406 9.855 C 210.283 9.077,209.914 9.350,213.460 6.856 C 214.056 6.437,214.693 6.010,214.876 5.907 C 215.059 5.804,215.554 5.445,215.976 5.110 C 216.399 4.775,216.808 4.501,216.885 4.501 C 216.963 4.501,217.387 4.205,217.828 3.844 C 218.268 3.483,218.686 3.188,218.757 3.188 C 218.828 3.188,219.261 2.935,219.720 2.625 C 220.178 2.316,220.606 2.063,220.670 2.063 C 220.734 2.063,220.941 1.923,221.130 1.751 C 221.503 1.414,222.072 1.064,222.738 0.763 C 222.970 0.658,223.160 0.443,223.160 0.286 C 223.160 -0.015,222.861 -0.111,222.754 0.155 M396.253 0.141 C 396.259 0.385,399.545 3.751,399.778 3.751 C 400.133 3.751,400.077 3.680,398.503 2.148 C 397.680 1.347,396.957 0.536,396.896 0.346 C 396.792 0.018,396.246 -0.157,396.253 0.141 " stroke="none" fill="#fcc44c" fill-rule="evenodd"></path><path id="path4" d="M273.082 0.288 C 272.949 0.439,272.675 0.563,272.473 0.563 C 272.053 0.563,269.945 1.230,269.387 1.540 C 269.182 1.654,268.760 1.813,268.450 1.893 C 267.396 2.165,264.125 3.379,262.447 4.121 C 262.241 4.212,261.524 4.464,260.853 4.681 C 260.183 4.899,259.381 5.194,259.072 5.337 C 258.762 5.480,258.045 5.779,257.478 6.002 C 255.752 6.679,255.415 6.837,255.415 6.972 C 255.415 7.173,257.740 6.311,257.909 6.048 C 257.991 5.919,258.302 5.813,258.599 5.813 C 258.896 5.813,259.271 5.681,259.432 5.520 C 259.594 5.358,259.958 5.182,260.243 5.127 C 261.114 4.959,260.963 5.011,262.957 4.192 C 263.547 3.949,264.142 3.751,264.279 3.751 C 264.417 3.751,264.629 3.650,264.751 3.528 C 264.874 3.406,265.140 3.280,265.344 3.249 C 265.870 3.169,268.035 2.418,268.268 2.235 C 268.376 2.151,268.746 2.032,269.091 1.971 C 269.436 1.911,269.894 1.738,270.109 1.587 C 270.325 1.436,270.655 1.313,270.843 1.313 C 271.032 1.313,271.414 1.195,271.693 1.050 C 271.972 0.906,272.496 0.760,272.856 0.725 C 273.453 0.667,273.980 0.378,273.980 0.107 C 273.980 -0.111,273.316 0.023,273.082 0.288 M352.555 0.183 C 352.555 0.283,352.801 0.492,353.101 0.648 C 353.401 0.803,353.675 0.995,353.710 1.074 C 353.825 1.335,354.971 2.063,355.267 2.063 C 355.426 2.063,355.556 2.169,355.556 2.298 C 355.556 2.428,355.788 2.639,356.071 2.767 C 356.579 2.997,357.194 3.444,358.124 4.260 C 358.385 4.489,358.757 4.727,358.952 4.789 C 359.147 4.850,359.306 4.980,359.306 5.076 C 359.306 5.172,359.396 5.251,359.507 5.251 C 359.617 5.251,360.098 5.631,360.575 6.095 C 361.053 6.559,361.511 6.939,361.594 6.939 C 361.676 6.939,361.893 7.086,362.074 7.267 C 362.256 7.447,362.652 7.789,362.954 8.025 C 363.257 8.262,364.170 9.060,364.984 9.799 C 365.798 10.537,366.647 11.299,366.870 11.491 C 369.566 13.815,378.059 22.180,378.059 22.512 C 378.059 22.611,378.180 22.691,378.328 22.691 C 378.475 22.691,378.652 22.866,378.720 23.080 C 378.788 23.294,378.891 23.422,378.949 23.364 C 379.007 23.306,379.302 23.595,379.604 24.006 C 379.907 24.417,380.231 24.754,380.326 24.754 C 380.420 24.754,380.497 24.859,380.497 24.988 C 380.497 25.117,380.814 25.521,381.200 25.886 C 381.587 26.251,382.325 27.045,382.841 27.651 C 383.357 28.257,384.201 29.195,384.716 29.737 C 385.232 30.278,385.781 30.906,385.935 31.132 C 386.090 31.357,386.512 31.861,386.873 32.251 C 387.529 32.960,388.310 33.892,388.842 34.599 C 391.001 37.469,391.999 38.736,392.140 38.787 C 392.234 38.822,392.311 38.954,392.311 39.082 C 392.311 39.209,392.501 39.492,392.733 39.709 C 393.214 40.160,393.361 40.340,393.995 41.256 C 394.245 41.617,394.559 41.980,394.693 42.063 C 394.827 42.145,394.937 42.335,394.937 42.485 C 394.937 42.634,395.023 42.757,395.129 42.757 C 395.235 42.757,395.406 42.947,395.509 43.179 C 395.612 43.411,395.910 43.896,396.171 44.257 C 396.433 44.618,396.789 45.110,396.964 45.351 C 397.483 46.068,398.859 47.896,399.061 48.140 C 399.165 48.265,399.250 48.444,399.250 48.539 C 399.250 48.791,399.800 49.207,399.944 49.064 C 400.011 48.996,399.934 48.837,399.773 48.709 C 399.612 48.581,399.175 48.033,398.802 47.492 C 397.050 44.946,394.910 41.938,394.766 41.819 C 394.704 41.767,394.405 41.388,394.102 40.975 C 393.798 40.563,393.495 40.183,393.429 40.131 C 393.362 40.080,392.830 39.405,392.246 38.631 C 391.663 37.857,391.080 37.103,390.951 36.954 C 390.823 36.805,390.402 36.256,390.016 35.735 C 388.966 34.314,388.613 33.867,388.144 33.357 C 387.909 33.103,387.337 32.434,386.874 31.871 C 386.410 31.309,385.946 30.755,385.842 30.641 C 385.739 30.527,385.148 29.853,384.529 29.144 C 382.115 26.379,379.739 23.798,377.219 21.203 C 371.964 15.791,370.165 14.050,366.429 10.763 C 365.245 9.720,363.938 8.556,363.526 8.175 C 361.967 6.737,357.822 3.576,354.383 1.204 C 353.687 0.723,353.118 0.256,353.118 0.165 C 353.118 0.074,352.991 0.000,352.836 0.000 C 352.682 0.000,352.555 0.082,352.555 0.183 M253.821 7.509 C 253.305 7.797,252.736 8.040,252.555 8.049 C 252.375 8.057,252.227 8.142,252.227 8.238 C 252.227 8.573,254.859 7.570,255.130 7.132 C 255.331 6.807,254.807 6.958,253.821 7.509 M251.186 8.413 C 251.088 8.502,250.670 8.665,250.258 8.774 C 249.505 8.975,248.144 9.438,247.445 9.732 C 247.239 9.818,246.564 10.077,245.945 10.307 C 245.326 10.536,244.566 10.835,244.257 10.970 C 243.947 11.105,242.935 11.531,242.007 11.916 C 241.078 12.301,239.981 12.766,239.569 12.950 C 236.719 14.216,236.162 14.470,235.912 14.619 C 235.757 14.711,234.871 15.177,233.943 15.655 C 233.015 16.132,232.086 16.624,231.879 16.747 C 231.672 16.871,230.924 17.309,230.218 17.722 C 228.429 18.766,228.414 18.775,227.355 19.456 C 226.835 19.791,226.358 20.066,226.296 20.066 C 226.141 20.066,222.556 22.612,220.066 24.492 C 215.375 28.032,209.363 34.030,205.705 38.819 C 203.788 41.328,202.275 43.574,202.781 43.156 C 202.953 43.015,203.412 42.424,203.802 41.843 C 204.893 40.217,205.971 38.819,206.135 38.819 C 206.216 38.819,206.282 38.725,206.282 38.611 C 206.282 38.176,212.807 30.986,214.249 29.833 C 214.453 29.670,215.070 29.093,215.620 28.551 C 216.170 28.010,216.678 27.563,216.749 27.559 C 216.820 27.554,217.085 27.301,217.338 26.996 C 217.591 26.691,217.865 26.442,217.947 26.442 C 218.029 26.442,218.253 26.294,218.443 26.113 C 219.086 25.506,219.600 25.129,219.786 25.129 C 219.888 25.129,219.972 25.048,219.972 24.948 C 219.972 24.849,220.499 24.412,221.144 23.978 C 221.789 23.543,222.358 23.131,222.410 23.062 C 222.534 22.895,225.569 20.816,225.689 20.816 C 225.740 20.816,226.169 20.520,226.642 20.159 C 227.115 19.798,227.581 19.503,227.677 19.503 C 227.773 19.503,228.272 19.208,228.786 18.847 C 229.299 18.486,229.806 18.190,229.913 18.190 C 230.019 18.190,230.463 17.961,230.899 17.681 C 231.335 17.400,232.072 16.968,232.536 16.720 C 233.000 16.472,233.513 16.153,233.676 16.011 C 233.839 15.869,234.076 15.752,234.202 15.752 C 234.417 15.752,235.894 15.021,236.099 14.813 C 236.263 14.646,238.055 13.859,238.378 13.812 C 238.548 13.787,238.801 13.686,238.940 13.586 C 239.190 13.408,239.668 13.173,241.363 12.395 C 241.833 12.179,242.399 12.002,242.619 12.002 C 242.839 12.002,243.087 11.881,243.170 11.733 C 243.252 11.585,243.543 11.435,243.815 11.398 C 244.087 11.362,244.424 11.239,244.564 11.126 C 244.705 11.013,245.115 10.858,245.476 10.783 C 245.837 10.708,246.217 10.582,246.320 10.504 C 246.423 10.427,246.845 10.257,247.257 10.127 C 247.670 9.997,248.092 9.827,248.195 9.749 C 248.298 9.671,248.678 9.546,249.039 9.470 C 249.400 9.395,249.793 9.254,249.913 9.158 C 250.033 9.061,250.348 8.943,250.612 8.895 C 251.236 8.782,252.039 8.475,252.039 8.350 C 252.039 8.189,251.379 8.238,251.186 8.413 M201.835 44.304 C 201.061 45.503,200.878 45.812,200.673 46.264 C 200.569 46.491,200.284 46.997,200.039 47.389 C 199.327 48.526,197.593 51.748,197.385 52.321 C 197.329 52.475,197.204 52.729,197.108 52.883 C 197.011 53.038,196.749 53.586,196.526 54.102 C 195.699 56.010,195.542 56.364,195.289 56.883 C 194.948 57.584,194.955 57.867,195.307 57.576 C 195.459 57.449,195.641 57.040,195.711 56.667 C 195.781 56.293,195.952 55.873,196.091 55.734 C 196.230 55.596,196.344 55.340,196.344 55.167 C 196.345 54.994,196.513 54.599,196.718 54.290 C 196.923 53.980,197.091 53.579,197.092 53.399 C 197.093 53.218,197.178 53.071,197.281 53.071 C 197.384 53.071,197.468 52.983,197.468 52.875 C 197.468 52.533,199.469 48.629,199.927 48.077 C 200.183 47.767,200.846 46.588,201.309 45.617 C 201.468 45.281,201.682 45.007,201.784 45.007 C 201.886 45.007,201.969 44.892,201.969 44.751 C 201.969 44.610,202.144 44.273,202.358 44.001 C 202.571 43.729,202.657 43.507,202.548 43.507 C 202.438 43.507,202.117 43.865,201.835 44.304 M194.655 58.558 C 194.380 59.281,193.763 60.968,193.438 61.885 C 193.310 62.246,193.056 63.047,192.875 63.666 C 192.693 64.285,192.387 65.277,192.193 65.870 C 192.000 66.464,191.850 67.097,191.859 67.277 C 191.869 67.457,191.955 67.330,192.052 66.995 C 192.149 66.660,192.289 66.385,192.364 66.385 C 192.438 66.385,192.517 66.130,192.538 65.819 C 192.560 65.508,192.702 64.981,192.853 64.648 C 193.004 64.314,193.184 63.683,193.252 63.245 C 193.320 62.807,193.444 62.407,193.528 62.355 C 193.612 62.303,193.781 61.839,193.905 61.323 C 194.029 60.807,194.206 60.384,194.299 60.384 C 194.392 60.384,194.470 60.237,194.472 60.056 C 194.474 59.876,194.638 59.371,194.836 58.935 C 195.034 58.499,195.126 58.100,195.041 58.047 C 194.956 57.994,194.782 58.225,194.655 58.558 M191.552 68.348 C 191.402 68.706,191.287 69.191,191.295 69.427 C 191.304 69.708,191.346 69.758,191.415 69.573 C 191.474 69.419,191.606 69.081,191.711 68.823 C 191.956 68.215,192.055 67.698,191.925 67.698 C 191.869 67.698,191.701 67.991,191.552 68.348 M191.067 70.464 C 190.954 70.748,190.830 71.360,190.791 71.824 C 190.703 72.856,191.022 72.135,191.267 70.745 C 191.429 69.826,191.358 69.727,191.067 70.464 M190.288 74.312 C 189.275 79.737,189.212 80.262,189.710 79.137 C 189.869 78.776,190.042 77.848,190.093 77.075 C 190.144 76.301,190.270 75.373,190.374 75.012 C 190.720 73.804,190.857 72.942,190.716 72.854 C 190.639 72.807,190.446 73.463,190.288 74.312 M189.319 81.060 C 188.993 82.537,188.685 86.494,188.915 86.248 C 188.994 86.163,189.176 84.728,189.317 83.075 C 189.366 82.508,189.439 81.728,189.481 81.341 C 189.564 80.567,189.465 80.395,189.319 81.060 M188.854 97.437 C 188.861 98.872,188.982 101.017,189.122 102.203 L 189.377 104.360 189.290 101.735 C 189.067 94.976,188.832 92.659,188.854 97.437 M189.431 105.767 C 189.421 106.334,189.496 107.135,189.597 107.548 C 189.698 107.961,189.868 109.142,189.975 110.173 C 190.082 111.205,190.289 112.513,190.434 113.080 L 190.697 114.112 190.660 113.034 C 190.640 112.441,190.574 111.956,190.514 111.956 C 190.382 111.955,190.378 111.934,190.161 109.705 C 189.939 107.418,189.807 106.416,189.608 105.485 L 189.448 104.735 189.431 105.767 M190.747 114.955 C 190.726 115.686,191.214 117.374,191.316 116.925 C 191.363 116.718,191.295 116.254,191.164 115.893 C 191.034 115.532,190.890 115.068,190.844 114.862 C 190.778 114.564,190.758 114.584,190.747 114.955 M191.340 118.050 C 191.475 119.033,191.813 120.569,192.228 122.082 C 192.561 123.294,192.563 123.296,192.578 122.504 C 192.586 122.058,192.505 121.707,192.394 121.707 C 192.285 121.707,192.244 121.628,192.303 121.532 C 192.363 121.436,192.342 121.315,192.258 121.263 C 192.174 121.211,192.085 120.846,192.060 120.453 C 192.017 119.763,191.902 118.987,191.842 118.987 C 191.812 118.987,191.741 118.717,191.578 117.977 C 191.408 117.209,191.232 117.262,191.340 118.050 M192.602 123.676 C 192.600 123.882,192.720 124.388,192.868 124.801 L 193.139 125.551 193.140 124.895 C 193.141 124.534,193.021 124.027,192.874 123.769 C 192.636 123.354,192.605 123.343,192.602 123.676 M193.170 125.966 C 193.162 126.195,193.272 126.659,193.415 126.998 C 193.558 127.337,193.772 127.993,193.892 128.458 C 194.011 128.922,194.240 129.723,194.400 130.239 C 194.560 130.755,194.806 131.556,194.948 132.021 C 195.422 133.577,195.819 134.735,196.082 135.331 C 196.226 135.656,196.346 136.035,196.350 136.175 C 196.358 136.493,196.890 137.441,196.899 137.154 C 196.903 137.037,196.778 136.637,196.622 136.263 C 196.466 135.889,196.382 135.584,196.435 135.584 C 196.488 135.584,196.362 135.268,196.156 134.883 C 195.950 134.498,195.781 134.055,195.781 133.898 C 195.781 133.741,195.485 132.776,195.124 131.753 C 194.763 130.729,194.468 129.661,194.468 129.378 C 194.468 129.095,194.374 128.832,194.259 128.794 C 194.144 128.756,193.983 128.304,193.902 127.790 C 193.720 126.640,193.194 125.329,193.170 125.966 M196.912 137.745 C 196.915 137.949,197.042 138.279,197.193 138.479 C 197.344 138.680,197.471 138.975,197.475 139.136 C 197.478 139.296,197.644 139.766,197.843 140.178 C 198.043 140.591,198.211 141.055,198.218 141.210 C 198.230 141.489,198.781 142.343,198.781 142.083 C 198.781 142.009,198.659 141.655,198.509 141.297 C 198.360 140.940,198.282 140.647,198.337 140.647 C 198.392 140.647,198.270 140.373,198.066 140.038 C 197.863 139.702,197.634 139.133,197.558 138.772 C 197.381 137.927,196.902 137.168,196.912 137.745 M198.785 142.533 C 198.783 142.694,198.905 142.989,199.056 143.190 C 199.208 143.390,199.334 143.659,199.338 143.788 C 199.341 143.916,199.632 144.633,199.984 145.382 C 200.336 146.130,200.673 146.868,200.733 147.023 C 200.793 147.178,200.918 147.431,201.011 147.586 C 201.104 147.740,201.535 148.584,201.968 149.461 C 202.400 150.338,202.940 151.392,203.166 151.805 C 203.393 152.218,203.783 152.935,204.033 153.399 C 204.284 153.863,204.590 154.369,204.714 154.524 C 204.838 154.679,205.161 155.227,205.432 155.743 C 205.703 156.259,206.089 156.934,206.290 157.243 C 206.491 157.553,206.749 158.038,206.863 158.322 C 206.976 158.605,207.135 158.837,207.216 158.837 C 207.297 158.837,207.412 158.985,207.471 159.165 C 207.530 159.346,207.772 159.801,208.009 160.176 C 208.245 160.551,208.716 161.310,209.054 161.864 C 209.393 162.417,209.773 163.037,209.898 163.242 C 210.451 164.145,210.783 164.512,210.783 164.221 C 210.783 164.059,210.667 163.812,210.526 163.671 C 210.385 163.530,210.211 163.228,210.139 163.001 C 210.067 162.774,209.935 162.588,209.846 162.588 C 209.758 162.588,209.458 162.124,209.181 161.556 C 208.903 160.989,208.615 160.525,208.540 160.525 C 208.466 160.525,208.166 160.082,207.874 159.541 C 207.582 158.999,207.294 158.514,207.235 158.462 C 207.175 158.410,206.970 158.073,206.778 157.712 C 205.643 155.569,205.073 154.571,204.760 154.173 C 204.566 153.926,204.407 153.608,204.407 153.467 C 204.407 153.327,204.329 153.211,204.234 153.211 C 204.139 153.211,203.965 152.922,203.848 152.567 C 203.731 152.213,203.577 151.896,203.506 151.864 C 203.434 151.832,203.173 151.383,202.926 150.867 C 202.679 150.352,202.404 149.803,202.315 149.648 C 202.227 149.494,202.106 149.241,202.048 149.086 C 201.990 148.931,201.863 148.678,201.768 148.523 C 201.672 148.368,201.506 148.031,201.400 147.773 C 201.293 147.515,200.956 146.828,200.650 146.247 C 200.344 145.665,200.094 145.063,200.094 144.910 C 200.094 144.757,199.967 144.526,199.812 144.398 C 199.658 144.269,199.529 143.942,199.527 143.671 C 199.522 143.135,198.793 142.015,198.785 142.533 M211.213 165.322 C 211.441 165.688,211.713 166.129,211.817 166.303 C 212.343 167.178,213.096 168.213,213.160 168.149 C 213.263 168.046,212.626 166.907,212.236 166.497 C 212.056 166.307,211.908 166.024,211.908 165.870 C 211.908 165.715,211.824 165.588,211.721 165.588 C 211.617 165.588,211.533 165.482,211.533 165.352 C 211.533 165.222,211.368 165.013,211.167 164.887 C 210.826 164.675,210.830 164.706,211.213 165.322 M213.783 169.233 C 213.783 169.285,214.142 169.838,214.580 170.463 C 215.019 171.088,215.462 171.748,215.565 171.929 C 215.668 172.111,215.860 172.383,215.992 172.534 C 216.125 172.685,216.565 173.272,216.971 173.840 C 217.378 174.407,217.787 174.962,217.880 175.073 C 217.974 175.184,218.375 175.732,218.772 176.292 C 219.169 176.851,219.880 177.815,220.353 178.434 C 224.211 183.482,225.559 185.206,226.344 186.097 C 227.333 187.218,227.717 187.605,227.643 187.405 C 227.565 187.194,226.407 185.780,225.645 184.963 C 225.413 184.715,225.223 184.469,225.223 184.417 C 225.223 184.364,224.759 183.747,224.191 183.045 C 223.624 182.343,223.160 181.714,223.160 181.648 C 223.160 181.582,223.012 181.374,222.832 181.185 C 221.852 180.162,220.722 178.644,220.722 178.352 C 220.722 178.265,220.595 178.144,220.441 178.085 C 220.286 178.026,220.159 177.848,220.159 177.690 C 220.159 177.532,220.033 177.403,219.878 177.403 C 219.723 177.403,219.597 177.276,219.597 177.121 C 219.597 176.967,219.448 176.691,219.266 176.509 C 219.084 176.328,218.728 175.884,218.475 175.525 C 218.222 175.165,217.907 174.760,217.775 174.623 C 217.642 174.487,217.534 174.262,217.534 174.123 C 217.534 173.984,217.453 173.843,217.355 173.808 C 217.196 173.753,216.270 172.570,215.471 171.403 C 215.316 171.177,215.042 170.818,214.862 170.605 C 214.681 170.393,214.534 170.066,214.534 169.879 C 214.534 169.693,214.365 169.449,214.158 169.339 C 213.952 169.229,213.783 169.181,213.783 169.233 M398.619 185.941 C 398.014 186.505,397.444 186.967,397.353 186.967 C 397.262 186.967,397.187 187.093,397.187 187.248 C 397.187 187.403,397.271 187.529,397.375 187.529 C 397.478 187.529,397.562 187.403,397.562 187.248 C 397.562 187.093,397.625 186.964,397.703 186.961 C 397.780 186.958,398.338 186.494,398.943 185.930 C 399.548 185.366,399.970 184.906,399.881 184.909 C 399.792 184.913,399.224 185.377,398.619 185.941 " stroke="none" fill="#fcd070" fill-rule="evenodd"></path></g></svg>