<svg xmlns="http://www.w3.org/2000/svg" viewBox="0 0 587 597" width="587" height="597">
	<style>
		tspan { white-space:pre }
		.shp0 { fill: #1d1d1b } 
		.shp1 { fill: #ffffff } 
		.shp2 { fill: #e2f2f1 } 
		.shp3 { fill: #c6c6c6 } 
		.shp4 { fill: #5b4e45 } 
		.shp5 { opacity: 0.259;fill: #b2b2b2 } 
		.shp6 { opacity: 0.341;fill: #c6c6c6 } 
		.shp7 { fill: #231f20 } 
		.shp8 { fill: #000000 } 
		.shp9 { fill: #48a13f } 
		.shp10 { fill: #3d8f37 } 
		.shp11 { fill: #77bc6f } 
		.shp12 { fill: #56a050 } 
		.shp13 { fill: #76a52d } 
		.shp14 { fill: #6e8951 } 
		.shp15 { fill: #d67d1d } 
		.shp16 { fill: #a9641c } 
		.shp17 { fill: #f29100 } 
		.shp18 { opacity: 0.447;fill: #ffffff } 
	</style>
	<g id="Group_3194">
		<g id="Group_2396_2_">
			<path id="Path_2293_2_" class="shp0" d="M432.1,275.72c-9.7,-45.5 -33.3,-86.3 -56.8,-126.1c1.1,0.5 2.4,0.9 3.7,1.4c0.2,0.1 0.3,0.1 0.5,0.1c0.8,-0.1 1.4,-0.7 1.4,-1.5c0.2,-3 0.4,-6 0.5,-9l-1.9,-0.1c-0.9,5.4 -0.3,7.4 -7.4,4.6c-1.2,-0.5 -2.3,1.3 -1.7,2.3c20,34.4 40.6,69.1 52.4,107.5c6.1,19 9.5,38.8 10,58.7M403.9,337.43c-5.2,-47.1 -13.3,-95.4 -29.3,-140.2c-0.2,-0.5 -0.8,-0.8 -1.3,-0.7v0c-0.6,0.2 -0.9,0.7 -0.8,1.3" />
			<path id="Path_2294_2_" class="shp1" d="M127.2,354.82c3.2,-29.1 9.9,-57.8 19.8,-85.4c11.1,-30.9 26,-60.3 44.3,-87.6c0.3,-0.7 0.1,-1.6 -0.6,-2.1c-0.3,-0.2 -0.7,-0.2 -1,-0.1l-6.3,2.1c1.3,-5.7 2.6,-11.4 3.9,-17c0.2,-0.7 -0.2,-1.4 -0.8,-1.6c-0.1,0 -0.1,0 -0.2,0c-0.3,-0.1 -0.6,0 -0.9,0.1c-1.9,0.9 -3.7,2 -5.7,2.9c1.7,-3.4 2.9,-7 3.6,-10.7c0.5,-0.1 0.8,-0.3 1.3,-0.5c0.4,-0.1 0.8,-0.2 1.3,-0.2c0.9,-36.3 4.5,-73.4 23.1,-105.3c0.3,-0.5 0.3,-1 0.1,-1.5c0.3,-0.6 0.1,-1.2 -0.3,-1.6c-5.6,-4.2 -11,-8.6 -13.5,-15.2c-2.9,-7.9 -0.8,-18.1 8.6,-20.4c15,-3.7 23.4,12.1 29,22.8c0.8,1.5 2.3,1 3,0c0.2,0 0.3,0 0.5,-0.1c3,-2.4 6.2,-4.6 9.5,-6.6c7.1,-4.4 15,-7.4 23.3,-8.8c-1.6,3.7 -2.8,7.5 -3.6,11.5c-0.2,1.2 0.8,2.6 2.1,2.1c8.9,-3.1 17.9,-5.8 26.9,-8.3c-2.3,3.3 -5.1,6.4 -8.1,9c-1,0.9 -0.2,3.1 1.3,2.9c7.5,-0.8 15.1,-1.5 22.6,-2.8c0.5,-0.2 0.9,-0.5 1,-1c0.6,0.5 1.5,0.3 1.9,-0.3c0,0 0,-0.1 0.1,-0.1c0.1,-0.1 0.1,-0.1 0.1,-0.2c2.3,-6.5 5.9,-12.4 10.7,-17.4c5.3,-5.6 16.6,-12.9 24,-6c6.1,5.7 3.5,15.7 -1.3,21.1c-4.1,4.6 -9.6,7.8 -15.1,10.7c-0.1,0.1 -0.3,0.2 -0.5,0.3c-0.1,-0.1 -0.3,-0.3 -0.5,-0.3c-1.2,-0.8 -2.6,1 -1.5,1.9c32.2,26.6 45.4,55.8 50.5,94c0.3,-0.1 -0.6,6 -0.3,5.9c-0.9,5.5 -0.3,7.4 -7.4,4.6c-1.3,-0.5 -2.3,1.2 -1.7,2.3c20.1,34.4 40.6,69.1 52.4,107.5c6.1,18.9 9.5,38.6 10,58.4M403.9,337.72c-5.2,-47.1 -13.3,-95.4 -29.3,-140.2c-0.2,-0.6 -0.8,-0.9 -1.3,-0.7c-0.5,0.2 -0.8,0.7 -0.7,1.3M191.6,367.02c0.3,-38.6 -8.5,-80.8 15,-114.8c1.3,-2 -1.9,-3.7 -3.1,-1.9c-14.7,21.3 -17.4,47.3 -16.8,72.5c0.3,16.4 1.9,32.7 1.4,49.1M372.7,296.02c-6.7,-27.1 -14.6,-56.1 -37.5,-74.1c-19.3,-15.1 -44.4,-20.6 -68.2,-15c-0.6,-0.5 -1.4,-0.5 -2.1,-0.1c-42.9,25.7 -50,85 -50.8,130.3M344.2,12.33c-10.1,-9 -21.6,12.1 -25.6,18c-0.2,0.3 -0.2,0.7 0,0.9c-0.8,0.3 -1.3,1.3 -0.5,2c1.1,1.1 2.2,2 3.5,2.8c0.3,0.2 0.7,0.2 0.9,0c0.4,0.1 0.8,0.1 1.2,-0.1c6.6,-2.6 15.2,-6 20,-11.5c2.9,-3.2 4.2,-8.8 0.5,-12.1zM309.7,116.42c-0.5,-0.2 -1,-0.2 -1.5,0c0.1,-1 0.1,-2 -0.1,-3c-2.1,-10.6 -19.6,-7.3 -26.8,-7.3c-5.6,0 -22.7,-1.4 -22.6,8c0.1,1.5 0.5,2.9 1,4.3c-8.4,5.5 -15.1,13.8 -10.9,24.2c5.5,13.5 21,15.9 33.7,15.2c13,-0.7 27.8,-3.8 34.4,-16.1c5,-9 2.3,-20.6 -7.2,-25.3zM226.3,35.13c-1.2,-6.7 -4.4,-13.3 -9.9,-17.6c-3.8,-3 -9.5,-4.5 -13.5,-0.8c-3.9,3.7 -2.3,10.1 -0.1,14.3c2.8,5.4 8,9 14,9.9c0.2,0 0.5,0 0.7,-0.1c0.6,0.4 1.4,0.4 2,-0.1c1.4,-1.9 3.4,-3.1 5.6,-3.5c0.9,-0.1 1.3,-1.3 1.2,-2.1z" />
			<path id="Path_2296_2_" class="shp0" d="M381.6,131.13c-5.8,-33.4 -19,-68.2 -46.6,-89.3c8,-4.4 16.8,-9.8 19.7,-19c2.1,-6.9 0.9,-15.2 -5.2,-19.5c-16.5,-11.5 -34.8,12.7 -38.4,26.4l0.3,1.4c0,0 0.1,0.1 0.2,0.1c0.1,0 0.1,0 0.1,0c0.7,0.3 1.5,0 1.8,-0.7c2.3,-6.5 6,-12.4 10.7,-17.4c5.3,-5.5 16.6,-13 24,-6c6.1,5.7 3.5,15.6 -1.3,21.1c-4.1,4.8 -9.8,7.8 -15.1,10.7c-0.2,0 -0.4,0.2 -0.5,0.3c-0.2,-0.1 -0.4,-0.2 -0.5,-0.3c-1.2,-0.8 -2.5,1 -1.5,1.9c32.2,26.7 45.2,61.9 50.2,100.1c0.3,-0.1 -0.3,-0.1 0,-0.2l1.9,0.1v-0.5c0.5,0 -0.4,0 0,0c-0.3,-3 0.5,-6.3 0.2,-9.2z" />
			<path id="Path_2297_2_" class="shp2" d="M365.6,284.02c-6.5,-23.8 -15.2,-47.7 -36.2,-62.4c-18,-12.5 -40.3,-17 -61.8,-12.6c0,0.5 -0.3,1 -0.8,1.2c-45.7,27.6 -50.2,95.4 -48.7,142.9" />
			<path id="Path_2298_2_" class="shp0" d="M214,337.12c0.8,-45.3 8,-104.6 50.8,-130.3c0.6,-0.4 1.5,-0.4 2.1,0.1c23.8,-5.6 48.9,-0.1 68.2,15c23.1,18 30.8,47 37.6,74.1M365.9,284.12c-6.5,-23.8 -15.2,-47.7 -36.2,-62.4c-18,-12.6 -40.3,-17.1 -61.8,-12.6c-0.1,0.5 -0.4,0.9 -0.8,1.2c-45.6,27.6 -50.1,95.3 -48.7,142.9" />
			<path id="Path_2299_2_" class="shp0" d="M344.3,12.42c3.6,3.2 2.4,8.8 -0.5,12.1c-5,5.5 -13.5,8.8 -20.1,11.7c-0.4,0.2 -0.8,0.2 -1.2,0.1c-0.3,0.1 -0.6,0.1 -0.9,0c-1.2,-0.9 -2.3,-1.7 -3.5,-2.8c-0.5,-0.4 -0.5,-1.1 -0.2,-1.6c0.1,-0.2 0.3,-0.4 0.6,-0.3c-0.2,-0.3 -0.2,-0.7 0,-0.9c4.2,-6.3 15.6,-27.4 25.8,-18.3zM338.9,13.52c-4.4,-0.1 -7.4,4.1 -9.9,7.2c-2.9,3.7 -5.7,7.4 -8.8,11l-0.1,0.1c0.6,0.5 1.1,1 1.6,1.6c0.1,-0.1 0.1,-0.1 0.2,-0.1c0.1,-0.1 0.2,-0.1 0.3,-0.2c0.1,-0.1 0.3,-0.1 0.5,-0.2c4.2,-1.9 8.3,-3.9 12.3,-6.1c1.9,-1 3.7,-2.1 5.4,-3.4c3.2,-2.9 4.8,-9.7 -1.5,-9.9z" />
			<path id="Path_2300_2_" class="shp2" d="M329.2,20.63c-3,3.6 -5.8,7.4 -8.8,11l-0.1,0.1c0.6,0.5 1.1,1 1.6,1.6c0.1,0 0.1,-0.1 0.2,-0.1c0.1,-0.1 0.2,-0.1 0.3,-0.2c0.1,-0.1 0.3,-0.2 0.5,-0.2c4.2,-1.8 8.3,-3.8 12.3,-6.1c1.9,-0.9 3.6,-2.1 5.2,-3.4c3.3,-2.9 4.8,-9.8 -1.5,-9.9c-4.4,-0.1 -7.5,4.1 -9.7,7.2z" />
			<path id="Path_2301_2_" class="shp0" d="M309.8,116.42c9.5,4.6 12.2,16.2 7.2,25.3c-6.7,12.2 -21.5,15.3 -34.2,16c-12.8,0.7 -28.3,-1.7 -33.7,-15.2c-4.3,-10.6 2.6,-18.8 10.9,-24.2c-0.7,-1.3 -1.1,-2.8 -1,-4.3c-0.1,-9.4 16.9,-8 22.6,-8c7.1,0 24.7,-3.1 26.8,7.3c0.2,1 0.3,2 0.1,3c0.3,-0.1 0.8,-0.1 1.3,0.1zM308,119.63c-0.2,-0.1 -0.3,-0.2 -0.5,-0.3c-3.4,8.1 -16.4,13.8 -22.1,17.7c-0.6,0.5 -1.4,0.5 -2,0c0.1,1.2 0.1,2.3 0.2,3.6c0,1.3 3.8,-0.1 3.7,1c3.2,-0.3 2.9,1.2 5.7,-0.6c1.6,-1 6.4,4.5 4.9,5.6c-7.5,5.3 -21.9,2 -28.9,-4.2c-0.7,-0.6 0.2,-1.6 0.9,-1.2c3.4,2.1 5.6,-2 9.5,-2c-0.1,-1.3 1.9,2.7 1.9,1.4c0.1,-1.4 0.1,-2.9 0.2,-4.3c-5.9,-2.6 -16.5,-9 -20.8,-16.2c-7.5,7.5 -14.6,16.8 -5.3,26.9c6.6,7.1 16.8,8.1 25.9,7.7c10,-0.6 21.3,-2.3 28.7,-9.5c7.5,-7.4 8.6,-20.3 -2,-25.6zM295.4,110.13h-15.4c-3.2,0 -7.1,-0.5 -10.2,0.5c-8,2.3 -6.1,6 -2.1,11c4.3,5 9.4,9.3 15.2,12.5c0.1,-0.2 0.3,-0.3 0.6,-0.6c3.6,-2.4 7.3,-4.9 10.9,-7.3c1.9,-1.4 6.2,-3.5 7.6,-5.8c0.5,-7.4 -1.7,-10.9 -6.6,-10.3z" />
			<path id="Path_2302_2_" class="shp0" d="M309.8,29.42c-5.7,0.2 -11.5,1 -17.2,1.7c2.9,-3 5.3,-6.3 7.3,-9.9c0.1,-0.4 0.2,-0.8 0.1,-1.2v-0.1c-0.2,-0.9 -1.2,-1.5 -2.1,-1.3c-9.5,2.6 -19,5.5 -28.4,8.7c0.9,-3.7 2.2,-7.2 3.8,-10.6c0.1,-0.4 0.2,-0.8 0.1,-1.2c0,-0.1 0,-0.1 0,-0.2c-0.2,-0.9 -1.1,-1.3 -1.9,-1.1c-9.6,1.8 -18.7,5.5 -26.9,10.8l1.2,1.7c7.1,-4.4 15,-7.4 23.3,-8.8c-1.6,3.7 -2.8,7.6 -3.6,11.5c-0.2,1.2 0.8,2.6 2.1,2.1c8.8,-3.2 17.9,-5.8 26.9,-8.4c-2.3,3.3 -5,6.4 -8.1,9c-0.4,0.3 -0.5,0.8 -0.5,1.2c0,0.9 0.7,1.7 1.7,1.7c7.5,-0.8 15.2,-1.5 22.6,-2.8c0.5,-0.1 0.8,-0.5 1,-1l-0.3,-1.4c-0.2,-0.4 -0.7,-0.5 -1.1,-0.4z" />
			<path id="Path_2303_2_" class="shp3" d="M307.8,118.93c-3.3,8.1 -16.3,13.9 -22.1,17.7c-0.6,0.5 -1.4,0.5 -2,0c0.1,1.3 0.1,2.4 0.2,3.6c0,0.8 0,1.5 -0.1,2.3c3,-0.3 6,-0.1 8.9,0.6c1.7,0.2 3.7,2.5 1.7,2.8c-8.5,-2.1 -18.2,2.4 -25.2,-3.7c-0.7,-0.6 0.2,-1.7 0.9,-1.2c3.4,1.9 7.3,1.5 11.2,1.6c-0.1,-0.7 -0.1,-1.5 0.1,-2.2c0.1,-1.4 0.1,-2.9 0.2,-4.3c-6,-2.5 -16.5,-9 -20.8,-16.2c-7.5,7.5 -14.6,16.9 -5.3,26.9c6.6,7.1 16.7,8.2 25.9,7.7c9.9,-0.5 21.2,-2.1 28.6,-9.4c7.5,-7.4 8.6,-20.4 -2,-25.6c-0.2,-0.1 -0.4,-0.2 -0.2,-0.6z" />
			<path id="Path_2304_2_" class="shp4" d="M279.8,110.02c-3.2,0 -7.1,-0.4 -10.2,0.5c-8,2.3 -6.2,6 -2.1,11c4.4,4.9 9.5,9.1 15.2,12.5c0.2,-0.3 0.4,-0.5 0.6,-0.6c3.7,-2.4 7.3,-4.9 10.9,-7.3c2.1,-1.4 6.4,-3.5 7.8,-5.8c0.5,-7.4 -1.7,-10.9 -6.6,-10.3z" />
			<path id="Path_2306_2_" class="shp0" d="M236.1,31.82c-0.1,-0.1 -0.1,-0.1 -0.1,-0.2c-6,-13.5 -22.8,-34.9 -39.5,-21.6c-14.4,11.5 -2.7,30.2 9.6,37.5l-0.1,0.1c-17.7,30.5 -22.1,65.7 -23.3,100.4v2.2c-0.4,1.7 -0.7,3.3 -1.2,4.9l1.7,0.2c0.5,-0.2 0.8,-0.4 1.3,-0.5c0.4,-0.1 0.8,-0.1 1.3,-0.2c1,-36.3 4.5,-73.4 23.1,-105.3c0.3,-0.4 0.4,-1 0.1,-1.5c0.3,-0.5 0.2,-1.2 -0.3,-1.6c-5.6,-4.1 -11.1,-8.5 -13.5,-15.2c-2.9,-7.9 -0.7,-18.1 8.6,-20.4c15,-3.8 23.4,12 29,22.8c0.7,1.5 2.3,1 3,0c0.2,0 0.4,0 0.5,-0.1c3,-2.4 6.2,-4.6 9.5,-6.6l-1.2,-1.7c-3.1,2 -5.9,4.3 -8.5,6.8z" />
			<path id="Path_2308_2_" class="shp0" d="M226.4,35.22c0.2,0.9 -0.3,1.8 -1.2,2.1c-2.2,0.4 -4.2,1.6 -5.6,3.4c-0.5,0.6 -1.4,0.6 -2,0.1c-0.2,0.1 -0.5,0.1 -0.7,0.1c-6,-0.9 -11.2,-4.5 -14,-9.9c-2.2,-4.2 -3.8,-10.6 0.1,-14.3c3.9,-3.7 9.6,-2.2 13.5,0.8c5.4,4.4 8.6,11 9.9,17.7zM222.7,34.42c-2,-7 -9.5,-21.9 -17,-14.8c-3.7,3.6 -0.5,10 2.4,13.3c2.4,2.7 5.5,4.7 8.9,5.9c0,-0.1 0,-0.1 0.1,-0.1c1.3,-2.1 3.2,-3.6 5.6,-4.3z" />
			<path id="Path_2309_2_" class="shp2" d="M205.7,19.62c-3.7,3.4 -0.5,9.9 2.4,13.3c2.4,2.7 5.4,4.8 8.9,5.9v0c0.1,0 0.1,0 0.1,-0.1c1.3,-2.1 3.3,-3.6 5.6,-4.3c-2,-6.9 -9.5,-21.9 -17,-14.8z" />
			<path id="Path_2310_4_" class="shp0" d="M191.6,367.02c0.4,-38.5 -8.5,-80.8 15,-114.8c1.4,-2 -1.8,-3.8 -3.1,-1.9c-14.7,21.4 -17.3,47.3 -17,72.5c0.4,16.4 1.9,32.7 1.4,49.1" />
			<path id="Path_2310_1_" class="shp0" d="M127.2,354.82c3.3,-29.2 9.9,-57.8 19.8,-85.4c11.1,-30.9 26,-60.3 44.3,-87.6c0.8,-1 -0.4,-2.5 -1.6,-2.2l-6.3,2.1c1.3,-5.6 2.6,-11.3 3.9,-17c0.2,-0.3 0.1,-0.7 -0.1,-1c-0.5,-0.6 -1.3,-0.8 -1.9,-0.5c-1.9,0.9 -3.8,2 -5.7,2.9c1.7,-3.4 2.9,-7 3.6,-10.7l-1.7,-0.2c-1.3,4.8 -3.3,9.4 -6.1,13.5c-0.9,1.1 0.7,2.3 1.7,1.7l7,-3.5c-1.2,5.6 -2.6,11.1 -3.9,16.7v0.6c0,0.1 0,0.1 0,0.1c0.1,0.8 0.9,1.3 1.7,1.1c1.5,-0.5 3.1,-1 4.6,-1.5c-34.9,51.8 -57.5,112.9 -63.1,175.3" />
			<path id="Path_2311_2_" class="shp5" d="M266.5,15.92c-11.1,1.7 -23.9,7.8 -30.8,16.7c-0.8,1 0.2,2.8 1.5,2c4.8,-2.7 9.2,-5.7 14.1,-7.9c5.4,-2.2 11.1,-3.9 16.8,-5c3.8,-0.8 2.2,-6.4 -1.6,-5.8z" />
			<path id="Path_2312_2_" class="shp5" d="M294.2,20.02c-10,1.1 -19.7,4.5 -28.1,10.1c-1.4,0.9 -0.6,3.4 1.2,2.9c4.5,-1.3 9,-2.9 13.7,-4.1c4.6,-1.2 9.4,-1.7 14,-2.7c3.4,-0.7 2.7,-6.5 -0.8,-6.2z" />
			<path id="Path_2313_2_" class="shp5" d="M347.9,0.02c-10.7,0.1 -19.9,6.4 -26.3,14.6c-2.1,2.8 -3.5,5.8 -5.4,8.6c-2,2.9 -2.3,3.2 -6,4.3c-7.1,2 -14.8,2.2 -22,3.9c-1,0.3 -1.6,1.4 -1.3,2.4c0,0 0,0 0,0.1c0.2,0.8 0.9,1.4 1.7,1.4c6.5,0.1 13.1,-0.1 19.6,-0.7c4.3,-0.3 8.7,0.1 11.6,-3.6c3.7,-4.8 5.1,-10.7 9.3,-15.3c5.3,-5.9 11.8,-8.7 19.6,-9.9c3.4,-0.5 2.5,-5.8 -0.8,-5.8z" />
			<path id="Path_2314_2_" class="shp5" d="M313.8,114.22c-0.4,-3.2 -2.9,-5.8 -6,-6.4c-3.6,-0.9 -5.8,4.2 -2.6,6c0.7,0.3 1.1,1 1.3,1.7c-0.6,0.8 -0.8,1.8 -0.7,2.8c-3.6,6.4 -18.2,16.4 -20.5,18c-1.6,1.2 -0.7,4.3 1.5,3.6c8.5,-3 17.9,-8.5 23.9,-15.3c0.6,-0.6 1.1,-1.3 1.5,-2.1c7.2,3.1 8.7,11.8 4.4,19c-4.3,7.1 -12.9,11.4 -20.6,13.5c-13,3.4 -39.5,2.1 -44.4,-13.7c-0.1,-0.4 -0.5,-0.6 -0.8,-0.5h-0.1c-0.3,0.1 -0.6,0.4 -0.6,0.7c0.2,10 10.4,16.2 18.9,19.4c12.3,4.6 25.9,4.2 37.9,-0.9c10.4,-4.5 20.4,-13.3 21.1,-25.4c0.4,-9.6 -5.3,-18.3 -14.2,-20.4z" />
			<path id="Path_2315_4_" class="shp5" d="M134.2,372.22c0.2,-11.1 3.5,-22.3 5.8,-33.2c2.4,-11.4 4.9,-22.8 7.2,-34.2c4.6,-22.3 7.9,-44 18.8,-64.2c3,-5.7 6.3,-11.1 9.6,-16.6c2.1,-3 4.2,-6 6.3,-9.2c1.4,-2.2 2.7,-4.4 3.9,-6.7c5.5,-8.2 11.1,-16.4 17,-24.4c1.6,-2.2 -0.1,-4.8 -2.2,-5.6c-0.4,-0.7 -1.1,-1.3 -1.9,-1.5c0.7,-1.5 -1,-3.4 -2.8,-3c-2,0.5 -3.8,0.9 -5.7,1.3c1.1,-4.3 2,-8.8 2.6,-13.2c0.2,-2.3 -2.2,-4.5 -4.5,-4.4c2.5,-7.3 4.6,-14.8 6.3,-22.4c2.2,-10.1 2.8,-20.4 4.3,-30.8c1.4,-9.4 4.8,-18.4 6.4,-27.7c1.7,-9.5 3.7,-18.2 9.6,-26.1c1.7,-2.3 -0.7,-5.1 -3.2,-5.1c-2.2,-2.2 -5.2,-3.4 -7.5,-5.6c-3.5,-3.6 -5.8,-8.1 -6.6,-13c-1,-6.3 1.7,-7.7 6.5,-10.4c2.1,-1.3 2.6,-1.4 3.5,-3.8c1,-2.9 -2.8,-4.4 -4.8,-2.8c-1.2,0.9 -3.5,0.8 -4.8,1.5c-2,1 -3.7,2.5 -5,4.3c-2.5,3.9 -3.4,8.6 -2.4,13.1c1.6,8.7 7.9,18.2 17,19.8c-4.5,5.8 -6.7,12.9 -8.3,20.1c-0.2,1.3 -0.6,2.6 -0.9,3.8c-10.3,14.6 -11.7,35 -10.8,52.2c0,0.3 0.1,0.5 0.3,0.7c-0.2,1.6 -0.6,3.4 -0.9,5c-2.2,11.3 -5.4,22.4 -9.5,33.2c-1.2,2.9 2.3,6 5.1,5.1c0.1,0 0.1,0 0.2,-0.1c-0.7,3.7 -1.6,7.3 -2.8,10.9c-0.9,2.9 2.2,6.4 5.2,5.2c2.1,-0.8 4.2,-1.7 6.1,-2.7c-2.4,2.9 -5,5.6 -6.3,9.3c-0.9,2.5 -1.9,5.1 -2.8,7.5c-10.1,14.4 -19.1,29.6 -27,45.3c-7,14 -10.9,29.3 -14.3,44.6c-0.1,0.3 -0.2,0.7 -0.2,1c-4.2,14.3 -10.3,28.4 -10.2,43.5c0,0.6 0.5,1.1 1,1.2c-1.4,6.7 -2.8,13.3 -4.1,20.1" />
			<path id="Path_2315_1_" class="shp5" d="M196.1,360.92c-0.9,-17.2 -2.9,-34.1 -1.9,-51.4c1.2,-17.9 3.5,-39.3 15.4,-53.7c2.3,-2.8 -1.6,-7 -4.1,-4.1c-18.3,21.5 -17,54.7 -17.2,81.2c0,7.9 -0.2,15.7 -0.2,23.5" />
			<path id="Path_2318_1_" class="shp5" d="M228.5,347.32c-0.8,-16.1 -1.6,-32.5 0.8,-48.6c2.2,-14.4 7.1,-28.3 12.3,-41.9c5.2,-13.5 9.7,-27.4 22.7,-35.4c14.3,-8.7 29.5,-7.9 45.3,-6.3c3.4,0.5 3.2,-4.3 0.7,-5.3c-19.3,-8.1 -49.2,-2.4 -63,13.8c-7.3,8.7 -11,20.2 -15,30.7c-4.9,12.6 -9.4,25.5 -11.8,38.8" />
			<path id="Path_2319_1_" class="shp5" d="M415.1,327.62c-2.7,-15.1 -6.8,-29.8 -10.4,-44.6c-3.6,-15 -7.2,-29.9 -11,-44.8c-3.6,-13.7 -7.5,-28.5 -16,-40.1c-0.7,-1.1 -2.2,-1.5 -3.4,-0.8c0,0 -0.1,0 -0.1,0.1c-0.9,0.5 -1.4,1.6 -1,2.7c3.2,13.2 7.8,26.1 11.1,39.3c3.2,12.9 6.3,25.7 9.4,38.6c2.4,9.9 4.9,19.6 7.2,29.5c-4.2,3.4 -1.2,13.9 -0.7,18" />
		</g>
		<path id="Ellipse_955_2_" class="shp6" d="M333.16,71.32c0,-13.66 -8.09,-24.7 -18.1,-24.7c-10.01,0 -18.1,11.04 -18.1,24.7c0,13.66 8.09,24.7 18.1,24.7c10.01,0 18.1,-11.04 18.1,-24.7z" />
		<path id="Ellipse_956_2_" class="shp7" d="M264.97,74.91c-2.03,-1.23 -5.25,0.37 -7.2,3.59c-1.95,3.22 -1.88,6.81 0.16,8.04c2.03,1.23 5.25,-0.37 7.2,-3.59c1.95,-3.22 1.88,-6.81 -0.16,-8.04z" />
		<path id="Ellipse_957_2_" class="shp7" d="M317.96,73.08c-2.13,-1.06 -5.2,0.81 -6.88,4.17c-1.67,3.37 -1.31,6.94 0.82,8c2.13,1.06 5.2,-0.81 6.88,-4.17c1.67,-3.37 1.31,-6.94 -0.82,-8z" />
		<g id="Group_3093">
			<path id="Path_5499" class="shp8" d="M253.88,64.28c1.4,-1.5 3,-2.7 4.8,-3.5c0.4,-0.3 0.9,-0.5 1.4,-0.6c0.5,-0.2 0.9,-0.4 1.4,-0.5l1.5,-0.3c0.5,0 1,0 1.5,-0.1c0.3,0 0.6,-0.1 0.8,-0.1h0.8c0.5,-0.1 1.1,-0.1 1.6,-0.1c1.2,0.1 2.3,0.1 3.4,0c-0.9,-0.7 -1.9,-1.2 -3,-1.7c-0.5,-0.3 -1.1,-0.5 -1.7,-0.6c-0.5,-0.1 -1.1,-0.2 -1.7,-0.3c-0.6,0 -1.3,-0.1 -1.9,-0.1c-0.7,0 -1.3,0 -1.9,0.1c-0.7,0.1 -1.3,0.3 -1.9,0.5c-0.6,0.2 -1.1,0.4 -1.7,0.7c-2.2,1.1 -4.1,2.8 -5.4,5c-1.3,2 -2,4.4 -1.9,6.8c1.1,-1.9 2.5,-3.6 3.9,-5.2z" />
		</g>
		<g id="Group_3094">
			<path id="Path_5500" class="shp8" d="M314.72,57.65c2,0.1 3.9,0.6 5.7,1.4c0.5,0.2 0.9,0.4 1.3,0.7c0.5,0.2 0.9,0.5 1.3,0.8l1.2,0.9l1.1,1c0.3,0.3 0.5,0.4 0.6,0.6l0.5,0.6c0.3,0.4 0.7,0.8 1,1.2c0.7,0.8 1.3,1.8 2.1,2.7c0,-1.2 -0.2,-2.4 -0.6,-3.5c-0.2,-0.4 -0.5,-1 -0.7,-1.6c-0.2,-0.5 -0.5,-1.1 -0.8,-1.6c-0.3,-0.5 -0.7,-1 -1,-1.5c-0.4,-0.5 -0.8,-0.9 -1.3,-1.3c-0.9,-0.8 -2,-1.5 -3.1,-2.1c-2.3,-1 -4.8,-1.4 -7.3,-1c-2.4,0.3 -4.6,1.3 -6.4,2.9c2.2,-0.2 4.4,-0.3 6.4,-0.2z" />
		</g>
	</g>
	<g id="Group_3198">
		<g id="Group_2952_2_">
			<path id="Path_5381_1_" class="shp9" d="M438.21,165.39c-27.7,-14.9 -45.5,45.5 -45.5,45.5l-9.8,43.1l2.5,0.5l10.3,-45.1c0,0 15.2,-55.1 40.9,-43.6c0.6,0.3 1.1,0.3 1.5,-0.2z" />
		</g>
		<g id="Group_2958_1_">
			<g id="Group_2955_1_">
				<g id="Group_2954_1_">
					<path id="Path_5382_1_" class="shp9" d="M448.63,174.19c-1.5,-2 -2.5,-4.3 -2.9,-6.7c-0.6,-3.5 -6,-5.2 -8.4,-2.3z" />
				</g>
			</g>
			<g id="Group_2957_1_">
				<g id="Group_2956_1_">
					<path id="Path_5383_1_" class="shp10" d="M437.35,165.19c-2.3,2.9 0.5,7.6 4.1,7.6c2.5,0.1 4.9,0.5 7.2,1.4z" />
				</g>
			</g>
		</g>
		<g id="Group_2982_1_">
			<g id="Group_2979_1_">
				<g id="Group_2976_1_">
					<g id="Group_2975_1_">
						<path id="Path_5388_1_" class="shp11" d="M442.38,187.9c-5.7,-0.1 -11.4,-1.4 -16.5,-3.9c-0.4,-0.2 -2.7,2.7 -3.1,2.5c-0.3,-0.2 1.3,-3.4 1,-3.6c-0.2,-0.1 -0.4,-0.2 -0.6,-0.3c-8.3,-3.8 -19.9,4.5 -17.7,13.9z" />
					</g>
				</g>
				<g id="Group_2978_1_">
					<g id="Group_2977_1_">
						<path id="Path_5389_1_" class="shp12" d="M405.43,196.6c2.3,9.6 16.6,11.3 22.5,4c4.1,-5 9,-9.3 14.5,-12.7z" />
					</g>
				</g>
			</g>
			<g id="Group_2981_1_">
				<g id="Group_2980_1_">
					<path id="Rectangle_3512_1_" class="shp9" d="M398.77,197.5l-0.9,2l7.9,-1.9l-0.5,-2.1z" />
				</g>
			</g>
		</g>
		<g id="Group_2990_2_">
			<g id="Group_2987_2_">
				<g id="Group_2984_2_">
					<g id="Group_2983_2_">
						<path id="Path_5390_2_" class="shp9" d="M444.76,212.78c-8.6,1.3 -17.4,0.5 -25.7,-2.2c-11.9,-3.9 -26.2,10 -21,22z" />
					</g>
				</g>
				<g id="Group_2986_2_">
					<g id="Group_2985_2_">
						<path id="Path_5391_2_" class="shp10" d="M398.02,232.58c2.7,6.4 9.3,9.1 15.9,8.7c1.2,-0.1 1.1,-6.6 2.2,-6.9c1,-0.2 3.2,5.8 4.2,5.4c3.4,-1.4 6.3,-3.8 8.1,-7c0.5,-0.7 -2.4,-2.8 -1.9,-3.6c0.3,-0.4 3.8,0.6 4,0.2c3.9,-6.2 8.7,-11.8 14.2,-16.6z" />
					</g>
				</g>
			</g>
			<g id="Group_2989_2_">
				<g id="Group_2988_2_">
					<path id="Rectangle_3513_2_" class="shp9" d="M388.18,237.73l9.94,-4.23l-1.18,-2.76l-9.94,4.23z" />
				</g>
			</g>
		</g>
		<g id="Group_2999_1_">
			<g id="Group_2996_1_">
				<g id="Group_2993_1_">
					<g id="Group_2992_1_">
						<path id="Path_5392_1_" class="shp9" d="M421.18,162.49c5.1,2 10.8,-4.1 9,-9.1c-1.2,-3.5 -1.6,-7.2 -1.2,-10.8z" />
					</g>
				</g>
				<g id="Group_2995_1_">
					<g id="Group_2994_1_">
						<path id="Path_5393_1_" class="shp10" d="M428.98,142.59c-2.3,2.8 -5.1,5.2 -8.2,7.1c-4.6,2.7 -4.7,10.8 0.4,12.8z" />
					</g>
				</g>
			</g>
			<g id="Group_2998_1_">
				<g id="Group_2997_1_">
					<path id="Rectangle_3514_1_" class="shp9" d="M419.89,166.58l1.65,-4.19l-1.12,-0.44l-1.65,4.19z" />
				</g>
			</g>
		</g>
		<g id="Group_3007_1_">
			<g id="Group_3004_1_">
				<g id="Group_3001_1_">
					<g id="Group_3000_1_">
						<path id="Path_5394_1_" class="shp13" d="M407.3,170.32c6.8,-3.1 6.2,-14.5 -0.4,-17.4c-4.5,-2 -8.6,-5 -11.7,-8.9z" />
					</g>
				</g>
				<g id="Group_3003_1_">
					<g id="Group_3002_1_">
						<path id="Path_5395_1_" class="shp14" d="M395.2,144.02c0.6,4.9 0.3,9.9 -0.8,14.7c-1.7,7 6.1,14.8 13,11.6z" />
					</g>
				</g>
			</g>
			<g id="Group_3006_1_">
				<g id="Group_3005_1_">
					<path id="Rectangle_3515_1_" class="shp9" d="M409.21,175.56l1.54,-0.71l-2.6,-5.63l-1.54,0.71z" />
				</g>
			</g>
		</g>
		<g id="Group_3023_2_">
			<g id="Group_3020_2_">
				<g id="Group_3017_2_">
					<g id="Group_3016_2_">
						<path id="Path_5398_2_" class="shp9" d="M381.61,224.48c9.6,-8.9 2.3,-27.5 -10.2,-28.7c-8.6,-0.8 -17,-3.7 -24.3,-8.4z" />
					</g>
				</g>
				<g id="Group_3019_2_">
					<g id="Group_3018_2_">
						<path id="Path_5399_2_" class="shp10" d="M347.11,187.38c2.3,5 4.1,10.3 5.2,15.7c0,0.2 3.2,-0.2 0.1,0.5c-0.1,0 0,0.2 0.1,0.2c0.4,1.9 0.7,3.8 1,5.8c0,0.3 5,-0.1 5,0.2c0,0.2 -4.9,1 -4.9,1.2c0,0.4 0.1,0.9 0.1,1.3c0.2,2.7 1.2,5.2 2.7,7.4c0.8,1.2 3.5,-1.5 4.6,-0.5c1.1,1 0.7,5.8 2,6.5c5.9,3.3 13.4,3.7 18.6,-1.2z" />
					</g>
				</g>
			</g>
			<g id="Group_3022_2_">
				<g id="Group_3021_2_">
					<path id="Rectangle_3517_2_" class="shp9" d="M387.9,232.62l2.2,-2.04l-7.35,-7.91l-2.2,2.04z" />
				</g>
			</g>
		</g>
		<g id="Group_2951">
			<g id="Group_2947">
				<path id="Rectangle_3508" class="shp15" d="M335.76,258.97v0v0h49v0v-11.5v0h-37.5c-6.4,0 -11.5,5.1 -11.5,11.5z" />
			</g>
			<g id="Group_2948">
				<path id="Rectangle_3509" class="shp16" d="M384.72,247.47v11.5v0h48.6v0v0v0c0,-6.4 -5.2,-11.5 -11.5,-11.5h-37.1z" />
			</g>
			<g id="Group_2949">
				<path id="Path_5379" class="shp17" d="M338.94,258.95l12.1,59h33.7v-59z" />
			</g>
			<g id="Group_2950">
				<path id="Path_5380" class="shp15" d="M430.12,258.95h-45.4v59h35.2z" />
			</g>
		</g>
	</g>
	<g id="Group_3199">
		<g id="Group_3081_4_">
			<g id="Group_3080_4_">
				<g id="Group_2348_4_">
					<path id="Path_2310_4_2" class="shp1" d="M440.75,299.25c0,0 -40.65,-33.92 -51.64,-38.47c-14.4,-7.34 -36.79,-12.51 -46.78,4.7c-0.6,0.94 -1.1,1.93 -1.52,2.95c-6.56,16.22 12.38,28.85 25.42,34.23c24.64,10.29 54.22,15.57 69.89,39.49c0.96,1.36 2.9,-0.23 2.03,-1.55" />
				</g>
			</g>
		</g>
		<g id="Group_3081_3_">
			<g id="Group_3080_3_">
				<g id="Group_2348_3_">
					<path id="Path_2310_1_2" class="shp0" d="M389.16,260.9c-14.4,-7.34 -36.79,-12.51 -46.78,4.7c-0.6,0.94 -1.1,1.93 -1.52,2.95c-6.56,16.22 12.38,28.85 25.42,34.23c24.64,10.29 54.22,15.57 69.89,39.49c0.96,1.36 2.9,-0.23 2.03,-1.55c-9.89,-15.01 -25.87,-23.52 -42.11,-29.76c-10.64,-4.09 -21.53,-7.31 -31.99,-11.86c-9.4,-4.23 -19.72,-10.46 -21.72,-21.51c-2.17,-11.45 8.1,-20.02 18.58,-21.39c10.48,-1.37 20.77,3.33 29.81,8.18c17.9,9.61 34.62,21.34 49.74,34.9c0,0 -40.61,-34.01 -51.36,-38.36z" />
				</g>
			</g>
		</g>
	</g>
	<g id="Group_3200">
		<path id="Path_2457" class="shp18" d="M82.32,551.11c61.43,37.24 237.9,41.51 341.11,12.36c103.22,-29.14 212.16,-204.98 113.56,-278.93c-98.3,-73.86 -357.9,-42.13 -434.05,-0.99c-75.94,41.33 -87.29,107.62 -87.29,107.62c-18.65,70.27 5.33,122.69 66.66,159.93z" />
		<g id="Layer">
			<path id="Path_2459-2" class="shp1" d="M280.83,550.26c95.3,-6.54 203.78,-32.33 225.69,-80.44c21.91,-48.11 44.04,-131.27 -46.98,-174.61c-91.02,-43.34 -279.47,-8.64 -339.88,19.04c-60.41,27.68 -65.52,111 -65.52,111c-28.29,103.3 131.38,131.65 226.68,125.01z" />
		</g>
	</g>
</svg>