<?xml version="1.0" encoding="utf-8"?>
<!-- Generator: Adobe Illustrator 22.1.0, SVG Export Plug-In . SVG Version: 6.00 Build 0)  -->
<svg version="1.1" id="Layer_1" xmlns="http://www.w3.org/2000/svg" xmlns:xlink="http://www.w3.org/1999/xlink" x="0px" y="0px"
	 viewBox="0 0 586.5 594.5" style="enable-background:new 0 0 586.5 594.5;" xml:space="preserve">
<style type="text/css">
	.st0{fill:#1D1D1B;}
	.st1{fill:#FFFFFF;}
	.st2{fill:#E2F2F1;}
	.st3{fill:#C6C6C6;}
	.st4{fill:#5B4E45;}
	.st5{opacity:0.26;fill:#B2B2B2;enable-background:new    ;}
	.st6{opacity:0.34;fill:#C6C6C6;enable-background:new    ;}
	.st7{fill:#D67D1D;}
	.st8{fill:#A9641C;}
	.st9{fill:#F29100;}
	.st10{fill:#48A13F;}
	.st11{fill:#3D8F37;}
	.st12{opacity:0.446;fill:#FFFFFF;enable-background:new    ;}
	.st13{enable-background:new    ;}
	.st14{fill:#00BCD4;}
	.st15{fill:#F38F31;}
	.st16{fill:#FFB510;}
	.st17{fill:#FDFAF1;}
	.st18{fill:#62616B;}
</style>
<g id="Group_3081_1_" transform="translate(180.527 -2248.551)">
	<g id="Group_3080_1_" transform="translate(8281.755 18800.775)">
		<g id="Group_2348_1_" transform="translate(5.763)">
			<path id="Path_2293_1_" class="st0" d="M-8027.5-16234.1c-0.6-20.2-4-40.2-10.1-59.5c-12-38.9-32.8-74.1-53.2-109
				c-0.6-1.1,0.5-2.8,1.8-2.4c7.2,2.8,6.6,0.8,7.5-4.7l1.9,0.1c-0.1,3.1-0.4,6.1-0.5,9.2c0,0.8-0.6,1.5-1.4,1.5
				c-0.2,0-0.3,0-0.5-0.1c-1.3-0.5-2.6-0.9-3.8-1.4c23.9,40.3,47.8,81.8,57.6,127.9c4.7,22.2,6.4,45.4,2.6,68 M-8060.6-16206.6
				c-5.2-49.4-16.6-96.8-28.1-144.9c-0.1-0.6,0.2-1.1,0.8-1.3c0,0,0,0,0,0c0.5-0.1,1.1,0.2,1.3,0.7c16.2,45.4,24.5,94.5,29.8,142.2"
				/>
			<path id="Path_2294_1_" class="st1" d="M-8337.5-16192.3c3.3-29.6,10-58.6,20.1-86.6c11.3-31.3,26.4-61.1,44.9-88.8
				c0.4-0.7,0.1-1.7-0.6-2.1c-0.3-0.2-0.7-0.2-1-0.2l-6.4,2.1c1.3-5.8,2.6-11.5,4-17.3c0.2-0.7-0.3-1.5-1-1.7c-0.3-0.1-0.7,0-1,0.1
				c-1.9,0.9-3.8,2-5.8,2.9c1.7-3.4,2.9-7.1,3.6-10.8c0.5-0.1,0.8-0.4,1.3-0.5c0.4-0.1,0.9-0.2,1.3-0.2
				c0.9-36.8,4.6-74.5,23.4-106.8c0.3-0.5,0.3-1,0.1-1.5c0.3-0.6,0.1-1.2-0.4-1.6c-5.6-4.2-11.2-8.7-13.6-15.4
				c-2.9-8-0.8-18.4,8.7-20.7c15.3-3.6,23.9,12.4,29.6,23.3c0.4,0.9,1.4,1.2,2.3,0.8c0.4-0.2,0.6-0.5,0.8-0.8c0.2,0,0.3,0,0.5-0.1
				c3.1-2.4,6.3-4.7,9.6-6.7c7.2-4.5,15.2-7.5,23.6-8.9c-1.6,3.7-2.9,7.6-3.6,11.6c-0.2,1.2,0.8,2.6,2.1,2.1
				c9.1-3.2,18.1-5.9,27.3-8.5c-2.4,3.4-5.1,6.5-8.2,9.2c-1.1,0.9-0.2,3.2,1.3,2.9c7.6-0.8,15.3-1.5,22.9-2.8c0.5-0.1,1-0.6,1.1-1.1
				c0.6,0.5,1.5,0.3,2-0.3c0.1-0.1,0.1-0.2,0.2-0.3c2.6-6.6,5.9-12.6,10.8-17.6c5.4-5.6,16.8-13.1,24.4-6.1
				c6.2,5.8,3.5,15.9-1.3,21.4c-4.1,4.7-9.8,7.9-15.3,10.8c-0.1,0.1-0.4,0.2-0.5,0.4c-0.1-0.2-0.3-0.3-0.5-0.4
				c-1.2-0.8-2.6,1.1-1.5,1.9c32.7,26.9,45.6,57.6,50.8,96.3c0.4-0.1-0.2,5.1,0.2,4.9c-0.9,5.5-0.4,7.5-7.5,4.7
				c-1.3-0.5-2.4,1.2-1.8,2.4c20.4,34.9,41.2,70.1,53.2,109c6.2,19.2,9.6,39.2,10.1,59.3 M-8257-16296.4c1.3-2-1.9-3.8-3.2-1.9
				c-14.9,21.6-17.6,48-17.1,73.5 M-8056.8-16209.7c-5.3-47.8-13.5-96.8-29.8-142.2c-0.2-0.6-0.8-0.9-1.4-0.7c0,0,0,0,0,0
				c-0.5,0.2-0.8,0.8-0.7,1.3c11.5,48.1,23.1,95.6,28.1,144.9 M-8088.5-16251.9c-6.8-27.5-14.8-56.9-38-75.2
				c-19.6-15.3-45-20.9-69.2-15.2c-0.6-0.5-1.5-0.6-2.1-0.1c-43.5,26.2-50.6,86.3-51.5,132.3 M-8117.9-16527.4
				c2.9-3.3,4.2-8.9,0.5-12.2c-10.2-9.2-21.9,12.2-26,18.2c-0.2,0.3-0.2,0.6,0,0.9c-0.8,0.4-1.3,1.3-0.5,2c1.1,1,2.3,2,3.5,2.8
				c0.3,0.2,0.6,0.2,0.9,0c0.4,0.1,0.8,0.1,1.2-0.1C-8131.5-16518.4-8122.8-16521.9-8117.9-16527.4z M-8145-16408.5
				c5.1-9.2,2.4-20.9-7.3-25.6c-0.5-0.2-1-0.2-1.5,0c0.1-1,0.1-2.1-0.1-3.1c-2.1-10.7-19.9-7.4-27.2-7.4c-5.6,0-23.1-1.4-22.9,8.1
				c0.1,1.5,0.4,3,1.1,4.4c-8.5,5.5-15.3,14-11.1,24.6c5.5,13.6,21.3,16.1,34.2,15.4C-8166.8-16392.8-8151.7-16396-8145-16408.5z
				 M-8238.2-16514.4c0.9-0.1,1.3-1.3,1.2-2.1c-1.2-6.8-4.5-13.5-10-17.9c-3.9-3.1-9.6-4.6-13.6-0.8s-2.4,10.2-0.1,14.5
				c2.9,5.4,8.2,9.1,14.2,10c0.2,0,0.5,0,0.7-0.1c0.6,0.4,1.4,0.4,2-0.1C-8242.5-16512.8-8240.5-16514-8238.2-16514.4z"/>
			<path id="Path_2296_1_" class="st0" d="M-8079.6-16409.9C-8080.1-16409.9-8079.1-16409.9-8079.6-16409.9v0.5l-1.9-0.1
				c-0.4,0.1,0.4-0.2,0,0c-5.1-38.7-18.3-74.2-51-101.2c-1.1-0.9,0.4-2.7,1.5-1.9c0.1,0.1,0.4,0.2,0.5,0.4c0.1-0.2,0.3-0.3,0.5-0.4
				c5.4-2.9,11.2-6,15.3-10.8c4.8-5.5,7.5-15.6,1.3-21.4c-7.5-7.1-18.9,0.5-24.4,6.1c-4.7,5.1-8.4,11.1-10.8,17.6
				c-0.3,0.7-1.1,1-1.8,0.7c0,0,0,0,0,0c-0.1,0-0.2-0.1-0.3-0.2l-0.4-1.4c3.6-13.9,22.2-38.5,38.9-26.8c6.2,4.4,7.4,12.8,5.3,19.8
				c-2.9,9.3-11.9,14.8-20,19.3c28,21.4,41.4,56.7,47.3,90.6C-8079.2-16416.2-8080-16412.9-8079.6-16409.9z"/>
			<path id="Path_2297_2_" class="st2" d="M-8245.3-16194c-1.5-48.2,3.1-116.9,49.4-144.9c0.5-0.2,0.8-0.7,0.8-1.2
				c21.8-4.5,44.4,0.1,62.7,12.8c21.3,14.9,30.1,39.2,36.7,63.3"/>
			<path id="Path_2298_1_" class="st0" d="M-8249.5-16210.2c0.8-46,8.1-106.1,51.5-132.2c0.6-0.4,1.5-0.4,2.1,0.1
				c24.2-5.7,49.6-0.1,69.2,15.2c23.4,18.2,31.3,47.6,38.1,75.2 M-8095.4-16264c-6.6-24.1-15.4-48.3-36.7-63.3
				c-18.2-12.7-40.9-17.4-62.7-12.8c-0.1,0.5-0.4,0.9-0.8,1.2c-46.2,28-50.8,96.7-49.4,144.9"/>
			<path id="Path_2299_1_" class="st0" d="M-8117.3-16539.6c3.6,3.3,2.5,8.9-0.5,12.2c-5.1,5.5-13.6,8.9-20.4,11.9
				c-0.4,0.2-0.8,0.2-1.2,0.1c-0.3,0.1-0.6,0.1-0.9,0c-1.2-0.9-2.4-1.8-3.5-2.8c-0.5-0.4-0.6-1.1-0.2-1.6c0,0,0,0,0,0
				c0.2-0.2,0.4-0.3,0.6-0.4c-0.2-0.3-0.2-0.6,0-0.9C-8139.2-16527.4-8127.6-16548.8-8117.3-16539.6z M-8121.3-16528.4
				c3.3-2.9,4.8-9.9-1.5-10c-4.5-0.1-7.5,4.1-10,7.3c-2.9,3.8-5.8,7.5-8.9,11.2l-0.1,0.1c0.6,0.5,1.1,1,1.6,1.6
				c0.1-0.1,0.1-0.1,0.2-0.1c0.1-0.1,0.2-0.1,0.4-0.2c0.2-0.1,0.4-0.1,0.5-0.2c4.3-1.9,8.4-3.9,12.5-6.2
				C-8124.8-16526-8123-16527.2-8121.3-16528.4z"/>
			<path id="Path_2300_1_" class="st2" d="M-8122.8-16538.6c6.4,0.1,4.8,7.1,1.5,10c-1.6,1.4-3.4,2.5-5.3,3.4
				c-4,2.3-8.2,4.4-12.5,6.2c-0.2,0-0.4,0.1-0.5,0.2c-0.1,0.1-0.2,0.1-0.4,0.2c-0.1,0-0.1,0.1-0.2,0.1c-0.5-0.6-1-1.1-1.6-1.6
				l0.1-0.1c3.1-3.6,5.9-7.5,8.9-11.2C-8130.3-16534.4-8127.3-16538.7-8122.8-16538.6z"/>
			<path id="Path_2301_1_" class="st0" d="M-8152.3-16434.1c9.6,4.7,12.4,16.5,7.3,25.6c-6.8,12.4-21.8,15.5-34.7,16.2
				c-12.9,0.7-28.7-1.8-34.2-15.4c-4.4-10.7,2.6-19.1,11.1-24.6c-0.7-1.4-1.1-2.9-1.1-4.4c-0.1-9.5,17.2-8.1,22.9-8.1
				c7.2,0,25.1-3.2,27.2,7.4c0.2,1,0.3,2.1,0.1,3.1C-8153.2-16434.3-8152.8-16434.3-8152.3-16434.1z M-8152.1-16404.9
				c7.6-7.5,8.7-20.6-2-26c-0.2-0.1-0.4-0.2-0.5-0.4c-3.4,8.2-16.6,14-22.5,18c-0.6,0.5-1.4,0.5-2,0c0.1,1.2,0.1,2.4,0.2,3.6
				c0,1.3,1.1,1.6,1,2.7c3.2-0.4,4.4-2.8,7.5-4.7c1.6-1.1,6.2-1.1,4.6,0c-8.4,11.5-20.8,10.1-27.9,3.8c-0.7-0.6-2.1-6-1.4-5.5
				c3.8,2.1,9.9,7.6,13.8,7.6c-0.1-1.3,0.1-2.6,0.1-3.9c0.1-1.4,0.1-2.9,0.2-4.4c-6-2.6-16.7-9.2-21.1-16.5
				c-7.6,7.6-14.8,17.1-5.4,27.3c6.7,7.2,17.1,8.2,26.2,7.8C-8171-16395.9-8159.6-16397.6-8152.1-16404.9z M-8160.2-16430.1
				c0.5-7.5-1.8-11.1-6.7-10.5h-15.7c-3.3,0-7.2-0.5-10.4,0.5c-8.1,2.4-6.2,6.1-2.1,11.2c4.3,5.1,9.6,9.4,15.4,12.7
				c0.1-0.2,0.4-0.4,0.6-0.6c3.6-2.5,7.4-4.9,11.1-7.4C-8166-16425.6-8161.6-16427.7-8160.2-16430.1L-8160.2-16430.1z"/>
			<path id="Path_2302_1_" class="st0" d="M-8151.1-16522l0.4,1.4c-0.1,0.5-0.6,1-1.1,1.1c-7.5,1.3-15.3,2-22.9,2.8
				c-1,0-1.8-0.8-1.8-1.8c0,0,0,0,0,0c0-0.4,0.2-0.9,0.5-1.2c3.2-2.7,5.9-5.8,8.2-9.2c-9.2,2.6-18.4,5.3-27.3,8.5
				c-1.3,0.5-2.4-0.9-2.1-2.1c0.8-4,2-7.9,3.6-11.6c-8.4,1.5-16.4,4.5-23.6,8.9l-1.2-1.8c8.3-5.4,17.6-9.1,27.3-10.9
				c0.9-0.2,1.8,0.4,2,1.3c0.1,0.4,0,0.8-0.2,1.2c-1.7,3.4-3,7-3.9,10.7c9.5-3.3,19.2-6.2,28.8-8.8c1-0.2,1.9,0.4,2.2,1.3
				c0.1,0.4,0,0.8-0.2,1.2c-2,3.6-4.5,7-7.4,10c5.8-0.7,11.6-1.5,17.4-1.8C-8151.9-16522.4-8151.4-16522.3-8151.1-16522z"/>
			<path id="Path_2303_1_" class="st3" d="M-8154.1-16430.9c10.7,5.3,9.6,18.5,2,26c-7.5,7.4-18.9,9.1-29.1,9.5
				c-9.3,0.5-19.5-0.6-26.2-7.8c-9.4-10.1-2.2-19.6,5.4-27.3c4.4,7.3,15.1,13.9,21.1,16.5c-0.1,1.4-0.1,2.9-0.2,4.4
				c-0.2,1.3-0.2,2.6-0.1,3.9c-3.8-0.1-9.1-0.7-12.4-5.8c-0.7-0.5-1.2,0.4-0.5,1c5,9,17.4,7.4,25,2c1.5-1.1,3-4.4,1.4-3.4
				c-3.1,1.9-7.8,5.6-10.9,5.9c0.1-1.3-0.1-2.6-0.1-3.8c-0.1-1.2-0.1-2.4-0.2-3.6c0.6,0.5,1.4,0.5,2,0c5.9-3.9,19.1-9.8,22.5-18
				C-8154.5-16431.2-8154.3-16431-8154.1-16430.9z"/>
			<path id="Path_2304_1_" class="st4" d="M-8166.9-16440.6c4.9-0.6,7.2,2.9,6.7,10.5c-1.4,2.4-5.8,4.5-7.9,5.9
				c-3.6,2.5-7.3,4.9-11.1,7.4c-0.3,0.1-0.5,0.3-0.6,0.6c-5.8-3.4-11-7.7-15.4-12.7c-4.1-5.1-6-8.8,2.1-11.2
				c3.2-0.9,7.1-0.5,10.4-0.5H-8166.9z"/>
			<path id="Path_2306_1_" class="st0" d="M-8218.4-16526.8l1.2,1.8c-3.3,2-6.5,4.3-9.6,6.7c-0.1,0.1-0.3,0.1-0.5,0.1
				c-0.7,1.1-2.4,1.5-3.1,0c-5.7-10.9-14.3-26.9-29.4-23.2c-9.4,2.4-11.6,12.7-8.7,20.7c2.5,6.8,8,11.3,13.6,15.4
				c0.5,0.4,0.6,1,0.4,1.6c0.3,0.5,0.2,1.1-0.1,1.5c-18.8,32.3-22.5,70-23.4,106.8c-0.5,0.1-0.9,0.1-1.3,0.2
				c-0.5,0.1-0.8,0.4-1.3,0.5l-1.8-0.2c0.5-1.6,0.8-3.3,1.2-4.9v-2.2c1.1-35.2,5.6-70.9,23.6-101.9l0.1-0.1
				c-12.5-7.4-24.4-26.4-9.8-38c16.9-13.5,34,8.2,40.1,21.9c0,0.1,0,0.1,0.1,0.2C-8224.4-16522.4-8221.5-16524.7-8218.4-16526.8z"/>
			<path id="Path_2308_1_" class="st0" d="M-8236.9-16516.4c0.2,0.9-0.3,1.8-1.2,2.1c-2.2,0.4-4.2,1.6-5.6,3.4
				c-0.5,0.6-1.4,0.6-2,0.1c-0.2,0.1-0.5,0.1-0.7,0.1c-6.1-0.9-11.3-4.6-14.2-10c-2.2-4.2-3.9-10.7,0.1-14.5s9.8-2.2,13.6,0.8
				C-8241.5-16530-8238.2-16523.3-8236.9-16516.4z M-8246.3-16512.9c1.3-2.1,3.3-3.7,5.6-4.4c-2-7.1-9.6-22.2-17.3-15.1
				c-3.8,3.6-0.5,10.1,2.5,13.5C-8253-16516.2-8249.9-16514.1-8246.3-16512.9L-8246.3-16512.9z"/>
			<path id="Path_2309_1_" class="st2" d="M-8240.7-16517.3c-2.4,0.7-4.4,2.2-5.6,4.4c0,0.1,0,0.1-0.1,0.1l0,0
				c-3.5-1.2-6.6-3.2-9.1-6c-2.9-3.4-6.2-10-2.5-13.5C-8250.3-16539.5-8242.7-16524.3-8240.7-16517.3z"/>
			<path id="Path_2310_4_" class="st0" d="M-8277.4-16224.7c-0.4-25.5,2.4-51.9,17.3-73.5c1.3-1.9,4.6-0.1,3.2,1.9"/>
			<path id="Path_2310_3_" class="st0" d="M-8341.4-16187.8c5.6-63.3,28.6-125.3,64-177.9c-1.5,0.5-3.2,1.1-4.7,1.5
				c-0.8,0.2-1.6-0.3-1.8-1.1c0,0,0,0,0,0v-0.6c1.3-5.6,2.7-11.3,4-16.9l-7.1,3.5c-1.1,0.6-2.6-0.6-1.8-1.8
				c2.8-4.2,4.9-8.8,6.2-13.7l1.8,0.2c-0.7,3.8-1.9,7.4-3.6,10.8c1.9-0.9,3.9-2,5.8-2.9c0.6-0.4,1.5-0.2,1.9,0.5c0,0,0,0,0,0
				c0.2,0.3,0.2,0.7,0.1,1c-1.3,5.8-2.6,11.5-4,17.3l6.4-2.1c1.2-0.4,2.5,1.2,1.6,2.2c-18.6,27.6-33.7,57.4-44.9,88.8
				c-10,28-16.8,57.1-20.1,86.6"/>
			<path id="Path_2311_1_" class="st5" d="M-8196.2-16536.1c-11.3,1.8-24.2,7.9-31.3,16.9c-0.8,1.1,0.2,2.8,1.5,2
				c4.8-2.7,9.3-5.8,14.4-8c5.5-2.5,11.2-3.8,17.1-5.1C-8190.7-16531-8192.3-16536.7-8196.2-16536.1z"/>
			<path id="Path_2312_1_" class="st5" d="M-8168.1-16531.9c-10.2,1.1-19.9,4.6-28.5,10.2c-1.4,0.9-0.6,3.4,1.2,2.9
				c4.6-1.3,9.2-2.9,13.9-4.1c4.7-1.2,9.5-1.8,14.2-2.7C-8163.9-16526.3-8164.6-16532.2-8168.1-16531.9z"/>
			<path id="Path_2313_1_" class="st5" d="M-8113.6-16552.2c-10.8,0.1-20.2,6.5-26.7,14.8c-2.1,2.8-3.5,5.9-5.5,8.7
				c-2,2.9-2.4,3.3-6.1,4.4c-7.2,2-15.1,2.2-22.4,4c-2.2,0.6-1.6,3.8,0.5,3.9c6.6,0.1,13.3-0.1,19.9-0.7c4.4-0.4,8.8,0.1,11.8-3.6
				c3.8-4.8,5.2-10.8,9.4-15.5c5.4-6,12-8.8,19.9-10C-8109.4-16546.8-8110.3-16552.2-8113.6-16552.2z"/>
			<path id="Path_2314_1_" class="st5" d="M-8148.2-16436.3c-0.5-3.2-2.9-5.8-6.1-6.5c-3.6-0.9-5.9,4.2-2.6,6.1
				c0.7,0.3,1.2,1,1.3,1.8c-0.6,0.8-0.8,1.8-0.7,2.8c-3.6,6.5-18.5,16.6-20.8,18.2c-1.6,1.2-0.7,4.4,1.5,3.6
				c8.6-3.1,18.1-8.6,24.2-15.5c0.6-0.6,1.1-1.3,1.5-2.1c7.3,3.2,8.8,12,4.5,19.3c-4.4,7.2-13.1,11.5-20.9,13.6
				c-13.2,3.4-40.1,2.1-45.1-13.9c-0.2-0.4-0.6-0.6-1-0.5c-0.3,0.1-0.6,0.4-0.6,0.8c0.2,10.1,10.6,16.5,19.2,19.6
				c12.5,4.6,26.2,4.3,38.5-0.9c10.6-4.6,20.7-13.5,21.4-25.8C-8133.4-16425.4-8139.1-16434.2-8148.2-16436.3z"/>
			<path id="Path_2315_4_" class="st5" d="M-8324.5-16208.2c2.5-11.5,4.9-23.2,7.3-34.7c4.7-22.6,8-44.6,19.1-65.2
				c3.1-5.8,6.4-11.3,9.8-16.8c2.1-3.1,4.2-6.1,6.4-9.3c1.4-2.2,2.7-4.5,4-6.8c5.5-8.4,11.3-16.6,17.3-24.7c1.6-2.2-0.1-4.8-2.2-5.6
				c-0.4-0.7-1.1-1.3-1.9-1.5c0.7-1.5-1.1-3.4-2.8-3.1c-2,0.5-3.9,0.9-5.8,1.3c1.2-4.4,2-8.9,2.6-13.4c0.2-2.4-2.2-4.6-4.6-4.5
				c2.5-7.4,4.7-15,6.4-22.7c2.2-10.2,2.8-20.7,4.4-31.3c1.4-9.5,4.8-18.7,6.5-28.1c1.8-9.6,3.8-18.5,9.8-26.5
				c1.8-2.4-0.7-5.2-3.3-5.2c-2.2-2.2-5.3-3.4-7.6-5.6c-3.5-3.6-5.8-8.2-6.7-13.2c-1.1-6.4,1.8-7.8,6.6-10.6
				c2.1-1.3,2.6-1.4,3.5-3.9c1.1-2.9-2.8-4.5-4.8-2.8c-1.2,0.9-3.5,0.8-4.8,1.5c-2,1-3.8,2.5-5.1,4.4c-2.6,3.9-3.5,8.7-2.5,13.3
				c1.6,8.8,8,18.5,17.3,20.1c-4.6,5.9-6.8,13.1-8.5,20.3c-0.2,1.3-0.6,2.6-0.9,3.9c-10.5,14.8-11.9,35.5-10.9,52.9
				c0,0.3,0.1,0.6,0.4,0.7c-0.2,1.6-0.6,3.4-0.9,5.1c-2.2,11.5-5.4,22.7-9.6,33.6c-1.2,2.9,2.4,6.1,5.2,5.2c0.1,0,0.1,0,0.2-0.1
				c-0.7,3.8-1.6,7.5-2.8,11.1c-0.9,2.9,2.2,6.5,5.3,5.3c2.1-0.8,4.2-1.7,6.2-2.7c-2.5,2.9-5.1,5.6-6.4,9.4
				c-0.9,2.6-1.9,5.2-2.8,7.6c-10.3,14.6-19.4,30-27.4,46c-7.1,14.2-11.1,29.8-14.5,45.3c-0.1,0.4-0.2,0.7-0.2,1.1
				c-4.2,14.5-10.5,28.8-10.4,44.1c0,0.6,0.5,1.1,1.1,1.2c-1.4,6.8-2.8,13.5-4.1,20.4"/>
			<path id="Path_2315_3_" class="st5" d="M-8269.5-16238.2c1.2-18.1,3.5-39.9,15.6-54.5c2.4-2.8-1.6-7.1-4.1-4.1
				c-18.6,21.8-17.3,55.5-17.4,82.3c0,8-0.2,15.9-0.2,23.9"/>
			<path id="Path_2318_2_" class="st5" d="M-8234.8-16199.9c-0.8-16.4-1.6-32.9,0.8-49.3c2.2-14.6,7.2-28.7,12.5-42.5
				c5.3-13.6,9.9-27.8,23.1-35.9c14.5-8.8,29.9-8,46-6.4c3.4,0.5,3.3-4.4,0.7-5.4c-19.5-8.2-49.9-2.5-63.9,14
				c-7.4,8.8-11.2,20.5-15.2,31.2c-4.9,12.8-9.5,25.9-12,39.4"/>
			<path id="Path_2319_2_" class="st5" d="M-8042.9-16200.1c-0.5-6.6-1.4-13.2-2.6-19.8c-2.7-15.3-6.9-30.2-10.6-45.3
				c-3.6-15.2-7.3-30.3-11.2-45.4c-3.6-13.9-7.6-28.9-16.2-40.7c-0.7-1.2-2.3-1.5-3.5-0.8c-0.9,0.6-1.4,1.7-1.1,2.8
				c3.3,13.4,7.9,26.5,11.3,39.9c3.3,13.1,6.4,26.1,9.5,39.2c2.5,10,4.9,19.9,7.3,29.9c-4.2,3.4-1.2,14.1-0.7,18.2"/>
		</g>
		<ellipse id="Ellipse_951_1_" class="st6" cx="-8141.2" cy="-16479.9" rx="18.4" ry="25.1"/>
	</g>
	<path id="Path_5477_1_" class="st0" d="M92.2,2325.9c-1.9,7.6-9.9,11.1-17.2,11.9c-12.9,1.4-18.6-7.9-20.3-18.9
		c-1.2-7.4,2.2-8.1,3.1-0.9c1.1,8.9,4.8,16.8,14.9,16.7c8.4-0.1,16.4-4.3,17.2-13.3C90.5,2314.2,94.3,2317.6,92.2,2325.9z"/>
	<path id="Path_5478_1_" class="st0" d="M152.2,2325.9c-1.9,7.6-9.9,11.1-17.2,11.9c-12.9,1.4-18.6-7.9-20.3-18.9
		c-1.2-7.4,2.2-8.1,3.1-0.9c1.1,8.9,4.8,16.8,14.9,16.7c8.4-0.1,16.4-4.3,17.2-13.3C150.5,2314.2,154.3,2317.6,152.2,2325.9z"/>
</g>
<g id="Group_2951" transform="translate(1.044 170.779)">
	<g id="Group_2947">
		<path id="Rectangle_3508" class="st7" d="M352.2,76.7h37.5l0,0v11.5l0,0h-49l0,0l0,0C340.7,81.8,345.9,76.7,352.2,76.7z"/>
	</g>
	<g id="Group_2948" transform="translate(48.959)">
		<path id="Rectangle_3509" class="st8" d="M340.7,76.7h37.1c6.3,0,11.5,5.1,11.5,11.5l0,0l0,0l0,0h-48.6l0,0V76.7L340.7,76.7z"/>
	</g>
	<g id="Group_2949" transform="translate(3.187 11.484)">
		<path id="Path_5379" class="st9" d="M340.7,76.7l12.1,59h33.7v-59H340.7z"/>
	</g>
	<g id="Group_2950" transform="translate(48.959 11.484)">
		<path id="Path_5380" class="st7" d="M386.1,76.7h-45.4v59h35.2L386.1,76.7z"/>
	</g>
</g>
<g id="Group_2953" transform="translate(48.849 34.123)">
	<g id="Group_2952">
		<path id="Path_5381" class="st10" d="M343.3,213.3h-2.6l0.8-59h1.3L343.3,213.3z"/>
	</g>
</g>
<g id="Group_2982" transform="translate(10.259 85.115)">
	<g id="Group_2979" transform="translate(6.512)">
		<g id="Group_2976">
			<g id="Group_2975">
				<path id="Path_5388" class="st10" d="M404.4,86.2c-4.9,1.8-10.1,2.5-15.2,1.9c-7.5-0.8-14,9.1-9.5,15.5L404.4,86.2z"/>
			</g>
		</g>
		<g id="Group_2978" transform="translate(2.243)">
			<g id="Group_2977">
				<path id="Path_5389" class="st11" d="M402.2,86.2c-3.1,4.1-5.4,8.8-7,13.7c-2.2,7.2-13.3,10.1-17.8,3.7L402.2,86.2z"/>
			</g>
		</g>
	</g>
	<g id="Group_2981" transform="translate(0 25.497)">
		<g id="Group_2980">
			<polygon id="Rectangle_3512" class="st10" points="385.7,77.4 386.7,78.8 381.3,82.6 380.6,81 			"/>
		</g>
	</g>
</g>
<g id="Group_2990" transform="translate(10.393 117.589)">
	<g id="Group_2987" transform="translate(7.154)">
		<g id="Group_2984">
			<g id="Group_2983">
				<path id="Path_5390" class="st10" d="M423.9,76.7c-8.1,3-16.9,4.1-25.6,3.2c-12.5-1.4-23.5,15.2-16,25.9L423.9,76.7z"/>
			</g>
		</g>
		<g id="Group_2986" transform="translate(2.456)">
			<g id="Group_2985">
				<path id="Path_5391" class="st11" d="M421.5,76.7c-5.2,6.9-9.1,14.7-11.7,23c-3.6,12-22.3,16.9-29.8,6.2L421.5,76.7z"/>
			</g>
		</g>
	</g>
	<g id="Group_2989" transform="translate(0 27.889)">
		<g id="Group_2988">
			
				<rect id="Rectangle_3513" x="379.8" y="79.5" transform="matrix(0.8185 -0.5746 0.5746 0.8185 23.4055 236.0217)" class="st10" width="10.8" height="3"/>
		</g>
	</g>
</g>
<g id="Group_3015" transform="translate(4.561 50.717)">
	<g id="Group_3012">
		<g id="Group_3009">
			<g id="Group_3008">
				<path id="Path_5396" class="st10" d="M350.8,115.7c5.8,2.2,12,3,18.2,2.3c8.9-1,16.8,10.8,11.4,18.5L350.8,115.7z"/>
			</g>
		</g>
		<g id="Group_3011">
			<g id="Group_3010">
				<path id="Path_5397" class="st11" d="M350.8,115.7c3.7,4.9,6.5,10.5,8.3,16.4c2.6,8.6,15.9,12.1,21.3,4.4L350.8,115.7z"/>
			</g>
		</g>
	</g>
	<g id="Group_3014" transform="translate(37.154 25.473)">
		<g id="Group_3013" transform="translate(0)">
			<path id="Rectangle_3516" class="st10" d="M349.4,115.4l-0.6,0.8l-6.3-4.4l1.2-1.7l5.3,3.8C349.6,114.2,349.8,114.9,349.4,115.4z
				"/>
		</g>
	</g>
</g>
<g id="Group_3023" transform="translate(0 83.192)">
	<g id="Group_3020">
		<g id="Group_3017">
			<g id="Group_3016">
				<path id="Path_5398" class="st10" d="M340.7,106.5c8.1,3,16.9,4.1,25.6,3.2c12.5-1.4,23.5,15.2,16,25.9L340.7,106.5z"/>
			</g>
		</g>
		<g id="Group_3019">
			<g id="Group_3018">
				<path id="Path_5399" class="st11" d="M340.7,106.5c5.2,6.9,9.1,14.7,11.7,23c3.6,12,22.3,16.9,29.8,6.2L340.7,106.5z"/>
			</g>
		</g>
	</g>
	<g id="Group_3022" transform="translate(40.576 27.868)">
		<g id="Group_3021">
			
				<rect id="Rectangle_3517" x="344.5" y="105.4" transform="matrix(0.5746 -0.8184 0.8184 0.5746 56.4803 330.2843)" class="st10" width="3" height="10.8"/>
		</g>
	</g>
</g>
<g id="Group_3196" transform="matrix(-0.375, 0.927, -0.927, -0.375, 8801.166, 16841.301)">
	<g id="Group_3081_4_" transform="translate(-0.046 -0.006)">
		<g id="Group_3080_4_" transform="translate(0 0)">
			<g id="Group_2348_4_" transform="translate(0 0)">
				<path id="Path_2310_4_2" class="st1" d="M-12162.8,13935.4c0.9-1.3,3.1-0.1,2.2,1.3c-16.3,23.5-10.1,52.9-10.4,79.6
					c-0.1,14.1-4.7,36.4-22.2,36.4c-1.1,0-2.2-0.1-3.3-0.3c-19.7-2.8-23.3-25.5-21.9-41.6c0.1-11.9,16.3-62.3,16.3-62.3"/>
			</g>
		</g>
	</g>
	<g id="Group_3081_3_" transform="translate(-0.046 -0.006)">
		<g id="Group_3080_3_" transform="translate(0 0)">
			<g id="Group_2348_3_" transform="translate(0 0)">
				<path id="Path_2310_1_" class="st0" d="M-12202,13948.6c-6.9,19.1-11.5,39-13.7,59.2c-1.1,10.2-1.6,21.5,3.6,30.7
					c5.2,9.2,17,15.5,26.8,9.2c9.5-6,11.4-17.9,11.8-28.2c0.3-11.3-0.8-22.7-1-34c-0.3-17.4,1.6-35.4,11.8-50.2
					c0.9-1.3,3.1-0.1,2.2,1.3c-16.3,23.5-10.1,52.9-10.4,79.6c-0.1,14.1-4.7,36.4-22.2,36.4c-1.1,0-2.2-0.1-3.3-0.3
					c-19.7-2.8-23.3-25.5-21.9-41.6C-12218.3,13999-12202,13948.6-12202,13948.6z"/>
			</g>
		</g>
	</g>
</g>
<path id="Path_5611" class="st0" d="M272.4,76.9c-1.9,7.6-9.9,11.1-17.2,11.9c-12.9,1.4-18.6-7.9-20.3-18.9
	c-1.2-7.4,2.2-8.1,3.1-0.9c1.1,8.9,4.8,16.8,14.9,16.7c8.4-0.1,16.4-4.3,17.2-13.3C270.7,65.2,274.5,68.6,272.4,76.9z"/>
<path id="Path_5612" class="st0" d="M332.4,76.9c-1.9,7.6-9.9,11.1-17.2,11.9c-12.9,1.4-18.6-7.9-20.3-18.9
	c-1.2-7.4,2.2-8.1,3.1-0.9c1.1,8.9,4.8,16.8,14.9,16.7c8.4-0.1,16.4-4.3,17.2-13.3C330.7,65.2,334.5,68.6,332.4,76.9z"/>
<g id="Group_3197" transform="translate(8305.75 17182.168) rotate(-93)">
	<path id="Path_2457" class="st12" d="M17203.8-7399.8c0,0,65.6,14.8,102.9,92.8c37.1,78.2,55.2,339.1-23.7,433.4
		c-79,94.6-248.9-23.4-272.6-128c-23.7-104.6-10.2-280.6,30.2-340C17081-7400.9,17134.7-7422.1,17203.8-7399.8z"/>
	<g transform="matrix(-0.05, 1, -1, -0.05, 627.52, 62.78)">
		<path id="Path_2459-2" class="st1" d="M-8232.4-16128.7c0,0,5.3-83.2,65.7-110.7c60.4-27.5,248.7-61.7,339.5-18.2
			s68.5,126.5,46.5,174.5s-130.4,73.5-225.6,79.8C-8101.5-15996.9-8260.9-16025.5-8232.4-16128.7z"/>
	</g>
</g>
<g class="st13">
	<path class="st14" d="M180.1,336.6c0,0.6-0.2,1.4-0.5,2.3c-0.8,2.2-2.4,3.9-4.7,5.2c-2.1,1.1-4.4,1.7-6.9,1.7
		c-4.1,0-7.2-1.5-9.5-4.6c-1.9-2.7-2.9-6.2-2.9-10.4c0-3.5,0.6-6.8,1.7-9.9c1.2-3.5,3-6.3,5.4-8.3c1.9-1.6,3.8-2.3,5.8-2.3
		c2.8,0,5,1.2,6.4,3.7c1.2,2,1.8,4.5,1.8,7.5c0,1.4-0.4,3.1-1.1,5.2c-0.8,2.5-1.8,3.8-2.8,3.8c-1.2,0-2.1-0.7-2.6-2.2
		c0.3-0.2,0.8-0.6,1.4-1.1c0.7-0.7,1-2.2,1-4.3c0-2.1-0.2-3.8-0.6-5.2c-0.7-2.2-1.8-3.2-3.3-3.2c-1.1,0-2.2,0.7-3.5,2
		c-1,1-1.8,2.2-2.4,3.4c-1.6,3.2-2.5,7.2-2.5,11.9c0,6.9,2.6,10.4,7.8,10.4c2.2,0,4-0.6,5.3-1.9c0.5-0.6,1.3-1.7,2.4-3.5
		c0.7-1.3,1.4-1.9,2.2-1.9c0.5,0,1,0.2,1.4,0.6S180.1,336.1,180.1,336.6z"/>
	<path class="st14" d="M201.8,336.3c0,4.3-0.1,7.3-0.4,9.1c-0.2,1-0.9,1.6-2.1,1.6c-1.9,0-2.7-0.9-2.5-2.8c-1.7,0.8-3.4,1.2-5.2,1.2
		c-1.7,0-3.4-0.4-4.9-1.3c-1.9-1-2.8-2.3-2.8-4c0-1.6,1.1-3,3.2-4.4c1.9-1.2,3.8-1.9,5.5-1.9h4.2v-1.2c0-3.5-1-5.2-3.1-5.2
		c-2.6,0-4,1.2-4,3.7c0,0.8-0.5,1.2-1.4,1.2c-0.6,0-1.2-0.3-1.8-0.8c-0.6-0.5-0.9-1.1-0.9-1.6c0-1.9,0.7-3.4,2-4.6
		c1.3-1.2,2.9-1.8,4.8-1.8C198.6,323.5,201.8,327.8,201.8,336.3z M196.7,338.1c0-0.7-0.5-1-1.5-1c-4.2,0-6.2,1-6.2,3
		c0,1.1,0.9,1.6,2.8,1.6c1.1,0,2.2-0.3,3.2-0.9C196.1,340,196.7,339.1,196.7,338.1z"/>
	<path class="st14" d="M218.8,327.6c0,0.2,0,0.6-0.1,1.1c-0.7,1-1.4,1.5-2.2,1.5c-0.6,0-1.2-0.4-1.7-1.1c-0.1-1.5-0.6-2.2-1.6-2.2
		c-0.6,0-1.3,1.6-2.2,4.8c-0.4,1.4-0.6,3.4-0.6,5.9c0,2.4,0.1,3.8,0.3,4.3c0.2,0.6,0.4,1.1,0.4,1.3c0,0.6-0.3,1-0.8,1.4
		s-1.1,0.5-1.7,0.5c-1.8,0-2.7-0.8-2.7-2.5c0-0.2,0-0.4,0.1-0.7c0.1-0.3,0.1-0.5,0.1-0.7c0-1.7-0.1-4.2-0.2-7.6
		c-0.2-3.3-0.2-5.9-0.2-7.5c0-1.5,0.9-2.2,2.7-2.2c1.1,0,1.8,0.3,2.2,1c0.9-1,2-1.6,3.1-1.6c0.8,0,1.6,0.2,2.3,0.7
		c0.5,0.3,1.1,0.8,1.8,1.7C218.5,326.4,218.8,327.1,218.8,327.6z"/>
	<path class="st14" d="M238,333.4c0,3-0.5,5.5-1.5,7.6c-1.3,2.7-3.4,4-6.1,4c-0.9,0-2.2-0.3-4.1-0.9c0,0.2,0,0.4,0,0.6
		c0,1.1-0.6,1.7-1.9,1.7c-0.9,0-1.6-0.3-2.2-1c-0.3-0.3-0.5-1.3-0.7-3.1c-0.2-1.5-0.2-2.6-0.2-3.4v-0.2l0.8-28.2
		c0.5-0.8,1.2-1.2,1.9-1c0.2-0.1,0.3-0.1,0.5-0.1c0.6,0,1.2,0.4,1.7,1.1c0.5,0.7,0.8,1.4,0.8,2c0,1.4-0.1,3.3-0.4,5.8
		c-0.3,2.8-0.5,4.7-0.5,5.7c1-1.2,2.2-1.8,3.8-1.8c1.8,0,3.5,0.7,4.9,2c1.5,1.3,2.4,2.9,2.9,4.8C237.8,330,238,331.5,238,333.4z
		 M233.3,333.1c0-4.5-0.9-6.8-2.8-6.8c-1.6,0-2.8,1.2-3.6,3.5c-0.6,1.7-0.9,3.6-0.9,5.5c0,4.2,1.3,6.3,3.8,6.3
		C232.1,341.6,233.3,338.7,233.3,333.1z"/>
	<path class="st14" d="M259.2,334.9c0,3-0.8,5.6-2.2,7.7c-1.7,2.4-4,3.7-6.9,3.7c-2.9,0-5.1-1-6.6-3c-1.4-1.8-2.1-4.2-2.1-7.2
		c0-3,0.8-5.8,2.2-8.5c1.7-3.2,4-4.8,6.8-4.8c0.9,0,2,0.4,3.2,1.2C257.4,326.2,259.2,329.9,259.2,334.9z M254.8,334.8
		c0-5.1-1.2-7.6-3.7-7.6c-1.8,0-3.1,1.1-4,3.2c-0.7,1.6-1,3.5-1,5.5c0,4.4,1.3,6.6,4,6.6c1.7,0,3-0.9,3.8-2.8
		C254.5,338.5,254.8,336.8,254.8,334.8z"/>
	<path class="st14" d="M280.2,344.4c-0.5,0.8-1.1,1.1-1.9,1.1c-0.6,0-1.5-0.3-2.8-1V344c0-0.7,0-1.8,0-3.2c0-1.4,0.1-2.5,0.1-3.2
		c0-7.1-1.1-10.7-3.2-10.7c-0.6,0-1.3,0.5-2,1.4c-2.4,2.9-3.5,6.3-3.5,10.3c0,0.6,0.1,1.4,0.3,2.5c0.2,1.1,0.3,2,0.3,2.5
		c0,0.5-0.2,0.8-0.6,1.1c-0.4,0.3-0.9,0.5-1.4,0.5c-2,0-3-1.3-3-3.8V331c0-0.3,0-0.7,0.1-1.2c0.1-0.5,0.1-0.9,0.1-1.2
		c0-0.4-0.1-1-0.2-1.8c-0.1-0.8-0.2-1.3-0.2-1.7c0-0.5,0.3-1,0.9-1.5c0.6-0.5,1.2-0.7,1.7-0.7c0.7,0,1.5,0.4,2.2,1.2l-0.1,2
		c1.2-2,2.8-3,4.5-3c1.2,0,2.4,0.4,3.7,1.2s2.2,1.7,2.9,2.7c1.4,2.5,2,5.9,2,10V344.4z"/>
	<path class="st14" d="M297.4,325.5c0,0.6-0.1,1.5-0.4,2.5c-0.3,1.1-0.4,2-0.4,2.5v10.3c0,0.6,0.2,1.6,0.6,3
		c-0.5,0.8-1.1,1.1-1.7,1.1c-2.1,0-3.3-1-3.5-3.1c-0.3-3.9-0.5-6.8-0.5-8.8c0-3.3,0.1-6.1,0.4-8.3c0-0.2,0-0.3,0-0.5
		c0-0.6,0.5-0.9,1.4-0.9c0.8,0,1.7,0.2,2.5,0.5C296.8,324.3,297.4,324.8,297.4,325.5z M297.8,318.5c0,0.7-0.2,1.3-0.8,1.8
		c-0.5,0.5-1.1,0.7-1.8,0.7c-0.9,0-1.7-0.3-2.4-0.9c-0.8-0.6-1.1-1.3-1.1-2.2c0-0.7,0.3-1.3,0.8-1.8c0.5-0.5,1.2-0.7,1.9-0.7
		c0.9,0,1.7,0.3,2.4,0.9S297.8,317.6,297.8,318.5z"/>
	<path class="st14" d="M318,344.4c-0.5,0.8-1.1,1.1-1.8,1.1c-0.6,0-1.5-0.3-2.8-1V344c0-0.7,0-1.8,0-3.2c0-1.4,0-2.5,0-3.2
		c0-7.1-1.1-10.7-3.2-10.7c-0.6,0-1.3,0.5-2,1.4c-2.4,2.9-3.5,6.3-3.5,10.3c0,0.6,0.1,1.4,0.3,2.5c0.2,1.1,0.3,2,0.3,2.5
		c0,0.5-0.2,0.8-0.7,1.1c-0.4,0.3-0.9,0.5-1.4,0.5c-2,0-3-1.3-3-3.8V331c0-0.3,0-0.7,0.1-1.2c0.1-0.5,0.1-0.9,0.1-1.2
		c0-0.4-0.1-1-0.2-1.8c-0.1-0.8-0.2-1.3-0.2-1.7c0-0.5,0.3-1,0.9-1.5c0.6-0.5,1.2-0.7,1.7-0.7c0.7,0,1.5,0.4,2.2,1.2l-0.1,2
		c1.2-2,2.8-3,4.5-3c1.2,0,2.4,0.4,3.7,1.2s2.2,1.7,2.8,2.7c1.4,2.5,2,5.9,2,10V344.4z"/>
	<path class="st14" d="M331.6,326.9c0,0.9-1.4,1.5-4.1,1.9c-0.1,0.7-0.1,2.4-0.1,5v3.3c0,0.7,0.1,1.7,0.3,3c0.2,1.3,0.3,2.3,0.3,2.9
		c0,0.5-0.3,1-0.8,1.4c-0.5,0.4-1.1,0.6-1.6,0.6c-0.8,0-1.5-0.7-2.1-2.2c-0.4-1.1-0.7-2.2-0.7-3.2V329c-1.5-0.2-2.4-0.4-2.6-0.5
		c-0.9-0.3-1.3-0.6-1.3-1.1c0-0.1,0-0.3,0.1-0.5c0.9-1.2,1.8-1.9,2.9-1.9c0.1,0,0.2,0,0.3,0c0.1,0,0.2,0.1,0.3,0.1
		c0.7,0,1-0.8,1-2.5v-3.7c-0.2-0.4-0.2-0.7-0.2-1c0-0.4,0.3-0.8,0.8-1.2c0.5-0.3,1-0.5,1.5-0.5c0.7,0,1.4,0.3,2,1
		c0.6,0.7,0.9,1.3,0.9,2.1c0,0.8-0.1,1.6-0.4,2.4s-0.4,1.6-0.3,2.4v0.2C330.3,324.7,331.6,325.5,331.6,326.9z"/>
	<path class="st14" d="M349.2,340.4c0,1.7-1.1,3-3.4,3.9c-1.8,0.7-3.6,1.1-5.5,1.1c-5.1,0-7.7-2.9-7.7-8.8c0-2.4,0.6-5.1,1.8-8
		c1.4-3.6,3.2-5.4,5.2-5.4c1.8,0,3.8,0.8,5.9,2.5c2.1,1.6,3.2,3.3,3.2,5.1c0,2.2-1,4-3,5.2c-1.7,1.2-3.8,1.8-6.2,1.8
		c-0.5,0-1.2-0.3-2.2-0.8c0.1,3.2,1.1,4.8,2.8,4.8c1.5,0,2.9-0.4,4.3-1.2c1.4-0.8,2.3-1.2,2.7-1.2
		C348.5,339.2,349.2,339.6,349.2,340.4z M343.8,330.9c0-0.8-0.2-1.6-0.7-2.4s-1.1-1.1-1.9-1.1c-1.1,0-2,0.5-2.5,1.4
		c-0.5,0.8-0.8,1.8-0.8,3c0,0.6,0.2,1.2,0.7,1.5c0.4,0.4,1,0.6,1.6,0.6C342.6,334,343.8,333,343.8,330.9z"/>
	<path class="st14" d="M369.9,344.4c-0.5,0.8-1.1,1.1-1.8,1.1c-0.6,0-1.5-0.3-2.8-1V344c0-0.7,0-1.8,0-3.2c0-1.4,0-2.5,0-3.2
		c0-7.1-1.1-10.7-3.2-10.7c-0.6,0-1.3,0.5-2,1.4c-2.4,2.9-3.5,6.3-3.5,10.3c0,0.6,0.1,1.4,0.3,2.5c0.2,1.1,0.3,2,0.3,2.5
		c0,0.5-0.2,0.8-0.7,1.1c-0.4,0.3-0.9,0.5-1.4,0.5c-2,0-3-1.3-3-3.8V331c0-0.3,0-0.7,0.1-1.2c0.1-0.5,0.1-0.9,0.1-1.2
		c0-0.4-0.1-1-0.2-1.8c-0.1-0.8-0.2-1.3-0.2-1.7c0-0.5,0.3-1,0.9-1.5c0.6-0.5,1.2-0.7,1.7-0.7c0.7,0,1.5,0.4,2.2,1.2l-0.1,2
		c1.2-2,2.8-3,4.5-3c1.2,0,2.4,0.4,3.7,1.2s2.2,1.7,2.8,2.7c1.4,2.5,2,5.9,2,10V344.4z"/>
	<path class="st14" d="M390.2,339.7c0,1.6-0.7,2.9-2,4.1c-1.5,1.3-3.4,1.9-5.9,1.9c-1.1,0-2.2-0.2-3.5-0.7c-4-1.5-6-2.7-6-3.6
		c0-1.5,1.1-2.2,3.2-2.2c0.3,0,0.6,0,1,0c0.1,1,0.9,1.8,2.4,2.4c1.3,0.5,2.6,0.8,3.8,0.6c1-0.1,1.5-0.4,1.5-1c0-0.1,0-0.2-0.1-0.5
		c0-0.2-0.1-0.4-0.1-0.5c0-0.1-0.6-0.4-1.9-0.8c-1.4-0.4-2.2-0.7-2.4-0.8c-3.8-2.3-5.7-5-5.7-8.2c0-1.9,0.5-3.7,1.6-5.3
		c1.2-1.8,2.8-2.7,4.6-2.7c1.4,0,2.9,0.5,4.7,1.6s2.8,2.2,3.2,3.4c0.3,0.9,0.4,1.6,0.4,2.2c0,0.6-0.1,1.1-0.2,1.5
		c-0.2,0.5-0.4,1-0.6,1.5c-0.6,0.4-1.3,0.7-1.9,0.7c-0.3,0-0.9-0.2-1.7-0.6c-0.8-0.4-1.2-0.8-1.2-1.1c0-0.1,0.2-0.6,0.6-1.3
		c0.2-0.4,0.3-0.8,0.3-1.1c0-2-0.8-3-2.3-3c-0.9,0-1.7,0.6-2.2,1.8c-0.4,0.9-0.5,1.9-0.5,3c0,1.3,1,2.5,2.8,3.6
		c1.7,0.8,3.5,1.5,5.2,2.3C389.3,337.9,390.2,338.8,390.2,339.7z"/>
	<path class="st14" d="M398.8,325.5c0,0.6-0.1,1.5-0.4,2.5c-0.3,1.1-0.4,2-0.4,2.5v10.3c0,0.6,0.2,1.6,0.6,3
		c-0.5,0.8-1.1,1.1-1.7,1.1c-2.1,0-3.3-1-3.5-3.1c-0.3-3.9-0.5-6.8-0.5-8.8c0-3.3,0.1-6.1,0.4-8.3c0-0.2,0-0.3,0-0.5
		c0-0.6,0.5-0.9,1.4-0.9c0.8,0,1.7,0.2,2.5,0.5C398.3,324.3,398.8,324.8,398.8,325.5z M399.3,318.5c0,0.7-0.2,1.3-0.8,1.8
		c-0.5,0.5-1.1,0.7-1.8,0.7c-0.9,0-1.7-0.3-2.4-0.9c-0.8-0.6-1.1-1.3-1.1-2.2c0-0.7,0.3-1.3,0.8-1.8c0.5-0.5,1.2-0.7,1.9-0.7
		c0.9,0,1.7,0.3,2.4,0.9S399.3,317.6,399.3,318.5z"/>
	<path class="st14" d="M411.8,326.9c0,0.9-1.4,1.5-4.1,1.9c-0.1,0.7-0.1,2.4-0.1,5v3.3c0,0.7,0.1,1.7,0.3,3c0.2,1.3,0.3,2.3,0.3,2.9
		c0,0.5-0.3,1-0.8,1.4c-0.5,0.4-1.1,0.6-1.6,0.6c-0.8,0-1.5-0.7-2.1-2.2c-0.4-1.1-0.7-2.2-0.7-3.2V329c-1.5-0.2-2.4-0.4-2.6-0.5
		c-0.9-0.3-1.3-0.6-1.3-1.1c0-0.1,0-0.3,0.1-0.5c0.9-1.2,1.8-1.9,2.9-1.9c0.1,0,0.2,0,0.3,0c0.1,0,0.2,0.1,0.3,0.1
		c0.7,0,1-0.8,1-2.5v-3.7c-0.2-0.4-0.2-0.7-0.2-1c0-0.4,0.3-0.8,0.8-1.2c0.5-0.3,1-0.5,1.5-0.5c0.7,0,1.4,0.3,2,1
		c0.6,0.7,0.9,1.3,0.9,2.1c0,0.8-0.1,1.6-0.4,2.4s-0.4,1.6-0.3,2.4v0.2C410.5,324.7,411.8,325.5,411.8,326.9z"/>
	<path class="st14" d="M430.8,325.6c-0.3,1.7-0.6,3.3-0.8,5c-0.3,1.9-0.5,3.6-0.5,5v13.6c0,2.5-0.7,4.4-2.1,5.7
		c-1.4,1.3-3.4,2-5.8,2c-1.6,0-3.4-0.4-5.3-1.2c-2.3-1-3.5-2.1-3.5-3.5c0-0.5,0.2-0.9,0.6-1.2c0.4-0.3,0.8-0.5,1.3-0.5
		c0.3,0,1,0.5,2.2,1.3c1.1,0.9,2.4,1.4,3.9,1.4c1.9,0,3.1-0.7,3.8-2c0.5-0.9,0.7-2.4,0.7-4.5c0-0.8,0-1.4,0-1.9
		c-1.1,0.7-2.3,1.1-3.7,1.1c-2.5,0-4.4-0.9-5.8-2.7c-1.2-1.6-1.8-3.7-1.8-6.2c0-0.3,0.2-4.5,0.5-12.6c1-0.4,1.8-0.6,2.4-0.6
		c0.7,0,1.7,0.4,3,1.2c-0.8,2-1.2,6-1.2,12c0,3.8,1,5.8,2.9,5.8c1.4,0,2.5-1.2,3.3-3.6c0.6-1.7,0.9-3.5,0.9-5.4v-6.1
		c0,0-0.1-0.5-0.2-1.7c1.4-0.7,2.4-1,3-1C429,324.6,429.8,324.9,430.8,325.6z"/>
</g>
<g class="st13">
	<path class="st15" d="M128.6,460.1c0,3.6-0.9,6.7-2.7,9.1c-2,2.8-4.7,4.2-8.1,4.2c-1,0-2-0.2-3.1-0.6c-2.5-0.8-4.3-2.2-5.4-4.2
		c-0.9-1.7-1.4-4-1.4-6.8c0-3.7,0.9-7,2.7-9.8c2-3.3,4.8-5,8.3-5c3.1,0,5.5,1.4,7.4,4.3C127.8,454,128.6,456.8,128.6,460.1z
		 M125,459.8c0-5.2-1.7-8.3-5-9.3c-0.4-0.1-0.8-0.2-1.2-0.2c-1.4,0-2.8,0.6-4.2,1.9c-2.2,2-3.3,5.6-3.3,10.8c0,0.5,0.1,1.1,0.3,2
		c0.4,1.9,1.1,3.3,1.9,4.2c1,1,2.4,1.5,4.3,1.5c2.6,0,4.5-1.2,5.8-3.7C124.5,465,125,462.6,125,459.8z"/>
	<path class="st15" d="M150.2,472.7c-0.8,0.5-1.5,0.8-1.9,0.8c-0.3,0-0.8-0.2-1.5-0.5c0-0.4,0-1.1,0-2.1c0-0.9,0-1.6,0-2.1
		c0-6.6-0.5-10-1.6-10c-0.8,0-1.5,1-2,3c-0.4,1.5-0.6,2.8-0.6,4.1v3.4c0,0.2,0.1,0.4,0.2,0.8c0.1,0.3,0.2,0.6,0.2,0.8
		c0,0.4-0.2,0.8-0.6,1.1c-0.4,0.3-0.8,0.5-1.2,0.5c-0.4,0-0.9-0.2-1.3-0.6c-0.4-0.4-0.6-0.8-0.6-1.2v-7c0-2.8-0.3-4.2-1-4.2
		c-0.1,0-0.3,0.2-0.6,0.7c-1.8,2.4-2.7,5-2.7,7.7c0,0.4,0.1,1,0.2,1.7c0.1,0.8,0.2,1.3,0.2,1.7c0,0.5-0.2,0.9-0.5,1.2
		c-0.3,0.3-0.7,0.5-1.2,0.5c-0.6,0-1-0.2-1.4-0.6c-0.1-0.2-0.3-0.8-0.4-1.8c-0.2-0.9-0.2-1.6-0.2-1.9v-8.2c0-0.6,0.1-1.4,0.4-2.4
		c0.4-1.2,0.8-1.8,1.2-1.8c0.5,0,0.9,0.2,1.4,0.6c0.4,0.4,0.6,0.8,0.5,1.3c0.7-1.2,1.7-1.8,2.8-1.8c1.4,0,2.6,1,3.5,2.9
		c0.5-1.1,0.9-1.9,1.3-2.3c0.6-0.7,1.4-1.1,2.3-1.1c0.9,0,1.9,0.5,2.8,1.5c1.6,1.7,2.5,4.5,2.5,8.6V472.7z"/>
	<path class="st15" d="M166.1,466.4c0,3.2-0.1,5.5-0.3,6.8c-0.1,0.8-0.7,1.2-1.6,1.2c-1.4,0-2-0.7-1.9-2.1c-1.3,0.6-2.5,0.9-3.9,0.9
		c-1.3,0-2.5-0.3-3.7-1c-1.4-0.8-2.1-1.8-2.1-3c0-1.2,0.8-2.3,2.4-3.3c1.4-0.9,2.8-1.4,4.1-1.4h3.2v-0.9c0-2.6-0.8-3.9-2.3-3.9
		c-2,0-3,0.9-3,2.7c0,0.6-0.4,0.9-1,0.9c-0.4,0-0.9-0.2-1.3-0.6c-0.5-0.4-0.7-0.8-0.7-1.2c0-1.4,0.5-2.5,1.5-3.5
		c1-0.9,2.2-1.3,3.6-1.3C163.8,456.8,166.1,460,166.1,466.4z M162.3,467.8c0-0.5-0.4-0.8-1.1-0.8c-3.1,0-4.7,0.7-4.7,2.2
		c0,0.8,0.7,1.2,2.1,1.2c0.8,0,1.6-0.2,2.4-0.7C161.9,469.2,162.3,468.5,162.3,467.8z"/>
	<path class="st15" d="M178.9,459.9c0,0.2,0,0.5-0.1,0.8c-0.5,0.8-1.1,1.1-1.6,1.1c-0.5,0-0.9-0.3-1.3-0.8c-0.1-1.1-0.4-1.7-1.2-1.7
		c-0.5,0-1,1.2-1.6,3.6c-0.3,1.1-0.5,2.5-0.5,4.4c0,1.8,0.1,2.9,0.2,3.2c0.2,0.5,0.3,0.8,0.3,1c0,0.4-0.2,0.8-0.6,1
		s-0.8,0.4-1.3,0.4c-1.3,0-2-0.6-2-1.9c0-0.1,0-0.3,0.1-0.5c0.1-0.2,0.1-0.4,0.1-0.5c0-1.3-0.1-3.2-0.2-5.7
		c-0.1-2.5-0.2-4.4-0.2-5.6c0-1.1,0.7-1.7,2-1.7c0.8,0,1.4,0.2,1.6,0.7c0.7-0.8,1.5-1.2,2.4-1.2c0.6,0,1.2,0.2,1.7,0.5
		c0.4,0.2,0.8,0.6,1.3,1.3S178.9,459.5,178.9,459.9z"/>
	<path class="st15" d="M180.8,450.1c0-0.6,0.3-1.1,0.8-1.5c0.5-0.5,1.1-0.7,1.8-0.7c0.7,0,1.3,0.3,1.9,1c0.5,0.7,0.8,1.5,0.8,2.4
		c0,1.1-0.1,1.9-0.3,2.6c-0.2,0.7-0.6,1.3-1,2c-0.5,0.7-1.1,1.2-1.7,1.7c-0.6,0.5-1.2,0.7-1.7,0.7c-0.4,0-0.7-0.2-0.9-0.5
		s-0.1-0.6,0.1-0.9c0.5-0.3,1-0.6,1.4-1c0.4-0.4,0.8-0.9,1-1.5c0.1-0.3,0.2-0.7,0.1-1.1c0-0.4-0.3-0.8-0.7-1
		c-0.4-0.3-0.8-0.5-1.1-0.8C181,450.9,180.8,450.6,180.8,450.1z"/>
	<path class="st15" d="M198.4,469c0,1.2-0.5,2.2-1.5,3.1c-1.1,1-2.6,1.4-4.4,1.4c-0.8,0-1.7-0.1-2.6-0.5c-3-1.1-4.5-2-4.5-2.7
		c0-1.1,0.8-1.6,2.4-1.6c0.2,0,0.5,0,0.7,0c0.1,0.8,0.7,1.3,1.8,1.8c1,0.4,1.9,0.6,2.8,0.5c0.7,0,1.1-0.3,1.1-0.8
		c0-0.1,0-0.2-0.1-0.3c0-0.1-0.1-0.3-0.1-0.4s-0.5-0.3-1.4-0.6c-1.1-0.3-1.7-0.5-1.8-0.6c-2.9-1.7-4.3-3.8-4.3-6.1
		c0-1.5,0.4-2.8,1.2-4c0.9-1.3,2.1-2,3.5-2c1,0,2.2,0.4,3.5,1.2c1.3,0.8,2.1,1.7,2.4,2.6c0.2,0.7,0.3,1.2,0.3,1.6
		c0,0.5-0.1,0.8-0.2,1.1c-0.1,0.4-0.3,0.8-0.4,1.1c-0.5,0.3-1,0.5-1.4,0.5c-0.2,0-0.7-0.2-1.3-0.5c-0.6-0.3-0.9-0.6-0.9-0.8
		c0-0.1,0.1-0.4,0.4-1c0.2-0.3,0.3-0.6,0.3-0.8c0-1.5-0.6-2.2-1.8-2.2c-0.7,0-1.2,0.5-1.6,1.4c-0.3,0.7-0.4,1.5-0.4,2.2
		c0,1,0.7,1.9,2.1,2.7c1.3,0.6,2.6,1.2,3.9,1.8C197.7,467.7,198.4,468.3,198.4,469z"/>
	<path class="st15" d="M219.6,463.9c0,2.5-0.5,4.7-1.4,6.5c-1.1,2.3-2.8,3.5-5.1,3.5c-1.2,0-2.3-0.4-3.1-1c0,0.3,0,0.6,0,1.1
		c0,0.5,0,0.9,0,1.1c0,2.4,0.3,4.3,0.8,5.7c0.2,0.5,0.4,0.9,0.4,1c0,0.8-0.5,1.3-1.5,1.3c-0.8,0-1.3-0.1-1.7-0.4
		c-0.3-0.2-0.6-0.8-0.8-1.9c-0.2-1-0.3-1.7-0.3-2.2v-9c0-0.8,0-2,0.1-3.4c0.1-1.6,0.2-2.7,0.2-3.3c0-0.6,0-1.4,0-2.5
		c0-1.3,0-2.1,0-2.5c0-2.1,0.7-3.2,2.1-3.2c0.3,0,0.7,0.1,1,0.4s0.4,0.5,0.4,0.8c0,0.5-0.1,1.5-0.2,3c1-1.4,2.1-2.1,3.5-2.1
		c1.8,0,3.3,0.8,4.3,2.2C219.2,460.3,219.6,461.9,219.6,463.9z M216.3,463.5c0-2.7-0.6-4-1.7-4c-0.5,0-1.2,0.5-2,1.5
		c-1.6,1.9-2.4,4.5-2.6,7.8c0.3,0.2,0.8,0.7,1.5,1.6c0.6,0.7,1.1,1,1.7,1C215.2,471.3,216.3,468.7,216.3,463.5z"/>
	<path class="st15" d="M226.5,471.8c0,0.5-0.2,0.8-0.5,1.1c-0.4,0.3-0.8,0.5-1.3,0.5c-1.6,0-2.4-2.1-2.4-6.2c0-1.9,0-4.7,0.1-8.4
		c0-3.8,0.1-6.6,0.1-8.4c0-0.3,0-0.7-0.1-1.3c-0.1-0.6-0.1-1-0.1-1.3c0.8-0.5,1.5-0.8,1.9-0.8c0.5,0,1.1,0.2,1.6,0.5
		c0.5,0.4,0.8,0.8,0.8,1.4c0,0.3-0.1,0.6-0.2,1c-0.2,0.6-0.3,0.9-0.3,1c-0.3,1.6-0.5,3.8-0.5,6.6c0,4.5,0,6.8,0,7
		c0.1,3.2,0.3,5.4,0.8,6.6C226.4,471.3,226.5,471.6,226.5,471.8z"/>
	<path class="st15" d="M241.6,466.4c0,3.2-0.1,5.5-0.3,6.8c-0.1,0.8-0.7,1.2-1.6,1.2c-1.4,0-2-0.7-1.9-2.1c-1.3,0.6-2.5,0.9-3.9,0.9
		c-1.3,0-2.5-0.3-3.7-1c-1.4-0.8-2.1-1.8-2.1-3c0-1.2,0.8-2.3,2.4-3.3c1.4-0.9,2.8-1.4,4.1-1.4h3.2v-0.9c0-2.6-0.8-3.9-2.3-3.9
		c-2,0-3,0.9-3,2.7c0,0.6-0.4,0.9-1,0.9c-0.4,0-0.9-0.2-1.3-0.6c-0.5-0.4-0.7-0.8-0.7-1.2c0-1.4,0.5-2.5,1.5-3.5
		c1-0.9,2.2-1.3,3.6-1.3C239.3,456.8,241.6,460,241.6,466.4z M237.8,467.8c0-0.5-0.4-0.8-1.1-0.8c-3.1,0-4.7,0.7-4.7,2.2
		c0,0.8,0.7,1.2,2.1,1.2c0.8,0,1.6-0.2,2.4-0.7C237.4,469.2,237.8,468.5,237.8,467.8z"/>
	<path class="st15" d="M258,472.5c-0.4,0.6-0.8,0.9-1.4,0.9c-0.4,0-1.1-0.2-2.1-0.8v-0.4c0-0.5,0-1.4,0-2.4c0-1.1,0-1.9,0-2.4
		c0-5.3-0.8-8-2.4-8c-0.4,0-1,0.4-1.5,1c-1.8,2.2-2.6,4.7-2.6,7.8c0,0.4,0.1,1.1,0.2,1.9c0.2,0.8,0.2,1.5,0.2,1.9
		c0,0.4-0.2,0.6-0.5,0.9c-0.3,0.2-0.7,0.3-1.1,0.3c-1.5,0-2.2-1-2.2-2.8v-7.8c0-0.2,0-0.5,0.1-0.9c0-0.4,0.1-0.7,0.1-0.9
		c0-0.3,0-0.7-0.1-1.3c-0.1-0.6-0.1-1-0.1-1.3c0-0.4,0.2-0.8,0.7-1.1c0.5-0.4,0.9-0.5,1.3-0.5c0.5,0,1.1,0.3,1.7,0.9l-0.1,1.5
		c0.9-1.5,2.1-2.2,3.4-2.2c0.9,0,1.8,0.3,2.8,0.9c1,0.6,1.7,1.3,2.1,2c1,1.9,1.5,4.4,1.5,7.5V472.5z"/>
	<path class="st15" d="M268.2,459.4c0,0.7-1,1.2-3.1,1.4c0,0.5-0.1,1.8-0.1,3.8v2.5c0,0.5,0.1,1.2,0.2,2.2c0.1,1,0.2,1.7,0.2,2.2
		c0,0.4-0.2,0.8-0.6,1.1c-0.4,0.3-0.8,0.5-1.2,0.5c-0.6,0-1.2-0.5-1.6-1.6c-0.3-0.8-0.5-1.6-0.5-2.4v-8c-1.2-0.2-1.8-0.3-2-0.3
		c-0.7-0.2-1-0.5-1-0.9c0-0.1,0-0.2,0.1-0.3c0.6-0.9,1.4-1.4,2.2-1.4c0,0,0.1,0,0.2,0c0.1,0,0.2,0,0.2,0c0.5,0,0.8-0.6,0.8-1.8v-2.7
		c-0.1-0.3-0.2-0.5-0.2-0.7c0-0.3,0.2-0.6,0.6-0.9c0.4-0.3,0.7-0.4,1.1-0.4c0.5,0,1,0.2,1.5,0.7c0.5,0.5,0.7,1,0.7,1.6
		c0,0.6-0.1,1.2-0.3,1.8c-0.2,0.6-0.3,1.2-0.2,1.8v0.2C267.2,457.8,268.2,458.4,268.2,459.4z"/>
	<path class="st15" d="M280.4,458.3c0,0.5-0.1,1.1-0.3,1.9c-0.2,0.8-0.3,1.5-0.3,1.9v7.7c0,0.5,0.1,1.2,0.4,2.2
		c-0.4,0.6-0.8,0.9-1.2,0.9c-1.6,0-2.5-0.8-2.6-2.4c-0.3-2.9-0.4-5.1-0.4-6.6c0-2.5,0.1-4.5,0.3-6.2c0-0.1,0-0.2,0-0.4
		c0-0.4,0.3-0.7,1-0.7c0.6,0,1.2,0.1,1.9,0.4C280,457.4,280.4,457.8,280.4,458.3z M280.8,453.1c0,0.5-0.2,1-0.6,1.3
		c-0.4,0.4-0.8,0.5-1.4,0.5c-0.7,0-1.3-0.2-1.8-0.7s-0.8-1-0.8-1.7c0-0.5,0.2-1,0.6-1.3c0.4-0.3,0.9-0.5,1.4-0.5
		c0.7,0,1.3,0.2,1.8,0.7C280.5,451.9,280.8,452.4,280.8,453.1z"/>
	<path class="st15" d="M294,469c0,1.2-0.5,2.2-1.5,3.1c-1.1,1-2.6,1.4-4.4,1.4c-0.8,0-1.7-0.1-2.6-0.5c-3-1.1-4.5-2-4.5-2.7
		c0-1.1,0.8-1.6,2.4-1.6c0.2,0,0.5,0,0.7,0c0.1,0.8,0.7,1.3,1.8,1.8c1,0.4,1.9,0.6,2.8,0.5c0.7,0,1.1-0.3,1.1-0.8
		c0-0.1,0-0.2-0.1-0.3c0-0.1-0.1-0.3-0.1-0.4s-0.5-0.3-1.4-0.6c-1.1-0.3-1.7-0.5-1.8-0.6c-2.9-1.7-4.3-3.8-4.3-6.1
		c0-1.5,0.4-2.8,1.2-4c0.9-1.3,2.1-2,3.5-2c1,0,2.2,0.4,3.5,1.2c1.3,0.8,2.1,1.7,2.4,2.6c0.2,0.7,0.3,1.2,0.3,1.6
		c0,0.5-0.1,0.8-0.2,1.1c-0.1,0.4-0.3,0.8-0.4,1.1c-0.5,0.3-1,0.5-1.4,0.5c-0.2,0-0.7-0.2-1.3-0.5c-0.6-0.3-0.9-0.6-0.9-0.8
		c0-0.1,0.1-0.4,0.4-1c0.2-0.3,0.3-0.6,0.3-0.8c0-1.5-0.6-2.2-1.8-2.2c-0.7,0-1.2,0.5-1.6,1.4c-0.3,0.7-0.4,1.5-0.4,2.2
		c0,1,0.7,1.9,2.1,2.7c1.3,0.6,2.6,1.2,3.9,1.8C293.2,467.7,294,468.3,294,469z"/>
	<path class="st15" d="M308.5,458.4c-0.5,1.5-0.8,2.7-0.8,3.5c0,1.6,0,4,0.1,7.3c0.1,3.2,0.1,5.7,0.1,7.3c0,1.8-0.5,3.4-1.4,4.7
		c-1,1.5-2.5,2.2-4.2,2.2c-0.9,0-2.3-0.4-4-1.3c-2-0.9-2.9-1.8-2.9-2.5c0-0.9,0.5-1.3,1.5-1.3c0.3,0,0.6,0.1,0.9,0.2
		c1,1.2,2.3,1.9,3.8,1.9c2.1,0,3.1-1.9,3.1-5.7c0-0.1-0.1-5.4-0.3-16l0.6-0.7c0.8-0.2,1.4-0.3,1.8-0.3
		C307.3,457.5,307.9,457.8,308.5,458.4z M308.6,454.9c0,0.5-0.2,1-0.7,1.4c-0.5,0.4-1,0.5-1.5,0.5c-0.3,0-0.7-0.2-1.2-0.7
		c-0.5-0.4-0.8-0.7-1-1c-0.1-0.2-0.1-0.5-0.1-0.8c0-1.2,0.6-1.8,1.9-1.8c0.7,0,1.3,0.2,1.9,0.7C308.3,453.7,308.6,454.2,308.6,454.9
		z"/>
	<path class="st15" d="M322.1,459.4c0,0.8-0.1,1.9-0.3,3.5c-0.2,1.6-0.3,2.7-0.3,3.5c0,0.7,0,1.7,0.1,3.1c0.1,1.4,0.1,2.4,0.1,3.1
		c0,0.6-0.5,0.9-1.5,0.9c-1,0-1.6-0.5-1.9-1.4c-1,0.6-1.9,0.9-2.8,0.9c-0.7,0-1.6-0.2-2.5-0.6c-0.9-0.4-1.6-0.9-2-1.4
		c-0.7-1-1.1-2.7-1.1-5.1c0-0.8,0-2.2,0.1-4.2c0.1-1.8,0.1-3.2,0.1-4.2c0.8-0.5,1.4-0.8,1.9-0.8c1.2,0,1.8,0.6,1.8,1.8
		c0,0.4-0.1,1-0.2,1.8c-0.1,0.8-0.2,1.4-0.2,1.8v5.3c0,0.6,0.2,1.2,0.5,1.9c0.4,0.8,0.9,1.1,1.4,1.1c1.1,0,1.9-0.7,2.4-2.1
		c0.4-1,0.5-2.1,0.5-3.5v-4.5c0-0.6-0.2-1.3-0.5-2.1c0.6-0.6,1.2-0.9,1.8-0.9c0.6,0,1.1,0.2,1.6,0.6S322.1,458.8,322.1,459.4z"/>
	<path class="st15" d="M336.6,469c0,1.2-0.5,2.2-1.5,3.1c-1.1,1-2.6,1.4-4.4,1.4c-0.8,0-1.7-0.1-2.6-0.5c-3-1.1-4.5-2-4.5-2.7
		c0-1.1,0.8-1.6,2.4-1.6c0.2,0,0.5,0,0.7,0c0.1,0.8,0.7,1.3,1.8,1.8c1,0.4,1.9,0.6,2.8,0.5c0.7,0,1.1-0.3,1.1-0.8
		c0-0.1,0-0.2-0.1-0.3c0-0.1-0.1-0.3-0.1-0.4s-0.5-0.3-1.4-0.6c-1.1-0.3-1.7-0.5-1.8-0.6c-2.9-1.7-4.3-3.8-4.3-6.1
		c0-1.5,0.4-2.8,1.2-4c0.9-1.3,2.1-2,3.5-2c1,0,2.2,0.4,3.5,1.2c1.3,0.8,2.1,1.7,2.4,2.6c0.2,0.7,0.3,1.2,0.3,1.6
		c0,0.5-0.1,0.8-0.2,1.1c-0.1,0.4-0.3,0.8-0.4,1.1c-0.5,0.3-1,0.5-1.4,0.5c-0.2,0-0.7-0.2-1.3-0.5c-0.6-0.3-0.9-0.6-0.9-0.8
		c0-0.1,0.1-0.4,0.4-1c0.2-0.3,0.3-0.6,0.3-0.8c0-1.5-0.6-2.2-1.8-2.2c-0.7,0-1.2,0.5-1.6,1.4c-0.3,0.7-0.4,1.5-0.4,2.2
		c0,1,0.7,1.9,2.1,2.7c1.3,0.6,2.6,1.2,3.9,1.8C335.8,467.7,336.6,468.3,336.6,469z"/>
	<path class="st15" d="M347.8,459.4c0,0.7-1,1.2-3.1,1.4c0,0.5-0.1,1.8-0.1,3.8v2.5c0,0.5,0.1,1.2,0.2,2.2c0.1,1,0.2,1.7,0.2,2.2
		c0,0.4-0.2,0.8-0.6,1.1c-0.4,0.3-0.8,0.5-1.2,0.5c-0.6,0-1.2-0.5-1.6-1.6c-0.3-0.8-0.5-1.6-0.5-2.4v-8c-1.2-0.2-1.8-0.3-2-0.3
		c-0.7-0.2-1-0.5-1-0.9c0-0.1,0-0.2,0.1-0.3c0.6-0.9,1.4-1.4,2.2-1.4c0,0,0.1,0,0.2,0c0.1,0,0.2,0,0.2,0c0.5,0,0.8-0.6,0.8-1.8v-2.7
		c-0.1-0.3-0.2-0.5-0.2-0.7c0-0.3,0.2-0.6,0.6-0.9c0.4-0.3,0.7-0.4,1.1-0.4c0.5,0,1,0.2,1.5,0.7s0.7,1,0.7,1.6
		c0,0.6-0.1,1.2-0.3,1.8c-0.2,0.6-0.3,1.2-0.2,1.8v0.2C346.9,457.8,347.8,458.4,347.8,459.4z"/>
	<path class="st15" d="M369.6,466.4c0,3.2-0.1,5.5-0.3,6.8c-0.1,0.8-0.7,1.2-1.6,1.2c-1.4,0-2-0.7-1.9-2.1c-1.3,0.6-2.5,0.9-3.9,0.9
		c-1.3,0-2.5-0.3-3.7-1c-1.4-0.8-2.1-1.8-2.1-3c0-1.2,0.8-2.3,2.4-3.3c1.4-0.9,2.8-1.4,4.1-1.4h3.2v-0.9c0-2.6-0.8-3.9-2.3-3.9
		c-2,0-3,0.9-3,2.7c0,0.6-0.4,0.9-1,0.9c-0.4,0-0.9-0.2-1.3-0.6c-0.5-0.4-0.7-0.8-0.7-1.2c0-1.4,0.5-2.5,1.5-3.5
		c1-0.9,2.2-1.3,3.6-1.3C367.2,456.8,369.6,460,369.6,466.4z M365.8,467.8c0-0.5-0.4-0.8-1.1-0.8c-3.1,0-4.7,0.7-4.7,2.2
		c0,0.8,0.7,1.2,2.1,1.2c0.8,0,1.7-0.2,2.4-0.7C365.3,469.2,365.8,468.5,365.8,467.8z"/>
	<path class="st15" d="M384.8,464.3c0,2.2-0.4,4.2-1.2,5.7c-1,2-2.5,3-4.5,3c-0.7,0-1.7-0.2-3.1-0.7c0,0.2,0,0.3,0,0.5
		c0,0.8-0.5,1.2-1.4,1.2c-0.7,0-1.2-0.3-1.7-0.8c-0.2-0.2-0.4-1-0.5-2.3c-0.1-1.1-0.2-2-0.2-2.6v-0.1l0.6-21.2
		c0.4-0.6,0.9-0.9,1.4-0.8c0.1,0,0.2-0.1,0.4-0.1c0.5,0,0.9,0.3,1.3,0.8c0.4,0.5,0.6,1,0.6,1.5c0,1.1-0.1,2.5-0.3,4.3
		c-0.2,2.1-0.4,3.5-0.4,4.3c0.7-0.9,1.7-1.3,2.8-1.3c1.4,0,2.6,0.5,3.7,1.5c1.1,1,1.8,2.2,2.1,3.6
		C384.7,461.7,384.8,462.8,384.8,464.3z M381.3,464c0-3.4-0.7-5.1-2.1-5.1c-1.2,0-2.1,0.9-2.7,2.6c-0.5,1.3-0.7,2.7-0.7,4.2
		c0,3.2,0.9,4.7,2.8,4.7C380.4,470.4,381.3,468.3,381.3,464z"/>
	<path class="st15" d="M400.7,465.4c0,2.2-0.6,4.2-1.7,5.8c-1.3,1.8-3,2.7-5.2,2.7c-2.2,0-3.9-0.8-5-2.2c-1-1.3-1.5-3.1-1.5-5.4
		c0-2.2,0.6-4.4,1.7-6.4c1.3-2.4,3-3.6,5.1-3.6c0.7,0,1.5,0.3,2.4,0.9C399.3,458.9,400.7,461.6,400.7,465.4z M397.4,465.3
		c0-3.8-0.9-5.7-2.8-5.7c-1.3,0-2.3,0.8-3,2.4c-0.5,1.2-0.8,2.6-0.8,4.2c0,3.3,1,5,3,5c1.3,0,2.2-0.7,2.8-2.1
		C397.2,468.1,397.4,466.8,397.4,465.3z"/>
	<path class="st15" d="M415.5,459.4c0,0.8-0.1,1.9-0.3,3.5c-0.2,1.6-0.3,2.7-0.3,3.5c0,0.7,0,1.7,0.1,3.1c0.1,1.4,0.1,2.4,0.1,3.1
		c0,0.6-0.5,0.9-1.5,0.9c-1,0-1.6-0.5-1.9-1.4c-1,0.6-1.9,0.9-2.8,0.9c-0.7,0-1.6-0.2-2.5-0.6c-0.9-0.4-1.6-0.9-2-1.4
		c-0.7-1-1.1-2.7-1.1-5.1c0-0.8,0-2.2,0.1-4.2c0.1-1.8,0.1-3.2,0.1-4.2c0.8-0.5,1.4-0.8,1.9-0.8c1.2,0,1.8,0.6,1.8,1.8
		c0,0.4-0.1,1-0.2,1.8c-0.1,0.8-0.2,1.4-0.2,1.8v5.3c0,0.6,0.2,1.2,0.5,1.9c0.4,0.8,0.9,1.1,1.4,1.1c1.1,0,1.9-0.7,2.4-2.1
		c0.4-1,0.5-2.1,0.5-3.5v-4.5c0-0.6-0.2-1.3-0.5-2.1c0.6-0.6,1.2-0.9,1.8-0.9c0.6,0,1.1,0.2,1.6,0.6S415.5,458.8,415.5,459.4z"/>
	<path class="st15" d="M426.5,459.4c0,0.7-1,1.2-3.1,1.4c0,0.5-0.1,1.8-0.1,3.8v2.5c0,0.5,0.1,1.2,0.2,2.2s0.2,1.7,0.2,2.2
		c0,0.4-0.2,0.8-0.6,1.1c-0.4,0.3-0.8,0.5-1.2,0.5c-0.6,0-1.2-0.5-1.6-1.6c-0.3-0.8-0.5-1.6-0.5-2.4v-8c-1.2-0.2-1.8-0.3-2-0.3
		c-0.7-0.2-1-0.5-1-0.9c0-0.1,0-0.2,0.1-0.3c0.7-0.9,1.4-1.4,2.2-1.4c0,0,0.1,0,0.2,0c0.1,0,0.2,0,0.2,0c0.5,0,0.8-0.6,0.8-1.8v-2.7
		c-0.1-0.3-0.2-0.5-0.2-0.7c0-0.3,0.2-0.6,0.6-0.9c0.4-0.3,0.7-0.4,1.1-0.4c0.5,0,1,0.2,1.5,0.7c0.5,0.5,0.7,1,0.7,1.6
		c0,0.6-0.1,1.2-0.3,1.8c-0.2,0.6-0.3,1.2-0.2,1.8v0.2C425.5,457.8,426.5,458.4,426.5,459.4z"/>
	<path class="st15" d="M455.4,460.1c0,3.6-0.9,6.7-2.7,9.1c-2,2.8-4.7,4.2-8.1,4.2c-1,0-2-0.2-3.1-0.6c-2.5-0.8-4.3-2.2-5.4-4.2
		c-0.9-1.7-1.4-4-1.4-6.8c0-3.7,0.9-7,2.7-9.8c2-3.3,4.8-5,8.3-5c3.1,0,5.5,1.4,7.3,4.3C454.6,454,455.4,456.8,455.4,460.1z
		 M451.8,459.8c0-5.2-1.7-8.3-5-9.3c-0.3-0.1-0.8-0.2-1.2-0.2c-1.4,0-2.8,0.6-4.2,1.9c-2.2,2-3.3,5.6-3.3,10.8c0,0.5,0.1,1.1,0.3,2
		c0.4,1.9,1.1,3.3,1.9,4.2c1,1,2.4,1.5,4.3,1.5c2.6,0,4.5-1.2,5.8-3.7C451.3,465,451.8,462.6,451.8,459.8z"/>
	<path class="st15" d="M478.9,469.8c0,0.7-0.4,1.2-1.2,1.6c-0.7,0.3-1.4,0.5-2.1,0.5c-3.5,0-7-3.2-10.5-9.8c-2.1,2.4-3.1,4.1-3.1,5
		c0,2.3,0.3,3.9,0.9,4.9l0.1,1c-0.5,0.6-1.1,0.9-1.7,0.9c-0.8,0-1.5-0.7-2.1-2s-0.8-5.9-0.8-13.9c0-4.5,0.2-7.7,0.5-9.5
		c0.2-1,0.8-1.6,1.7-1.6c0.6,0,1.3,0.2,2,0.7s1.1,1,1.1,1.5c0,0.4-0.1,0.6-0.3,0.8c-0.2,0.1-0.4,0.2-0.6,0.3
		c-0.2,0.2-0.4,1.9-0.6,5.2c-0.2,2.6-0.2,4.5-0.3,5.9c6.7-9.2,11-13.8,12.7-13.8c0.3,0,0.6,0.1,0.9,0.2c0.3,0.3,0.5,0.7,0.8,1.1
		c0.3,0.5,0.5,0.9,0.5,1.2c0,0.3-0.1,0.6-0.4,0.8c-0.2,0.2-0.5,0.4-0.8,0.4c-0.2,0-0.5-0.1-0.8-0.2l-0.1-0.1
		c-0.6,0.1-1.8,1.2-3.7,3.4c-1.8,2.2-2.8,3.6-2.8,4.3c0,1.5,0.8,3.5,2.5,6.2c1.7,2.9,3.3,4.3,4.6,4.3c0.2,0,0.5-0.1,1-0.3
		c0.5-0.2,0.9-0.3,1.2-0.3C478.4,468.6,478.9,469,478.9,469.8z"/>
</g>
<g>
	<path class="st16" d="M385.8,153.6c-0.3-1.9-0.1-8.6,0-11c0.1-3.3,1.2-6.2,2.9-9.2c1.1-1.9,2.9-4,5.1-3.7c0.5,0.1,0.8,0.4,1.3,0.4
		c1-0.1,1.9-1.1,3.1-1.1c1.8,0.1,1.4,1.8,2.7,2.7c1.5,0.9,5.7-0.6,6.8,1.2c0.3,0.5-0.5,1.3-0.2,1.7c0.3,0.6,2.1,0.3,2.7,0.6
		c1.9,0.5,2.6,2,2.4,4c-0.1,1.8-1.2,3.4-2,5c-1.1,2.2-1.9,4.4-3,6.6c-1.5,3-4.8,6.7-7,9.2c-1.7,1.7-1.5,0.3-3.7,0L385.8,153.6z"/>
	<path class="st15" d="M388.3,163.5c-2.1-5.5-3.7-15.7,0.9-21.4c1.1,0.7,2.5,2.4,3.9,2.3c1.1-0.1,0.8-3.3,2.9-2.7
		c1.6,0.5,0.5,3.8,2.3,4.3c1.2,0.2,2.6-2.6,4.3-2.3c-0.2,1.5-0.7,3.1-0.2,4.5c3.3-3.8,2.4,1.3,1.7,3.6c0.4-0.3,0.6-0.4,1-0.7
		c0.7,7.5-8.3,16.2-15.6,15.4L388.3,163.5z"/>
	<path class="st17" d="M394.3,132c-1.1-0.4-2.4,0-2.5,1.3c0.1,3.1,6.3,2.3,8,3.4c2.1,1.7,1.5,3.9,4.8,4.3c2.6,0.1,4.4-2.2,6-3.3
		c-1.8-0.6-3.8-1.2-5.5-2.3c0.4-2.7-3.8-1.7-5.6-2.1c-1.4-0.4-2-1.9-4.1-1.6L394.3,132z"/>
	<g>
		<path class="st18" d="M396,134.7c0.7,0.5,1.5-0.6,0.7-1.1C396,133.1,395.2,134.2,396,134.7L396,134.7z"/>
	</g>
	<g>
		<path class="st18" d="M401,135.6c0.7,0.5,1.5-0.6,0.7-1.1C401.1,134,400.3,135.1,401,135.6L401,135.6z"/>
	</g>
	<g>
		<path class="st18" d="M397.3,135.1c0.1,0,0.1,0.1,0.2,0.1c0.7,0.5,1.5-0.6,0.7-1.1c-0.1,0-0.1-0.1-0.2-0.1
			C397.4,133.5,396.6,134.6,397.3,135.1L397.3,135.1z"/>
	</g>
	<g>
		<path class="st18" d="M402.5,137.9c0,0.1-0.1,0.1-0.1,0.2c-0.5,0.7,0.6,1.5,1.1,0.7c0-0.1,0.1-0.1,0.1-0.2
			C404.1,138,403,137.2,402.5,137.9L402.5,137.9z"/>
	</g>
	<g>
		<path class="st18" d="M405.7,137.1c0,0.1-0.1,0.1-0.1,0.2c-0.5,0.7,0.6,1.5,1.1,0.7c0-0.1,0.1-0.1,0.1-0.2
			C407.4,137.1,406.2,136.4,405.7,137.1L405.7,137.1z"/>
	</g>
	<g>
		<path class="st18" d="M400.5,137.7c0.7,0.5,1.5-0.6,0.7-1.1C400.5,136.1,399.7,137.2,400.5,137.7L400.5,137.7z"/>
	</g>
	<g>
		<path class="st18" d="M404,136.5c0.7,0.5,1.5-0.6,0.7-1.1C404,134.9,403.3,136,404,136.5L404,136.5z"/>
	</g>
	<g>
		<g>
			<path class="st10" d="M391.7,194.6c0.2-3,0-6.1-0.1-9.1c-0.2-7.5-1.6-15-1.3-22.5c0-0.9-1.3-1-1.4-0.1l0,0
				c-0.3,7.2,0.9,14.4,1.2,21.6c0.1,3.3,0.3,6.6,0.1,9.9"/>
		</g>
		<path class="st10" d="M385,148c-0.4,0.7-0.2,2.5-0.1,3.1c0.3,3.1,0.2,6.4,0.7,9.5c0.4,3.4,2.3,6.7,4.1,9.7
			c3.6-2.3,7.3-4.5,10.1-7.8c1.8-2,6-6.5,6-9.4c-2.7,0.3-6.6,5.1-8.3,7.1c0.7-1.1,3.8-9.2,1.5-9.5c-1.4-0.3-4.2,8.6-4.8,9.8
			c0.6-2.3,0.2-5.6-0.1-8c-0.4-2-0.7-4.2-2.4-1.9c-1.6,2.2-2.2,6.6-2.3,9.4c0.1-2.4-0.4-4.7-1.2-6.9c-0.4-1.1-0.9-2.1-1.4-3.2
			c-0.2-0.5-0.6-2-1.2-2.1C385.3,147.7,385.1,147.8,385,148z"/>
	</g>
</g>
</svg>
