<svg xmlns="http://www.w3.org/2000/svg" viewBox="0 0 28.726 28.726">
  <defs>
    <style>
      .cls-1 {
        fill: #00bcd4;
      }
    </style>
  </defs>
  <g id="Group_5039" data-name="Group 5039" transform="translate(-1401 -427.373)">
    <g id="statistics_1_" data-name="statistics (1)" transform="translate(1401 427.373)">
      <path id="Path_8677" data-name="Path 8677" class="cls-1" d="M33.525,13.465a2.515,2.515,0,0,0,1.751-.708L37.753,14a2.524,2.524,0,1,0,4.783-.776L45.9,9.852a2.525,2.525,0,0,0,3.5-3.033l2.925-2.194A2.521,2.521,0,1,0,51.313,3.28L48.388,5.473a2.524,2.524,0,0,0-3.676,3.189l-3.367,3.367a2.519,2.519,0,0,0-2.839.462l-2.477-1.238a2.524,2.524,0,1,0-2.5,2.213Zm20.2-11.782a.842.842,0,1,1-.842.842A.843.843,0,0,1,53.722,1.683ZM46.99,6.733a.842.842,0,1,1-.842.842A.843.843,0,0,1,46.99,6.733Zm-6.733,6.733a.842.842,0,1,1-.842.842A.843.843,0,0,1,40.257,13.465ZM33.525,10.1a.842.842,0,1,1-.842.842A.843.843,0,0,1,33.525,10.1Zm0,0" transform="translate(-29.261)"/>
      <path id="Path_8678" data-name="Path 8678" class="cls-1" d="M27.884,168.627h-.9V150.842a.842.842,0,0,0-.842-.842H22.778a.842.842,0,0,0-.842.842v17.785H20.254V155.891a.842.842,0,0,0-.842-.842H16.046a.842.842,0,0,0-.842.842v12.736H13.521v-6a.842.842,0,0,0-.842-.842H9.313a.842.842,0,0,0-.842.842v6H6.789v-9.369a.841.841,0,0,0-.842-.842H2.581a.841.841,0,0,0-.842.842v9.369h-.9a.842.842,0,1,0,0,1.683H27.884a.842.842,0,1,0,0-1.683ZM23.62,151.683H25.3v16.944H23.62Zm-6.733,5.049h1.683v11.894H16.888Zm-6.733,6.733h1.683v5.162H10.155ZM3.422,160.1H5.106v8.528H3.422Zm0,0" transform="translate(0 -141.584)"/>
    </g>
  </g>
</svg>
