<svg id="cost" xmlns="http://www.w3.org/2000/svg" viewBox="0 0 17 15">
  <defs>
    <style>
      .cls-1 {
        fill: #fff;
      }
    </style>
  </defs>
  <g id="Group_2341" data-name="Group 2341" transform="translate(0 0)">
    <path id="Path_2278" data-name="Path 2278" class="cls-1" d="M4.94,116.941a10.661,10.661,0,0,0,1.377-.088V112.1a10.668,10.668,0,0,0-1.377-.088c-2.728,0-4.939,1-4.939,2.225v.482C0,115.945,2.212,116.941,4.94,116.941Z" transform="translate(-0.001 -108.241)"/>
    <path id="Path_2279" data-name="Path 2279" class="cls-1" d="M4.94,216.337a10.682,10.682,0,0,0,1.377-.088v-1.394a10.669,10.669,0,0,1-1.377.088c-2.381,0-4.368-.759-4.835-1.769a1.079,1.079,0,0,0-.1.456v.482C0,215.341,2.212,216.337,4.94,216.337Z" transform="translate(-0.001 -205.154)"/>
    <path id="Path_2280" data-name="Path 2280" class="cls-1" d="M6.316,274.047v-.108a10.66,10.66,0,0,1-1.377.088c-2.381,0-4.368-.759-4.835-1.769a1.078,1.078,0,0,0-.1.456v.482c0,1.229,2.211,2.225,4.939,2.225a10.557,10.557,0,0,0,1.561-.114,1.745,1.745,0,0,1-.184-.777Z" transform="translate(0 -261.754)"/>
    <path id="Path_2281" data-name="Path 2281" class="cls-1" d="M173.178,22.379c-2.728,0-4.939,1-4.939,2.225v.482c0,1.229,2.211,2.225,4.939,2.225s4.939-1,4.939-2.225V24.6C178.117,23.375,175.906,22.379,173.178,22.379Z" transform="translate(-161.117 -22.379)"/>
    <path id="Path_2282" data-name="Path 2282" class="cls-1" d="M173.178,125.313c-2.381,0-4.368-.759-4.835-1.769a1.078,1.078,0,0,0-.1.456v.482c0,1.229,2.211,2.225,4.939,2.225s4.939-1,4.939-2.225V124a1.078,1.078,0,0,0-.1-.456C177.547,124.554,175.559,125.313,173.178,125.313Z" transform="translate(-161.117 -119.291)"/>
    <path id="Path_2283" data-name="Path 2283" class="cls-1" d="M173.178,184.4c-2.381,0-4.368-.759-4.835-1.769a1.079,1.079,0,0,0-.1.456v.482c0,1.229,2.211,2.225,4.939,2.225s4.939-1,4.939-2.225v-.482a1.078,1.078,0,0,0-.1-.456C177.547,183.638,175.559,184.4,173.178,184.4Z" transform="translate(-161.117 -175.892)"/>
    <path id="Path_2284" data-name="Path 2284" class="cls-1" d="M173.178,246.67c-2.381,0-4.368-.759-4.835-1.769a1.079,1.079,0,0,0-.1.456v.482c0,1.229,2.211,2.225,4.939,2.225s4.939-1,4.939-2.225v-.482a1.078,1.078,0,0,0-.1-.456C177.547,245.911,175.559,246.67,173.178,246.67Z" transform="translate(-161.117 -235.547)"/>
    <path id="Path_2285" data-name="Path 2285" class="cls-1" d="M173.178,305.753c-2.381,0-4.368-.759-4.835-1.769a1.078,1.078,0,0,0-.1.456v.482c0,1.229,2.211,2.225,4.939,2.225s4.939-1,4.939-2.225v-.483a1.078,1.078,0,0,0-.1-.456C177.547,304.994,175.559,305.753,173.178,305.753Z" transform="translate(-161.117 -292.147)"/>
  </g>
</svg>
