<svg xmlns="http://www.w3.org/2000/svg" viewBox="0 0 20.374 23.005">
  <defs>
    <style>
      .cls-1 {
        fill: #00bcd4;
      }
    </style>
  </defs>
  <g id="csv-file-format-extension" transform="translate(0 0)">
    <path id="Path_8048" data-name="Path 8048" class="cls-1" d="M50.444,8.229h-.552V5.563a.4.4,0,0,0,0-.05.442.442,0,0,0-.107-.292L45.344.154l0,0a.438.438,0,0,0-.09-.075l-.03-.018a.473.473,0,0,0-.089-.037L45.108.013A.453.453,0,0,0,45,0H34.1a.9.9,0,0,0-.9.9V8.229h-.552A1.289,1.289,0,0,0,31.36,9.518v6.705a1.29,1.29,0,0,0,1.289,1.29H33.2V22.1a.9.9,0,0,0,.9.9H48.99a.9.9,0,0,0,.9-.9v-4.59h.552a1.29,1.29,0,0,0,1.289-1.289V9.518A1.289,1.289,0,0,0,50.444,8.229ZM34.1.9h10.45V5.518A.451.451,0,0,0,45,5.969H48.99v2.26H34.1ZM40.9,13.14c-1.119-.39-1.849-1.009-1.849-1.988,0-1.15.959-2.029,2.548-2.029a4.119,4.119,0,0,1,1.719.34l-.339,1.229a3.2,3.2,0,0,0-1.409-.32c-.659,0-.979.3-.979.65,0,.43.38.62,1.25.95,1.189.44,1.749,1.059,1.749,2.009,0,1.129-.869,2.089-2.719,2.089a4.413,4.413,0,0,1-1.909-.41l.31-1.259a3.881,3.881,0,0,0,1.689.42c.7,0,1.069-.29,1.069-.73C42.025,13.669,41.7,13.43,40.9,13.14Zm-7.936-.44a3.434,3.434,0,0,1,3.678-3.578,3.971,3.971,0,0,1,1.659.3l-.31,1.209a3.3,3.3,0,0,0-1.279-.249,2.026,2.026,0,0,0-2.148,2.228,2.011,2.011,0,0,0,2.159,2.2,3.8,3.8,0,0,0,1.269-.22l.23,1.189a4.336,4.336,0,0,1-1.729.29A3.2,3.2,0,0,1,32.959,12.7Zm16.03,9.158H34.1V17.513H48.99Zm-1.008-5.89H46.2L44.044,9.233h1.669l.819,2.849c.23.8.44,1.569.6,2.408h.03c.17-.81.38-1.609.609-2.379l.86-2.878h1.62Z" transform="translate(-31.36)"/>
  </g>
</svg>
