<?xml version="1.0" encoding="utf-8"?>
<!-- Generator: Adobe Illustrator 22.1.0, SVG Export Plug-In . SVG Version: 6.00 Build 0)  -->
<svg version="1.1" id="Layer_1" xmlns="http://www.w3.org/2000/svg" xmlns:xlink="http://www.w3.org/1999/xlink" x="0px" y="0px"
	 viewBox="0 0 427.9 269.1" style="enable-background:new 0 0 427.9 269.1;" xml:space="preserve">
<style type="text/css">
	.st0{opacity:0.446;fill:#FFFFFF;enable-background:new    ;}
	.st1{fill:#FFFFFF;}
	.st2{enable-background:new    ;}
	.st3{fill:#4D8289;}
</style>
<g id="Group_3029" transform="translate(140.265 784.271) rotate(-93)">
	<path id="Path_2457" class="st0" d="M670.7-93.9c0,0,47.9,10.8,75,67.7c27,57,40.2,247.4-17.3,316.2c-57.6,69-181.6-17-198.8-93.3
		c-17.3-76.3-7.4-204.7,22.1-248S620.3-110.1,670.7-93.9z"/>
	<path id="Path_2459" class="st1" d="M644.8-67.9c0,0,60.4,7,78.1,52.1s35.5,183.5,0.3,248s-94.8,45.1-128.9,27.2
		S545.8,161.7,544.8,92S570.7-92.6,644.8-67.9z"/>
</g>
<g class="st2">
	<path class="st3" d="M125.5,78.2c0,4.6-1.1,8.7-3.1,12.4c-2.5,4.4-5.9,6.6-10.1,6.6c-1.5,0-2.8-0.3-3.9-1c-0.6,0.6-1.2,1-1.8,1
		c-0.3,0-0.8-0.2-1.2-0.6c-0.6-1.6-0.9-3.8-0.9-6.5c0-2.3,0.1-5.9,0.2-10.5s0.2-8.2,0.2-10.5c0-0.1,0-0.2,0-0.3c0-0.1,0-0.3,0-0.4
		c0-0.5,0.2-1,0.6-1.3c0.4-0.3,0.8-0.5,1.4-0.5c0.7,0,1.4,0.3,1.9,0.8c0.6,0.5,0.8,1.1,0.6,1.8c1.5-2.2,3.6-3.3,6.3-3.3
		c3.3,0,5.9,1.3,7.7,3.8C124.7,71.9,125.5,74.7,125.5,78.2z M121.1,78c0-6-1.8-8.9-5.2-8.9c-1.4,0-2.8,0.7-4.2,2.2
		c-1.2,1.3-2.1,2.7-2.5,4.2c-0.5,1.5-0.7,3.2-0.7,5v9.4c0,2.7,1.2,4.1,3.5,4.1c2.1,0,4-1.1,5.6-3.2c1.4-1.8,2.4-3.9,2.9-6.2
		C120.9,82.5,121.1,80.3,121.1,78z"/>
	<path class="st3" d="M133.4,79.5c0,0.5-0.1,1.3-0.4,2.2c-0.2,1-0.4,1.7-0.4,2.2v9c0,0.6,0.2,1.4,0.5,2.6c-0.4,0.7-0.9,1-1.5,1
		c-1.9,0-2.9-0.9-3-2.8c-0.3-3.4-0.4-6-0.4-7.7c0-2.9,0.1-5.3,0.3-7.3c0-0.1,0-0.3,0-0.4c0-0.5,0.4-0.8,1.2-0.8
		c0.7,0,1.4,0.1,2.2,0.4C132.9,78.4,133.4,78.9,133.4,79.5z M133.8,73.4c0,0.6-0.2,1.2-0.7,1.6s-1,0.6-1.6,0.6
		c-0.8,0-1.5-0.3-2.1-0.8c-0.7-0.5-1-1.2-1-1.9c0-0.6,0.2-1.2,0.7-1.6c0.5-0.4,1-0.6,1.7-0.6c0.8,0,1.5,0.3,2.1,0.8
		C133.5,71.9,133.8,72.6,133.8,73.4z"/>
	<path class="st3" d="M147.1,81.3c0,0.2,0,0.5-0.1,1c-0.6,0.9-1.3,1.3-1.9,1.3c-0.6,0-1-0.3-1.5-1c-0.1-1.3-0.5-2-1.4-2
		c-0.5,0-1.2,1.4-1.9,4.2c-0.4,1.2-0.5,2.9-0.5,5.1c0,2.1,0.1,3.3,0.3,3.8c0.2,0.6,0.3,0.9,0.3,1.1c0,0.5-0.2,0.9-0.7,1.2
		s-0.9,0.5-1.5,0.5c-1.6,0-2.3-0.7-2.3-2.2c0-0.1,0-0.3,0.1-0.6c0.1-0.3,0.1-0.5,0.1-0.6c0-1.5-0.1-3.7-0.2-6.6
		c-0.1-2.9-0.2-5.1-0.2-6.6c0-1.3,0.8-2,2.4-2c0.9,0,1.6,0.3,1.9,0.8c0.8-0.9,1.7-1.4,2.8-1.4c0.7,0,1.4,0.2,2,0.6
		c0.4,0.2,0.9,0.7,1.5,1.5C146.8,80.3,147.1,80.9,147.1,81.3z"/>
	<path class="st3" d="M158.8,80.7c0,0.8-1.2,1.3-3.6,1.7c-0.1,0.6-0.1,2.1-0.1,4.4v2.9c0,0.6,0.1,1.4,0.3,2.6c0.2,1.1,0.3,2,0.3,2.5
		c0,0.5-0.2,0.9-0.7,1.2c-0.5,0.4-0.9,0.5-1.4,0.5c-0.7,0-1.3-0.6-1.8-1.9c-0.4-1-0.6-1.9-0.6-2.8v-9.3c-1.3-0.2-2.1-0.3-2.3-0.4
		c-0.8-0.2-1.1-0.6-1.1-1c0-0.1,0-0.2,0.1-0.4c0.8-1.1,1.6-1.6,2.5-1.6c0.1,0,0.1,0,0.3,0c0.1,0,0.2,0,0.3,0c0.6,0,0.9-0.7,0.9-2.1
		v-3.2c-0.1-0.3-0.2-0.6-0.2-0.8c0-0.4,0.2-0.7,0.7-1c0.4-0.3,0.9-0.5,1.3-0.5c0.6,0,1.2,0.3,1.7,0.9c0.5,0.6,0.8,1.2,0.8,1.8
		c0,0.7-0.1,1.4-0.3,2.1c-0.2,0.7-0.3,1.4-0.3,2.1v0.2C157.7,78.8,158.8,79.5,158.8,80.7z"/>
	<path class="st3" d="M175.4,79.6c-0.3,1.5-0.5,2.9-0.7,4.3c-0.3,1.7-0.4,3.1-0.4,4.3v11.9c0,2.2-0.6,3.8-1.9,4.9
		c-1.2,1.1-2.9,1.7-5.1,1.7c-1.4,0-2.9-0.4-4.6-1.1c-2-0.8-3-1.9-3-3.1c0-0.4,0.2-0.8,0.5-1c0.3-0.3,0.7-0.4,1.1-0.4
		c0.3,0,0.9,0.4,1.9,1.2c1,0.8,2.1,1.2,3.4,1.2c1.6,0,2.7-0.6,3.3-1.8c0.4-0.8,0.6-2.1,0.6-3.9c0-0.7,0-1.2,0-1.7c-1,0.6-2,1-3.2,1
		c-2.2,0-3.9-0.8-5.1-2.4c-1.1-1.4-1.6-3.3-1.6-5.5c0-0.2,0.1-3.9,0.4-11c0.9-0.4,1.6-0.6,2.1-0.6c0.6,0,1.4,0.4,2.6,1.1
		c-0.7,1.8-1,5.2-1,10.5c0,3.4,0.8,5,2.5,5c1.3,0,2.2-1.1,2.9-3.2c0.5-1.5,0.7-3.1,0.7-4.7V81c0,0,0-0.5-0.1-1.4
		c1.2-0.6,2.1-0.9,2.7-0.9C173.8,78.7,174.6,79,175.4,79.6z"/>
	<path class="st3" d="M200.4,83.4c-0.1,0.7-0.2,2-0.6,3.9c-0.3,1.6-0.4,2.9-0.4,3.8c0,0.9,0,2.2,0.1,3.9c0.1,1.8,0.1,3.1,0.1,3.9
		c0,1.8-0.2,3.2-0.5,4c-0.4,1.1-1.2,2-2.3,2.7c-1.1,0.7-2.3,1-3.5,1c-1.3,0-2.9-0.4-4.8-1c-2.3-0.8-3.4-1.7-3.4-2.7
		c0-1.3,0.6-1.9,1.8-1.9c0.6,0,0.9,0.2,1.1,0.5c0.4,0.6,0.6,0.9,0.8,1c0.1,0.1,0.6,0.3,1.4,0.4c0.8,0.2,1.4,0.2,1.7,0.2
		c2.6,0,3.9-1.6,3.9-4.9c0-1,0-1.8-0.1-2.4c-1.3,1.1-2.8,1.6-4.5,1.6c-0.7,0-1.5-0.2-2.5-0.6c-0.9-0.4-1.6-0.9-2.1-1.4
		c-0.9-1.1-1.4-2.6-1.4-4.7c0-2.5,0.6-5.2,1.7-8.2c1.4-3.6,3.1-5.5,5.1-5.5c1.2,0,2.4,0.6,3.5,1.7c0.8,1.1,1.6,2.1,2.4,3.2
		c0.2,0.3,0.6,0.6,1.1,0.8C199.8,83,200.2,83.2,200.4,83.4z M195.9,86c0-0.4-0.2-0.8-0.6-1.1c-0.2-2.7-1.1-4-2.8-4
		c-1,0-1.8,1.4-2.4,4.1c-0.5,2.1-0.7,3.9-0.7,5.4c0,2.9,0.7,4.3,2.2,4.3c1.4,0,2.5-1.1,3.3-3.4C195.6,89.4,195.9,87.7,195.9,86z"/>
	<path class="st3" d="M217.2,92.5c0,1.5-1,2.6-3,3.4c-1.5,0.6-3.2,1-4.9,1c-4.5,0-6.7-2.6-6.7-7.7c0-2.1,0.5-4.4,1.5-7
		c1.3-3.2,2.8-4.7,4.5-4.7c1.6,0,3.3,0.7,5.2,2.1c1.9,1.4,2.8,2.9,2.8,4.5c0,1.9-0.9,3.5-2.6,4.6c-1.5,1-3.3,1.5-5.4,1.5
		c-0.4,0-1.1-0.2-2-0.7c0.1,2.8,0.9,4.2,2.5,4.2c1.3,0,2.5-0.4,3.8-1.1c1.2-0.7,2-1.1,2.4-1.1C216.6,91.5,217.2,91.8,217.2,92.5z
		 M212.4,84.2c0-0.7-0.2-1.4-0.6-2.1c-0.4-0.7-1-1-1.7-1c-1,0-1.7,0.4-2.2,1.3c-0.4,0.7-0.7,1.6-0.7,2.6c0,0.6,0.2,1,0.6,1.4
		c0.4,0.3,0.9,0.5,1.4,0.5C211.4,86.9,212.4,86,212.4,84.2z"/>
	<path class="st3" d="M235.3,96c-0.4,0.7-1,1-1.6,1c-0.5,0-1.3-0.3-2.5-0.9v-0.5c0-0.6,0-1.6,0-2.8c0-1.3,0-2.2,0-2.8
		c0-6.2-0.9-9.4-2.8-9.4c-0.5,0-1.1,0.4-1.8,1.2c-2.1,2.5-3.1,5.5-3.1,9.1c0,0.5,0.1,1.2,0.3,2.2c0.2,1,0.3,1.7,0.3,2.2
		c0,0.4-0.2,0.7-0.6,1s-0.8,0.4-1.2,0.4c-1.8,0-2.6-1.1-2.6-3.3v-9.1c0-0.2,0-0.6,0.1-1c0.1-0.5,0.1-0.8,0.1-1
		c0-0.3-0.1-0.9-0.2-1.5c-0.1-0.7-0.2-1.2-0.2-1.5c0-0.5,0.3-0.9,0.8-1.3s1-0.6,1.5-0.6c0.6,0,1.3,0.4,2,1.1l-0.1,1.8
		c1.1-1.7,2.4-2.6,4-2.6c1,0,2.1,0.3,3.2,1s2,1.5,2.5,2.4c1.2,2.2,1.8,5.1,1.8,8.8V96z"/>
	<path class="st3" d="M252.7,92.5c0,1.5-1,2.6-3,3.4c-1.5,0.6-3.2,1-4.9,1c-4.5,0-6.7-2.6-6.7-7.7c0-2.1,0.5-4.4,1.5-7
		c1.3-3.2,2.8-4.7,4.5-4.7c1.6,0,3.3,0.7,5.2,2.1c1.9,1.4,2.8,2.9,2.8,4.5c0,1.9-0.9,3.5-2.6,4.6c-1.5,1-3.3,1.5-5.4,1.5
		c-0.4,0-1.1-0.2-2-0.7c0.1,2.8,0.9,4.2,2.5,4.2c1.3,0,2.5-0.4,3.8-1.1c1.2-0.7,2-1.1,2.4-1.1C252.1,91.5,252.7,91.8,252.7,92.5z
		 M247.9,84.2c0-0.7-0.2-1.4-0.6-2.1s-1-1-1.7-1c-1,0-1.7,0.4-2.2,1.3c-0.4,0.7-0.7,1.6-0.7,2.6c0,0.6,0.2,1,0.6,1.4
		c0.4,0.3,0.9,0.5,1.4,0.5C246.8,86.9,247.9,86,247.9,84.2z"/>
	<path class="st3" d="M266.4,81.3c0,0.2,0,0.5-0.1,1c-0.6,0.9-1.3,1.3-1.9,1.3c-0.6,0-1-0.3-1.5-1c-0.1-1.3-0.5-2-1.4-2
		c-0.5,0-1.2,1.4-1.9,4.2c-0.4,1.2-0.5,2.9-0.5,5.1c0,2.1,0.1,3.3,0.3,3.8c0.2,0.6,0.3,0.9,0.3,1.1c0,0.5-0.2,0.9-0.7,1.2
		c-0.4,0.3-0.9,0.5-1.5,0.5c-1.6,0-2.3-0.7-2.3-2.2c0-0.1,0-0.3,0.1-0.6c0.1-0.3,0.1-0.5,0.1-0.6c0-1.5-0.1-3.7-0.2-6.6
		c-0.1-2.9-0.2-5.1-0.2-6.6c0-1.3,0.8-2,2.4-2c0.9,0,1.6,0.3,1.9,0.8c0.8-0.9,1.7-1.4,2.8-1.4c0.7,0,1.4,0.2,2,0.6
		c0.4,0.2,0.9,0.7,1.5,1.5C266.1,80.3,266.4,80.9,266.4,81.3z"/>
	<path class="st3" d="M282.5,88.9c0,3.8-0.1,6.4-0.3,8c-0.1,0.9-0.8,1.4-1.8,1.4c-1.6,0-2.4-0.8-2.2-2.4c-1.5,0.7-3,1-4.5,1
		c-1.5,0-3-0.4-4.3-1.1c-1.6-0.9-2.5-2.1-2.5-3.5c0-1.4,0.9-2.7,2.8-3.9c1.7-1.1,3.3-1.6,4.8-1.6h3.7v-1c0-3-0.9-4.6-2.7-4.6
		c-2.3,0-3.5,1.1-3.5,3.2c0,0.7-0.4,1.1-1.2,1.1c-0.5,0-1-0.2-1.6-0.7c-0.5-0.5-0.8-0.9-0.8-1.4c0-1.6,0.6-3,1.8-4
		c1.2-1,2.6-1.6,4.2-1.6C279.8,77.8,282.5,81.5,282.5,88.9z M278.1,90.5c0-0.6-0.4-0.9-1.3-0.9c-3.6,0-5.5,0.9-5.5,2.6
		c0,0.9,0.8,1.4,2.4,1.4c1,0,1.9-0.3,2.8-0.8C277.6,92.2,278.1,91.4,278.1,90.5z"/>
	<path class="st3" d="M294.9,80.7c0,0.8-1.2,1.3-3.6,1.7c-0.1,0.6-0.1,2.1-0.1,4.4v2.9c0,0.6,0.1,1.4,0.3,2.6c0.2,1.1,0.3,2,0.3,2.5
		c0,0.5-0.2,0.9-0.7,1.2c-0.5,0.4-0.9,0.5-1.4,0.5c-0.7,0-1.3-0.6-1.8-1.9c-0.4-1-0.6-1.9-0.6-2.8v-9.3c-1.3-0.2-2.1-0.3-2.3-0.4
		c-0.8-0.2-1.1-0.6-1.1-1c0-0.1,0-0.2,0.1-0.4c0.8-1.1,1.6-1.6,2.5-1.6c0.1,0,0.1,0,0.3,0c0.1,0,0.2,0,0.3,0c0.6,0,0.9-0.7,0.9-2.1
		v-3.2c-0.1-0.3-0.2-0.6-0.2-0.8c0-0.4,0.2-0.7,0.7-1c0.4-0.3,0.9-0.5,1.3-0.5c0.6,0,1.2,0.3,1.7,0.9s0.8,1.2,0.8,1.8
		c0,0.7-0.1,1.4-0.3,2.1c-0.2,0.7-0.3,1.4-0.3,2.1v0.2C293.7,78.8,294.9,79.5,294.9,80.7z"/>
	<path class="st3" d="M301.9,79.5c0,0.5-0.1,1.3-0.4,2.2c-0.2,1-0.3,1.7-0.3,2.2v9c0,0.6,0.2,1.4,0.5,2.6c-0.4,0.7-0.9,1-1.5,1
		c-1.9,0-2.9-0.9-3-2.8c-0.3-3.4-0.4-6-0.4-7.7c0-2.9,0.1-5.3,0.3-7.3c0-0.1,0-0.3,0-0.4c0-0.5,0.4-0.8,1.2-0.8
		c0.7,0,1.4,0.1,2.2,0.4C301.4,78.4,301.9,78.9,301.9,79.5z M302.2,73.4c0,0.6-0.2,1.2-0.7,1.6s-1,0.6-1.6,0.6
		c-0.8,0-1.5-0.3-2.1-0.8c-0.7-0.5-1-1.2-1-1.9c0-0.6,0.2-1.2,0.7-1.6c0.5-0.4,1-0.6,1.7-0.6c0.8,0,1.5,0.3,2.1,0.8
		C301.9,71.9,302.2,72.6,302.2,73.4z"/>
	<path class="st3" d="M318.7,87.7c0,2.6-0.7,4.9-2,6.7c-1.5,2.1-3.5,3.2-6,3.2c-2.6,0-4.5-0.9-5.8-2.6c-1.2-1.5-1.8-3.6-1.8-6.3
		c0-2.6,0.7-5.1,2-7.4c1.5-2.8,3.5-4.2,5.9-4.2c0.8,0,1.7,0.3,2.8,1C317,80.1,318.7,83.3,318.7,87.7z M314.8,87.6
		c0-4.5-1.1-6.7-3.2-6.7c-1.5,0-2.7,0.9-3.5,2.8c-0.6,1.4-0.9,3-0.9,4.9c0,3.9,1.2,5.8,3.5,5.8c1.5,0,2.6-0.8,3.3-2.4
		C314.5,90.8,314.8,89.4,314.8,87.6z"/>
	<path class="st3" d="M337,96c-0.4,0.7-1,1-1.6,1c-0.5,0-1.3-0.3-2.5-0.9v-0.5c0-0.6,0-1.6,0-2.8c0-1.3,0-2.2,0-2.8
		c0-6.2-0.9-9.4-2.8-9.4c-0.5,0-1.1,0.4-1.8,1.2c-2.1,2.5-3.1,5.5-3.1,9.1c0,0.5,0.1,1.2,0.3,2.2c0.2,1,0.3,1.7,0.3,2.2
		c0,0.4-0.2,0.7-0.6,1s-0.8,0.4-1.2,0.4c-1.8,0-2.6-1.1-2.6-3.3v-9.1c0-0.2,0-0.6,0.1-1c0.1-0.5,0.1-0.8,0.1-1
		c0-0.3-0.1-0.9-0.2-1.5c-0.1-0.7-0.2-1.2-0.2-1.5c0-0.5,0.3-0.9,0.8-1.3s1-0.6,1.5-0.6c0.6,0,1.3,0.4,2,1.1l-0.1,1.8
		c1.1-1.7,2.4-2.6,4-2.6c1,0,2.1,0.3,3.2,1s2,1.5,2.5,2.4c1.2,2.2,1.8,5.1,1.8,8.8V96z"/>
</g>
</svg>
