<svg xmlns="http://www.w3.org/2000/svg" viewBox="0 0 27 30">
  <defs>
    <style>
      .cls-1 {
        fill: #00bcd4;
      }
    </style>
  </defs>
  <g id="writing" transform="translate(-26.57)">
    <g id="Group_4625" data-name="Group 4625" transform="translate(26.57)">
      <g id="Group_4624" data-name="Group 4624" transform="translate(0)">
        <path id="Path_8319" data-name="Path 8319" class="cls-1" d="M120.765,201.163A1.163,1.163,0,0,0,119.6,200h-11.98a1.163,1.163,0,0,0,0,2.326H119.6A1.163,1.163,0,0,0,120.765,201.163Z" transform="translate(-101.695 -188.274)"/>
        <path id="Path_8320" data-name="Path 8320" class="cls-1" d="M107.622,280a1.163,1.163,0,1,0,0,2.326H114.9a1.163,1.163,0,1,0,0-2.326Z" transform="translate(-101.727 -263.583)"/>
        <path id="Path_8321" data-name="Path 8321" class="cls-1" d="M35.226,27.656H31.284a2.353,2.353,0,0,1-2.357-2.344V4.688a2.353,2.353,0,0,1,2.357-2.344H45.775a2.353,2.353,0,0,1,2.357,2.344v7.207a1.179,1.179,0,0,0,2.357,0V4.688A4.706,4.706,0,0,0,45.775,0H31.284A4.706,4.706,0,0,0,26.57,4.688V25.313A4.706,4.706,0,0,0,31.284,30h3.942a1.172,1.172,0,1,0,0-2.344Z" transform="translate(-26.57)"/>
        <path id="Path_8322" data-name="Path 8322" class="cls-1" d="M256.508,273.045a3.493,3.493,0,0,0-4.934,0l-6.385,6.371a1.163,1.163,0,0,0-.291.485l-1.391,4.578a1.163,1.163,0,0,0,1.423,1.459l4.694-1.3a1.162,1.162,0,0,0,.511-.3l6.372-6.36A3.493,3.493,0,0,0,256.508,273.045Zm-7.8,9.432-2.362.654.691-2.275,4.309-4.3,1.645,1.645Zm6.155-6.143-.225.225-1.645-1.645.225-.224a1.163,1.163,0,0,1,1.646,1.644Z" transform="translate(-230.529 -255.98)"/>
        <path id="Path_8323" data-name="Path 8323" class="cls-1" d="M119.6,120h-11.98a1.163,1.163,0,1,0,0,2.326H119.6a1.163,1.163,0,0,0,0-2.326Z" transform="translate(-101.695 -112.964)"/>
      </g>
    </g>
  </g>
</svg>
