<svg xmlns="http://www.w3.org/2000/svg" viewBox="0 0 17 22">
  <defs>
    <style>
      .cls-1 {
        fill: rgb(41, 180, 240);
      }
    </style>
  </defs>
  <path id="electricity" class="cls-1" d="M53.2,8.369a.874.874,0,0,0-.8-.49h-6.55l2.694-6.76a.791.791,0,0,0-.1-.762A.885.885,0,0,0,47.733,0h-6.48a.871.871,0,0,0-.814.534L36.33,10.84a.791.791,0,0,0,.1.762.885.885,0,0,0,.716.357l7.27-.041-3.841,9.7a.278.278,0,0,0,.125.344.312.312,0,0,0,.379-.053L53.051,9.258A.8.8,0,0,0,53.2,8.369Z" transform="translate(-36.274)"/>
</svg>
