<svg xmlns="http://www.w3.org/2000/svg" viewBox="0 0 16.387 21.331">
  <defs>
    <style>
      .cls-1 {
        fill: #fff;
      }
    </style>
  </defs>
  <path id="electricity_usage" class="cls-1" d="M52.589,8.114a.842.842,0,0,0-.767-.475H45.508l2.6-6.554a.771.771,0,0,0-.094-.739A.851.851,0,0,0,47.32,0H41.073a.839.839,0,0,0-.785.518l-3.96,9.993a.771.771,0,0,0,.094.739.851.851,0,0,0,.69.346l7.008-.04-3.7,9.4a.27.27,0,0,0,.121.333.3.3,0,0,0,.365-.051L52.446,8.976A.774.774,0,0,0,52.589,8.114Z" transform="translate(-36.274)"/>
</svg>
