<svg id="electric_white" xmlns="http://www.w3.org/2000/svg" viewBox="0 0 36 36">
  <defs>
    <style>
      .cls-1 {
        fill: #fff;
      }
    </style>
  </defs>
  <g id="Group_1924" data-name="Group 1924">
    <g id="Group_1923" data-name="Group 1923">
      <path id="Path_685" data-name="Path 685" class="cls-1" d="M30.728,5.272A18,18,0,0,0,5.272,30.728,18,18,0,0,0,30.728,5.272Zm-.746,24.71A16.945,16.945,0,0,1,6.018,6.018,16.945,16.945,0,0,1,29.982,29.982Z"/>
    </g>
  </g>
  <g id="Group_1926" data-name="Group 1926" transform="translate(11.468 6.764)">
    <g id="Group_1925" data-name="Group 1925">
      <path id="Path_686" data-name="Path 686" class="cls-1" d="M177.268,105.227a.527.527,0,0,0-.473-.294h-5.52l2.365-4.893a.527.527,0,0,0-.95-.459l-2.731,5.65a.527.527,0,0,0,.475.757h5.29l-8.509,11.069,2.678-8.525a.527.527,0,0,0-.5-.685h-5.037l3.512-10.6h5.953l-.155.321a.527.527,0,1,0,.95.459l.521-1.078a.527.527,0,0,0-.475-.757h-7.174a.527.527,0,0,0-.5.361l-3.861,11.653a.527.527,0,0,0,.5.693h5.049l-3.354,10.677a.527.527,0,0,0,.921.479l10.973-14.275A.527.527,0,0,0,177.268,105.227Z" transform="translate(-163.097 -96.193)"/>
    </g>
  </g>
</svg>
