<?xml version="1.0" encoding="utf-8"?>
<!-- Generator: Adobe Illustrator 22.1.0, SVG Export Plug-In . SVG Version: 6.00 Build 0)  -->
<svg version="1.1" id="Layer_1" xmlns="http://www.w3.org/2000/svg" xmlns:xlink="http://www.w3.org/1999/xlink" x="0px" y="0px"
	 viewBox="0 0 210 290" style="enable-background:new 0 0 210 290;" xml:space="preserve">
<style type="text/css">
	.st0{opacity:0.4;enable-background:new    ;}
	.st1{fill:#B5B5B5;}
	.st2{opacity:0.402;}
</style>
<g class="st0">
	<path class="st1" d="M36.8,284h-5.1l-7.6-13.3V284H19v-21.3h5.1l7.5,13.3v-13.3h5.1V284z"/>
	<path class="st1" d="M62.6,273.8c0,2.1-0.4,3.9-1.2,5.5s-1.9,2.8-3.3,3.7c-1.4,0.9-3,1.3-4.9,1.3s-3.4-0.4-4.8-1.3
		c-1.4-0.8-2.5-2-3.3-3.6c-0.8-1.6-1.2-3.3-1.2-5.3v-1.2c0-2.1,0.4-3.9,1.1-5.5c0.8-1.6,1.9-2.8,3.3-3.7c1.4-0.9,3.1-1.3,4.9-1.3
		c1.8,0,3.4,0.4,4.8,1.3s2.5,2.1,3.3,3.7c0.8,1.6,1.2,3.4,1.2,5.5V273.8z M57.4,272.9c0-2.1-0.4-3.7-1.1-4.8c-0.7-1.1-1.7-1.6-3-1.6
		c-2.6,0-3.9,1.9-4.1,5.8l0,1.6c0,2.1,0.3,3.7,1,4.8s1.7,1.7,3.1,1.7c1.3,0,2.3-0.6,3-1.7s1.1-2.7,1.1-4.8V272.9z"/>
	<path class="st1" d="M87.2,284h-5.1v-21.3h5.1V284z"/>
	<path class="st1" d="M112,266.6h-6.4V284h-5.1v-17.4h-6.3v-4H112V266.6z"/>
	<path class="st1" d="M131.9,274.9h-8.1v5.1h9.6v4h-14.7v-21.3h14.7v4h-9.6v4.5h8.1V274.9z"/>
	<path class="st1" d="M146.7,262.7l4.8,14.8l4.7-14.8h6.8V284h-5.2v-5l0.5-10.2l-5.2,15.2h-3.4l-5.2-15.2l0.5,10.2v5H140v-21.3
		H146.7z"/>
	<path class="st1" d="M181.8,278.3c0-0.8-0.3-1.3-0.8-1.8c-0.5-0.4-1.5-0.9-2.8-1.3s-2.4-0.9-3.3-1.3c-2.8-1.4-4.1-3.2-4.1-5.6
		c0-1.2,0.3-2.2,1-3.1c0.7-0.9,1.7-1.6,2.9-2.1c1.3-0.5,2.7-0.8,4.2-0.8c1.5,0,2.9,0.3,4.1,0.8c1.2,0.5,2.2,1.3,2.8,2.3
		c0.7,1,1,2.2,1,3.5h-5.1c0-0.9-0.3-1.5-0.8-2c-0.5-0.5-1.3-0.7-2.2-0.7c-0.9,0-1.6,0.2-2.2,0.6c-0.5,0.4-0.8,0.9-0.8,1.5
		c0,0.5,0.3,1,0.9,1.5c0.6,0.4,1.6,0.9,3.1,1.4c1.5,0.5,2.7,1,3.6,1.5c2.3,1.3,3.5,3.2,3.5,5.5c0,1.9-0.7,3.3-2.1,4.4
		s-3.3,1.6-5.8,1.6c-1.7,0-3.3-0.3-4.7-0.9c-1.4-0.6-2.5-1.5-3.2-2.5c-0.7-1.1-1.1-2.3-1.1-3.7h5.2c0,1.1,0.3,2,0.9,2.5
		c0.6,0.5,1.5,0.8,2.9,0.8c0.8,0,1.5-0.2,2-0.5C181.5,279.5,181.8,279,181.8,278.3z"/>
</g>
<g id="Group_1994" transform="translate(856 392)" class="st2">
	<g id="Group_1187_1_" transform="translate(0)">
		<g id="Group_1186_1_">
			<path id="Path_246_1_" class="st1" d="M-756.7-384.5c4.2,0,7.6,3.4,7.6,7.6s-3.4,7.6-7.6,7.6c-4.2,0-7.6-3.4-7.6-7.6c0,0,0,0,0,0
				C-764.3-381-760.9-384.5-756.7-384.5C-756.7-384.5-756.7-384.5-756.7-384.5z M-826.3-331.2l58.8-34.8c6,5.9,15.6,5.9,21.6,0l0,0
				l58.8,34.8c-0.9,2.7-0.9,5.7,0,8.4l-69.6,41.1l-69.5-41.1C-825.4-325.5-825.4-328.5-826.3-331.2z M-840.9-219.7
				c-4.2,0-7.6-3.4-7.6-7.6s3.4-7.6,7.6-7.6c4.2,0,7.6,3.4,7.6,7.6c0,0,0,0,0,0l0,0c0,4.2-3.3,7.6-7.5,7.6
				C-840.9-219.7-840.9-219.7-840.9-219.7z M-826.3-223.2c2.4-7.9-2-16.2-9.9-18.7c0,0,0,0-0.1,0c-0.3-0.1-0.6-0.2-0.9-0.2v-70.2
				c2.6-0.7,5-2,6.9-3.9l69.6,41.1v82.6c-2.6,0.7-5.1,2-7,3.9L-826.3-223.2z M-745.9-188.5c-1.9-1.9-4.4-3.3-7-3.9V-275l69.6-41.1
				c1.9,1.9,4.4,3.3,7,3.9h7.6c8.2-2.1,13.1-10.4,11-18.6s-10.4-13.1-18.6-11c-2.6,0.7-5.1,2.1-7,4l-58.8-34.8
				c0.4-1.4,0.6-2.8,0.7-4.2c0-8.5-6.8-15.3-15.3-15.4s-15.3,6.8-15.4,15.3c0,1.4,0.2,2.9,0.7,4.2l-58.8,34.8
				c-6-5.9-15.7-5.8-21.6,0.2c-5.8,5.9-5.8,15.5,0,21.4c1.9,1.9,4.4,3.3,7,4v70.1c-8.1,2.2-13,10.5-10.8,18.7
				c2.1,8.1,10.4,12.9,18.5,10.9c2.6-0.7,5.1-2.1,7-4l58.8,34.8c-2.4,8.1,2.1,16.6,10.2,19.1c8.1,2.4,16.6-2.1,19.1-10.2l0,0
				c0.9-2.9,0.9-6,0-8.9L-745.9-188.5z"/>
		</g>
	</g>
	<g id="Group_1189_1_" transform="translate(69.573 124.436)">
		<g id="Group_1188_1_" transform="translate(0 0)">
			<path id="Rectangle_1789_1_" class="st1" d="M-856.2-388.4l6.1-3.6l3.9,6.6l-6.1,3.6L-856.2-388.4z"/>
		</g>
	</g>
	<g id="Group_1191_1_" transform="translate(57.259 131.72)">
		<g id="Group_1190_1_" transform="translate(0 0)">
			<path id="Rectangle_1790_1_" class="st1" d="M-856.2-388.4l6.1-3.6l3.9,6.6l-6.1,3.6L-856.2-388.4z"/>
		</g>
	</g>
	<g id="Group_1193_1_" transform="translate(81.897 117.15)">
		<g id="Group_1192_1_" transform="translate(0 0)">
			<path id="Rectangle_1791_1_" class="st1" d="M-856.2-388.4l6.1-3.6l3.9,6.6l-6.1,3.6L-856.2-388.4z"/>
		</g>
	</g>
	<g id="Group_1195_1_" transform="translate(44.949 138.993)">
		<g id="Group_1194_1_" transform="translate(0 0)">
			<path id="Rectangle_1792_1_" class="st1" d="M-856.2-388.4l6.1-3.6l3.9,6.6l-6.1,3.6L-856.2-388.4z"/>
		</g>
	</g>
	<g id="Group_1197_1_" transform="translate(32.611 146.287)">
		<g id="Group_1196_1_" transform="translate(0 0)">
			<path id="Rectangle_1793_1_" class="st1" d="M-856.2-388.4l6.1-3.6l3.9,6.6l-6.1,3.6L-856.2-388.4z"/>
		</g>
	</g>
	<g id="Group_1209_1_" transform="translate(95.658 95.652)">
		<g id="Group_1208_1_">
			<rect id="Rectangle_1799_1_" x="-856.2" y="-392" class="st1" width="7.6" height="7.6"/>
		</g>
	</g>
	<g id="Group_1211_1_" transform="translate(95.658 80.332)">
		<g id="Group_1210_1_">
			<rect id="Rectangle_1800_1_" x="-856.2" y="-392" class="st1" width="7.6" height="7.6"/>
		</g>
	</g>
	<g id="Group_1213_1_" transform="translate(95.658 65.011)">
		<g id="Group_1212_1_">
			<rect id="Rectangle_1801_1_" x="-856.2" y="-392" class="st1" width="7.6" height="7.6"/>
		</g>
	</g>
	<g id="Group_1215_1_" transform="translate(95.658 49.691)">
		<g id="Group_1214_1_">
			<rect id="Rectangle_1802_1_" x="-856.2" y="-392" class="st1" width="7.6" height="7.6"/>
		</g>
	</g>
	<g id="Group_1217_1_" transform="translate(95.658 34.371)">
		<g id="Group_1216_1_">
			<rect id="Rectangle_1803_1_" x="-856.2" y="-392" class="st1" width="7.6" height="7.6"/>
		</g>
	</g>
	<g id="question_1_" transform="translate(119.693 101.492)">
		<g id="Group_1992_1_">
			<g id="Group_1991_1_">
				<path id="Path_691_1_" class="st1" d="M-811.7-364.9c-9.1,0-13.3,5.4-13.3,9c0,2.1,1.7,3.8,3.9,3.8c0,0,0,0,0.1,0h0.2
					c3.6,0,2.1-5.2,9-5.2c3.4,0,6,1.5,6,4.6c0,3.6-3.8,5.7-6,7.6c-3,2.5-4.7,6.3-4.5,10.3c0,3.5,0.9,4.5,3.7,4.5c3.3,0,4-1.5,4-2.8
					c0-3.5,0.1-5.5,3.8-8.4c1.8-1.4,7.5-6,7.5-12.4S-803-364.9-811.7-364.9z"/>
				<path id="Path_692_1_" class="st1" d="M-812.6-325.6c-2.9,0-5.1,2.4-5.1,5.2c0,0,0,0,0,0c0,2.8,2.3,5.1,5.1,5.1
					c2.9,0,5.1-2.4,5.1-5.2c0,0,0,0,0,0C-807.5-323.3-809.8-325.5-812.6-325.6z"/>
				<path id="Path_693_1_" class="st1" d="M-773.9-373.1l-29.1-16.8c-5-2.8-11-2.8-16,0l-29.1,16.8c-4.9,2.9-8,8.2-8,13.9v33.6
					c0,5.7,3.1,11,8,13.9L-819-295c5,2.8,11,2.8,16,0l29.1-16.8c4.9-2.9,8-8.2,8-13.9v-33.6C-765.9-364.9-769-370.2-773.9-373.1z
					 M-773.7-325.7c0,2.9-1.6,5.6-4.1,7.1l-29.1,16.8c-2.5,1.5-5.7,1.5-8.2,0l-29.1-16.8c-2.5-1.5-4.1-4.2-4.1-7.1v-33.6
					c0-2.9,1.6-5.6,4.1-7.1l29.1-16.8c2.5-1.5,5.7-1.5,8.2,0l29.1,16.8c2.5,1.5,4.1,4.2,4.1,7.1V-325.7z"/>
			</g>
		</g>
	</g>
</g>
</svg>
