<svg xmlns="http://www.w3.org/2000/svg" viewBox="0 0 26.4 36">
  <defs>
    <style>
      .cls-1 {
        fill: #fff;
      }
    </style>
  </defs>
  <g id="energy_avatar" transform="translate(-68.267)">
    <g id="Group_1744" data-name="Group 1744" transform="translate(68.267)">
      <g id="Group_1743" data-name="Group 1743" transform="translate(0)">
        <path id="Path_624" data-name="Path 624" class="cls-1" d="M167.4,265a.6.6,0,1,0,0-1.2h-.631a5.933,5.933,0,0,0-.5-3.063l.55-.317a.6.6,0,1,0-.6-1.039l-.553.319a6.04,6.04,0,0,0-1.363-1.362l.319-.553a.6.6,0,1,0-1.039-.6l-.318.55a5.936,5.936,0,0,0-1.862-.5V256.6a.6.6,0,1,0-1.2,0v.631a5.944,5.944,0,0,0-1.863.5l-.317-.55a.6.6,0,1,0-1.039.6l.319.553a6.026,6.026,0,0,0-1.362,1.362l-.553-.319a.6.6,0,1,0-.6,1.039l.55.318a5.936,5.936,0,0,0-.5,1.862H154.2a.6.6,0,1,0,0,1.2h.631a5.936,5.936,0,0,0,.5,1.862l-.55.318a.6.6,0,1,0,.6,1.039l.553-.319a6.029,6.029,0,0,0,1.363,1.363l-.319.553a.6.6,0,1,0,1.039.6l.317-.55a5.946,5.946,0,0,0,1.863.5v.631a.6.6,0,0,0,1.2,0v-.631a5.937,5.937,0,0,0,1.862-.5l.318.55a.6.6,0,1,0,1.039-.6l-.319-.553a6.039,6.039,0,0,0,1.363-1.362l.553.319a.6.6,0,1,0,.6-1.039l-.55-.317a5.944,5.944,0,0,0,.258-.663Zm-6.6,3h0a4.805,4.805,0,0,1-4.8-4.8s0,0,0,0,0,0,0,0a4.8,4.8,0,1,1,4.8,4.8Z" transform="translate(-147.601 -238.001)"/>
        <path id="Path_625" data-name="Path 625" class="cls-1" d="M91.667,0h-20.4a3,3,0,0,0-3,3V33a3,3,0,0,0,3,3h18a.6.6,0,0,0,0-1.2h-18a1.8,1.8,0,0,1-1.8-1.8V3a1.8,1.8,0,0,1,1.8-1.8h20.4a1.8,1.8,0,0,1,1.8,1.8V33a1.8,1.8,0,0,1-1.8,1.8.6.6,0,1,0,0,1.2,3,3,0,0,0,3-3V3A3,3,0,0,0,91.667,0Z" transform="translate(-68.267)"/>
        <path id="Path_626" data-name="Path 626" class="cls-1" d="M234,189.533a1.8,1.8,0,1,0-1.8,1.8A1.8,1.8,0,0,0,234,189.533Zm-2.4,0a.6.6,0,1,1,.6.6A.6.6,0,0,1,231.6,189.533Z" transform="translate(-219 -174.533)"/>
        <path id="Path_627" data-name="Path 627" class="cls-1" d="M168,51.8a.6.6,0,0,0-.6-.6H154.2a.6.6,0,0,0-.6.6V59a.6.6,0,0,0,.6.6h6.6a.6.6,0,0,0,.509-.918l-3-4.8a.6.6,0,1,0-1.018.636l2.426,3.882H154.8v-6h12v6h-3.6a.6.6,0,0,0,0,1.2h4.2a.6.6,0,0,0,.6-.6V51.8Z" transform="translate(-147.6 -47.6)"/>
        <path id="Path_628" data-name="Path 628" class="cls-1" d="M155.4,191.333a1.8,1.8,0,1,0-1.8-1.8A1.8,1.8,0,0,0,155.4,191.333Zm0-2.4a.6.6,0,1,1-.6.6A.6.6,0,0,1,155.4,188.933Z" transform="translate(-147.6 -174.533)"/>
        <path id="Path_629" data-name="Path 629" class="cls-1" d="M309,187.733a1.8,1.8,0,1,0,1.8,1.8A1.8,1.8,0,0,0,309,187.733Zm0,2.4a.6.6,0,1,1,.6-.6A.6.6,0,0,1,309,190.133Z" transform="translate(-290.4 -174.533)"/>
      </g>
    </g>
  </g>
</svg>
