<?xml version="1.0" encoding="utf-8"?>
<!-- Generator: Adobe Illustrator 22.1.0, SVG Export Plug-In . SVG Version: 6.00 Build 0)  -->
<svg version="1.1" id="Layer_1" xmlns="http://www.w3.org/2000/svg" xmlns:xlink="http://www.w3.org/1999/xlink" x="0px" y="0px"
	 viewBox="0 0 473.4 167.9" style="enable-background:new 0 0 473.4 167.9;" xml:space="preserve">
<style type="text/css">
	.st0{opacity:0.446;fill:#FFFFFF;enable-background:new    ;}
	.st1{fill:#FFFFFF;}
	.st2{enable-background:new    ;}
	.st3{fill:#00BCD4;}
</style>
<g id="Group_3413" transform="translate(-14802.738 -21040.202)">
	<g id="Group_3033" transform="translate(14802.737 21208.104) rotate(-90)">
		<path id="Path_2457" class="st0" d="M110.7,11.6c0,0,27.1,13.6,39.5,78.2c12.3,64.8,8.8,278.6-28.6,354.1
			C84.2,519.5,17.4,419.2,11.9,333.2s7.7-229.8,27.4-277.5S82.4-8.1,110.7,11.6z"/>
		<path id="Path_2459" class="st1" d="M90.7,20.9c0,0,33.7,8.3,43.6,61.9c9.9,53.6,19.8,218,0.2,294.7S81.6,431,62.6,409.8
			S35.5,293.6,35,210.9S49.4-8.5,90.7,20.9z"/>
	</g>
	<g class="st2">
		<path class="st3" d="M14918.5,21128.9c0,0.7-0.1,1.2-0.4,1.7c-0.4,0.7-0.8,1-1.4,1c-0.2,0-0.4,0-0.7-0.1c-0.3-0.1-0.5-0.1-0.7-0.1
			c-1.7,0-4.1,0.5-7.3,1.5c-3.2,1-5.6,1.5-7.3,1.5c-6.3,0-9.5-4.8-9.5-14.3c0-7.5,0.2-13.5,0.6-17.9c0-0.6,0.1-0.9,0.1-0.9
			c0-0.3,0-0.7-0.1-1.2s-0.1-0.9-0.1-1.1c0-1.8,1-2.9,2.9-3.2c3-0.5,6-1.1,9-1.7c4-0.7,6.9-1.1,8.9-1.1c1.1,0,2.1,0.2,3,0.6
			c1.2,0.5,1.8,1.3,1.8,2.3c0,1.4-1,2.2-2.9,2.2c-0.2,0-0.6,0-1.1-0.1c-0.5-0.1-0.9-0.1-1.1-0.1c-3.2,0-7.5,0.7-13,2.1
			c-0.3,0-0.6,0.1-0.9,0.2c-0.3,0.1-0.5,0.4-0.6,0.9c-0.4,1.9-0.6,5.6-0.6,11c0,0.8,0.4,1.2,1.1,1.2c1,0,2.5-0.3,4.4-0.8
			c1.9-0.5,3.4-0.8,4.4-0.8c1.1,0,2.4,0.4,3.9,1.1c0.4,1.3,0.6,2,0.6,2.3c0,1-0.3,1.5-0.9,1.6c-0.6,0.1-1.2,0.2-1.9,0.2
			c-0.3-0.2-0.7-0.3-1.3-0.3c-1.4,0-3,0.2-4.9,0.5c-1.6,0.4-3.2,0.7-4.9,1c-0.2,0-0.4,0.1-0.6,0.1c-0.2,0-0.3,0.3-0.4,0.7
			c-0.1,0.7-0.1,1.3-0.1,1.7c0,3,0.1,4.8,0.2,5.4c0.4,2.3,1.5,3.4,3.2,3.4c1.5,0,3.7-0.4,6.5-1.4c2.9-0.9,5.1-1.3,6.8-1.3
			C14916,21126.9,14917.7,21127.6,14918.5,21128.9z"/>
		<path class="st3" d="M14943.8,21132.9c-0.6,0.9-1.3,1.4-2.2,1.4c-0.7,0-1.8-0.4-3.3-1.2v-0.7c0-0.9,0-2.1,0.1-3.8
			c0-1.7,0.1-2.9,0.1-3.7c0-8.4-1.2-12.6-3.7-12.6c-0.7,0-1.5,0.5-2.4,1.6c-2.8,3.4-4.1,7.4-4.1,12.2c0,0.7,0.1,1.7,0.4,3
			c0.3,1.3,0.4,2.3,0.4,3c0,0.6-0.3,1-0.8,1.4c-0.5,0.4-1.1,0.5-1.6,0.5c-2.3,0-3.5-1.5-3.5-4.5v-12.3c0-0.3,0-0.8,0.1-1.4
			c0.1-0.6,0.1-1.1,0.1-1.4c0-0.5-0.1-1.2-0.2-2.1c-0.1-0.9-0.2-1.6-0.2-2c0-0.6,0.4-1.2,1.1-1.8c0.7-0.6,1.4-0.9,2-0.9
			c0.9,0,1.7,0.5,2.6,1.5l-0.2,2.4c1.4-2.3,3.2-3.5,5.3-3.5c1.4,0,2.8,0.5,4.3,1.4c1.5,0.9,2.6,2,3.3,3.2c1.6,3,2.4,6.9,2.4,11.8
			V21132.9z"/>
		<path class="st3" d="M14967.2,21128.1c0,2-1.3,3.5-4,4.6c-2.1,0.9-4.2,1.3-6.5,1.3c-6,0-9-3.4-9-10.3c0-2.8,0.7-6,2.1-9.4
			c1.7-4.2,3.7-6.3,6.1-6.3c2.2,0,4.5,1,7,2.9c2.5,1.9,3.7,3.9,3.7,6c0,2.6-1.2,4.6-3.5,6.2c-2,1.4-4.5,2.1-7.3,2.1
			c-0.5,0-1.4-0.3-2.6-1c0.2,3.7,1.3,5.6,3.3,5.6c1.7,0,3.4-0.5,5.1-1.5c1.7-1,2.7-1.5,3.2-1.5
			C14966.3,21126.7,14967.2,21127.2,14967.2,21128.1z M14960.8,21117c0-1-0.3-1.9-0.9-2.8c-0.6-0.9-1.3-1.3-2.3-1.3
			c-1.3,0-2.3,0.6-3,1.7c-0.6,1-0.9,2.1-0.9,3.5c0,0.7,0.3,1.3,0.8,1.8c0.5,0.5,1.2,0.7,1.9,0.7
			C14959.3,21120.6,14960.8,21119.4,14960.8,21117z"/>
		<path class="st3" d="M14985.6,21113.1c0,0.3,0,0.7-0.1,1.3c-0.8,1.2-1.7,1.8-2.6,1.8c-0.7,0-1.4-0.4-2-1.3
			c-0.1-1.8-0.7-2.6-1.9-2.6c-0.7,0-1.6,1.9-2.6,5.6c-0.5,1.6-0.7,3.9-0.7,6.9c0,2.8,0.1,4.5,0.4,5.1c0.3,0.7,0.4,1.3,0.4,1.5
			c0,0.7-0.3,1.2-0.9,1.6c-0.6,0.4-1.3,0.6-2,0.6c-2.1,0-3.1-1-3.1-2.9c0-0.2,0-0.5,0.1-0.8c0.1-0.4,0.1-0.6,0.1-0.8
			c0-2-0.1-5-0.3-8.9c-0.2-3.9-0.3-6.9-0.3-8.8c0-1.8,1.1-2.6,3.2-2.6c1.3,0,2.1,0.4,2.6,1.1c1.1-1.2,2.3-1.8,3.7-1.8
			c0.9,0,1.8,0.3,2.7,0.8c0.6,0.3,1.3,1,2.1,2C14985.2,21111.7,14985.6,21112.5,14985.6,21113.1z"/>
		<path class="st3" d="M15006.7,21115.8c-0.1,1-0.3,2.7-0.8,5.2c-0.4,2.2-0.6,3.9-0.6,5.2c0,1.2,0.1,2.9,0.2,5.3
			c0.1,2.3,0.2,4.1,0.2,5.3c0,2.4-0.2,4.2-0.7,5.4c-0.5,1.5-1.6,2.7-3.1,3.6c-1.5,0.9-3.1,1.4-4.8,1.4c-1.7,0-3.9-0.5-6.4-1.4
			c-3.1-1.1-4.6-2.3-4.6-3.6c0-1.7,0.8-2.6,2.4-2.6c0.7,0,1.3,0.2,1.5,0.6c0.5,0.8,0.9,1.3,1,1.4c0.2,0.2,0.8,0.3,1.9,0.6
			s1.9,0.3,2.3,0.3c3.5,0,5.3-2.2,5.3-6.6c0-1.3-0.1-2.4-0.2-3.3c-1.7,1.4-3.7,2.2-6.1,2.2c-1,0-2.1-0.3-3.3-0.8
			c-1.2-0.5-2.1-1.2-2.8-1.9c-1.2-1.4-1.8-3.5-1.8-6.3c0-3.3,0.8-7,2.3-11c1.9-4.9,4.2-7.3,6.9-7.3c1.6,0,3.2,0.8,4.7,2.3
			c1.1,1.4,2.2,2.9,3.3,4.3c0.3,0.4,0.8,0.7,1.5,1.1C15005.9,21115.3,15006.5,21115.6,15006.7,21115.8z M15000.8,21119.4
			c0-0.6-0.3-1.1-0.8-1.5c-0.2-3.6-1.5-5.4-3.8-5.4c-1.3,0-2.4,1.8-3.2,5.5c-0.6,2.8-0.9,5.2-0.9,7.2c0,3.8,1,5.8,3,5.8
			c1.9,0,3.4-1.5,4.5-4.6C15000.3,21124,15000.8,21121.7,15000.8,21119.4z"/>
		<path class="st3" d="M15030.5,21110.7c-0.4,2-0.7,3.9-1,5.8c-0.4,2.3-0.6,4.2-0.6,5.8v16c0,2.9-0.8,5.1-2.5,6.6s-3.9,2.3-6.8,2.3
			c-1.9,0-4-0.5-6.2-1.5c-2.7-1.1-4.1-2.5-4.1-4.1c0-0.5,0.2-1,0.7-1.4c0.4-0.4,0.9-0.6,1.5-0.6c0.4,0,1.2,0.5,2.5,1.6
			c1.3,1.1,2.9,1.6,4.6,1.6c2.2,0,3.7-0.8,4.4-2.4c0.5-1.1,0.8-2.9,0.8-5.3c0-0.9,0-1.6-0.1-2.2c-1.3,0.9-2.7,1.3-4.3,1.3
			c-2.9,0-5.2-1.1-6.8-3.2c-1.4-1.9-2.2-4.4-2.2-7.3c0-0.3,0.2-5.2,0.6-14.8c1.2-0.5,2.1-0.8,2.8-0.8c0.8,0,1.9,0.5,3.5,1.4
			c-0.9,2.3-1.4,7.1-1.4,14.1c0,4.5,1.1,6.8,3.4,6.8c1.7,0,3-1.4,3.9-4.2c0.7-2,1-4.2,1-6.3v-7.2c0,0-0.1-0.6-0.2-1.9
			c1.6-0.8,2.8-1.2,3.6-1.2C15028.4,21109.6,15029.4,21110,15030.5,21110.7z"/>
		<path class="st3" d="M15052.1,21096.7c0,0.2-0.2,0.6-0.5,1.3c-0.2,0.3-0.3,1.2-0.5,2.6c-0.8,8.8-1.2,16.5-1.2,23.1
			c0,1.7,0.2,3.1,0.5,4.2c0.3,0.9,0.8,2.1,1.7,3.7c0,0.1,0.1,0.2,0.1,0.4c0,0.8-1,1.2-2.9,1.2h-0.5c-2,0-3.2-1.6-3.6-4.8
			c-0.5-3.9-0.8-9.2-0.8-16c0-1.6,0-4,0.1-7.3c0.1-3.2,0.1-5.7,0.1-7.3c0-0.9,0.5-1.8,1.4-2.6c0.9-0.8,1.9-1.2,2.8-1.2
			c0.7,0,1.5,0.3,2.3,0.9C15051.7,21095.4,15052.1,21096,15052.1,21096.7z"/>
		<path class="st3" d="M15085,21133.2c-1.3,0.8-2.3,1.2-3,1.2c-0.5,0-1.3-0.3-2.3-0.8c0-0.6,0-1.7,0-3.2c0-1.4,0-2.4,0-3.2
			c0-10.4-0.9-15.6-2.6-15.6c-1.3,0-2.3,1.6-3.1,4.8c-0.6,2.3-0.9,4.4-0.9,6.4v5.4c0,0.3,0.1,0.7,0.3,1.2c0.2,0.5,0.3,0.9,0.3,1.2
			c0,0.6-0.3,1.2-1,1.7s-1.3,0.7-1.9,0.7c-0.7,0-1.3-0.3-2-1c-0.7-0.7-1-1.3-1-1.9v-10.9c0-4.4-0.5-6.6-1.5-6.6
			c-0.2,0-0.5,0.4-1,1.1c-2.8,3.8-4.2,7.8-4.2,12.1c0,0.6,0.1,1.5,0.3,2.7c0.2,1.2,0.3,2.1,0.3,2.7c0,0.8-0.2,1.4-0.7,1.9
			c-0.5,0.5-1.1,0.8-1.9,0.8c-0.9,0-1.6-0.3-2.2-0.9c-0.2-0.3-0.4-1.2-0.7-2.8c-0.2-1.4-0.4-2.4-0.4-3v-12.8c0-0.9,0.2-2.2,0.7-3.8
			c0.6-1.9,1.2-2.8,1.9-2.8c0.8,0,1.5,0.3,2.1,0.9c0.6,0.6,0.9,1.3,0.8,2c1.1-1.9,2.6-2.8,4.4-2.8c2.2,0,4.1,1.5,5.5,4.5
			c0.7-1.8,1.4-3,2-3.6c1-1.1,2.2-1.7,3.6-1.7s2.9,0.8,4.4,2.3c2.6,2.6,3.9,7.1,3.9,13.5V21133.2z"/>
		<path class="st3" d="M15110.2,21119.3c0,4-0.7,7.4-2.1,10.2c-1.8,3.6-4.4,5.4-8,5.4c-1.9,0-3.6-0.5-4.9-1.6c0,0.4,0,1,0,1.8
			c0,0.9,0,1.4,0,1.8c0,3.8,0.4,6.7,1.3,8.9c0.4,0.9,0.6,1.4,0.6,1.6c0,1.3-0.8,2-2.3,2c-1.2,0-2.1-0.2-2.6-0.6
			c-0.4-0.3-0.9-1.3-1.3-2.9c-0.4-1.5-0.5-2.6-0.5-3.4v-14.2c0-1.3,0.1-3.1,0.2-5.3c0.2-2.5,0.3-4.2,0.3-5.2c0-1,0-2.3,0-3.9
			c0-2,0-3.3,0-3.9c0-3.3,1.1-5,3.3-5c0.5,0,1,0.2,1.5,0.6c0.5,0.4,0.7,0.8,0.7,1.3c0,0.9-0.1,2.4-0.3,4.7c1.5-2.2,3.4-3.2,5.5-3.2
			c2.9,0,5.1,1.2,6.7,3.5C15109.5,21113.7,15110.2,21116.2,15110.2,21119.3z M15105,21118.8c0-4.2-0.9-6.3-2.7-6.3
			c-0.8,0-1.8,0.8-3.1,2.3c-2.4,2.9-3.8,7-4,12.2c0.4,0.2,1.2,1.1,2.3,2.5c0.9,1.1,1.7,1.6,2.6,1.6
			C15103.4,21130.9,15105,21126.9,15105,21118.8z"/>
		<path class="st3" d="M15133.9,21123.3c0,5.1-0.2,8.6-0.5,10.7c-0.2,1.2-1,1.8-2.5,1.8c-2.2,0-3.2-1.1-2.9-3.3
			c-2,0.9-4,1.4-6.1,1.4c-2,0-4-0.5-5.8-1.5c-2.2-1.2-3.3-2.8-3.3-4.6c0-1.8,1.3-3.6,3.8-5.2c2.3-1.4,4.4-2.2,6.4-2.2h5v-1.4
			c0-4.1-1.2-6.1-3.6-6.1c-3.1,0-4.6,1.4-4.6,4.3c0,1-0.5,1.5-1.6,1.5c-0.7,0-1.4-0.3-2.1-0.9c-0.7-0.6-1.1-1.2-1.1-1.9
			c0-2.2,0.8-4,2.3-5.4s3.4-2.1,5.6-2.1C15130.2,21108.3,15133.9,21113.3,15133.9,21123.3z M15128,21125.4c0-0.8-0.6-1.2-1.8-1.2
			c-4.9,0-7.3,1.2-7.3,3.5c0,1.3,1.1,1.9,3.2,1.9c1.3,0,2.6-0.4,3.8-1.1C15127.3,21127.6,15128,21126.6,15128,21125.4z"/>
		<path class="st3" d="M15158.8,21126.6c0,1.2-0.9,2.6-2.8,4.3c-1.6,1.5-3.1,2.5-4.4,2.9c-1.3,0.4-2.6,0.6-3.7,0.6
			c-3.1,0-5.5-1-7.3-2.9c-1.7-2-2.6-4.5-2.6-7.6c0-3,0.8-6.4,2.4-10.1c1.9-4.5,4.2-6.7,6.7-6.7c1.4,0,3.1,0.5,5.1,1.6
			c2.1,1.2,3.3,2.4,3.7,3.6c0.3,1.1,0.5,2.3,0.5,3.6c0,1.2-0.3,2.6-0.8,4.1c-0.6,2-1.4,2.9-2.3,2.9c-0.7,0-1.3-0.2-1.9-0.6
			c-0.7-0.4-1.1-1-1.1-1.6c0,0,0.2-0.5,0.5-1.3c0.2-0.4,0.3-1.5,0.3-3.2c0-1.4-0.1-2.4-0.2-2.8c-0.2-1.2-0.8-1.8-1.6-1.8
			c-1.9,0-3.4,1.7-4.5,5c-0.8,2.5-1.2,4.9-1.2,7.4c0,4.2,1.3,6.3,4,6.3c1.1,0,2.3-0.5,3.6-1.6c1.3-1,2.1-2.1,2.6-3.1
			c0.6-1.3,1.4-1.9,2.3-1.9c0.6,0,1.2,0.3,1.7,1C15158.5,21125.4,15158.8,21126.1,15158.8,21126.6z"/>
		<path class="st3" d="M15173.1,21112.2c0,1.1-1.6,1.8-4.8,2.2c-0.1,0.9-0.1,2.8-0.1,5.9v3.9c0,0.8,0.1,1.9,0.4,3.5
			c0.2,1.5,0.4,2.7,0.4,3.4c0,0.6-0.3,1.2-0.9,1.7c-0.6,0.5-1.3,0.7-1.9,0.7c-1,0-1.8-0.8-2.5-2.5c-0.5-1.3-0.8-2.5-0.8-3.8v-12.5
			c-1.8-0.3-2.8-0.4-3.1-0.5c-1-0.3-1.5-0.8-1.5-1.4c0-0.2,0-0.3,0.1-0.5c1-1.4,2.2-2.2,3.4-2.2c0.1,0,0.2,0,0.4,0
			c0.2,0,0.3,0.1,0.4,0.1c0.8,0,1.2-1,1.2-2.9v-4.3c-0.2-0.4-0.3-0.8-0.3-1.1c0-0.5,0.3-1,0.9-1.4c0.6-0.4,1.2-0.6,1.7-0.6
			c0.8,0,1.6,0.4,2.3,1.1s1.1,1.6,1.1,2.4c0,0.9-0.1,1.9-0.4,2.8c-0.3,0.9-0.4,1.9-0.4,2.8v0.2
			C15171.6,21109.7,15173.1,21110.7,15173.1,21112.2z"/>
	</g>
</g>
</svg>
