<svg xmlns="http://www.w3.org/2000/svg" viewBox="0 0 69.998 70">
  <defs>
    <style>
      .cls-1 {
        fill: #00bcd4;
      }
    </style>
  </defs>
  <g id="feedback_1_" data-name="feedback (1)" transform="translate(-0.002)">
    <g id="Group_4574" data-name="Group 4574" transform="translate(14.005 4.623)">
      <g id="Group_4573" data-name="Group 4573">
        <rect id="Rectangle_4242" data-name="Rectangle 4242" class="cls-1" width="2.311" height="2.311"/>
      </g>
    </g>
    <g id="Group_4576" data-name="Group 4576" transform="translate(18.674 4.623)">
      <g id="Group_4575" data-name="Group 4575">
        <rect id="Rectangle_4243" data-name="Rectangle 4243" class="cls-1" width="2.311" height="2.311"/>
      </g>
    </g>
    <g id="Group_4578" data-name="Group 4578" transform="translate(23.342 4.623)">
      <g id="Group_4577" data-name="Group 4577">
        <rect id="Rectangle_4244" data-name="Rectangle 4244" class="cls-1" width="2.311" height="2.311"/>
      </g>
    </g>
    <g id="Group_4580" data-name="Group 4580" transform="translate(43.421 4.623)">
      <g id="Group_4579" data-name="Group 4579">
        <rect id="Rectangle_4245" data-name="Rectangle 4245" class="cls-1" width="21.957" height="2.311"/>
      </g>
    </g>
    <g id="Group_4582" data-name="Group 4582" transform="translate(46.888 17.506)">
      <g id="Group_4581" data-name="Group 4581">
        <rect id="Rectangle_4246" data-name="Rectangle 4246" class="cls-1" width="18.49" height="2.311"/>
      </g>
    </g>
    <g id="Group_4584" data-name="Group 4584" transform="translate(56.133 22.174)">
      <g id="Group_4583" data-name="Group 4583">
        <rect id="Rectangle_4247" data-name="Rectangle 4247" class="cls-1" width="9.245" height="2.311"/>
      </g>
    </g>
    <g id="Group_4586" data-name="Group 4586" transform="translate(56.133 26.842)">
      <g id="Group_4585" data-name="Group 4585">
        <rect id="Rectangle_4248" data-name="Rectangle 4248" class="cls-1" width="9.245" height="2.311"/>
      </g>
    </g>
    <g id="Group_4588" data-name="Group 4588" transform="translate(56.133 31.51)">
      <g id="Group_4587" data-name="Group 4587">
        <rect id="Rectangle_4249" data-name="Rectangle 4249" class="cls-1" width="9.245" height="2.311"/>
      </g>
    </g>
    <g id="Group_4590" data-name="Group 4590" transform="translate(46.888 36.178)">
      <g id="Group_4589" data-name="Group 4589">
        <rect id="Rectangle_4250" data-name="Rectangle 4250" class="cls-1" width="18.49" height="2.311"/>
      </g>
    </g>
    <g id="Group_4592" data-name="Group 4592" transform="translate(46.888 54.851)">
      <g id="Group_4591" data-name="Group 4591">
        <rect id="Rectangle_4251" data-name="Rectangle 4251" class="cls-1" width="18.49" height="2.311"/>
      </g>
    </g>
    <g id="Group_4594" data-name="Group 4594" transform="translate(56.133 40.847)">
      <g id="Group_4593" data-name="Group 4593">
        <rect id="Rectangle_4252" data-name="Rectangle 4252" class="cls-1" width="9.245" height="2.311"/>
      </g>
    </g>
    <g id="Group_4596" data-name="Group 4596" transform="translate(56.133 45.515)">
      <g id="Group_4595" data-name="Group 4595">
        <rect id="Rectangle_4253" data-name="Rectangle 4253" class="cls-1" width="9.245" height="2.311"/>
      </g>
    </g>
    <g id="Group_4598" data-name="Group 4598" transform="translate(56.133 50.183)">
      <g id="Group_4597" data-name="Group 4597">
        <rect id="Rectangle_4254" data-name="Rectangle 4254" class="cls-1" width="9.245" height="2.311"/>
      </g>
    </g>
    <g id="Group_4600" data-name="Group 4600" transform="translate(56.133 59.599)">
      <g id="Group_4599" data-name="Group 4599">
        <rect id="Rectangle_4255" data-name="Rectangle 4255" class="cls-1" width="9.245" height="2.311"/>
      </g>
    </g>
    <g id="Group_4602" data-name="Group 4602" transform="translate(0.001)">
      <g id="Group_4601" data-name="Group 4601">
        <path id="Path_8315" data-name="Path 8315" class="cls-1" d="M68.834,0H10.5A1.166,1.166,0,0,0,9.334,1.167V17.5H1.167a1.167,1.167,0,0,0-.911,1.9L4.667,24.91v5.424a5.844,5.844,0,0,0,4.667,5.715v7.118H1.167a1.167,1.167,0,0,0-.911,1.9l4.411,5.514V56a5.844,5.844,0,0,0,4.667,5.716v7.118A1.166,1.166,0,0,0,10.5,70H64.167A5.84,5.84,0,0,0,70,64.167v-63A1.166,1.166,0,0,0,68.834,0ZM7,30.333V24.5a1.168,1.168,0,0,0-.255-.729L3.6,19.833H36.167a3.5,3.5,0,0,1,3.5,3.5v7a3.5,3.5,0,0,1-3.5,3.5H10.5A3.5,3.5,0,0,1,7,30.333ZM7,56V50.167a1.168,1.168,0,0,0-.255-.729L3.6,45.5H36.167a3.5,3.5,0,0,1,3.5,3.5v7a3.5,3.5,0,0,1-3.5,3.5H10.5A3.5,3.5,0,0,1,7,56Zm60.667,8.167a3.5,3.5,0,0,1-3.5,3.5h-52.5V61.833h24.5A5.84,5.84,0,0,0,42,56V49a5.84,5.84,0,0,0-5.833-5.833h-24.5v-7h24.5A5.84,5.84,0,0,0,42,30.333v-7A5.84,5.84,0,0,0,36.167,17.5h-24.5V11.667h56Zm0-54.833h-56v-7h56Z" transform="translate(-0.001)"/>
      </g>
    </g>
    <g id="Group_4604" data-name="Group 4604" transform="translate(10.402 23.341)">
      <g id="Group_4603" data-name="Group 4603">
        <rect id="Rectangle_4256" data-name="Rectangle 4256" class="cls-1" width="9.245" height="2.311"/>
      </g>
    </g>
    <g id="Group_4606" data-name="Group 4606" transform="translate(22.186 23.341)">
      <g id="Group_4605" data-name="Group 4605">
        <rect id="Rectangle_4257" data-name="Rectangle 4257" class="cls-1" width="5.778" height="2.311"/>
      </g>
    </g>
    <g id="Group_4608" data-name="Group 4608" transform="translate(30.36 23.341)">
      <g id="Group_4607" data-name="Group 4607">
        <rect id="Rectangle_4258" data-name="Rectangle 4258" class="cls-1" width="5.778" height="2.311"/>
      </g>
    </g>
    <g id="Group_4610" data-name="Group 4610" transform="translate(10.402 28.009)">
      <g id="Group_4609" data-name="Group 4609">
        <rect id="Rectangle_4259" data-name="Rectangle 4259" class="cls-1" width="5.778" height="2.311"/>
      </g>
    </g>
    <g id="Group_4612" data-name="Group 4612" transform="translate(18.726 28.009)">
      <g id="Group_4611" data-name="Group 4611">
        <rect id="Rectangle_4260" data-name="Rectangle 4260" class="cls-1" width="17.335" height="2.311"/>
      </g>
    </g>
    <g id="Group_4614" data-name="Group 4614" transform="translate(26.873 53.684)">
      <g id="Group_4613" data-name="Group 4613">
        <rect id="Rectangle_4261" data-name="Rectangle 4261" class="cls-1" width="9.245" height="2.311"/>
      </g>
    </g>
    <g id="Group_4616" data-name="Group 4616" transform="translate(18.683 53.684)">
      <g id="Group_4615" data-name="Group 4615">
        <rect id="Rectangle_4262" data-name="Rectangle 4262" class="cls-1" width="5.778" height="2.311"/>
      </g>
    </g>
    <g id="Group_4618" data-name="Group 4618" transform="translate(10.402 53.684)">
      <g id="Group_4617" data-name="Group 4617">
        <rect id="Rectangle_4263" data-name="Rectangle 4263" class="cls-1" width="5.778" height="2.311"/>
      </g>
    </g>
    <g id="Group_4620" data-name="Group 4620" transform="translate(30.36 49.016)">
      <g id="Group_4619" data-name="Group 4619">
        <rect id="Rectangle_4264" data-name="Rectangle 4264" class="cls-1" width="5.778" height="2.311"/>
      </g>
    </g>
    <g id="Group_4622" data-name="Group 4622" transform="translate(10.402 49.016)">
      <g id="Group_4621" data-name="Group 4621">
        <rect id="Rectangle_4265" data-name="Rectangle 4265" class="cls-1" width="17.335" height="2.311"/>
      </g>
    </g>
  </g>
</svg>
