<svg xmlns="http://www.w3.org/2000/svg" viewBox="0 0 20 22">
  <defs>
    <style>
      .cls-1 {
        fill: #fff;
      }
    </style>
  </defs>
  <g id="edit_tablet" transform="translate(-1548.537 -623.962)">
    <g id="writing" transform="translate(1548.537 623.962)">
      <g id="Group_4625" data-name="Group 4625" transform="translate(0)">
        <g id="Group_4624" data-name="Group 4624" transform="translate(0)">
          <path id="Path_8319" data-name="Path 8319" class="cls-1" d="M117.79,200.921a.921.921,0,0,0-.921-.921H107.38a.921.921,0,0,0,0,1.842h9.489A.921.921,0,0,0,117.79,200.921Z" transform="translate(-103.205 -191.459)"/>
          <path id="Path_8320" data-name="Path 8320" class="cls-1" d="M107.38,280a.921.921,0,1,0,0,1.842h5.763a.921.921,0,1,0,0-1.842Z" transform="translate(-103.088 -268.042)"/>
          <path id="Path_8321" data-name="Path 8321" class="cls-1" d="M32.925,20.281H30.031A1.727,1.727,0,0,1,28.3,18.563V3.438a1.727,1.727,0,0,1,1.731-1.719H40.669A1.727,1.727,0,0,1,42.4,3.438V8.723a.865.865,0,0,0,1.731,0V3.438A3.453,3.453,0,0,0,40.669,0H30.031A3.453,3.453,0,0,0,26.57,3.438V18.563A3.453,3.453,0,0,0,30.031,22h2.894a.859.859,0,1,0,0-1.719Z" transform="translate(-26.57)"/>
          <path id="Path_8322" data-name="Path 8322" class="cls-1" d="M253.794,272.832a2.767,2.767,0,0,0-3.908,0l-5.058,5.046a.921.921,0,0,0-.231.384l-1.1,3.626a.921.921,0,0,0,1.127,1.156l3.718-1.03a.921.921,0,0,0,.4-.236l5.047-5.038A2.767,2.767,0,0,0,253.794,272.832Zm-6.177,7.471-1.871.518.547-1.8,3.413-3.405,1.3,1.3Zm4.875-4.866-.178.178-1.3-1.3.178-.177a.921.921,0,0,1,1.3,1.3Z" transform="translate(-234.603 -261.078)"/>
          <path id="Path_8323" data-name="Path 8323" class="cls-1" d="M116.869,120H107.38a.921.921,0,1,0,0,1.842h9.489a.921.921,0,0,0,0-1.842Z" transform="translate(-103.205 -114.875)"/>
        </g>
      </g>
    </g>
  </g>
</svg>
