<svg xmlns="http://www.w3.org/2000/svg" viewBox="0 0 14 20">
  <defs>
    <style>
      .cls-1 {
        fill: #00bcd4;
      }
    </style>
  </defs>
  <g id="flag_map" transform="translate(-81.017)">
    <g id="Group_1771" data-name="Group 1771" transform="translate(81.017)">
      <path id="Path_641" data-name="Path 641" class="cls-1" d="M92.249,6.937l2.674-3.5a.452.452,0,0,0,.044-.482.474.474,0,0,0-.422-.254H83.032V2.111a1.106,1.106,0,0,0,.661-1.005,1.133,1.133,0,0,0-2.266,0,1.106,1.106,0,0,0,.66,1.005V19.078h-.6a.461.461,0,1,0,0,.922h2.142a.461.461,0,1,0,0-.922h-.6v-7.92h11.5a.474.474,0,0,0,.422-.254.452.452,0,0,0-.043-.482ZM82.56,1.382a.276.276,0,1,1,.283-.276A.28.28,0,0,1,82.56,1.382Zm.472,8.853h0V8.7h1.505a.461.461,0,1,0,0-.922H83.032V6.076h2.355a.461.461,0,1,0,0-.922H83.032V3.622H93.6l-2.322,3.04a.453.453,0,0,0,0,.551l2.305,3.023H83.032Z" transform="translate(-81.017)"/>
    </g>
  </g>
</svg>
