<svg xmlns="http://www.w3.org/2000/svg" viewBox="0 0 17 22">
  <defs>
    <style>
      .cls-1 {
        fill: #fff;
      }
    </style>
  </defs>
  <g id="gas" transform="translate(-64)">
    <g id="Group_2306" data-name="Group 2306" transform="translate(64 0)">
      <path id="Path_2275" data-name="Path 2275" class="cls-1" d="M80.952,12.881c-.26-3.281-1.834-5.337-3.222-7.152-1.286-1.68-2.4-3.13-2.4-5.27a.458.458,0,0,0-.256-.408.48.48,0,0,0-.491.035A11.659,11.659,0,0,0,70.153,6.3a19.722,19.722,0,0,0-.486,4.648c-1.926-.4-2.362-3.2-2.367-3.226a.461.461,0,0,0-.246-.34.483.483,0,0,0-.428-.008c-.1.047-2.479,1.22-2.617,5.9-.01.156-.01.312-.01.468A8.387,8.387,0,0,0,72.5,22a.068.068,0,0,0,.019,0h.006A8.387,8.387,0,0,0,81,13.75C81,13.521,80.952,12.881,80.952,12.881Zm-8.452,8.2a2.886,2.886,0,0,1-2.833-2.929c0-.055,0-.111,0-.179a3.623,3.623,0,0,1,.3-1.455,1.72,1.72,0,0,0,1.559,1.1A.465.465,0,0,0,72,17.157a8.906,8.906,0,0,1,.181-2.085,4.39,4.39,0,0,1,.956-1.757,5.855,5.855,0,0,0,.974,1.733,5.144,5.144,0,0,1,1.211,2.862c.006.079.012.158.012.243A2.886,2.886,0,0,1,72.5,21.083Z" transform="translate(-64 0)"/>
    </g>
  </g>
</svg>
