<svg xmlns="http://www.w3.org/2000/svg" viewBox="0 0 16.5 22">
  <defs>
    <style>
      .cls-1 {
        fill: #fff;
      }
    </style>
  </defs>
  <g id="gas_usage" transform="translate(-64)">
    <g id="Group_2306" data-name="Group 2306" transform="translate(64 0)">
      <path id="Path_2275" data-name="Path 2275" class="cls-1" d="M80.453,12.881a12.967,12.967,0,0,0-3.127-7.152C76.078,4.049,75,2.6,75,.459a.459.459,0,0,0-.249-.408.454.454,0,0,0-.476.035,11.657,11.657,0,0,0-4.3,6.218,20.3,20.3,0,0,0-.471,4.648c-1.869-.4-2.293-3.2-2.3-3.226a.458.458,0,0,0-.654-.348c-.1.047-2.406,1.22-2.54,5.9-.009.156-.01.312-.01.468A8.259,8.259,0,0,0,72.25,22a.064.064,0,0,0,.018,0h.006A8.259,8.259,0,0,0,80.5,13.75C80.5,13.521,80.453,12.881,80.453,12.881Zm-8.2,8.2a2.847,2.847,0,0,1-2.75-2.929c0-.055,0-.111,0-.179a3.716,3.716,0,0,1,.29-1.455,1.674,1.674,0,0,0,1.513,1.1.458.458,0,0,0,.458-.458,9.168,9.168,0,0,1,.176-2.085,4.432,4.432,0,0,1,.928-1.757,5.906,5.906,0,0,0,.945,1.733,5.222,5.222,0,0,1,1.175,2.862c.006.079.012.158.012.243A2.847,2.847,0,0,1,72.25,21.083Z" transform="translate(-64 0)"/>
    </g>
  </g>
</svg>
