<svg xmlns="http://www.w3.org/2000/svg" viewBox="0 0 36 36">
  <defs>
    <style>
      .cls-1 {
        fill: #fff;
      }
    </style>
  </defs>
  <g id="gas_white" transform="translate(-570 -297)">
    <g id="Group_1932" data-name="Group 1932" transform="translate(-360 6)">
      <g id="Group_1924" data-name="Group 1924" transform="translate(930 291)">
        <g id="Group_1923" data-name="Group 1923">
          <path id="Path_685" data-name="Path 685" class="cls-1" d="M30.728,5.272A18,18,0,0,0,5.272,30.728,18,18,0,0,0,30.728,5.272Zm-.746,24.71A16.945,16.945,0,0,1,6.018,6.018,16.945,16.945,0,0,1,29.982,29.982Z"/>
        </g>
      </g>
      <g id="fire_1_" data-name="fire (1)" transform="translate(845.52 296.338)">
        <g id="Group_1929" data-name="Group 1929" transform="translate(94.061 0)">
          <g id="Group_1928" data-name="Group 1928" transform="translate(0 0)">
            <path id="Path_687" data-name="Path 687" class="cls-1" d="M109.316,12.446c-.46-2.113-.857-3.938-.071-5.58a.394.394,0,0,0-.428-.557c-.095.018-2.207.445-3.56,3.431a11.2,11.2,0,0,1-1.4-2.265,9.583,9.583,0,0,1-.544-6.969.394.394,0,0,0-.522-.479,6.657,6.657,0,0,0-2.228,1.623,7.52,7.52,0,0,0-1.849,5.919A21.508,21.508,0,0,1,98.765,11a6.81,6.81,0,0,0-1.284-2.4,6.4,6.4,0,0,0-1.587-1.4.394.394,0,0,0-.582.414,9.954,9.954,0,0,1-.5,5.613,11.98,11.98,0,0,0-.754,3.979,7.957,7.957,0,0,0,15.914,0A22.093,22.093,0,0,0,109.316,12.446Zm-4.363,11.3a3.736,3.736,0,0,0,.82-2.339,14.159,14.159,0,0,0-1.512-6.269,12.177,12.177,0,0,0-1.526-2.394.394.394,0,0,0-.593.519,13.421,13.421,0,0,1,2.844,8.144,2.971,2.971,0,0,1-2.968,2.968A3.087,3.087,0,0,1,99.051,21.4a3.9,3.9,0,0,1,.3-1.535.394.394,0,0,0-.732-.293,4.7,4.7,0,0,0-.355,1.827,3.744,3.744,0,0,0,.91,2.378,7.18,7.18,0,0,1-4.324-6.58,11.177,11.177,0,0,1,.715-3.737,10.84,10.84,0,0,0,.667-5.032A6.057,6.057,0,0,1,98.263,13a.394.394,0,0,0,.663.287c.162-.152.95-1.143.571-5.782a6.734,6.734,0,0,1,1.621-5.3,6.392,6.392,0,0,1,1.213-1.037,10.56,10.56,0,0,0,.811,6.635,11.092,11.092,0,0,0,1.96,2.949.394.394,0,0,0,.647-.14,5.908,5.908,0,0,1,2.463-3.22,11.128,11.128,0,0,0,.334,5.217,21.149,21.149,0,0,1,.641,4.587A7.179,7.179,0,0,1,104.953,23.741Z" transform="translate(-94.061 0)"/>
          </g>
        </g>
        <g id="Group_1931" data-name="Group 1931" transform="translate(99.29 15.546)">
          <g id="Group_1930" data-name="Group 1930">
            <path id="Path_688" data-name="Path 688" class="cls-1" d="M203.632,316.4a.394.394,0,0,0-.471.3,4.33,4.33,0,0,1-.391,1.092,2.364,2.364,0,0,0-1.664-.979.394.394,0,0,0-.394.394,5.243,5.243,0,0,1-.216,1.566.394.394,0,1,0,.754.229,5.783,5.783,0,0,0,.232-1.272l.024.013a2.8,2.8,0,0,1,.954.943.394.394,0,0,0,.606.06,3.918,3.918,0,0,0,.865-1.873A.394.394,0,0,0,203.632,316.4Z" transform="translate(-200.479 -316.39)"/>
          </g>
        </g>
      </g>
    </g>
  </g>
</svg>
