<?xml version="1.0" encoding="utf-8"?>
<!-- Generator: Adobe Illustrator 22.1.0, SVG Export Plug-In . SVG Version: 6.00 Build 0)  -->
<svg version="1.1" id="Layer_1" xmlns="http://www.w3.org/2000/svg" xmlns:xlink="http://www.w3.org/1999/xlink" x="0px" y="0px"
	 viewBox="0 0 427.9 269.1" style="enable-background:new 0 0 427.9 269.1;" xml:space="preserve">
<style type="text/css">
	.st0{opacity:0.446;fill:#FFFFFF;enable-background:new    ;}
	.st1{fill:#FFFFFF;}
	.st2{enable-background:new    ;}
	.st3{fill:#FFBB3C;}
</style>
<g id="Group_3033" transform="translate(1302.265 784.271) rotate(-93)">
	<path id="Path_2457" class="st0" d="M731.5-1254.3c0,0,47.9,10.8,75,67.7c27,57,40.2,247.4-17.3,316.2
		c-57.6,69-181.6-17-198.8-93.3c-17.3-76.3-7.4-204.7,22.1-248C642-1255.1,681.1-1270.5,731.5-1254.3z"/>
	<path id="Path_2459" class="st1" d="M705.6-1228.3c0,0,60.4,7,78.1,52.1s35.5,183.5,0.3,248c-35.1,64.5-94.8,45.1-128.9,27.2
		s-48.5-97.8-49.5-167.4S631.5-1253,705.6-1228.3z"/>
</g>
<g class="st2">
	<path class="st3" d="M138.5,87.5c0,2.5-1.1,4.8-3.3,6.8c-2.2,2-4.6,3-7.2,3c-3.7,0-6.4-1.4-8.2-4.3c-1.4-2.4-2.1-5.5-2.1-9.5
		c0-4,0.9-7.7,2.6-11c2.1-4,4.9-6,8.6-6c1.8,0,3.4,0.4,4.7,1.3c1.5,1,2.4,2.3,2.8,4c0.3,1.4,0.4,2,0.4,2c0,3.9-0.9,5.8-2.6,5.8
		c-0.5,0-1-0.2-1.4-0.5c-0.4-0.4-0.7-0.8-0.7-1.3c0-0.3,0.2-0.7,0.5-1.3c0.3-0.6,0.5-1,0.5-1.3c0-1.7-0.2-2.8-0.6-3.4
		c-0.5-0.9-1.6-1.3-3.1-1.3c-1.6,0-3,1-4.4,2.9c-1.1,1.6-1.8,3.3-2.2,5.1c-0.3,1.9-0.5,3.7-0.5,5.3c0,2.7,0.2,4.7,0.7,6
		c0.7,2,2.1,3.3,4.2,3.9c0.6,0.2,1.2,0.3,1.6,0.3c1,0,2.2-0.4,3.3-1.3c1-0.8,1.8-1.7,2.4-2.8c0.3-0.6,0.5-1.4,0.6-2.3l-0.2-0.1
		c-2.1,0-3.7,0.2-4.8,0.7c-0.4,0.2-0.7,0.4-1,0.6c-0.5,0.2-0.8,0.3-1.1,0.3c-0.7,0-1.3-0.3-1.7-0.9c-0.4-0.6-0.6-1.3-0.6-2.1
		c0-0.6,0.3-1.2,1-1.6c0.4-0.2,1.8-0.5,4.1-0.8c2.1-0.3,3.6-0.4,4.4-0.4C137.3,83.1,138.5,84.6,138.5,87.5z"/>
	<path class="st3" d="M153,81.3c0,0.2,0,0.5-0.1,1c-0.6,0.9-1.3,1.3-1.9,1.3c-0.6,0-1-0.3-1.5-1c-0.1-1.3-0.5-2-1.4-2
		c-0.5,0-1.2,1.4-1.9,4.2c-0.4,1.2-0.5,2.9-0.5,5.1c0,2.1,0.1,3.3,0.3,3.8c0.2,0.6,0.3,0.9,0.3,1.1c0,0.5-0.2,0.9-0.7,1.2
		s-0.9,0.5-1.5,0.5c-1.6,0-2.3-0.7-2.3-2.2c0-0.1,0-0.3,0.1-0.6c0.1-0.3,0.1-0.5,0.1-0.6c0-1.5-0.1-3.7-0.2-6.6
		c-0.1-2.9-0.2-5.1-0.2-6.6c0-1.3,0.8-2,2.4-2c0.9,0,1.6,0.3,1.9,0.8c0.8-0.9,1.7-1.4,2.8-1.4c0.7,0,1.4,0.2,2,0.6
		c0.4,0.2,0.9,0.7,1.5,1.5C152.7,80.3,153,80.9,153,81.3z"/>
	<path class="st3" d="M168.4,92.5c0,1.5-1,2.6-3,3.4c-1.5,0.6-3.2,1-4.9,1c-4.5,0-6.7-2.6-6.7-7.7c0-2.1,0.5-4.4,1.5-7
		c1.3-3.2,2.8-4.7,4.5-4.7c1.6,0,3.3,0.7,5.2,2.1c1.9,1.4,2.8,2.9,2.8,4.5c0,1.9-0.9,3.5-2.6,4.6c-1.5,1-3.3,1.5-5.4,1.5
		c-0.4,0-1.1-0.2-2-0.7c0.1,2.8,0.9,4.2,2.5,4.2c1.3,0,2.5-0.4,3.8-1.1c1.2-0.7,2-1.1,2.4-1.1C167.8,91.5,168.4,91.8,168.4,92.5z
		 M163.7,84.2c0-0.7-0.2-1.4-0.6-2.1c-0.4-0.7-1-1-1.7-1c-1,0-1.7,0.4-2.2,1.3c-0.4,0.7-0.7,1.6-0.7,2.6c0,0.6,0.2,1,0.6,1.4
		c0.4,0.3,0.9,0.5,1.4,0.5C162.6,86.9,163.7,86,163.7,84.2z"/>
	<path class="st3" d="M185.1,92.5c0,1.5-1,2.6-3,3.4c-1.5,0.6-3.2,1-4.9,1c-4.5,0-6.7-2.6-6.7-7.7c0-2.1,0.5-4.4,1.5-7
		c1.3-3.2,2.8-4.7,4.5-4.7c1.6,0,3.3,0.7,5.2,2.1c1.9,1.4,2.8,2.9,2.8,4.5c0,1.9-0.9,3.5-2.6,4.6c-1.5,1-3.3,1.5-5.4,1.5
		c-0.4,0-1.1-0.2-2-0.7c0.1,2.8,0.9,4.2,2.5,4.2c1.3,0,2.5-0.4,3.8-1.1c1.2-0.7,2-1.1,2.4-1.1C184.4,91.5,185.1,91.8,185.1,92.5z
		 M180.3,84.2c0-0.7-0.2-1.4-0.6-2.1c-0.4-0.7-1-1-1.7-1c-1,0-1.7,0.4-2.2,1.3c-0.4,0.7-0.7,1.6-0.7,2.6c0,0.6,0.2,1,0.6,1.4
		c0.4,0.3,0.9,0.5,1.4,0.5C179.2,86.9,180.3,86,180.3,84.2z"/>
	<path class="st3" d="M203.2,96c-0.4,0.7-1,1-1.6,1c-0.5,0-1.3-0.3-2.5-0.9v-0.5c0-0.6,0-1.6,0-2.8c0-1.3,0-2.2,0-2.8
		c0-6.2-0.9-9.4-2.8-9.4c-0.5,0-1.1,0.4-1.8,1.2c-2.1,2.5-3.1,5.5-3.1,9.1c0,0.5,0.1,1.2,0.3,2.2c0.2,1,0.3,1.7,0.3,2.2
		c0,0.4-0.2,0.7-0.6,1c-0.4,0.3-0.8,0.4-1.2,0.4c-1.8,0-2.6-1.1-2.6-3.3v-9.1c0-0.2,0-0.6,0.1-1c0.1-0.5,0.1-0.8,0.1-1
		c0-0.3-0.1-0.9-0.2-1.5c-0.1-0.7-0.2-1.2-0.2-1.5c0-0.5,0.3-0.9,0.8-1.3c0.5-0.4,1-0.6,1.5-0.6c0.6,0,1.3,0.4,2,1.1l-0.1,1.8
		c1.1-1.7,2.4-2.6,4-2.6c1,0,2.1,0.3,3.2,1s2,1.5,2.5,2.4c1.2,2.2,1.8,5.1,1.8,8.8V96z"/>
	<path class="st3" d="M227.6,92.5c0,1.5-1,2.6-3,3.4c-1.5,0.6-3.2,1-4.9,1c-4.5,0-6.7-2.6-6.7-7.7c0-2.1,0.5-4.4,1.5-7
		c1.3-3.2,2.8-4.7,4.6-4.7c1.6,0,3.3,0.7,5.2,2.1c1.9,1.4,2.8,2.9,2.8,4.5c0,1.9-0.9,3.5-2.6,4.6c-1.5,1-3.3,1.5-5.4,1.5
		c-0.4,0-1.1-0.2-2-0.7c0.1,2.8,0.9,4.2,2.5,4.2c1.3,0,2.5-0.4,3.8-1.1c1.2-0.7,2-1.1,2.4-1.1C227,91.5,227.6,91.8,227.6,92.5z
		 M222.9,84.2c0-0.7-0.2-1.4-0.6-2.1s-1-1-1.7-1c-1,0-1.7,0.4-2.2,1.3c-0.4,0.7-0.7,1.6-0.7,2.6c0,0.6,0.2,1,0.6,1.4
		c0.4,0.3,0.9,0.5,1.4,0.5C221.8,86.9,222.9,86,222.9,84.2z"/>
	<path class="st3" d="M245.7,96c-0.4,0.7-1,1-1.6,1c-0.5,0-1.3-0.3-2.5-0.9v-0.5c0-0.6,0-1.6,0-2.8c0-1.3,0-2.2,0-2.8
		c0-6.2-0.9-9.4-2.8-9.4c-0.5,0-1.1,0.4-1.8,1.2c-2.1,2.5-3.1,5.5-3.1,9.1c0,0.5,0.1,1.2,0.3,2.2c0.2,1,0.3,1.7,0.3,2.2
		c0,0.4-0.2,0.7-0.6,1s-0.8,0.4-1.2,0.4c-1.8,0-2.6-1.1-2.6-3.3v-9.1c0-0.2,0-0.6,0.1-1c0.1-0.5,0.1-0.8,0.1-1
		c0-0.3-0.1-0.9-0.2-1.5c-0.1-0.7-0.2-1.2-0.2-1.5c0-0.5,0.3-0.9,0.8-1.3s1-0.6,1.5-0.6c0.6,0,1.3,0.4,2,1.1l-0.1,1.8
		c1.1-1.7,2.4-2.6,4-2.6c1,0,2.1,0.3,3.2,1s2,1.5,2.5,2.4c1.2,2.2,1.8,5.1,1.8,8.8V96z"/>
	<path class="st3" d="M263.1,92.5c0,1.5-1,2.6-3,3.4c-1.5,0.6-3.2,1-4.9,1c-4.5,0-6.7-2.6-6.7-7.7c0-2.1,0.5-4.4,1.5-7
		c1.3-3.2,2.8-4.7,4.5-4.7c1.6,0,3.3,0.7,5.2,2.1c1.9,1.4,2.8,2.9,2.8,4.5c0,1.9-0.9,3.5-2.6,4.6c-1.5,1-3.3,1.5-5.4,1.5
		c-0.4,0-1.1-0.2-2-0.7c0.1,2.8,0.9,4.2,2.5,4.2c1.3,0,2.5-0.4,3.8-1.1c1.2-0.7,2-1.1,2.4-1.1C262.5,91.5,263.1,91.8,263.1,92.5z
		 M258.3,84.2c0-0.7-0.2-1.4-0.6-2.1c-0.4-0.7-1-1-1.7-1c-1,0-1.7,0.4-2.2,1.3c-0.4,0.7-0.7,1.6-0.7,2.6c0,0.6,0.2,1,0.6,1.4
		c0.4,0.3,0.9,0.5,1.4,0.5C257.3,86.9,258.3,86,258.3,84.2z"/>
	<path class="st3" d="M276.9,81.3c0,0.2,0,0.5-0.1,1c-0.6,0.9-1.3,1.3-1.9,1.3c-0.6,0-1-0.3-1.5-1c-0.1-1.3-0.5-2-1.4-2
		c-0.5,0-1.2,1.4-1.9,4.2c-0.4,1.2-0.5,2.9-0.5,5.1c0,2.1,0.1,3.3,0.3,3.8c0.2,0.6,0.3,0.9,0.3,1.1c0,0.5-0.2,0.9-0.7,1.2
		c-0.4,0.3-0.9,0.5-1.5,0.5c-1.6,0-2.3-0.7-2.3-2.2c0-0.1,0-0.3,0.1-0.6c0.1-0.3,0.1-0.5,0.1-0.6c0-1.5-0.1-3.7-0.2-6.6
		c-0.1-2.9-0.2-5.1-0.2-6.6c0-1.3,0.8-2,2.4-2c0.9,0,1.6,0.3,1.9,0.8c0.8-0.9,1.7-1.4,2.8-1.4c0.7,0,1.4,0.2,2,0.6
		c0.4,0.2,0.9,0.7,1.5,1.5C276.6,80.3,276.9,80.9,276.9,81.3z"/>
	<path class="st3" d="M292.6,83.4c-0.1,0.7-0.2,2-0.6,3.9c-0.3,1.6-0.4,2.9-0.4,3.8c0,0.9,0,2.2,0.1,3.9c0.1,1.8,0.1,3.1,0.1,3.9
		c0,1.8-0.2,3.2-0.5,4c-0.4,1.1-1.2,2-2.3,2.7c-1.1,0.7-2.3,1-3.5,1c-1.3,0-2.9-0.4-4.8-1c-2.3-0.8-3.4-1.7-3.4-2.7
		c0-1.3,0.6-1.9,1.8-1.9c0.6,0,0.9,0.2,1.1,0.5c0.4,0.6,0.6,0.9,0.8,1c0.1,0.1,0.6,0.3,1.4,0.4s1.4,0.2,1.7,0.2
		c2.6,0,3.9-1.6,3.9-4.9c0-1,0-1.8-0.1-2.4c-1.3,1.1-2.8,1.6-4.5,1.6c-0.7,0-1.5-0.2-2.5-0.6c-0.9-0.4-1.6-0.9-2.1-1.4
		c-0.9-1.1-1.4-2.6-1.4-4.7c0-2.5,0.6-5.2,1.7-8.2c1.4-3.6,3.1-5.5,5.1-5.5c1.2,0,2.4,0.6,3.5,1.7c0.8,1.1,1.6,2.1,2.5,3.2
		c0.2,0.3,0.6,0.6,1.1,0.8C292,83,292.4,83.2,292.6,83.4z M288.1,86c0-0.4-0.2-0.8-0.6-1.1c-0.2-2.7-1.1-4-2.8-4
		c-1,0-1.8,1.4-2.4,4.1c-0.5,2.1-0.7,3.9-0.7,5.4c0,2.9,0.7,4.3,2.2,4.3c1.4,0,2.5-1.1,3.3-3.4C287.8,89.4,288.1,87.7,288.1,86z"/>
	<path class="st3" d="M310.3,79.6c-0.3,1.5-0.5,2.9-0.7,4.3c-0.3,1.7-0.4,3.1-0.4,4.3v11.9c0,2.2-0.6,3.8-1.9,4.9
		c-1.2,1.1-2.9,1.7-5.1,1.7c-1.4,0-2.9-0.4-4.6-1.1c-2-0.8-3-1.9-3-3.1c0-0.4,0.2-0.8,0.5-1c0.3-0.3,0.7-0.4,1.1-0.4
		c0.3,0,0.9,0.4,1.9,1.2c1,0.8,2.1,1.2,3.4,1.2c1.6,0,2.7-0.6,3.3-1.8c0.4-0.8,0.6-2.1,0.6-3.9c0-0.7,0-1.2,0-1.7c-1,0.6-2,1-3.2,1
		c-2.2,0-3.9-0.8-5.1-2.4c-1.1-1.4-1.6-3.3-1.6-5.5c0-0.2,0.1-3.9,0.4-11c0.9-0.4,1.6-0.6,2.1-0.6c0.6,0,1.4,0.4,2.6,1.1
		c-0.7,1.8-1,5.2-1,10.5c0,3.4,0.8,5,2.5,5c1.3,0,2.2-1.1,2.9-3.2c0.5-1.5,0.7-3.1,0.7-4.7V81c0,0,0-0.5-0.1-1.4
		c1.2-0.6,2.1-0.9,2.7-0.9C308.7,78.7,309.4,79,310.3,79.6z"/>
</g>
</svg>
