<?xml version="1.0" encoding="utf-8"?>
<!-- Generator: Adobe Illustrator 22.1.0, SVG Export Plug-In . SVG Version: 6.00 Build 0)  -->
<svg version="1.1" id="Layer_1" onload="init(evt)" xmlns="http://www.w3.org/2000/svg" xmlns:xlink="http://www.w3.org/1999/xlink"
	 x="0px" y="0px" viewBox="0 0 628.4 464.2" style="enable-background:new 0 0 628.4 464.2;" xml:space="preserve">
<style type="text/css">
	.st0{fill:#FFFFFF;}
	.st1{opacity:0.1;enable-background:new    ;}
	.st2{fill:url(#Path_3852_1_);}
	.st3{opacity:0.313;fill:#FFFFFF;enable-background:new    ;}
	.st4{opacity:0.345;fill:#FFFFFF;enable-background:new    ;}
	.st5{fill:#FFE400;}
	.st6{fill:#E6CD00;}
	.st7{fill:#FFF38C;}
	.st8{fill:#9AB600;}
	.st9{fill:#E6E6E6;}
	.st10{fill:#80D4F2;}
	.st11{fill:#47C1ED;}
	.st12{fill:#753229;}
	.st13{fill:#5E2821;}
	.st14{fill:#DEDEC8;}
	.st15{fill:#A44539;}
	.st16{fill:#008ABA;}
	.st17{fill:#00ACE9;}
	.st18{fill:#ABAB8E;}
	.st19{fill:#9E673E;}
	.st20{fill:#BD7D4E;}
	.st21{fill:#ACC23A;}
	.st22{fill:#0097CC;}
	.st23{fill:#95B000;}
	.st24{fill:#849C00;}
	.st25{fill:#009FD6;}
	.st26{opacity:0.493;fill:#007EAB;enable-background:new    ;}
	.st27{fill:#44BEE9;}
	.st28{fill:#E6E6E6;}
	.st29{fill:#FDFFFE;}
	.st30{fill:none;stroke:#F0E08A;stroke-width:2;stroke-linecap:round;stroke-miterlimit:10;}
	.st31{fill:#FCC880;}
	.st32{fill:#26527B;}
	.st33{fill:none;stroke:#FCC880;stroke-linecap:round;stroke-miterlimit:10;}
	.st34{fill:#018C95;}
	.st35{fill:#333333;}
	.st36{fill:#F0E08A;}
	.st37{fill:#754C24;}
	.st38{fill:#42210B;}
	.st39{fill:#603813;}
	.st40{fill:#F29232;}
	.st41{fill:#F7931E;}
	.st42{fill:#CC7B2A;}
	.st43{opacity:0.2;fill:#302E2C;enable-background:new    ;}
	.st44{fill:#5A96AB;}
	.st45{fill:none;stroke:#C1C1C1;stroke-width:6;stroke-miterlimit:10;}
	.st46{fill:none;stroke:#A36B45;stroke-width:6;stroke-miterlimit:10;}
	.st47{fill:#C9C9B5;}
</style>
<defs>
	
	<script  type="text/ecmascript">
		<![CDATA[
  	var svgNS = "http://www.w3.org/2000/svg";
  	
	function init(evt) {
		if ( window.svgDocument == null ) {
			svgDocument = evt.target.ownerDocument;
		}
		addRotateTransform("mill_x5F_3", 10, 1);

		addRotateTransform("mill_x5F_1", 10, 1);

		addRotateTransform("mill_x5F_2_1_", 10, 1);

		addRotateTransform("water", 20, -1);
	}

	function addRotateTransform(target_id, speed, direction) {
		var element_to_rotate = svgDocument.getElementById(target_id);
		var my_transform = svgDocument.createElementNS(svgNS, "animateTransform");

		var bb = element_to_rotate.getBBox();
		var cx = bb.x + bb.width/2;
		var cy = bb.y + bb.height/2;

		my_transform.setAttributeNS(null, "attributeName", "transform");
		my_transform.setAttributeNS(null, "attributeType", "XML");
		my_transform.setAttributeNS(null, "type", "rotate");
		my_transform.setAttributeNS(null, "dur", speed + "s");
		my_transform.setAttributeNS(null, "repeatCount", "indefinite");
		my_transform.setAttributeNS(null, "from", "0 "+cx+" "+cy);
		my_transform.setAttributeNS(null, "to", 360*direction+" "+cx+" "+cy);

		element_to_rotate.appendChild(my_transform);
		my_transform.beginElement();
	}
  
		
		
		
			]]>
	</script>
</defs>
<g id="Group_3091">
	<path id="Path_5460" class="st0" d="M579.3,363.1c20.4-33.5,31.1-71.9,31.1-111.1c0-118.2-95.8-214-214-214s-214,95.8-214,214
		c0,39.2,10.7,77.6,31.1,111.1H579.3z"/>
	<path id="Path_5461" class="st1" d="M605.2,359c-0.6-10.5-8-19.3-18.2-21.7c16.7-44.4,17.6-93.2,2.4-138.1c0.6-0.6,1.8-1.9,1.8-1.9
		l-5-6.8c0,0-7.4-17.1-11.9-25.2h9.5c5.7,0,10.4-4.7,10.4-10.4l0,0c0-5.7-4.7-10.4-10.4-10.4h-8.2v-2.9c0-5.6-4.5-10.2-10.1-10.2
		c-2.5,0-4.9,0.9-6.7,2.5c-0.1-7.8-6.5-14.1-14.3-14.2l0,0c-1.4,0-2.8,0.2-4.2,0.6c-58.4-58.1-146-75.4-222.1-43.8
		c-0.1,0-0.2,0.1-0.3,0.1c-1.3,0.5-2.6,1.1-3.9,1.7c-0.2,0.1-0.4,0.2-0.6,0.2c-1.2,0.6-2.5,1.1-3.7,1.7c-0.2,0.1-0.5,0.2-0.7,0.3
		c-0.8,0.4-1.5,0.7-2.2,1.1l0,0c-0.4,0.2-0.8,0.4-1.3,0.6c-0.3,0.1-0.5,0.2-0.8,0.4c-1.1,0.6-2.3,1.2-3.4,1.8
		c-0.3,0.2-0.6,0.3-0.9,0.5c-1.1,0.6-2.1,1.2-3.2,1.8c-0.1,0.1-0.2,0.1-0.3,0.2c-0.2,0.1-0.5,0.3-0.7,0.4c-1.1,0.6-2.1,1.2-3.2,1.9
		l-0.9,0.6c-0.1,0-0.1,0-0.1,0.1c-1.6-6.5-4.4-12.7-8.5-18c-0.6-0.8-1.2-1.5-1.8-2.2c-0.8-0.9-1.6-1.8-2.4-2.6
		c-0.8-0.8-1.7-1.6-2.6-2.4c-0.7-0.6-1.5-1.2-2.2-1.8c-8.3-6.4-18.5-9.8-29-9.8h-1.9c-0.4,0-0.8,0-1.2,0.1l0,0
		c-24,1.5-43.1,20.6-44.6,44.6l0,0c0,0.4,0,0.8-0.1,1.2v1.9c0,12.7,5,24.9,14,33.9c0.5,0.5,1.1,1.1,1.7,1.6c1.7,1.5,3.5,3,5.4,4.3
		c0.6,0.4,1.3,0.8,1.9,1.2c1.3,0.8,2.7,1.5,4.1,2.2c1.9,0.9,4,1.7,6,2.4c-2.5,3.5-4.9,7.1-7.2,10.7c-0.1,0.1-0.2,0.2-0.2,0.4l-1.8,3
		l0,0c-2.9,4.9-5.6,9.9-8.1,15l0,0c-2.7,5.5-5.1,11.2-7.3,16.9c-4.1,2.3-6.7,6.6-6.8,11.3c-1.7-1.5-3.8-2.3-6-2.3l0,0
		c-5.1,0-9.2,4.1-9.2,9.2c0,0,0,0,0,0v3.8h-3.4c-5.7,0-10.4,4.7-10.4,10.4c0,5.7,4.7,10.4,10.4,10.4h14.3
		c-4.9,34.4-1.1,69.5,11.1,102c-10.2,2.5-17.5,11.3-18.2,21.7v2.5c0.1,2,0.5,3.9,1,5.8c0.5,1.5,1.1,2.9,1.8,4.3
		c1.3,2.3,2.9,4.5,4.9,6.3c0.3,0.3,0.6,0.5,0.9,0.7c1.2,1,2.5,1.8,3.8,2.6c3.5,1.9,7.4,2.9,11.3,2.9h12.9c-5.8,0.6-10.6,5-11.7,10.7
		v0.3c-0.1,0.3-0.1,0.7-0.1,1c0,0.4-0.1,0.9-0.1,1.3c0,1.6,0.3,3.2,0.9,4.7c0.1,0.3,0.3,0.7,0.4,1c0.2,0.3,0.4,0.7,0.6,1
		c0.6,0.9,1.2,1.8,2,2.6l0.1,0.1c2.5,2.5,5.9,3.9,9.4,3.9h30.4c-5.2,0-9.9,3-12.1,7.8l0,0c-0.2,0.4-0.4,0.8-0.5,1.3l0,0
		c-0.1,0.4-0.3,0.8-0.4,1.3v0.1c-0.1,0.4-0.1,0.8-0.2,1.2v0.2c-0.1,0.5-0.1,0.9-0.1,1.4c0,4.4,2.2,8.6,5.9,11
		c0.7,0.5,1.5,0.9,2.3,1.2c0.4,0.2,0.8,0.3,1.2,0.4c1.3,0.4,2.6,0.6,3.9,0.6h28.1c-5.5,0-10.5,3.4-12.4,8.6l0,0
		c-0.1,0.4-0.3,0.7-0.4,1.1v0.1c-0.1,0.4-0.2,0.7-0.3,1.1c0,0.1,0,0.2-0.1,0.3c0,0.3-0.1,0.6-0.1,0.9c0,0.4-0.1,0.8-0.1,1.3l0,0
		c0,1.6,0.3,3.2,0.9,4.7c0.1,0.3,0.3,0.7,0.4,1c0.2,0.3,0.4,0.7,0.6,1c0.6,0.9,1.2,1.8,2,2.6l0.1,0.1c2.5,2.5,5.9,3.9,9.4,3.9h175.3
		l46.2,0.3c7.3,0,13.3-6,13.3-13.3l0,0c0-0.4,0-0.9-0.1-1.3c0-0.3-0.1-0.6-0.1-0.9c0-0.1,0-0.2-0.1-0.3c-0.1-0.4-0.2-0.7-0.3-1.1
		v-0.1c-0.1-0.4-0.2-0.8-0.4-1.1l0,0c-2-5.1-6.9-8.6-12.4-8.6l26.8-0.3c2.2,0,4.4-0.6,6.3-1.6c0.8-0.4,1.5-0.9,2.1-1.4
		c0.7-0.5,1.3-1.1,1.8-1.8c1.4-1.7,2.4-3.7,2.8-5.8c0.2-0.9,0.3-1.8,0.3-2.7c0-0.5,0-0.9-0.1-1.4v-0.2c-0.1-0.4-0.1-0.8-0.2-1.2
		v-0.1c-0.1-0.4-0.2-0.9-0.4-1.3l0,0c-0.1-0.4-0.3-0.9-0.5-1.3l0,0c-2.2-4.8-6.9-7.8-12.1-7.8l37.2,0c7.3,0,13.3-6,13.3-13.3
		c0-0.4,0-0.9-0.1-1.3c0-0.3-0.1-0.6-0.1-1v-0.3c-0.2-1.7-0.5-3.4-1-5.1c-2-4.8-6.1-8.8-11.1-9.4h11.5c4,0,7.8-1,11.3-2.9
		c1.3-0.7,2.6-1.6,3.8-2.6c0.3-0.2,0.6-0.5,0.9-0.7c2-1.8,3.6-3.9,4.9-6.3c0.7-1.4,1.3-2.8,1.8-4.3c0.6-1.9,0.3,0,0.4-2V359H605.2z"
		/>
	<g id="Group_3065" transform="translate(1322 54.035)">
		
			<linearGradient id="Path_3852_1_" gradientUnits="userSpaceOnUse" x1="-1381.3529" y1="377.8452" x2="-1381.3529" y2="377.0451" gradientTransform="matrix(407.9 0 0 -399.3 562528.1875 150948.2188)">
			<stop  offset="0" style="stop-color:#4DEAFF"/>
			<stop  offset="1" style="stop-color:#2699FB"/>
		</linearGradient>
		<path id="Path_3852" class="st2" d="M-866.7,394c29.4-8.9,68-53.8,68-53.8s44.3-17,64-59.4c11.2-24,13-60.4,13-82.2
			C-721.7,86.1-813-5.2-925.6-5.2s-204,91.4-204,204c0,92.1,61.1,170,145,195.3h117.9V394z"/>
		
        <g>
            <animate attributeName="opacity"
             values="0;1;0" dur="1.9s"
             repeatCount="indefinite"/>
        <path id="Path_3853" class="st3" d="M-1108.9,109.4c10,4.2,20.7,6.4,31.5,6.4c45.1,0,81.7-36.6,81.7-81.8c0-8.6-1.4-17.1-4-25.2
			C-1047.4,27.4-1086.4,63.3-1108.9,109.4z"/>
            
        </g>
		
        <g>
            <animate attributeName="opacity"
             values="0;1;0" dur="1.5s"
             repeatCount="indefinite"/>
        <path id="Path_3854" class="st4" d="M-1100.8,94.3c33.3,12.9,70.8-3.5,83.7-36.8c2.9-7.5,4.4-15.5,4.4-23.5
			c0-6.2-0.9-12.4-2.7-18.4C-1050.9,33-1080.5,60.4-1100.8,94.3z"/>
        </g>
    
    </g>
	<g id="Group_3064" transform="translate(1322 54.035) rotate(45 50 50)">
		<circle id="Ellipse_1020" class="st5" cx="-758.2" cy="835.9" r="47.9"/>
		<path id="Path_3893" class="st6" d="M-758.2,788c-1,0-2.1,0-3.1,0.1c23,1.6,40.4,21.6,38.8,44.6s-21.6,40.4-44.6,38.8
			c-20.8-1.4-37.4-18-38.8-38.8c-0.1,1-0.1,2.1-0.1,3.1c-0.1,26.5,21.3,47.9,47.8,48c26.5,0.1,47.9-21.3,48-47.8
			c0.1-26.5-21.3-47.9-47.8-48C-758.1,788-758.1,788-758.2,788z"/>
		<circle id="Ellipse_1021" class="st7" cx="-769.6" cy="824.5" r="18.6"/>
	</g>
	<path id="Path_5462" class="st8" d="M482.6,344.2h-24.4c-3.5,0-6.3-2.8-6.3-6.3l0,0c0-3.5,2.8-6.3,6.3-6.3h24.4
		c3.5,0,6.3,2.8,6.3,6.3l0,0C488.9,341.4,486.1,344.2,482.6,344.2z"/>
	<path id="Path_3895" class="st0" d="M470.4,192.9c-3.6,0-6.6,45.9-6.6,102.4c0,15.1,0.2,29.4,0.6,42.3c2,0.1,4,0.2,6,0.2
		s4-0.1,6-0.2c0.4-12.9,0.6-27.2,0.6-42.3C477,238.8,474,192.9,470.4,192.9z"/>
	<path id="Path_3896" class="st9" d="M470.4,192.9c-0.9,0-1.7,2.5-2.4,7.1c2.4,15,4.2,52,4.2,95.3c0,15.1-0.2,29.4-0.6,42.3
		c-1.2,0.1-2.4,0.1-3.6,0.2h2.4c2,0,4-0.1,6-0.2c0.4-12.9,0.6-27.2,0.6-42.3C477,238.8,474,192.9,470.4,192.9z"/>
	<path id="Path_3897" class="st10" d="M470.4,217L470.4,217c-4.2,0-7.7-3.5-7.7-7.7V201c0-4.2,3.5-7.7,7.7-7.7l0,0
		c4.2,0,7.7,3.5,7.7,7.7v8.3C478.1,213.6,474.7,217,470.4,217L470.4,217z"/>
	<path id="Path_3898" class="st11" d="M470.4,193.3c-4.2,0-7.7,3.5-7.7,7.7v5c2.2,1.6,4.9,2.5,7.7,2.5c2.8,0,5.4-0.9,7.7-2.5v-5
		C478.1,196.8,474.6,193.4,470.4,193.3z"/>
	<path id="Path_5463" class="st8" d="M339,345.3H214.7c-3.5,0-6.3-2.8-6.3-6.2c0,0,0,0,0-0.1l0,0c0-3.5,2.8-6.3,6.2-6.3
		c0,0,0,0,0.1,0H339c3.5,0,6.3,2.8,6.3,6.2c0,0,0,0,0,0.1l0,0C345.3,342.5,342.5,345.3,339,345.3z"/>
	<g id="Group_3069" transform="translate(1322 54.035)">
		<path id="Path_3904" class="st12" d="M-979.2,217.6l-4,2.3h-9.3l-13.4-39.1l2.7-4.5L-979.2,217.6z"/>
		<path id="Path_3905" class="st13" d="M-983.2,219.9l-3.1-7.7l-3.5,7.7H-983.2z"/>
		<rect id="Rectangle_2457" x="-1020.3" y="212.1" class="st14" width="34" height="72.2"/>
		<path id="Path_3906" class="st14" d="M-986.3,212.2l-16.9-30.6l-17,30.6H-986.3z"/>
		<rect id="Rectangle_2458" x="-1099.2" y="205.4" class="st0" width="79" height="79"/>
		<path id="Path_3907" class="st14" d="M-1070.5,243.6h-17.5c-2.5,0-4.6,2-4.6,4.6c0,0,0,0,0,0v36.1h26.8v-36.1
			C-1065.9,245.7-1067.9,243.6-1070.5,243.6z"/>
		<path id="Path_3908" class="st12" d="M-1001.1,180.8l-2.1-4.5l-103.3,40.9l2.2,4.5h79L-1001.1,180.8z"/>
		<path id="Path_3909" class="st15" d="M-1003.2,176.3h-79l-24.3,40.9h79L-1003.2,176.3z"/>
		<g id="Group_2703">
			<path id="Path_3910" class="st14" d="M-1045.2,173.8l-1.5-2.2l-44.1,25l1.5,2.3h28.9L-1045.2,173.8z"/>
			<path id="Path_3911" class="st0" d="M-1046.7,171.6h-28.9l-15.2,25h28.9L-1046.7,171.6z"/>
			<path id="Path_3912" class="st16" d="M-1068.4,173.8h-6l-5.6,9.4h6L-1068.4,173.8z"/>
			<path id="Path_3913" class="st16" d="M-1060.1,173.8h-6l-5.6,9.4h6L-1060.1,173.8z"/>
			<path id="Path_3914" class="st16" d="M-1051.8,173.8h-6l-5.5,9.4h5.9L-1051.8,173.8z"/>
			<path id="Path_3915" class="st16" d="M-1074.8,184.5h-6l-5.6,9.3h6L-1074.8,184.5z"/>
			<path id="Path_3916" class="st16" d="M-1066.5,184.5h-6l-5.6,9.3h6L-1066.5,184.5z"/>
			<path id="Path_3917" class="st16" d="M-1058.2,184.5h-6l-5.6,9.3h6L-1058.2,184.5z"/>
		</g>
		<g id="Group_2704">
			<path id="Path_3918" class="st14" d="M-1008.1,173.8l-1.5-2.2l-44.1,25l1.5,2.3h28.9L-1008.1,173.8z"/>
			<path id="Path_3919" class="st0" d="M-1009.6,171.6h-28.9l-15.2,25h28.9L-1009.6,171.6z"/>
			<path id="Path_3920" class="st16" d="M-1031.3,173.8h-6l-5.6,9.4h6L-1031.3,173.8z"/>
			<path id="Path_3921" class="st16" d="M-1023,173.8h-6l-5.6,9.4h6L-1023,173.8z"/>
			<path id="Path_3922" class="st16" d="M-1014.7,173.8h-6l-5.6,9.4h6L-1014.7,173.8z"/>
			<path id="Path_3923" class="st16" d="M-1037.8,184.5h-5.9l-5.6,9.3h6L-1037.8,184.5z"/>
			<path id="Path_3924" class="st16" d="M-1029.4,184.5h-6l-5.6,9.3h6L-1029.4,184.5z"/>
			<path id="Path_3925" class="st16" d="M-1021.1,184.5h-6l-5.6,9.3h6L-1021.1,184.5z"/>
		</g>
		<rect id="Rectangle_2459" x="-1088.8" y="248.3" class="st15" width="19" height="36.1"/>
		<path id="Path_3926" class="st12" d="M-1072.3,266.3c0,1.1-0.9,2-2,2c-1.1,0-2-0.9-2-2s0.9-2,2-2
			C-1073.2,264.3-1072.3,265.2-1072.3,266.3z"/>
		<g id="Group_2705">
			<path id="Path_3927" class="st14" d="M-1034.3,261h-18.5c-1.7,0-3.2-1.4-3.2-3.1c0,0,0-0.1,0-0.1v-22.6c0-1.7,1.4-3.2,3.1-3.2
				c0,0,0.1,0,0.1,0h18.5c1.7,0,3.2,1.4,3.2,3.1c0,0,0,0.1,0,0.1v22.6C-1031.1,259.5-1032.5,261-1034.3,261
				C-1034.2,261-1034.3,261-1034.3,261z"/>
			<rect id="Rectangle_2460" x="-1052.5" y="235.1" class="st16" width="17.9" height="22.8"/>
			<rect id="Rectangle_2461" x="-1051" y="236.6" class="st17" width="15" height="19.8"/>
			<path id="Path_3928" class="st0" d="M-1043.5,259.9L-1043.5,259.9c-0.9,0-1.7-0.8-1.7-1.7v-23.6c0-0.9,0.8-1.7,1.7-1.7l0,0
				c0.9,0,1.7,0.8,1.7,1.7v23.6C-1041.8,259.1-1042.5,259.9-1043.5,259.9C-1043.5,259.9-1043.5,259.9-1043.5,259.9z"/>
			<path id="Path_3929" class="st0" d="M-1054.4,246.4L-1054.4,246.4c0-0.9,0.8-1.7,1.7-1.7h18.4c0.9,0,1.7,0.8,1.7,1.7l0,0
				c0,0.9-0.8,1.7-1.7,1.7h-18.4c-0.9,0-1.7-0.7-1.7-1.6C-1054.4,246.5-1054.4,246.4-1054.4,246.4z"/>
		</g>
		<g id="Group_2706">
			<path id="Path_3930" class="st18" d="M-996.4,260.5h-12.4c-1.5,0-2.7-1.2-2.7-2.7c0,0,0,0,0,0V235c0-1.5,1.2-2.7,2.7-2.7
				c0,0,0,0,0,0h12.4c1.5,0,2.7,1.2,2.7,2.7c0,0,0,0,0,0v22.8C-993.8,259.3-994.9,260.4-996.4,260.5z"/>
			<rect id="Rectangle_2462" x="-1009" y="235.4" class="st16" width="12.8" height="22"/>
			<rect id="Rectangle_2463" x="-1008" y="236.9" class="st17" width="10.7" height="19.1"/>
			<path id="Path_3931" class="st14" d="M-1002.7,259.5L-1002.7,259.5c-0.6,0-1.2-0.5-1.2-1.1c0,0,0-0.1,0-0.1v-23.7
				c0-0.6,0.5-1.2,1.1-1.2c0,0,0.1,0,0.1,0l0,0c0.6,0,1.2,0.5,1.2,1.1c0,0,0,0.1,0,0.1v23.7C-1001.5,258.9-1002,259.5-1002.7,259.5
				C-1002.6,259.5-1002.7,259.5-1002.7,259.5z"/>
			<path id="Path_3932" class="st14" d="M-1010.4,246.7v-0.5c0-0.8,0.6-1.4,1.3-1.4c0,0,0,0,0.1,0h12.7c0.8,0,1.4,0.6,1.4,1.3
				c0,0,0,0,0,0.1v0.5c0,0.8-0.6,1.4-1.3,1.4c0,0,0,0-0.1,0h-12.7C-1009.8,248.1-1010.4,247.5-1010.4,246.7z"/>
		</g>
	</g>
	<g id="Group_3072" transform="translate(1322 54.035)">
		<path id="Path_3941" class="st11" d="M-775.2,236.9h-48.4c-4.6,0-8.4-3.8-8.4-8.4l0,0c0-4.6,3.8-8.4,8.4-8.4h48.4
			c4.6,0,8.4,3.8,8.4,8.4l0,0C-766.8,233.1-770.5,236.9-775.2,236.9C-775.2,236.9-775.2,236.9-775.2,236.9z"/>
		<path id="Path_3942" class="st11" d="M-813.4,230.5L-813.4,230.5c-4.1,0-7.5-3.4-7.5-7.5v-6.2c0-4.1,3.4-7.5,7.5-7.5l0,0
			c4.1,0,7.5,3.4,7.5,7.5v6.2c0,4.1-3.3,7.5-7.4,7.5C-813.3,230.5-813.3,230.5-813.4,230.5z"/>
		<path id="Path_3943" class="st11" d="M-783.9,230.5L-783.9,230.5c-4.1,0-7.5-3.4-7.5-7.5v-6.2c0-4.1,3.4-7.5,7.5-7.5l0,0
			c4.1,0,7.5,3.4,7.5,7.5v6.2C-776.4,227.1-779.7,230.5-783.9,230.5C-783.9,230.5-783.9,230.5-783.9,230.5z"/>
		<path id="Path_3944" class="st11" d="M-797.9,230.5L-797.9,230.5c-5.8,0-10.5-4.7-10.5-10.5l0,0v-8.7c0-5.8,4.7-10.5,10.5-10.5
			l0,0l0,0c5.8,0,10.5,4.7,10.5,10.5l0,0v8.7C-787.4,225.8-792.1,230.5-797.9,230.5z"/>
	</g>
	<path id="Path_5464" class="st8" d="M436.2,346.3h-78.3c-2.6,0-4.7-2.1-4.7-4.7l0,0v-9c0-2.6,2.1-4.7,4.7-4.7c0,0,0,0,0,0h78.3
		c2.6,0,4.7,2.1,4.7,4.7v0v9C440.9,344.2,438.8,346.3,436.2,346.3L436.2,346.3z"/>
	<g id="Group_3075" transform="translate(1322 54.035)">
		<path id="Path_3954" class="st19" d="M-888.8,290h-72.3c-2.2,0-3.9-1.7-3.9-3.9v-6c0-2.2,1.7-3.9,3.9-3.9h72.4
			c2.2,0,3.9,1.7,3.9,3.9v6C-884.8,288.3-886.6,290-888.8,290C-888.8,290-888.8,290-888.8,290z"/>
		<path id="Path_3955" class="st20" d="M-890.2,288.7h-69.4c-1.9,0-3.4-1.5-3.4-3.3c0,0,0,0,0-0.1V281c0-1.9,1.5-3.4,3.3-3.4
			c0,0,0,0,0.1,0h69.4c1.9,0,3.4,1.5,3.4,3.3c0,0,0,0,0,0.1v4.4C-886.8,287.2-888.3,288.7-890.2,288.7z"/>
		<path id="Path_3956" class="st19" d="M-950.3,290L-950.3,290c-0.7,0-1.3-0.6-1.3-1.3v-11.3c0-0.7,0.6-1.3,1.3-1.3l0,0
			c0.7,0,1.3,0.6,1.3,1.3v11.3C-949,289.4-949.5,290-950.3,290C-950.2,290-950.3,290-950.3,290z"/>
		<path id="Path_3957" class="st19" d="M-933,290L-933,290c-0.7,0-1.3-0.6-1.3-1.3v-11.3c0-0.7,0.6-1.3,1.3-1.3l0,0
			c0.7,0,1.3,0.6,1.3,1.3v11.3C-931.7,289.4-932.2,290-933,290C-932.9,290-933,290-933,290z"/>
		<path id="Path_3958" class="st19" d="M-915.7,290L-915.7,290c-0.7,0-1.3-0.6-1.3-1.3v-11.3c0-0.7,0.6-1.3,1.3-1.3l0,0
			c0.7,0,1.3,0.6,1.3,1.3v11.3C-914.4,289.4-914.9,290-915.7,290C-915.6,290-915.7,290-915.7,290z"/>
		<path id="Path_3959" class="st19" d="M-898.4,290L-898.4,290c-0.7,0-1.3-0.6-1.3-1.3v-11.3c0-0.7,0.6-1.3,1.3-1.3l0,0
			c0.7,0,1.3,0.6,1.3,1.3v11.3C-897.1,289.4-897.6,290-898.4,290C-898.3,290-898.4,290-898.4,290z"/>
	</g>
	<g id="Group_3076" transform="translate(1322 54.035)">
		<g id="Group_2714">
			<path id="Path_3960" class="st0" d="M-956.6,248.3l-3.8-4.4l-3.7,4.4v25.6h7.5V248.3z"/>
			<path id="Path_3961" class="st0" d="M-942.3,248.3l-3.7-4.4l-3.7,4.4v25.6h7.4V248.3z"/>
			<path id="Path_3962" class="st0" d="M-927.9,248.3l-3.7-4.4l-3.8,4.4v25.6h7.5V248.3z"/>
			<path id="Path_3963" class="st0" d="M-913.6,248.3l-3.7-4.4l-3.7,4.4v25.6h7.4V248.3z"/>
			<path id="Path_3964" class="st0" d="M-899.2,248.3l-3.7-4.4l-3.8,4.4v25.6h7.5V248.3z"/>
			<rect id="Rectangle_2464" x="-969.7" y="253.9" class="st0" width="90.8" height="2.5"/>
			<rect id="Rectangle_2465" x="-969.7" y="264.6" class="st0" width="90.8" height="2.5"/>
			<path id="Path_3965" class="st0" d="M-884.8,248.3l-3.8-4.4l-3.7,4.4v25.6h7.5V248.3z"/>
		</g>
		<path id="Path_3966" class="st9" d="M-877.3,253l-1.9-4.4l-1.9,4.4v25.7h3.8V253z"/>
		<path id="Path_3967" class="st0" d="M-877.3,263.3l-1.9-4.4l-1.9,4.4V289h3.8V263.3z"/>
		<path id="Path_3968" class="st9" d="M-968.8,253l-1.9-4.4l-1.8,4.4v25.7h3.7V253z"/>
		<path id="Path_3969" class="st0" d="M-968.8,263.3l-1.9-4.4l-1.8,4.4V289h3.7V263.3z"/>
	</g>
	<g id="Group_3090">
		<path id="Path_3869" class="st21" d="M422,370.6H202.3c-8.2,0-14.8-6.7-14.8-14.8l0,0c0-8.2,6.7-14.8,14.8-14.8H422
			c8.2,0,14.8,6.7,14.8,14.8l0,0C436.7,363.9,430.1,370.6,422,370.6z"/>
		<path id="Path_3870" class="st8" d="M422,359.7H202.3c-6.1,0-11.5-3.7-13.8-9.4c-3,7.7,0.8,16.3,8.5,19.3c1.7,0.7,3.5,1,5.3,1H422
			c8.2,0,14.9-6.8,14.8-15c0-1.8-0.4-3.6-1-5.3C433.5,355.9,428,359.6,422,359.7z"/>
		<path id="Path_3871" class="st17" d="M590.2,370.6H370.6c-8.2,0-14.8-6.7-14.8-14.8l0,0c0-8.2,6.7-14.8,14.8-14.8h219.6
			c8.2,0,14.8,6.7,14.8,14.8l0,0C605,363.9,598.3,370.6,590.2,370.6z"/>
		<rect id="Rectangle_2456" x="425.7" y="348.2" class="st17" width="167.8" height="13.4"/>
		<path id="Path_3875" class="st22" d="M590.2,359.7H370.6c-6.1,0-11.5-3.7-13.8-9.4c-3,7.7,0.8,16.3,8.5,19.3c1.7,0.7,3.5,1,5.3,1
			h219.6c8.2,0,14.9-6.8,14.8-15c0-1.8-0.4-3.6-1-5.3C601.7,355.9,596.3,359.6,590.2,359.7z"/>
		<path id="Path_3876" class="st23" d="M462.9,429.9H267.4c-8.2,0-14.8-6.7-14.8-14.8l0,0c0-8.2,6.7-14.8,14.8-14.8h195.3
			c8.2,0,14.8,6.7,14.8,14.8l0,0c0.1,8.1-6.4,14.7-14.5,14.8C463,429.9,462.9,429.9,462.9,429.9z"/>
		<path id="Path_5471" class="st23" d="M493.9,458.9H298.4c-8.2,0-14.8-6.7-14.8-14.8l0,0c0-8.2,6.7-14.8,14.8-14.8h195.3
			c8.2,0,14.8,6.7,14.8,14.8l0,0c0.1,8.1-6.4,14.7-14.5,14.8C494,458.9,493.9,458.9,493.9,458.9z"/>
		<path id="Path_3877" class="st24" d="M462.9,419.4H267.4c-6.2,0-11.7-3.8-13.8-9.6c-0.7,1.7-1,3.4-1,5.2l0,0
			c0,8.2,6.7,14.8,14.8,14.8h195.3c8.2,0,14.8-6.7,14.8-14.8l0,0c0-1.8-0.3-3.6-1-5.2C474.5,415.6,469,419.4,462.9,419.4z"/>
		<path id="Path_5472" class="st24" d="M493.9,448.4H298.4c-6.2,0-11.7-3.8-13.8-9.6c-0.7,1.7-1,3.4-1,5.2l0,0
			c0,8.2,6.7,14.8,14.8,14.8h195.3c8.2,0,14.8-6.7,14.8-14.8l0,0c0-1.8-0.3-3.6-1-5.2C505.5,444.6,500,448.4,493.9,448.4z"/>
		<path id="Path_3878" class="st17" d="M517.9,429.9H391.2c-8.2,0-14.8-6.7-14.8-14.8l0,0c0-8.2,6.7-14.8,14.8-14.8h126.7
			c8.2,0,14.8,6.7,14.8,14.8l0,0C532.8,423.3,526.1,429.9,517.9,429.9C517.9,429.9,517.9,429.9,517.9,429.9z"/>
		<path id="Path_5473" class="st17" d="M496,458.9H388.9c-6.9,0-12.5-6.7-12.5-14.8l0,0c0-8.1,5.7-14.8,12.5-14.8H496
			c6.9,0,12.5,6.7,12.5,14.8l0,0C508.6,452.3,502.9,458.9,496,458.9z"/>
		<path id="Path_3879" class="st22" d="M517.9,419.4H391.2c-6.2,0-11.7-3.8-13.8-9.6c-0.7,1.7-1,3.4-1,5.2l0,0
			c0,8.2,6.7,14.8,14.8,14.8h126.8c8.2,0,14.8-6.7,14.8-14.8l0,0c0-1.8-0.3-3.6-1-5.2C529.6,415.6,524.1,419.4,517.9,419.4z"/>
		<path id="Path_5476" class="st22" d="M496,448.4H388.9c-5.4,0-9.9-4-11.7-9.6c-0.6,1.7-0.9,3.5-0.8,5.2l0,0
			c0,8.1,5.7,14.8,12.5,14.8H496c6.9,0,12.5-6.7,12.5-14.8l0,0c0-1.8-0.3-3.6-0.8-5.2C505.9,444.4,501.4,448.4,496,448.4z"/>
		<path id="Path_3880" class="st8" d="M381.3,400.2H226.9c-8.2,0-14.8-6.7-14.8-14.8l0,0c0-8.2,6.7-14.8,14.8-14.8h154.4
			c8.2,0,14.8,6.7,14.8,14.8l0,0c0,8.1-6.5,14.8-14.7,14.8C381.4,400.2,381.3,400.2,381.3,400.2z"/>
		<path id="Path_3881" class="st8" d="M381.3,400.2H226.9c-8.2,0-14.8-6.7-14.8-14.8l0,0c0-8.2,6.7-14.8,14.8-14.8h154.4
			c8.2,0,14.8,6.7,14.8,14.8l0,0c0,8.1-6.5,14.8-14.7,14.8C381.4,400.2,381.3,400.2,381.3,400.2z"/>
		<path id="Path_3882" class="st24" d="M381.3,388H226.9c-5.8,0-11.1-3.4-13.5-8.7c-0.9,1.9-1.4,4-1.3,6.1c0,8.2,6.7,14.8,14.8,14.8
			h154.4c8.2,0,14.8-6.7,14.8-14.8c0-2.1-0.4-4.2-1.3-6.1C392.4,384.6,387.1,388,381.3,388z"/>
		<path id="Path_3883" class="st25" d="M562.5,400.2H351.4c-8.2,0-14.8-6.7-14.8-14.8l0,0c0-8.2,6.7-14.8,14.8-14.8h211.3
			c8.2,0,14.8,6.7,14.8,14.8l0,0C577.3,393.6,570.7,400.2,562.5,400.2z"/>
		<path id="Path_3884" class="st26" d="M562.5,388H351.4c-5.8,0-11.1-3.4-13.5-8.7c-0.9,1.9-1.4,4-1.3,6.1c0,8.2,6.7,14.8,14.8,14.8
			h211.3c8.2,0,14.8-6.7,14.8-14.8c0-2.1-0.4-4.2-1.3-6.1C573.7,384.6,568.4,388,562.5,388z"/>
		<path id="Path_3885" class="st27" d="M416.4,350.3h-37.7c-1.2,0-2.2-1-2.2-2.2l0,0c0-1.2,1-2.2,2.2-2.2h37.7c1.2,0,2.2,1,2.2,2.2
			l0,0c0,1.2-0.9,2.2-2.1,2.2C416.5,350.3,416.4,350.3,416.4,350.3z"/>
		<path id="Path_3886" class="st27" d="M437.6,410.8h-37.7c-1.2,0-2.2-1-2.2-2.2l0,0c0-1.2,1-2.2,2.2-2.2h37.7c1.2,0,2.2,1,2.2,2.2
			l0,0C439.8,409.8,438.8,410.8,437.6,410.8z"/>
		<path id="Path_5474" class="st27" d="M428.1,439.8h-31.9c-1.1-0.1-2-1.1-1.9-2.2l0,0c-0.1-1.1,0.8-2.1,1.9-2.2h31.9
			c1.1,0.1,2,1.1,1.9,2.2l0,0C430.1,438.7,429.2,439.7,428.1,439.8z"/>
		<path id="Path_3887" class="st17" d="M401.2,383.9h-37.7c-1.2,0-2.2-1-2.2-2.2l0,0c0-1.2,1-2.2,2.2-2.2h37.7c1.2,0,2.2,1,2.2,2.2
			l0,0C403.4,382.9,402.5,383.9,401.2,383.9z"/>
		<path id="Path_3888" class="st17" d="M534.9,381.5h-26c-1.2,0-2.2-1-2.2-2.2l0,0c0-1.2,1-2.2,2.2-2.2h26c1.2,0,2.2,1,2.2,2.2l0,0
			C537.1,380.5,536.1,381.5,534.9,381.5z"/>
		<path id="Path_3889" class="st27" d="M577.5,351.9h-54.7c-1.2,0-2.2-1-2.2-2.2l0,0c0-1.2,1-2.2,2.2-2.2h54.7c1.2,0,2.2,1,2.2,2.2
			l0,0C579.7,350.9,578.7,351.9,577.5,351.9z"/>
		<path id="Path_3890" class="st27" d="M495.4,354.9h-62.6c-1.2,0-2.2-1-2.2-2.2l0,0c0-1.2,1-2.2,2.2-2.2h62.6c1.2,0,2.2,1,2.2,2.2
			l0,0C497.6,353.9,496.6,354.9,495.4,354.9z"/>
		<path id="Path_3891" class="st27" d="M511.1,413.8h-55.9c-1.2,0-2.2-1-2.2-2.2l0,0c0-1.2,1-2.2,2.2-2.2h55.9c1.2,0,2.2,1,2.2,2.2
			l0,0C513.4,412.8,512.4,413.8,511.1,413.8z"/>
		<path id="Path_5475" class="st27" d="M490.3,442.8h-47.2c-1.1-0.1-2-1.1-1.9-2.2l0,0c-0.1-1.1,0.8-2.1,1.9-2.2h47.2
			c1.1,0.1,2,1.1,1.9,2.2l0,0C492.3,441.7,491.4,442.7,490.3,442.8z"/>
		<path id="Path_3892" class="st17" d="M480.9,378.2h-62.6c-1.2,0-2.2-1-2.2-2.2l0,0c0-1.2,1-2.2,2.2-2.2h62.6c1.2,0,2.2,1,2.2,2.2
			l0,0C483.2,377.2,482.2,378.2,480.9,378.2z"/>
	</g>
	<path id="Path_5462_1_" class="st9" d="M446.9,340.9c-0.7-0.9-1-1.9-1-3l0,0c0-3.5,3.8-6.3,8.4-6.3h32.4c4.6,0,8.3,2.8,8.4,6.3l0,0
		c0,1.1-0.4,2.1-1,3"/>
	<g id="shine_x5F_2">
		<animate attributeName="opacity"
             values="0;1;0" dur="1.8s"
             repeatCount="indefinite"/>
        <g>
			<g>
				<path class="st0" d="M287.2,232.8c-1-0.2-1.7-0.9-1.9-1.9c0-0.1-0.1-0.2-0.2-0.2c-0.1,0-0.2,0.1-0.2,0.2c-0.2,1-0.9,1.7-1.9,1.9
					c-0.1,0-0.2,0.1-0.2,0.2s0.1,0.2,0.2,0.2c1,0.2,1.7,0.9,1.9,1.9c0,0.1,0.1,0.2,0.2,0.2c0.1,0,0.2-0.1,0.2-0.2
					c0.2-1,0.9-1.7,1.9-1.9c0.1,0,0.2-0.1,0.2-0.2C287.4,232.9,287.3,232.8,287.2,232.8z"/>
			</g>
		</g>
		<g>
			<g>
				<path class="st0" d="M286,242.5c-1.2-0.2-2.1-1.2-2.4-2.4c-0.1-0.3-0.3-0.5-0.7-0.5c-0.3,0-0.6,0.2-0.7,0.5
					c-0.2,1.2-1.2,2.1-2.4,2.4c-0.3,0.1-0.5,0.3-0.5,0.7c0,0.3,0.2,0.6,0.5,0.7c1.2,0.2,2.1,1.2,2.4,2.4c0.1,0.3,0.3,0.5,0.7,0.5
					s0.6-0.2,0.7-0.5c0.2-1.2,1.2-2.1,2.4-2.4c0.3-0.1,0.5-0.3,0.5-0.7C286.5,242.9,286.3,242.6,286,242.5z"/>
			</g>
		</g>
		<g>
			<g>
				<path class="st0" d="M302,232.9c-2-0.4-3.5-1.9-3.9-3.9c-0.1-0.4-0.4-0.6-0.8-0.6c-0.4,0-0.7,0.3-0.8,0.6
					c-0.4,2-1.9,3.5-3.9,3.9c-0.4,0.1-0.6,0.4-0.6,0.8c0,0.4,0.3,0.7,0.6,0.8c2,0.4,3.5,1.9,3.9,3.9c0.1,0.4,0.4,0.6,0.8,0.6
					c0.4,0,0.7-0.3,0.8-0.6c0.4-2,1.9-3.5,3.9-3.9c0.4-0.1,0.6-0.4,0.6-0.8S302.4,233,302,232.9z"/>
			</g>
		</g>
	</g>
	<g id="shine_x5F_1">
		
        <animate attributeName="opacity"
             values="0;1;0" dur="1.8s"
             repeatCount="indefinite"/>
        <g>
			<g>
				<path class="st0" d="M254.9,237.7c-0.5,2.2-2.2,4-4.4,4.4c-0.3,0.1-0.5,0.3-0.5,0.6c0,0.3,0.2,0.5,0.5,0.6
					c2.2,0.5,4,2.2,4.4,4.4c0.1,0.3,0.3,0.5,0.6,0.5s0.5-0.2,0.6-0.5c0.5-2.2,2.2-4,4.4-4.4c0.3-0.1,0.5-0.3,0.5-0.6
					c0-0.3-0.2-0.5-0.5-0.6c-2.2-0.5-4-2.2-4.4-4.4c-0.1-0.3-0.3-0.5-0.6-0.5C255.2,237.2,255,237.4,254.9,237.7z"/>
			</g>
		</g>
		<g>
			<g>
				<path class="st0" d="M263.4,231.1c-0.2,0.8-0.7,1.3-1.5,1.5c-0.2,0-0.3,0.2-0.3,0.4c0,0.2,0.1,0.4,0.3,0.4
					c0.8,0.2,1.3,0.7,1.5,1.5c0,0.2,0.2,0.3,0.4,0.3s0.4-0.1,0.4-0.3c0.2-0.8,0.7-1.3,1.5-1.5c0.2,0,0.3-0.2,0.3-0.4
					c0-0.2-0.1-0.4-0.3-0.4c-0.8-0.2-1.3-0.7-1.5-1.5c0-0.2-0.2-0.3-0.4-0.3S263.4,230.9,263.4,231.1z"/>
			</g>
		</g>
		<g>
			<g>
				<path class="st0" d="M248.7,230.3c-0.2,1.1-1.1,2-2.2,2.2c-0.2,0-0.4,0.2-0.4,0.5c0,0.2,0.2,0.4,0.4,0.5c1.1,0.2,2,1.1,2.2,2.2
					c0,0.2,0.2,0.4,0.5,0.4c0.2,0,0.4-0.2,0.5-0.4c0.2-1.1,1.1-2,2.2-2.2c0.2,0,0.4-0.2,0.4-0.5c0-0.2-0.2-0.4-0.4-0.5
					c-1.1-0.2-2-1.1-2.2-2.2c0-0.2-0.2-0.4-0.5-0.4C248.9,230,248.7,230.1,248.7,230.3z"/>
			</g>
		</g>
	</g>
</g>
<path id="Path_3861" class="st28" d="M372,242c2.5,0,4.5,31.3,4.5,69.9c0,10.3-0.1,20.1-0.4,28.9c-1.4,0.1-2.7,0.2-4.1,0.2
	s-2.7-0.1-4.1-0.2c-0.3-8.8-0.4-18.6-0.4-28.9C367.5,273.3,369.5,242,372,242z"/>
<path id="Path_3862" class="st16" d="M372,258.5L372,258.5c2.9,0,5.2-2.3,5.2-5.2v-5.7c0-2.9-2.3-5.2-5.2-5.2l0,0
	c-2.9,0-5.2,2.3-5.2,5.2v5.7C366.8,256.2,369.1,258.5,372,258.5z"/>
<g id="mill_x5F_3">
	<path class="st16" d="M427.8,238.9L427.8,238.9c0,0-3.1,4.8-7.7,5.5l-46.4,11c-4.6,0.7-8.9-2.5-9.6-7.1v0c-0.7-4.6,2.5-8.9,7.1-9.6
		l47.6-2.6C423.4,235.5,427.8,238.9,427.8,238.9z"/>
	<path class="st16" d="M379.8,301.7L379.8,301.7c0,0-4.8-3.1-5.5-7.7l-11-46.4c-0.7-4.6,2.5-8.9,7.1-9.6h0c4.6-0.7,8.9,2.5,9.6,7.1
		l2.6,47.6C383.3,297.4,379.8,301.7,379.8,301.7z"/>
	<path class="st16" d="M316.3,255.4L316.3,255.4c0,0,3.1-4.8,7.7-5.5l46.4-11c4.6-0.7,8.9,2.5,9.6,7.1v0c0.7,4.6-2.5,8.9-7.1,9.6
		l-47.6,2.6C320.6,258.8,316.3,255.4,316.3,255.4z"/>
	<path class="st16" d="M363.7,191.4L363.7,191.4c0,0,4.8,3.1,5.5,7.7l11,46.4c0.7,4.6-2.5,8.9-7.1,9.6l0,0c-4.6,0.7-8.9-2.5-9.6-7.1
		l-2.6-47.6C360.3,195.7,363.7,191.4,363.7,191.4z"/>
	<circle id="Ellipse_1075_2_" class="st0" cx="372" cy="247.2" r="10.1"/>
	<circle id="Ellipse_1076_2_" class="st10" cx="372" cy="247.2" r="5"/>
</g>
<path id="Path_5462_2_" class="st28" d="M356.5,341c-0.4-0.6-0.7-1.3-0.7-2l0,0c0-2.3,2.5-4.1,5.5-4.2h21.4c3,0,5.5,1.9,5.5,4.2l0,0
	c0,0.7-0.3,1.4-0.7,2"/>
<path id="Path_3861_1_" class="st28" d="M570.4,203c3.5,0,6.3,43.6,6.3,97.5c0,14.4-0.1,28-0.6,40.3c-2,0.1-3.8,0.3-5.7,0.3
	c-2,0-3.8-0.1-5.7-0.3c-0.4-12.3-0.6-25.9-0.6-40.3C564.1,246.6,566.9,203,570.4,203z"/>
<path id="Path_3862_1_" class="st16" d="M570.4,226L570.4,226c4,0,7.2-3.3,7.2-7.2v-7.9c0-4-3.3-7.2-7.2-7.2l0,0
	c-4,0-7.2,3.3-7.2,7.2v7.9C563.2,222.8,566.4,226,570.4,226z"/>
<g id="mill_x5F_2_1_">
	<path class="st16" d="M596.3,270.8L596.3,270.8c0,0-6.3-1.9-8.5-6.8l-26.6-47.7c-2.2-4.9,0-10.6,4.8-12.8l0,0
		c4.9-2.2,10.6,0,12.8,4.8l17.7,51.7C598.7,265,596.3,270.8,596.3,270.8z"/>
	<path class="st16" d="M512.2,237.6L512.2,237.6c0,0,1.9-6.3,6.8-8.5l47.7-26.6c4.9-2.2,10.6,0,12.8,4.8l0,0
		c2.2,4.9,0,10.6-4.8,12.8l-51.7,17.7C518,240,512.2,237.6,512.2,237.6z"/>
	<path class="st16" d="M543.4,153.1L543.4,153.1c0,0,6.3,1.9,8.5,6.8l26.6,47.7c2.2,4.9,0,10.6-4.8,12.8v0c-4.9,2.2-10.6,0-12.8-4.8
		l-17.7-51.7C541,159,543.4,153.1,543.4,153.1z"/>
	<path class="st16" d="M628.6,185.4L628.6,185.4c0,0-1.9,6.3-6.8,8.5l-47.7,26.6c-4.9,2.2-10.6,0-12.8-4.8v0
		c-2.2-4.9,0-10.6,4.8-12.8l51.7-17.7C622.8,183,628.6,185.4,628.6,185.4z"/>
	<circle id="Ellipse_1075_3_" class="st0" cx="570.6" cy="212.2" r="11.5"/>
	<circle id="Ellipse_1076_3_" class="st10" cx="570.6" cy="212.2" r="5.7"/>
</g>
<path class="st20" d="M566,341.5h-31c-3.3,0-5.9-2.7-5.9-5.9v-45.1c0-3.3,2.7-5.9,5.9-5.9h31c3.3,0,5.9,2.7,5.9,5.9v45.1
	C571.9,338.8,569.3,341.5,566,341.5z"/>
<g id="Group_3092">
	<g id="Group_3070" transform="translate(1322 54.035)">
		
			<animateMotion  accumulate="none" additive="replace" calcMode="paced" dur="5s" fill="remove" path="M 20 0 H 10 Z" repeatCount="indefinite" restart="always">
			</animateMotion>
		<path id="Path_3933" class="st0" d="M-906.7,61.4h-59.6c-5.7,0-10.4-4.7-10.4-10.4l0,0c0-5.7,4.7-10.4,10.4-10.4h59.6
			c5.7,0,10.4,4.7,10.4,10.4l0,0C-896.3,56.7-901,61.4-906.7,61.4z"/>
		<path id="Path_3934" class="st0" d="M-953.7,53.7L-953.7,53.7c-5.1,0-9.2-4.1-9.2-9.2c0,0,0,0,0,0v-7.7c0-5.1,4.1-9.2,9.2-9.2
			c0,0,0,0,0,0l0,0c5.1,0,9.2,4.1,9.2,9.2c0,0,0,0,0,0v7.7C-944.5,49.6-948.6,53.7-953.7,53.7z"/>
		<path id="Path_3935" class="st0" d="M-917.4,53.7L-917.4,53.7c-5.1,0-9.2-4.1-9.2-9.2c0,0,0,0,0,0v-7.7c0-5.1,4.1-9.2,9.2-9.2
			c0,0,0,0,0,0l0,0c5.1,0,9.2,4.1,9.2,9.2c0,0,0,0,0,0v7.7C-908.2,49.6-912.3,53.7-917.4,53.7z"/>
		<path id="Path_3936" class="st0" d="M-934.7,53.7L-934.7,53.7c-7.2,0-13-5.8-13-13V29.9c0-7.2,5.8-13,13-13l0,0
			c7.2,0,13,5.8,13,13v10.8C-921.8,47.8-927.5,53.6-934.7,53.7z"/>
	</g>
	<g id="Group_3071" transform="translate(1322 54.035)">
        <animateMotion  accumulate="none" additive="replace" calcMode="paced" dur="6s" fill="remove" path="M 5 0 H 0 Z" repeatCount="indefinite" restart="always"></animateMotion>
		
        <path id="Path_3937" class="st0" d="M-1082,169.2h-59.7c-5.7,0-10.4-4.7-10.4-10.4l0,0c0-5.7,4.7-10.4,10.4-10.4h59.6
			c5.7,0,10.4,4.7,10.4,10.4l0,0C-1071.6,164.5-1076.2,169.1-1082,169.2C-1081.9,169.2-1082,169.2-1082,169.2z"/>
		<path id="Path_3938" class="st0" d="M-1129.1,161.4L-1129.1,161.4c-5.1,0-9.2-4.1-9.2-9.2c0,0,0,0,0,0v-7.7c0-5.1,4.1-9.2,9.2-9.2
			c0,0,0,0,0,0l0,0c5.1,0,9.2,4.1,9.2,9.2c0,0,0,0,0,0v7.7C-1119.9,157.3-1124,161.4-1129.1,161.4
			C-1129.1,161.4-1129.1,161.4-1129.1,161.4z"/>
		<path id="Path_3939" class="st0" d="M-1092.8,161.4L-1092.8,161.4c-5.1,0-9.2-4.1-9.2-9.2c0,0,0,0,0,0v-7.7c0-5.1,4.1-9.2,9.2-9.2
			c0,0,0,0,0,0l0,0c5.1,0,9.2,4.1,9.2,9.2c0,0,0,0,0,0v7.7C-1083.6,157.3-1087.7,161.4-1092.8,161.4
			C-1092.8,161.4-1092.8,161.4-1092.8,161.4z"/>
		<path id="Path_3940" class="st0" d="M-1110.1,161.4L-1110.1,161.4c-7.2,0-13-5.8-13-13v-10.8c0-7.2,5.8-13,13-13l0,0
			c7.2,0,13,5.8,13,13v10.8C-1097.1,155.6-1102.9,161.4-1110.1,161.4z"/>
	</g>
	<g id="Group_3073" transform="translate(1322 54.035)">
		
			<animateMotion  accumulate="none" additive="replace" calcMode="paced" dur="6s" fill="remove" path="M 15 0 H 0 Z" repeatCount="indefinite" restart="always">
			</animateMotion>
		<path id="Path_3945" class="st0" d="M-958.2,140.2h-48.4c-4.6,0-8.4-3.8-8.4-8.4l0,0c0-4.6,3.8-8.4,8.4-8.5h48.4
			c4.7,0,8.5,3.8,8.5,8.5l0,0C-949.7,136.5-953.5,140.2-958.2,140.2z"/>
		<path id="Path_3946" class="st0" d="M-996.4,133.9L-996.4,133.9c-4.1,0-7.5-3.4-7.5-7.5v-6.2c0-4.1,3.4-7.5,7.5-7.5l0,0
			c4.1,0,7.5,3.4,7.5,7.5v6.2C-988.9,130.5-992.3,133.9-996.4,133.9z"/>
		<path id="Path_3947" class="st0" d="M-966.9,133.9L-966.9,133.9c-4.1,0-7.5-3.4-7.5-7.5v-6.2c0-4.1,3.4-7.5,7.5-7.5l0,0
			c4.1,0,7.5,3.4,7.5,7.5v6.2C-959.4,130.5-962.8,133.9-966.9,133.9z"/>
		<path id="Path_3948" class="st0" d="M-981,133.9L-981,133.9c-5.8,0-10.5-4.7-10.5-10.5v-8.7c0-5.8,4.7-10.5,10.5-10.5l0,0
			c5.8,0,10.5,4.7,10.5,10.5v8.7c0,5.8-4.6,10.5-10.4,10.5C-980.9,133.9-980.9,133.9-981,133.9z"/>
	</g>
	<g id="Group_3074" transform="translate(1322 54.035)">
		<animateMotion  accumulate="none" additive="replace" calcMode="paced" dur="5s" fill="remove" path="M 5 0 H 10 Z" repeatCount="indefinite" restart="always">
			</animateMotion>
        <path id="Path_3949" class="st0" d="M-808.3,99.2h70.1c5.7,0,10.4-4.7,10.4-10.4l0,0c0-5.7-4.7-10.4-10.4-10.4h-70.1
			c-5.7,0-10.4,4.7-10.4,10.4l0,0C-818.7,94.5-814,99.2-808.3,99.2z"/>
		<path id="Path_3950" class="st0" d="M-756.6,94.1L-756.6,94.1c5.6,0,10.2-4.6,10.2-10.2v-8.4c0-5.6-4.6-10.2-10.2-10.2l0,0
			c-5.6,0-10.2,4.6-10.2,10.2v8.4C-766.7,89.5-762.2,94-756.6,94.1z"/>
		<path id="Path_3951" class="st0" d="M-796.6,94.1L-796.6,94.1c5.6,0,10.2-4.6,10.2-10.2v-8.4c0-5.6-4.6-10.2-10.2-10.2l0,0
			c-5.6,0-10.2,4.6-10.2,10.2v8.4C-806.8,89.5-802.2,94.1-796.6,94.1z"/>
		<path id="Path_3952" class="st0" d="M-777.5,94.1L-777.5,94.1c7.9,0,14.3-6.4,14.3-14.3V67.9c0-7.9-6.4-14.3-14.3-14.3l0,0
			c-7.9,0-14.3,6.4-14.3,14.3v11.9C-791.8,87.7-785.4,94.1-777.5,94.1z"/>
	</g>
	<g transform="matrix(1, 0, 0, 1, 1152.09, 16)">
		<path id="Path_5488-2" class="st29" d="M-1017.3,88.3c-1.5,0-2.9,0.1-4.3,0.3c-3.3-6.3-9.8-10.2-16.9-10c-0.8,0-1.7,0.1-2.5,0.2
			c-1.4-9.1-9.8-15.4-19-14.1c-6.8,1-12.3,6.1-13.9,12.9c-1.4-0.4-2.8-0.6-4.2-0.6c-8.6,0-15.8,6.5-16.6,15.1
			c-8-4.6-18.3-1.7-22.8,6.3s-1.7,18.3,6.3,22.8c3.3,1.9,7.1,2.6,10.8,2c3.3,8.6,12.9,13,21.5,9.7c0.2-0.1,0.5-0.2,0.7-0.3
			c4.4,4.3,11.7,7.1,19.9,7.1c11,0,20.3-5,23.3-11.9c7.4,5.5,17.8,4,23.3-3.3c0.9-1.2,1.6-2.4,2.1-3.7c8.5-2.4,14.6-8.5,14.6-15.7
			C-994.9,95.7-1004.9,88.3-1017.3,88.3z"/>
	</g>
</g>
<g id="Group_3083" transform="translate(955.088 16)">
	<g id="Group_2433">
		<g id="Group_2432">
			
				<animateMotion  accumulate="none" additive="replace" calcMode="paced" dur="7s" fill="remove" path="M 0 0 H 30 Z 30" repeatCount="indefinite" restart="always">
				</animateMotion>
			<g id="Group_2425">
				<path id="Path_2712" class="st30" d="M-905.3,117.5c-1.3,1.3-2.2,3-2.5,4.8"/>
				<path id="Path_2713" class="st30" d="M-900.4,117.5c0,0,2.3,2.6,3.8,4.7"/>
				<path id="Path_2714" class="st31" d="M-901.8,116.8c-0.6-0.4-0.2-1.3-0.2-1.3h-1.6c0.2,0.4,0.1,1-0.2,1.3
					c-0.8,0.5,1.1,0.5,1.1,0.5S-901.1,117.3-901.8,116.8z"/>
				<path id="Path_2715" class="st32" d="M-902.8,123.9l-2.4-0.2v8.8h1.6l0.2-6c0,0-0.1-1,0.6-1c0.8,0,0.6,1,0.6,1l0.3,6h1.6v-8.8
					L-902.8,123.9z"/>
				<path id="Path_2716" class="st33" d="M-902.3,121.8"/>
				<path id="Path_2717" class="st33" d="M-898.6,118.3"/>
				<g id="Group_2422">
					<path id="Path_2718" class="st34" d="M-903.5,132.8v-0.2c0-0.6-0.4-1-1-1c-0.6,0-1,0.4-1,1v0.2H-903.5z"/>
					<path id="Path_2719" class="st35" d="M-905.5,132.8v0.2h2v-0.2H-905.5z"/>
				</g>
				<g id="Group_2423">
					<path id="Path_2720" class="st34" d="M-902.3,132.8v-0.2c0-0.6,0.4-1,1-1s1,0.4,1,1v0.2H-902.3z"/>
					<path id="Path_2721" class="st35" d="M-902.3,132.8v0.2h2v-0.2H-902.3z"/>
				</g>
				<g id="Group_2424">
					<ellipse id="Ellipse_963" class="st31" cx="-904.4" cy="114.1" rx="0.3" ry="0.5"/>
					<ellipse id="Ellipse_964" class="st31" cx="-901.3" cy="114.1" rx="0.3" ry="0.5"/>
				</g>
				<path id="Path_2722" class="st31" d="M-903.8,116h1.8c0.4-0.5,0.6-1.1,0.6-1.8c0-1.1-0.2-2-1.5-2s-1.5,0.9-1.5,2
					C-904.4,114.9-904.2,115.5-903.8,116z"/>
				<path id="Path_2723" class="st36" d="M-900.6,116.6h-1.4c-0.1,0.4-0.5,0.6-0.9,0.6c0,0-0.5,0.1-0.9-0.6h-1.4
					c-0.3,0-0.5,0.3-0.4,0.5c0.2,2.3,0.2,4.6,0.1,6.9h5.4c-0.1-2.3-0.1-4.6,0.1-6.9C-900,116.8-900.3,116.6-900.6,116.6z"/>
				
					<ellipse id="Ellipse_965" transform="matrix(0.1557 -0.9878 0.9878 0.1557 -887.9554 -792.8721)" class="st31" cx="-907.8" cy="123" rx="0.8" ry="0.7"/>
				
					<ellipse id="Ellipse_966" transform="matrix(0.1557 -0.9878 0.9878 0.1557 -878.2482 -781.5171)" class="st31" cx="-896.3" cy="123" rx="0.8" ry="0.7"/>
				<path id="Path_2724" class="st37" d="M-904.5,113.6c-0.1-0.4,0-0.9,0.2-1.3c0.3-0.4,1.7,0.1,2.3-1.8c0,0,0.2,0.8-0.1,1.1
					c0.2,0,0.4-0.1,0.5-0.3c0,0,0.1,0.5-0.2,0.6c0.3,0.1,0.5,0,0.7-0.2c0,0.2-0.1,0.4-0.2,0.6c0,0,0.1,0.3,0.2,0.2l-0.2,0.3
					c0.1,0.2,0.1,0.5,0.1,0.7c0,0-0.2,0-0.1,0.1c-0.1-0.3-0.2-0.5-0.4-0.8c-0.7,0.4-1.6,0.3-2.3-0.2c0,0.3-0.1,0.6-0.4,0.8
					C-904.3,113.7-904.3,113.6-904.5,113.6z"/>
			</g>
			<g id="Group_2431">
				<g id="Group_2426">
					
						<rect id="Rectangle_2399" x="-912.4" y="108.3" transform="matrix(0.9973 -7.395180e-02 7.395180e-02 0.9973 -11.0865 -67.1317)" class="st38" width="0.7" height="15.6"/>
				</g>
				<g id="Group_2427">
					<rect id="Rectangle_2400" x="-903.5" y="107.9" class="st38" width="0.7" height="16"/>
				</g>
				<g id="Group_2428">
					
						<rect id="Rectangle_2401" x="-908.4" y="107.5" transform="matrix(0.9983 -5.864429e-02 5.864429e-02 0.9983 -8.3321 -53.0537)" class="st38" width="0.7" height="15.8"/>
				</g>
				<g id="Group_2429">
					
						<rect id="Rectangle_2402" x="-901.8" y="115.9" transform="matrix(7.401907e-02 -0.9973 0.9973 7.401907e-02 -943.7473 -783.9658)" class="st38" width="15.6" height="0.7"/>
				</g>
				<g id="Group_2430">
					
						<rect id="Rectangle_2403" x="-906" y="115.2" transform="matrix(5.801833e-02 -0.9983 0.9983 5.801833e-02 -961.3443 -787.8271)" class="st38" width="15.8" height="0.7"/>
				</g>
			</g>
			<path id="Path_2725" class="st39" d="M-911.9,124.2v10.9c0,0.5,0.5,1,1,1l1.8,0.2c3.8,0.5,7.6,0.5,11.4,0.1l2.4-0.3
				c0.5,0,1-0.5,1-1v-10.9H-911.9z"/>
			<path id="Path_2726" class="st40" d="M-894.3,129.8v-2.3h-17.6v2.3"/>
			<path id="Path_2727" class="st41" d="M-913,104.7h19.8c0-1.9,41.9-49.6,41.9-74.4c0-28.2-23.2-46.3-51.9-46.3
				s-51.9,18.1-51.9,46.3C-955,55.2-914.3,103.5-913,104.7z"/>
			<path id="Path_2728" class="st42" d="M-910.7,104.7h15c0-1.9,31.8-49.6,31.8-74.4c0-28.3-17.6-46.3-39.3-46.3s-39.2,18-39.2,46.3
				C-942.4,55.2-911.6,103.5-910.7,104.7z"/>
			<path id="Path_2729" class="st40" d="M-908,104.7h9.7c0-1.9,20.5-49.6,20.5-74.4c0-28.2-11.4-46.3-25.4-46.3
				s-25.3,18.1-25.3,46.3C-928.5,55.2-908.6,103.5-908,104.7z"/>
			<path id="Path_2730" class="st42" d="M-905.2,104.7h4.1c0-1.9,8.6-49.6,8.6-74.4c0-28.3-4.8-46.3-10.6-46.3s-10.6,18.1-10.6,46.3
				C-913.8,55.2-905.4,103.5-905.2,104.7z"/>
			<path id="Path_2731" class="st42" d="M-868.1-4.8C-877.3-12-889.6-16-903.2-16c-13.6,0-25.7,4-35.1,11.2c0,0-0.6,4.5,34.7,4.5
				C-868.3-0.3-868.1-4.8-868.1-4.8z"/>
			<path id="Path_2732" class="st42" d="M-920.2,96.1c4,5.1,6.8,8.3,7,8.6h19.9c0-0.5,2.5-3.7,6.3-8.6c0,0-2.3,1.9-16.3,1.9
				C-917.1,98-920.2,96.1-920.2,96.1z"/>
			<rect id="Rectangle_2404" x="-913" y="104.7" class="st42" width="19.8" height="4.2"/>
			<path id="Path_2733" class="st38" d="M-893.3,123.9c0,0.4-0.3,0.8-0.8,0.8c0,0,0,0,0,0h-18.1c-0.4,0-0.8-0.3-0.8-0.8c0,0,0,0,0,0
				l0,0c0-0.4,0.3-0.8,0.8-0.8c0,0,0,0,0,0h18.1C-893.7,123-893.3,123.4-893.3,123.9z"/>
			<path id="Path_2734" class="st43" d="M-913,104.7h19.8c0-1.9,41.9-49.6,41.9-74.4c0-18.8-23.2-30.1-33.2,2.6
				c-2.5,8.2-2.1,16.7-5.5,28C-893.7,73.5-902.5,88.5-913,104.7z"/>
		</g>
	</g>
</g>
<g id="mill_x5F_1">
	<path class="st44" d="M524.9,259.5L524.9,259.5c0,0-7.8,0.5-12.3-4l-49.7-41.8c-4.5-4.5-4.5-11.8,0-16.2v0c4.5-4.5,11.8-4.5,16.2,0
		l41.5,50C525.1,251.9,524.9,259.5,524.9,259.5z"/>
	<path class="st44" d="M417.3,258L417.3,258c0,0-0.5-7.8,4-12.3l41.8-49.7c4.5-4.5,11.8-4.5,16.2,0v0c4.5,4.5,4.5,11.8,0,16.2
		l-50,41.5C424.8,258.3,417.3,258,417.3,258z"/>
	<path class="st44" d="M416.4,150.8L416.4,150.8c0,0,7.8-0.5,12.3,4l49.7,41.8c4.5,4.5,4.5,11.8,0,16.2v0c-4.5,4.5-11.8,4.5-16.2,0
		l-41.5-50C416.2,158.3,416.4,150.8,416.4,150.8z"/>
	<path class="st44" d="M524.9,150.8L524.9,150.8c0,0,0.5,7.8-4,12.3l-41.8,49.7c-4.5,4.5-11.8,4.5-16.2,0v0
		c-4.5-4.5-4.5-11.8,0-16.2l50-41.5C517.4,150.6,524.9,150.8,524.9,150.8z"/>
	<circle id="Ellipse_1075_1_" class="st0" cx="470.7" cy="205.1" r="13.7"/>
	<circle id="Ellipse_1076_1_" class="st10" cx="470.7" cy="205.1" r="6.8"/>
</g>
<g id="water">
	<circle class="st45" cx="551.3" cy="305" r="40.6"/>
	<circle class="st46" cx="551.3" cy="305" r="36.5"/>
	<path class="st14" d="M551.3,354.9L551.3,354.9c-2.7,0-5-2.2-5-5v-90.1c0-2.7,2.2-5,5-5l0,0c2.7,0,5,2.2,5,5v90.1
		C556.3,352.6,554,354.9,551.3,354.9z"/>
	<path class="st14" d="M600.1,304.8L600.1,304.8c0,2.7-2.2,5-5,5h-90.1c-2.7,0-5-2.2-5-5l0,0c0-2.7,2.2-5,5-5h90.1
		C597.9,299.9,600.1,302.1,600.1,304.8z"/>
	<path class="st14" d="M586.8,269.6L586.8,269.6c1.9,1.9,1.9,5.1,0,7l-63.7,63.7c-1.9,1.9-5.1,1.9-7,0h0c-1.9-1.9-1.9-5.1,0-7
		l63.7-63.7C581.7,267.7,584.9,267.7,586.8,269.6z"/>
	<path class="st14" d="M516.1,269.6L516.1,269.6c1.9-1.9,5.1-1.9,7,0l63.7,63.7c1.9,1.9,1.9,5.1,0,7l0,0c-1.9,1.9-5.1,1.9-7,0
		l-63.7-63.7C514.1,274.7,514.1,271.6,516.1,269.6z"/>
	<circle class="st47" cx="551.3" cy="305" r="11.3"/>
	<circle class="st19" cx="551.3" cy="305" r="8.3"/>
</g>
</svg>
