<svg xmlns="http://www.w3.org/2000/svg" viewBox="0 0 14 13.996">
  <defs>
    <style>
      .cls-1 {
        fill: #b5b5b5;
      }
    </style>
  </defs>
  <g id="key" transform="translate(0 -0.067)">
    <g id="Group_3890" data-name="Group 3890" transform="translate(9.078 3.02)">
      <g id="Group_3889" data-name="Group 3889">
        <circle id="Ellipse_1195" data-name="Ellipse 1195" class="cls-1" cx="0.875" cy="0.875" r="0.875"/>
      </g>
    </g>
    <g id="Group_3892" data-name="Group 3892" transform="translate(0 0.067)">
      <g id="Group_3891" data-name="Group 3891" transform="translate(0 0)">
        <path id="Path_8046" data-name="Path 8046" class="cls-1" d="M13.849,4.6A7.978,7.978,0,0,0,12.129,1.9,7.794,7.794,0,0,0,9.444.211,2.2,2.2,0,0,0,7.111.706L4.964,2.843a2.188,2.188,0,0,0-.457,2.426c.113.254.235.5.366.741L.16,10.723A.547.547,0,0,0,0,11.11v2.406a.547.547,0,0,0,.547.547H2.953a.547.547,0,0,0,.547-.547v-.984h.984a.547.547,0,0,0,.547-.547V11h.984a.547.547,0,1,0,0-1.094H4.484a.547.547,0,0,0-.547.547v.984H2.953a.547.547,0,0,0-.547.547v.984H1.094V11.337l4.85-4.85a.547.547,0,0,0,.081-.67,8.85,8.85,0,0,1-.517-.992,1.088,1.088,0,0,1,.229-1.206L7.883,1.481a1.1,1.1,0,0,1,1.17-.248,6.7,6.7,0,0,1,2.3,1.44A6.881,6.881,0,0,1,12.831,5a1.086,1.086,0,0,1-.245,1.167L10.412,8.333a1.1,1.1,0,0,1-1.2.235,7.1,7.1,0,0,1-.984-.5A.547.547,0,0,0,7.652,9a8.2,8.2,0,0,0,1.136.58,2.192,2.192,0,0,0,2.4-.469l2.173-2.163A2.179,2.179,0,0,0,13.849,4.6Z" transform="translate(0 -0.067)"/>
      </g>
    </g>
  </g>
</svg>
