<svg xmlns="http://www.w3.org/2000/svg" xmlns:xlink="http://www.w3.org/1999/xlink" width="70" height="88" viewBox="0 0 70 88"><defs><path id="pl8la" d="M824.684 119.465l4.612 3.445 3.282-4.31a81.221 81.221 0 0 1-4.237-3.94zm51.988-19.613zm5.429.644l.726-5.71-6.022-.709a82.949 82.949 0 0 1-.133 5.775zm-8.806-20.789c.469.843 1.007 1.62 1.393 2.527.381.898.572 1.84.84 2.762l5.62-2.385-2.244-5.285zm-51.986 25.185c-.385-.908-.57-1.835-.85-2.757l-5.61 2.38 2.244 5.285 5.62-2.385c-.477-.833-1.022-1.625-1.404-2.523zm33.917-45.245l-5.74-.682-.75 5.916c1.943.04 3.86.28 5.734.697zm16.087 8.014l-4.614-3.45-3.639 4.791c1.65.987 3.2 2.12 4.629 3.425zm-44.454 6.506l-4.776-3.57-3.508 4.608 4.798 3.578a28.922 28.922 0 0 1 3.486-4.616zm12.707-7.89l-2.357-5.553-5.338 2.265 2.357 5.553c.852-.471 1.637-1.012 2.555-1.401.917-.39 1.852-.579 2.783-.865zM813.17 92.34l5.952.702c.052-1.935.31-3.835.746-5.707l-5.974-.71zm57.416 32.173l-16.014 6.797c-1.475.626-2.167 2.315-1.547 3.775.62 1.46 2.315 2.136 3.79 1.51l16.014-6.798c1.475-.626 2.167-2.314 1.547-3.775-.62-1.46-2.315-2.136-3.79-1.51zm3.364 7.926l-16.013 6.798c-1.475.626-2.168 2.314-1.548 3.775.62 1.46 2.316 2.135 3.79 1.51l.491-.209a8.657 8.657 0 0 0 9.76 2.094 8.657 8.657 0 0 0 5.274-8.475l.49-.208c1.475-.626 2.167-2.315 1.547-3.775-.62-1.46-2.315-2.136-3.79-1.51zm-4.6-47.94c-4.955-11.673-18.533-17.08-30.324-12.075-11.791 5.005-17.334 18.528-12.379 30.201 4.486 10.57 19.718 16.772 24.135 27.176l21.351-9.063c-4.556-10.735 1.703-25.67-2.783-36.239z"/></defs><g><g transform="translate(-813 -59)"><g><use fill="#f38f31" xlink:href="#pl8la"/></g></g></g></svg>