<svg xmlns="http://www.w3.org/2000/svg" viewBox="0 0 25 33">
  <defs>
    <style>
      .cls-1 {
        fill: #f38f31;
      }
    </style>
  </defs>
  <g id="lamp" transform="translate(-64)">
    <path id="Path_5596" data-name="Path 5596" class="cls-1" d="M84.833,12.375c0,4.125-4.167,8.186-4.167,12.375H72.333c0-4.061-4.167-8.25-4.167-12.375a8.334,8.334,0,0,1,16.667,0Zm-5.208,16.5h-6.25a1.031,1.031,0,1,0,0,2.063h.191a3.118,3.118,0,0,0,5.868,0h.191a1.031,1.031,0,1,0,0-2.062Zm0-3.094h-6.25a1.031,1.031,0,1,0,0,2.063h6.25a1.031,1.031,0,1,0,0-2.062ZM65.154,7.082l1.87,1.068a10.242,10.242,0,0,1,1.048-1.783L66.2,5.293ZM77.542,2.167V0H75.458V2.167a9.866,9.866,0,0,1,1.042-.1A9.866,9.866,0,0,1,77.542,2.167Zm-5.31.826L71.153,1.142,69.347,2.173,70.431,4.03A10.39,10.39,0,0,1,72.232,2.993ZM87.846,7.082,86.8,5.293,84.929,6.367a10.251,10.251,0,0,1,1.05,1.783Zm-4.2-4.908-1.8-1.031L80.77,2.993a10.5,10.5,0,0,1,1.8,1.035Zm-17.568,10.2a9.578,9.578,0,0,1,.106-1.031H64v2.063h2.193A8.683,8.683,0,0,1,66.083,12.375Zm20.728-1.031a9.58,9.58,0,0,1,.106,1.031,8.67,8.67,0,0,1-.11,1.031H89V11.344ZM85.1,18.48l1.7.975,1.042-1.787-1.892-1.08C85.692,17.229,85.407,17.858,85.1,18.48Zm-19.946-.812L66.2,19.455l1.691-.965c-.305-.624-.59-1.257-.848-1.9Z" transform="translate(0)"/>
  </g>
</svg>
