<svg xmlns="http://www.w3.org/2000/svg" viewBox="0 0 149.101 21.645">
  <defs>
    <style>
      .cls-1 {
        fill: #231f20;
      }
    </style>
  </defs>
  <g id="line" transform="translate(-719.6 -415.9)">
    <path id="Path_6655" data-name="Path 6655" class="cls-1" d="M720.3,415.9a93.721,93.721,0,0,0,9,2.8c3,.8,6.1,1.6,9.2,2.2,6.1,1.3,12.3,2.3,18.5,3s12.4,1.2,18.6,1.3c6.2.2,12.4.1,18.5-.2,3.1-.2,6.1-.5,9.2-.9,3-.5,6.1-.9,9.1-1.5,6-1,12-2.1,18.1-2.7l18.4-2.3c3.1-.3,6.2-.8,9.5-1,3.2-.3,6.4-.7,9.8-.7l.5,1.4a37.913,37.913,0,0,1-4,3c-1.4,1-2.7,1.9-4.1,2.8a73,73,0,0,1-8.7,4.7c-1.5.7-3,1.4-4.5,2s-3.1,1.2-4.6,1.8-3.1,1.1-4.7,1.6l-4.7,1.4c-1.6.4-3.2.8-4.8,1.1s-3.2.7-4.9.9c-1.6.2-3.3.4-4.9.6s-3.3.2-4.9.3c-3.3.1-6.6,0-9.9,0l-4.9-.2c-1.6,0-3.3-.1-4.9-.2q-9.75-.45-19.5-1.8c-6.4-1-12.8-2.3-19.1-3.9-6.3-1.7-12.4-3.6-18.5-5.9-3-1.2-6-2.4-8.9-3.7-2.9-1.4-5.8-2.8-8.6-4.4Z"/>
  </g>
</svg>
