<svg xmlns="http://www.w3.org/2000/svg" viewBox="0 0 25.888 29.904">
  <defs>
    <style>
      .cls-1 {
        opacity: 0.299;
      }

      .cls-2 {
        fill: #fff;
      }
    </style>
  </defs>
  <g id="algorithm" class="cls-1" transform="translate(-32.273)">
    <g id="Group_1187" data-name="Group 1187" transform="translate(32.273)">
      <g id="Group_1186" data-name="Group 1186" transform="translate(0)">
        <path id="Path_246" data-name="Path 246" class="cls-2" d="M57.58,20.009a1.989,1.989,0,0,0-.912-.522v-9.1a1.988,1.988,0,1,0-1.9-3.33L47.122,2.539a1.974,1.974,0,0,0,.086-.548,1.991,1.991,0,1,0-3.983,0,1.974,1.974,0,0,0,.086.548L35.67,7.055a1.989,1.989,0,1,0-1.9,3.33v9.1a1.988,1.988,0,1,0,1.9,3.33l7.642,4.516a1.991,1.991,0,1,0,3.811,0l7.642-4.516a1.989,1.989,0,0,0,2.816-2.808ZM45.217,1a1,1,0,1,1-1,1A1,1,0,0,1,45.217,1Zm-9.048,6.92L43.811,3.4a1.988,1.988,0,0,0,2.811,0h0l7.642,4.516a1.785,1.785,0,0,0,0,1.1l-9.048,5.346L36.169,9.011A1.785,1.785,0,0,0,36.169,7.916ZM34.264,22.4a1,1,0,1,1,1-1A1,1,0,0,1,34.264,22.4Zm1.905-.448A1.949,1.949,0,0,0,34.88,19.52q-.059-.018-.119-.032v-9.1a1.982,1.982,0,0,0,.908-.512l9.05,5.348V25.96a1.986,1.986,0,0,0-.908.512Zm18.01-.548a1.974,1.974,0,0,0,.086.548l-7.642,4.516a1.986,1.986,0,0,0-.908-.512V15.22l9.049-5.348a1.987,1.987,0,0,0,.908.512v9.1A1.991,1.991,0,0,0,54.178,21.409Zm1.991,1a1,1,0,1,1,1-1A1,1,0,0,1,56.17,22.4Z" transform="translate(-32.273)"/>
      </g>
    </g>
    <g id="Group_1189" data-name="Group 1189" transform="translate(41.33 16.182)">
      <g id="Group_1188" data-name="Group 1188" transform="translate(0 0)">
        <rect id="Rectangle_1789" data-name="Rectangle 1789" class="cls-2" width="0.931" height="0.996" transform="translate(0 0.473) rotate(-30.583)"/>
      </g>
    </g>
    <g id="Group_1191" data-name="Group 1191" transform="translate(39.729 17.129)">
      <g id="Group_1190" data-name="Group 1190" transform="translate(0 0)">
        <rect id="Rectangle_1790" data-name="Rectangle 1790" class="cls-2" width="0.931" height="0.996" transform="translate(0 0.473) rotate(-30.583)"/>
      </g>
    </g>
    <g id="Group_1193" data-name="Group 1193" transform="translate(42.933 15.235)">
      <g id="Group_1192" data-name="Group 1192" transform="translate(0 0)">
        <rect id="Rectangle_1791" data-name="Rectangle 1791" class="cls-2" width="0.931" height="0.996" transform="translate(0 0.473) rotate(-30.583)"/>
      </g>
    </g>
    <g id="Group_1195" data-name="Group 1195" transform="translate(38.128 18.074)">
      <g id="Group_1194" data-name="Group 1194" transform="translate(0 0)">
        <rect id="Rectangle_1792" data-name="Rectangle 1792" class="cls-2" width="0.931" height="0.996" transform="translate(0 0.473) rotate(-30.583)"/>
      </g>
    </g>
    <g id="Group_1197" data-name="Group 1197" transform="translate(36.523 19.022)">
      <g id="Group_1196" data-name="Group 1196" transform="translate(0 0)">
        <rect id="Rectangle_1793" data-name="Rectangle 1793" class="cls-2" width="0.931" height="0.996" transform="translate(0 0.473) rotate(-30.583)"/>
      </g>
    </g>
    <g id="Group_1199" data-name="Group 1199" transform="translate(52.602 19.02)">
      <g id="Group_1198" data-name="Group 1198" transform="translate(0 0)">
        <rect id="Rectangle_1794" data-name="Rectangle 1794" class="cls-2" width="0.996" height="0.931" transform="translate(0 0.857) rotate(-59.421)"/>
      </g>
    </g>
    <g id="Group_1201" data-name="Group 1201" transform="translate(51 18.073)">
      <g id="Group_1200" data-name="Group 1200" transform="translate(0)">
        <rect id="Rectangle_1795" data-name="Rectangle 1795" class="cls-2" width="0.996" height="0.931" transform="matrix(0.509, -0.861, 0.861, 0.509, 0, 0.857)"/>
      </g>
    </g>
    <g id="Group_1203" data-name="Group 1203" transform="translate(49.396 17.128)">
      <g id="Group_1202" data-name="Group 1202" transform="translate(0 0)">
        <rect id="Rectangle_1796" data-name="Rectangle 1796" class="cls-2" width="0.996" height="0.931" transform="translate(0 0.857) rotate(-59.421)"/>
      </g>
    </g>
    <g id="Group_1205" data-name="Group 1205" transform="translate(46.191 15.236)">
      <g id="Group_1204" data-name="Group 1204" transform="translate(0 0)">
        <rect id="Rectangle_1797" data-name="Rectangle 1797" class="cls-2" width="0.996" height="0.931" transform="translate(0 0.857) rotate(-59.421)"/>
      </g>
    </g>
    <g id="Group_1207" data-name="Group 1207" transform="translate(47.795 16.181)">
      <g id="Group_1206" data-name="Group 1206" transform="translate(0)">
        <rect id="Rectangle_1798" data-name="Rectangle 1798" class="cls-2" width="0.996" height="0.931" transform="matrix(0.509, -0.861, 0.861, 0.509, 0, 0.857)"/>
      </g>
    </g>
    <g id="Group_1209" data-name="Group 1209" transform="translate(44.719 12.447)">
      <g id="Group_1208" data-name="Group 1208">
        <rect id="Rectangle_1799" data-name="Rectangle 1799" class="cls-2" width="0.996" height="0.996"/>
      </g>
    </g>
    <g id="Group_1211" data-name="Group 1211" transform="translate(44.719 10.455)">
      <g id="Group_1210" data-name="Group 1210">
        <rect id="Rectangle_1800" data-name="Rectangle 1800" class="cls-2" width="0.996" height="0.996"/>
      </g>
    </g>
    <g id="Group_1213" data-name="Group 1213" transform="translate(44.719 8.464)">
      <g id="Group_1212" data-name="Group 1212">
        <rect id="Rectangle_1801" data-name="Rectangle 1801" class="cls-2" width="0.996" height="0.996"/>
      </g>
    </g>
    <g id="Group_1215" data-name="Group 1215" transform="translate(44.719 6.472)">
      <g id="Group_1214" data-name="Group 1214">
        <rect id="Rectangle_1802" data-name="Rectangle 1802" class="cls-2" width="0.996" height="0.996"/>
      </g>
    </g>
    <g id="Group_1217" data-name="Group 1217" transform="translate(44.719 4.481)">
      <g id="Group_1216" data-name="Group 1216">
        <rect id="Rectangle_1803" data-name="Rectangle 1803" class="cls-2" width="0.996" height="0.996"/>
      </g>
    </g>
  </g>
</svg>
