<svg xmlns="http://www.w3.org/2000/svg" viewBox="0 0 586.527 369">
  <defs>
    <style>
      .cls-1, .cls-2 {
        fill: #fff;
      }

      .cls-1 {
        opacity: 0.446;
      }

      .cls-3 {
        fill: #00bcd4;
      }
    </style>
  </defs>
  <g id="low" transform="translate(-19811 -17275.479)">
    <g id="Group_3032" transform="translate(28116.844 34882.141) rotate(-93)">
      <path id="Path_2457" class="cls-1" d="M17852.9-7365.8s65.6,14.8,102.9,92.8c37.1,78.2,55.2,339.1-23.7,433.4-79,94.6-248.9-23.4-272.6-128s-10.2-280.6,30.2-340S17783.8-7388.1,17852.9-7365.8Z"/>
      <g id="Group_3234" data-name="Group 3234" transform="translate(627.52 62.78) rotate(92.862)">
        <path id="Path_2459-2" class="cls-2" d="M-8241.082-16798.859s5.307-83.3,65.783-110.838,249.011-61.775,339.924-18.221,68.586,126.658,46.558,174.717-130.562,73.592-225.882,79.9S-8269.617-16695.529-8241.082-16798.859Z"/>
      </g>
    </g>
    <g id="Group_3235" data-name="Group 3235" transform="translate(19811.094 17049.975)">
      <path id="Path_5665" data-name="Path 5665" class="cls-3" d="M180.1,336.6a7.989,7.989,0,0,1-.5,2.3,9.852,9.852,0,0,1-4.7,5.2,14.68,14.68,0,0,1-6.9,1.7,11.056,11.056,0,0,1-9.5-4.6,17.749,17.749,0,0,1-2.9-10.4,29.409,29.409,0,0,1,1.7-9.9,18.226,18.226,0,0,1,5.4-8.3,8.771,8.771,0,0,1,5.8-2.3,6.9,6.9,0,0,1,6.4,3.7,14.363,14.363,0,0,1,1.8,7.5,17.3,17.3,0,0,1-1.1,5.2c-.8,2.5-1.8,3.8-2.8,3.8a2.7,2.7,0,0,1-2.6-2.2c.3-.2.8-.6,1.4-1.1.7-.7,1-2.2,1-4.3a19.049,19.049,0,0,0-.6-5.2c-.7-2.2-1.8-3.2-3.3-3.2-1.1,0-2.2.7-3.5,2a13.139,13.139,0,0,0-2.4,3.4,26.522,26.522,0,0,0-2.5,11.9c0,6.9,2.6,10.4,7.8,10.4a7.185,7.185,0,0,0,5.3-1.9,30.9,30.9,0,0,0,2.4-3.5c.7-1.3,1.4-1.9,2.2-1.9a1.974,1.974,0,0,1,1.4.6C179.8,335.9,180.1,336.1,180.1,336.6Z"/>
      <path id="Path_5666" data-name="Path 5666" class="cls-3" d="M201.8,336.3a64.8,64.8,0,0,1-.4,9.1,1.917,1.917,0,0,1-2.1,1.6c-1.9,0-2.7-.9-2.5-2.8a11.986,11.986,0,0,1-5.2,1.2,9.472,9.472,0,0,1-4.9-1.3c-1.9-1-2.8-2.3-2.8-4,0-1.6,1.1-3,3.2-4.4a10.7,10.7,0,0,1,5.5-1.9h4.2v-1.2c0-3.5-1-5.2-3.1-5.2-2.6,0-4,1.2-4,3.7,0,.8-.5,1.2-1.4,1.2a2.9,2.9,0,0,1-1.8-.8,2.218,2.218,0,0,1-.9-1.6,5.974,5.974,0,0,1,2-4.6,6.813,6.813,0,0,1,4.8-1.8C198.6,323.5,201.8,327.8,201.8,336.3Zm-5.1,1.8c0-.7-.5-1-1.5-1-4.2,0-6.2,1-6.2,3,0,1.1.9,1.6,2.8,1.6a6.2,6.2,0,0,0,3.2-.9A3.438,3.438,0,0,0,196.7,338.1Z"/>
      <path id="Path_5667" data-name="Path 5667" class="cls-3" d="M218.8,327.6a5.384,5.384,0,0,1-.1,1.1,2.8,2.8,0,0,1-2.2,1.5,2.226,2.226,0,0,1-1.7-1.1c-.1-1.5-.6-2.2-1.6-2.2-.6,0-1.3,1.6-2.2,4.8a22.711,22.711,0,0,0-.6,5.9,16.745,16.745,0,0,0,.3,4.3,7.908,7.908,0,0,1,.4,1.3,1.723,1.723,0,0,1-.8,1.4,2.618,2.618,0,0,1-1.7.5c-1.8,0-2.7-.8-2.7-2.5a1.952,1.952,0,0,1,.1-.7,1.952,1.952,0,0,0,.1-.7c0-1.7-.1-4.2-.2-7.6-.2-3.3-.2-5.9-.2-7.5,0-1.5.9-2.2,2.7-2.2a2.253,2.253,0,0,1,2.2,1,4.308,4.308,0,0,1,3.1-1.6,3.891,3.891,0,0,1,2.3.7,6.7,6.7,0,0,1,1.8,1.7A2.935,2.935,0,0,1,218.8,327.6Z"/>
      <path id="Path_5668" data-name="Path 5668" class="cls-3" d="M238,333.4a17.455,17.455,0,0,1-1.5,7.6,6.425,6.425,0,0,1-6.1,4,15.263,15.263,0,0,1-4.1-.9v.6c0,1.1-.6,1.7-1.9,1.7a2.7,2.7,0,0,1-2.2-1c-.3-.3-.5-1.3-.7-3.1a23.822,23.822,0,0,1-.2-3.4v-.2l.8-28.2a1.742,1.742,0,0,1,1.9-1,.9.9,0,0,1,.5-.1,2.226,2.226,0,0,1,1.7,1.1,3.669,3.669,0,0,1,.8,2,49.384,49.384,0,0,1-.4,5.8c-.3,2.8-.5,4.7-.5,5.7a4.645,4.645,0,0,1,3.8-1.8,7.144,7.144,0,0,1,4.9,2,9.208,9.208,0,0,1,2.9,4.8A39.377,39.377,0,0,1,238,333.4Zm-4.7-.3c0-4.5-.9-6.8-2.8-6.8-1.6,0-2.8,1.2-3.6,3.5a16.7,16.7,0,0,0-.9,5.5c0,4.2,1.3,6.3,3.8,6.3C232.1,341.6,233.3,338.7,233.3,333.1Z"/>
      <path id="Path_5669" data-name="Path 5669" class="cls-3" d="M259.2,334.9a13.689,13.689,0,0,1-2.2,7.7,8.121,8.121,0,0,1-6.9,3.7,7.736,7.736,0,0,1-6.6-3,11.415,11.415,0,0,1-2.1-7.2,18.231,18.231,0,0,1,2.2-8.5c1.7-3.2,4-4.8,6.8-4.8a6.08,6.08,0,0,1,3.2,1.2C257.4,326.2,259.2,329.9,259.2,334.9Zm-4.4-.1c0-5.1-1.2-7.6-3.7-7.6-1.8,0-3.1,1.1-4,3.2a13.827,13.827,0,0,0-1,5.5c0,4.4,1.3,6.6,4,6.6a3.974,3.974,0,0,0,3.8-2.8A11.285,11.285,0,0,0,254.8,334.8Z"/>
      <path id="Path_5670" data-name="Path 5670" class="cls-3" d="M280.2,344.4a2.061,2.061,0,0,1-1.9,1.1,6.687,6.687,0,0,1-2.8-1v-3.7c0-1.4.1-2.5.1-3.2,0-7.1-1.1-10.7-3.2-10.7-.6,0-1.3.5-2,1.4a15.507,15.507,0,0,0-3.5,10.3,14.867,14.867,0,0,0,.3,2.5,16.086,16.086,0,0,1,.3,2.5,1.255,1.255,0,0,1-.6,1.1,2.389,2.389,0,0,1-1.4.5c-2,0-3-1.3-3-3.8V331a5.739,5.739,0,0,1,.1-1.2,5.739,5.739,0,0,0,.1-1.2c0-.4-.1-1-.2-1.8s-.2-1.3-.2-1.7a2.048,2.048,0,0,1,.9-1.5,2.7,2.7,0,0,1,1.7-.7,3.076,3.076,0,0,1,2.2,1.2l-.1,2c1.2-2,2.8-3,4.5-3a7.015,7.015,0,0,1,3.7,1.2,9.5,9.5,0,0,1,2.9,2.7c1.4,2.5,2,5.9,2,10v7.4Z"/>
      <path id="Path_5671" data-name="Path 5671" class="cls-3" d="M297.4,325.5a9.057,9.057,0,0,1-.4,2.5,10.267,10.267,0,0,0-.4,2.5v10.3a12.713,12.713,0,0,0,.6,3,1.991,1.991,0,0,1-1.7,1.1c-2.1,0-3.3-1-3.5-3.1-.3-3.9-.5-6.8-.5-8.8a64.721,64.721,0,0,1,.4-8.3v-.5c0-.6.5-.9,1.4-.9a7.419,7.419,0,0,1,2.5.5C296.8,324.3,297.4,324.8,297.4,325.5Zm.4-7a2.172,2.172,0,0,1-.8,1.8,2.41,2.41,0,0,1-1.8.7,3.583,3.583,0,0,1-2.4-.9,2.531,2.531,0,0,1-1.1-2.2,2.5,2.5,0,0,1,.8-1.8,2.64,2.64,0,0,1,1.9-.7,3.583,3.583,0,0,1,2.4.9A2.7,2.7,0,0,1,297.8,318.5Z"/>
      <path id="Path_5672" data-name="Path 5672" class="cls-3" d="M318,344.4a2.02,2.02,0,0,1-1.8,1.1,6.687,6.687,0,0,1-2.8-1v-6.9c0-7.1-1.1-10.7-3.2-10.7-.6,0-1.3.5-2,1.4a15.507,15.507,0,0,0-3.5,10.3,14.867,14.867,0,0,0,.3,2.5,16.086,16.086,0,0,1,.3,2.5,1.167,1.167,0,0,1-.7,1.1,2.389,2.389,0,0,1-1.4.5c-2,0-3-1.3-3-3.8V331a5.739,5.739,0,0,1,.1-1.2,5.739,5.739,0,0,0,.1-1.2c0-.4-.1-1-.2-1.8s-.2-1.3-.2-1.7a2.048,2.048,0,0,1,.9-1.5,2.7,2.7,0,0,1,1.7-.7,3.076,3.076,0,0,1,2.2,1.2l-.1,2c1.2-2,2.8-3,4.5-3a7.015,7.015,0,0,1,3.7,1.2,8.086,8.086,0,0,1,2.8,2.7c1.4,2.5,2,5.9,2,10v7.4Z"/>
      <path id="Path_5673" data-name="Path 5673" class="cls-3" d="M331.6,326.9c0,.9-1.4,1.5-4.1,1.9-.1.7-.1,2.4-.1,5v3.3a21.268,21.268,0,0,0,.3,3,21.589,21.589,0,0,1,.3,2.9,1.873,1.873,0,0,1-.8,1.4,2.66,2.66,0,0,1-1.6.6c-.8,0-1.5-.7-2.1-2.2a9.735,9.735,0,0,1-.7-3.2V329a13.764,13.764,0,0,1-2.6-.5c-.9-.3-1.3-.6-1.3-1.1a1.087,1.087,0,0,1,.1-.5c.9-1.2,1.8-1.9,2.9-1.9h.3c.1,0,.2.1.3.1.7,0,1-.8,1-2.5v-3.7a1.978,1.978,0,0,1-.2-1,1.713,1.713,0,0,1,.8-1.2,2.976,2.976,0,0,1,1.5-.5,2.6,2.6,0,0,1,2,1,3.049,3.049,0,0,1,.9,2.1,6.723,6.723,0,0,1-.4,2.4,4.986,4.986,0,0,0-.3,2.4v.2C330.3,324.7,331.6,325.5,331.6,326.9Z"/>
      <path id="Path_5674" data-name="Path 5674" class="cls-3" d="M349.2,340.4c0,1.7-1.1,3-3.4,3.9a14.985,14.985,0,0,1-5.5,1.1c-5.1,0-7.7-2.9-7.7-8.8a21.227,21.227,0,0,1,1.8-8c1.4-3.6,3.2-5.4,5.2-5.4a9.614,9.614,0,0,1,5.9,2.5c2.1,1.6,3.2,3.3,3.2,5.1a5.8,5.8,0,0,1-3,5.2,10.547,10.547,0,0,1-6.2,1.8,5.912,5.912,0,0,1-2.2-.8c.1,3.2,1.1,4.8,2.8,4.8a8.477,8.477,0,0,0,4.3-1.2,8.145,8.145,0,0,1,2.7-1.2C348.5,339.2,349.2,339.6,349.2,340.4Zm-5.4-9.5a4.423,4.423,0,0,0-.7-2.4,2.061,2.061,0,0,0-1.9-1.1,2.739,2.739,0,0,0-2.5,1.4,5.571,5.571,0,0,0-.8,3,1.683,1.683,0,0,0,.7,1.5,2.271,2.271,0,0,0,1.6.6Q343.8,334.05,343.8,330.9Z"/>
      <path id="Path_5675" data-name="Path 5675" class="cls-3" d="M369.9,344.4a2.02,2.02,0,0,1-1.8,1.1,6.687,6.687,0,0,1-2.8-1v-6.9c0-7.1-1.1-10.7-3.2-10.7-.6,0-1.3.5-2,1.4a15.507,15.507,0,0,0-3.5,10.3,14.867,14.867,0,0,0,.3,2.5,16.086,16.086,0,0,1,.3,2.5,1.167,1.167,0,0,1-.7,1.1,2.389,2.389,0,0,1-1.4.5c-2,0-3-1.3-3-3.8V331a5.739,5.739,0,0,1,.1-1.2,5.739,5.739,0,0,0,.1-1.2c0-.4-.1-1-.2-1.8s-.2-1.3-.2-1.7a2.048,2.048,0,0,1,.9-1.5,2.7,2.7,0,0,1,1.7-.7,3.076,3.076,0,0,1,2.2,1.2l-.1,2c1.2-2,2.8-3,4.5-3a7.015,7.015,0,0,1,3.7,1.2,8.086,8.086,0,0,1,2.8,2.7c1.4,2.5,2,5.9,2,10v7.4Z"/>
      <path id="Path_5676" data-name="Path 5676" class="cls-3" d="M390.2,339.7a5.409,5.409,0,0,1-2,4.1,8.55,8.55,0,0,1-5.9,1.9,9.464,9.464,0,0,1-3.5-.7q-6-2.25-6-3.6c0-1.5,1.1-2.2,3.2-2.2h1q.15,1.5,2.4,2.4a7.415,7.415,0,0,0,3.8.6c1-.1,1.5-.4,1.5-1a1.338,1.338,0,0,0-.1-.5,4.331,4.331,0,0,0-.1-.5c0-.1-.6-.4-1.9-.8a19.508,19.508,0,0,1-2.4-.8c-3.8-2.3-5.7-5-5.7-8.2a9.177,9.177,0,0,1,1.6-5.3,5.444,5.444,0,0,1,4.6-2.7,9.07,9.07,0,0,1,4.7,1.6,6.756,6.756,0,0,1,3.2,3.4,6.854,6.854,0,0,1,.4,2.2,6.052,6.052,0,0,1-.2,1.5l-.6,1.5a3.7,3.7,0,0,1-1.9.7,4.86,4.86,0,0,1-1.7-.6c-.8-.4-1.2-.8-1.2-1.1a5.291,5.291,0,0,1,.6-1.3,2.607,2.607,0,0,0,.3-1.1c0-2-.8-3-2.3-3a2.474,2.474,0,0,0-2.2,1.8,7.286,7.286,0,0,0-.5,3c0,1.3,1,2.5,2.8,3.6,1.7.8,3.5,1.5,5.2,2.3C389.3,337.9,390.2,338.8,390.2,339.7Z"/>
      <path id="Path_5677" data-name="Path 5677" class="cls-3" d="M398.8,325.5a9.057,9.057,0,0,1-.4,2.5,10.267,10.267,0,0,0-.4,2.5v10.3a12.713,12.713,0,0,0,.6,3,1.991,1.991,0,0,1-1.7,1.1c-2.1,0-3.3-1-3.5-3.1-.3-3.9-.5-6.8-.5-8.8a64.721,64.721,0,0,1,.4-8.3v-.5c0-.6.5-.9,1.4-.9a7.419,7.419,0,0,1,2.5.5C398.3,324.3,398.8,324.8,398.8,325.5Zm.5-7a2.172,2.172,0,0,1-.8,1.8,2.41,2.41,0,0,1-1.8.7,3.583,3.583,0,0,1-2.4-.9,2.531,2.531,0,0,1-1.1-2.2,2.5,2.5,0,0,1,.8-1.8,2.64,2.64,0,0,1,1.9-.7,3.583,3.583,0,0,1,2.4.9A2.7,2.7,0,0,1,399.3,318.5Z"/>
      <path id="Path_5678" data-name="Path 5678" class="cls-3" d="M411.8,326.9c0,.9-1.4,1.5-4.1,1.9-.1.7-.1,2.4-.1,5v3.3a21.268,21.268,0,0,0,.3,3,21.589,21.589,0,0,1,.3,2.9,1.873,1.873,0,0,1-.8,1.4,2.66,2.66,0,0,1-1.6.6c-.8,0-1.5-.7-2.1-2.2a9.735,9.735,0,0,1-.7-3.2V329a13.764,13.764,0,0,1-2.6-.5c-.9-.3-1.3-.6-1.3-1.1a1.087,1.087,0,0,1,.1-.5c.9-1.2,1.8-1.9,2.9-1.9h.3c.1,0,.2.1.3.1.7,0,1-.8,1-2.5v-3.7a1.978,1.978,0,0,1-.2-1,1.713,1.713,0,0,1,.8-1.2,2.976,2.976,0,0,1,1.5-.5,2.6,2.6,0,0,1,2,1,3.049,3.049,0,0,1,.9,2.1,6.723,6.723,0,0,1-.4,2.4,4.986,4.986,0,0,0-.3,2.4v.2C410.5,324.7,411.8,325.5,411.8,326.9Z"/>
      <path id="Path_5679" data-name="Path 5679" class="cls-3" d="M430.8,325.6c-.3,1.7-.6,3.3-.8,5a33.674,33.674,0,0,0-.5,5v13.6a7.4,7.4,0,0,1-2.1,5.7,8.33,8.33,0,0,1-5.8,2,13.863,13.863,0,0,1-5.3-1.2c-2.3-1-3.5-2.1-3.5-3.5a1.426,1.426,0,0,1,.6-1.2,2.106,2.106,0,0,1,1.3-.5,8.349,8.349,0,0,1,2.2,1.3,6.01,6.01,0,0,0,3.9,1.4,3.9,3.9,0,0,0,3.8-2,9.985,9.985,0,0,0,.7-4.5v-1.9a6.706,6.706,0,0,1-3.7,1.1,6.9,6.9,0,0,1-5.8-2.7A10.128,10.128,0,0,1,414,337c0-.3.2-4.5.5-12.6a6.915,6.915,0,0,1,2.4-.6,6.535,6.535,0,0,1,3,1.2q-1.2,3-1.2,12c0,3.8,1,5.8,2.9,5.8q2.1,0,3.3-3.6a16.105,16.105,0,0,0,.9-5.4v-6.1s-.1-.5-.2-1.7a7.756,7.756,0,0,1,3-1C429,324.6,429.8,324.9,430.8,325.6Z"/>
    </g>
    <g id="Group_3236" data-name="Group 3236" transform="translate(19811.094 17049.975)">
      <path id="Path_5680" data-name="Path 5680" class="cls-3" d="M156.7,460.1a14.883,14.883,0,0,1-2.7,9.1,9.452,9.452,0,0,1-8.1,4.2,10.78,10.78,0,0,1-8.5-4.8,14.636,14.636,0,0,1-1.4-6.8,17.8,17.8,0,0,1,2.7-9.8c2-3.3,4.8-5,8.3-5,3.1,0,5.5,1.4,7.4,4.3A17.5,17.5,0,0,1,156.7,460.1Zm-3.6-.3c0-5.2-1.7-8.3-5-9.3a5.019,5.019,0,0,0-1.2-.2,6.16,6.16,0,0,0-4.2,1.9q-3.3,3-3.3,10.8a9.63,9.63,0,0,0,.3,2,9.137,9.137,0,0,0,1.9,4.2,5.767,5.767,0,0,0,4.3,1.5,6.144,6.144,0,0,0,5.8-3.7A17.435,17.435,0,0,0,153.1,459.8Z"/>
      <path id="Path_5681" data-name="Path 5681" class="cls-3" d="M178.3,472.7a4.5,4.5,0,0,1-1.9.8,5.037,5.037,0,0,1-1.5-.5v-4.2c0-6.6-.5-10-1.6-10-.8,0-1.5,1-2,3a15.638,15.638,0,0,0-.6,4.1v3.4a4.5,4.5,0,0,0,.2.8,3.091,3.091,0,0,1,.2.8,1.382,1.382,0,0,1-.6,1.1,2.078,2.078,0,0,1-1.2.5,1.936,1.936,0,0,1-1.3-.6,1.729,1.729,0,0,1-.6-1.2v-7c0-2.8-.3-4.2-1-4.2-.1,0-.3.2-.6.7a12.672,12.672,0,0,0-2.7,7.7,14.933,14.933,0,0,0,.2,1.7c.1.8.2,1.3.2,1.7a1.707,1.707,0,0,1-1.7,1.7,1.816,1.816,0,0,1-1.4-.6,5.911,5.911,0,0,1-.4-1.8,8.443,8.443,0,0,1-.2-1.9v-8.2a8.458,8.458,0,0,1,.4-2.4q.6-1.8,1.2-1.8a2.161,2.161,0,0,1,1.4.6,1.379,1.379,0,0,1,.5,1.3,3.23,3.23,0,0,1,2.8-1.8c1.4,0,2.6,1,3.5,2.9a8.775,8.775,0,0,1,1.3-2.3,2.99,2.99,0,0,1,2.3-1.1,3.937,3.937,0,0,1,2.8,1.5c1.6,1.7,2.5,4.5,2.5,8.6v6.7Z"/>
      <path id="Path_5682" data-name="Path 5682" class="cls-3" d="M194.2,466.4a52.162,52.162,0,0,1-.3,6.8c-.1.8-.7,1.2-1.6,1.2-1.4,0-2-.7-1.9-2.1a8.909,8.909,0,0,1-3.9.9,7.106,7.106,0,0,1-3.7-1,3.48,3.48,0,0,1-2.1-3q0-1.8,2.4-3.3a7.757,7.757,0,0,1,4.1-1.4h3.2v-.9c0-2.6-.8-3.9-2.3-3.9q-3,0-3,2.7c0,.6-.4.9-1,.9a1.936,1.936,0,0,1-1.3-.6,1.546,1.546,0,0,1-.7-1.2,4.691,4.691,0,0,1,1.5-3.5,5.154,5.154,0,0,1,3.6-1.3C191.9,456.8,194.2,460,194.2,466.4Zm-3.8,1.4c0-.5-.4-.8-1.1-.8-3.1,0-4.7.7-4.7,2.2q0,1.2,2.1,1.2a4.423,4.423,0,0,0,2.4-.7A2.2,2.2,0,0,0,190.4,467.8Z"/>
      <path id="Path_5683" data-name="Path 5683" class="cls-3" d="M207,459.9a2.485,2.485,0,0,1-.1.8,1.979,1.979,0,0,1-1.6,1.1,1.7,1.7,0,0,1-1.3-.8c-.1-1.1-.4-1.7-1.2-1.7-.5,0-1,1.2-1.6,3.6a16.625,16.625,0,0,0-.5,4.4,15.613,15.613,0,0,0,.2,3.2,3.259,3.259,0,0,1,.3,1,1.1,1.1,0,0,1-.6,1,2.836,2.836,0,0,1-1.3.4c-1.3,0-2-.6-2-1.9a1.087,1.087,0,0,1,.1-.5,1.087,1.087,0,0,0,.1-.5c0-1.3-.1-3.2-.2-5.7s-.2-4.4-.2-5.6c0-1.1.7-1.7,2-1.7.8,0,1.4.2,1.6.7a3.126,3.126,0,0,1,2.4-1.2,3.371,3.371,0,0,1,1.7.5,3.921,3.921,0,0,1,1.3,1.3C206.6,459,207,459.5,207,459.9Z"/>
      <path id="Path_5684" data-name="Path 5684" class="cls-3" d="M208.9,450.1a1.9,1.9,0,0,1,.8-1.5,2.459,2.459,0,0,1,3.7.3,4.069,4.069,0,0,1,.8,2.4,6.994,6.994,0,0,1-1.3,4.6,9.118,9.118,0,0,1-1.7,1.7,2.7,2.7,0,0,1-1.7.7,1.05,1.05,0,0,1-.9-.5.761.761,0,0,1,.1-.9,7.1,7.1,0,0,0,1.4-1,3.956,3.956,0,0,0,1-1.5,1.986,1.986,0,0,0,.1-1.1,1.2,1.2,0,0,0-.7-1,10.476,10.476,0,0,1-1.1-.8A2.979,2.979,0,0,1,208.9,450.1Z"/>
      <path id="Path_5685" data-name="Path 5685" class="cls-3" d="M226.5,469a4.024,4.024,0,0,1-1.5,3.1,7.387,7.387,0,0,1-7,.9q-4.5-1.65-4.5-2.7c0-1.1.8-1.6,2.4-1.6h.7c.1.8.7,1.3,1.8,1.8a5.757,5.757,0,0,0,2.8.5c.7,0,1.1-.3,1.1-.8a.367.367,0,0,0-.1-.3c0-.1-.1-.3-.1-.4s-.5-.3-1.4-.6a8,8,0,0,1-1.8-.6c-2.9-1.7-4.3-3.8-4.3-6.1a6.979,6.979,0,0,1,1.2-4,4.187,4.187,0,0,1,3.5-2,6.962,6.962,0,0,1,3.5,1.2,5.269,5.269,0,0,1,2.4,2.6,6.134,6.134,0,0,1,.3,1.6,3.087,3.087,0,0,1-.2,1.1c-.1.4-.3.8-.4,1.1a2.979,2.979,0,0,1-1.4.5,4.452,4.452,0,0,1-1.3-.5c-.6-.3-.9-.6-.9-.8a3.52,3.52,0,0,1,.4-1,1.6,1.6,0,0,0,.3-.8c0-1.5-.6-2.2-1.8-2.2-.7,0-1.2.5-1.6,1.4a5.7,5.7,0,0,0-.4,2.2q0,1.5,2.1,2.7l3.9,1.8C225.8,467.7,226.5,468.3,226.5,469Z"/>
      <path id="Path_5686" data-name="Path 5686" class="cls-3" d="M247.7,463.9a14.5,14.5,0,0,1-1.4,6.5,5.429,5.429,0,0,1-5.1,3.5,5.218,5.218,0,0,1-3.1-1v2.2a17.287,17.287,0,0,0,.8,5.7,9.417,9.417,0,0,1,.4,1c0,.8-.5,1.3-1.5,1.3a2.674,2.674,0,0,1-1.7-.4,3.041,3.041,0,0,1-.8-1.9,12.217,12.217,0,0,1-.3-2.2v-9c0-.8,0-2,.1-3.4.1-1.6.2-2.7.2-3.3v-5c0-2.1.7-3.2,2.1-3.2a1.433,1.433,0,0,1,1,.4,1.033,1.033,0,0,1,.4.8c0,.5-.1,1.5-.2,3a4.2,4.2,0,0,1,3.5-2.1,5.129,5.129,0,0,1,4.3,2.2A9.128,9.128,0,0,1,247.7,463.9Zm-3.4-.4c0-2.7-.6-4-1.7-4-.5,0-1.2.5-2,1.5-1.6,1.9-2.4,4.5-2.6,7.8a8,8,0,0,1,1.5,1.6,2.227,2.227,0,0,0,1.7,1C243.3,471.3,244.3,468.7,244.3,463.5Z"/>
      <path id="Path_5687" data-name="Path 5687" class="cls-3" d="M254.6,471.8a1.433,1.433,0,0,1-.5,1.1,2.106,2.106,0,0,1-1.3.5c-1.6,0-2.4-2.1-2.4-6.2,0-1.9,0-4.7.1-8.4,0-3.8.1-6.6.1-8.4a7.173,7.173,0,0,0-.1-1.3,7.173,7.173,0,0,1-.1-1.3,4.5,4.5,0,0,1,1.9-.8,3.32,3.32,0,0,1,1.6.5,1.723,1.723,0,0,1,.8,1.4,4.4,4.4,0,0,1-.2,1,6.473,6.473,0,0,0-.3,1,36.877,36.877,0,0,0-.5,6.6v7c.1,3.2.3,5.4.8,6.6C254.5,471.3,254.6,471.6,254.6,471.8Z"/>
      <path id="Path_5688" data-name="Path 5688" class="cls-3" d="M269.7,466.4a52.166,52.166,0,0,1-.3,6.8c-.1.8-.7,1.2-1.6,1.2-1.4,0-2-.7-1.9-2.1a8.909,8.909,0,0,1-3.9.9,7.107,7.107,0,0,1-3.7-1,3.48,3.48,0,0,1-2.1-3q0-1.8,2.4-3.3a7.757,7.757,0,0,1,4.1-1.4h3.2v-.9c0-2.6-.8-3.9-2.3-3.9q-3,0-3,2.7c0,.6-.4.9-1,.9a1.936,1.936,0,0,1-1.3-.6,1.546,1.546,0,0,1-.7-1.2,4.691,4.691,0,0,1,1.5-3.5,5.154,5.154,0,0,1,3.6-1.3C267.3,456.8,269.7,460,269.7,466.4Zm-3.8,1.4c0-.5-.4-.8-1.1-.8-3.1,0-4.7.7-4.7,2.2q0,1.2,2.1,1.2a4.423,4.423,0,0,0,2.4-.7A2.2,2.2,0,0,0,265.9,467.8Z"/>
      <path id="Path_5689" data-name="Path 5689" class="cls-3" d="M286,472.5a1.615,1.615,0,0,1-1.4.9,4.6,4.6,0,0,1-2.1-.8v-5.2c0-5.3-.8-8-2.4-8a2.456,2.456,0,0,0-1.5,1,11.677,11.677,0,0,0-2.6,7.8c0,.4.1,1.1.2,1.9a7.569,7.569,0,0,1,.2,1.9c0,.4-.2.6-.5.9a2.016,2.016,0,0,1-1.1.3c-1.5,0-2.2-1-2.2-2.8v-7.8a3.444,3.444,0,0,1,.1-.9c0-.4.1-.7.1-.9a7.173,7.173,0,0,0-.1-1.3,7.173,7.173,0,0,1-.1-1.3,1.269,1.269,0,0,1,.7-1.1,1.951,1.951,0,0,1,1.3-.5,2.592,2.592,0,0,1,1.7.9l-.1,1.5a3.954,3.954,0,0,1,3.4-2.2,5.409,5.409,0,0,1,2.8.9,5.807,5.807,0,0,1,2.1,2,16.121,16.121,0,0,1,1.5,7.5Z"/>
      <path id="Path_5690" data-name="Path 5690" class="cls-3" d="M296.2,459.4c0,.7-1,1.2-3.1,1.4,0,.5-.1,1.8-.1,3.8v2.5c0,.5.1,1.2.2,2.2s.2,1.7.2,2.2a1.382,1.382,0,0,1-.6,1.1,2.078,2.078,0,0,1-1.2.5c-.6,0-1.2-.5-1.6-1.6a6.874,6.874,0,0,1-.5-2.4v-8c-1.2-.2-1.8-.3-2-.3-.7-.2-1-.5-1-.9a.367.367,0,0,1,.1-.3,2.759,2.759,0,0,1,2.2-1.4h.4c.5,0,.8-.6.8-1.8v-2.7a2.544,2.544,0,0,1-.2-.7,1.209,1.209,0,0,1,.6-.9,1.666,1.666,0,0,1,1.1-.4,2.084,2.084,0,0,1,1.5.7,2.13,2.13,0,0,1,.7,1.6,5.663,5.663,0,0,1-.3,1.8,3.722,3.722,0,0,0-.2,1.8v.2C295.3,457.8,296.2,458.4,296.2,459.4Z"/>
      <path id="Path_5691" data-name="Path 5691" class="cls-3" d="M308.5,458.3a8.077,8.077,0,0,1-.3,1.9,8.9,8.9,0,0,0-.3,1.9v7.7a7.872,7.872,0,0,0,.4,2.2q-.6.9-1.2.9a2.314,2.314,0,0,1-2.6-2.4c-.2-2.9-.4-5.1-.4-6.6a53.426,53.426,0,0,1,.3-6.2v-.4c0-.4.3-.7,1-.7a4.638,4.638,0,0,1,1.9.4C308.1,457.4,308.5,457.8,308.5,458.3Zm.3-5.2a1.612,1.612,0,0,1-.6,1.3,1.741,1.741,0,0,1-1.4.5,2.41,2.41,0,0,1-1.8-.7,2.289,2.289,0,0,1-.8-1.7,1.612,1.612,0,0,1,.6-1.3,2.448,2.448,0,0,1,3.2.2A1.99,1.99,0,0,1,308.8,453.1Z"/>
      <path id="Path_5692" data-name="Path 5692" class="cls-3" d="M322,469a4.024,4.024,0,0,1-1.5,3.1,7.387,7.387,0,0,1-7,.9q-4.5-1.65-4.5-2.7c0-1.1.8-1.6,2.4-1.6h.7c.1.8.7,1.3,1.8,1.8a5.757,5.757,0,0,0,2.8.5c.7,0,1.1-.3,1.1-.8a.367.367,0,0,0-.1-.3c0-.1-.1-.3-.1-.4s-.5-.3-1.4-.6a8,8,0,0,1-1.8-.6c-2.8-1.7-4.3-3.8-4.3-6.1a6.978,6.978,0,0,1,1.2-4,4.187,4.187,0,0,1,3.5-2,6.962,6.962,0,0,1,3.5,1.2,5.269,5.269,0,0,1,2.4,2.6,6.133,6.133,0,0,1,.3,1.6,3.087,3.087,0,0,1-.2,1.1,11.734,11.734,0,0,1-.5,1.1,2.979,2.979,0,0,1-1.4.5,4.452,4.452,0,0,1-1.3-.5c-.6-.3-.9-.6-.9-.8a7.913,7.913,0,0,1,.5-1,1.6,1.6,0,0,0,.3-.8c0-1.5-.6-2.2-1.8-2.2-.7,0-1.2.5-1.6,1.4a5.7,5.7,0,0,0-.4,2.2q0,1.5,2.1,2.7l3.9,1.8C321.3,467.7,322,468.3,322,469Z"/>
      <path id="Path_5693" data-name="Path 5693" class="cls-3" d="M343.5,450a20.623,20.623,0,0,1-.2,2.1,15.048,15.048,0,0,1-.4,2.1c-.1.8-.2,3.1-.4,6.9s-.2,5.9-.2,6.3a14.6,14.6,0,0,0,.8,5.4,1.681,1.681,0,0,1-1.5,1,1.8,1.8,0,0,1-1.5-.7,2.238,2.238,0,0,1-.8-1.5,5.3,5.3,0,0,1-3.6,1.6,4.958,4.958,0,0,1-4.2-1.9,7.11,7.11,0,0,1-1.4-4.5,18.292,18.292,0,0,1,1.4-6.7c1.1-2.9,2.6-4.3,4.5-4.3a5.378,5.378,0,0,1,3.4,1.5c.1-1.2.2-4.2.2-9,0-.4.3-.7,1-.7a3.7,3.7,0,0,1,2.1.6A2.2,2.2,0,0,1,343.5,450Zm-4.4,12.7a4.645,4.645,0,0,0-.6-2.3,2.277,2.277,0,0,0-1.9-1.3c-1.1,0-2,1.1-2.6,3.3a15.765,15.765,0,0,0-.7,4.7c0,2.3.7,3.5,2,3.5,1.4,0,2.4-1,3-3.1A12.1,12.1,0,0,0,339.1,462.7Z"/>
      <path id="Path_5694" data-name="Path 5694" class="cls-3" d="M358.8,465.4a10.164,10.164,0,0,1-1.7,5.8,6.553,6.553,0,0,1-10.2.5,8.665,8.665,0,0,1-1.5-5.4,13.323,13.323,0,0,1,1.7-6.4q1.95-3.6,5.1-3.6a4.788,4.788,0,0,1,2.4.9C357.4,458.9,358.8,461.6,358.8,465.4Zm-3.3-.1c0-3.8-.9-5.7-2.8-5.7q-1.95,0-3,2.4a10.842,10.842,0,0,0-.8,4.2c0,3.3,1,5,3,5a3.143,3.143,0,0,0,2.9-2.1A8.605,8.605,0,0,0,355.5,465.3Z"/>
      <path id="Path_5695" data-name="Path 5695" class="cls-3" d="M365.8,458.3a8.077,8.077,0,0,1-.3,1.9,8.9,8.9,0,0,0-.3,1.9v7.7a7.872,7.872,0,0,0,.4,2.2q-.6.9-1.2.9a2.314,2.314,0,0,1-2.6-2.4c-.2-2.9-.4-5.1-.4-6.6a53.426,53.426,0,0,1,.3-6.2v-.4c0-.4.3-.7,1-.7a4.638,4.638,0,0,1,1.9.4C365.4,457.4,365.8,457.8,365.8,458.3Zm.3-5.2a1.612,1.612,0,0,1-.6,1.3,1.741,1.741,0,0,1-1.4.5,2.41,2.41,0,0,1-1.8-.7,2.289,2.289,0,0,1-.8-1.7,1.612,1.612,0,0,1,.6-1.3,2.448,2.448,0,0,1,3.2.2A2.289,2.289,0,0,1,366.1,453.1Z"/>
      <path id="Path_5696" data-name="Path 5696" class="cls-3" d="M381.3,472.5a1.615,1.615,0,0,1-1.4.9,4.6,4.6,0,0,1-2.1-.8v-5.2c0-5.3-.8-8-2.4-8a2.456,2.456,0,0,0-1.5,1,11.677,11.677,0,0,0-2.6,7.8c0,.4.1,1.1.2,1.9a7.569,7.569,0,0,1,.2,1.9c0,.4-.2.6-.5.9a2.016,2.016,0,0,1-1.1.3c-1.5,0-2.2-1-2.2-2.8v-7.8a3.444,3.444,0,0,1,.1-.9,3.444,3.444,0,0,0,.1-.9,7.173,7.173,0,0,0-.1-1.3,7.173,7.173,0,0,1-.1-1.3,1.269,1.269,0,0,1,.7-1.1,1.951,1.951,0,0,1,1.3-.5,2.592,2.592,0,0,1,1.7.9l-.1,1.5a3.954,3.954,0,0,1,3.4-2.2,5.409,5.409,0,0,1,2.8.9,5.807,5.807,0,0,1,2.1,2,16.121,16.121,0,0,1,1.5,7.5Z"/>
      <path id="Path_5697" data-name="Path 5697" class="cls-3" d="M396.8,461.6a23.961,23.961,0,0,1-.5,3.3,28.6,28.6,0,0,0-.4,3.3c0,.8,0,1.9.1,3.4s.1,2.6.1,3.4a9.782,9.782,0,0,1-.4,3.4,4.461,4.461,0,0,1-2,2.3,5.788,5.788,0,0,1-3,.9,12.208,12.208,0,0,1-4.1-.9c-1.9-.7-2.9-1.5-2.9-2.3,0-1.1.5-1.7,1.5-1.7a1.053,1.053,0,0,1,1,.4,2.475,2.475,0,0,0,.7.9,7.686,7.686,0,0,0,1.2.4c.7.1,1.2.2,1.5.2,2.2,0,3.4-1.4,3.4-4.2a13.422,13.422,0,0,0-.1-2.1,6.01,6.01,0,0,1-3.9,1.4,6.321,6.321,0,0,1-2.1-.5,6.979,6.979,0,0,1-1.8-1.2,5.8,5.8,0,0,1-1.2-4,19.2,19.2,0,0,1,1.5-7c1.2-3.1,2.7-4.7,4.4-4.7a4.322,4.322,0,0,1,3,1.5l2.1,2.7a3.515,3.515,0,0,0,.9.7A3.364,3.364,0,0,1,396.8,461.6Zm-3.8,2.3a1.05,1.05,0,0,0-.5-.9c-.1-2.3-1-3.5-2.4-3.5-.8,0-1.5,1.2-2.1,3.5a21.5,21.5,0,0,0-.6,4.6c0,2.5.6,3.7,1.9,3.7,1.2,0,2.1-1,2.8-2.9A12.037,12.037,0,0,0,393,463.9Z"/>
      <path id="Path_5698" data-name="Path 5698" class="cls-3" d="M423.7,461.2a22.392,22.392,0,0,1-1.2,7c-1.1,3.2-2.5,4.7-4.3,4.7-1.7,0-3.1-1-4.2-3.1-.8,2.2-1.9,3.3-3.6,3.3-2.1,0-3.6-1.4-4.5-4.3a20.5,20.5,0,0,1-1-6.9,39.008,39.008,0,0,1,.2-4,1.6,1.6,0,0,1,1.4-.8,2.976,2.976,0,0,1,1.5.5,1.411,1.411,0,0,1,.8,1.2,11.475,11.475,0,0,1-.2,1.4,4.189,4.189,0,0,0-.2,1.4c0,5.5.6,8.2,1.7,8.2,1.2,0,2-1.5,2.4-4.6.1-1.1.2-3.2.2-6,0-1,.5-1.4,1.7-1.4s1.8.7,1.8,2.1v5.2c0,3.2.6,4.7,1.7,4.7,1,0,1.7-1.1,2.2-3.5a19.544,19.544,0,0,0,.6-4.7,8.024,8.024,0,0,0-.2-2.3,3.609,3.609,0,0,1-.4-.5,1.3,1.3,0,0,1,.4-1.8,1.656,1.656,0,0,1,1.3-.5c.7,0,1.2.6,1.6,1.8A15.867,15.867,0,0,1,423.7,461.2Z"/>
      <path id="Path_5699" data-name="Path 5699" class="cls-3" d="M438.3,469.5c0,1.2-.8,2.2-2.5,2.9a11.623,11.623,0,0,1-4.2.8c-3.9,0-5.8-2.2-5.8-6.6a15.876,15.876,0,0,1,1.3-6c1.1-2.7,2.4-4,3.9-4a7.174,7.174,0,0,1,4.4,1.8c1.6,1.2,2.4,2.5,2.4,3.8a4.251,4.251,0,0,1-2.2,3.9,7.888,7.888,0,0,1-4.7,1.3,4.86,4.86,0,0,1-1.7-.6q.15,3.6,2.1,3.6a6.2,6.2,0,0,0,3.2-.9,6.561,6.561,0,0,1,2-.9Q438.3,468.6,438.3,469.5Zm-4.1-7.1a4.075,4.075,0,0,0-.5-1.8,1.419,1.419,0,0,0-1.4-.8,2.144,2.144,0,0,0-1.9,1.1,4.032,4.032,0,0,0-.6,2.2,1.707,1.707,0,0,0,1.7,1.7Q434.2,464.65,434.2,462.4Z"/>
      <path id="Path_5700" data-name="Path 5700" class="cls-3" d="M444.5,471.8a1.433,1.433,0,0,1-.5,1.1,2.106,2.106,0,0,1-1.3.5c-1.6,0-2.4-2.1-2.4-6.2,0-1.9,0-4.7.1-8.4s.1-6.6.1-8.4a7.173,7.173,0,0,0-.1-1.3,7.173,7.173,0,0,1-.1-1.3,4.339,4.339,0,0,1,2-.8,3.32,3.32,0,0,1,1.6.5,1.723,1.723,0,0,1,.8,1.4,4.4,4.4,0,0,1-.2,1,6.47,6.47,0,0,0-.3,1,36.878,36.878,0,0,0-.5,6.6v7c.1,3.2.3,5.4.8,6.6C444.4,471.3,444.5,471.6,444.5,471.8Z"/>
      <path id="Path_5701" data-name="Path 5701" class="cls-3" d="M450.8,471.8a1.433,1.433,0,0,1-.5,1.1,2.106,2.106,0,0,1-1.3.5c-1.6,0-2.4-2.1-2.4-6.2,0-1.9,0-4.7.1-8.4,0-3.8.1-6.6.1-8.4a7.173,7.173,0,0,0-.1-1.3,7.173,7.173,0,0,1-.1-1.3,4.5,4.5,0,0,1,1.9-.8,3.32,3.32,0,0,1,1.6.5,1.6,1.6,0,0,1,.8,1.4,4.4,4.4,0,0,1-.2,1,6.47,6.47,0,0,0-.3,1,36.878,36.878,0,0,0-.5,6.6v7c.1,3.2.3,5.4.8,6.6A1.7,1.7,0,0,1,450.8,471.8Z"/>
    </g>
  </g>
</svg>
