<svg xmlns="http://www.w3.org/2000/svg" viewBox="0 0 53 40">
  <defs>
    <style>
      .cls-1 {
        fill: #00bcd4;
      }
    </style>
  </defs>
  <g id="mail" transform="translate(0 -4.484)">
    <g id="Group_2011" data-name="Group 2011" transform="translate(0 13.897)">
      <g id="Group_2010" data-name="Group 2010" transform="translate(7.577 14.746)">
        <path id="Path_696" data-name="Path 696" class="cls-1" d="M27.624,30.776a.7.7,0,0,1-.48-.189L19.077,23.1a.685.685,0,0,1-.031-.979.7.7,0,0,1,.99-.031L28.1,29.577a.685.685,0,0,1,.031.979A.7.7,0,0,1,27.624,30.776Z" transform="translate(0.004 -21.898)"/>
        <path id="Path_697" data-name="Path 697" class="cls-1" d="M6.1,30.777a.7.7,0,0,1-.51-.219.686.686,0,0,1,.031-.979l8.068-7.491a.7.7,0,0,1,.99.031.686.686,0,0,1-.031.979L6.584,30.588A.7.7,0,0,1,6.1,30.777Z" transform="translate(-5.404 -21.898)"/>
      </g>
      <path id="Path_698" data-name="Path 698" class="cls-1" d="M39.976,41.856H3.505A3.49,3.49,0,0,1,0,38.388V14.737a3.49,3.49,0,0,1,3.505-3.468H33.264a.694.694,0,1,1,0,1.387H3.505a2.1,2.1,0,0,0-2.1,2.081V38.389a2.1,2.1,0,0,0,2.1,2.081H39.976a2.1,2.1,0,0,0,2.1-2.081V21.378a.7.7,0,0,1,1.4,0V38.389A3.49,3.49,0,0,1,39.976,41.856Z" transform="translate(0 -11.269)"/>
      <path id="Path_699" data-name="Path 699" class="cls-1" d="M21.516,29.769a3.967,3.967,0,0,1-2.584-.921L.823,13.206a.69.69,0,0,1-.067-.979.708.708,0,0,1,.99-.067L19.855,27.8a2.652,2.652,0,0,0,3.312.007L35.125,17.56a.705.705,0,0,1,.988.071.688.688,0,0,1-.072.978L24.083,28.856A3.937,3.937,0,0,1,21.516,29.769Z" transform="translate(0.234 -10.99)"/>
    </g>
    <g id="Group_2012" data-name="Group 2012" transform="translate(32.563 4.484)">
      <path id="Path_700" data-name="Path 700" class="cls-1" d="M33.445,24.7A10.108,10.108,0,1,1,43.662,14.593,10.175,10.175,0,0,1,33.445,24.7Zm0-18.83a8.721,8.721,0,1,0,8.815,8.722A8.78,8.78,0,0,0,33.445,5.87Z" transform="translate(-23.225 -4.484)"/>
      <path id="Path_701" data-name="Path 701" class="cls-1" d="M34.614,16.432a.708.708,0,0,1-.5-.2l-5.962-5.9a.689.689,0,0,1,0-.981.707.707,0,0,1,.991,0l5.962,5.9a.689.689,0,0,1,0,.981A.7.7,0,0,1,34.614,16.432Z" transform="translate(-21.325 -2.679)"/>
      <path id="Path_702" data-name="Path 702" class="cls-1" d="M28.652,16.431a.708.708,0,0,1-.5-.2.689.689,0,0,1,0-.981l5.962-5.9a.707.707,0,0,1,.991,0,.689.689,0,0,1,0,.981l-5.962,5.9A.7.7,0,0,1,28.652,16.431Z" transform="translate(-21.325 -2.679)"/>
    </g>
  </g>
</svg>
