<svg xmlns="http://www.w3.org/2000/svg" viewBox="0 0 586.512 369">
  <defs>
    <style>
      .cls-1, .cls-2 {
        fill: #fff;
      }

      .cls-1 {
        opacity: 0.446;
      }

      .cls-3 {
        fill: #00bcd4;
      }

      .cls-4 {
        fill: #f38f31;
      }
    </style>
  </defs>
  <g id="ok" transform="translate(-20615 -17590.469)">
    <g id="Group_3273" data-name="Group 3273">
      <g id="Group_3197" transform="translate(28920.809 34547.141) rotate(-93)">
        <path id="Path_2457" class="cls-1" d="M17203.8-7399.8s65.6,14.8,102.9,92.8c37.1,78.2,55.2,339.1-23.7,433.4-79,94.6-248.9-23.4-272.6-128s-10.2-280.6,30.2-340C17081-7400.9,17134.7-7422.1,17203.8-7399.8Z"/>
        <g id="Group_3258" data-name="Group 3258" transform="translate(627.52 62.78) rotate(92.862)">
          <path id="Path_2459-2" class="cls-2" d="M-8242.685-16148.848s5.307-83.3,65.783-110.839,249.011-61.777,339.924-18.223,68.586,126.658,46.558,174.718-130.562,73.592-225.882,79.9C-8111.62-16016.884-8271.22-16045.519-8242.685-16148.848Z"/>
        </g>
      </g>
      <g id="Group_3259" data-name="Group 3259" transform="translate(20615.059 17364.975)">
        <path id="Path_5723" data-name="Path 5723" class="cls-3" d="M180.1,336.6a7.989,7.989,0,0,1-.5,2.3,9.852,9.852,0,0,1-4.7,5.2,14.68,14.68,0,0,1-6.9,1.7,11.056,11.056,0,0,1-9.5-4.6,17.749,17.749,0,0,1-2.9-10.4,29.409,29.409,0,0,1,1.7-9.9,18.226,18.226,0,0,1,5.4-8.3,8.771,8.771,0,0,1,5.8-2.3,6.9,6.9,0,0,1,6.4,3.7,14.363,14.363,0,0,1,1.8,7.5,17.3,17.3,0,0,1-1.1,5.2c-.8,2.5-1.8,3.8-2.8,3.8a2.7,2.7,0,0,1-2.6-2.2c.3-.2.8-.6,1.4-1.1.7-.7,1-2.2,1-4.3a19.049,19.049,0,0,0-.6-5.2c-.7-2.2-1.8-3.2-3.3-3.2-1.1,0-2.2.7-3.5,2a13.139,13.139,0,0,0-2.4,3.4,26.522,26.522,0,0,0-2.5,11.9c0,6.9,2.6,10.4,7.8,10.4a7.185,7.185,0,0,0,5.3-1.9,30.9,30.9,0,0,0,2.4-3.5c.7-1.3,1.4-1.9,2.2-1.9a1.974,1.974,0,0,1,1.4.6C179.8,335.9,180.1,336.1,180.1,336.6Z"/>
        <path id="Path_5724" data-name="Path 5724" class="cls-3" d="M201.8,336.3a64.8,64.8,0,0,1-.4,9.1,1.917,1.917,0,0,1-2.1,1.6c-1.9,0-2.7-.9-2.5-2.8a11.986,11.986,0,0,1-5.2,1.2,9.472,9.472,0,0,1-4.9-1.3c-1.9-1-2.8-2.3-2.8-4,0-1.6,1.1-3,3.2-4.4a10.7,10.7,0,0,1,5.5-1.9h4.2v-1.2c0-3.5-1-5.2-3.1-5.2-2.6,0-4,1.2-4,3.7,0,.8-.5,1.2-1.4,1.2a2.9,2.9,0,0,1-1.8-.8,2.218,2.218,0,0,1-.9-1.6,5.974,5.974,0,0,1,2-4.6,6.813,6.813,0,0,1,4.8-1.8C198.6,323.5,201.8,327.8,201.8,336.3Zm-5.1,1.8c0-.7-.5-1-1.5-1-4.2,0-6.2,1-6.2,3,0,1.1.9,1.6,2.8,1.6a6.2,6.2,0,0,0,3.2-.9A3.438,3.438,0,0,0,196.7,338.1Z"/>
        <path id="Path_5725" data-name="Path 5725" class="cls-3" d="M218.8,327.6a5.384,5.384,0,0,1-.1,1.1,2.8,2.8,0,0,1-2.2,1.5,2.226,2.226,0,0,1-1.7-1.1c-.1-1.5-.6-2.2-1.6-2.2-.6,0-1.3,1.6-2.2,4.8a22.711,22.711,0,0,0-.6,5.9,16.745,16.745,0,0,0,.3,4.3,7.908,7.908,0,0,1,.4,1.3,1.723,1.723,0,0,1-.8,1.4,2.618,2.618,0,0,1-1.7.5c-1.8,0-2.7-.8-2.7-2.5a1.952,1.952,0,0,1,.1-.7,1.952,1.952,0,0,0,.1-.7c0-1.7-.1-4.2-.2-7.6-.2-3.3-.2-5.9-.2-7.5,0-1.5.9-2.2,2.7-2.2a2.253,2.253,0,0,1,2.2,1,4.308,4.308,0,0,1,3.1-1.6,3.891,3.891,0,0,1,2.3.7,6.7,6.7,0,0,1,1.8,1.7A2.935,2.935,0,0,1,218.8,327.6Z"/>
        <path id="Path_5726" data-name="Path 5726" class="cls-3" d="M238,333.4a17.455,17.455,0,0,1-1.5,7.6,6.425,6.425,0,0,1-6.1,4,15.263,15.263,0,0,1-4.1-.9v.6c0,1.1-.6,1.7-1.9,1.7a2.7,2.7,0,0,1-2.2-1c-.3-.3-.5-1.3-.7-3.1a23.822,23.822,0,0,1-.2-3.4v-.2l.8-28.2a1.742,1.742,0,0,1,1.9-1,.9.9,0,0,1,.5-.1,2.226,2.226,0,0,1,1.7,1.1,3.669,3.669,0,0,1,.8,2,49.384,49.384,0,0,1-.4,5.8c-.3,2.8-.5,4.7-.5,5.7a4.645,4.645,0,0,1,3.8-1.8,7.144,7.144,0,0,1,4.9,2,9.208,9.208,0,0,1,2.9,4.8A39.377,39.377,0,0,1,238,333.4Zm-4.7-.3c0-4.5-.9-6.8-2.8-6.8-1.6,0-2.8,1.2-3.6,3.5a16.7,16.7,0,0,0-.9,5.5c0,4.2,1.3,6.3,3.8,6.3C232.1,341.6,233.3,338.7,233.3,333.1Z"/>
        <path id="Path_5727" data-name="Path 5727" class="cls-3" d="M259.2,334.9a13.689,13.689,0,0,1-2.2,7.7,8.121,8.121,0,0,1-6.9,3.7,7.736,7.736,0,0,1-6.6-3,11.415,11.415,0,0,1-2.1-7.2,18.231,18.231,0,0,1,2.2-8.5c1.7-3.2,4-4.8,6.8-4.8a6.08,6.08,0,0,1,3.2,1.2C257.4,326.2,259.2,329.9,259.2,334.9Zm-4.4-.1c0-5.1-1.2-7.6-3.7-7.6-1.8,0-3.1,1.1-4,3.2a13.827,13.827,0,0,0-1,5.5c0,4.4,1.3,6.6,4,6.6a3.974,3.974,0,0,0,3.8-2.8A11.285,11.285,0,0,0,254.8,334.8Z"/>
        <path id="Path_5728" data-name="Path 5728" class="cls-3" d="M280.2,344.4a2.061,2.061,0,0,1-1.9,1.1,6.687,6.687,0,0,1-2.8-1v-3.7c0-1.4.1-2.5.1-3.2,0-7.1-1.1-10.7-3.2-10.7-.6,0-1.3.5-2,1.4a15.507,15.507,0,0,0-3.5,10.3,14.867,14.867,0,0,0,.3,2.5,16.086,16.086,0,0,1,.3,2.5,1.255,1.255,0,0,1-.6,1.1,2.389,2.389,0,0,1-1.4.5c-2,0-3-1.3-3-3.8V331a5.739,5.739,0,0,1,.1-1.2,5.739,5.739,0,0,0,.1-1.2c0-.4-.1-1-.2-1.8s-.2-1.3-.2-1.7a2.048,2.048,0,0,1,.9-1.5,2.7,2.7,0,0,1,1.7-.7,3.076,3.076,0,0,1,2.2,1.2l-.1,2c1.2-2,2.8-3,4.5-3a7.015,7.015,0,0,1,3.7,1.2,9.5,9.5,0,0,1,2.9,2.7c1.4,2.5,2,5.9,2,10v7.4Z"/>
        <path id="Path_5729" data-name="Path 5729" class="cls-3" d="M297.4,325.5a9.057,9.057,0,0,1-.4,2.5,10.267,10.267,0,0,0-.4,2.5v10.3a12.713,12.713,0,0,0,.6,3,1.991,1.991,0,0,1-1.7,1.1c-2.1,0-3.3-1-3.5-3.1-.3-3.9-.5-6.8-.5-8.8a64.721,64.721,0,0,1,.4-8.3v-.5c0-.6.5-.9,1.4-.9a7.419,7.419,0,0,1,2.5.5C296.8,324.3,297.4,324.8,297.4,325.5Zm.4-7a2.172,2.172,0,0,1-.8,1.8,2.41,2.41,0,0,1-1.8.7,3.583,3.583,0,0,1-2.4-.9,2.531,2.531,0,0,1-1.1-2.2,2.5,2.5,0,0,1,.8-1.8,2.64,2.64,0,0,1,1.9-.7,3.583,3.583,0,0,1,2.4.9A2.7,2.7,0,0,1,297.8,318.5Z"/>
        <path id="Path_5730" data-name="Path 5730" class="cls-3" d="M318,344.4a2.02,2.02,0,0,1-1.8,1.1,6.687,6.687,0,0,1-2.8-1v-6.9c0-7.1-1.1-10.7-3.2-10.7-.6,0-1.3.5-2,1.4a15.507,15.507,0,0,0-3.5,10.3,14.867,14.867,0,0,0,.3,2.5,16.086,16.086,0,0,1,.3,2.5,1.167,1.167,0,0,1-.7,1.1,2.389,2.389,0,0,1-1.4.5c-2,0-3-1.3-3-3.8V331a5.739,5.739,0,0,1,.1-1.2,5.739,5.739,0,0,0,.1-1.2c0-.4-.1-1-.2-1.8s-.2-1.3-.2-1.7a2.048,2.048,0,0,1,.9-1.5,2.7,2.7,0,0,1,1.7-.7,3.076,3.076,0,0,1,2.2,1.2l-.1,2c1.2-2,2.8-3,4.5-3a7.015,7.015,0,0,1,3.7,1.2,8.086,8.086,0,0,1,2.8,2.7c1.4,2.5,2,5.9,2,10v7.4Z"/>
        <path id="Path_5731" data-name="Path 5731" class="cls-3" d="M331.6,326.9c0,.9-1.4,1.5-4.1,1.9-.1.7-.1,2.4-.1,5v3.3a21.268,21.268,0,0,0,.3,3,21.589,21.589,0,0,1,.3,2.9,1.873,1.873,0,0,1-.8,1.4,2.66,2.66,0,0,1-1.6.6c-.8,0-1.5-.7-2.1-2.2a9.735,9.735,0,0,1-.7-3.2V329a13.764,13.764,0,0,1-2.6-.5c-.9-.3-1.3-.6-1.3-1.1a1.087,1.087,0,0,1,.1-.5c.9-1.2,1.8-1.9,2.9-1.9h.3c.1,0,.2.1.3.1.7,0,1-.8,1-2.5v-3.7a1.978,1.978,0,0,1-.2-1,1.713,1.713,0,0,1,.8-1.2,2.976,2.976,0,0,1,1.5-.5,2.6,2.6,0,0,1,2,1,3.049,3.049,0,0,1,.9,2.1,6.723,6.723,0,0,1-.4,2.4,4.986,4.986,0,0,0-.3,2.4v.2C330.3,324.7,331.6,325.5,331.6,326.9Z"/>
        <path id="Path_5732" data-name="Path 5732" class="cls-3" d="M349.2,340.4c0,1.7-1.1,3-3.4,3.9a14.985,14.985,0,0,1-5.5,1.1c-5.1,0-7.7-2.9-7.7-8.8a21.227,21.227,0,0,1,1.8-8c1.4-3.6,3.2-5.4,5.2-5.4a9.614,9.614,0,0,1,5.9,2.5c2.1,1.6,3.2,3.3,3.2,5.1a5.8,5.8,0,0,1-3,5.2,10.547,10.547,0,0,1-6.2,1.8,5.912,5.912,0,0,1-2.2-.8c.1,3.2,1.1,4.8,2.8,4.8a8.477,8.477,0,0,0,4.3-1.2,8.145,8.145,0,0,1,2.7-1.2C348.5,339.2,349.2,339.6,349.2,340.4Zm-5.4-9.5a4.423,4.423,0,0,0-.7-2.4,2.061,2.061,0,0,0-1.9-1.1,2.739,2.739,0,0,0-2.5,1.4,5.571,5.571,0,0,0-.8,3,1.683,1.683,0,0,0,.7,1.5,2.271,2.271,0,0,0,1.6.6Q343.8,334.05,343.8,330.9Z"/>
        <path id="Path_5733" data-name="Path 5733" class="cls-3" d="M369.9,344.4a2.02,2.02,0,0,1-1.8,1.1,6.687,6.687,0,0,1-2.8-1v-6.9c0-7.1-1.1-10.7-3.2-10.7-.6,0-1.3.5-2,1.4a15.507,15.507,0,0,0-3.5,10.3,14.867,14.867,0,0,0,.3,2.5,16.086,16.086,0,0,1,.3,2.5,1.167,1.167,0,0,1-.7,1.1,2.389,2.389,0,0,1-1.4.5c-2,0-3-1.3-3-3.8V331a5.739,5.739,0,0,1,.1-1.2,5.739,5.739,0,0,0,.1-1.2c0-.4-.1-1-.2-1.8s-.2-1.3-.2-1.7a2.048,2.048,0,0,1,.9-1.5,2.7,2.7,0,0,1,1.7-.7,3.076,3.076,0,0,1,2.2,1.2l-.1,2c1.2-2,2.8-3,4.5-3a7.015,7.015,0,0,1,3.7,1.2,8.086,8.086,0,0,1,2.8,2.7c1.4,2.5,2,5.9,2,10v7.4Z"/>
        <path id="Path_5734" data-name="Path 5734" class="cls-3" d="M390.2,339.7a5.409,5.409,0,0,1-2,4.1,8.55,8.55,0,0,1-5.9,1.9,9.464,9.464,0,0,1-3.5-.7q-6-2.25-6-3.6c0-1.5,1.1-2.2,3.2-2.2h1q.15,1.5,2.4,2.4a7.415,7.415,0,0,0,3.8.6c1-.1,1.5-.4,1.5-1a1.338,1.338,0,0,0-.1-.5,4.331,4.331,0,0,0-.1-.5c0-.1-.6-.4-1.9-.8a19.508,19.508,0,0,1-2.4-.8c-3.8-2.3-5.7-5-5.7-8.2a9.177,9.177,0,0,1,1.6-5.3,5.444,5.444,0,0,1,4.6-2.7,9.07,9.07,0,0,1,4.7,1.6,6.756,6.756,0,0,1,3.2,3.4,6.854,6.854,0,0,1,.4,2.2,6.052,6.052,0,0,1-.2,1.5l-.6,1.5a3.7,3.7,0,0,1-1.9.7,4.86,4.86,0,0,1-1.7-.6c-.8-.4-1.2-.8-1.2-1.1a5.291,5.291,0,0,1,.6-1.3,2.607,2.607,0,0,0,.3-1.1c0-2-.8-3-2.3-3a2.474,2.474,0,0,0-2.2,1.8,7.286,7.286,0,0,0-.5,3c0,1.3,1,2.5,2.8,3.6,1.7.8,3.5,1.5,5.2,2.3C389.3,337.9,390.2,338.8,390.2,339.7Z"/>
        <path id="Path_5735" data-name="Path 5735" class="cls-3" d="M398.8,325.5a9.057,9.057,0,0,1-.4,2.5,10.267,10.267,0,0,0-.4,2.5v10.3a12.713,12.713,0,0,0,.6,3,1.991,1.991,0,0,1-1.7,1.1c-2.1,0-3.3-1-3.5-3.1-.3-3.9-.5-6.8-.5-8.8a64.721,64.721,0,0,1,.4-8.3v-.5c0-.6.5-.9,1.4-.9a7.419,7.419,0,0,1,2.5.5C398.3,324.3,398.8,324.8,398.8,325.5Zm.5-7a2.172,2.172,0,0,1-.8,1.8,2.41,2.41,0,0,1-1.8.7,3.583,3.583,0,0,1-2.4-.9,2.531,2.531,0,0,1-1.1-2.2,2.5,2.5,0,0,1,.8-1.8,2.64,2.64,0,0,1,1.9-.7,3.583,3.583,0,0,1,2.4.9A2.7,2.7,0,0,1,399.3,318.5Z"/>
        <path id="Path_5736" data-name="Path 5736" class="cls-3" d="M411.8,326.9c0,.9-1.4,1.5-4.1,1.9-.1.7-.1,2.4-.1,5v3.3a21.268,21.268,0,0,0,.3,3,21.589,21.589,0,0,1,.3,2.9,1.873,1.873,0,0,1-.8,1.4,2.66,2.66,0,0,1-1.6.6c-.8,0-1.5-.7-2.1-2.2a9.735,9.735,0,0,1-.7-3.2V329a13.764,13.764,0,0,1-2.6-.5c-.9-.3-1.3-.6-1.3-1.1a1.087,1.087,0,0,1,.1-.5c.9-1.2,1.8-1.9,2.9-1.9h.3c.1,0,.2.1.3.1.7,0,1-.8,1-2.5v-3.7a1.978,1.978,0,0,1-.2-1,1.713,1.713,0,0,1,.8-1.2,2.976,2.976,0,0,1,1.5-.5,2.6,2.6,0,0,1,2,1,3.049,3.049,0,0,1,.9,2.1,6.723,6.723,0,0,1-.4,2.4,4.986,4.986,0,0,0-.3,2.4v.2C410.5,324.7,411.8,325.5,411.8,326.9Z"/>
        <path id="Path_5737" data-name="Path 5737" class="cls-3" d="M430.8,325.6c-.3,1.7-.6,3.3-.8,5a33.674,33.674,0,0,0-.5,5v13.6a7.4,7.4,0,0,1-2.1,5.7,8.33,8.33,0,0,1-5.8,2,13.863,13.863,0,0,1-5.3-1.2c-2.3-1-3.5-2.1-3.5-3.5a1.426,1.426,0,0,1,.6-1.2,2.106,2.106,0,0,1,1.3-.5,8.349,8.349,0,0,1,2.2,1.3,6.01,6.01,0,0,0,3.9,1.4,3.9,3.9,0,0,0,3.8-2,9.985,9.985,0,0,0,.7-4.5v-1.9a6.706,6.706,0,0,1-3.7,1.1,6.9,6.9,0,0,1-5.8-2.7A10.128,10.128,0,0,1,414,337c0-.3.2-4.5.5-12.6a6.915,6.915,0,0,1,2.4-.6,6.535,6.535,0,0,1,3,1.2q-1.2,3-1.2,12c0,3.8,1,5.8,2.9,5.8q2.1,0,3.3-3.6a16.105,16.105,0,0,0,.9-5.4v-6.1s-.1-.5-.2-1.7a7.756,7.756,0,0,1,3-1C429,324.6,429.8,324.9,430.8,325.6Z"/>
      </g>
      <g id="Group_3260" data-name="Group 3260" transform="translate(20615.059 17364.975)">
        <path id="Path_5738" data-name="Path 5738" class="cls-4" d="M128.6,460.1a14.883,14.883,0,0,1-2.7,9.1,9.452,9.452,0,0,1-8.1,4.2,10.78,10.78,0,0,1-8.5-4.8,14.636,14.636,0,0,1-1.4-6.8,17.8,17.8,0,0,1,2.7-9.8c2-3.3,4.8-5,8.3-5,3.1,0,5.5,1.4,7.4,4.3A17.5,17.5,0,0,1,128.6,460.1Zm-3.6-.3c0-5.2-1.7-8.3-5-9.3a5.019,5.019,0,0,0-1.2-.2,6.16,6.16,0,0,0-4.2,1.9q-3.3,3-3.3,10.8a9.629,9.629,0,0,0,.3,2,9.136,9.136,0,0,0,1.9,4.2,5.767,5.767,0,0,0,4.3,1.5,6.144,6.144,0,0,0,5.8-3.7A17.435,17.435,0,0,0,125,459.8Z"/>
        <path id="Path_5739" data-name="Path 5739" class="cls-4" d="M150.2,472.7a4.5,4.5,0,0,1-1.9.8,5.037,5.037,0,0,1-1.5-.5v-4.2c0-6.6-.5-10-1.6-10-.8,0-1.5,1-2,3a15.638,15.638,0,0,0-.6,4.1v3.4a4.5,4.5,0,0,0,.2.8,3.091,3.091,0,0,1,.2.8,1.382,1.382,0,0,1-.6,1.1,2.078,2.078,0,0,1-1.2.5,1.936,1.936,0,0,1-1.3-.6,1.729,1.729,0,0,1-.6-1.2v-7c0-2.8-.3-4.2-1-4.2-.1,0-.3.2-.6.7a12.672,12.672,0,0,0-2.7,7.7,14.933,14.933,0,0,0,.2,1.7c.1.8.2,1.3.2,1.7a1.707,1.707,0,0,1-1.7,1.7,1.816,1.816,0,0,1-1.4-.6,5.911,5.911,0,0,1-.4-1.8,8.443,8.443,0,0,1-.2-1.9v-8.2a8.458,8.458,0,0,1,.4-2.4q.6-1.8,1.2-1.8a2.161,2.161,0,0,1,1.4.6,1.379,1.379,0,0,1,.5,1.3,3.23,3.23,0,0,1,2.8-1.8c1.4,0,2.6,1,3.5,2.9a8.775,8.775,0,0,1,1.3-2.3,2.99,2.99,0,0,1,2.3-1.1,3.937,3.937,0,0,1,2.8,1.5c1.6,1.7,2.5,4.5,2.5,8.6v6.7Z"/>
        <path id="Path_5740" data-name="Path 5740" class="cls-4" d="M166.1,466.4a52.162,52.162,0,0,1-.3,6.8c-.1.8-.7,1.2-1.6,1.2-1.4,0-2-.7-1.9-2.1a8.909,8.909,0,0,1-3.9.9,7.106,7.106,0,0,1-3.7-1,3.48,3.48,0,0,1-2.1-3q0-1.8,2.4-3.3a7.757,7.757,0,0,1,4.1-1.4h3.2v-.9c0-2.6-.8-3.9-2.3-3.9q-3,0-3,2.7c0,.6-.4.9-1,.9a1.936,1.936,0,0,1-1.3-.6,1.546,1.546,0,0,1-.7-1.2,4.691,4.691,0,0,1,1.5-3.5,5.154,5.154,0,0,1,3.6-1.3C163.8,456.8,166.1,460,166.1,466.4Zm-3.8,1.4c0-.5-.4-.8-1.1-.8-3.1,0-4.7.7-4.7,2.2q0,1.2,2.1,1.2a4.423,4.423,0,0,0,2.4-.7A2.2,2.2,0,0,0,162.3,467.8Z"/>
        <path id="Path_5741" data-name="Path 5741" class="cls-4" d="M178.9,459.9a2.485,2.485,0,0,1-.1.8,1.979,1.979,0,0,1-1.6,1.1,1.7,1.7,0,0,1-1.3-.8c-.1-1.1-.4-1.7-1.2-1.7-.5,0-1,1.2-1.6,3.6a16.625,16.625,0,0,0-.5,4.4,15.613,15.613,0,0,0,.2,3.2,3.259,3.259,0,0,1,.3,1,1.1,1.1,0,0,1-.6,1,2.836,2.836,0,0,1-1.3.4c-1.3,0-2-.6-2-1.9a1.087,1.087,0,0,1,.1-.5,1.087,1.087,0,0,0,.1-.5c0-1.3-.1-3.2-.2-5.7s-.2-4.4-.2-5.6c0-1.1.7-1.7,2-1.7.8,0,1.4.2,1.6.7a3.126,3.126,0,0,1,2.4-1.2,3.371,3.371,0,0,1,1.7.5,3.921,3.921,0,0,1,1.3,1.3C178.5,459,178.9,459.5,178.9,459.9Z"/>
        <path id="Path_5742" data-name="Path 5742" class="cls-4" d="M180.8,450.1a1.9,1.9,0,0,1,.8-1.5,2.459,2.459,0,0,1,3.7.3,4.069,4.069,0,0,1,.8,2.4,6.994,6.994,0,0,1-1.3,4.6,9.118,9.118,0,0,1-1.7,1.7,2.7,2.7,0,0,1-1.7.7,1.05,1.05,0,0,1-.9-.5.761.761,0,0,1,.1-.9,7.1,7.1,0,0,0,1.4-1,3.956,3.956,0,0,0,1-1.5,1.986,1.986,0,0,0,.1-1.1,1.2,1.2,0,0,0-.7-1,10.476,10.476,0,0,1-1.1-.8A2.979,2.979,0,0,1,180.8,450.1Z"/>
        <path id="Path_5743" data-name="Path 5743" class="cls-4" d="M198.4,469a4.024,4.024,0,0,1-1.5,3.1,7.387,7.387,0,0,1-7,.9q-4.5-1.65-4.5-2.7c0-1.1.8-1.6,2.4-1.6h.7c.1.8.7,1.3,1.8,1.8a5.757,5.757,0,0,0,2.8.5c.7,0,1.1-.3,1.1-.8a.367.367,0,0,0-.1-.3c0-.1-.1-.3-.1-.4s-.5-.3-1.4-.6a8,8,0,0,1-1.8-.6c-2.9-1.7-4.3-3.8-4.3-6.1a6.979,6.979,0,0,1,1.2-4,4.187,4.187,0,0,1,3.5-2,6.962,6.962,0,0,1,3.5,1.2,5.269,5.269,0,0,1,2.4,2.6,6.134,6.134,0,0,1,.3,1.6,3.087,3.087,0,0,1-.2,1.1c-.1.4-.3.8-.4,1.1a2.979,2.979,0,0,1-1.4.5,4.452,4.452,0,0,1-1.3-.5c-.6-.3-.9-.6-.9-.8a3.52,3.52,0,0,1,.4-1,1.6,1.6,0,0,0,.3-.8c0-1.5-.6-2.2-1.8-2.2-.7,0-1.2.5-1.6,1.4a5.7,5.7,0,0,0-.4,2.2q0,1.5,2.1,2.7l3.9,1.8C197.7,467.7,198.4,468.3,198.4,469Z"/>
        <path id="Path_5744" data-name="Path 5744" class="cls-4" d="M219.6,463.9a14.5,14.5,0,0,1-1.4,6.5,5.429,5.429,0,0,1-5.1,3.5,5.218,5.218,0,0,1-3.1-1v2.2a17.287,17.287,0,0,0,.8,5.7,9.417,9.417,0,0,1,.4,1c0,.8-.5,1.3-1.5,1.3a2.674,2.674,0,0,1-1.7-.4,3.041,3.041,0,0,1-.8-1.9,12.217,12.217,0,0,1-.3-2.2v-9c0-.8,0-2,.1-3.4.1-1.6.2-2.7.2-3.3v-5c0-2.1.7-3.2,2.1-3.2a1.433,1.433,0,0,1,1,.4,1.033,1.033,0,0,1,.4.8c0,.5-.1,1.5-.2,3a4.2,4.2,0,0,1,3.5-2.1,5.129,5.129,0,0,1,4.3,2.2A8.326,8.326,0,0,1,219.6,463.9Zm-3.3-.4c0-2.7-.6-4-1.7-4-.5,0-1.2.5-2,1.5-1.6,1.9-2.4,4.5-2.6,7.8a8,8,0,0,1,1.5,1.6,2.227,2.227,0,0,0,1.7,1C215.2,471.3,216.3,468.7,216.3,463.5Z"/>
        <path id="Path_5745" data-name="Path 5745" class="cls-4" d="M226.5,471.8a1.433,1.433,0,0,1-.5,1.1,2.106,2.106,0,0,1-1.3.5c-1.6,0-2.4-2.1-2.4-6.2,0-1.9,0-4.7.1-8.4,0-3.8.1-6.6.1-8.4a7.173,7.173,0,0,0-.1-1.3,7.173,7.173,0,0,1-.1-1.3,4.5,4.5,0,0,1,1.9-.8,3.32,3.32,0,0,1,1.6.5,1.723,1.723,0,0,1,.8,1.4,4.4,4.4,0,0,1-.2,1,6.473,6.473,0,0,0-.3,1,36.877,36.877,0,0,0-.5,6.6v7c.1,3.2.3,5.4.8,6.6C226.4,471.3,226.5,471.6,226.5,471.8Z"/>
        <path id="Path_5746" data-name="Path 5746" class="cls-4" d="M241.6,466.4a52.162,52.162,0,0,1-.3,6.8c-.1.8-.7,1.2-1.6,1.2-1.4,0-2-.7-1.9-2.1a8.909,8.909,0,0,1-3.9.9,7.106,7.106,0,0,1-3.7-1,3.48,3.48,0,0,1-2.1-3q0-1.8,2.4-3.3a7.757,7.757,0,0,1,4.1-1.4h3.2v-.9c0-2.6-.8-3.9-2.3-3.9q-3,0-3,2.7c0,.6-.4.9-1,.9a1.936,1.936,0,0,1-1.3-.6,1.546,1.546,0,0,1-.7-1.2A4.691,4.691,0,0,1,231,458a5.154,5.154,0,0,1,3.6-1.3C239.3,456.8,241.6,460,241.6,466.4Zm-3.8,1.4c0-.5-.4-.8-1.1-.8-3.1,0-4.7.7-4.7,2.2q0,1.2,2.1,1.2a4.423,4.423,0,0,0,2.4-.7A2.2,2.2,0,0,0,237.8,467.8Z"/>
        <path id="Path_5747" data-name="Path 5747" class="cls-4" d="M258,472.5a1.615,1.615,0,0,1-1.4.9,4.6,4.6,0,0,1-2.1-.8v-5.2c0-5.3-.8-8-2.4-8a2.456,2.456,0,0,0-1.5,1,11.677,11.677,0,0,0-2.6,7.8c0,.4.1,1.1.2,1.9a7.57,7.57,0,0,1,.2,1.9c0,.4-.2.6-.5.9a2.016,2.016,0,0,1-1.1.3c-1.5,0-2.2-1-2.2-2.8v-7.8a3.444,3.444,0,0,1,.1-.9c0-.4.1-.7.1-.9a7.173,7.173,0,0,0-.1-1.3,7.173,7.173,0,0,1-.1-1.3,1.269,1.269,0,0,1,.7-1.1,1.951,1.951,0,0,1,1.3-.5,2.592,2.592,0,0,1,1.7.9l-.1,1.5a3.954,3.954,0,0,1,3.4-2.2,5.409,5.409,0,0,1,2.8.9,5.807,5.807,0,0,1,2.1,2,16.121,16.121,0,0,1,1.5,7.5v5.3Z"/>
        <path id="Path_5748" data-name="Path 5748" class="cls-4" d="M268.2,459.4c0,.7-1,1.2-3.1,1.4,0,.5-.1,1.8-.1,3.8v2.5c0,.5.1,1.2.2,2.2s.2,1.7.2,2.2a1.382,1.382,0,0,1-.6,1.1,2.078,2.078,0,0,1-1.2.5c-.6,0-1.2-.5-1.6-1.6a6.874,6.874,0,0,1-.5-2.4v-8c-1.2-.2-1.8-.3-2-.3-.7-.2-1-.5-1-.9a.367.367,0,0,1,.1-.3,2.759,2.759,0,0,1,2.2-1.4h.4c.5,0,.8-.6.8-1.8v-2.7a2.544,2.544,0,0,1-.2-.7,1.209,1.209,0,0,1,.6-.9,1.666,1.666,0,0,1,1.1-.4,2.084,2.084,0,0,1,1.5.7,2.13,2.13,0,0,1,.7,1.6,5.663,5.663,0,0,1-.3,1.8,3.722,3.722,0,0,0-.2,1.8v.2C267.2,457.8,268.2,458.4,268.2,459.4Z"/>
        <path id="Path_5749" data-name="Path 5749" class="cls-4" d="M280.4,458.3a8.077,8.077,0,0,1-.3,1.9,8.9,8.9,0,0,0-.3,1.9v7.7a7.872,7.872,0,0,0,.4,2.2q-.6.9-1.2.9a2.314,2.314,0,0,1-2.6-2.4c-.3-2.9-.4-5.1-.4-6.6a53.426,53.426,0,0,1,.3-6.2v-.4c0-.4.3-.7,1-.7a4.638,4.638,0,0,1,1.9.4C280,457.4,280.4,457.8,280.4,458.3Zm.4-5.2a1.612,1.612,0,0,1-.6,1.3,1.741,1.741,0,0,1-1.4.5,2.41,2.41,0,0,1-1.8-.7,2.289,2.289,0,0,1-.8-1.7,1.612,1.612,0,0,1,.6-1.3,2.448,2.448,0,0,1,3.2.2A2.289,2.289,0,0,1,280.8,453.1Z"/>
        <path id="Path_5750" data-name="Path 5750" class="cls-4" d="M294,469a4.024,4.024,0,0,1-1.5,3.1,7.387,7.387,0,0,1-7,.9q-4.5-1.65-4.5-2.7c0-1.1.8-1.6,2.4-1.6h.7c.1.8.7,1.3,1.8,1.8a5.757,5.757,0,0,0,2.8.5c.7,0,1.1-.3,1.1-.8a.367.367,0,0,0-.1-.3c0-.1-.1-.3-.1-.4s-.5-.3-1.4-.6a8,8,0,0,1-1.8-.6c-2.9-1.7-4.3-3.8-4.3-6.1a6.978,6.978,0,0,1,1.2-4,4.187,4.187,0,0,1,3.5-2,6.962,6.962,0,0,1,3.5,1.2,5.269,5.269,0,0,1,2.4,2.6,6.133,6.133,0,0,1,.3,1.6,3.087,3.087,0,0,1-.2,1.1c-.1.4-.3.8-.4,1.1a2.979,2.979,0,0,1-1.4.5,4.452,4.452,0,0,1-1.3-.5c-.6-.3-.9-.6-.9-.8a3.52,3.52,0,0,1,.4-1,1.6,1.6,0,0,0,.3-.8c0-1.5-.6-2.2-1.8-2.2-.7,0-1.2.5-1.6,1.4a5.7,5.7,0,0,0-.4,2.2q0,1.5,2.1,2.7l3.9,1.8C293.2,467.7,294,468.3,294,469Z"/>
        <path id="Path_5751" data-name="Path 5751" class="cls-4" d="M308.5,458.4a12.672,12.672,0,0,0-.8,3.5c0,1.6,0,4,.1,7.3.1,3.2.1,5.7.1,7.3a8.154,8.154,0,0,1-1.4,4.7,4.841,4.841,0,0,1-4.2,2.2,9.478,9.478,0,0,1-4-1.3c-2-.9-2.9-1.8-2.9-2.5,0-.9.5-1.3,1.5-1.3a2.92,2.92,0,0,1,.9.2,4.881,4.881,0,0,0,3.8,1.9c2.1,0,3.1-1.9,3.1-5.7,0-.1-.1-5.4-.3-16l.6-.7a8.2,8.2,0,0,1,1.8-.3C307.3,457.5,307.9,457.8,308.5,458.4Zm.1-3.5a1.746,1.746,0,0,1-.7,1.4,2.26,2.26,0,0,1-1.5.5,1.91,1.91,0,0,1-1.2-.7,4.636,4.636,0,0,1-1-1,1.949,1.949,0,0,1-.1-.8c0-1.2.6-1.8,1.9-1.8a2.805,2.805,0,0,1,1.9.7A2.609,2.609,0,0,1,308.6,454.9Z"/>
        <path id="Path_5752" data-name="Path 5752" class="cls-4" d="M322.1,459.4a30.493,30.493,0,0,1-.3,3.5,30.486,30.486,0,0,0-.3,3.5c0,.7,0,1.7.1,3.1s.1,2.4.1,3.1q0,.9-1.5.9a1.843,1.843,0,0,1-1.9-1.4,5.409,5.409,0,0,1-2.8.9,6.457,6.457,0,0,1-2.5-.6,5.4,5.4,0,0,1-2-1.4,9.173,9.173,0,0,1-1.1-5.1c0-.8,0-2.2.1-4.2.1-1.8.1-3.2.1-4.2a4.061,4.061,0,0,1,1.9-.8,1.591,1.591,0,0,1,1.8,1.8c0,.4-.1,1-.2,1.8s-.2,1.4-.2,1.8v5.3a4.89,4.89,0,0,0,.5,1.9c.4.8.9,1.1,1.4,1.1q1.65,0,2.4-2.1a9.245,9.245,0,0,0,.5-3.5v-4.5a6.321,6.321,0,0,0-.5-2.1,2.593,2.593,0,0,1,1.8-.9,2.452,2.452,0,0,1,1.6.6A2.151,2.151,0,0,1,322.1,459.4Z"/>
        <path id="Path_5753" data-name="Path 5753" class="cls-4" d="M336.6,469a4.024,4.024,0,0,1-1.5,3.1,7.387,7.387,0,0,1-7,.9q-4.5-1.65-4.5-2.7c0-1.1.8-1.6,2.4-1.6h.7c.1.8.7,1.3,1.8,1.8a5.757,5.757,0,0,0,2.8.5c.7,0,1.1-.3,1.1-.8a.367.367,0,0,0-.1-.3c0-.1-.1-.3-.1-.4s-.5-.3-1.4-.6a8,8,0,0,1-1.8-.6c-2.9-1.7-4.3-3.8-4.3-6.1a6.978,6.978,0,0,1,1.2-4,4.187,4.187,0,0,1,3.5-2,6.962,6.962,0,0,1,3.5,1.2,5.269,5.269,0,0,1,2.4,2.6,6.133,6.133,0,0,1,.3,1.6,3.087,3.087,0,0,1-.2,1.1c-.1.4-.3.8-.4,1.1a2.979,2.979,0,0,1-1.4.5,4.452,4.452,0,0,1-1.3-.5c-.6-.3-.9-.6-.9-.8a3.52,3.52,0,0,1,.4-1,1.6,1.6,0,0,0,.3-.8c0-1.5-.6-2.2-1.8-2.2-.7,0-1.2.5-1.6,1.4a5.7,5.7,0,0,0-.4,2.2q0,1.5,2.1,2.7l3.9,1.8C335.8,467.7,336.6,468.3,336.6,469Z"/>
        <path id="Path_5754" data-name="Path 5754" class="cls-4" d="M347.8,459.4c0,.7-1,1.2-3.1,1.4,0,.5-.1,1.8-.1,3.8v2.5c0,.5.1,1.2.2,2.2s.2,1.7.2,2.2a1.382,1.382,0,0,1-.6,1.1,2.078,2.078,0,0,1-1.2.5c-.6,0-1.2-.5-1.6-1.6a6.874,6.874,0,0,1-.5-2.4v-8c-1.2-.2-1.8-.3-2-.3-.7-.2-1-.5-1-.9a.367.367,0,0,1,.1-.3,2.759,2.759,0,0,1,2.2-1.4h.4c.5,0,.8-.6.8-1.8v-2.7a2.544,2.544,0,0,1-.2-.7,1.209,1.209,0,0,1,.6-.9,1.666,1.666,0,0,1,1.1-.4,2.084,2.084,0,0,1,1.5.7,2.13,2.13,0,0,1,.7,1.6,5.663,5.663,0,0,1-.3,1.8,3.722,3.722,0,0,0-.2,1.8v.2C346.9,457.8,347.8,458.4,347.8,459.4Z"/>
        <path id="Path_5755" data-name="Path 5755" class="cls-4" d="M369.6,466.4a52.166,52.166,0,0,1-.3,6.8c-.1.8-.7,1.2-1.6,1.2-1.4,0-2-.7-1.9-2.1a8.909,8.909,0,0,1-3.9.9,7.107,7.107,0,0,1-3.7-1,3.48,3.48,0,0,1-2.1-3q0-1.8,2.4-3.3a7.757,7.757,0,0,1,4.1-1.4h3.2v-.9c0-2.6-.8-3.9-2.3-3.9q-3,0-3,2.7c0,.6-.4.9-1,.9a1.936,1.936,0,0,1-1.3-.6,1.546,1.546,0,0,1-.7-1.2A4.691,4.691,0,0,1,359,458a5.154,5.154,0,0,1,3.6-1.3C367.2,456.8,369.6,460,369.6,466.4Zm-3.8,1.4c0-.5-.4-.8-1.1-.8-3.1,0-4.7.7-4.7,2.2q0,1.2,2.1,1.2a4.2,4.2,0,0,0,2.4-.7A2.412,2.412,0,0,0,365.8,467.8Z"/>
        <path id="Path_5756" data-name="Path 5756" class="cls-4" d="M384.8,464.3a12.32,12.32,0,0,1-1.2,5.7,4.8,4.8,0,0,1-4.5,3,9.807,9.807,0,0,1-3.1-.7v.5c0,.8-.5,1.2-1.4,1.2a2.289,2.289,0,0,1-1.7-.8,5.022,5.022,0,0,1-.5-2.3c-.1-1.1-.2-2-.2-2.6v-.1l.6-21.2a1.426,1.426,0,0,1,1.4-.8c.1,0,.2-.1.4-.1a1.7,1.7,0,0,1,1.3.8,2.4,2.4,0,0,1,.6,1.5,40.473,40.473,0,0,1-.3,4.3c-.2,2.1-.4,3.5-.4,4.3a3.41,3.41,0,0,1,2.8-1.3,5.305,5.305,0,0,1,3.7,1.5,6.654,6.654,0,0,1,2.1,3.6A11.2,11.2,0,0,1,384.8,464.3Zm-3.5-.3q0-5.1-2.1-5.1c-1.2,0-2.1.9-2.7,2.6a11.582,11.582,0,0,0-.7,4.2c0,3.2.9,4.7,2.8,4.7C380.4,470.4,381.3,468.3,381.3,464Z"/>
        <path id="Path_5757" data-name="Path 5757" class="cls-4" d="M400.7,465.4a10.164,10.164,0,0,1-1.7,5.8,6.553,6.553,0,0,1-10.2.5,8.665,8.665,0,0,1-1.5-5.4,13.323,13.323,0,0,1,1.7-6.4q1.95-3.6,5.1-3.6a4.489,4.489,0,0,1,2.4.9C399.3,458.9,400.7,461.6,400.7,465.4Zm-3.3-.1c0-3.8-.9-5.7-2.8-5.7q-1.95,0-3,2.4a10.842,10.842,0,0,0-.8,4.2c0,3.3,1,5,3,5a2.933,2.933,0,0,0,2.8-2.1A7.378,7.378,0,0,0,397.4,465.3Z"/>
        <path id="Path_5758" data-name="Path 5758" class="cls-4" d="M415.5,459.4a30.493,30.493,0,0,1-.3,3.5,30.486,30.486,0,0,0-.3,3.5c0,.7,0,1.7.1,3.1s.1,2.4.1,3.1q0,.9-1.5.9a1.843,1.843,0,0,1-1.9-1.4,5.409,5.409,0,0,1-2.8.9,6.457,6.457,0,0,1-2.5-.6,5.4,5.4,0,0,1-2-1.4,9.173,9.173,0,0,1-1.1-5.1c0-.8,0-2.2.1-4.2.1-1.8.1-3.2.1-4.2a4.061,4.061,0,0,1,1.9-.8,1.591,1.591,0,0,1,1.8,1.8c0,.4-.1,1-.2,1.8s-.2,1.4-.2,1.8v5.3a4.89,4.89,0,0,0,.5,1.9c.4.8.9,1.1,1.4,1.1q1.65,0,2.4-2.1a9.245,9.245,0,0,0,.5-3.5v-4.5a6.321,6.321,0,0,0-.5-2.1,2.593,2.593,0,0,1,1.8-.9,2.452,2.452,0,0,1,1.6.6A2.151,2.151,0,0,1,415.5,459.4Z"/>
        <path id="Path_5759" data-name="Path 5759" class="cls-4" d="M426.5,459.4c0,.7-1,1.2-3.1,1.4,0,.5-.1,1.8-.1,3.8v2.5c0,.5.1,1.2.2,2.2s.2,1.7.2,2.2a1.382,1.382,0,0,1-.6,1.1,2.078,2.078,0,0,1-1.2.5c-.6,0-1.2-.5-1.6-1.6a6.874,6.874,0,0,1-.5-2.4v-8c-1.2-.2-1.8-.3-2-.3-.7-.2-1-.5-1-.9a.367.367,0,0,1,.1-.3,2.908,2.908,0,0,1,2.2-1.4h.4c.5,0,.8-.6.8-1.8v-2.7a2.544,2.544,0,0,1-.2-.7,1.209,1.209,0,0,1,.6-.9,1.666,1.666,0,0,1,1.1-.4,2.084,2.084,0,0,1,1.5.7,2.13,2.13,0,0,1,.7,1.6,5.663,5.663,0,0,1-.3,1.8,3.722,3.722,0,0,0-.2,1.8v.2C425.5,457.8,426.5,458.4,426.5,459.4Z"/>
        <path id="Path_5760" data-name="Path 5760" class="cls-4" d="M455.4,460.1a14.882,14.882,0,0,1-2.7,9.1,9.452,9.452,0,0,1-8.1,4.2,10.78,10.78,0,0,1-8.5-4.8,14.636,14.636,0,0,1-1.4-6.8,17.8,17.8,0,0,1,2.7-9.8c2-3.3,4.8-5,8.3-5a8.161,8.161,0,0,1,7.3,4.3A16.615,16.615,0,0,1,455.4,460.1Zm-3.6-.3c0-5.2-1.7-8.3-5-9.3a4.3,4.3,0,0,0-1.2-.2,6.16,6.16,0,0,0-4.2,1.9q-3.3,3-3.3,10.8a9.63,9.63,0,0,0,.3,2,9.137,9.137,0,0,0,1.9,4.2,5.767,5.767,0,0,0,4.3,1.5,6.144,6.144,0,0,0,5.8-3.7A17.434,17.434,0,0,0,451.8,459.8Z"/>
        <path id="Path_5761" data-name="Path 5761" class="cls-4" d="M478.9,469.8a1.769,1.769,0,0,1-1.2,1.6,5.374,5.374,0,0,1-2.1.5c-3.5,0-7-3.2-10.5-9.8-2.1,2.4-3.1,4.1-3.1,5a9.882,9.882,0,0,0,.9,4.9l.1,1a2.235,2.235,0,0,1-1.7.9c-.8,0-1.5-.7-2.1-2s-.8-5.9-.8-13.9a65.369,65.369,0,0,1,.5-9.5,1.727,1.727,0,0,1,1.7-1.6,3.465,3.465,0,0,1,2,.7c.7.5,1.1,1,1.1,1.5a.984.984,0,0,1-.3.8l-.6.3c-.2.2-.4,1.9-.6,5.2-.2,2.6-.2,4.5-.3,5.9,6.7-9.2,11-13.8,12.7-13.8a2.92,2.92,0,0,1,.9.2,10.474,10.474,0,0,1,.8,1.1,2.772,2.772,0,0,1,.5,1.2.909.909,0,0,1-.4.8,1.234,1.234,0,0,1-.8.4,3.091,3.091,0,0,1-.8-.2l-.1-.1c-.6.1-1.8,1.2-3.7,3.4-1.8,2.2-2.8,3.6-2.8,4.3,0,1.5.8,3.5,2.5,6.2,1.7,2.9,3.3,4.3,4.6,4.3a3.26,3.26,0,0,0,1-.3,3.457,3.457,0,0,1,1.2-.3C478.4,468.6,478.9,469,478.9,469.8Z"/>
      </g>
    </g>
  </g>
</svg>
