<svg xmlns="http://www.w3.org/2000/svg" viewBox="0 0 32 18">
  <defs>
    <style>
      .cls-1 {
        fill: #fff;
      }
    </style>
  </defs>
  <g id="microbit" transform="translate(-0.21 -1.684)">
    <g id="g13254" transform="translate(0.211 1.685)">
      <path id="path13262" class="cls-1" d="M22.811,12.634a1.812,1.812,0,0,0,1.825-1.825,1.858,1.858,0,0,0-1.825-1.825,1.812,1.812,0,0,0-1.825,1.825,1.858,1.858,0,0,0,1.825,1.825" transform="translate(-0.164 -1.809)"/>
      <path id="path13270" class="cls-1" d="M9.335,8.984A1.812,1.812,0,0,0,7.51,10.809,1.825,1.825,0,1,0,9.335,8.984" transform="translate(-0.194 -1.809)"/>
      <path id="path13278" class="cls-1" d="M9.353,5.285a5.4,5.4,0,1,0,0,10.8H23.068a5.4,5.4,0,1,0,0-10.8H9.353m13.714,14.4H9.353a9.054,9.054,0,0,1-9.143-9,9.054,9.054,0,0,1,9.143-9H23.068a9.054,9.054,0,0,1,9.143,9,9.1,9.1,0,0,1-9.143,9" transform="translate(-0.211 -1.685)"/>
    </g>
  </g>
</svg>
