<svg xmlns="http://www.w3.org/2000/svg" viewBox="0 0 114.299 20">
  <defs>
    <style>
      .cls-1 {
        fill: none;
      }

      .cls-2 {
        fill: #fff;
      }
    </style>
  </defs>
  <g id="download" transform="translate(0)">
    <rect id="backgroundrect" class="cls-1" width="114.299" height="20"/>
    <g id="g9" transform="translate(0.577 0.426)">
      <path id="path21" class="cls-2" d="M23.184,11.6a1.778,1.778,0,1,1,1.777-1.779A1.777,1.777,0,0,1,23.184,11.6M10.138,8.051a1.777,1.777,0,1,0,1.775,1.775,1.777,1.777,0,0,0-1.775-1.775m0-3.5h13.2a5.28,5.28,0,0,1,0,10.559h-13.2a5.28,5.28,0,1,1,0-10.559m13.2,14.078a8.8,8.8,0,0,0,0-17.6h-13.2a8.8,8.8,0,0,0,0,17.6h13.2M88.886,5.79A1.55,1.55,0,1,0,87.33,7.352,1.55,1.55,0,0,0,88.886,5.79ZM49.834,8.974c0-2.786-1.692-4.732-4.111-4.732a3.954,3.954,0,0,0-3.054,1.444,3.861,3.861,0,0,0-3-1.444c-2.434,0-4.132,1.947-4.132,4.732v6.12h2.229V8.87c0-1.413.781-2.4,1.9-2.4.946,0,1.9.824,1.9,2.4v6.225h2.25V8.87c0-1.413.782-2.4,1.9-2.4,1.089,0,1.881,1.01,1.881,2.4v6.225h2.23V8.974ZM53.9,4.511H51.651V15.094H53.9Zm.333-3A1.431,1.431,0,0,0,52.775.078a1.4,1.4,0,0,0-1.434,1.435,1.431,1.431,0,0,0,1.434,1.458A1.458,1.458,0,0,0,54.232,1.513ZM64.949,13.742l.337-.3-1.654-1.554-.285.266a3.322,3.322,0,1,1,0-4.666l.3.269,1.607-1.638-.287-.294A5.283,5.283,0,0,0,61.04,4.243,5.48,5.48,0,0,0,55.6,9.8a5.477,5.477,0,0,0,1.569,3.921,5.375,5.375,0,0,0,3.868,1.644,5.746,5.746,0,0,0,3.907-1.625ZM69.189,9.68c0-1.943.67-2.74,2.466-2.941l.375-.041V4.478l-.454.034c-3.292.268-4.762,1.9-4.762,5.291V15.1h2.375V9.68Zm12.863,4.048a5.5,5.5,0,0,0,1.6-3.927,5.488,5.488,0,0,0-1.592-3.919,5.352,5.352,0,0,0-7.712,0,5.625,5.625,0,0,0,0,7.841,5.35,5.35,0,0,0,7.709,0ZM81.333,9.8a3.2,3.2,0,0,1-3.144,3.313A3.228,3.228,0,0,1,75.063,9.8a3.141,3.141,0,1,1,6.27,0Zm7.553,3.753a1.55,1.55,0,1,0-3.1,0,1.55,1.55,0,0,0,3.1,0Zm11.407.173a5.5,5.5,0,0,0,1.6-3.927,5.569,5.569,0,0,0-1.6-3.919,5.449,5.449,0,0,0-7.051-.6V-.526H91.011l0,9.111c-.022.24-.022.48-.022.7,0,3.578,2.243,6.079,5.456,6.079a5.347,5.347,0,0,0,3.843-1.637Zm-.592-3.9a3.284,3.284,0,0,1-3.251,3.31A3.245,3.245,0,0,1,93.2,9.824a3.251,3.251,0,1,1,6.5,0Zm6.363-5.312h-2.249V15.094h2.249V4.511Zm.334-3A1.432,1.432,0,0,0,104.94.078,1.4,1.4,0,0,0,103.5,1.513a1.431,1.431,0,0,0,1.437,1.458A1.459,1.459,0,0,0,106.4,1.513Zm8.087,11.554-.362-.052c-1.669-.239-2.417-1.23-2.417-3.213v-3h2.779V4.656h-2.779V2.313h-2.273V4.656h-.972V6.8h.972V9.45c0,3.634,1.236,5.223,4.551,5.864l.5.1V13.067h0Z" transform="translate(-1.336 0.526)"/>
    </g>
  </g>
</svg>
