<svg id="minutes" xmlns="http://www.w3.org/2000/svg" viewBox="0 0 25 25">
  <defs>
    <style>
      .cls-1 {
        fill: #fff;
      }
    </style>
  </defs>
  <path id="Path_8086" data-name="Path 8086" class="cls-1" d="M12.5,0A12.5,12.5,0,1,0,25,12.5,12.5,12.5,0,0,0,12.5,0Zm.286,2.7a1.116,1.116,0,0,1,1.052-.539,1.116,1.116,0,0,1,1.052.539,2.814,2.814,0,0,1,.283,1.382,2.8,2.8,0,0,1-.284,1.379A1.117,1.117,0,0,1,13.839,6a1.118,1.118,0,0,1-1.052-.536A2.8,2.8,0,0,1,12.5,4.082,2.814,2.814,0,0,1,12.786,2.7ZM4.4,13.531a1.251,1.251,0,0,0-.033.206.509.509,0,0,1-.488.527.509.509,0,0,1-.488-.527.225.225,0,0,0-.241-.206H2.607a.51.51,0,0,1-.562-.453,1.632,1.632,0,0,1,.231-.719l.837-1.382a.93.93,0,0,1,.721-.42.55.55,0,0,1,.536.562v1.327a.393.393,0,0,0,.063.249c.171-.007.322.177.322.414A.387.387,0,0,1,4.4,13.531Zm2.655.392a1.259,1.259,0,0,1-1.031.43,1.366,1.366,0,0,1-.9-.3,1.077,1.077,0,0,1-.3-.411.439.439,0,0,1,.033-.42.43.43,0,0,1,.359-.193.57.57,0,0,1,.533.278.366.366,0,0,0,.069.109.348.348,0,0,0,.462-.042.559.559,0,0,0,.1-.345.609.609,0,0,0-.094-.351.264.264,0,0,0-.247-.109.5.5,0,0,0-.159.022.25.25,0,0,0-.084.05.777.777,0,0,1-.476.155A.416.416,0,0,1,5,12.653a.581.581,0,0,1-.116-.448l.138-1.086a.625.625,0,0,1,.611-.538H6.7a.508.508,0,0,1,.562.445.508.508,0,0,1-.562.445h-.59a.313.313,0,0,0-.3.238c0,.019-.006.037-.008.053a1.205,1.205,0,0,1,1.6,1.217A1.458,1.458,0,0,1,7.058,13.923Zm2.8-10.36a2.1,2.1,0,0,1,.249-.784,1.329,1.329,0,0,1,.434-.451,1.189,1.189,0,0,1,.651-.176,1.278,1.278,0,0,1,.861.282,1.045,1.045,0,0,1,.264.343.4.4,0,0,1-.018.389.435.435,0,0,1-.367.2c-.128,0-.434-.019-.5-.2a.3.3,0,0,0-.03-.057.205.205,0,0,0-.192-.086c-.1,0-.227.03-.315.263a1.169,1.169,0,0,0-.049.186l.023-.01a1.218,1.218,0,0,1,1.3.278,1.261,1.261,0,0,1,.334.9,1.494,1.494,0,0,1-.318.94A1.206,1.206,0,0,1,11.174,6a1.172,1.172,0,0,1-1.089-.619,2.356,2.356,0,0,1-.258-1.165A5.183,5.183,0,0,1,9.861,3.562Zm2.434,18.853a1.3,1.3,0,0,1-1,.38,1.225,1.225,0,0,1-1.143-.551,1.3,1.3,0,0,1-.141-.365.428.428,0,0,1,.082-.365.458.458,0,0,1,.361-.171c.263,0,.469.126.5.306a.458.458,0,0,0,.038.122.286.286,0,0,0,.3.157.329.329,0,0,0,.235-.093.348.348,0,0,0,.095-.271.278.278,0,0,0-.173-.3.709.709,0,0,0-.195-.041.422.422,0,0,1-.391-.41.415.415,0,0,1,.373-.411.613.613,0,0,0,.175-.037c.061-.027.129-.079.129-.254a.291.291,0,0,0-.071-.208.261.261,0,0,0-.2-.071.243.243,0,0,0-.219.085.366.366,0,0,0-.059.134.519.519,0,0,1-.858.175.332.332,0,0,1-.075-.274,1.79,1.79,0,0,1,.067-.261,1.254,1.254,0,0,1,.3-.433,1.04,1.04,0,0,1,.177-.13,1.392,1.392,0,0,1,.444-.146,1.875,1.875,0,0,1,.246-.015,1.343,1.343,0,0,1,.891.29,1,1,0,0,1,.356.8.911.911,0,0,1-.217.612c-.017.019-.033.037-.05.054.022.018.043.037.065.057a1,1,0,0,1,.308.767A1.256,1.256,0,0,1,12.295,22.416Zm2.753-.156A1.117,1.117,0,0,1,14,22.8a1.118,1.118,0,0,1-1.052-.536,2.8,2.8,0,0,1-.284-1.379,2.815,2.815,0,0,1,.283-1.382A1.116,1.116,0,0,1,14,18.959a1.116,1.116,0,0,1,1.052.539,2.814,2.814,0,0,1,.283,1.382A2.8,2.8,0,0,1,15.048,22.259ZM18.3,18.648a.4.4,0,0,1-.567-.017l-5.05-5.352a.816.816,0,0,1-.184.023.8.8,0,0,1-.6-1.331l3.526-4.017a.8.8,0,0,1,1.206,1.058l-3.31,3.771,5,5.3A.4.4,0,0,1,18.3,18.648Zm1.218-4.89a.506.506,0,1,1-1.007,0V12.21a.241.241,0,0,0-.24-.241c-.32,0-.561-.167-.561-.388a.4.4,0,0,1,.369-.4,1.619,1.619,0,0,0,.2-.025.463.463,0,0,0,.247-.132.432.432,0,0,0,.094-.179c.006-.02.01-.038.014-.055.027-.131.177-.2.446-.2a.506.506,0,0,1,.44.562v2.6Zm3.2-2.678a.508.508,0,0,1-.562.445h-.59a.313.313,0,0,0-.3.238c0,.019-.006.037-.008.053a1.205,1.205,0,0,1,1.6,1.217,1.461,1.461,0,0,1-.339.945,1.259,1.259,0,0,1-1.031.43,1.366,1.366,0,0,1-.9-.3,1.077,1.077,0,0,1-.3-.411.439.439,0,0,1,.033-.42.43.43,0,0,1,.359-.193.57.57,0,0,1,.533.278.366.366,0,0,0,.069.109.348.348,0,0,0,.462-.042.559.559,0,0,0,.1-.345.609.609,0,0,0-.094-.351.264.264,0,0,0-.247-.109.5.5,0,0,0-.159.022.25.25,0,0,0-.084.05.777.777,0,0,1-.476.155.416.416,0,0,1-.321-.146.581.581,0,0,1-.116-.448l.138-1.086a.625.625,0,0,1,.611-.538h1.073A.507.507,0,0,1,22.722,11.08Z" transform="translate(0)"/>
  <path id="Path_8087" data-name="Path 8087" class="cls-1" d="M185.651,268.956a.227.227,0,0,0-.242.185,3.054,3.054,0,0,0-.089.862,4.769,4.769,0,0,0,.022.489,1.056,1.056,0,0,0,.157.515.229.229,0,0,0,.152.046c.093,0,.186-.024.237-.2a4.337,4.337,0,0,0,0-1.717A.222.222,0,0,0,185.651,268.956Z" transform="translate(-171.655 -249.124)"/>
  <path id="Path_8088" data-name="Path 8088" class="cls-1" d="M40.926,163.094s.025.021.085.021h.049a.241.241,0,0,0,.241-.241v-.47l-.351.6C40.92,163.062,40.924,163.09,40.926,163.094Z" transform="translate(-37.907 -150.43)"/>
  <path id="Path_8089" data-name="Path 8089" class="cls-1" d="M147.316,58.268a.548.548,0,0,0,.1-.339.5.5,0,0,0-.1-.349.305.305,0,0,0-.239-.107.32.32,0,0,0-.2.069.434.434,0,0,0-.136.367.511.511,0,0,0,.11.345A.307.307,0,0,0,147.316,58.268Z" transform="translate(-135.909 -53.236)"/>
  <path id="Path_8090" data-name="Path 8090" class="cls-1" d="M183.36,43.2a.229.229,0,0,0,.152.046c.093,0,.186-.024.238-.2a4.338,4.338,0,0,0,0-1.717.222.222,0,0,0-.238-.184.227.227,0,0,0-.242.185,3.057,3.057,0,0,0-.089.862,4.77,4.77,0,0,0,.022.489A1.065,1.065,0,0,0,183.36,43.2Z" transform="translate(-169.674 -38.112)"/>
</svg>
