<svg xmlns="http://www.w3.org/2000/svg" xmlns:xlink="http://www.w3.org/1999/xlink" width="46" height="46" viewBox="0 0 46 46"><defs><path id="ucbza" d="M1386.765 72.429a3.286 3.286 0 0 1-6.571 0V47.786h6.571v24.643zm-14.786-19.715h-19.714a1.643 1.643 0 1 1 0-3.285h19.714a1.643 1.643 0 1 1 0 3.285zm0 6.572h-19.714a1.643 1.643 0 1 1 0-3.286h19.714a1.643 1.643 0 1 1 0 3.286zm0 6.571h-19.714a1.643 1.643 0 1 1 0-3.286h19.714a1.643 1.643 0 1 1 0 3.286zm0 6.572h-19.714a1.643 1.643 0 1 1 0-3.286h19.714a1.643 1.643 0 1 1 0 3.286zm-14.785-31.215h9.857a1.643 1.643 0 1 1 0 3.286h-9.857a1.643 1.643 0 1 1 0-3.286zm31.214 3.286h-8.214v-9.857c0-.907-.736-1.643-1.643-1.643h-32.857c-.908 0-1.643.736-1.643 1.643v37.786a6.571 6.571 0 0 0 6.571 6.571h32.857a6.571 6.571 0 0 0 6.572-6.571V46.143c0-.907-.736-1.643-1.643-1.643z"/></defs><g><g transform="translate(-1344 -33)"><use fill="#fff" xlink:href="#ucbza"/></g></g></svg>