<svg xmlns="http://www.w3.org/2000/svg" viewBox="0 0 33 33">
  <defs>
    <style>
      .cls-1 {
        fill: #2699fb;
      }
    </style>
  </defs>
  <g id="newspaper" transform="translate(0 0)">
    <g id="Group_2415" data-name="Group 2415">
      <path id="Path_2678" data-name="Path 2678" class="cls-1" d="M31.821,8.25H25.929V1.179A1.179,1.179,0,0,0,24.75,0H1.179A1.179,1.179,0,0,0,0,1.179V28.286A4.714,4.714,0,0,0,4.714,33H28.286A4.714,4.714,0,0,0,33,28.286V9.429A1.179,1.179,0,0,0,31.821,8.25ZM9.429,5.893H16.5a1.179,1.179,0,0,1,0,2.357H9.429a1.179,1.179,0,1,1,0-2.357ZM20.036,28.286H5.893a1.179,1.179,0,0,1,0-2.357H20.036a1.179,1.179,0,0,1,0,2.357Zm0-4.714H5.893a1.179,1.179,0,0,1,0-2.357H20.036a1.179,1.179,0,0,1,0,2.357Zm0-4.714H5.893a1.179,1.179,0,0,1,0-2.357H20.036a1.179,1.179,0,0,1,0,2.357Zm0-4.714H5.893a1.179,1.179,0,0,1,0-2.357H20.036a1.179,1.179,0,0,1,0,2.357ZM30.643,28.286a2.357,2.357,0,0,1-4.714,0V10.607h4.714V28.286Z"/>
    </g>
  </g>
</svg>
