<?xml version="1.0" encoding="utf-8"?>
<!-- Generator: Adobe Illustrator 23.0.0, SVG Export Plug-In . SVG Version: 6.00 Build 0)  -->
<svg version="1.1" id="Layer_1" xmlns="http://www.w3.org/2000/svg" xmlns:xlink="http://www.w3.org/1999/xlink" x="0px" y="0px"
	 viewBox="0 0 260 206" style="enable-background:new 0 0 260 206;" xml:space="preserve">
<style type="text/css">
	.st0{opacity:0.3;enable-background:new    ;}
	.st1{fill:#00BCD4;}
	.st2{opacity:0.153;fill:#00BCD4;enable-background:new    ;}
	.st3{opacity:0.153;}
</style>
<g>
	<g class="st0">
		<path class="st1" d="M9.8,171.2H5.9V182H4.3v-10.8H0.4v-1.3h9.3v1.3H9.8z"/>
		<path class="st1" d="M13.2,174.1c0.7-0.8,1.6-1.3,2.7-1.3c1.9,0,2.9,1.1,2.9,3.2v5.9h-1.5V176c0-0.6-0.2-1.1-0.4-1.4
			c-0.3-0.3-0.7-0.5-1.4-0.5c-0.5,0-0.9,0.1-1.3,0.4s-0.7,0.6-0.9,1v6.4h-1.5v-12.8h1.5v5H13.2z"/>
		<path class="st1" d="M25.1,182.2c-1.2,0-2.2-0.4-3-1.2s-1.1-1.9-1.1-3.2v-0.3c0-0.9,0.2-1.7,0.5-2.4s0.8-1.2,1.4-1.6
			c0.6-0.4,1.3-0.6,2-0.6c1.2,0,2.1,0.4,2.7,1.2s1,1.9,1,3.3v0.6h-6.1c0,0.9,0.3,1.6,0.8,2.1s1.1,0.8,1.9,0.8c0.5,0,1-0.1,1.4-0.3
			s0.7-0.5,1-0.9l0.9,0.7C27.7,181.6,26.6,182.2,25.1,182.2z M24.9,174.1c-0.6,0-1.1,0.2-1.6,0.7s-0.7,1.1-0.8,1.9H27v-0.1
			c0-0.8-0.3-1.4-0.6-1.8S25.5,174.1,24.9,174.1z"/>
		<path class="st1" d="M35,174.4c-0.2,0-0.5-0.1-0.8-0.1c-1,0-1.7,0.4-2.1,1.3v6.4h-1.5v-9h1.5v1c0.5-0.8,1.2-1.2,2.1-1.2
			c0.3,0,0.5,0,0.7,0.1L35,174.4L35,174.4z"/>
		<path class="st1" d="M40.4,182.2c-1.2,0-2.2-0.4-3-1.2s-1.1-1.9-1.1-3.2v-0.3c0-0.9,0.2-1.7,0.5-2.4s0.8-1.2,1.4-1.6
			c0.6-0.4,1.3-0.6,2-0.6c1.2,0,2.1,0.4,2.7,1.2c0.6,0.8,1,1.9,1,3.3v0.6h-6.1c0,0.9,0.3,1.6,0.8,2.1s1.1,0.8,1.9,0.8
			c0.5,0,1-0.1,1.4-0.3s0.7-0.5,1-0.9l0.9,0.7C43,181.6,41.9,182.2,40.4,182.2z M40.2,174.1c-0.6,0-1.1,0.2-1.6,0.7
			s-0.7,1.1-0.8,1.9h4.5v-0.1c0-0.8-0.3-1.4-0.6-1.8S40.8,174.1,40.2,174.1z"/>
		<path class="st1" d="M56.1,182c-0.1-0.2-0.2-0.5-0.2-0.9c-0.7,0.7-1.6,1.1-2.6,1.1c-0.9,0-1.6-0.2-2.2-0.8
			c-0.6-0.5-0.9-1.1-0.9-1.9c0-0.9,0.4-1.7,1.1-2.2c0.7-0.5,1.7-0.8,3-0.8h1.5v-0.7c0-0.5-0.2-1-0.5-1.3s-0.8-0.5-1.4-0.5
			c-0.5,0-1,0.1-1.4,0.4c-0.4,0.3-0.6,0.6-0.6,1h-1.5c0-0.4,0.2-0.9,0.5-1.3c0.3-0.4,0.8-0.7,1.3-1c0.5-0.2,1.1-0.4,1.8-0.4
			c1,0,1.8,0.3,2.4,0.8s0.9,1.2,0.9,2.1v4.1c0,0.8,0.1,1.5,0.3,2v0.1h-1.5V182z M53.5,180.8c0.5,0,0.9-0.1,1.4-0.4s0.7-0.6,0.9-1
			v-1.8h-1.2c-1.9,0-2.8,0.5-2.8,1.7c0,0.5,0.2,0.9,0.5,1.1S53,180.8,53.5,180.8z"/>
		<path class="st1" d="M64.5,174.4c-0.2,0-0.5-0.1-0.8-0.1c-1,0-1.7,0.4-2.1,1.3v6.4h-1.5v-9h1.5v1c0.5-0.8,1.2-1.2,2.1-1.2
			c0.3,0,0.5,0,0.7,0.1L64.5,174.4L64.5,174.4z"/>
		<path class="st1" d="M69.8,182.2c-1.2,0-2.2-0.4-3-1.2s-1.1-1.9-1.1-3.2v-0.3c0-0.9,0.2-1.7,0.5-2.4s0.8-1.2,1.4-1.6
			c0.6-0.4,1.3-0.6,2-0.6c1.2,0,2.1,0.4,2.7,1.2s1,1.9,1,3.3v0.6h-6.1c0,0.9,0.3,1.6,0.8,2.1s1.1,0.8,1.9,0.8c0.5,0,1-0.1,1.4-0.3
			s0.7-0.5,1-0.9l0.9,0.7C72.4,181.6,71.3,182.2,69.8,182.2z M69.6,174.1c-0.6,0-1.1,0.2-1.6,0.7s-0.7,1.1-0.8,1.9h4.5v-0.1
			c0-0.8-0.3-1.4-0.6-1.8S70.2,174.1,69.6,174.1z"/>
		<path class="st1" d="M81.4,173v1.1c0.7-0.9,1.6-1.3,2.7-1.3c1.9,0,2.9,1.1,2.9,3.2v5.9h-1.5V176c0-0.6-0.2-1.1-0.4-1.4
			c-0.3-0.3-0.7-0.5-1.4-0.5c-0.5,0-0.9,0.1-1.3,0.4s-0.7,0.6-0.9,1v6.4H80v-9h1.4V173z"/>
		<path class="st1" d="M89.3,177.4c0-0.9,0.2-1.7,0.5-2.4s0.8-1.2,1.4-1.6c0.6-0.4,1.3-0.6,2.1-0.6c1.2,0,2.2,0.4,3,1.3
			c0.8,0.8,1.1,2,1.1,3.4v0.1c0,0.9-0.2,1.7-0.5,2.4s-0.8,1.2-1.4,1.6c-0.6,0.4-1.3,0.6-2.1,0.6c-1.2,0-2.2-0.4-3-1.3
			c-0.8-0.8-1.1-2-1.1-3.4V177.4z M90.8,177.6c0,1,0.2,1.8,0.7,2.4c0.5,0.6,1.1,0.9,1.9,0.9s1.4-0.3,1.9-0.9s0.7-1.5,0.7-2.6
			c0-1-0.2-1.8-0.7-2.4c-0.5-0.6-1.1-0.9-1.9-0.9s-1.4,0.3-1.8,0.9C91,175.6,90.8,176.5,90.8,177.6z"/>
		<path class="st1" d="M107.8,180.9c0.5,0,1-0.2,1.4-0.5s0.6-0.7,0.7-1.2h1.5c0,0.5-0.2,1-0.5,1.5s-0.8,0.8-1.3,1.1
			s-1.1,0.4-1.7,0.4c-1.2,0-2.2-0.4-2.9-1.2c-0.7-0.8-1.1-1.9-1.1-3.3v-0.3c0-0.9,0.2-1.7,0.5-2.3c0.3-0.7,0.8-1.2,1.4-1.6
			c0.6-0.4,1.3-0.6,2.1-0.6c1,0,1.8,0.3,2.5,0.9c0.7,0.6,1,1.4,1.1,2.3H110c0-0.6-0.3-1.1-0.7-1.4c-0.4-0.4-0.9-0.6-1.5-0.6
			c-0.8,0-1.4,0.3-1.8,0.8c-0.4,0.6-0.6,1.4-0.6,2.4v0.3c0,1,0.2,1.8,0.6,2.4S107.1,180.9,107.8,180.9z"/>
		<path class="st1" d="M113.1,177.4c0-0.9,0.2-1.7,0.5-2.4s0.8-1.2,1.4-1.6c0.6-0.4,1.3-0.6,2.1-0.6c1.2,0,2.2,0.4,3,1.3
			c0.8,0.8,1.1,2,1.1,3.4v0.1c0,0.9-0.2,1.7-0.5,2.4s-0.8,1.2-1.4,1.6c-0.6,0.4-1.3,0.6-2.1,0.6c-1.2,0-2.2-0.4-3-1.3
			c-0.8-0.8-1.1-2-1.1-3.4V177.4z M114.6,177.6c0,1,0.2,1.8,0.7,2.4c0.5,0.6,1.1,0.9,1.9,0.9s1.4-0.3,1.9-0.9s0.7-1.5,0.7-2.6
			c0-1-0.2-1.8-0.7-2.4c-0.5-0.6-1.1-0.9-1.9-0.9s-1.4,0.3-1.8,0.9C114.9,175.6,114.6,176.5,114.6,177.6z"/>
		<path class="st1" d="M125,173v1c0.7-0.8,1.5-1.2,2.7-1.2c1.3,0,2.1,0.5,2.6,1.4c0.3-0.4,0.7-0.8,1.2-1s1-0.4,1.7-0.4
			c2,0,3,1,3,3.1v6h-1.5V176c0-0.6-0.1-1.1-0.4-1.4c-0.3-0.3-0.8-0.5-1.5-0.5c-0.6,0-1,0.2-1.4,0.5s-0.6,0.8-0.7,1.4v6H129v-5.9
			c0-1.3-0.6-2-1.9-2c-1,0-1.7,0.4-2.1,1.3v6.6h-1.5v-9L125,173L125,173z"/>
		<path class="st1" d="M140.2,173v1c0.7-0.8,1.5-1.2,2.7-1.2c1.3,0,2.1,0.5,2.6,1.4c0.3-0.4,0.7-0.8,1.2-1s1-0.4,1.7-0.4
			c2,0,3,1,3,3.1v6h-1.5V176c0-0.6-0.1-1.1-0.4-1.4s-0.8-0.5-1.5-0.5c-0.6,0-1,0.2-1.4,0.5s-0.6,0.8-0.7,1.4v6h-1.5v-5.9
			c0-1.3-0.6-2-1.9-2c-1,0-1.7,0.4-2.1,1.3v6.6h-1.5v-9L140.2,173L140.2,173z"/>
		<path class="st1" d="M157.7,182.2c-1.2,0-2.2-0.4-3-1.2s-1.1-1.9-1.1-3.2v-0.3c0-0.9,0.2-1.7,0.5-2.4s0.8-1.2,1.4-1.6
			s1.3-0.6,2-0.6c1.2,0,2.1,0.4,2.7,1.2c0.6,0.8,1,1.9,1,3.3v0.6h-6.1c0,0.9,0.3,1.6,0.8,2.1s1.1,0.8,1.9,0.8c0.5,0,1-0.1,1.4-0.3
			s0.7-0.5,1-0.9l0.9,0.7C160.4,181.6,159.2,182.2,157.7,182.2z M157.5,174.1c-0.6,0-1.1,0.2-1.6,0.7c-0.4,0.5-0.7,1.1-0.8,1.9h4.5
			v-0.1c0-0.8-0.3-1.4-0.6-1.8C158.7,174.3,158.2,174.1,157.5,174.1z"/>
		<path class="st1" d="M164.8,173v1.1c0.7-0.9,1.6-1.3,2.7-1.3c1.9,0,2.9,1.1,2.9,3.2v5.9h-1.5V176c0-0.6-0.2-1.1-0.4-1.4
			c-0.3-0.3-0.7-0.5-1.4-0.5c-0.5,0-0.9,0.1-1.3,0.4s-0.7,0.6-0.9,1v6.4h-1.5v-9h1.4V173z"/>
		<path class="st1" d="M175.1,170.8v2.2h1.7v1.2h-1.7v5.6c0,0.4,0.1,0.6,0.2,0.8c0.1,0.2,0.4,0.3,0.8,0.3c0.2,0,0.4,0,0.7-0.1v1.2
			c-0.4,0.1-0.8,0.2-1.2,0.2c-0.7,0-1.2-0.2-1.6-0.6c-0.3-0.4-0.5-1-0.5-1.8v-5.6H172V173h1.6v-2.2H175.1z"/>
		<path class="st1" d="M184.2,179.6c0-0.4-0.2-0.7-0.5-1s-0.9-0.4-1.6-0.6c-0.8-0.2-1.4-0.4-1.9-0.6c-0.5-0.2-0.8-0.5-1-0.8
			s-0.3-0.7-0.3-1.1c0-0.7,0.3-1.4,0.9-1.9c0.6-0.5,1.4-0.8,2.4-0.8s1.8,0.3,2.5,0.8c0.6,0.5,1,1.2,1,2h-1.5c0-0.4-0.2-0.8-0.5-1.1
			c-0.4-0.3-0.8-0.5-1.3-0.5c-0.6,0-1,0.1-1.3,0.4s-0.5,0.6-0.5,1s0.1,0.7,0.4,0.8s0.8,0.4,1.6,0.5c0.8,0.2,1.4,0.4,1.9,0.6
			c0.5,0.2,0.8,0.5,1.1,0.9c0.2,0.3,0.3,0.7,0.3,1.2c0,0.8-0.3,1.4-1,1.9c-0.6,0.5-1.5,0.7-2.5,0.7c-0.7,0-1.4-0.1-1.9-0.4
			s-1-0.6-1.3-1.1s-0.5-1-0.5-1.5h1.5c0,0.5,0.2,0.9,0.6,1.2s0.9,0.5,1.5,0.5s1-0.1,1.4-0.4S184.2,180,184.2,179.6z"/>
		<path class="st1" d="M195.6,179.8l2.1-6.7h1.6l-3.6,10.4c-0.6,1.5-1.4,2.2-2.7,2.2h-0.3l-0.6-0.1v-1.2h0.4c0.5,0,0.9-0.1,1.2-0.3
			s0.5-0.6,0.7-1.2l0.3-0.9l-3.2-8.9h1.7L195.6,179.8z"/>
		<path class="st1" d="M204.6,182.2c-1.2,0-2.2-0.4-3-1.2s-1.1-1.9-1.1-3.2v-0.3c0-0.9,0.2-1.7,0.5-2.4s0.8-1.2,1.4-1.6
			s1.3-0.6,2-0.6c1.2,0,2.1,0.4,2.7,1.2c0.6,0.8,1,1.9,1,3.3v0.6H202c0,0.9,0.3,1.6,0.8,2.1s1.1,0.8,1.9,0.8c0.5,0,1-0.1,1.4-0.3
			s0.7-0.5,1-0.9l0.9,0.7C207.2,181.6,206.1,182.2,204.6,182.2z M204.4,174.1c-0.6,0-1.1,0.2-1.6,0.7s-0.7,1.1-0.8,1.9h4.5v-0.1
			c0-0.8-0.3-1.4-0.6-1.8S205.1,174.1,204.4,174.1z"/>
		<path class="st1" d="M212.3,170.8v2.2h1.7v1.2h-1.7v5.6c0,0.4,0.1,0.6,0.2,0.8s0.4,0.3,0.8,0.3c0.2,0,0.4,0,0.7-0.1v1.2
			c-0.4,0.1-0.8,0.2-1.2,0.2c-0.7,0-1.2-0.2-1.6-0.6c-0.3-0.4-0.5-1-0.5-1.8v-5.6h-1.6V173h1.6v-2.2H212.3z"/>
		<path class="st1" d="M216.2,181.2c0-0.3,0.1-0.5,0.2-0.7c0.2-0.2,0.4-0.3,0.7-0.3s0.6,0.1,0.7,0.3c0.2,0.2,0.2,0.4,0.2,0.7
			s-0.1,0.5-0.2,0.6c-0.2,0.2-0.4,0.3-0.7,0.3s-0.6-0.1-0.7-0.3C216.3,181.7,216.2,181.4,216.2,181.2z M219.8,181.2
			c0-0.3,0.1-0.5,0.2-0.7c0.2-0.2,0.4-0.3,0.7-0.3s0.6,0.1,0.7,0.3c0.2,0.2,0.2,0.4,0.2,0.7s-0.1,0.5-0.2,0.6
			c-0.2,0.2-0.4,0.3-0.7,0.3s-0.6-0.1-0.7-0.3C219.9,181.7,219.8,181.4,219.8,181.2z M223.3,181.2c0-0.3,0.1-0.5,0.2-0.7
			c0.2-0.2,0.4-0.3,0.7-0.3s0.6,0.1,0.7,0.3c0.2,0.2,0.2,0.4,0.2,0.7s-0.1,0.5-0.2,0.6c-0.2,0.2-0.4,0.3-0.7,0.3s-0.6-0.1-0.7-0.3
			C223.3,181.7,223.3,181.4,223.3,181.2z"/>
	</g>
	<g class="st0">
		<path class="st1" d="M1.4,202v-12.1h4c1.3,0,2.3,0.3,3,0.8s1,1.3,1,2.4c0,0.6-0.2,1.1-0.5,1.5s-0.8,0.8-1.3,1
			c0.7,0.2,1.2,0.5,1.5,1c0.4,0.5,0.6,1.1,0.6,1.8c0,1.1-0.4,1.9-1.1,2.6s-1.7,0.9-3,0.9H1.4V202z M3,195.1h2.4
			c0.7,0,1.3-0.2,1.7-0.5c0.4-0.3,0.6-0.8,0.6-1.4c0-0.7-0.2-1.1-0.6-1.5c-0.4-0.3-1-0.5-1.8-0.5H3V195.1z M3,196.3v4.3h2.6
			c0.7,0,1.3-0.2,1.8-0.6c0.4-0.4,0.6-0.9,0.6-1.6c0-1.5-0.8-2.2-2.4-2.2H3V196.3z"/>
		<path class="st1" d="M15.8,202.2c-1.2,0-2.2-0.4-3-1.2s-1.1-1.9-1.1-3.2v-0.3c0-0.9,0.2-1.7,0.5-2.4s0.8-1.2,1.4-1.6
			c0.6-0.4,1.3-0.6,2-0.6c1.2,0,2.1,0.4,2.7,1.2s1,1.9,1,3.3v0.6h-6.1c0,0.9,0.3,1.6,0.8,2.1s1.1,0.8,1.9,0.8c0.5,0,1-0.1,1.4-0.3
			c0.4-0.2,0.7-0.5,1-0.9l0.9,0.7C18.4,201.6,17.3,202.2,15.8,202.2z M15.6,194.1c-0.6,0-1.1,0.2-1.6,0.7s-0.7,1.1-0.8,1.9h4.5v-0.1
			c0-0.8-0.3-1.4-0.6-1.8S16.3,194.1,15.6,194.1z"/>
		<path class="st1" d="M26.7,202v-7.8h-1.4V193h1.4v-0.9c0-1,0.3-1.7,0.8-2.2s1.2-0.8,2.2-0.8c0.4,0,0.7,0,1.1,0.1l-0.1,1.2
			c-0.3,0-0.5-0.1-0.8-0.1c-0.5,0-0.9,0.1-1.2,0.4c-0.3,0.3-0.4,0.7-0.4,1.3v0.9h1.9v1.2h-1.9v7.8h-1.6V202z"/>
		<path class="st1" d="M32.2,190.6c0-0.2,0.1-0.5,0.2-0.6c0.2-0.2,0.4-0.3,0.7-0.3s0.5,0.1,0.7,0.3s0.2,0.4,0.2,0.6
			c0,0.2-0.1,0.5-0.2,0.6s-0.4,0.2-0.7,0.2s-0.5-0.1-0.7-0.2C32.3,191.1,32.2,190.9,32.2,190.6z M33.9,202h-1.5v-9h1.5V202z"/>
		<path class="st1" d="M41,194.4c-0.2,0-0.5-0.1-0.8-0.1c-1,0-1.7,0.4-2.1,1.3v6.4h-1.5v-9h1.5v1c0.5-0.8,1.2-1.2,2.1-1.2
			c0.3,0,0.5,0,0.7,0.1L41,194.4L41,194.4z"/>
		<path class="st1" d="M48,199.6c0-0.4-0.2-0.7-0.5-1c-0.3-0.2-0.9-0.4-1.6-0.6c-0.8-0.2-1.4-0.4-1.9-0.6c-0.5-0.2-0.8-0.5-1-0.8
			s-0.3-0.7-0.3-1.1c0-0.7,0.3-1.4,0.9-1.9c0.6-0.5,1.4-0.8,2.4-0.8s1.8,0.3,2.5,0.8c0.6,0.5,1,1.2,1,2H48c0-0.4-0.2-0.8-0.5-1.1
			c-0.4-0.3-0.8-0.5-1.3-0.5c-0.6,0-1,0.1-1.3,0.4s-0.5,0.6-0.5,1s0.1,0.7,0.4,0.8s0.8,0.4,1.6,0.5c0.8,0.2,1.4,0.4,1.9,0.6
			c0.5,0.2,0.8,0.5,1.1,0.9c0.2,0.3,0.3,0.7,0.3,1.2c0,0.8-0.3,1.4-1,1.9s-1.5,0.7-2.5,0.7c-0.7,0-1.4-0.1-1.9-0.4s-1-0.6-1.3-1.1
			s-0.5-1-0.5-1.5H44c0,0.5,0.2,0.9,0.6,1.2c0.4,0.3,0.9,0.5,1.5,0.5s1-0.1,1.4-0.4C47.8,200.3,48,200,48,199.6z"/>
		<path class="st1" d="M54,190.8v2.2h1.7v1.2H54v5.6c0,0.4,0.1,0.6,0.2,0.8s0.4,0.3,0.8,0.3c0.2,0,0.4,0,0.7-0.1v1.2
			c-0.4,0.1-0.8,0.2-1.2,0.2c-0.7,0-1.2-0.2-1.6-0.6c-0.3-0.4-0.5-1-0.5-1.8v-5.6h-1.6V193h1.6v-2.2H54z"/>
		<path class="st1" d="M57.9,201.2c0-0.3,0.1-0.5,0.2-0.6c0.2-0.2,0.4-0.3,0.7-0.3s0.5,0.1,0.7,0.3s0.2,0.4,0.2,0.6
			c0,0.3-0.1,0.5-0.2,0.6c-0.2,0.2-0.4,0.2-0.7,0.2s-0.5-0.1-0.7-0.2C58,201.7,57.9,201.5,57.9,201.2z M59.5,198.6h-1.4l-0.1-8.7
			h1.6L59.5,198.6z"/>
	</g>
	<g id="Group_4924" transform="translate(0 5.35)">
		<path id="Rectangle_4430" class="st2" d="M112,11h115c18.2,0,33,14.8,33,33v20c0,18.2-14.8,33-33,33l0,0H79l0,0V44
			C79,25.8,93.8,11,112,11z"/>
		<path id="Rectangle_4433" class="st2" d="M33,55h115c18.2,0,33,14.8,33,33v20c0,18.2-14.8,33-33,33l0,0H0l0,0V88
			C0,69.8,14.8,55,33,55z"/>
	</g>
	<g id="down-arrow_6_" transform="translate(1342.297 595.786) rotate(180)" class="st3">
		<g id="Group_4535" transform="translate(32.304)">
			<path id="Path_8314" class="st1" d="M1282.2,576.3c-0.1-0.3-0.5-0.6-0.8-0.6h-10v-22.8c0-0.5-0.4-0.9-0.9-0.9h-14.6
				c-0.5,0-0.9,0.4-0.9,0.9v22.8h-10c-0.5,0-0.9,0.4-0.9,0.9c0,0.2,0.1,0.5,0.3,0.6l18.2,18.2c0.4,0.4,0.9,0.4,1.3,0l18.2-18.3
				C1282.3,577,1282.3,576.6,1282.2,576.3z"/>
		</g>
	</g>
</g>
</svg>
