<?xml version="1.0" encoding="utf-8"?>
<!-- Generator: Adobe Illustrator 22.1.0, SVG Export Plug-In . SVG Version: 6.00 Build 0)  -->
<svg version="1.1" id="Layer_1" xmlns="http://www.w3.org/2000/svg" xmlns:xlink="http://www.w3.org/1999/xlink" x="0px" y="0px"
	 viewBox="0 0 229.3 281" style="enable-background:new 0 0 229.3 281;" xml:space="preserve">
<style type="text/css">
	.st0{enable-background:new    ;}
	.st1{fill:#FFFFFF;}
</style>
<g class="st0">
	<path class="st1" d="M107.6,106.2c0,8.9-5.2,17.2-15.7,25.2c-3.2,2.6-12.9,8.3-29,17.3c-10.5,5.9-15.7,10.8-15.7,14.7
		c0,1.1,0.7,2.9,2.2,5.4c1.5,2.6,2.1,5,2,7.2v1.4c-1.6,0.4-3.3,0.6-5,0.6c-4.2,0-8.3-1.6-12.5-4.8c-4.6-3.5-6.8-7.2-6.8-11.3
		c0-7,5.2-13.7,15.5-20.1c9.4-5.4,18.8-10.7,28.4-15.9c10.2-6.4,15.3-13,15.3-19.7c0-5.1-2.1-9.2-6.2-12.3c-3.8-2.7-8.3-4-13.7-4
		c-5,0-11.6,2-20,6c-8.4,4-14.5,8-18.2,12.1c5.1,1.2,7.6,3.4,7.6,6.6c0,2.5-1.4,4.9-4.3,7c-2.9,2.1-5.7,3.2-8.4,3.2
		c-3.5,0-7.2-1.7-11.3-5c-4-3.4-6-6.7-6-10.1c0-5.4,4.6-11.8,13.7-19.3c7.8-6.4,14.9-10.8,21.3-13.1c9.4-3.5,16.8-5.2,22.1-5.2
		c9.3,0,18.8,3.3,28.6,9.9C102.2,89.4,107.6,97.5,107.6,106.2z M54.9,197.3c0,2-1.9,4-5.6,6c-3.2,1.9-6,2.8-8.5,2.8
		c-2.6,0-5.3-1-8.3-3c-3-2-4.4-4.3-4.4-6.8c0-2.4,1.2-4.5,3.6-6.3c2.4-1.8,4.9-2.7,7.4-2.7c3.1,0,6.5,1,10.2,3
		C53,192.3,54.9,194.7,54.9,197.3z"/>
</g>
<g class="st0">
	<path class="st1" d="M105.4,206.3c-0.6,1-2.2,1.5-4.7,1.4c-2.2,0-4-0.3-5.2-1.1c-1.3-0.8-2.4-2.1-3.4-4c-0.9-1.9-1-3.5-0.2-4.9
		c0.7-1.2,2-2,3.8-2.2c1.8-0.2,3.3,0.1,4.7,0.8c1.6,0.9,3,2.4,4.3,4.6C106,203.2,106.2,204.9,105.4,206.3z M159.9,174.9
		c-2.6,4.6-7.8,7.3-15.6,8.3c-2.4,0.4-9.1,0.5-20.1,0.3c-7.2-0.1-11.3,0.9-12.5,2.9c-0.3,0.6-0.5,1.7-0.5,3.5c0,1.8-0.4,3.2-1.1,4.3
		l-0.4,0.7c-1-0.3-1.9-0.7-2.8-1.2c-2.1-1.2-3.8-3.3-5-6.2c-1.3-3.2-1.4-5.8-0.2-7.9c2.1-3.6,6.7-5.5,14-5.8
		c6.4,0,12.9,0.1,19.4,0.3c7.2-0.3,11.8-2.2,13.8-5.6c1.5-2.6,1.7-5.4,0.4-8.2c-1.1-2.5-3.1-4.6-5.9-6.2c-2.6-1.5-6.6-2.4-12.1-2.9
		c-5.5-0.4-9.9-0.2-13,0.8c2.3,2.1,2.9,4,2,5.7c-0.8,1.3-2.2,2.1-4.3,2.3c-2.1,0.2-3.9,0-5.3-0.8c-1.8-1-3.2-3-4.3-6
		c-1.1-2.9-1.1-5.3-0.1-7c1.6-2.8,5.9-4.7,12.8-5.9c5.9-1,10.9-1.1,14.9-0.4c5.9,1,10.2,2.3,13,3.9c4.8,2.8,8.7,7.3,11.8,13.6
		C162.1,164.7,162.5,170.4,159.9,174.9z"/>
</g>
<g class="st0">
	<path class="st1" d="M140.2,240c-0.7,0.6-2,0.6-3.9-0.1c-1.7-0.5-2.9-1.2-3.7-2.1c-0.8-0.9-1.3-2.2-1.5-3.8c-0.2-1.7,0.1-2.9,1-3.7
		c0.8-0.8,2-1,3.4-0.7c1.4,0.3,2.5,0.9,3.3,1.8c1,1.1,1.7,2.6,2.2,4.5C141.4,237.8,141.2,239.1,140.2,240z M188.9,229.7
		c-3.1,2.8-7.7,3.6-13.8,2.4c-1.9-0.3-7-1.9-15.2-4.7c-5.4-1.8-8.7-2.1-10.1-0.9c-0.4,0.3-0.8,1.2-1.2,2.5c-0.4,1.3-1.1,2.3-1.9,3
		l-0.5,0.4c-0.7-0.4-1.3-1-1.8-1.6c-1.3-1.5-2.1-3.4-2.2-5.9c-0.2-2.7,0.4-4.7,1.8-6c2.4-2.2,6.4-2.5,12-0.9
		c4.8,1.6,9.7,3.2,14.5,4.9c5.5,1.5,9.4,1.3,11.8-0.9c1.8-1.6,2.6-3.6,2.3-6.1c-0.2-2.2-1.2-4.2-2.9-6.1c-1.6-1.7-4.4-3.4-8.4-5.1
		c-4.1-1.7-7.4-2.5-10-2.6c1.2,2.2,1.2,3.8,0.1,4.8c-0.9,0.8-2.2,1-3.8,0.7c-1.7-0.3-2.9-1-3.8-1.9c-1.1-1.2-1.7-3.1-1.8-5.5
		c-0.1-2.5,0.4-4.2,1.6-5.3c1.9-1.7,5.6-2.1,11.1-1.3c4.7,0.7,8.5,1.8,11.3,3.4c4.2,2.2,7.1,4.2,8.8,6.1c2.9,3.2,4.8,7.6,5.6,13.1
		C193,222.5,191.9,226.9,188.9,229.7z"/>
</g>
</svg>
