<svg xmlns="http://www.w3.org/2000/svg" viewBox="0 0 31 34">
  <defs>
    <style>
      .cls-1 {
        fill: #fff;
      }
    </style>
  </defs>
  <g id="notification-bell" transform="translate(-4.258)">
    <g id="Group_4013" data-name="Group 4013" transform="translate(4.258 0)">
      <path id="Path_8081" data-name="Path 8081" class="cls-1" d="M28.769,14.144c-4.418-9.424-6.715-13-13.934-12.855-2.571.053-1.953-1.846-3.914-1.125s-.278,1.775-2.282,3.4c-5.624,4.576-5.105,8.809-2.5,18.9,1.1,4.249-2.649,4.458-1.166,8.577,1.082,3,9.065,4.261,17.487,1.163S36.2,22.96,35.119,19.957C33.635,15.837,30.631,18.112,28.769,14.144Zm-7.22,15.524c-7.521,2.766-13.7,1.139-13.964.416-.45-1.248,2.428-5.409,11.027-8.572s13.4-1.99,13.9-.6C32.808,21.738,29.071,26.9,21.549,29.668Zm-2.417-6.712A28.248,28.248,0,0,0,10.7,27.546c1.244,1.121,3.577,1.394,5.9.539,2.959-1.088,4.776-3.586,4.058-5.58-.008-.024-.021-.046-.03-.07Q19.9,22.675,19.131,22.956Z" transform="translate(-4.258 0)"/>
    </g>
  </g>
</svg>
