<svg xmlns="http://www.w3.org/2000/svg" viewBox="0 0 463.168 476.301">
  <defs>
    <style>
      .cls-1 {
        fill: #1d1d1b;
      }

      .cls-2 {
        fill: #fff;
      }

      .cls-3 {
        fill: #e2f2f1;
      }

      .cls-4, .cls-7 {
        fill: #c6c6c6;
      }

      .cls-5 {
        fill: #5b4e45;
      }

      .cls-6 {
        fill: #b2b2b2;
        opacity: 0.26;
      }

      .cls-7 {
        opacity: 0.34;
      }

      .cls-8 {
        fill: #231f20;
      }

      .cls-9 {
        fill: #111;
      }
    </style>
  </defs>
  <g id="Group_3193" data-name="Group 3193" transform="translate(-64.074 0.002)">
    <g id="Group_2396_1_" transform="translate(0.042)">
      <path id="Path_2293_1_" class="cls-1" d="M-1858.487-15118.123c-20.438-66.329-55.906-126.241-90.571-185.754-1-1.8.8-4.812,3.006-4.01,12.223,4.813,11.221,1.405,12.824-8.01h4.8c-.2,5.209-2.2,10.616-2.4,15.825a2.611,2.611,0,0,1-2.4,2.6,1.214,1.214,0,0,1-.8-.2c-2.2-.8-4.409-1.6-6.412-2.406,40.677,68.73,81.354,139.266,98.186,217.813m-101.086-124.92a1.842,1.842,0,0,1,1.4-2.2,2.015,2.015,0,0,1,2.2,1.2" transform="translate(2369.454 15558.558)"/>
      <path id="Path_2294_1_" class="cls-2" d="M-2094.094-14985.787c-2.194-15.986,0-61.367,0-61.367s19.254-36.937,30.2-54.837c5.032-8.232,10.33-16.493,15.808-24.641a2.869,2.869,0,0,0-1-3.6,2.815,2.815,0,0,0-1.8-.2l-10.82,3.606c2.2-9.816,4.408-19.636,6.812-29.454a2.191,2.191,0,0,0-1.8-2.809,2.139,2.139,0,0,0-1.6.2c-3.207,1.6-6.413,3.407-9.819,5.011a66.742,66.742,0,0,0,6.211-18.434c.8-.2,1.4-.6,2.2-.8a8.493,8.493,0,0,1,2.2-.4c1.6-62.716,7.815-126.836,39.875-181.939a3,3,0,0,0,.2-2.606,2.415,2.415,0,0,0-.6-2.807c-9.618-7.213-19.036-14.827-23.244-26.249-5.01-13.623-1.4-31.259,14.828-35.266,25.849-6.412,40.477,20.841,50.095,39.476,1.4,2.6,4.007,1.8,5.21,0a1.22,1.22,0,0,0,.8-.2,133.52,133.52,0,0,1,16.43-11.426,113.08,113.08,0,0,1,40.277-15.225,98.97,98.97,0,0,0-6.212,19.836c-.4,2,1.4,4.407,3.607,3.607,15.429-5.41,30.859-10.02,46.488-14.427a86.888,86.888,0,0,1-14.027,15.628c-1.8,1.6-.4,5.408,2.2,5.008,13.025-1.4,26.05-2.6,39.074-4.811a2.7,2.7,0,0,0,1.8-1.8,2.362,2.362,0,0,0,3.406-.6.622.622,0,0,0,.2-.4,84.655,84.655,0,0,1,18.435-30.058c9.217-9.616,28.654-22.242,41.479-10.42,10.62,9.818,6.011,27.051-2.2,36.471-7.013,8.015-16.631,13.425-26.05,18.434-.2.2-.6.4-.8.6a2.834,2.834,0,0,0-.8-.6c-2-1.4-4.408,1.806-2.6,3.205,55.706,45.887,78.643,104.408,87.46,170.331.6-.2-1.242,1.921-.641,1.723-1.6,9.418-.657,13.3-12.88,8.488-2.2-.8-3.336,1.517-2.334,3.521,34.666,59.515,69.461,119.914,89.9,186.238m-136.659-398.956c5.009-5.61,7.214-15.228.8-20.84-17.433-15.629-37.271,20.84-44.284,31.062a1.213,1.213,0,0,0,0,1.6c-1.4.6-2.2,2.207-.8,3.409a35.372,35.372,0,0,0,6.011,4.811,1.219,1.219,0,0,0,1.6,0,2.4,2.4,0,0,0,2-.2C-1808.036-15383.516-1793.208-15389.329-1784.792-15398.747Zm-46.288,202.586c8.617-15.628,4.008-35.668-12.423-43.683a2.975,2.975,0,0,0-2.6,0,15.188,15.188,0,0,0-.2-5.209c-3.607-18.236-33.865-12.624-46.287-12.624-9.619,0-39.275-2.405-39.074,13.826a23.642,23.642,0,0,0,1.8,7.415c-14.427,9.417-25.321,23.993-18.108,42.027,9.418,23.244,37.806,26.987,59.849,25.783C-1865.884-15169.831-1842.5-15174.922-1831.08-15196.161Zm-158.7-180.542c1.6-.2,2.2-2.2,2-3.609-2-11.62-7.614-23.042-17.032-30.456-6.612-5.212-16.431-7.816-23.244-1.405s-4.007,17.435-.2,24.646a32.222,32.222,0,0,0,24.246,17.033,2.535,2.535,0,0,0,1.2-.2,2.721,2.721,0,0,0,3.406-.2A16.591,16.591,0,0,1-1989.78-15376.7Z" transform="translate(2159.101 15441.025)"/>
      <path id="Path_2296_1_" class="cls-1" d="M-1881.622-15194.187c-.6.2.2.254-.4.453-8.616-65.925-31.01-126.961-86.715-173.048-1.8-1.6.6-4.61,2.605-3.2.2.2.6.4.8.6a2.8,2.8,0,0,1,.8-.6c9.217-5.012,19.036-10.22,26.049-18.435,8.216-9.42,12.824-26.651,2.2-36.47-12.825-12.024-32.261.8-41.479,10.418a84.68,84.68,0,0,0-18.435,30.056,2.351,2.351,0,0,1-3.206,1.2.7.7,0,0,1-.4-.2l-.6-2.405c6.212-23.645,37.872-65.525,66.325-45.687,10.62,7.416,12.624,21.844,9.017,33.664-5.01,15.83-20.238,25.246-34.065,32.863,47.691,36.47,70.333,93.288,80.352,151C-1877.194-15195.634-1874.759-15190.948-1881.622-15194.187Z" transform="translate(2318.202 15437.317)"/>
      <path id="Path_2299_1_" class="cls-1" d="M-1948.759-15424.377c6.212,5.612,4.208,15.229-.8,20.84-8.616,9.419-23.244,15.23-34.666,20.238a3.459,3.459,0,0,1-2,.2,2.214,2.214,0,0,1-1.6,0c-2-1.6-4.008-3.006-6.011-4.809a1.939,1.939,0,0,1-.2-2.809,1.1,1.1,0,0,1,1-.6,1.218,1.218,0,0,1,0-1.6C-1986.029-15403.539-1966.392-15440.008-1948.759-15424.377Zm-6.813,19.037c5.611-5.008,8.215-16.834-2.6-17.034-7.615-.2-12.824,7.015-17.032,12.425-5.01,6.412-9.819,12.823-15.229,19.037l-.2.2a18.471,18.471,0,0,1,2.805,2.808c.2-.2.2-.2.4-.2.2-.2.4-.2.6-.4s.6-.2.8-.4c7.214-3.2,14.427-6.812,21.24-10.617A55.284,55.284,0,0,0-1955.572-15405.34Z" transform="translate(2324.069 15445.819)"/>
      <path id="Path_2300_1_" class="cls-3" d="M-1960.239-15425.4c10.82.2,8.215,12.026,2.6,17.034a53.4,53.4,0,0,1-9.017,5.812,209.307,209.307,0,0,1-21.24,10.619,1.046,1.046,0,0,0-.8.4c-.2.2-.4.2-.6.4-.2,0-.2.2-.4.2a18.48,18.48,0,0,0-2.805-2.808l.2-.2c5.21-6.21,10.019-12.825,15.229-19.034C-1973.063-15418.382-1967.853-15425.6-1960.239-15425.4Z" transform="translate(2326.132 15448.645)"/>
      <path id="Path_2301_1_" class="cls-1" d="M-1947.759-15327.183c16.431,8.013,23.845,25.047,15.229,40.676-11.622,21.039-39.876,29.455-61.917,30.658s-48.892-3.007-58.311-26.248c-7.414-18.234,4.408-32.462,18.835-41.881a15.608,15.608,0,0,1-1.8-7.415c-.2-16.23,29.256-13.826,39.074-13.826,12.223,0,42.681-5.411,46.288,12.624a15.18,15.18,0,0,1,.2,5.209A3.26,3.26,0,0,1-1947.759-15327.183Zm3.807,45.686c13.025-12.825,11.221-31.061-7.013-40.276a2.753,2.753,0,0,1-.8-.6c-5.811,14.027-28.253,23.848-38.272,30.658a2.707,2.707,0,0,1-3.406,0c.2,2,.2,4.007.4,6.21,0,2.2.4,4.412.2,6.411a38.348,38.348,0,0,0,16.031-5.608c2.806-1.8,5.21,2.606,2.6,4.409-13.025,9.216-32.061,8.615-44.084-2.006-1.2-1,.4-2.8,1.6-2a39.1,39.1,0,0,0,19.437,5.607c-.2-2.2.2-4.407.2-6.609.2-2.407.2-5.011.4-7.415-10.219-4.411-28.454-15.63-35.868-28.054-13.025,13.026-25.248,29.055-9.218,46.487,11.422,12.222,29.054,14.026,44.685,13.225C-1979.619-15262.062-1956.776-15269.074-1943.951-15281.5Zm-17.233-38.875c.8-12.823-3.005-18.838-11.421-17.833h-26.651c-5.611,0-12.223-.8-17.634.8-13.826,4-10.62,10.416-3.607,19.034a97.794,97.794,0,0,0,26.25,21.642c.2-.405.6-.6,1-1,6.212-4.207,12.624-8.414,18.836-12.62,3.406-2.408,10.821-6.015,13.225-10.021Z" transform="translate(2263.356 15528.364)"/>
      <path id="Path_2302_1_" class="cls-1" d="M-1943.083-15397.705l.6,2.406a2.713,2.713,0,0,1-1.8,1.8c-12.825,2.2-26.05,3.407-39.074,4.809a3.081,3.081,0,0,1-3.006-3,2.568,2.568,0,0,1,.8-2,79.937,79.937,0,0,0,14.027-15.632c-15.63,4.41-31.259,9.017-46.488,14.432-2.2.8-4.008-1.606-3.607-3.608a99.124,99.124,0,0,1,6.212-19.841,113.227,113.227,0,0,0-40.276,15.23l-2-3.007a130.351,130.351,0,0,1,46.488-18.634,2.7,2.7,0,0,1,3.406,2.2,3.289,3.289,0,0,1-.2,2,99.365,99.365,0,0,0-6.612,18.232c16.231-5.606,32.662-10.614,49.093-15.027a2.973,2.973,0,0,1,3.607,2.407,3.306,3.306,0,0,1-.2,2.006,79.985,79.985,0,0,1-12.624,17.03c9.819-1.2,19.838-2.605,29.656-3.006C-1944.285-15398.507-1943.484-15398.306-1943.083-15397.705Z" transform="translate(2260.685 15449.204)"/>
      <path id="Path_2303_1_" class="cls-4" d="M-1995.684-15294.826c.2-2.2-.2-.6-.2-2.6-.2-2.006-.2-4.01-.4-6.213a2.707,2.707,0,0,0,3.406,0c10.019-6.61,32.461-16.629,38.272-30.656a1.566,1.566,0,0,0,.8.8c21.841,8.617,19.236,31.661,6.211,44.483-12.824,12.624-35.066,15.23-52.3,16.034-15.83.8-33.48-.09-44.9-12.313-16.03-17.23-3.589-34.376,9.435-47.4,7.414,12.422,25.648,23.643,35.868,28.052-.2,2.405-.2,5.01-.4,7.413-.2,2.2-.4.806-.2,3.006" transform="translate(2266.197 15540.089)"/>
      <path id="Path_2304_1_" class="cls-5" d="M-1986.316-15342.361c8.416-1,12.5,4.661,11.694,17.488-2.4,4-10.6,9.53-14.21,11.936-6.212,4.208-10.916,7.271-17.328,11.479-.4.2-2.3.78-2.5,1.18-9.819-5.812-18.269-12.149-25.884-20.764-7.013-8.617-10.986-16.325,2.84-20.332,5.41-1.6,17.452-1.564,23.063-1.564Z" transform="translate(2277.548 15532.16)"/>
      <path id="Path_2306_1_" class="cls-1" d="M-2003.094-15398.807l2,3a150.433,150.433,0,0,0-16.431,11.422,1.215,1.215,0,0,1-.8.2c-1.2,1.8-4.008,2.6-5.21,0-9.618-18.634-24.246-45.887-50.095-39.476-16.03,4.01-19.837,21.644-14.827,35.266,4.208,11.625,13.625,19.238,23.244,26.252a2.411,2.411,0,0,1,.6,2.8,2.467,2.467,0,0,1-.2,2.606c-32.061,55.1-37.843,119.239-39.445,181.959-.8.2-1.485.553-2.086.754-.8.2-2.076,2.1-2.878,2.3l-2.881-1.846c.8-2.808,1.4-6.029,2-8.837v-3.808c2-59.914,9.619-120.827,40.277-173.528l.2-.2c-21.24-12.626-41.479-44.887-16.631-64.723,28.854-23.045,57.909,14.026,68.329,37.269,0,.2,0,.2.2.4A102.014,102.014,0,0,1-2003.094-15398.807Z" transform="translate(2206.078 15442.09)"/>
      <path id="Path_2308_1_" class="cls-1" d="M-2051.149-15388.744a3.137,3.137,0,0,1-2,3.605,15.653,15.653,0,0,0-9.618,5.812,2.489,2.489,0,0,1-3.406.2,2.545,2.545,0,0,1-1.2.2,33.078,33.078,0,0,1-24.246-17.03c-3.807-7.215-6.613-18.233.2-24.649s16.631-3.806,23.244,1.406C-2058.964-15411.789-2053.353-15400.367-2051.149-15388.744Zm-16.03,6.013a16.924,16.924,0,0,1,9.618-7.415c-3.406-12.025-16.431-37.874-29.456-25.652-6.412,6.215-.8,17.235,4.208,23.047a36.669,36.669,0,0,0,15.429,10.22A.2.2,0,0,1-2067.179-15382.731Z" transform="translate(2222.674 15449.661)"/>
      <path id="Path_2309_1_" class="cls-3" d="M-2060.4-15392.848a16.947,16.947,0,0,0-9.618,7.416c0,.2,0,.2-.2.2h0a34.868,34.868,0,0,1-15.429-10.222c-5.01-5.812-10.621-17.029-4.208-23.044C-2076.834-15430.719-2063.81-15404.869-2060.4-15392.848Z" transform="translate(2225.516 15452.361)"/>
      <path id="Path_2310_2_" class="cls-1" d="M-2056.406-15253.607c-2.6.8-5.41,1.807-8.015,2.605a2.5,2.5,0,0,1-3.006-2.006v-1c2.2-9.617,4.609-19.234,6.813-28.855l-12.023,6.01c-1.8,1.006-4.408-1-3.006-3a78.671,78.671,0,0,0,10.62-23.242l3.4.479a64.06,64.06,0,0,1-5.8,18.15c3.206-1.6,5.811-3.2,9.017-4.806,1-.6,3.142-.259,3.744.743a2.327,2.327,0,0,1,0,2c-2.2,9.818-4.387,19.193-6.792,29.012l11-3.338a2.507,2.507,0,0,1,2.595,3.854c-31.66,47.09-40.248,85.742-40.248,85.742l-6.541-5.332" transform="translate(2159 15571.407)"/>
      <path id="Path_2311_1_" class="cls-6" d="M-2011.851-15423.264c-19.237,3.009-41.278,13.428-53.3,28.856-1.4,1.8.4,4.808,2.6,3.406,8.216-4.607,15.83-9.818,24.447-13.624a146.331,146.331,0,0,1,29.055-8.617C-2002.433-15414.647-2005.238-15424.265-2011.851-15423.264Z" transform="translate(2252.708 15450.717)"/>
      <path id="Path_2312_1_" class="cls-6" d="M-1990-15419.685a108.111,108.111,0,0,0-48.492,17.433c-2.4,1.6-1,5.813,2,5.008,7.815-2.2,15.63-5.008,23.645-7.012s16.23-3.009,24.245-4.609C-1982.783-15410.267-1983.985-15420.289-1990-15419.685Z" transform="translate(2278.744 15454.351)"/>
      <path id="Path_2313_1_" class="cls-6" d="M-1915.613-15437c-18.435.2-34.465,11.021-45.486,25.248-3.607,4.809-6.012,10.016-9.418,14.829-3.406,5.008-4.008,5.607-10.42,7.41-12.223,3.409-25.649,3.813-38.072,6.816a3.3,3.3,0,0,0-2.2,4.206,3.193,3.193,0,0,0,3.006,2.406,319.585,319.585,0,0,0,33.864-1.2c7.414-.6,15.029.2,20.038-6.212,6.412-8.213,8.816-18.436,16.03-26.449,9.217-10.219,20.438-15.029,33.864-17.033C-1908.4-15427.781-1910-15437-1915.613-15437Z" transform="translate(2297.135 15436.999)"/>
      <path id="Path_2314_1_" class="cls-6" d="M-1942.792-15332.881a12.991,12.991,0,0,0-10.42-11.021c-6.212-1.6-10.019,7.214-4.408,10.422a4.19,4.19,0,0,1,2.2,3,6.968,6.968,0,0,0-1.2,4.809c-6.212,11.022-31.459,28.258-35.467,31.062-2.805,2-1.2,7.415,2.605,6.212,14.628-5.209,30.859-14.63,41.278-26.452a16.6,16.6,0,0,0,2.6-3.606c12.423,5.411,15.028,20.438,7.614,32.863-7.414,12.223-22.242,19.638-35.667,23.241-22.442,5.813-68.33,3.608-76.745-23.643a1.2,1.2,0,0,0-1.6-.8,1.271,1.271,0,0,0-1,1.2c.4,17.23,18.034,28.052,32.662,33.465a88.212,88.212,0,0,0,65.524-1.605c18.034-7.812,35.267-23.042,36.469-43.882C-1917.544-15314.246-1927.362-15329.272-1942.792-15332.881Z" transform="translate(2265.402 15530.254)"/>
      <path id="Path_2315_3_" class="cls-6" d="M-2092.274-15028.967c5.21-9.821,10.821-19.236,16.631-28.656,3.607-5.209,7.214-10.42,10.82-15.829,2.4-3.807,4.609-7.613,6.813-11.622q14.126-21.338,29.456-42.078c2.8-3.811-.2-8.216-3.807-9.617a5.246,5.246,0,0,0-3.206-2.605c1.2-2.6-1.8-5.812-4.809-5.21-3.406.8-6.612,1.6-9.818,2.2a176.872,176.872,0,0,0,4.408-22.842c.4-4.008-3.807-7.817-7.815-7.616a325.562,325.562,0,0,0,10.82-38.672c3.808-17.435,4.809-35.266,7.414-53.3,2.4-16.229,8.216-31.861,11.02-47.891,3.006-16.433,6.412-31.462,16.632-45.087,3.005-4.006-1.2-8.816-5.611-8.816-3.807-3.808-9.017-5.811-13.024-9.617a42.355,42.355,0,0,1-11.422-22.444c-1.8-10.821,3.005-13.223,11.221-18.034,3.607-2.2,4.409-2.4,6.011-6.61,1.8-5.01-4.809-7.616-8.216-4.812-2,1.6-6.011,1.4-8.216,2.6a23.676,23.676,0,0,0-8.616,7.414,30,30,0,0,0-4.208,22.644c2.806,15.028,13.627,31.461,29.456,34.262-7.814,10.022-11.622,22.243-14.427,34.667-.4,2.2-1,4.408-1.6,6.611-17.834,25.25-20.239,60.516-18.635,90.172a1.42,1.42,0,0,0,.6,1.2c-.4,2.807-1,5.813-1.6,8.616a334.233,334.233,0,0,1-16.431,57.309c-2,5.01,4.007,10.418,8.816,8.817.2,0,.2,0,.4-.2a152.775,152.775,0,0,1-4.809,18.836c-1.6,5.01,3.807,11.021,9.017,9.017a100.616,100.616,0,0,0,10.621-4.607c-4.208,5.01-8.617,9.618-10.821,16.031-1.6,4.408-3.207,8.815-4.809,13.023" transform="translate(2159.401 15444.755)"/>
    </g>
    <ellipse id="Ellipse_955_1_" class="cls-7" cx="31.259" cy="42.681" rx="31.259" ry="42.681" transform="translate(293.714 80.552)"/>
    <ellipse id="Ellipse_956_1_" class="cls-8" cx="7.414" cy="11.822" rx="7.414" ry="11.822" transform="matrix(0.974, -0.225, 0.225, 0.974, 204.284, 129.436)"/>
    <ellipse id="Ellipse_957_1_" class="cls-8" cx="7.414" cy="11.822" rx="7.414" ry="11.822" transform="translate(316.495 121.625) rotate(-10.737)"/>
    <g id="Group_3189" data-name="Group 3189" transform="translate(188.715 96.382)">
      <path id="Path_5606" data-name="Path 5606" d="M94.2,66.735a19.523,19.523,0,0,1,5.21-11.021A20.549,20.549,0,0,1,110.23,48.9a18.045,18.045,0,0,1,3.206-.6,16.2,16.2,0,0,1,3.206-.2,17.538,17.538,0,0,1,3.206.4c1,.2,2.2.6,3.206.8s2,.8,2.805,1c1,.4,1.8,1,2.805,1.4a27.364,27.364,0,0,1,4.609,3.807,50.084,50.084,0,0,1-5.811-1,6.67,6.67,0,0,0-2.805-.2l-1.4-.2h-1.4c-.8,0-1.8-.2-2.6-.2l-2.6.2a13.789,13.789,0,0,0-2.6.4,6.918,6.918,0,0,0-2.6.6,24.14,24.14,0,0,0-9.017,4.609C99.811,61.125,97.005,63.73,94.2,66.735Z" transform="translate(-94.2 -48.1)"/>
    </g>
    <g id="Group_3190" data-name="Group 3190" transform="translate(129.002 236.479)">
      <path id="Path_5607" data-name="Path 5607" class="cls-2" d="M143.846,340.214,66.7,282.905s68.93-49.894,80.152-68.93c11.021-19.036,26.65-53.7,26.65-53.7s7.214-23.244,26.25-22.643c4.609.2,14.027,4.208,22.042-8.216,11.021-17.233,49.894-10.42,60.915,6.813,5.611,8.817,7.614,22.042,1.6,42.28-3.807,12.424-11.622,26.25-21.641,40.477" transform="translate(-62.091 -116.622)"/>
      <path id="Path_5608" data-name="Path 5608" class="cls-9" d="M146.155,341.607c-13.225-9.017-26.45-18.034-39.475-27.252-13.225-9.217-26.049-18.435-39.274-27.652L64.4,284.5l3.006-2.2c11.021-8.216,21.841-16.832,32.461-25.448s21.24-17.433,31.259-26.851l3.607-3.607,3.406-3.607c1.2-1.2,2.2-2.4,3.406-3.607l1.6-1.8,1.4-1.8c.4-.6.8-1.2,1.4-2l1.2-2.2c.8-1.4,1.6-3.006,2.4-4.408,1.6-3.006,3.206-6.011,4.809-9.217l9.017-18.635c3.006-6.212,5.811-12.424,8.817-18.635l-.2.4a36.963,36.963,0,0,1,3.006-7.013,69.068,69.068,0,0,1,4.008-6.412c3.206-4.008,7.013-7.815,12.223-9.819a22.218,22.218,0,0,1,8.015-1.8,29.461,29.461,0,0,1,4.208,0l3.406.6a17.556,17.556,0,0,0,5.611,0,11.355,11.355,0,0,0,4.609-2.4,27.407,27.407,0,0,0,3.807-4.408,19.4,19.4,0,0,1,5.611-5.811c4.408-3.206,9.418-4.609,14.427-5.41a55.852,55.852,0,0,1,28.654,4.408,44.789,44.789,0,0,1,12.423,7.815,28.31,28.31,0,0,1,5.01,5.811,30.153,30.153,0,0,1,3.206,6.813c3.206,9.418,2.6,19.437.4,28.454a80.148,80.148,0,0,1-4.208,13.425,122.092,122.092,0,0,1-6.011,12.624,200.754,200.754,0,0,1-15.429,23.044,218.2,218.2,0,0,0,13.626-24.046,111.964,111.964,0,0,0,5.21-12.624,97.885,97.885,0,0,0,3.206-13.225,60.657,60.657,0,0,0,1-13.425,39.519,39.519,0,0,0-2.6-12.824,25.462,25.462,0,0,0-7.214-10.219A37.844,37.844,0,0,0,267.184,128a50.4,50.4,0,0,0-25.448-3.206A25.225,25.225,0,0,0,230.514,129a12.8,12.8,0,0,0-3.807,4.208,24.448,24.448,0,0,1-5.21,6.011,21.374,21.374,0,0,1-7.614,4.008,22.933,22.933,0,0,1-8.216.4l-3.406-.4a13.091,13.091,0,0,0-2.805,0,18,18,0,0,0-5.41,1.4c-7.013,3.006-12.023,10.82-14.828,18.435l-.2.4v.2c-5.611,12.624-11.622,25.248-18.034,37.671-1.6,3.006-3.206,6.212-4.809,9.217-.8,1.6-1.6,3.006-2.6,4.609l-1.4,2.2a16.712,16.712,0,0,1-1.6,2.4l-1.6,2.4-1.8,2c-1.2,1.4-2.4,2.805-3.607,4.008L139.743,232l-3.807,3.607c-10.42,9.418-21.24,18.235-32.061,26.65-11.021,8.416-22.242,16.632-33.463,24.647V282.5l37.872,29.456C121.107,321.57,133.731,331.589,146.155,341.607Z" transform="translate(-64.4 -118.016)"/>
    </g>
    <g id="Group_3191" data-name="Group 3191" transform="translate(303.332 105.119)">
      <path id="Path_5609" data-name="Path 5609" class="cls-8" d="M190.674,61.357a2,2,0,0,0-1-.8l-1.2-.6a9.921,9.921,0,0,0-2.6-.8,40.123,40.123,0,0,0-4.809-.8,31.609,31.609,0,0,0-8.817.6,59.93,59.93,0,0,0-9.217,2.805c-3.406,1.2-6.813,2.6-11.021,3.807h-.2c-.2,0-.4,0-.4-.2v-.2a53.514,53.514,0,0,1,8.817-7.614,29.562,29.562,0,0,1,10.62-4.609,22.934,22.934,0,0,1,11.622.6,25.324,25.324,0,0,1,5.21,2.6,10.5,10.5,0,0,1,2.2,2,4.191,4.191,0,0,1,.8,1.2,2.159,2.159,0,0,1,.4,1.6.2.2,0,0,1-.2.2h-.2Z" transform="translate(-151.4 -52.46)"/>
    </g>
    <g id="Group_3192" data-name="Group 3192" transform="translate(239.612 234.394)">
      <path id="Path_5610" data-name="Path 5610" class="cls-8" d="M119.6,118.428c4.408,3.607,8.817,7.013,13.826,8.817a23.022,23.022,0,0,0,7.214,1.4,25.406,25.406,0,0,0,7.414-1.4c2.6-.8,5.009-1.8,7.414-2.805,2.4-1.2,4.609-2.6,7.214-4.008a25.26,25.26,0,0,1,8.416-3.206,18.686,18.686,0,0,1,8.817.6,33.9,33.9,0,0,0-8.015,2.4,23.841,23.841,0,0,0-6.613,4.408,49.042,49.042,0,0,1-7.013,5.21,31.405,31.405,0,0,1-8.416,3.607,34.128,34.128,0,0,1-9.218,1.4,21.488,21.488,0,0,1-9.217-2.805A34.8,34.8,0,0,1,119.6,118.428Z" transform="translate(-119.6 -116.975)"/>
    </g>
  </g>
</svg>
