<svg xmlns="http://www.w3.org/2000/svg" viewBox="0 0 18 24">
  <defs>
    <style>
      .cls-1 {
        fill: #fff;
      }
    </style>
  </defs>
  <g id="padlock-unlock" transform="translate(-54.818)">
    <path id="Path_8337" data-name="Path 8337" class="cls-1" d="M72.38,12.437A1.446,1.446,0,0,0,71.318,12h-11.5V7A3.854,3.854,0,0,1,60.99,4.172a4,4,0,0,1,5.656,0A3.854,3.854,0,0,1,67.818,7a1.014,1.014,0,0,0,1,1h1a1.014,1.014,0,0,0,1-1,6.742,6.742,0,0,0-2.055-4.945,6.979,6.979,0,0,0-9.891,0A6.741,6.741,0,0,0,56.818,7v5h-.5a1.494,1.494,0,0,0-1.5,1.5v9a1.493,1.493,0,0,0,1.5,1.5h15a1.493,1.493,0,0,0,1.5-1.5v-9A1.445,1.445,0,0,0,72.38,12.437Z"/>
  </g>
</svg>
