<svg xmlns="http://www.w3.org/2000/svg" viewBox="0 0 19.636 24">
  <defs>
    <style>
      .cls-1 {
        fill: #fff;
      }
    </style>
  </defs>
  <g id="padlock" transform="translate(-36.548 0)">
    <path id="Path_8338" data-name="Path 8338" class="cls-1" d="M55.706,11.386a1.578,1.578,0,0,0-1.159-.477H54V7.636a7.348,7.348,0,0,0-2.25-5.386,7.572,7.572,0,0,0-10.773,0,7.348,7.348,0,0,0-2.25,5.386v3.273h-.545a1.629,1.629,0,0,0-1.636,1.636v9.818A1.629,1.629,0,0,0,38.184,24H54.548a1.629,1.629,0,0,0,1.636-1.636V12.545A1.577,1.577,0,0,0,55.706,11.386Zm-4.977-.477H42V7.636a4.2,4.2,0,0,1,1.278-3.085,4.362,4.362,0,0,1,6.17,0A4.2,4.2,0,0,1,50.73,7.636Z"/>
  </g>
</svg>
