<svg xmlns="http://www.w3.org/2000/svg" viewBox="0 0 27 31">
  <defs>
    <style>
      .cls-1 {
        fill: #fff;
      }
    </style>
  </defs>
  <g id="password" transform="translate(-32 0)">
    <g id="Group_2030" data-name="Group 2030" transform="translate(32)">
      <g id="Group_2029" data-name="Group 2029">
        <ellipse id="Ellipse_482" data-name="Ellipse 482" class="cls-1" cx="1.205" cy="1.211" rx="1.205" ry="1.211" transform="translate(19.165 19.738)"/>
        <path id="Path_733" data-name="Path 733" class="cls-1" d="M57.795,21.918A1.208,1.208,0,0,0,59,20.707v-4.48a4.838,4.838,0,0,0-4.821-4.844H52.73V7.112a7.233,7.233,0,0,0-14.464,0v4.271H36.821A4.838,4.838,0,0,0,32,16.227v9.93A4.838,4.838,0,0,0,36.821,31H54.179A4.838,4.838,0,0,0,59,26.156a1.205,1.205,0,1,0-2.411,0,2.419,2.419,0,0,1-2.411,2.422H36.821a2.419,2.419,0,0,1-2.411-2.422v-9.93A2.419,2.419,0,0,1,36.821,13.8H54.179a2.419,2.419,0,0,1,2.411,2.422v4.48A1.208,1.208,0,0,0,57.795,21.918ZM50.319,11.383H40.676V7.112a4.823,4.823,0,0,1,9.643,0Z" transform="translate(-32 0)"/>
        <ellipse id="Ellipse_483" data-name="Ellipse 483" class="cls-1" cx="1.205" cy="1.211" rx="1.205" ry="1.211" transform="translate(10.065 19.738)"/>
        <ellipse id="Ellipse_484" data-name="Ellipse 484" class="cls-1" cx="1.205" cy="1.211" rx="1.205" ry="1.211" transform="translate(5.545 19.738)"/>
        <ellipse id="Ellipse_485" data-name="Ellipse 485" class="cls-1" cx="1.205" cy="1.211" rx="1.205" ry="1.211" transform="translate(14.585 19.738)"/>
      </g>
    </g>
  </g>
</svg>
