<svg xmlns="http://www.w3.org/2000/svg" viewBox="0 0 15 20">
  <defs>
    <style>
      .cls-1 {
        fill: #fff;
      }
    </style>
  </defs>
  <g id="place" transform="translate(-12.883)">
    <path id="Path_8082" data-name="Path 8082" class="cls-1" d="M20.383,0a7.441,7.441,0,0,0-7.5,7.363,7.072,7.072,0,0,0,.656,3.006,46.4,46.4,0,0,0,6.528,9.489.423.423,0,0,0,.633,0,46.427,46.427,0,0,0,6.528-9.489,7.069,7.069,0,0,0,.656-3.006A7.442,7.442,0,0,0,20.383,0Zm0,11.188a3.865,3.865,0,0,1-3.9-3.825,3.9,3.9,0,0,1,7.792,0A3.865,3.865,0,0,1,20.383,11.188Z"/>
  </g>
</svg>
