<svg xmlns="http://www.w3.org/2000/svg" xmlns:xlink="http://www.w3.org/1999/xlink" width="128" height="305" viewBox="0 0 128 305"><defs><path id="emdpa" d="M430.077 274.36c0-3.627 3.628-7.254 7.255-7.254h54.604v14.51h-61.86z"/><path id="emdpb" d="M491.937 267.106h54.118c3.628 0 7.255 3.627 7.255 7.255v7.255h-61.373z"/><path id="emdpc" d="M434.104 281.616l15.274 74.495h42.559v-74.495z"/><path id="emdpd" d="M549.283 281.616h-57.346v74.495h44.433z"/><path id="emdpe" d="M493.742 267.106h-3.263l1.04-172.666h1.528z"/><path id="emdpf" d="M537.55 94.788s-9.928 4.235-22.703 2.846c-11.108-1.25-20.897 13.538-14.232 23.12z"/><path id="emdpg" d="M537.55 94.788s-6.734 8.47-10.414 20.411c-3.263 10.692-19.856 15.066-26.521 5.485z"/><path id="emdph" d="M492.214 51.326S489.993 61.88 481.453 71.6c-7.36 8.331-.903 24.855 10.761 24.855z"/><path id="emdpi" d="M492.214 51.326s3.055 10.414 10.761 20.203c6.874 8.818.972 24.925-10.76 24.925z"/><path id="emdpj" d="M492.043 125.111l7.841-5.505 1.516 2.159-7.841 5.505z"/><path id="emdpk" d="M540.188 125.405s-10.622 4.582-24.369 3.055c-11.872-1.32-22.425 14.51-15.204 24.785z"/><path id="emdpl" d="M540.188 125.405s-7.22 9.095-11.108 21.87c-3.471 11.455-21.245 16.176-28.465 5.9z"/><path id="emdpm" d="M491.417 157.955l8.41-5.904 1.636 2.33-8.41 5.904z"/><path id="emdpn" d="M550.325 158.869s-12.914 5.554-29.507 3.68c-14.44-1.597-27.146 17.564-18.467 29.992z"/><path id="emdpo" d="M550.325 158.869s-8.748 10.97-13.47 26.52c-4.234 13.886-25.757 19.58-34.504 7.152z"/><path id="emdpp" d="M491.288 198.225l10.171-7.141 1.955 2.784-10.17 7.14z"/><path id="emdpq" d="M556.087 199.9s-14.094 6.04-32.283 4.027c-15.76-1.736-29.715 19.231-20.204 32.77z"/><path id="emdpr" d="M556.087 199.9s-9.58 12.011-14.788 29.02c-4.582 15.205-28.187 21.384-37.699 7.846z"/><path id="emdps" d="M491.458 242.958l11.138-7.82 2.154 3.07-11.138 7.818z"/><path id="emdpt" d="M447.295 89.025s9.928 4.235 22.703 2.847c11.108-1.25 20.897 13.538 14.232 23.119z"/><path id="emdpu" d="M447.295 89.025s6.734 8.47 10.414 20.412c3.263 10.691 19.856 15.065 26.521 5.484z"/><path id="emdpv" d="M484.92 113.87l7.842 5.506-1.515 2.16-7.842-5.506z"/><path id="emdpw" d="M444.657 119.642s10.622 4.583 24.369 3.055c11.872-1.319 22.425 14.51 15.204 24.786z"/><path id="emdpx" d="M444.657 119.642s7.22 9.095 11.108 21.87c3.471 11.455 21.245 16.177 28.465 5.901z"/><path id="emdpy" d="M484.989 146.221l8.41 5.904-1.636 2.33-8.41-5.904z"/><path id="emdpz" d="M434.52 153.106s12.914 5.555 29.507 3.68c14.44-1.597 27.146 17.565 18.467 29.993z"/><path id="emdpA" d="M434.52 153.106s8.748 10.97 13.47 26.521c4.234 13.886 25.757 19.579 34.504 7.151z"/><path id="emdpB" d="M483.419 185.292l10.17 7.14-1.954 2.785-10.17-7.14z"/><path id="emdpC" d="M428.758 194.138s14.094 6.04 32.283 4.027c15.76-1.736 29.715 19.23 20.204 32.77z"/><path id="emdpD" d="M428.758 194.138s9.58 12.01 14.788 29.02c4.582 15.205 28.187 21.384 37.699 7.846z"/><path id="emdpE" d="M482.18 229.35l11.137 7.818-2.154 3.068-11.137-7.819z"/></defs><g><g transform="translate(-428 -51)"><g><g><g><use fill="#d67d1d" xlink:href="#emdpa"/></g></g><g><g><use fill="#a9641c" xlink:href="#emdpb"/></g></g><g><g><use fill="#f29100" xlink:href="#emdpc"/></g></g><g><g><use fill="#d67d1d" xlink:href="#emdpd"/></g></g></g><g><g><g><g><g><g><use fill="#48a13f" xlink:href="#emdpe"/></g></g></g><g><g><g><g><g><g><use fill="#48a13f" xlink:href="#emdpf"/></g></g></g><g><g><g><use fill="#3d8f37" xlink:href="#emdpg"/></g></g></g></g><g><g><g><g><use fill="#48a13f" xlink:href="#emdph"/></g></g></g><g><g><g><use fill="#3d8f37" xlink:href="#emdpi"/></g></g></g></g><g><g><g><use fill="#48a13f" xlink:href="#emdpj"/></g></g></g></g><g><g><g><g><g><use fill="#48a13f" xlink:href="#emdpk"/></g></g></g><g><g><g><use fill="#3d8f37" xlink:href="#emdpl"/></g></g></g></g><g><g><g><use fill="#48a13f" xlink:href="#emdpm"/></g></g></g></g><g><g><g><g><g><use fill="#48a13f" xlink:href="#emdpn"/></g></g></g><g><g><g><use fill="#3d8f37" xlink:href="#emdpo"/></g></g></g></g><g><g><g><use fill="#48a13f" xlink:href="#emdpp"/></g></g></g></g><g><g><g><g><g><use fill="#48a13f" xlink:href="#emdpq"/></g></g></g><g><g><g><use fill="#3d8f37" xlink:href="#emdpr"/></g></g></g></g><g><g><g><use fill="#48a13f" xlink:href="#emdps"/></g></g></g></g></g><g><g><g><g><g><g><use fill="#48a13f" xlink:href="#emdpt"/></g></g></g><g><g><g><use fill="#3d8f37" xlink:href="#emdpu"/></g></g></g></g><g><g><g><use fill="#48a13f" xlink:href="#emdpv"/></g></g></g></g><g><g><g><g><g><use fill="#48a13f" xlink:href="#emdpw"/></g></g></g><g><g><g><use fill="#3d8f37" xlink:href="#emdpx"/></g></g></g></g><g><g><g><use fill="#48a13f" xlink:href="#emdpy"/></g></g></g></g><g><g><g><g><g><use fill="#48a13f" xlink:href="#emdpz"/></g></g></g><g><g><g><use fill="#3d8f37" xlink:href="#emdpA"/></g></g></g></g><g><g><g><use fill="#48a13f" xlink:href="#emdpB"/></g></g></g></g><g><g><g><g><g><use fill="#48a13f" xlink:href="#emdpC"/></g></g></g><g><g><g><use fill="#3d8f37" xlink:href="#emdpD"/></g></g></g></g><g><g><g><use fill="#48a13f" xlink:href="#emdpE"/></g></g></g></g></g></g></g></g></g></g></svg>