<svg xmlns="http://www.w3.org/2000/svg" viewBox="0 0 128 305" width="128" height="305">
	<style>
		tspan { white-space:pre }
		.shp0 { fill: #d67d1d } 
		.shp1 { fill: #a9641c } 
		.shp2 { fill: #f29100 } 
		.shp3 { fill: #48a13f } 
		.shp4 { fill: #3d8f37 } 
	</style>
	<g id="Layer">
		<g id="Layer">
			<g id="Layer">
				<g id="Layer">
					<g id="Layer">
						<path id="2a2fa" class="shp0" d="M16.67,214.91c-8.14,0 -14.62,6.48 -14.62,14.62h62.3v-14.62h-47.68z" />
					</g>
				</g>
				<g id="Layer">
					<g id="Layer">
						<path id="2a2fb" class="shp1" d="M64.3,229.53h61.79c0,-8.14 -6.61,-14.62 -14.62,-14.62h-47.17z" />
					</g>
				</g>
				<g id="Layer">
					<g id="Layer">
						<path id="2a2fc" class="shp2" d="M6.1,229.51l15.38,75.01h42.85v-75.01z" />
					</g>
				</g>
				<g id="Layer">
					<g id="Layer">
						<path id="2a2fd" class="shp0" d="M122.02,229.51h-57.72v75.01h44.75z" />
					</g>
				</g>
			</g>
			<g id="Layer">
				<g id="Layer">
					<g id="Layer">
						<g id="Layer">
							<g id="Layer">
								<g id="Layer">
									<path id="2a2fe" class="shp3" d="M68.68,214.91c0,0 -0.76,-71.2 -1.02,-72.6c-0.13,-0.64 -0.76,-1.15 -1.53,-1.15c-0.89,0.13 -1.53,0.77 -1.53,1.65c-0.25,2.29 -7.63,72.09 -1.78,72.09h5.85z" />
								</g>
							</g>
						</g>
						<g id="Layer">
							<g id="Layer">
								<g id="Layer">
									<g id="Layer">
										<g id="Layer">
											<g id="Layer">
												<path id="2a2ff" class="shp3" d="M102.73,170.55c-4.06,-5.1 -6.95,-11.11 -8.27,-17.63c-1.94,-9.26 -16.38,-13.39 -22.35,-5.44z" />
											</g>
										</g>
									</g>
									<g id="Layer">
										<g id="Layer">
											<g id="Layer">
												<path id="2a2fg" class="shp4" d="M72.13,147.55c-6.01,7.83 1.98,20.08 11.43,19.95c6.55,0.01 13.02,0.98 19.19,3.12z" />
											</g>
										</g>
									</g>
								</g>
								<g id="Layer">
									<g id="Layer">
										<g id="Layer">
											<path id="2a2fh" class="shp3" d="M65.45,142.41l6.5,4.89l1.38,-1.83l-6.5,-4.89z" />
										</g>
									</g>
								</g>
							</g>
						</g>
						<g id="Layer">
							<g id="Layer">
								<g id="Layer">
									<g id="Layer">
										<g id="Layer">
											<g id="Layer">
												<path id="2a2fi" class="shp3" d="M54.28,150.67c-8.3,-14.39 -33.34,-10.63 -38.44,4.52c-3.64,10.51 -9.58,19.94 -17.44,27.78z" />
											</g>
										</g>
									</g>
									<g id="Layer">
										<g id="Layer">
											<g id="Layer">
												<path id="2a2fj" class="shp4" d="M-1.61,182.97c10.75,-2.28 21.83,-2.59 32.79,-1.12c15.76,2.3 31.46,-16.62 23.16,-31.01z" />
											</g>
										</g>
									</g>
								</g>
								<g id="Layer">
									<g id="Layer">
										<g id="Layer">
											<path id="2a2fk" class="shp3" d="M53.39,148.46l1.9,3.31l11.9,-6.85l-1.9,-3.31z" />
										</g>
									</g>
								</g>
							</g>
						</g>
					</g>
				</g>
			</g>
		</g>
	</g>
</svg>