<?xml version="1.0" encoding="utf-8"?>
<!-- Generator: Adobe Illustrator 22.1.0, SVG Export Plug-In . SVG Version: 6.00 Build 0)  -->
<svg version="1.1" id="Layer_1" xmlns="http://www.w3.org/2000/svg" xmlns:xlink="http://www.w3.org/1999/xlink" x="0px" y="0px"
	 viewBox="0 0 688.6 921.4" style="enable-background:new 0 0 688.6 921.4;" xml:space="preserve">
<style type="text/css">
	.st0{opacity:0.446;fill:#FFFFFF;enable-background:new    ;}
	.st1{opacity:0.241;fill:#FFFFFF;enable-background:new    ;}
	.st2{fill:#FFFFFF;}
	.st3{opacity:0.25;}
	.st4{fill:#1D1D1B;}
	.st5{fill:#F1F2F2;}
	.st6{fill:#E2F2F1;}
	.st7{fill:#C6C6C6;}
	.st8{fill:#5B4E45;}
	.st9{opacity:0.26;fill:#B2B2B2;enable-background:new    ;}
	.st10{opacity:0.34;fill:#C6C6C6;enable-background:new    ;}
	.st11{fill:#231F20;}
	.st12{opacity:0.17;fill:#231F20;enable-background:new    ;}
	.st13{opacity:0.15;fill:#231F20;enable-background:new    ;}
	.st14{enable-background:new    ;}
	.st15{fill:#00BCD4;}
	.st16{opacity:0.3;fill:#231F20;enable-background:new    ;}
	.st17{fill:#F4B008;}
	.st18{fill:#0F3C47;}
	.st19{fill:#3F616F;stroke:#000000;stroke-width:2;stroke-miterlimit:10;}
	.st20{fill:#3F616F;}
	.st21{fill:#E6E7E8;}
	.st22{fill:#193441;}
	.st23{fill:#0D414F;stroke:#0D414F;stroke-width:4;stroke-linecap:round;stroke-linejoin:round;}
	.st24{opacity:0.8;fill:#29A2AB;enable-background:new    ;}
	.st25{opacity:0.8;fill:#FFFFFF;enable-background:new    ;}
	.st26{fill:#1C75BC;}
	.st27{fill:#A73E5C;}
	.st28{opacity:0.307;fill:#231F20;enable-background:new    ;}
	.st29{opacity:0.45;fill:#FFFFFF;enable-background:new    ;}
	.st30{opacity:0.396;fill:#FFFFFF;enable-background:new    ;}
	.st31{opacity:0.198;fill:#231F20;enable-background:new    ;}
	.st32{fill:#27AAE1;}
	.st33{opacity:0.29;fill:#231F20;enable-background:new    ;}
	.st34{fill:#279FC9;}
	.st35{fill:#798987;}
	.st36{opacity:0.403;fill:#FFFFFF;enable-background:new    ;}
	.st37{fill:#3F616F;stroke:#000000;stroke-width:2;stroke-linecap:round;stroke-linejoin:round;}
	.st38{fill:#0F3C47;stroke:#000000;stroke-width:2;stroke-miterlimit:10;}
	.st39{opacity:0.468;fill:#FFFFFF;enable-background:new    ;}
	.st40{opacity:0.493;fill:#FFFFFF;enable-background:new    ;}
	.st41{opacity:0.2;fill:#231F20;enable-background:new    ;}
	.st42{fill:#E87E25;}
	.st43{fill:#F38F31;}
	.st44{fill:#F7941E;}
	.st45{fill:#E87E25;stroke:#F38F31;stroke-width:2;stroke-linecap:round;stroke-linejoin:round;}
	.st46{fill:#DD7222;}
	.st47{opacity:0.397;fill:#FFFFFF;enable-background:new    ;}
	.st48{opacity:0.425;fill:#FFFFFF;enable-background:new    ;}
	.st49{opacity:0.319;fill:#FFFFFF;enable-background:new    ;}
	.st50{opacity:0.4;fill:#FFFFFF;enable-background:new    ;}
	.st51{opacity:0.202;fill:#231F20;enable-background:new    ;}
	.st52{fill:#F4CB1C;}
	.st53{opacity:0.3;}
	.st54{fill:#1E0707;}
	.st55{fill:#F6D433;}
	.st56{fill:#EFC929;}
	.st57{fill:url(#Path_2653_1_);}
	.st58{fill:url(#Path_2654_1_);}
	.st59{fill:url(#Path_2655_1_);}
	.st60{opacity:0.8;fill:#262262;enable-background:new    ;}
	.st61{fill:url(#Path_2656_1_);}
	.st62{fill:url(#Path_2657_1_);}
	.st63{opacity:0.45;fill:#FFFAEF;enable-background:new    ;}
	.st64{opacity:0.334;fill:#FFFFFF;enable-background:new    ;}
</style>
<g id="Group_2414" transform="translate(-1502.523 -13370.636)">
	<g id="Group_2412" transform="matrix(-0.087, -0.996, 0.996, -0.087, 1518.341, 13865.961)">
		<path id="Path_2457" class="st0" d="M265.7,78.7c0,0,67.8,14.7,106.3,91.8c38.3,77.3,57,335.4-24.5,428.7
			C265.9,692.6,90.3,576,65.9,472.6S55.3,195.1,97.1,136.3S194.3,56.7,265.7,78.7z"/>
		<path id="Path_2458" class="st1" d="M348.4,87.7c0,0,65.3,56.1,80.9,158.3c15.7,102.2-44.6,376.4-157.2,421.9
			c-112.5,45.7-257-180-250.2-300.3S96.4,78.2,157.4,43.7S281.9,21.7,348.4,87.7z"/>
		<path id="Path_2459" class="st2" d="M229,113.9c0,0,85.6,9.5,110.7,70.6s50.2,248.8,0.5,336.2s-134.2,61.1-182.6,36.9
			s-68.8-132.6-70.2-227C85.9,236.3,124.1,80.4,229,113.9z"/>
	</g>
	<ellipse id="Ellipse_962" class="st3" cx="1819.5" cy="14221.5" rx="273.5" ry="70.5"/>
	<g id="Group_2413" transform="translate(-574 -1754)">
		<g id="Group_2396" transform="translate(2159.042 15437)">
			<path id="Path_2293" class="st4" d="M376.6,237.7c4,18.9,5.4,38.6,2.2,57.8c-2,12.3-9.3,27.9-24.1,24.6
				c2.1,32.3,1.9,64.8-0.6,97.1c0,0.9-0.8,1.7-1.8,1.7c-0.6,0-1.1-0.3-1.4-0.9l-3-4.8c-0.2,5-0.8,10-1.8,14.9
				c5.5,3.3,4.8,14.7,5.3,19.7c1.3,14.3,2,28.9,0.6,43.2c1.6,0.4,3.2,1,4.7,1.6c10.2,4.6,20.2,19.1,7.7,27.1
				c-6.6,4.3-15.5,5.2-23.2,6c-9.4,0.9-18.9,0.6-28.2-1c-6.4-1.1-13.5-2.3-16.3-8.9c-1.7-4-2.2-8.9-2.2-13.8c0-4.6,0.4-9.3,0.7-13.4
				l-0.6-3.1c-22.5,16.8-52.3,20.3-78.1,9.2l-1.4-0.1v-0.5c-16.7-7.5-30.3-20.7-38.2-37.2c-1.5,1.3-2.9,2.7-4.4,4
				c-0.6,0.6-1.7,0.6-2.3,0c-0.1-0.1-0.2-0.2-0.2-0.3c-2.7-4.9-5-9.9-7.1-15.1c-2.2,6.6-3.8,13.4-4.9,20.3c-1,6.8-0.1,14.6-2.2,21.2
				l-0.9,0.2c-2.6-6.6-1.1-15-0.1-21.9c1-7.5,2.8-14.8,5.4-21.9c0.2-0.6,0.8-1.1,1.5-1.1c-4.1-10.8-6.8-22-8.1-33.5
				c-1,1.8-2,3.5-3,5.3c-0.5,0.8-1.5,1-2.2,0.5c-0.3-0.2-0.6-0.5-0.7-0.9c-5.4-16.3-8-33.4-7.8-50.5c0-0.9,0.7-1.6,1.6-1.6
				c0.9,0,1.6,0.7,1.6,1.6c-0.1,15.6,2.1,31.1,6.6,46.1c1.2-2.1,2.4-4.3,3.6-6.4c0.5-0.7,1.4-1,2.2-0.5c0.4,0.3,0.7,0.8,0.7,1.3
				c1.5,18.7,6.8,36.9,15.7,53.4c1.5-1.4,3-2.7,4.5-4.1c0.7-0.6,2.1-0.7,2.5,0.3c20.2,44.6,77.2,58.7,115.6,28
				c0.9-0.7,2.5-0.6,2.8,0.7c0.2,1.3,0.5,2.5,0.7,3.8c22.3-11.4,38.4-31.9,44.3-56.2c-0.6-0.6-0.5-1.6,0.1-2.2
				c0.1-0.1,0.2-0.2,0.4-0.2c1.3-6.6,1.9-13.3,1.7-20c-0.1-1.7,2.3-2.2,3.1-0.8c1.1,1.8,2.3,3.5,3.4,5.3c2.7-39.3,2.1-78.7-2-117.9
				c-4.4-42-14.1-82.3-23.9-123.2c-0.1-0.5,0.2-1,0.7-1.1c0.5-0.1,0.9,0.2,1.1,0.6c13.8,38.6,20.8,80.3,25.3,120.9
				c0.9,8.4,1.7,16.8,2.3,25.2h0.1c22.4,6.2,22.7-32.6,22.5-45.8c-0.5-17.2-3.3-34.2-8.6-50.6c-10.2-33.1-27.9-63-45.2-92.7
				c-0.5-0.9,0.4-2.4,1.5-2c6.1,2.4,5.6,0.7,6.4-4l1.6,0.1c-0.1,2.6-0.3,5.2-0.4,7.8c0,0.7-0.5,1.2-1.2,1.3c-0.1,0-0.3,0-0.4-0.1
				c-1.1-0.4-2.2-0.8-3.2-1.2C347.9,163.3,368.2,198.5,376.6,237.7z M352.5,520.4c7.9-1.7,18.7-6.1,12.5-16.6
				c-2.9-4.9-8.1-7.9-13.4-9.5c-11.8-3.5-28.9-1.7-39.8,3.8c-0.7,0.4-1.5-0.5-0.9-1.1c5.3-5,12.9-5.6,19.8-6.4
				c6.3-0.7,12.9-1.2,19.1,0c-0.4-9.8-0.4-19.7-0.9-29.6c-0.3-5.4-0.7-10.7-1.3-16c-0.4-3.5,0.1-10-2.5-13.1
				c-6.3,24.7-23.3,46.3-46.6,57.6c-0.3,6-0.3,11.9,0,17.9c0.8,10.3,6.4,12.5,15.3,14c3.9,0.7,7.8,1.1,11.7,1.3
				c0.4-3.4,0.1-6.9-1.1-10.1c-0.3-1.1,1.3-1.8,1.8-0.8c1.6,3.4,2,7.2,1.1,10.9c5.3,0.2,10.6-0.1,15.9-0.7c0.6-3.5,0.7-7.1,0.4-10.6
				c-0.2-1.6,2.2-1.5,2.4,0c0.4,3.4,0.2,6.9-0.6,10.3C347.9,521.4,350.2,520.9,352.5,520.4z"/>
			<path id="Path_2294" class="st2" d="M377.1,270.6c0.2,13.2-0.2,52-22.5,45.8h-0.1c-0.6-8.4-1.3-16.8-2.3-25.2
				c-4.5-40.6-11.5-82.3-25.3-120.9c-0.2-0.5-0.7-0.8-1.2-0.6c-0.5,0.2-0.7,0.6-0.6,1.1c9.8,40.9,19.6,81.3,23.9,123.2
				c4.1,39.2,4.7,78.6,2,117.9c-1.1-1.8-2.3-3.5-3.4-5.3c-0.9-1.3-3.2-0.9-3.1,0.8c0.2,6.7-0.4,13.4-1.7,20
				c-0.7,0.3-1.1,1.1-0.9,1.8c0.1,0.2,0.2,0.4,0.4,0.6c-5.8,24.3-22,44.8-44.3,56.2c-0.2-1.3-0.5-2.5-0.7-3.8
				c-0.3-1.3-1.9-1.4-2.8-0.7c-38.4,30.8-95.4,16.7-115.6-28c-0.4-0.7-1.4-1-2.1-0.6c-0.1,0.1-0.3,0.2-0.4,0.3
				c-1.5,1.4-3,2.7-4.5,4.1c-8.8-16.6-14.1-34.7-15.7-53.4c0-0.9-0.7-1.6-1.6-1.5c-0.5,0-1,0.3-1.3,0.7c-1.2,2.1-2.4,4.3-3.6,6.4
				c-4.5-14.9-6.8-30.5-6.6-46.1c0-0.8-0.7-1.5-1.5-1.5c0,0-0.1,0-0.1,0v-0.1c21.7-0.1,27.4-27.9,27.6-45.3
				c0.3-33.3-7.3-69.7,12.9-99c1.1-1.7-1.6-3.2-2.7-1.6c-12.7,18.4-15,40.8-14.5,62.5c0.3,14.1,1.6,28.2,1.2,42.3
				c-0.4,12.7-2.8,27.7-14.6,35c-12.2,7.6-26.7-0.1-33.3-11.5s-5.9-25.5-4.5-38.2c2.8-25.1,8.5-49.8,17.1-73.6
				c9.6-26.6,22.4-52,38.2-75.5c0.3-0.6,0.1-1.4-0.5-1.8c-0.3-0.1-0.6-0.2-0.9-0.1l-5.4,1.8c1.1-4.9,2.2-9.8,3.4-14.7
				c0.2-0.6-0.2-1.3-0.9-1.4c-0.3-0.1-0.6,0-0.8,0.1c-1.6,0.8-3.2,1.7-4.9,2.5c1.5-2.9,2.5-6,3.1-9.2c0.4-0.1,0.7-0.3,1.1-0.4
				c0.4-0.1,0.7-0.2,1.1-0.2c0.8-31.3,3.9-63.3,19.9-90.8c0.2-0.4,0.3-0.9,0.1-1.3c0.2-0.5,0.1-1.1-0.3-1.4
				c-4.8-3.6-9.5-7.4-11.6-13.1c-2.5-6.8-0.7-15.6,7.4-17.6c12.9-3.2,20.2,10.4,25,19.7c0.7,1.3,2,0.9,2.6,0c0.1,0,0.3,0,0.4-0.1
				c2.6-2.1,5.3-4,8.2-5.7c6.2-3.8,13-6.4,20.1-7.6c-1.4,3.2-2.4,6.5-3.1,9.9c-0.2,1,0.7,2.2,1.8,1.8c7.7-2.7,15.4-5,23.2-7.2
				c-2,2.9-4.4,5.5-7,7.8c-0.9,0.8-0.2,2.7,1.1,2.5c6.5-0.7,13-1.3,19.5-2.4c0.4-0.1,0.8-0.5,0.9-0.9c0.5,0.4,1.3,0.3,1.7-0.3
				c0.1-0.1,0.1-0.2,0.1-0.2c2-5.6,5.1-10.7,9.2-15c4.6-4.8,14.3-11.1,20.7-5.2c5.3,4.9,3,13.5-1.1,18.2c-3.5,4-8.3,6.7-13,9.2
				c-0.1,0.1-0.3,0.2-0.4,0.3c-0.1-0.1-0.2-0.2-0.4-0.3c-1-0.7-2.2,0.9-1.3,1.6c27.8,22.9,37.9,53.5,42.3,86.4
				c0.3-0.1,0.7-0.2,1-0.3c-0.8,4.7-0.3,6.4-6.4,4c-1.1-0.4-2,1-1.5,2c17.3,29.7,35,59.6,45.2,92.7
				C373.8,236.5,376.7,253.5,377.1,270.6z M324.4,400.1c23.2-43.5,12.2-99.4,0.9-144.8c-5.8-23.4-12.6-48.4-32.3-63.9
				c-16.6-13-38.3-17.8-58.8-12.9c-0.5-0.4-1.2-0.5-1.8-0.1c-37,22.2-43.1,73.3-43.8,112.4c-0.4,25.7,2.6,51.4,8.9,76.3
				c5.3,20.9,12.2,45.2,28.8,60.2c14.8,13.4,36.2,16.3,54.9,10.6C300.2,432.1,315.1,417.4,324.4,400.1z M300.3,21.1
				c2.5-2.8,3.6-7.6,0.4-10.4c-8.7-7.8-18.6,10.4-22.1,15.5c-0.2,0.2-0.2,0.6,0,0.8c-0.7,0.3-1.1,1.1-0.4,1.7c0.9,0.9,1.9,1.7,3,2.4
				c0.2,0.2,0.6,0.2,0.8,0c0.3,0.1,0.7,0.1,1-0.1C288.7,28.7,296.1,25.8,300.3,21.1z M277.2,122.2c4.3-7.8,2-17.8-6.2-21.8
				c-0.4-0.2-0.9-0.2-1.3,0c0.1-0.9,0.1-1.7-0.1-2.6c-1.8-9.1-16.9-6.3-23.1-6.3c-4.8,0-19.6-1.2-19.5,6.9c0.1,1.3,0.4,2.5,0.9,3.7
				c-7.2,4.7-13,11.9-9.4,20.9c4.7,11.6,18.1,13.7,29.1,13.1C258.7,135.5,271.5,132.8,277.2,122.2z M198,32.1c0.8-0.1,1.1-1.1,1-1.8
				c-1-5.8-3.8-11.5-8.5-15.2c-3.3-2.6-8.2-3.9-11.6-0.7s-2,8.7-0.1,12.3c2.4,4.6,6.9,7.8,12.1,8.5c0.2,0,0.4,0,0.6-0.1
				c0.5,0.4,1.2,0.3,1.7-0.1C194.4,33.5,196.1,32.5,198,32.1z"/>
			<path id="Path_2295" class="st5" d="M365,503.8c6.2,10.5-4.7,14.9-12.5,16.6c-2.3,0.5-4.6,0.9-6.9,1.3c0.8-3.4,1-6.9,0.6-10.3
				c-0.2-1.5-2.6-1.6-2.4,0c0.4,3.5,0.3,7.1-0.4,10.6c-5.3,0.7-10.6,0.9-15.9,0.7c0.9-3.7,0.5-7.5-1.1-10.9c-0.5-1-2.1-0.3-1.8,0.8
				c1.2,3.2,1.5,6.7,1.1,10.1c-3.9-0.2-7.8-0.6-11.7-1.3c-8.8-1.5-14.4-3.7-15.3-14c-0.4-6-0.4-11.9,0-17.9
				c23.2-11.5,40.2-32.5,46.6-57.6c2.5,3.2,2.1,9.7,2.5,13.1c0.5,5.3,1,10.7,1.3,16c0.6,9.8,0.6,19.7,0.9,29.6
				c-6.2-1.2-12.8-0.8-19.1,0c-6.9,0.8-14.5,1.5-19.8,6.4c-0.6,0.6,0.2,1.5,0.9,1.1c10.9-5.6,28-7.4,39.8-3.8
				C356.9,495.8,362.2,498.9,365,503.8z"/>
			<path id="Path_2296" class="st4" d="M333.9,120.9c-0.4,0-0.7,0.1-1.1,0.1v0.4l-1.6-0.1c-0.3,0.1-0.7,0.2-1,0.3
				c-4.3-32.9-14.5-63.4-42.3-86.4c-0.9-0.8,0.3-2.3,1.3-1.6c0.1,0.1,0.3,0.2,0.4,0.3c0.1-0.1,0.2-0.2,0.4-0.3
				c4.6-2.5,9.5-5.1,13-9.2c4.1-4.7,6.4-13.3,1.1-18.2c-6.4-6-16.1,0.4-20.7,5.2c-4.1,4.3-7.2,9.4-9.2,15c-0.3,0.6-0.9,0.9-1.6,0.6
				c-0.1,0-0.2-0.1-0.2-0.1l-0.3-1.2C275.2,13.9,291-7,305.2,2.9c5.3,3.7,6.3,10.9,4.5,16.8c-2.5,7.9-10.1,12.6-17,16.4
				c23.8,18.2,35.2,48.2,40.2,77C333.2,115.6,333.6,118.3,333.9,120.9z"/>
			<path id="Path_2297" class="st6" d="M332.8,315.5c2.4,22.6,2.5,46.1-4.9,67.9c-6.2,18.4-17.8,35.7-34.9,45.6
				c-17.8,10.3-41.9,11.7-59.3-0.2c-17.8-12.2-25.2-35-30.8-54.7c-6.5-22.7-10.1-46-10.9-69.6c-1.3-41,2.6-99.4,42-123.2
				c0.4-0.2,0.7-0.6,0.7-1c18.5-3.8,37.8,0.1,53.3,10.9c18.1,12.7,25.6,33.3,31.2,53.8C325.7,268.1,330.2,291.7,332.8,315.5z"/>
			<path id="Path_2298" class="st4" d="M325.2,255.2c11.3,45.5,22.4,101.3-0.9,144.8c-9.3,17.4-24.1,32-43.3,37.8
				c-18.7,5.7-40.1,2.8-54.9-10.6c-16.6-15.1-23.5-39.3-28.8-60.2c-6.4-24.9-9.4-50.6-8.9-76.3c0.7-39.1,6.9-90.2,43.8-112.4
				c0.6-0.4,1.3-0.3,1.8,0.1c20.5-4.9,42.2-0.1,58.8,12.9C312.7,206.8,319.4,231.8,325.2,255.2z M328,383.4
				c7.4-21.8,7.3-45.3,4.9-67.9c-2.6-23.8-7.1-47.4-13.5-70.5c-5.6-20.5-13.1-41.1-31.2-53.8c-15.5-10.8-34.8-14.8-53.3-10.9
				c-0.1,0.4-0.4,0.8-0.7,1c-39.3,23.8-43.2,82.2-42,123.2c0.7,23.6,4.4,46.9,10.9,69.6c5.7,19.7,13,42.6,30.8,54.7
				c17.4,11.9,41.5,10.5,59.3,0.2C310.1,419.1,321.7,401.8,328,383.4z"/>
			<path id="Path_2299" class="st4" d="M300.8,10.7c3.1,2.8,2.1,7.6-0.4,10.4c-4.3,4.7-11.6,7.6-17.3,10.1c-0.3,0.1-0.7,0.2-1,0.1
				c-0.3,0.1-0.5,0.1-0.8,0c-1-0.8-2-1.5-3-2.4c-0.4-0.3-0.5-1-0.1-1.4c0.1-0.2,0.3-0.3,0.5-0.3c-0.2-0.2-0.2-0.6,0-0.8
				C282.2,21.1,292,2.9,300.8,10.7z M297.4,20.2c2.8-2.5,4.1-8.4-1.3-8.5c-3.8-0.1-6.4,3.5-8.5,6.2c-2.5,3.2-4.9,6.4-7.6,9.5
				l-0.1,0.1c0.5,0.4,1,0.9,1.4,1.4c0.1-0.1,0.1-0.1,0.2-0.1c0.1-0.1,0.2-0.1,0.3-0.2s0.3-0.1,0.4-0.2c3.6-1.6,7.2-3.4,10.6-5.3
				C294.4,22.3,296,21.3,297.4,20.2z"/>
			<path id="Path_2300" class="st6" d="M296.1,11.6c5.4,0.1,4.1,6,1.3,8.5c-1.4,1.1-2.9,2.1-4.5,2.9c-3.4,2-7,3.7-10.6,5.3
				c-0.2,0-0.3,0.1-0.4,0.2c-0.1,0.1-0.2,0.1-0.3,0.2c-0.1,0-0.1,0.1-0.2,0.1c-0.4-0.5-0.9-1-1.4-1.4l0.1-0.1c2.6-3.1,5-6.4,7.6-9.5
				C289.7,15.1,292.3,11.5,296.1,11.6z"/>
			<path id="Path_2301" class="st4" d="M271,100.4c8.2,4,10.5,14,6.2,21.8c-5.8,10.5-18.5,13.2-29.5,13.8s-24.4-1.5-29.1-13.1
				c-3.7-9.1,2.2-16.2,9.4-20.9c-0.6-1.1-0.9-2.4-0.9-3.7c-0.1-8.1,14.6-6.9,19.5-6.9c6.1,0,21.3-2.7,23.1,6.3
				c0.2,0.9,0.2,1.7,0.1,2.6C270.2,100.2,270.6,100.2,271,100.4z M271.2,125.2c6.5-6.4,7.4-17.5-1.7-22.1c-0.2-0.1-0.3-0.2-0.4-0.3
				c-2.9,7-14.1,11.9-19.1,15.3c-0.5,0.4-1.2,0.4-1.7,0c0.1,1,0.1,2,0.2,3.1c0,1.1,0.2,2.2,0.1,3.2c2.8-0.3,5.6-1.3,8-2.8
				c1.4-0.9,2.6,1.3,1.3,2.2c-6.5,4.6-16,4.3-22-1c-0.6-0.5,0.2-1.4,0.8-1c2.9,1.8,6.3,2.7,9.7,2.8c-0.1-1.1,0.1-2.2,0.1-3.3
				c0.1-1.2,0.1-2.5,0.2-3.7c-5.1-2.2-14.2-7.8-17.9-14c-6.5,6.5-12.6,14.5-4.6,23.2c5.7,6.1,14.5,7,22.3,6.6
				C255.1,132.9,264.8,131.4,271.2,125.2z M264.3,103.8c0.4-6.4-1.5-9.4-5.7-8.9h-13.3c-2.8,0-6.1-0.4-8.8,0.4
				c-6.9,2-5.3,5.2-1.8,9.5c3.7,4.3,8.1,8,13.1,10.8c0.1-0.2,0.3-0.3,0.5-0.5c3.1-2.1,6.3-4.2,9.4-6.3
				C259.4,107.6,263.1,105.8,264.3,103.8L264.3,103.8z"/>
			<path id="Path_2302" class="st4" d="M272,25.7l0.3,1.2c-0.1,0.4-0.5,0.8-0.9,0.9c-6.4,1.1-13,1.7-19.5,2.4
				c-0.8,0-1.5-0.7-1.5-1.5c0-0.4,0.1-0.7,0.4-1c2.7-2.3,5-4.9,7-7.8c-7.8,2.2-15.6,4.5-23.2,7.2c-1.1,0.4-2-0.8-1.8-1.8
				c0.7-3.4,1.7-6.7,3.1-9.9c-7.1,1.2-13.9,3.8-20.1,7.6l-1-1.5c7.1-4.6,14.9-7.7,23.2-9.3c0.8-0.2,1.6,0.3,1.7,1.1
				c0.1,0.4,0,0.7-0.1,1c-1.4,2.9-2.5,6-3.3,9.1c8.1-2.8,16.3-5.3,24.5-7.5c0.8-0.2,1.6,0.3,1.8,1.2c0.1,0.4,0,0.7-0.1,1
				c-1.7,3.1-3.8,5.9-6.3,8.5c4.9-0.6,9.9-1.3,14.8-1.5C271.4,25.3,271.8,25.4,272,25.7z"/>
			<path id="Path_2303" class="st7" d="M269.5,103.1c9.1,4.5,8.2,15.7,1.7,22.1c-6.4,6.3-16.1,7.7-24.7,8.1
				c-7.9,0.4-16.6-0.5-22.3-6.6c-8-8.6-1.9-16.7,4.6-23.2c3.7,6.2,12.8,11.8,17.9,14c-0.1,1.2-0.1,2.5-0.2,3.7
				c-0.1,1.1-0.2,2.2-0.1,3.3c-3.4-0.1-6.7-1.1-9.7-2.8c-0.6-0.4-1.4,0.5-0.8,1c6,5.3,15.5,5.6,22,1c1.3-0.9,0.1-3-1.3-2.2
				c-2.4,1.5-5.2,2.5-8,2.8c0.1-1.1-0.1-2.2-0.1-3.2c-0.1-1-0.1-2-0.2-3.1c0.5,0.4,1.2,0.4,1.7,0c5-3.3,16.2-8.3,19.1-15.3
				C269.2,102.9,269.3,103,269.5,103.1z"/>
			<path id="Path_2304" class="st8" d="M258.6,94.9c4.2-0.5,6.1,2.5,5.7,8.9c-1.2,2-4.9,3.8-6.7,5c-3.1,2.1-6.2,4.2-9.4,6.3
				c-0.2,0.1-0.4,0.3-0.5,0.5c-4.9-2.9-9.3-6.5-13.1-10.8c-3.5-4.3-5.1-7.5,1.8-9.5c2.7-0.8,6-0.4,8.8-0.4H258.6z"/>
			<path id="Path_2305" class="st4" d="M216.6,494.8c1.2,6.6,2.1,16.4-2.2,21.6c-4,4.9-12.2,5-17.9,5.6c-15.8,1.7-38.6,3.9-51.7-7.4
				c-4.7-4-7.5-10.5-5-16.5c2.4-5.8,8.8-8.7,14.4-10.4c0.3-0.1,0.6-0.2,0.9-0.2l0.9-0.2c14.2-3.9,30.4-3.4,42,6.5
				c1.6,1.4-0.7,3.7-2.4,2.4c-9.8-8.4-23.1-9-35.3-6.4c-5.3,1.1-11.9,2.7-15.6,7c-5.6,6.7-0.8,13.1,5.1,16.9c-2.2-4,0.3-9.7,4.6-11
				c1.1-0.3,1.9,1.5,0.8,1.9c-3.5,1.3-5.3,5.2-4,8.7c0.1,0.4-0.1,0.8-0.5,0.9c0,0,0,0-0.1,0c1.3,0.8,2.7,1.4,4.1,2
				c3.5,1.3,7.1,2.2,10.8,2.7c-0.6-4.5,0.9-9,4.1-12.2c1.1-1.1,2.6,0.5,1.7,1.7c-2.6,3-4,6.8-3.9,10.8c7.9,1,16,0.6,23.8,0
				c5.4-0.5,13.6-0.1,18.4-3c6.1-3.7,4.9-14.8,5.4-21.4L216.6,494.8z"/>
			<path id="Path_2306" class="st4" d="M214.8,21.6l1,1.5c-2.8,1.7-5.6,3.6-8.2,5.7c-0.1,0.1-0.3,0.1-0.4,0.1c-0.6,0.9-2,1.3-2.6,0
				c-4.8-9.3-12.1-22.9-25-19.7c-8,2-9.9,10.8-7.4,17.6c2.1,5.8,6.8,9.6,11.6,13.1c0.4,0.3,0.5,0.9,0.3,1.4c0.2,0.4,0.2,0.9-0.1,1.3
				c-16,27.5-19.1,59.5-19.9,90.8c-0.4,0.1-0.8,0.1-1.1,0.2c-0.4,0.1-0.7,0.3-1.1,0.4l-1.5-0.2c0.4-1.4,0.7-2.8,1-4.2v-1.9
				c1-29.9,4.8-60.3,20.1-86.6l0.1-0.1c-10.6-6.3-20.7-22.4-8.3-32.3c14.4-11.5,28.9,7,34.1,18.6c0,0.1,0,0.1,0.1,0.2
				C209.7,25.3,212.2,23.3,214.8,21.6z"/>
			<path id="Path_2307" class="st2" d="M215.2,494.2v0.5c-0.5,6.5,0.7,17.7-5.4,21.4c-4.8,2.9-13,2.5-18.4,3
				c-7.9,0.9-15.9,0.9-23.8,0c-0.2-4,1.2-7.9,3.9-10.8c0.4-0.5,0.4-1.3-0.1-1.7c-0.5-0.4-1.1-0.4-1.6,0c-3.2,3.2-4.8,7.7-4.1,12.2
				c-3.7-0.5-7.3-1.4-10.8-2.7c-1.4-0.6-2.8-1.2-4.1-2c0.4-0.1,0.7-0.4,0.6-0.8c0,0,0,0,0-0.1c-1.3-3.5,0.5-7.4,4-8.7
				c1.1-0.5,0.3-2.3-0.8-1.9c-4.4,1.3-6.9,7-4.6,11c-5.9-3.8-10.7-10.3-5.1-16.9c3.6-4.3,10.3-5.9,15.6-7c12.2-2.5,25.5-2,35.3,6.4
				c1.6,1.4,4-1,2.4-2.4c-11.6-10-27.7-10.4-42-6.5c2-6.6,1.1-14.3,2.2-21.2c1.1-6.9,2.7-13.7,4.9-20.3c2.1,5.2,4.5,10.2,7.1,15.1
				c0.5,0.8,1.5,1,2.2,0.5c0.1-0.1,0.2-0.1,0.3-0.2c1.5-1.3,2.9-2.7,4.4-4C185.1,473.6,198.5,486.8,215.2,494.2z"/>
			<path id="Path_2308" class="st4" d="M199.1,30.4c0.2,0.8-0.3,1.5-1,1.8c-1.9,0.3-3.6,1.4-4.8,2.9c-0.5,0.5-1.2,0.5-1.7,0.1
				c-0.2,0.1-0.4,0.1-0.6,0.1c-5.2-0.8-9.6-3.9-12.1-8.5c-1.9-3.6-3.3-9.1,0.1-12.3s8.3-1.9,11.6,0.7
				C195.2,18.9,198,24.6,199.1,30.4z M191.1,33.4c1.1-1.8,2.8-3.1,4.8-3.7c-1.7-6-8.2-18.9-14.7-12.8c-3.2,3.1-0.4,8.6,2.1,11.5
				C185.4,30.7,188,32.5,191.1,33.4C191,33.4,191,33.4,191.1,33.4z"/>
			<path id="Path_2309" class="st6" d="M195.9,29.7c-2,0.6-3.7,1.9-4.8,3.7c0,0.1,0,0.1-0.1,0.1l0,0c-3-1-5.6-2.7-7.7-5.1
				c-2.5-2.9-5.3-8.5-2.1-11.5C187.7,10.8,194.2,23.7,195.9,29.7z"/>
			<path id="Path_2310" class="st4" d="M179.4,215.9c1.1-1.6,3.9-0.1,2.7,1.6c-20.3,29.3-12.6,65.8-12.9,99
				c-0.2,17.5-5.9,45.2-27.6,45.3c-1.4,0-2.7-0.1-4.1-0.3c-24.5-3.5-29-31.7-27.2-51.7c4.8-53.8,24.3-106.5,54.4-151.2
				c-1.3,0.4-2.7,0.9-4,1.3c-0.7,0.2-1.3-0.3-1.5-1c0-0.2,0-0.4,0-0.5c1.1-4.8,2.3-9.6,3.4-14.4l-6,3c-0.9,0.5-2.2-0.5-1.5-1.5
				c2.4-3.6,4.2-7.5,5.3-11.6l1.5,0.2c-0.6,3.2-1.6,6.3-3.1,9.2c1.6-0.8,3.3-1.7,4.9-2.5c0.5-0.3,1.3-0.1,1.6,0.4
				c0.2,0.3,0.2,0.6,0.1,0.9c-1.1,4.9-2.2,9.8-3.4,14.7l5.4-1.8c1-0.3,2.1,1,1.4,1.9c-15.8,23.5-28.6,48.9-38.2,75.5
				c-8.5,23.8-14.3,48.5-17.1,73.6c-1.4,12.7-2,26.7,4.5,38.2c6.5,11.4,21.1,19.2,33.3,11.5c11.8-7.4,14.2-22.3,14.6-35
				c0.4-14.1-0.9-28.2-1.2-42.3C164.4,256.7,166.7,234.3,179.4,215.9z"/>
			<path id="Path_2311" class="st9" d="M233.7,13.7c-9.6,1.5-20.6,6.7-26.6,14.4c-0.7,0.9,0.2,2.4,1.3,1.7c4.1-2.3,7.9-4.9,12.2-6.8
				c4.7-1.9,9.5-3.4,14.5-4.3C238.4,18,237,13.2,233.7,13.7z"/>
			<path id="Path_2312" class="st9" d="M257.6,17.3c-8.6,0.9-17,3.9-24.2,8.7c-1.2,0.8-0.5,2.9,1,2.5c3.9-1.1,7.8-2.5,11.8-3.5
				s8.1-1.5,12.1-2.3C261.2,22,260.6,17,257.6,17.3z"/>
			<path id="Path_2313" class="st9" d="M303.9,0c-9.2,0.1-17.2,5.5-22.7,12.6c-1.8,2.4-3,5-4.7,7.4c-1.7,2.5-2,2.8-5.2,3.7
				c-6.1,1.7-12.8,1.9-19,3.4c-0.9,0.3-1.4,1.2-1.1,2.1c0.2,0.7,0.8,1.2,1.5,1.2c5.6,0.1,11.3-0.1,16.9-0.6c3.7-0.3,7.5,0.1,10-3.1
				c3.2-4.1,4.4-9.2,8-13.2c4.6-5.1,10.2-7.5,16.9-8.5C307.5,4.6,306.7,0,303.9,0z"/>
			<path id="Path_2314" class="st9" d="M274.5,98.5c-0.4-2.8-2.5-5-5.2-5.5c-3.1-0.8-5,3.6-2.2,5.2c0.6,0.3,1,0.9,1.1,1.5
				c-0.5,0.7-0.7,1.6-0.6,2.4c-3.1,5.5-15.7,14.1-17.7,15.5c-1.4,1-0.6,3.7,1.3,3.1c7.3-2.6,15.4-7.3,20.6-13.2
				c0.5-0.5,0.9-1.1,1.3-1.8c6.2,2.7,7.5,10.2,3.8,16.4c-3.7,6.1-11.1,9.8-17.8,11.6c-11.2,2.9-34.1,1.8-38.3-11.8
				c-0.1-0.4-0.5-0.5-0.8-0.4c-0.3,0.1-0.5,0.3-0.5,0.6c0.2,8.6,9,14,16.3,16.7c10.6,3.9,22.3,3.7,32.7-0.8
				c9-3.9,17.6-11.5,18.2-21.9C287.1,107.8,282.2,100.3,274.5,98.5z"/>
			<path id="Path_2315" class="st9" d="M175.4,89.8c1.2-8.1,4.1-15.9,5.5-23.9c1.5-8.2,3.2-15.7,8.3-22.5c1.5-2-0.6-4.4-2.8-4.4
				c-1.9-1.9-4.5-2.9-6.5-4.8c-3-3.1-5-7-5.7-11.2c-0.9-5.4,1.5-6.6,5.6-9c1.8-1.1,2.2-1.2,3-3.3c0.9-2.5-2.4-3.8-4.1-2.4
				c-1,0.8-3,0.7-4.1,1.3c-1.7,0.9-3.2,2.1-4.3,3.7c-2.2,3.3-2.9,7.4-2.1,11.3c1.4,7.5,6.8,15.7,14.7,17.1c-3.9,5-5.8,11.1-7.2,17.3
				c-0.2,1.1-0.5,2.2-0.8,3.3c-8.9,12.6-10.1,30.2-9.3,45c0,0.2,0.1,0.5,0.3,0.6c-0.2,1.4-0.5,2.9-0.8,4.3
				c-1.9,9.8-4.6,19.3-8.2,28.6c-1,2.5,2,5.2,4.4,4.4c0.1,0,0.1,0,0.2-0.1c-0.6,3.2-1.4,6.3-2.4,9.4c-0.8,2.5,1.9,5.5,4.5,4.5
				c1.8-0.7,3.6-1.4,5.3-2.3c-2.1,2.5-4.3,4.8-5.4,8c-0.8,2.2-1.6,4.4-2.4,6.5c-8.7,12.4-16.5,25.5-23.3,39.1
				c-6,12.1-9.4,25.3-12.3,38.5c-0.1,0.3-0.2,0.6-0.2,0.9c-3.6,12.3-8.9,24.5-8.8,37.5c0,0.5,0.4,0.9,0.9,1
				c-1.2,5.8-2.4,11.5-3.5,17.3c-1.8,9.1-3,18.5-0.7,27.6c3.2,12.4,14.9,26.9,28.6,28.3c-0.5,1-0.2,2.1,0.6,2.8
				c0,0.1-0.1,0.2-0.1,0.3c-1.9,14.8,2,30.3,6.5,44.3c0.5,1.5,3.1,1.4,3-0.4c-1.1-14.4-2.5-28.5-2.8-42.9c21.1,0,24.9-39.6,24-54.3
				c-0.8-14.8-2.5-29.4-1.6-44.3c1-15.4,3-33.9,13.3-46.3c2-2.4-1.4-6-3.5-3.5c-15.8,18.5-14.7,47.2-14.8,70
				c0,6.8-0.2,13.5-0.2,20.3c0,7.3,0.6,14.8-0.9,22c-2.1,10-6.8,27.7-18.4,30.3c0-0.5-0.3-1.1-0.8-1.3c-6.9-4.1-13.5-7-18.6-13.5
				c-5.4-6.8-8.2-15.2-7.9-23.9c0.2-9.6,3-19.2,5-28.6c2.1-9.8,4.2-19.7,6.2-29.5c4-19.2,6.8-37.9,16.2-55.4
				c2.6-4.9,5.4-9.6,8.3-14.3c1.8-2.6,3.6-5.2,5.4-7.9c1.2-1.9,2.3-3.8,3.4-5.8c4.7-7.1,9.6-14.1,14.7-21c1.4-1.9-0.1-4.1-1.9-4.8
				c-0.3-0.6-0.9-1.1-1.6-1.3c0.6-1.3-0.9-2.9-2.4-2.6c-1.7,0.4-3.3,0.8-4.9,1.1c1-3.7,1.7-7.6,2.2-11.4c0.2-2-1.9-3.9-3.9-3.8
				c2.2-6.3,4-12.8,5.4-19.3C173.6,107.7,174.1,98.8,175.4,89.8z"/>
			<path id="Path_2316" class="st9" d="M213.8,489.6c-12.9-9.5-26.3-17.8-35.9-31c-1.7-2.3-5.5-2.3-6.3,0.8c0,0.1-0.1,0.2-0.1,0.4
				c-1.7-2.6-3.2-5.2-4.8-7.9c0.2-1.8-0.8-3.5-2.5-4.1l-0.6-0.9c-0.5-0.9-1.7-1.1-2.6-0.6c-0.7,0.4-1,1.2-0.8,2
				c0.1,0.2,0.1,0.4,0.2,0.6c-0.1,0.1-0.2,0.2-0.2,0.4c-5.5,12.3-9.3,24.7-4,37.7c0.3,0.9,1.3,1.5,2.2,1.2c0.7-0.2,1.3-0.9,1.3-1.7
				c0.6-6.2,0.2-12.2,1.9-18.3c0.8-3,1.9-5.9,2.9-8.8c1.3,2.7,2.7,5.4,4.2,8c1.2,2.1,3.7,2,5.3,0.7c0.6-0.4,1.1-0.9,1.6-1.5
				c9.5,11.8,21.9,21.2,34.8,29C214.2,498.2,217.4,492.3,213.8,489.6z"/>
			<path id="Path_2317" class="st9" d="M349.3,432.1c-2.2-4.2-8.5-0.5-6.3,3.7c3.6,7-10.9,22.1-15.1,26.7
				c-6.5,7-13.8,13.3-21.8,18.6c-6.2,4.1-7.9,7.5-8.1,14.9c-0.2,8-0.1,16.8,4.8,23.5c1,1.3,3.3,0.6,2.8-1.2
				c-2.3-8-5.6-24.6,2.1-30.4c7-5.3,14.2-9.5,20.6-15.6c6-5.8,11.4-12.2,16-19.2C348.7,446.6,353.3,439.6,349.3,432.1z"/>
			<path id="Path_2318" class="st9" d="M271.5,181c-16.6-7-42.4-2.1-54.3,11.9c-6.3,7.5-9.5,17.4-12.9,26.5
				c-4.2,10.9-8.1,22-10.2,33.5c-4.2,23.3-1.6,47.7,0.1,71.2c1.6,23.1,3.9,46.8,11.2,68.9c7.5,22.8,27.1,37.7,48.3,47.4
				c0.8,0.4,1.8,0.1,2.3-0.7c0.4-0.8,0.2-1.7-0.6-2.2c-10.7-7.2-21.1-15.3-29.9-24.7c-8.9-9.6-12.9-21-15.8-33.5
				c-6.1-26.1-7.4-53.1-8.8-79.8c-0.7-13.9-1.4-28,0.7-41.9c1.9-12.4,6.1-24.4,10.6-36.1c4.5-11.6,8.4-23.6,19.6-30.5
				c12.3-7.5,25.4-6.8,39.1-5.4C273.8,186,273.7,181.9,271.5,181z"/>
			<path id="Path_2319" class="st9" d="M364,299.3c-0.4-5.6-1.2-11.2-2.2-16.8c-2.3-13-5.9-25.7-9-38.5c-3.1-12.9-6.2-25.8-9.5-38.6
				c-3.1-11.8-6.5-24.6-13.8-34.6c-0.6-1-2-1.3-3-0.6c-0.8,0.5-1.2,1.4-0.9,2.3c2.8,11.4,6.7,22.5,9.6,33.9
				c2.8,11.1,5.4,22.2,8.1,33.3c2.1,8.5,4.2,16.9,6.2,25.4c-3.6,2.9-1,12-0.6,15.5c1.2,11.1,2.3,22.9,5.1,33.7
				c0.6,2,2.7,3.1,4.7,2.6h0.7c1.4,0,2.7-0.8,3.5-2C365.6,310.3,364.4,304.3,364,299.3z"/>
		</g>
		<ellipse id="Ellipse_955" class="st10" cx="2434.6" cy="15498.5" rx="15.6" ry="21.3"/>
		
			<ellipse id="Ellipse_956" transform="matrix(0.9869 -0.1613 0.1613 0.9869 -2469.9641 586.8104)" class="st11" cx="2379.3" cy="15506.6" rx="3.7" ry="5.9"/>
		
			<ellipse id="Ellipse_957" transform="matrix(0.2604 -0.9655 0.9655 0.2604 -13166.8779 13817.0068)" class="st11" cx="2435.2" cy="15502.8" rx="5.9" ry="3.7"/>
	</g>
	<path id="Path_2663" class="st12" d="M1764.8,14171.3c5.7-30.9,12.8-91.6-6.5-141.2c-5.8-15.3-19.1-26.4-35.2-29.3
		c-10.9-1.8-11.1-1.7-24.9,0c-5.2,15.7,2.7,19.3-3.4,35.7c-10.1,27.2-71.8,70.3-70,131c0.6,20.7,13.8,38.7,33,44.4
		c8.7,2.5,17.7,3.8,26.7,3.9c23.3,0.6,40.9-4.1,53.3-9.6C1752,14199.7,1762.1,14186.7,1764.8,14171.3z"/>
	<path id="Path_2664" class="st13" d="M2012.7,14177.8c5.3-29.6,10.4-79.9-4.8-123.6c-7.1-20.4-45.1-16.8-67.2-19.2
		c-6.7-0.8,5.3-19.3-2.3-19.1c-22.9,0.6-43.1,14.9-51.3,36.2c-9.7,26-5.8,65-5.5,116.1c0.2,27.6-1.2,38.8,33.4,40.7
		c3.9,0.5,15.6,2.1,20.1,2.2c18.9,0.4,27.1,13.5,39.1,9.8C1994.2,14214.4,2009.1,14197.9,2012.7,14177.8z"/>
	<g class="st14">
		<path class="st15" d="M1696.4,13577.1c0,0.7,0,1.3-0.1,1.9c-1.2,7.3-4.7,11-10.4,11c-2.9,0-5.5-0.7-7.8-2.2v1
			c0,2.1,0.2,3.6,0.6,4.4c0.6,1.1,0.9,1.7,0.9,1.9c0,0.6-0.2,1.2-0.7,1.7c-0.5,0.5-1.1,0.7-1.7,0.7c-1.4,0-2.4-0.5-2.9-1.5
			c-0.3-0.6-0.5-1.7-0.6-3.4c-0.1-1.1-0.1-2.3-0.1-3.7c0-0.5,0.1-1.3,0.2-2.4c0.1-1.1,0.2-1.9,0.2-2.5v-3.2c0-0.9,0-2.4,0.2-4.2
			c0.2-1.9,0.2-3.2,0.2-4.1v-4.3c0-0.1-0.1-0.9-0.4-2.6c0.8-0.8,1.6-1.1,2.3-1.1c0.8,0,1.5,0.3,2,0.9c0.5,0.6,0.8,1.4,0.8,2.3
			c0,0.2,0,0.4,0,0.7c2.1-2.8,4.7-4.1,7.9-4.1c3,0,5.4,1.1,7.1,3.4c1.6,2,2.3,4.6,2.3,7.7c0,0.2,0,0.6,0,1
			S1696.4,13576.9,1696.4,13577.1z M1692.1,13576.4c0-2.2-0.3-4.1-1-5.6c-0.9-2.1-2.3-3.1-4.2-3.1c-2.4,0-4.5,1.5-6.3,4.5
			c-1.6,2.6-2.3,5.2-2.3,7.8c0,4.4,2.2,6.6,6.6,6.6c2.4,0,4.1-1,5.2-3.1c0.6-1.1,1.2-3.2,1.8-6.2
			C1692,13576.6,1692.1,13576.3,1692.1,13576.4z"/>
		<path class="st15" d="M1716,13587.4c0,2.8-0.7,5.3-2.1,7.3c-1.6,2.3-3.8,3.5-6.6,3.5c-2.8,0-4.9-1-6.3-2.8c-1.3-1.7-1.9-4-1.9-6.8
			c0-2.9,0.7-5.5,2.1-8.1c1.6-3,3.8-4.5,6.4-4.5c0.8,0,1.9,0.4,3.1,1.1C1714.2,13579.2,1716,13582.6,1716,13587.4z M1711.8,13587.3
			c0-4.8-1.2-7.3-3.5-7.3c-1.7,0-2.9,1-3.8,3.1c-0.6,1.6-1,3.3-1,5.3c0,4.2,1.3,6.3,3.8,6.3c1.6,0,2.8-0.9,3.6-2.6
			C1711.5,13590.8,1711.8,13589.2,1711.8,13587.3z"/>
		<path class="st15" d="M1724.6,13595.5c0,0.6-0.2,1.1-0.7,1.4c-0.5,0.4-1,0.6-1.6,0.6c-2,0-3-2.6-3-7.8c0-2.4,0-5.9,0.1-10.7
			c0-4.8,0.1-8.3,0.1-10.7c0-0.4,0-0.9-0.1-1.7c-0.1-0.7-0.1-1.3-0.1-1.6c1-0.7,1.9-1,2.5-1c0.7,0,1.4,0.2,2,0.7c0.6,0.5,1,1,1,1.7
			c0,0.3-0.1,0.8-0.2,1.2c-0.2,0.8-0.3,1.2-0.4,1.2c-0.4,2-0.6,4.8-0.6,8.4c0,5.7,0,8.7,0,8.8c0.1,4,0.4,6.8,1,8.4
			C1724.5,13594.9,1724.6,13595.3,1724.6,13595.5z"/>
		<path class="st15" d="M1743.7,13588.7c0,4.1-0.1,7-0.4,8.6c-0.2,1-0.8,1.5-2,1.5c-1.8,0-2.6-0.9-2.4-2.7c-1.6,0.8-3.2,1.1-4.9,1.1
			c-1.6,0-3.2-0.4-4.7-1.2c-1.8-1-2.7-2.2-2.7-3.8c0-1.5,1-2.9,3-4.2c1.8-1.2,3.6-1.8,5.2-1.8h4v-1.1c0-3.3-1-4.9-2.9-4.9
			c-2.5,0-3.8,1.2-3.8,3.5c0,0.8-0.4,1.2-1.3,1.2c-0.5,0-1.1-0.2-1.7-0.7c-0.6-0.5-0.9-1-0.9-1.5c0-1.8,0.6-3.2,1.9-4.4
			c1.3-1.1,2.8-1.7,4.6-1.7C1740.7,13576.6,1743.7,13580.7,1743.7,13588.7z M1738.9,13590.4c0-0.6-0.5-1-1.4-1c-4,0-5.9,0.9-5.9,2.8
			c0,1,0.9,1.5,2.6,1.5c1.1,0,2.1-0.3,3-0.9C1738.3,13592.2,1738.9,13591.4,1738.9,13590.4z"/>
		<path class="st15" d="M1759.9,13580.5c0,0.2,0,0.6-0.1,1c-0.7,1-1.4,1.4-2.1,1.4c-0.6,0-1.1-0.3-1.6-1c-0.1-1.4-0.6-2.1-1.5-2.1
			c-0.6,0-1.3,1.5-2.1,4.5c-0.4,1.3-0.6,3.2-0.6,5.6c0,2.2,0.1,3.6,0.3,4.1c0.2,0.6,0.4,1,0.4,1.2c0,0.5-0.2,1-0.7,1.3
			c-0.5,0.3-1,0.5-1.6,0.5c-1.7,0-2.5-0.8-2.5-2.4c0-0.2,0-0.4,0.1-0.7s0.1-0.5,0.1-0.6c0-1.6-0.1-4-0.2-7.2
			c-0.2-3.2-0.2-5.6-0.2-7.1c0-1.4,0.9-2.1,2.6-2.1c1,0,1.7,0.3,2.1,0.9c0.9-1,1.9-1.5,3-1.5c0.8,0,1.5,0.2,2.2,0.6
			c0.5,0.3,1,0.8,1.7,1.6C1759.6,13579.3,1759.9,13580,1759.9,13580.5z"/>
		<path class="st15" d="M1787.2,13582.7c-0.1,0.8-0.3,2.2-0.6,4.2c-0.3,1.7-0.5,3.1-0.5,4.2c0,0.9,0,2.4,0.1,4.3
			c0.1,1.9,0.1,3.3,0.1,4.3c0,2-0.2,3.4-0.6,4.4c-0.4,1.2-1.3,2.2-2.5,2.9s-2.5,1.1-3.8,1.1c-1.4,0-3.1-0.4-5.2-1.1
			c-2.5-0.9-3.7-1.9-3.7-2.9c0-1.4,0.6-2.1,1.9-2.1c0.6,0,1,0.2,1.2,0.5c0.4,0.6,0.7,1,0.8,1.1c0.1,0.1,0.7,0.3,1.5,0.5
			c0.9,0.2,1.5,0.3,1.9,0.3c2.8,0,4.3-1.8,4.3-5.4c0-1,0-1.9-0.1-2.7c-1.4,1.2-3,1.8-4.9,1.8c-0.8,0-1.7-0.2-2.7-0.7
			c-1-0.4-1.7-1-2.2-1.6c-1-1.1-1.5-2.8-1.5-5.1c0-2.7,0.6-5.7,1.9-8.9c1.5-4,3.4-5.9,5.6-5.9c1.3,0,2.6,0.6,3.8,1.9
			c0.9,1.2,1.8,2.3,2.7,3.5c0.3,0.3,0.6,0.6,1.2,0.9C1786.6,13582.3,1787,13582.5,1787.2,13582.7z M1782.4,13585.5
			c0-0.5-0.2-0.9-0.7-1.2c-0.2-2.9-1.2-4.4-3-4.4c-1,0-1.9,1.5-2.6,4.4c-0.5,2.2-0.8,4.2-0.8,5.8c0,3.1,0.8,4.7,2.4,4.7
			c1.5,0,2.7-1.2,3.6-3.7C1782.1,13589.3,1782.4,13587.4,1782.4,13585.5z"/>
		<path class="st15" d="M1804.9,13579.8c0,1-0.1,2.5-0.4,4.4c-0.2,2-0.4,3.5-0.4,4.5c0,0.9,0,2.2,0.1,4c0.1,1.8,0.1,3.1,0.1,3.9
			c0,0.7-0.6,1.1-1.9,1.1c-1.3,0-2.1-0.6-2.4-1.8c-1.2,0.8-2.4,1.2-3.5,1.2c-0.9,0-2-0.2-3.1-0.7c-1.2-0.5-2-1.1-2.5-1.8
			c-0.9-1.3-1.4-3.5-1.4-6.4c0-1,0-2.8,0.1-5.3c0.1-2.2,0.1-4,0.1-5.3c1-0.7,1.8-1,2.4-1c1.5,0,2.3,0.7,2.3,2.2
			c0,0.5-0.1,1.3-0.2,2.3c-0.2,1-0.2,1.8-0.2,2.3v6.7c0,0.8,0.2,1.6,0.6,2.4c0.5,1,1.1,1.4,1.8,1.4c1.4,0,2.4-0.9,3-2.6
			c0.4-1.2,0.7-2.7,0.7-4.4v-5.7c0-0.7-0.2-1.6-0.6-2.7c0.8-0.7,1.6-1.1,2.3-1.1c0.8,0,1.4,0.2,2.1,0.7
			C1804.6,13578.5,1804.9,13579.1,1804.9,13579.8z"/>
		<path class="st15" d="M1824.3,13578.6c-0.3,1.6-0.6,3.2-0.8,4.7c-0.3,1.8-0.5,3.4-0.5,4.7v12.9c0,2.3-0.7,4.1-2,5.4
			c-1.3,1.2-3.2,1.9-5.5,1.9c-1.5,0-3.2-0.4-5-1.2c-2.2-0.9-3.3-2-3.3-3.3c0-0.4,0.2-0.8,0.5-1.1c0.4-0.3,0.8-0.5,1.2-0.5
			c0.3,0,1,0.4,2,1.3c1.1,0.9,2.3,1.3,3.7,1.3c1.8,0,3-0.6,3.6-1.9c0.4-0.9,0.7-2.3,0.7-4.3c0-0.7,0-1.3,0-1.8c-1,0.7-2.2,1-3.5,1
			c-2.4,0-4.2-0.9-5.5-2.6c-1.2-1.6-1.8-3.5-1.8-5.9c0-0.3,0.2-4.2,0.5-12c0.9-0.4,1.7-0.6,2.3-0.6c0.6,0,1.6,0.4,2.8,1.1
			c-0.8,1.9-1.1,5.7-1.1,11.4c0,3.6,0.9,5.5,2.8,5.5c1.4,0,2.4-1.1,3.1-3.4c0.5-1.6,0.8-3.4,0.8-5.1v-5.8c0,0,0-0.5-0.1-1.6
			c1.3-0.6,2.3-1,2.9-1C1822.6,13577.7,1823.3,13578,1824.3,13578.6z"/>
		<path class="st15" d="M1841.9,13592c0,1.5-0.6,2.8-1.9,3.9c-1.4,1.2-3.3,1.8-5.6,1.8c-1,0-2.1-0.2-3.3-0.6
			c-3.8-1.4-5.7-2.6-5.7-3.5c0-1.4,1-2.1,3-2.1c0.3,0,0.6,0,0.9,0c0.1,0.9,0.9,1.7,2.3,2.3c1.2,0.5,2.4,0.7,3.6,0.6
			c0.9-0.1,1.4-0.4,1.4-1c0-0.1,0-0.2-0.1-0.4c0-0.2-0.1-0.3-0.1-0.5c0-0.1-0.6-0.4-1.8-0.7c-1.4-0.4-2.1-0.6-2.3-0.7
			c-3.6-2.2-5.4-4.8-5.4-7.8c0-1.8,0.5-3.5,1.6-5.1c1.2-1.7,2.6-2.6,4.4-2.6c1.3,0,2.8,0.5,4.4,1.5c1.7,1,2.7,2.1,3.1,3.3
			c0.3,0.8,0.4,1.5,0.4,2c0,0.6-0.1,1-0.2,1.4c-0.2,0.5-0.4,1-0.6,1.4c-0.6,0.4-1.2,0.6-1.8,0.6c-0.3,0-0.8-0.2-1.6-0.6
			c-0.7-0.4-1.1-0.7-1.1-1c0-0.1,0.2-0.5,0.6-1.2c0.2-0.4,0.3-0.8,0.3-1c0-1.9-0.7-2.8-2.2-2.8c-0.9,0-1.6,0.6-2,1.7
			c-0.3,0.9-0.5,1.8-0.5,2.8c0,1.3,0.9,2.4,2.7,3.4c1.6,0.7,3.3,1.5,5,2.2C1841,13590.3,1841.9,13591.1,1841.9,13592z"/>
		<path class="st15" d="M1869.6,13588.7c0,4.1-0.1,7-0.4,8.6c-0.2,1-0.8,1.5-2,1.5c-1.8,0-2.6-0.9-2.4-2.7c-1.6,0.8-3.2,1.1-4.9,1.1
			c-1.6,0-3.2-0.4-4.7-1.2c-1.8-1-2.7-2.2-2.7-3.8c0-1.5,1-2.9,3-4.2c1.8-1.2,3.6-1.8,5.2-1.8h4v-1.1c0-3.3-1-4.9-2.9-4.9
			c-2.5,0-3.8,1.2-3.8,3.5c0,0.8-0.4,1.2-1.3,1.2c-0.5,0-1.1-0.2-1.7-0.7c-0.6-0.5-0.9-1-0.9-1.5c0-1.8,0.6-3.2,1.9-4.4
			s2.8-1.7,4.6-1.7C1866.6,13576.6,1869.6,13580.7,1869.6,13588.7z M1864.8,13590.4c0-0.6-0.5-1-1.4-1c-4,0-5.9,0.9-5.9,2.8
			c0,1,0.9,1.5,2.6,1.5c1.1,0,2.1-0.3,3-0.9C1864.2,13592.2,1864.8,13591.4,1864.8,13590.4z"/>
		<path class="st15" d="M1885.8,13580.5c0,0.2,0,0.6-0.1,1c-0.7,1-1.4,1.4-2.1,1.4c-0.6,0-1.1-0.3-1.6-1c-0.1-1.4-0.6-2.1-1.5-2.1
			c-0.6,0-1.3,1.5-2.1,4.5c-0.4,1.3-0.6,3.2-0.6,5.6c0,2.2,0.1,3.6,0.3,4.1c0.2,0.6,0.4,1,0.4,1.2c0,0.5-0.2,1-0.7,1.3
			c-0.5,0.3-1,0.5-1.6,0.5c-1.7,0-2.5-0.8-2.5-2.4c0-0.2,0-0.4,0.1-0.7s0.1-0.5,0.1-0.6c0-1.6-0.1-4-0.2-7.2
			c-0.2-3.2-0.2-5.6-0.2-7.1c0-1.4,0.9-2.1,2.6-2.1c1,0,1.7,0.3,2.1,0.9c0.9-1,1.9-1.5,3-1.5c0.8,0,1.5,0.2,2.2,0.6
			c0.5,0.3,1,0.8,1.7,1.6C1885.5,13579.3,1885.8,13580,1885.8,13580.5z"/>
		<path class="st15" d="M1902.6,13592.6c0,1.6-1.1,2.8-3.2,3.7c-1.7,0.7-3.4,1-5.3,1c-4.9,0-7.3-2.8-7.3-8.3c0-2.3,0.6-4.8,1.7-7.6
			c1.4-3.4,3-5.1,4.9-5.1c1.7,0,3.6,0.8,5.6,2.3c2,1.6,3,3.2,3,4.8c0,2.1-0.9,3.8-2.8,5c-1.6,1.1-3.6,1.7-5.9,1.7
			c-0.4,0-1.2-0.3-2.1-0.8c0.1,3,1,4.5,2.7,4.5c1.4,0,2.8-0.4,4.1-1.2c1.3-0.8,2.2-1.2,2.6-1.2
			C1901.9,13591.5,1902.6,13591.9,1902.6,13592.6z M1897.4,13583.6c0-0.8-0.2-1.5-0.7-2.3c-0.5-0.7-1.1-1.1-1.8-1.1
			c-1,0-1.9,0.5-2.4,1.4c-0.5,0.8-0.7,1.7-0.7,2.8c0,0.6,0.2,1.1,0.6,1.5c0.4,0.4,0.9,0.6,1.6,0.6
			C1896.3,13586.5,1897.4,13585.6,1897.4,13583.6z"/>
		<path class="st15" d="M1928.3,13597.6c-0.6,0.6-1.4,0.9-2.4,0.9c-0.7,0-1.3-0.4-2-1.2c0-2.8,0-4.9,0-6.5c0-7-1-10.5-3-10.5
			c-2.1,0-3.1,2.8-3.1,8.5c0,0.3,0,0.8,0,1.4s0,1.1,0,1.4c0,0.5,0.1,1.2,0.2,2.2c0.2,1,0.2,1.7,0.2,2.2c0,0.4-0.2,0.8-0.7,1.1
			c-0.5,0.3-0.9,0.5-1.4,0.5c-0.8,0-1.5-0.3-2-1c-0.6-0.7-0.8-1.4-0.8-2.2l0.2-27.5c0-0.1,0-0.2,0-0.4c0-0.2,0-0.3,0-0.3
			c0-1.1,0.6-1.7,1.9-1.7c0.6,0,1.3,0.3,2.1,0.8c0.8,0.6,1.2,1.1,1.2,1.7c0,0.7-0.2,1.7-0.5,3.1c-0.3,1.4-0.5,2.4-0.5,3.1
			c0,0.9,0,2.3,0.1,4.2c0.7-0.4,1.3-0.6,1.8-0.6c1.2,0,2.6,0.3,4,0.9c1.9,0.8,3.2,2.1,3.9,3.8c0.5,1.3,0.8,3.2,0.8,5.5V13597.6z"/>
		<path class="st15" d="M1948,13588.7c0,4.1-0.1,7-0.4,8.6c-0.2,1-0.8,1.5-2,1.5c-1.8,0-2.6-0.9-2.4-2.7c-1.6,0.8-3.2,1.1-4.9,1.1
			c-1.6,0-3.2-0.4-4.7-1.2c-1.8-1-2.7-2.2-2.7-3.8c0-1.5,1-2.9,3-4.2c1.8-1.2,3.6-1.8,5.2-1.8h4v-1.1c0-3.3-1-4.9-2.9-4.9
			c-2.5,0-3.8,1.2-3.8,3.5c0,0.8-0.4,1.2-1.3,1.2c-0.5,0-1.1-0.2-1.7-0.7c-0.6-0.5-0.9-1-0.9-1.5c0-1.8,0.6-3.2,1.9-4.4
			s2.8-1.7,4.6-1.7C1945,13576.6,1948,13580.7,1948,13588.7z M1943.2,13590.4c0-0.6-0.5-1-1.4-1c-4,0-5.9,0.9-5.9,2.8
			c0,1,0.9,1.5,2.6,1.5c1.1,0,2.1-0.3,3-0.9C1942.6,13592.2,1943.2,13591.4,1943.2,13590.4z"/>
		<path class="st15" d="M1968.1,13585.5c0,3.2-0.6,6-1.7,8.2c-1.4,2.9-3.6,4.4-6.5,4.4c-1.6,0-2.9-0.4-4-1.3c0,0.3,0,0.8,0,1.4
			c0,0.7,0,1.2,0,1.4c0,3,0.3,5.4,1,7.2c0.3,0.7,0.5,1.1,0.5,1.3c0,1.1-0.6,1.6-1.9,1.6c-1,0-1.7-0.2-2.1-0.5c-0.3-0.2-0.7-1-1-2.4
			c-0.3-1.2-0.4-2.1-0.4-2.8v-11.4c0-1,0.1-2.5,0.2-4.3c0.1-2,0.2-3.4,0.2-4.2c0-0.8,0-1.8,0-3.1c0-1.6,0-2.7,0-3.2
			c0-2.7,0.9-4,2.6-4c0.4,0,0.8,0.2,1.2,0.5c0.4,0.3,0.6,0.7,0.6,1.1c0,0.7-0.1,2-0.2,3.8c1.2-1.7,2.7-2.6,4.5-2.6
			c2.3,0,4.1,1,5.4,2.8C1967.6,13581,1968.1,13583,1968.1,13585.5z M1963.9,13585.1c0-3.4-0.7-5.1-2.2-5.1c-0.6,0-1.5,0.6-2.5,1.9
			c-2,2.4-3.1,5.7-3.2,9.8c0.3,0.2,1,0.9,1.9,2c0.7,0.9,1.4,1.3,2.1,1.3C1962.6,13594.9,1963.9,13591.6,1963.9,13585.1z"/>
		<path class="st15" d="M1987.5,13585.5c0,3.2-0.6,6-1.7,8.2c-1.4,2.9-3.6,4.4-6.5,4.4c-1.6,0-2.9-0.4-4-1.3c0,0.3,0,0.8,0,1.4
			c0,0.7,0,1.2,0,1.4c0,3,0.3,5.4,1,7.2c0.3,0.7,0.5,1.1,0.5,1.3c0,1.1-0.6,1.6-1.9,1.6c-1,0-1.7-0.2-2.1-0.5c-0.3-0.2-0.7-1-1-2.4
			c-0.3-1.2-0.4-2.1-0.4-2.8v-11.4c0-1,0.1-2.5,0.2-4.3c0.1-2,0.2-3.4,0.2-4.2c0-0.8,0-1.8,0-3.1c0-1.6,0-2.7,0-3.2
			c0-2.7,0.9-4,2.6-4c0.4,0,0.8,0.2,1.2,0.5c0.4,0.3,0.6,0.7,0.6,1.1c0,0.7-0.1,2-0.2,3.8c1.2-1.7,2.7-2.6,4.5-2.6
			c2.3,0,4.1,1,5.4,2.8C1986.9,13581,1987.5,13583,1987.5,13585.5z M1983.2,13585.1c0-3.4-0.7-5.1-2.2-5.1c-0.6,0-1.5,0.6-2.5,1.9
			c-2,2.4-3.1,5.7-3.2,9.8c0.3,0.2,1,0.9,1.9,2c0.7,0.9,1.4,1.3,2.1,1.3C1981.9,13594.9,1983.2,13591.6,1983.2,13585.1z"/>
		<path class="st15" d="M2007.3,13578.6c-0.3,1.6-0.6,3.2-0.8,4.7c-0.3,1.8-0.5,3.4-0.5,4.7v12.9c0,2.3-0.7,4.1-2,5.4
			c-1.3,1.2-3.2,1.9-5.5,1.9c-1.5,0-3.2-0.4-5-1.2c-2.2-0.9-3.3-2-3.3-3.3c0-0.4,0.2-0.8,0.5-1.1s0.8-0.5,1.2-0.5c0.3,0,1,0.4,2,1.3
			c1.1,0.9,2.3,1.3,3.7,1.3c1.8,0,3-0.6,3.6-1.9c0.4-0.9,0.7-2.3,0.7-4.3c0-0.7,0-1.3,0-1.8c-1,0.7-2.2,1-3.5,1
			c-2.4,0-4.2-0.9-5.5-2.6c-1.2-1.6-1.8-3.5-1.8-5.9c0-0.3,0.2-4.2,0.5-12c0.9-0.4,1.7-0.6,2.3-0.6c0.6,0,1.6,0.4,2.8,1.1
			c-0.8,1.9-1.1,5.7-1.1,11.4c0,3.6,0.9,5.5,2.8,5.5c1.4,0,2.4-1.1,3.1-3.4c0.5-1.6,0.8-3.4,0.8-5.1v-5.8c0,0,0-0.5-0.1-1.6
			c1.3-0.6,2.3-1,2.9-1C2005.6,13577.7,2006.4,13578,2007.3,13578.6z"/>
		<path class="st15" d="M2018.5,13593.7c0,2.4-1.4,3.6-4.1,3.6c-0.5,0-1.5-0.3-2.9-0.9c-0.4-0.7-0.6-1.4-0.6-2
			c0-1.8,1.1-2.8,3.4-2.8c0.8,0,1.7,0.2,2.5,0.5C2017.9,13592.6,2018.5,13593.1,2018.5,13593.7z M2019.9,13566.7
			c0,0.2-0.1,0.5-0.2,0.7c-0.2,0.3-0.4,0.6-0.4,0.7c-0.7,1.8-1.3,4.1-1.6,6.9c-0.2,1-0.4,3.4-0.7,7.1c0,0.2,0,0.5-0.1,0.9
			c-0.1,0.5-0.1,0.8-0.1,1.1c0,0.8,0.2,1.9,0.5,3.3c-0.2,0.3-0.5,0.6-1,1c-0.3,0.1-0.7,0.1-1.1,0.1c-0.6,0-1.2-0.2-1.8-0.5
			c-0.5-0.9-0.7-2-0.7-3.4c0-1.5,0.3-3.6,0.9-6.5c0.6-2.9,0.9-5,0.9-6.5c0-0.6-0.1-1.4-0.3-2.6s-0.3-2-0.3-2.6c0-0.3,0-0.6,0.1-0.8
			c0.8-0.7,1.8-1,2.9-1c0.7,0,1.3,0.2,2,0.5C2019.5,13565.6,2019.9,13566.1,2019.9,13566.7z"/>
	</g>
	<g class="st14">
		<path class="st15" d="M1741.5,13617.5c0,0.3-0.2,0.6-0.7,1s-0.7,0.6-0.8,0.8c-0.8,1.6-1.2,4.6-1.1,9.2l0,1.9c0.1,0,0.2,0,0.3,0
			c0.5,0,0.9,0.3,1.4,0.8s0.6,1.1,0.6,1.6c0,0.4-0.3,0.6-0.9,0.8c-0.5,0.1-0.9,0.2-1.4,0.3c0,1.5,0.1,3,0.1,4.5
			c0.1,1.9,0.3,3.4,0.6,4.3c0.3,0.8,0.4,1.3,0.4,1.6c0,0.6-0.2,1.2-0.7,1.7c-0.5,0.5-1,0.8-1.7,0.8c-1.2,0-2-0.6-2.4-1.9
			c-0.1-0.3-0.2-1.4-0.4-3.3c-0.1-0.7-0.1-1.5-0.1-2.5v-1.9c0-1.3-0.1-2.4-0.2-3.2c-1.8,0.1-4,0.3-6.6,0.8c-2.2,0.4-4.4,0.8-6.5,1.2
			c0.1,0.4,0.2,2.1,0.2,5.1c0,2.4,0.4,4,1.1,4.8c0.1,0.2,0.1,0.3,0.1,0.5c0,0.8-0.6,1.2-1.9,1.2c-1.2,0-2.1-0.4-2.8-1.1
			c-0.4-0.4-0.8-3.7-1.2-9.9c-0.6-0.1-1.1-0.5-1.4-1.1c-0.3-0.6-0.5-1.2-0.5-1.9c0-0.4,0.2-0.6,0.6-0.8c0.4-0.1,0.8-0.3,1.2-0.4
			c0-0.4,0.1-1.2,0.2-2.2c0.1-0.9,0.1-1.6,0.1-2.2c0-5.6,0.3-9.1,0.9-10.6c0.5-1.2,1.4-1.9,2.6-1.9c0.8,0,1.5,0.2,2.1,0.7
			s1,1.1,1,1.8c0,0.4-0.1,0.9-0.4,1.4c-0.3,0.8-0.5,1.2-0.6,1.3c-0.9,2.7-1.3,5.8-1.3,9.5c0,0.6,0,1,0,1.1c0.3,0,1-0.2,2.2-0.4
			c3.7-0.8,7.3-1.1,10.5-1.1c0.1-4.7,0.2-7.7,0.4-9c0.5-4.6,1.6-6.8,3.3-6.8c1,0,1.8,0.4,2.4,1.1S1741.5,13616.6,1741.5,13617.5z"/>
		<path class="st15" d="M1762.3,13638.7c0,4.1-0.1,7-0.4,8.6c-0.2,1-0.8,1.5-2,1.5c-1.8,0-2.6-0.9-2.4-2.7c-1.6,0.8-3.2,1.1-4.9,1.1
			c-1.6,0-3.2-0.4-4.7-1.2c-1.8-1-2.7-2.2-2.7-3.8c0-1.5,1-2.9,3-4.2c1.8-1.2,3.6-1.8,5.2-1.8h4v-1.1c0-3.3-1-4.9-2.9-4.9
			c-2.5,0-3.8,1.2-3.8,3.5c0,0.8-0.4,1.2-1.3,1.2c-0.5,0-1.1-0.2-1.7-0.7s-0.9-1-0.9-1.5c0-1.8,0.6-3.2,1.9-4.4
			c1.3-1.1,2.8-1.7,4.6-1.7C1759.3,13626.6,1762.3,13630.7,1762.3,13638.7z M1757.5,13640.4c0-0.6-0.5-1-1.4-1c-4,0-5.9,0.9-5.9,2.8
			c0,1,0.9,1.5,2.6,1.5c1.1,0,2.1-0.3,3-0.9C1756.9,13642.2,1757.5,13641.4,1757.5,13640.4z"/>
		<path class="st15" d="M1781,13628.6c0,2.3-0.7,5.8-2.2,10.5c-1.7,5.4-3.4,8.1-5,8.1c-2.3,0-4.4-2.3-6.2-6.8
			c-1.1-2.8-2-6.1-2.7-9.9c-0.2-0.9-0.2-1.6-0.2-2.1c0-0.5,0.2-1,0.7-1.4c0.5-0.4,0.9-0.6,1.4-0.6c0.6,0,1.5,0.5,2.8,1.4
			c-0.2,0.7-0.3,1.3-0.3,1.9c0,1.7,0.4,3.9,1.3,6.7c0.8,2.8,1.7,4.8,2.7,6.2v0.1c1.2,0,2.1-2.2,2.7-6.5c0.4-2.9,0.7-5.6,0.7-8.1
			c0-0.5,0.2-0.9,0.7-1.2s1-0.5,1.4-0.5C1780.2,13626.4,1781,13627.1,1781,13628.6z"/>
		<path class="st15" d="M1797.9,13642.6c0,1.6-1.1,2.8-3.2,3.7c-1.7,0.7-3.4,1-5.3,1c-4.9,0-7.3-2.8-7.3-8.3c0-2.3,0.6-4.8,1.7-7.6
			c1.4-3.4,3-5.1,4.9-5.1c1.7,0,3.6,0.8,5.6,2.3c2,1.6,3,3.2,3,4.8c0,2.1-0.9,3.8-2.8,5c-1.6,1.1-3.6,1.7-5.9,1.7
			c-0.4,0-1.2-0.3-2.1-0.8c0.1,3,1,4.5,2.7,4.5c1.4,0,2.8-0.4,4.1-1.2c1.3-0.8,2.2-1.2,2.6-1.2
			C1797.2,13641.5,1797.9,13641.9,1797.9,13642.6z M1792.7,13633.6c0-0.8-0.2-1.5-0.7-2.3c-0.5-0.7-1.1-1.1-1.8-1.1
			c-1,0-1.9,0.5-2.4,1.4c-0.5,0.8-0.7,1.7-0.7,2.8c0,0.6,0.2,1.1,0.6,1.5c0.4,0.4,0.9,0.6,1.6,0.6
			C1791.5,13636.5,1792.7,13635.6,1792.7,13633.6z"/>
		<path class="st15" d="M1825.6,13638.7c0,4.1-0.1,7-0.4,8.6c-0.2,1-0.8,1.5-2,1.5c-1.8,0-2.6-0.9-2.4-2.7c-1.6,0.8-3.2,1.1-4.9,1.1
			c-1.6,0-3.2-0.4-4.7-1.2c-1.8-1-2.7-2.2-2.7-3.8c0-1.5,1-2.9,3-4.2c1.8-1.2,3.6-1.8,5.2-1.8h4v-1.1c0-3.3-1-4.9-2.9-4.9
			c-2.5,0-3.8,1.2-3.8,3.5c0,0.8-0.4,1.2-1.3,1.2c-0.5,0-1.1-0.2-1.7-0.7s-0.9-1-0.9-1.5c0-1.8,0.6-3.2,1.9-4.4
			c1.3-1.1,2.8-1.7,4.6-1.7C1822.6,13626.6,1825.6,13630.7,1825.6,13638.7z M1820.8,13640.4c0-0.6-0.5-1-1.4-1c-4,0-5.9,0.9-5.9,2.8
			c0,1,0.9,1.5,2.6,1.5c1.1,0,2.1-0.3,3-0.9C1820.2,13642.2,1820.8,13641.4,1820.8,13640.4z"/>
		<path class="st15" d="M1853.7,13646.5c-0.5,0.7-1.1,1.1-1.8,1.1c-0.5,0-1.4-0.3-2.7-1v-0.6c0-0.7,0-1.7,0-3.1c0-1.4,0-2.4,0-3
			c0-6.8-1-10.2-3-10.2c-0.6,0-1.2,0.4-1.9,1.3c-2.2,2.7-3.4,6-3.4,9.8c0,0.5,0.1,1.3,0.3,2.4s0.3,1.9,0.3,2.4
			c0,0.4-0.2,0.8-0.6,1.1c-0.4,0.3-0.9,0.4-1.3,0.4c-1.9,0-2.8-1.2-2.8-3.6v-9.9c0-0.3,0-0.6,0.1-1.1c0.1-0.5,0.1-0.9,0.1-1.1
			c0-0.4-0.1-0.9-0.2-1.7c-0.1-0.7-0.2-1.3-0.2-1.6c0-0.5,0.3-1,0.9-1.4c0.6-0.5,1.1-0.7,1.6-0.7c0.7,0,1.4,0.4,2.1,1.2l-0.1,1.9
			c1.2-1.9,2.6-2.8,4.3-2.8c1.1,0,2.3,0.4,3.5,1.1c1.2,0.8,2.1,1.6,2.7,2.6c1.3,2.4,1.9,5.6,1.9,9.5V13646.5z"/>
		<path class="st15" d="M1862.9,13628.5c0,0.6-0.1,1.4-0.4,2.4c-0.3,1-0.4,1.9-0.4,2.4v9.8c0,0.6,0.2,1.6,0.6,2.8
			c-0.5,0.7-1,1.1-1.6,1.1c-2,0-3.1-1-3.3-3c-0.3-3.7-0.5-6.5-0.5-8.4c0-3.1,0.1-5.8,0.4-7.9c0-0.2,0-0.3,0-0.5
			c0-0.6,0.4-0.9,1.3-0.9c0.8,0,1.6,0.2,2.4,0.5C1862.4,13627.3,1862.9,13627.8,1862.9,13628.5z M1863.3,13621.9
			c0,0.7-0.2,1.3-0.7,1.7c-0.5,0.4-1.1,0.7-1.8,0.7c-0.8,0-1.6-0.3-2.3-0.9c-0.7-0.6-1.1-1.3-1.1-2.1c0-0.7,0.2-1.3,0.7-1.7
			c0.5-0.4,1.1-0.7,1.8-0.7c0.9,0,1.6,0.3,2.3,0.8S1863.3,13621,1863.3,13621.9z"/>
		<path class="st15" d="M1881.9,13641.4c0,1-0.7,2.1-2.2,3.5c-1.3,1.2-2.5,2-3.6,2.3c-1.1,0.3-2.1,0.5-3,0.5c-2.5,0-4.5-0.8-5.9-2.4
			s-2.1-3.6-2.1-6.1c0-2.4,0.6-5.2,1.9-8.2c1.6-3.6,3.4-5.4,5.4-5.4c1.1,0,2.5,0.4,4.1,1.3c1.7,1,2.7,2,3,2.9
			c0.3,0.9,0.4,1.8,0.4,2.9c0,1-0.2,2.1-0.6,3.3c-0.5,1.6-1.1,2.4-1.9,2.4c-0.5,0-1-0.2-1.5-0.5c-0.6-0.3-0.9-0.8-0.9-1.3
			c0,0,0.1-0.4,0.4-1.1c0.2-0.3,0.2-1.2,0.2-2.6c0-1.2,0-1.9-0.1-2.3c-0.2-1-0.6-1.5-1.3-1.5c-1.6,0-2.8,1.3-3.6,4c-0.6,2-1,4-1,6
			c0,3.4,1.1,5.1,3.2,5.1c0.9,0,1.8-0.4,2.9-1.3c1-0.8,1.7-1.7,2.1-2.5c0.5-1,1.1-1.5,1.9-1.5c0.5,0,0.9,0.3,1.4,0.8
			C1881.6,13640.4,1881.9,13641,1881.9,13641.4z"/>
		<path class="st15" d="M1899.9,13642.6c0,1.6-1.1,2.8-3.2,3.7c-1.7,0.7-3.4,1-5.3,1c-4.9,0-7.3-2.8-7.3-8.3c0-2.3,0.6-4.8,1.7-7.6
			c1.4-3.4,3-5.1,4.9-5.1c1.7,0,3.6,0.8,5.6,2.3c2,1.6,3,3.2,3,4.8c0,2.1-0.9,3.8-2.8,5c-1.6,1.1-3.6,1.7-5.9,1.7
			c-0.4,0-1.2-0.3-2.1-0.8c0.1,3,1,4.5,2.7,4.5c1.4,0,2.8-0.4,4.1-1.2c1.3-0.8,2.2-1.2,2.6-1.2
			C1899.2,13641.5,1899.9,13641.9,1899.9,13642.6z M1894.7,13633.6c0-0.8-0.2-1.5-0.7-2.3c-0.5-0.7-1.1-1.1-1.8-1.1
			c-1,0-1.9,0.5-2.4,1.4c-0.5,0.8-0.7,1.7-0.7,2.8c0,0.6,0.2,1.1,0.6,1.5c0.4,0.4,0.9,0.6,1.6,0.6
			C1893.6,13636.5,1894.7,13635.6,1894.7,13633.6z"/>
		<path class="st15" d="M1927,13617.9c0,0.7-0.1,1.6-0.3,2.7c-0.3,1.5-0.4,2.4-0.5,2.7c-0.1,1-0.2,3.9-0.5,8.7
			c-0.2,4.8-0.3,7.5-0.3,8c0,3,0.3,5.3,1,6.8c-0.5,0.9-1.2,1.3-1.9,1.3c-0.7,0-1.4-0.3-1.9-0.8c-0.6-0.6-0.9-1.2-1-1.9
			c-1.5,1.4-3,2-4.6,2c-2.3,0-4.1-0.8-5.4-2.4c-1.2-1.5-1.8-3.4-1.8-5.7c0-2.8,0.6-5.6,1.7-8.5c1.5-3.6,3.4-5.5,5.7-5.5
			c1.4,0,2.8,0.6,4.3,1.9c0.2-1.5,0.2-5.3,0.2-11.4c0-0.6,0.4-0.9,1.3-0.9c1,0,1.9,0.3,2.6,0.8
			C1926.7,13616.1,1927,13616.9,1927,13617.9z M1921.5,13634c0-1.1-0.2-2.1-0.7-2.9c-0.6-1.1-1.4-1.6-2.4-1.6
			c-1.4,0-2.5,1.4-3.3,4.2c-0.6,2-0.9,4-0.9,6c0,2.9,0.9,4.4,2.6,4.4c1.8,0,3.1-1.3,3.8-3.9
			C1921.2,13638.4,1921.5,13636.3,1921.5,13634z"/>
		<path class="st15" d="M1945.7,13638.7c0,4.1-0.1,7-0.4,8.6c-0.2,1-0.8,1.5-2,1.5c-1.8,0-2.6-0.9-2.4-2.7c-1.6,0.8-3.2,1.1-4.9,1.1
			c-1.6,0-3.2-0.4-4.7-1.2c-1.8-1-2.7-2.2-2.7-3.8c0-1.5,1-2.9,3-4.2c1.8-1.2,3.6-1.8,5.2-1.8h4v-1.1c0-3.3-1-4.9-2.9-4.9
			c-2.5,0-3.8,1.2-3.8,3.5c0,0.8-0.4,1.2-1.3,1.2c-0.5,0-1.1-0.2-1.7-0.7c-0.6-0.5-0.9-1-0.9-1.5c0-1.8,0.6-3.2,1.9-4.4
			s2.8-1.7,4.6-1.7C1942.7,13626.6,1945.7,13630.7,1945.7,13638.7z M1940.9,13640.4c0-0.6-0.5-1-1.4-1c-4,0-5.9,0.9-5.9,2.8
			c0,1,0.9,1.5,2.6,1.5c1.1,0,2.1-0.3,3-0.9C1940.3,13642.2,1940.9,13641.4,1940.9,13640.4z"/>
		<path class="st15" d="M1965.6,13628.6c-0.3,1.6-0.6,3.2-0.8,4.7c-0.3,1.8-0.5,3.4-0.5,4.7v12.9c0,2.3-0.7,4.1-2,5.4
			c-1.3,1.2-3.2,1.9-5.5,1.9c-1.5,0-3.2-0.4-5-1.2c-2.2-0.9-3.3-2-3.3-3.3c0-0.4,0.2-0.8,0.5-1.1c0.4-0.3,0.8-0.5,1.2-0.5
			c0.3,0,1,0.4,2,1.3c1.1,0.9,2.3,1.3,3.7,1.3c1.8,0,3-0.6,3.6-1.9c0.4-0.9,0.7-2.3,0.7-4.3c0-0.7,0-1.3,0-1.8c-1,0.7-2.2,1-3.5,1
			c-2.4,0-4.2-0.9-5.5-2.6c-1.2-1.6-1.8-3.5-1.8-5.9c0-0.3,0.2-4.2,0.5-12c1-0.4,1.7-0.6,2.3-0.6c0.6,0,1.6,0.4,2.8,1.1
			c-0.8,1.9-1.1,5.7-1.1,11.4c0,3.6,0.9,5.5,2.8,5.5c1.4,0,2.4-1.1,3.1-3.4c0.5-1.6,0.8-3.4,0.8-5.1v-5.8c0,0,0-0.5-0.1-1.6
			c1.3-0.6,2.3-1,2.9-1C1963.9,13627.7,1964.7,13628,1965.6,13628.6z"/>
		<path class="st15" d="M1976.8,13643.7c0,2.4-1.4,3.6-4.1,3.6c-0.5,0-1.5-0.3-2.9-0.9c-0.4-0.7-0.6-1.4-0.6-2
			c0-1.8,1.1-2.8,3.4-2.8c0.8,0,1.7,0.2,2.5,0.5C1976.2,13642.6,1976.8,13643.1,1976.8,13643.7z M1978.2,13616.7
			c0,0.2-0.1,0.5-0.2,0.7c-0.2,0.3-0.4,0.6-0.4,0.7c-0.7,1.8-1.3,4.1-1.6,6.9c-0.2,1-0.4,3.4-0.7,7.1c0,0.2,0,0.5-0.1,0.9
			c-0.1,0.5-0.1,0.8-0.1,1.1c0,0.8,0.2,1.9,0.5,3.3c-0.2,0.3-0.5,0.6-1,1c-0.3,0.1-0.7,0.1-1.1,0.1c-0.6,0-1.2-0.2-1.8-0.5
			c-0.5-0.9-0.7-2-0.7-3.4c0-1.5,0.3-3.6,0.9-6.5s0.9-5,0.9-6.5c0-0.6-0.1-1.4-0.3-2.6c-0.2-1.2-0.3-2-0.3-2.6c0-0.3,0-0.6,0.1-0.8
			c0.8-0.7,1.8-1,2.9-1c0.7,0,1.3,0.2,2,0.5C1977.8,13615.6,1978.2,13616.1,1978.2,13616.7z"/>
	</g>
	<g id="_3_electricity" transform="translate(1583.04 13991)">
		<g id="Layer_2_1_">
			<g id="OBJECTS">
				<path id="Path_2521" class="st16" d="M107.9,214.1c0,0,42-2.7,54.8,8.1s-14,28.3-75,25.4s-42.2-19-63.9-21.8
					S42.5,208.3,107.9,214.1z"/>
				<path id="Path_2522" class="st17" d="M54.5,223.1l-17.9,11.4c0,0,21.8-3.3,30.9,9.3l6.3-13.7L54.5,223.1z"/>
				<path id="Path_2523" class="st17" d="M116,230.6l11.7,15.7c0,0,11.2-10.6,26.4-10.4l-17.9-12.3L116,230.6z"/>
				<path id="Path_2524" class="st18" d="M36.1,97.4c0,0-11.5-2.6-14.1-11.1c-1.5-4.6-2.3-9.5-2.4-14.4c0,0-0.9-4.2-6-3
					S7,78.2,7.4,88.8S19,117,32.9,121.5S36.1,97.4,36.1,97.4z"/>
				<path id="Path_2525" class="st19" d="M166.4,210.4c0,0,32.6-115.1-14.5-185.9c0,0-53-18.4-93.2,0.9c0,0-41,76.5-32.5,178.7
					c0,0,6.8,29.5,61.1,30.8S166.4,210.4,166.4,210.4z"/>
				<path id="Path_2526" class="st20" d="M161.6,103.6c0,0,10.6-2.3,15.4-9.4s8.6-22.4,15.1-20s8.6,11.9,5.4,26.6
					s-18.2,22.8-27.1,25.3C161.6,128.7,159,113.2,161.6,103.6z"/>
				<path id="Path_2527" class="st21" d="M87.2,31c4.3,4.1,10.8,4.7,15.8,1.5c3.7-2.5,8.2-3.6,12.7-3c13.1,2,22.5,41.6,17.1,63.5
					c0,0,29.4,23.4,19.1,74.4S98,233.8,64.1,217.3s-39-92.1-15.4-122.6c0,0-4.3-23,7.3-45.6C65.1,31.5,78.5,22.2,87.2,31z"/>
				<path id="Path_2528" class="st22" d="M111,61.6c-0.8,4.2-3.3,7.2-5.6,6.8s-3.5-4.2-2.7-8.4s3.3-7.2,5.6-6.8S111.8,57.4,111,61.6
					z"/>
				<path id="Path_2529" class="st22" d="M79.4,59.6c-0.8,4.2-3.2,7.2-5.3,6.8s-3.2-4.1-2.4-8.3s3.2-7.2,5.3-6.8
					S80.2,55.5,79.4,59.6z"/>
				<path id="Path_2530" class="st23" d="M128.5,77.1l2.3-20.6c0,0,26.6-1.6,34-12.8c5,5.7,7.3,13.3,6.2,20.8
					C171,64.5,151,77.2,128.5,77.1z"/>
				<path id="Path_2531" class="st23" d="M50.5,45.7c0,0-6-0.8-7,4c-1.6,7.6-3.3,15.8,4.7,16.6L50.5,45.7z"/>
				<path id="Path_2532" class="st24" d="M94.7,74.6c0.9,1.4,2.1,2.7,3.5,3.8c9.4-8.4,18.4-17.2,28-25.3c-3-4.5-7.4-7.2-13.6-9.9
					c-1.6-0.6-3.3-1.1-5-1.4C92.4,53.6,77.7,66,63.1,78.7c6.2,1.2,12.8-0.1,16.1-4C86.7,65.8,91.7,69.6,94.7,74.6z"/>
				<path id="Path_2533" class="st25" d="M128.5,57.7c-0.6-1.6-1.4-3.2-2.3-4.7c-9.6,8.1-18.6,16.9-28,25.3c1.8,1.4,3.8,2.5,6,3.4
					c8.3-7.4,16.7-14.8,25-22.2C128.9,58.9,128.7,58.3,128.5,57.7z"/>
				<path id="Path_2534" class="st24" d="M104.2,81.7c3.7,1.5,7.7,1.9,11.6,1.1c11.2-2.6,17.1-11.2,13.4-23.3
					C120.8,66.9,112.5,74.3,104.2,81.7z"/>
				<path id="Path_2535" class="st25" d="M88.1,38.8c-1.3,1.3-2.6,2.6-3.9,3.8c-10.6,10.7-20.9,21.1-31.4,31
					c0.4,0.4,0.8,0.7,1.2,1.1c2.7,2.1,5.8,3.5,9.2,4.1c14.6-12.7,29.3-25.1,44.5-37C101.2,40.3,94.7,39.3,88.1,38.8z"/>
				<path id="Path_2536" class="st25" d="M80.7,38.4c-2.2-0.1-4.4,0-6.4,0C66.2,48,57.5,57.1,48.5,66c0.4,1.6,1,3.1,1.8,4.4
					C60.9,60.2,71,49.5,80.7,38.4z"/>
				<path id="Path_2537" class="st24" d="M59.4,41.6C48.7,47.7,46.3,58,48.5,66c9-8.8,17.7-17.9,25.8-27.5
					C68.2,38.7,62.9,39.6,59.4,41.6z"/>
				<path id="Path_2538" class="st24" d="M80.7,38.4c-9.7,11.1-19.8,21.8-30.4,32c0.7,1.2,1.5,2.2,2.4,3.2
					c10.5-10,20.8-20.3,31.4-31c1.4-1.2,2.7-2.5,3.9-3.8C85.7,38.6,83.2,38.4,80.7,38.4z"/>
				<path id="Path_2539" class="st26" d="M64.7,82.2c-4.7-0.5-9.1-2.2-12.9-5.1c-5-3.9-7.9-11.2-7.3-18.4
					c0.6-8.3,5.3-15.3,13.2-19.8C66.2,34,83.3,35,92.7,36c8.9,1,17.8,2.8,21.2,4.2c8.6,3.7,14.5,7.7,17.7,16.4
					c2.7,7.2,2.6,13.8-0.4,19.1c-2.8,5.1-7.9,8.6-14.7,10.2c-2.3,0.5-4.7,0.6-7.1,0.4l0,0c-7.1-0.8-14.4-5-17.5-10
					c-1.3-2.2-2.8-3.5-4-3.6c-1.5-0.2-3.8,1.3-6.2,4.2C78.2,80.9,71.8,83,64.7,82.2z M92,42.4c-14.4-1.6-25.9-0.8-30.9,2
					c-8.1,4.6-9.8,11.2-10,14.8c-0.4,5.2,1.6,10.4,4.9,13c2.7,2.1,6,3.3,9.4,3.7c4.8,0.5,9.2-0.7,11.3-3.2c4-4.7,8-6.9,11.9-6.4
					c3.4,0.4,6.4,2.6,8.9,6.8c1.8,2.9,7,6.3,12.6,6.9l0,0c1.6,0.2,3.3,0.1,4.8-0.2c5-1.2,8.6-3.6,10.5-7c2-3.7,2-8.5,0-13.9
					c-2.4-6.6-6.9-9.6-14.2-12.8C109.3,45.2,101.8,43.4,92,42.4z"/>
				<path id="Path_2540" class="st27" d="M79.4,104.7c0,0,4.2-6.6,0.7-19.4s5.7-2.7,5.7-2.7s10.7,0.8,11.7,0.6s3.7,2.6,3.8,2.6
					s-2.3,5.9-2.3,5.9S98.9,103.4,79.4,104.7z"/>
				<path id="Path_2541" class="st17" d="M106.9,86.4c-14.2-3.6-15.6-10-16.9-11.8c-0.7-0.9-1.7-1.5-2.8-1.6
					c-10.4-1.1-21-0.3-31.2,2.2c0,0,19.2,8,26.4,13.1s14.2,3.3,17.3-0.7c0,0-4.1,15.5-20.4,17.1C79.4,104.7,99.7,108.9,106.9,86.4"
					/>
				<path id="Path_2542" class="st2" d="M88.2,74.6c0,0-19.8-1.6-28,0.9c5.2,1.2,10.2,3.4,14.7,6.4c6.9,4.7,15.1,10,19.2,7.8
					s4-5.4,4-5.4S88.9,81.2,88.2,74.6z"/>
				<path id="Path_2543" class="st11" d="M196.6,82.7c0,0,2.1,15.1-3.3,24.4s-13.2,15.3-21.6,15.6s-5.9-4.5-5-5.5
					S194.6,110.2,196.6,82.7z"/>
				<path id="Path_2544" class="st28" d="M10.4,76.3c0,0-7.4,24.3,18.3,40.8l1.9-12.1c0,0-19.3-10.9-16.1-29.4
					C14.5,75.6,13.4,71.3,10.4,76.3z"/>
				<path id="Path_2545" class="st29" d="M193.6,78.8c0,0-0.1-2.7-4.3-1.6s-8.2,23.3-26.5,27.1v3.6
					C162.9,107.8,186.7,106.4,193.6,78.8z"/>
				<path id="Path_2546" class="st29" d="M18.3,71.9c0,0,0-2-2.8-2.3s-5.9,2-4.3,2.8s5-0.4,5.5,1s-1.2,11,5.5,19.3
					c0,0,6.5,6.3,9.5,8.1l1.2-3.4c0,0-9.5-2.8-12-11.5S18.3,71.9,18.3,71.9z"/>
				<path id="Path_2547" class="st30" d="M148.5,27.6c0,0-47.8-17.1-87.2,0c0,0-6.5,3.4-2.5,7.2S154.7,46.8,148.5,27.6z"/>
				<path id="Path_2548" class="st31" d="M34.2,126.3c0,0-8,42.9-4.6,75.4c0,0,14.8,28.6,61.3,28.6s69.7-21.7,69.7-21.7
					s13-34.8,13.1-72.9c0,0-44.5,53.7-91.3,48.7S34.2,126.3,34.2,126.3z"/>
				<path id="Path_2549" class="st32" d="M73,201.2l22.9-23c0.6-0.6,0.6-1.5,0-2.1c-0.3-0.3-0.7-0.4-1.1-0.4H93
					c-0.8,0-1.5-0.7-1.5-1.5c0-0.3,0.1-0.7,0.3-0.9l12.2-15.3c0.5-0.6,0.4-1.6-0.2-2.1c-0.3-0.2-0.6-0.3-0.9-0.3h-6.1
					c-0.8,0-1.5-0.7-1.5-1.5c0-0.3,0.1-0.6,0.3-0.9l15.5-20.6c0.5-0.7,0.4-1.6-0.3-2.1c-0.3-0.2-0.6-0.3-0.9-0.3H85.3
					c-0.6,0-1.1,0.3-1.3,0.8l-12,24.3c-0.4,0.7-0.1,1.6,0.7,2c0.2,0.1,0.4,0.2,0.7,0.2h5.5c0.8,0,1.5,0.7,1.5,1.5
					c0,0.2-0.1,0.5-0.2,0.7L72,176.1c-0.4,0.7-0.1,1.6,0.7,2c0.2,0.1,0.4,0.2,0.7,0.2h5.2c0.8,0,1.5,0.7,1.5,1.5
					c0,0.2-0.1,0.4-0.1,0.6l-9.3,19.1c-0.3,0.8,0,1.6,0.8,2C71.9,201.7,72.6,201.6,73,201.2z"/>
				<path id="Path_2550" class="st28" d="M196.6,82.7c0,0,2.1,15.1-3.3,24.4s-13.2,15.3-21.6,15.6s-5.9-4.5-5-5.5
					S194.6,110.2,196.6,82.7z"/>
				<path id="Path_2552" class="st33" d="M166.8,98c0,0,6.3-2.8,8.1-4.8c1.5-1.7-0.7,1.7-2.2,3.8c-0.2,0.3-2,0.4-2.3,0.7
					c-3.6,4-2.9,3.9-2.9,3.9c-3.2,2,2.2,6.6,0.9,11.9c-0.9,3.2-4.5,3.4-4.7,5.7c-0.2,2.8,3,3.1,2.8,5.9c-0.8,8.4,1.4,29.1-5.8,32.9
					c-14.5,7.7-42.5-3.4-46-3c-11.9,1.2-1.3-16.6-12.2-16.6c-27.3,0-49.2-9.7-64.7-23.6c-3.1-2.8-5.2-5.5-5.6-8.9
					c-0.8-6.3-7.6-13.9,4.4-14c0,0,17.7,5.4,23.4,7.5c6.7,2.4,13.6,4.3,20.6,5.8c10,2.2,20.6,3.8,27.6,3.5
					C120.8,108.1,152.8,105.8,166.8,98"/>
				<path id="Path_2553" class="st34" d="M166.5,95c0,0,6.3-2.8,8.1-4.8c1.5-1.7,2.7,4.7,1.1,6.8c-0.2,0.3,0,0-0.2,0.3
					c-3.6,4-10.8,6.5-10.8,6.5c-7.2,1.8-4.6,10.4-8.2,17.9c-2.6,5.4-11.1,10.5-16.2,11c-42.1,4.4-76.8-7-102.3-20.9
					c-3-1.6-5.5-5.7-6-9.1c-0.8-6.3-7.6-13.9,4.4-14c0,0,17.7,5.4,23.4,7.5c6.7,2.4,13.6,4.3,20.6,5.8c10,2.2,20.6,3.8,27.6,3.5
					C120.5,105,152.5,102.7,166.5,95"/>
				<path id="Path_2554" class="st26" d="M38,111.9c-2.1-1.2-3.4-3.4-3.3-5.9c0.6-17.4,8.7-14.6,9.2-14.9l0,0l4,1.2l2.8,0.9
					c-0.4,0.2-12-2.5-9.7,20.2L38,111.9z"/>
				<path id="Path_2555" class="st26" d="M51.9,118.7c-1.6-16.7,7.3-21.9,7.8-22.4l6.4,2.1c0.8-0.8-8.1,9.2-6.7,23.4L51.9,118.7z"/>
				<path id="Path_2556" class="st26" d="M70.2,125.6c-0.4-18.6,7.1-23.7,7.4-24.1l3,0.7l2,0.4l1.6,0.3c0.4-1.2-7,8.4-6.7,24.8
					L70.2,125.6z"/>
				<path id="Path_2557" class="st26" d="M90.5,130.7c-0.4-18.6,6.1-25.4,6.4-25.8l2.8,0.4l1.9,0.2l1.9,0.1
					c0.4-1.2-5.4,10.1-5.1,26.5l-0.6,0c-2.1-0.1-4.2-0.5-6.3-1L90.5,130.7z"/>
				<path id="Path_2558" class="st35" d="M159.2,110.3c0.4-3,2.5-4.3,1.5-7.6c-0.4-1.1-0.5-3.8-4.1-3.8l0,0l-6.5,1.7
					c0.1,0.1,9.2,0.8,4.7,23.5C154.8,124.2,157.3,123.2,159.2,110.3z"/>
				<path id="Path_2559" class="st26" d="M168.5,102.1c-0.7-2.3-1.8-4.5-3.1-6.5c0,0,1.3-0.7,2-1l2.7-1.3c0.2,0.2,0.9,2.3,2.6,6.4
					c0,0-2.9,2.1-4,2.4L168.5,102.1z"/>
				<path id="Path_2560" class="st32" d="M146.5,98.2c-8.9,1.6-12.3,6.7-24.1,5.1c-19.5-2.6-12.8,25.8-13.5,43.8
					c-0.9,23.1-3.9,39.2-0.9,42.8c4.2,4.9,54.8,6.1,56.6,4.5c1.5-1.2,0.9-20-0.5-55.4c-0.2-6.2,4-32.7-2-37.4
					C157.1,97.6,152.5,97.1,146.5,98.2z"/>
				<path id="Path_2561" class="st32" d="M115.9,188.8c0,0.2,0,0.4,0.1,0.6c0.1,0.4,0.1,0.9,0.3,1.6s0.3,1.4,0.5,2.2
					s0.4,1.6,0.7,2.5s0.6,1.7,0.8,2.5c0.3,0.7,0.6,1.4,0.9,2.1c0.1,0.3,0.3,0.5,0.5,0.8l0.4,0.6l0.3,0.5l-0.4-0.5l-0.5-0.5
					c-0.2-0.2-0.4-0.4-0.6-0.7c-0.4-0.6-0.8-1.2-1.3-1.9c-0.5-0.8-0.9-1.6-1.2-2.4c-0.4-0.8-0.7-1.6-1-2.4c-0.2-0.8-0.6-1.5-0.8-2.2
					s-0.4-1.2-0.5-1.6s-0.2-0.6-0.2-0.6L115.9,188.8z"/>
				<path id="Path_2562" class="st32" d="M123.7,189.9c0,0.2,0,0.4,0.1,0.6c0.1,0.4,0.1,0.9,0.3,1.6s0.3,1.4,0.5,2.2
					s0.4,1.6,0.7,2.5s0.6,1.7,0.8,2.4c0.3,0.7,0.6,1.4,0.9,2.1c0.1,0.3,0.3,0.5,0.5,0.8l0.4,0.6l0.3,0.5l-0.4-0.4l-0.5-0.5
					c-0.2-0.2-0.4-0.5-0.6-0.7c-0.4-0.6-0.8-1.2-1.3-1.9c-0.5-0.8-0.9-1.6-1.2-2.4c-0.4-0.8-0.7-1.6-1-2.4c-0.2-0.8-0.6-1.5-0.8-2.2
					s-0.4-1.2-0.5-1.6l-0.2-0.6L123.7,189.9z"/>
				<path id="Path_2563" class="st32" d="M131.5,191c0,0.2,0,0.4,0.1,0.6c0.1,0.4,0.1,0.9,0.3,1.6s0.3,1.4,0.5,2.2s0.4,1.6,0.6,2.5
					s0.6,1.7,0.8,2.4c0.3,0.7,0.6,1.4,0.9,2.1c0.1,0.3,0.3,0.5,0.5,0.8l0.4,0.6l0.3,0.5l-0.4-0.5l-0.5-0.5c-0.2-0.2-0.4-0.5-0.6-0.7
					c-0.4-0.6-0.8-1.2-1.3-1.9c-0.5-0.8-0.9-1.6-1.2-2.4c-0.4-0.8-0.8-1.6-1.1-2.4s-0.6-1.5-0.8-2.2s-0.4-1.2-0.5-1.6
					s-0.2-0.6-0.2-0.6L131.5,191z"/>
				<path id="Path_2564" class="st32" d="M139.4,192.1c0,0.2,0,0.4,0.1,0.6c0.1,0.4,0.1,0.9,0.3,1.6s0.3,1.4,0.5,2.2
					s0.4,1.6,0.6,2.5s0.6,1.7,0.8,2.4s0.7,1.4,0.9,2.1c0.1,0.3,0.3,0.5,0.5,0.8l0.4,0.6l0.3,0.5l-0.4-0.4l-0.5-0.5
					c-0.2-0.2-0.4-0.4-0.6-0.7c-0.4-0.6-0.8-1.2-1.3-1.9c-0.5-0.8-0.9-1.6-1.2-2.4c-0.4-0.8-0.7-1.6-1-2.4c-0.2-0.8-0.6-1.5-0.8-2.2
					s-0.4-1.2-0.5-1.6s-0.2-0.6-0.2-0.6L139.4,192.1z"/>
				<path id="Path_2565" class="st32" d="M147.1,191.3l0.1,0.6c0.1,0.4,0.1,0.9,0.3,1.6s0.3,1.4,0.5,2.2s0.4,1.6,0.6,2.5
					s0.6,1.7,0.8,2.4c0.3,0.7,0.6,1.4,0.9,2.1c0.1,0.3,0.3,0.5,0.5,0.8l0.4,0.6l0.3,0.5l-0.4-0.4l-0.5-0.5c-0.2-0.2-0.4-0.4-0.6-0.7
					c-0.4-0.6-0.8-1.2-1.3-2s-0.8-1.5-1.2-2.4c-0.4-0.8-0.7-1.6-1-2.4c-0.2-0.8-0.6-1.5-0.8-2.2s-0.4-1.2-0.5-1.6s-0.2-0.6-0.2-0.6
					L147.1,191.3z"/>
				<path id="Path_2566" class="st32" d="M155,192.4c0,0.2,0,0.4,0.1,0.6c0.1,0.4,0.1,0.9,0.3,1.6s0.3,1.4,0.5,2.2s0.4,1.6,0.6,2.5
					s0.6,1.7,0.8,2.5c0.3,0.7,0.6,1.4,0.9,2.1c0.1,0.3,0.3,0.5,0.5,0.8l0.4,0.6l0.3,0.5l-0.4-0.4l-0.5-0.5c-0.2-0.2-0.4-0.4-0.6-0.7
					c-0.4-0.6-0.8-1.2-1.3-1.9c-0.5-0.8-0.9-1.6-1.2-2.4c-0.4-0.8-0.7-1.6-1-2.4c-0.2-0.8-0.6-1.5-0.8-2.2s-0.4-1.2-0.5-1.6
					s-0.2-0.6-0.2-0.6L155,192.4z"/>
				<path id="Path_2567" class="st32" d="M161.9,191.6c0,0.2,0,0.4,0.1,0.6c0.1,0.4,0.1,0.9,0.3,1.6s0.3,1.4,0.5,2.2
					s0.4,1.6,0.7,2.5s0.6,1.7,0.8,2.5c0.3,0.7,0.6,1.4,0.9,2.1c0.1,0.3,0.3,0.5,0.5,0.8c0.2,0.2,0.3,0.4,0.4,0.6l0.4,0.5l-0.4-0.5
					c-0.1-0.1-0.3-0.3-0.5-0.5c-0.2-0.2-0.4-0.5-0.6-0.7c-0.4-0.6-0.8-1.2-1.3-1.9c-0.5-0.8-0.9-1.6-1.2-2.4c-0.4-0.8-0.7-1.6-1-2.4
					c-0.2-0.8-0.6-1.5-0.8-2.2s-0.4-1.2-0.5-1.6s-0.2-0.6-0.2-0.6L161.9,191.6z"/>
				<path id="Path_2568" class="st32" d="M158.7,192c0,0.2,0,0.4,0.1,0.6c0.1,0.4,0.1,0.9,0.3,1.6s0.3,1.4,0.5,2.2s0.4,1.6,0.6,2.5
					s0.6,1.7,0.8,2.4c0.3,0.7,0.6,1.4,0.9,2.1c0.1,0.3,0.3,0.5,0.5,0.8l0.4,0.6l0.3,0.5l-0.4-0.5l-0.5-0.5c-0.2-0.2-0.4-0.5-0.6-0.7
					c-0.4-0.6-0.8-1.2-1.3-1.9c-0.5-0.8-0.9-1.6-1.2-2.4c-0.4-0.8-0.7-1.6-1-2.4c-0.2-0.8-0.6-1.5-0.8-2.2s-0.4-1.2-0.5-1.6
					s-0.2-0.6-0.2-0.6L158.7,192z"/>
				<path id="Path_2569" class="st32" d="M151.2,192.8c0,0.2,0,0.4,0.1,0.6c0.1,0.4,0.1,0.9,0.3,1.6s0.3,1.4,0.5,2.2
					s0.4,1.6,0.6,2.5s0.6,1.7,0.8,2.4c0.3,0.7,0.6,1.4,0.9,2.1c0.1,0.3,0.3,0.5,0.5,0.8l0.4,0.6l0.3,0.5l-0.4-0.4l-0.5-0.5
					c-0.2-0.2-0.4-0.5-0.6-0.7c-0.4-0.6-0.8-1.2-1.3-2s-0.9-1.5-1.2-2.4s-0.8-1.6-1.1-2.4s-0.6-1.5-0.8-2.2s-0.4-1.2-0.5-1.6
					l-0.2-0.6L151.2,192.8z"/>
				<path id="Path_2570" class="st32" d="M143.2,193.3c0,0.2,0,0.4,0.1,0.6c0.1,0.4,0.1,0.9,0.3,1.6s0.3,1.4,0.5,2.2
					s0.4,1.6,0.6,2.5s0.6,1.7,0.8,2.5c0.3,0.7,0.6,1.4,0.9,2c0.1,0.3,0.3,0.5,0.5,0.8l0.4,0.6l0.3,0.5l-0.4-0.4l-0.5-0.5
					c-0.2-0.2-0.4-0.5-0.6-0.7c-0.4-0.6-0.8-1.2-1.2-1.9c-0.4-0.8-0.9-1.6-1.2-2.4c-0.4-0.8-0.7-1.6-1-2.4c-0.2-0.8-0.6-1.5-0.8-2.2
					s-0.4-1.2-0.5-1.6l-0.2-0.6L143.2,193.3z"/>
				<path id="Path_2571" class="st32" d="M136,192.3c0,0.2,0,0.4,0.1,0.6c0.1,0.4,0.1,0.9,0.3,1.6s0.3,1.4,0.5,2.2s0.4,1.6,0.6,2.5
					s0.6,1.7,0.8,2.5c0.3,0.7,0.6,1.4,0.9,2.1c0.1,0.3,0.3,0.5,0.5,0.8l0.4,0.6l0.3,0.5l-0.4-0.4l-0.5-0.5c-0.2-0.2-0.4-0.5-0.6-0.7
					c-0.4-0.6-0.8-1.2-1.3-2s-0.9-1.5-1.2-2.4s-0.8-1.7-1.1-2.4s-0.6-1.5-0.8-2.2s-0.4-1.2-0.5-1.6s-0.2-0.6-0.2-0.6L136,192.3z"/>
				<path id="Path_2572" class="st32" d="M127.3,190.4c0,0.2,0,0.4,0.1,0.6c0.1,0.4,0.1,0.9,0.3,1.6s0.3,1.4,0.5,2.2
					c0.2,0.8,0.4,1.6,0.6,2.5s0.6,1.7,0.8,2.5c0.3,0.7,0.6,1.4,0.9,2.1c0.1,0.3,0.3,0.5,0.5,0.8l0.4,0.6l0.3,0.5l-0.4-0.5l-0.5-0.5
					c-0.2-0.2-0.4-0.4-0.6-0.7c-0.4-0.6-0.8-1.2-1.2-1.9c-0.5-0.8-0.9-1.6-1.2-2.4c-0.4-0.8-0.7-1.6-1-2.4c-0.2-0.8-0.6-1.5-0.8-2.2
					s-0.4-1.2-0.5-1.6s-0.2-0.6-0.2-0.6L127.3,190.4z"/>
				<path id="Path_2573" class="st32" d="M120.1,189.4l0.1,0.6c0.1,0.4,0.1,0.9,0.3,1.6s0.3,1.4,0.5,2.2s0.4,1.6,0.7,2.5
					s0.6,1.7,0.8,2.5c0.3,0.7,0.6,1.4,0.9,2.1c0.1,0.3,0.3,0.5,0.5,0.8l0.4,0.6l0.3,0.5c0,0-0.1-0.2-0.4-0.5l-0.5-0.5
					c-0.2-0.2-0.4-0.5-0.6-0.7c-0.4-0.6-0.8-1.2-1.3-1.9c-0.5-0.8-0.9-1.6-1.2-2.4c-0.4-0.8-0.7-1.6-1-2.4c-0.2-0.8-0.6-1.5-0.8-2.2
					s-0.4-1.2-0.5-1.6s-0.2-0.6-0.2-0.6L120.1,189.4z"/>
				<path id="Path_2574" class="st32" d="M112.2,189c0,0.2,0,0.4,0.1,0.6c0.1,0.4,0.1,0.9,0.3,1.6s0.3,1.4,0.4,2.2s0.4,1.6,0.7,2.5
					s0.6,1.7,0.8,2.4c0.3,0.7,0.6,1.4,0.9,2.1c0.1,0.3,0.3,0.5,0.5,0.8l0.4,0.6l0.3,0.5c0,0-0.1-0.2-0.4-0.4l-0.5-0.5
					c-0.2-0.2-0.4-0.5-0.6-0.7c-0.4-0.6-0.8-1.2-1.3-1.9c-0.5-0.8-0.9-1.6-1.2-2.4c-0.4-0.8-0.7-1.6-1-2.4c-0.2-0.8-0.6-1.5-0.8-2.2
					s-0.4-1.2-0.5-1.6s-0.2-0.6-0.2-0.6L112.2,189z"/>
				<path id="Path_2575" class="st26" d="M108.8,143.7l-0.1-8.1c1.4-0.3,30.7-6.3,55.6-0.4l0.1,8.6
					C140.9,138.2,109.1,143.7,108.8,143.7z"/>
				<path id="Path_2576" class="st26" d="M108.4,123.6v-4c0-0.9,0.3-3.6,0.3-3.6c1.4-0.3,31.7-8,56.7-2v4c-0.1,2.5-0.2,4.3-0.2,4.3
					C141.7,116.5,108.7,123.5,108.4,123.6z"/>
				<path id="Path_2577" class="st26" d="M107.9,163.4l0.5-7.4c1.5-0.1,36.2-3.1,56.5,1.3l0.2,7.4
					C145.9,160.6,108.2,163.4,107.9,163.4z"/>
				<path id="Path_2578" class="st26" d="M106.7,181.1l0.4-7.3c1.5-0.1,33.8,0.8,58.3,2.3l0.1,7.1
					C136.9,183.5,107.1,181.1,106.7,181.1z"/>
				<path id="Path_2579" class="st27" d="M79.4,104.7c0,0,4.2-6.6,0.7-19.4s5.7-2.7,5.7-2.7s10.7,0.8,11.7,0.6s3.7,2.6,3.8,2.6
					s-2.3,5.9-2.3,5.9S98.9,103.4,79.4,104.7z"/>
				<path id="Path_2580" class="st17" d="M106.9,86.4c-14.2-3.6-15.6-10-16.9-11.8c-0.7-0.9-1.7-1.5-2.8-1.6
					c-10.4-1.1-21-0.3-31.2,2.2c0,0,19.2,8,26.4,13.1s14.2,3.3,17.3-0.7c0,0-4.1,15.5-20.4,17.1C79.4,104.7,99.7,108.9,106.9,86.4"
					/>
				<path id="Path_2581" class="st36" d="M88.2,74.6c0,0-19.8-1.6-28,0.9c5.2,1.2,10.2,3.4,14.7,6.4c6.9,4.7,15.1,10,19.2,7.8
					s4-5.4,4-5.4S88.9,81.2,88.2,74.6z"/>
				<path id="Path_2582" class="st37" d="M113.1,19.5c0,0,1.8-2.1,1.5-7.4c-1.3,3.1-3.9,5.4-7.2,6.4c0,0,5.1-4.5,3.6-17.5
					c0,0-0.3,12-8,17.3c0,0,2.4-3.2,0.8-10.2c0,0,0.4,6.6-5.1,10.1"/>
			</g>
		</g>
	</g>
	<g id="_3_gas" transform="translate(1727.04 13973.974)">
		<g id="Layer_2-2">
			<g id="OBJECTS-2">
				<path id="Path_2584" class="st16" d="M107.9,255.1c0,0,42-2.7,54.8,8s-14,28.3-75,25.4s-42.2-19-63.9-21.8
					S42.5,249.3,107.9,255.1z"/>
				<path id="Path_2585" class="st38" d="M36.1,138.4c0,0-11.5-2.6-14.1-11.1c-1.5-4.6-2.3-9.5-2.3-14.4c0,0-0.9-4.2-6-3
					s-6.7,9.3-6.2,19.9S19,158,32.9,162.5S36.1,138.4,36.1,138.4z"/>
				<path id="Path_2586" class="st17" d="M138.2,264.9l20.3,12.9c0,0-20.9-6.1-31.2,8.1l-7.1-15.5L138.2,264.9z"/>
				<path id="Path_2587" class="st17" d="M72.6,270.6l-13.2,14.5c0,0-10-11.7-25.2-13.1l19-10.4L72.6,270.6z"/>
				<path id="Path_2588" class="st19" d="M166.4,251.4c0,0,32.6-115.1-14.5-186c0,0-53-18.4-93.2,0.9c0,0-41,76.5-32.5,178.7
					c0,0,6.8,29.5,61.1,30.8S166.4,251.4,166.4,251.4z"/>
				<path id="Path_2589" class="st20" d="M161.6,144.5c0,0,10.6-2.3,15.4-9.4s8.6-22.4,15.1-20s8.6,11.9,5.4,26.6
					s-18.2,22.7-27.1,25.2S159,154.2,161.6,144.5z"/>
				<path id="Path_2590" class="st21" d="M93.2,83.3c0,0,9.4-14.8,22.5-12.8s22.5,41.6,17.1,63.6c0,0,29.4,23.4,19.1,74.4
					S98,274.8,64.1,258.2s-39-92.1-15.4-122.6c0,0-4.3-23.1,7.3-45.6S86.1,58.8,93.2,83.3z"/>
				<path id="Path_2591" class="st22" d="M111,102.6c-1.2,6.1-3.9,10.7-6,10.3s-2.9-5.7-1.8-11.8s3.9-10.7,6-10.3
					S112.2,96.5,111,102.6z"/>
				<path id="Path_2592" class="st22" d="M79.4,100.6c-1.2,5.9-3.8,10.4-6,10s-3-5.5-1.8-11.4s3.8-10.4,6-10S80.5,94.7,79.4,100.6z"
					/>
				<path id="Path_2593" class="st11" d="M196.6,123.7c0,0,2.1,15.1-3.3,24.4s-13.2,15.3-21.6,15.6s-5.9-4.5-5-5.5
					S194.6,151.2,196.6,123.7z"/>
				<path id="Path_2594" class="st11" d="M10.4,117.3c0,0-7.4,24.3,18.3,40.8l1.9-12.1c0,0-19.3-10.9-16.1-29.4
					C14.5,116.6,13.4,112.3,10.4,117.3z"/>
				<path id="Path_2595" class="st39" d="M193.6,119.8c0,0-0.1-2.7-4.3-1.6s-8.2,23.3-26.5,27.1v3.6
					C162.9,148.8,186.7,147.4,193.6,119.8z"/>
				<path id="Path_2596" class="st40" d="M18.3,112.9c0,0,0-2-2.8-2.3s-5.9,2-4.3,2.8s5-0.4,5.5,1s-1.2,11,5.5,19.3
					c0,0,6.5,6.3,9.5,8.1l1.2-3.4c0,0-9.5-2.9-12-11.5S18.3,112.9,18.3,112.9z"/>
				<path id="Path_2597" class="st11" d="M163.6,78.7c0,0-54.6-14.6-101.2-12.1c0,0-7.7,0.7-3.4,3c1.9,1,22,2.1,45.1,2.7
					C133.3,73.1,167,84.3,163.6,78.7z"/>
				<path id="Path_2598" class="st41" d="M34.2,167.3c0,0-8,42.9-4.6,75.4c0,0,14.8,28.6,61.3,28.6s69.7-21.7,69.7-21.7
					s13-34.8,13.1-72.9c0,0-44.5,53.7-91.3,48.7S34.2,167.3,34.2,167.3z"/>
				<path id="Path_2599" class="st42" d="M118.3,2c-1-2.9-5.7-2.5-6.4,0.7c-1.6-1-2-3.5-6.5-1.5c-2.3,1-4.2,5.4-1.7,7.1
					c-1.9,0.8-4.1,2.4-4,4.9c0.2,2.4,2.5,4.8,4.4,4c-0.2,2.9-0.4,4.5,1.8,6.4c2.1,1.6,4.3,2.3,6-0.1c1.1,7.3,13.3,4.4,11.1,0.4
					c1.9,0.6,5.1,1,6.4-1.4c1-2.1-0.5-4.7-2.2-5.4c4.8-1.2,6.5-9.7,0.7-10.3C130.1,0.9,119.6-2.3,118.3,2"/>
				<path id="Path_2600" class="st43" d="M60.7,51.2c0,0,14.1-36.3,55.2-32.4c0,0,38,5.1,41,41.8C156.9,60.6,111.8,66.1,60.7,51.2z"
					/>
				<path id="Path_2601" class="st42" d="M166.7,73.1c0-5.7-1.3-9.1-6.9-11.9c-8.3-4.2-33.5-9.7-47.6-11.5
					c-8.8-1.1-48.6-1.4-54.2,1.3c-4.6,2.3-4.6,7.2-5.1,11.6c-0.4,3.7,1.1,7.2,6.9,6c12.2-2.6,33.9-0.3,46.1,0.8s38.8,5.7,44.8,8.1
					C150.8,77.6,166.7,84.4,166.7,73.1z"/>
				<g id="whatshot">
					<path id="Path_2602" class="st44" d="M91.9,166.3c1.2,5.1,1.9,10.3,2.1,15.5c0,6.6-4.5,12.1-11,12.1
						c-6.6-0.1-11.8-5.5-11.7-12.1v-1c-6.7,8-10.3,18.1-10.3,28.6c0,14.3,11.6,25.8,25.8,25.8s25.8-11.6,25.8-25.8
						C112.7,192.6,105.1,176.7,91.9,166.3z M86.7,224.9c-5.6,0.1-10.2-4.3-10.3-9.8c0-0.1,0-0.1,0-0.2c0-5.2,3.4-9,9-10
						c5.8-1,11.7-3.8,14.8-8.3c1.4,4.2,2.1,8.6,2.1,13.1C102.2,218.2,95.2,225,86.7,224.9L86.7,224.9z"/>
				</g>
				<path id="Path_2603" class="st45" d="M61.1,53.7l-2.4,8.4"/>
				<path id="Path_2604" class="st45" d="M68.5,53.1c-3.6,12.6-2.3,9-2.3,9"/>
				<path id="Path_2605" class="st45" d="M77.1,52.6c-3.6,12.6-2.1,10.5-2.1,10.5"/>
				<path id="Path_2606" class="st45" d="M86.7,52.6c-3.6,12.6-2.1,10.5-2.1,10.5"/>
				<path id="Path_2607" class="st45" d="M97.7,52.6c-3.6,12.6-2.1,10.5-2.1,10.5"/>
				<path id="Path_2608" class="st45" d="M108.8,53.7c-3.6,12.6-2.1,10.5-2.1,10.5"/>
				<path id="Path_2609" class="st45" d="M118.7,54.9c-3.6,12.6-2.1,10.5-2.1,10.5"/>
				<path id="Path_2610" class="st45" d="M129.8,56.8c-3.6,12.6-2.1,10.5-2.1,10.5"/>
				<path id="Path_2611" class="st45" d="M140.7,60.2c-3.6,12.6-2.1,10.5-2.1,10.5"/>
				<path id="Path_2612" class="st45" d="M148.9,62.1c-3.2,12.7-1.7,10.6-1.7,10.6"/>
				<path id="Path_2613" class="st45" d="M154.9,64.2c-2.6,12.8-1.8,7.8-1.8,7.8"/>
				<path id="Path_2614" class="st45" d="M160.2,65.4c-2.5,12.9-1.3,7.9-1.3,7.9"/>
				<path id="Path_2615" class="st44" d="M127.2,118l2.3-20.6c0,0,25.2-1.8,33.5-12c0.5-0.6,1.4-0.7,2-0.2c2.4,2.1,7.3,8.1,5.9,17.9
					c-0.2,1.2-0.9,2.3-2,2.9C163.3,109.1,145.7,118.1,127.2,118z"/>
				<path id="Path_2616" class="st44" d="M50.1,85.3c0,0-5.8-1.6-7.5,3.1c-2.6,7.3-5.3,15.3,2.6,17L50.1,85.3z"/>
				<path id="Path_2617" class="st41" d="M64.7,126.3c-4.7-0.5-9.1-2.2-12.8-5.1c-5-3.9-7.9-11.2-7.3-18.4
					c0.6-8.3,5.3-15.3,13.2-19.9c8.5-4.9,25.5-3.8,34.9-2.8c8.9,1,17.8,2.8,21.2,4.2c8.6,3.7,13.3,8.3,16.6,16.9
					c2.7,7.2,1.4,10.2-1.5,15.6c-2.8,5.1-5.8,9.3-12.6,10.9c-2.1,0.7-4.3,0.9-6.4,0.8l0,0c-7.1-0.8-15-3.1-18-8.2
					c-1.3-2.2-2.7-3.5-4-3.6c-1.5-0.2-3.8,1.3-6.2,4.2C78.2,125.1,71.8,127.1,64.7,126.3z M91.9,86.5c-14.4-1.6-25.9-0.8-30.9,2
					c-8.1,4.6-9.7,11.3-10,14.8c-0.4,5.2,1.6,10.4,4.9,13c2.8,2.1,6,3.3,9.4,3.7c4.8,0.5,9.2-0.7,11.3-3.2c4-4.7,8-6.9,11.9-6.4
					c3.4,0.4,6.4,2.6,8.9,6.7c1.8,2.9,7,6.3,12.6,6.9l0,0c1.6,0.2,3.3,0.1,4.8-0.2c5-1.2,8.6-3.6,10.5-7c2-3.7,2-8.5,0-13.9
					c-2.5-6.6-6.9-9.5-14.2-12.7C109.2,89.3,101.8,87.6,91.9,86.5z"/>
				<path id="Path_2618" class="st24" d="M93.4,115.4c0.9,1.4,2.1,2.7,3.5,3.7c9.4-8.4,18.4-17.2,28-25.3c-3-4.5-7.4-7.2-13.6-9.9
					c-1.6-0.6-3.3-1.1-5-1.4c-15.2,11.9-29.9,24.3-44.5,37c6.2,1.2,12.8-0.1,16.1-4C85.4,106.7,90.3,110.5,93.4,115.4z"/>
				<path id="Path_2619" class="st25" d="M127.2,98.5c-0.6-1.6-1.4-3.2-2.3-4.6c-9.6,8.1-18.6,16.9-28,25.3c1.8,1.4,3.8,2.5,6,3.4
					c8.3-7.4,16.7-14.8,25-22.2C127.6,99.8,127.4,99.2,127.2,98.5z"/>
				<path id="Path_2620" class="st24" d="M102.8,122.6c3.7,1.5,7.7,1.9,11.6,1.1c11.2-2.6,17.1-11.1,13.4-23.3
					C119.5,107.8,111.2,115.2,102.8,122.6z"/>
				<path id="Path_2621" class="st25" d="M86.8,79.7c-1.3,1.3-2.6,2.6-3.9,3.8c-10.6,10.7-20.9,21.1-31.4,31
					c0.4,0.4,0.8,0.7,1.2,1.1c2.7,2.1,5.8,3.5,9.2,4.1c14.6-12.7,29.3-25.1,44.5-37C99.9,81.1,93.3,80.2,86.8,79.7z"/>
				<path id="Path_2622" class="st25" d="M79.4,79.2c-2.2-0.1-4.4,0-6.4,0c-8.1,9.7-16.8,18.8-25.8,27.6c0.4,1.6,1,3,1.8,4.4
					C59.6,101,69.7,90.3,79.4,79.2z"/>
				<path id="Path_2623" class="st24" d="M58.1,82.4C47.3,88.6,45,98.9,47.2,106.8c9-8.8,17.7-17.9,25.8-27.5
					C66.9,79.5,61.5,80.5,58.1,82.4z"/>
				<path id="Path_2624" class="st24" d="M79.4,79.2c-9.8,11.1-19.8,21.8-30.4,32c0.7,1.1,1.5,2.2,2.4,3.2
					c10.5-10,20.8-20.3,31.4-31c1.4-1.2,2.6-2.5,3.9-3.8C84.3,79.4,81.9,79.3,79.4,79.2z"/>
				<path id="Path_2625" class="st46" d="M63.4,123c-4.7-0.5-9.1-2.2-12.9-5c-5-3.9-7.9-11.2-7.3-18.4c0.6-8.3,5.3-15.3,13.2-19.8
					c8.5-4.9,25.5-3.8,34.9-2.8c8.9,1,17.8,2.8,21.2,4.2c8.5,3.7,14.5,7.7,17.7,16.4c2.7,7.2,2.6,13.8-0.4,19.1
					c-2.8,5.1-7.9,8.6-14.7,10.2c-2.3,0.5-4.7,0.7-7.1,0.4l0,0c-7.1-0.8-14.4-5-17.5-10.1c-1.3-2.2-2.7-3.5-3.9-3.6
					c-1.5-0.2-3.8,1.4-6.2,4.2C76.9,121.8,70.5,123.8,63.4,123z M90.6,83.2c-14.4-1.6-25.9-0.8-30.9,2c-8.1,4.6-9.8,11.2-10,14.8
					c-0.4,5.2,1.6,10.4,4.9,13c2.8,2.1,6,3.3,9.5,3.7c4.8,0.5,9.2-0.7,11.2-3.2c4-4.7,8-6.9,11.9-6.4c3.4,0.4,6.4,2.7,8.9,6.7
					c1.8,2.9,7,6.3,12.6,6.9l0,0c1.6,0.2,3.3,0.1,4.8-0.2c5-1.1,8.6-3.6,10.5-7c2-3.7,2-8.5,0-13.9c-2.5-6.6-6.9-9.5-14.2-12.7
					C108,86.1,100.5,84.3,90.6,83.2z"/>
				<path id="Path_2626" class="st27" d="M78.1,145.6c0,0,4.2-6.6,0.7-19.4s5.7-2.7,5.7-2.7s10.7,0.9,11.7,0.6s3.6,2.7,3.8,2.7
					s-2.3,5.9-2.3,5.9S97.6,144.3,78.1,145.6z"/>
				<path id="Path_2627" class="st17" d="M105.6,127.3c-14.2-3.6-15.6-10-16.9-11.8c-0.7-0.9-1.7-1.5-2.8-1.6
					c-10.4-1.1-21-0.3-31.2,2.2c0,0,19.2,8,26.4,13.1c7.2,5.1,14.2,3.3,17.3-0.7c0,0-4.1,15.5-20.4,17.1
					C78.1,145.6,98.4,149.8,105.6,127.3"/>
				<path id="Path_2628" class="st47" d="M86.9,115.5c0,0-19.8-1.6-28,0.9c5.2,1.3,10.2,3.4,14.7,6.4c6.9,4.7,15.1,10,19.2,7.8
					s4-5.4,4-5.4S87.6,122.1,86.9,115.5z"/>
				<path id="Path_2629" class="st46" d="M137.6,103.4c1.2-0.1,2.4-0.2,3.5-0.5c1.2-0.2,2.3-0.5,3.4-0.8c2.3-0.6,4.5-1.3,6.7-2.2
					c2.2-0.8,4.4-1.7,6.6-2.6c1.1-0.5,2.2-0.9,3.3-1.4s2.2-0.9,3.4-1.3c-0.9,0.8-1.9,1.5-2.9,2.2c-1,0.7-2,1.3-3.1,1.9
					c-1.1,0.6-2.1,1.2-3.2,1.7c-1.1,0.5-2.2,1-3.4,1.4c-1.1,0.4-2.3,0.8-3.5,1.1c-1.2,0.3-2.4,0.5-3.6,0.7c-0.6,0.1-1.2,0.1-1.8,0.2
					c-0.6,0.1-1.2,0.1-1.8,0C139.9,103.8,138.7,103.7,137.6,103.4z"/>
				<path id="Path_2630" class="st46" d="M136.2,107.8c1.2,0,2.4-0.1,3.6-0.3c1.2-0.2,2.3-0.4,3.5-0.7c2.3-0.5,4.6-1.2,6.8-1.9
					s4.4-1.5,6.7-2.3c1.1-0.4,2.2-0.8,3.4-1.2s2.2-0.9,3.4-1.2c-0.9,0.7-2,1.4-3,2.1c-1,0.7-2.1,1.3-3.1,1.8
					c-1.1,0.6-2.2,1.1-3.3,1.5s-2.2,0.9-3.4,1.3s-2.3,0.7-3.5,1c-1.2,0.3-2.4,0.4-3.6,0.6c-0.6,0.1-1.2,0.1-1.8,0.1s-1.2,0-1.8,0
					C138.6,108.4,137.4,108.2,136.2,107.8L136.2,107.8z"/>
			</g>
		</g>
	</g>
	<g id="_3_sun" transform="translate(1880.999 13998.903)">
		<g id="Layer_2-3">
			<g id="OBJECTS-3">
				<path id="Path_2632" class="st16" d="M91.1,219.1c0,0-42-2.7-54.8,8.1s14,28.3,75,25.4s42.2-19,63.9-21.8
					S156.4,213.3,91.1,219.1z"/>
				<path id="Path_2633" class="st17" d="M141.1,230.3l17.9,11.4c0,0-18.4-5.4-27.6,7.1l-6.3-13.7L141.1,230.3z"/>
				<path id="Path_2634" class="st17" d="M83,235.6l-11.7,15.7c0,0-11.2-10.6-26.4-10.4l17.8-12.3L83,235.6z"/>
				<path id="Path_2635" class="st18" d="M162.9,102.4c0,0,11.5-2.6,14.1-11.1c1.5-4.6,2.3-9.5,2.4-14.4c0,0,0.9-4.2,6-3
					s6.6,9.3,6.2,19.8s-11.6,28.3-25.4,32.8C152.2,131,162.9,102.4,162.9,102.4z"/>
				<path id="Path_2636" class="st19" d="M26.1,184.9c-4.8-29.8-8.6-76.7,4-118.6C37.6,41.7,59.4,24.2,85,22.1
					c2.8-0.2,5.6-0.4,8.5-0.5c27.2-0.6,51.8,16.5,60.6,42.3c12.5,36.2,19.1,74.2,19.7,112.4c0.4,33.9-26.1,62-60,63.4l-2.2,0.1
					c-13.4,0.4-26.7-1-39.7-4.3C48,229.2,30,209.3,26.1,184.9z"/>
				<path id="Path_2637" class="st20" d="M37.4,108.6c0,0-10.6-2.3-15.4-9.4S13.4,76.8,6.9,79.1S-1.7,91,1.5,105.8
					s18.2,22.8,27.1,25.3S39.9,118.3,37.4,108.6z"/>
				<path id="Path_2638" class="st21" d="M105.8,47.3c0,0-9.4-14.8-22.5-12.8S60.7,76.1,66.1,98.1c0,0-29.3,23.4-19.1,74.4
					s53.9,66.4,87.8,49.9s39-92.1,15.4-122.6c0,0,4.3-23-7.3-45.6S112.9,22.8,105.8,47.3z"/>
				<path id="Path_2639" class="st22" d="M88,67c1,5,3.5,8.8,5.7,8.4s3.1-4.8,2.1-9.9s-3.5-8.8-5.7-8.4S87,62,88,67z"/>
				<path id="Path_2640" class="st22" d="M119.6,64.7c1,4.9,3.5,8.5,5.6,8.1s3.1-4.7,2.2-9.6s-3.5-8.5-5.6-8.1
					S118.6,59.8,119.6,64.7z"/>
				<path id="Path_2641" class="st11" d="M2.3,87.7c0,0-2.1,15.1,3.3,24.4s13.2,15.3,21.6,15.6s5.9-4.5,5-5.5S4.4,115.2,2.3,87.7z"
					/>
				<path id="Path_2642" class="st11" d="M188.5,81.4c0,0,7.4,24.3-18.3,40.8l-1.9-12.1c0,0,19.3-10.9,16.1-29.4
					C184.4,80.6,185.6,76.4,188.5,81.4z"/>
				<path id="Path_2643" class="st48" d="M5.3,83.8c0,0,0.1-2.7,4.3-1.6s8.2,23.3,26.5,27.1v3.6C36.1,112.9,12.3,111.5,5.3,83.8z"/>
				<path id="Path_2644" class="st49" d="M180.6,77c0,0,0-2,2.8-2.3s5.9,2,4.3,2.8s-5-0.4-5.5,1s1.2,11-5.5,19.3
					c0,0-6.5,6.3-9.5,8.1l-1.1-3.4c0,0,9.5-2.8,12-11.5S180.6,77,180.6,77z"/>
				<path id="Path_2645" class="st50" d="M58.1,31.8c4.4-1.3,12.6-8.3,34-9.2c16.8-0.7,27.5,5,35.5,9.5c0.1,0.1,0.2,0.1,0.3,0.1
					c0.9,0.5,4.9,2.8,1.9,5.3c-3.2,2.8-73.6,8.7-73.4-4.1C56.6,32.6,57.2,32,58.1,31.8z"/>
				<path id="Path_2646" class="st51" d="M165,130.6c2.4,13.5,4,27.2,4.9,40.9c2,32.6-22.6,60.9-55.2,62.9c-2.1,0.1-4.2,0.2-6.5,0.2
					c-5,0-9.7-0.2-14.2-0.7c-33.7-3.4-59.8-22.5-66-62.8c-1.7-10.3-2.5-20.7-2.6-31.1c0,0,44.5,53.7,91.3,48.7S165,130.6,165,130.6z
					"/>
				<path id="Path_2647" class="st52" d="M40,28.9l0.9-1.3C46.3,20,59,2,89.7,0.4h1.4c31.9-2.7,49,15.2,54.7,21.1l0.3,0.3
					c6,6.2,6.8,23.7,6.8,25.7h-1.3v0l-5.4,0.2c-0.2-6.6-1.9-18.4-5.2-21.8l-0.3-0.3c-5.8-6-21.1-21.9-50.6-19.4h-0.1l-1.3,0.1
					C62.5,8.4,51.4,24.2,46.5,31c-0.3,0.5-0.7,0.9-0.9,1.3c-2.8,3.8-2.2,16.5-1.2,23.7l-5.3,0.8c0,0,0-0.1,0-0.1l-1.3,0.2
					C37.5,54.8,34.9,35.9,40,28.9z"/>
				<g id="Group_2409" class="st53">
					<path id="Path_2648" class="st54" d="M150.1,40.4c0.8-1.5,2.8-2.2,4.4,1.7c1.5-4.2,4.6-3.4,6.6,2.8c3.4-0.5,7.5,8.2,4.4,10.5
						c2.5,4.8,5.7,12.6,1.1,12.2c3.1,6.5,0.9,10.4-2.8,7.8c-0.1,4.4-2.4,8.3-5.6,3.1c-2.7,3.4-9-1.4-10.3-9.2
						c-4-2.5-6.1-9.9-3.7-13.2c-3.1-4.6-2.8-11.5-2.2-14.3C142.8,38.2,146.4,34,150.1,40.4"/>
				</g>
				<path id="Path_2649" class="st55" d="M152.1,39.4c0.8-1.5,2.8-2.2,4.4,1.7c1.5-4.2,4.6-3.4,6.6,2.8c3.4-0.5,7.5,8.2,4.4,10.5
					c2.5,4.8,5.7,12.6,1.1,12.2c3.1,6.5,0.9,10.4-2.8,7.8c-0.1,4.4-2.4,8.3-5.6,3.1c-2.7,3.4-9-1.4-10.3-9.2
					c-4-2.5-6.1-9.9-3.7-13.2c-3.1-4.6-2.8-11.5-2.2-14.3C144.8,37.2,148.4,33,152.1,39.4"/>
				<g id="Group_2410" class="st53">
					<path id="Path_2650" class="st54" d="M39.4,49.8c1.5-1.3,4.4-1.6,5.3,2.5c3.4-3.9,7.3-2.5,7.9,4c4.6,0.2,7.2,9.5,2.4,11.1
						c1.8,5.2,3.4,13.4-2.6,12.2c1.9,7-2.3,10.4-6.4,7.2c-1.7,4.4-5.9,7.8-8.6,2c-4.7,2.9-11.6-3-10.7-10.8
						c-4.5-3.2-4.8-10.9-0.5-13.7c-2.6-5.1,0.1-11.8,1.8-14.5C30.3,46.3,36.6,42.9,39.4,49.8"/>
				</g>
				<path id="Path_2651" class="st55" d="M37.4,46.8c1.5-1.3,4.4-1.6,5.3,2.5c3.4-3.9,7.3-2.5,7.9,4c4.6,0.2,7.2,9.5,2.4,11.1
					c1.8,5.2,3.4,13.4-2.6,12.2c1.9,7-2.3,10.4-6.4,7.2c-1.7,4.4-5.9,7.8-8.6,2c-4.7,2.9-11.6-3-10.7-10.8
					c-4.5-3.2-4.8-10.9-0.5-13.7c-2.6-5.1,0.1-11.8,1.8-14.5C28.3,43.3,34.6,39.9,37.4,46.8"/>
				<path id="Path_2652" class="st56" d="M86.4,177.3c0.1,0.4,0.3,0.7,0.6,0.8l8.9,3.3l-3.7,9.6c-0.1,0.4-0.1,0.8,0.1,1.1
					c0.2,0.3,0.5,0.5,0.9,0.4l9.3-1.3l0.4,10.4c0,0.4,0.2,0.7,0.5,0.9c0.3,0.2,0.7,0.2,1,0l7.9-5.6l4.3,9c0.1,0.3,0.5,0.5,0.8,0.6
					l0,0c0.3,0,0.6-0.2,0.8-0.5l5-8.6l7.5,6.3c0.3,0.2,0.7,0.3,1,0.1c0.3-0.2,0.5-0.5,0.6-0.9l1.1-10.4l9.2,2.1
					c0.3,0.1,0.7-0.1,0.9-0.3c0.2-0.3,0.3-0.7,0.2-1.1l-3-9.9l9.1-2.5c0.3-0.1,0.6-0.4,0.7-0.7c0.1-0.4,0-0.8-0.2-1.1l-6.5-7.5
					l7.2-6.6c0.3-0.3,0.4-0.6,0.3-1c0-0.4-0.3-0.7-0.6-0.8l-8.7-3.7l4-9.5c0.1-0.3,0.1-0.7-0.1-1.1c-0.2-0.3-0.5-0.5-0.9-0.5
					l-9.3,0.9v-10.5c0-0.4-0.2-0.7-0.5-0.9c-0.3-0.2-0.7-0.2-1,0l-9.3,6l-5.3-10.4c-0.2-0.3-0.5-0.5-0.8-0.5c-0.4,0-0.7,0.2-0.8,0.5
					l-4.7,9.1l-7.7-6c-0.3-0.2-0.7-0.3-1-0.1c-0.3,0.2-0.5,0.5-0.6,0.9l-0.8,10.4l-9.2-1.7c-0.3-0.1-0.7,0.1-0.9,0.4
					c-0.2,0.3-0.3,0.7-0.2,1.1l3.3,9.8l-9,2.9c-0.3,0.1-0.6,0.4-0.7,0.8c-0.1,0.4,0,0.7,0.3,1l6.7,7.2l-7,7
					C86.4,176.6,86.3,177,86.4,177.3z"/>
				<ellipse id="Ellipse_958" class="st55" cx="119.1" cy="169.6" rx="19.8" ry="22.3"/>
				
					<linearGradient id="Path_2653_1_" gradientUnits="userSpaceOnUse" x1="-407.2035" y1="50.3826" x2="-406.2095" y2="50.3826" gradientTransform="matrix(23.3901 0 0 -14.38 9587.5791 784.5424)">
					<stop  offset="0" style="stop-color:#FFF33B"/>
					<stop  offset="4.000000e-02" style="stop-color:#FEE72E"/>
					<stop  offset="0.12" style="stop-color:#FED51B"/>
					<stop  offset="0.2" style="stop-color:#FDCA10"/>
					<stop  offset="0.28" style="stop-color:#FDC70C"/>
					<stop  offset="0.67" style="stop-color:#F3903F"/>
					<stop  offset="0.89" style="stop-color:#ED683C"/>
					<stop  offset="1" style="stop-color:#E93E3A"/>
				</linearGradient>
				<path id="Path_2653" class="st57" d="M69.2,67.2L64,63.5l-0.7-5.2c0,0,12.2-5.4,23.4-5.5C86.7,52.8,72.8,56.1,69.2,67.2z"/>
				
					<linearGradient id="Path_2654_1_" gradientUnits="userSpaceOnUse" x1="-407.285" y1="56.4053" x2="-406.282" y2="56.4053" gradientTransform="matrix(24.71 0 0 -10.7972 10191.6094 659.8819)">
					<stop  offset="0" style="stop-color:#FFF33B"/>
					<stop  offset="4.000000e-02" style="stop-color:#FEE72E"/>
					<stop  offset="0.12" style="stop-color:#FED51B"/>
					<stop  offset="0.2" style="stop-color:#FDCA10"/>
					<stop  offset="0.28" style="stop-color:#FDC70C"/>
					<stop  offset="0.67" style="stop-color:#F3903F"/>
					<stop  offset="0.89" style="stop-color:#ED683C"/>
					<stop  offset="1" style="stop-color:#E93E3A"/>
				</linearGradient>
				<path id="Path_2654" class="st58" d="M148.9,56.3l4-4.9l-0.7-5.2c0,0-13.2-1.9-24,1C128.1,47,142.4,46.5,148.9,56.3z"/>
				
					<linearGradient id="Path_2655_1_" gradientUnits="userSpaceOnUse" x1="-406.4768" y1="65.4808" x2="-405.4118" y2="65.4808" gradientTransform="matrix(14.38 0 0 -7.85 5944.9849 574.8395)">
					<stop  offset="0" style="stop-color:#FFF33B"/>
					<stop  offset="4.000000e-02" style="stop-color:#FEE72E"/>
					<stop  offset="0.12" style="stop-color:#FED51B"/>
					<stop  offset="0.2" style="stop-color:#FDCA10"/>
					<stop  offset="0.28" style="stop-color:#FDC70C"/>
					<stop  offset="0.67" style="stop-color:#F3903F"/>
					<stop  offset="0.89" style="stop-color:#ED683C"/>
					<stop  offset="1" style="stop-color:#E93E3A"/>
				</linearGradient>
				<path id="Path_2655" class="st59" d="M113.5,63.7c0,0-4.6-3.4-8.1,1.1l-4.3-5.9l14.4-1.9L113.5,63.7z"/>
				
					<ellipse id="Ellipse_959" transform="matrix(0.991 -0.1336 0.1336 0.991 -8.9931 12.373)" class="st60" cx="87.7" cy="73.2" rx="19.4" ry="19.7"/>
				
					<linearGradient id="Path_2656_1_" gradientUnits="userSpaceOnUse" x1="-407.7395" y1="38.4756" x2="-406.7574" y2="38.4756" gradientTransform="matrix(41.8053 0 0 -41.8058 17112.7773 1681.1741)">
					<stop  offset="0" style="stop-color:#FFF33B"/>
					<stop  offset="4.000000e-02" style="stop-color:#FEE72E"/>
					<stop  offset="0.12" style="stop-color:#FED51B"/>
					<stop  offset="0.2" style="stop-color:#FDCA10"/>
					<stop  offset="0.28" style="stop-color:#FDC70C"/>
					<stop  offset="0.67" style="stop-color:#F3903F"/>
					<stop  offset="0.89" style="stop-color:#ED683C"/>
					<stop  offset="1" style="stop-color:#E93E3A"/>
				</linearGradient>
				<path id="Path_2656" class="st61" d="M90.4,93.3C79,95.1,68.3,87.2,66.6,75.8C64.8,64.4,72.7,53.8,84.1,52s22.1,6.1,23.8,17.5
					c0,0.1,0,0.2,0.1,0.4C109.5,81.2,101.7,91.6,90.4,93.3z M85.1,54.3C75,55.5,67.7,64.7,68.9,74.8s10.4,17.4,20.5,16.2
					s17.4-10.4,16.2-20.5c0-0.1,0-0.2,0-0.3C104.3,60.2,95.2,53.1,85.1,54.3z"/>
				
					<ellipse id="Ellipse_960" transform="matrix(0.991 -0.1336 0.1336 0.991 -7.7496 18.3205)" class="st60" cx="132.6" cy="66.9" rx="19.4" ry="19.7"/>
				
					<linearGradient id="Path_2657_1_" gradientUnits="userSpaceOnUse" x1="-407.7435" y1="38.4756" x2="-406.7615" y2="38.4756" gradientTransform="matrix(41.8053 0 0 -41.8058 17157.7031 1674.894)">
					<stop  offset="0" style="stop-color:#FFF33B"/>
					<stop  offset="4.000000e-02" style="stop-color:#FEE72E"/>
					<stop  offset="0.12" style="stop-color:#FED51B"/>
					<stop  offset="0.2" style="stop-color:#FDCA10"/>
					<stop  offset="0.28" style="stop-color:#FDC70C"/>
					<stop  offset="0.67" style="stop-color:#F3903F"/>
					<stop  offset="0.89" style="stop-color:#ED683C"/>
					<stop  offset="1" style="stop-color:#E93E3A"/>
				</linearGradient>
				<path id="Path_2657" class="st62" d="M135.3,87.1c-11.4,1.7-22.1-6.1-23.8-17.5c-1.7-11.4,6.1-22.1,17.5-23.8
					s22.1,6.1,23.8,17.5c0,0.1,0,0.2,0.1,0.4C154.4,74.9,146.6,85.3,135.3,87.1z M130.1,48c-10.2,1.2-17.4,10.4-16.2,20.5
					s10.4,17.4,20.5,16.2c10.2-1.2,17.4-10.4,16.2-20.5c0-0.1,0-0.2,0-0.3C149.2,53.9,140.1,46.8,130.1,48z"/>
				<path id="Path_2658" class="st63" d="M98.2,64.7c0,0-0.9-7.7-10.7-7.4C82.1,57.5,95.8,71.3,98.2,64.7z"/>
				<path id="Path_2659" class="st63" d="M145.2,58.4c0,0-0.9-7.7-10.7-7.4C129,51.2,142.8,65,145.2,58.4z"/>
				<path id="Path_2660" class="st27" d="M122,113.4c0,0-4.2-6.6-0.7-19.4s-5.7-2.7-5.7-2.7s-10.7,0.8-11.7,0.6s-4.9,1-5,1
					s3.6,7.6,3.6,7.6S102.4,112.1,122,113.4z"/>
				<path id="Path_2661" class="st17" d="M103.3,89.7c5.6-2.2,9-7.8,9-7.8c11-1.4,22.3-0.7,33.1,2c0,0-19.3,8-26.5,13.1
					s-14.2,3.3-17.3-0.7c0,0,4.1,15.5,20.4,17.1c0,0-15.9,3.3-24.6-11.6c-2-3.4-1.1-7.7,2-10C100.6,91,101.9,90.3,103.3,89.7z"/>
				<path id="Path_2662" class="st64" d="M113.6,82.5c0,0,19.4-0.8,27.6,1.6c-5.2,1.2-10.2,3.4-14.7,6.4c-6.9,4.7-15.1,10-19.2,7.8
					s-4.7-7-4.7-7S112.8,89.1,113.6,82.5z"/>
			</g>
		</g>
	</g>
</g>
</svg>
