<svg xmlns="http://www.w3.org/2000/svg" viewBox="0 0 76.972 36">
  <defs>
    <style>
      .cls-1 {
        fill: #00bcd4;
      }
    </style>
  </defs>
  <g id="pupil" transform="translate(-1087 -418)">
    <g id="Group" transform="translate(1087 418)">
      <g id="Group_1720" data-name="Group 1720" transform="translate(0 0)">
        <path id="Path_596" data-name="Path 596" class="cls-1" d="M103.749,17.944c.321.947,1.209,3.514,1.715,4.525.954,1.906,3.658,5.132,7.743,5.132s6.789-3.226,7.743-5.132c.506-1.011,1.393-3.578,1.715-4.525a1.8,1.8,0,0,0,1.35-1.743V13.8a1.8,1.8,0,0,0-1.2-1.7V9c0-2.369-1.248-6.745-5.865-7.167a1.375,1.375,0,0,0-.208-.68C116.151.2,114.493,0,113.207,0,102.522,0,102.4,10.1,102.4,10.2a.6.6,0,0,0,.6.6h0a.6.6,0,0,0,.6-.6c0-.367.136-9,9.608-9,1.7,0,2.379.367,2.512.584.02.031.07.113-.047.347a.6.6,0,0,0,.537.868c5.324,0,5.4,5.756,5.4,6v3.6a.6.6,0,0,0,.6.6.6.6,0,0,1,.6.6v2.4a.6.6,0,0,1-.6.6.6.6,0,0,0-.57.41c-.011.035-1.194,3.573-1.768,4.721-.091.182-2.287,4.468-6.669,4.468s-6.577-4.286-6.668-4.468c-.575-1.148-1.758-4.686-1.769-4.721a.6.6,0,0,0-.57-.41.6.6,0,0,1-.6-.6V13.8a.6.6,0,0,1,.171-.418A1.683,1.683,0,0,0,105.4,14.4a.6.6,0,0,0,.537-.332,10.76,10.76,0,0,0,1.224-3.28c3.073-.124,7.669-1.218,9.833-2.89a10.253,10.253,0,0,0,2.392,3.926.6.6,0,0,0,.849-.848c-.022-.022-2.226-2.249-2.226-4.376a.6.6,0,0,0-1.115-.309C115.871,8,110.228,9.6,106.6,9.6a.6.6,0,0,0-.6.6,6.985,6.985,0,0,1-.935,2.925.583.583,0,0,1-.266-.525.6.6,0,0,0-.6-.6,1.8,1.8,0,0,0-1.8,1.8v2.4A1.8,1.8,0,0,0,103.749,17.944Z" transform="translate(-95.193 -0.001)"/>
        <path id="Path_599" data-name="Path 599" class="cls-1" d="M36.011,400.189l-.613-2.444c-.309-.925-2.131-3.9-12.579-3.982v-.628a.6.6,0,0,0-1.2,0v1.2s0,.008,0,.012,0,.007,0,.011a3.442,3.442,0,0,1-3.6,3.577,3.457,3.457,0,0,1-3.6-3.6v-1.2a.6.6,0,0,0-1.2,0v.606c-7.78.061-11.678,1.3-12.592,4.048l-.6,2.4a.6.6,0,0,0,1.165.292l.588-2.356c.7-2.091,4.455-3.136,11.479-3.188a4.552,4.552,0,0,0,4.764,4.2,4.541,4.541,0,0,0,4.764-4.174c8.23.061,11.092,2,11.467,3.12l.6,2.4a.6.6,0,0,0,.582.454.588.588,0,0,0,.147-.018A.6.6,0,0,0,36.011,400.189Z" transform="translate(0 -364.935)"/>
      </g>
    </g>
    <g id="daughter" transform="translate(1128.033 418)">
      <g id="Group_1738" data-name="Group 1738" transform="translate(0)">
        <g id="Group_1737" data-name="Group 1737" transform="translate(0)">
          <path id="Path_619" data-name="Path 619" class="cls-1" d="M137.156,99.949c-3.5-4.664-5.271-9.379-5.271-14.016a.6.6,0,0,0-1.2,0c0,4.8,1.777,9.651,5.282,14.427-.858,1.518-3.543,5.339-6.48,5.339-3.174,0-6.054-4.463-6.652-5.658a20.471,20.471,0,0,1-1.734-6.92V91.313a37.333,37.333,0,0,0,8.55-1.211.6.6,0,1,0-.329-1.151,37.565,37.565,0,0,1-8.82,1.175.6.6,0,0,0-.6.6v2.4a21.638,21.638,0,0,0,1.86,7.455c.032.064,3.285,6.321,7.724,6.321s7.692-6.257,7.724-6.321A.6.6,0,0,0,137.156,99.949Z" transform="translate(-111.52 -79.344)"/>
          <path id="Path_620" data-name="Path 620" class="cls-1" d="M22.6,392.533a.6.6,0,0,0-.6.6v1.2s0,.008,0,.012,0,.007,0,.011a3.435,3.435,0,0,1-3.594,3.571,3.451,3.451,0,0,1-3.594-3.594v-1.2a.6.6,0,0,0-1.2,0v.61c-8.144.115-11.857,2.52-12.548,4.592l-.6,1.8a.6.6,0,0,0,1.137.378l.6-1.8c.426-1.279,3.372-3.673,11.451-3.779a4.542,4.542,0,0,0,4.752,4.189,4.606,4.606,0,0,0,4.792-4.767s0-.008,0-.012,0-.008,0-.013v-1.2A.6.6,0,0,0,22.6,392.533Z" transform="translate(-0.435 -364.98)"/>
          <path id="Path_622" data-name="Path 622" class="cls-1" d="M446.677,439.864l-.6-1.8c-.327-.981-1.568-1.981-3.495-2.818a.6.6,0,1,0-.477,1.1c1.844.8,2.68,1.63,2.835,2.1l.6,1.8a.6.6,0,0,0,1.137-.379Z" transform="translate(-410.769 -404.653)"/>
          <path id="Path_623" data-name="Path 623" class="cls-1" d="M66.012,0C57.9,0,53.433,4.467,53.433,12.578v5.391a37.622,37.622,0,0,1-1.766,9.993.6.6,0,1,0,1.137.379,38.154,38.154,0,0,0,1.827-10.372V12.578c0-9.406,6.189-11.38,11.38-11.38,7.051,0,11.38,6.628,11.38,11.38v1.2c0,2.419-1.482,5.206-2.915,7.9C73.2,24.073,72,26.334,72,28.152a9.709,9.709,0,0,0,2.571,6.413.6.6,0,0,0,.847,0,9.709,9.709,0,0,0,2.571-6.413c0-3.734-1.233-5.075-1.373-5.215a.594.594,0,0,0-.836,0,.6.6,0,0,0-.019.843c.01.011,1.03,1.141,1.03,4.375A8.546,8.546,0,0,1,75,33.216a8.5,8.5,0,0,1-1.8-5.064c0-1.518,1.134-3.653,2.335-5.911,1.5-2.825,3.055-5.747,3.055-8.464v-1.2C78.59,6.629,73.424,0,66.012,0Z" transform="translate(-48.042)"/>
        </g>
      </g>
    </g>
  </g>
</svg>
