<svg xmlns="http://www.w3.org/2000/svg" viewBox="0 0 16 20">
  <defs>
    <style>
      .cls-1 {
        fill: #b5b5b5;
      }
    </style>
  </defs>
  <path id="raspberrypi_about_page" class="cls-1" d="M13.9,14.448c-.718.824-1.118,2.325-.594,2.809.5.374,1.845.326,2.837-1.025a2.527,2.527,0,0,0,.068-2.81c-.612-.462-1.49.137-2.311,1.036v-.01Zm-6.754.25c-.761-.867-1.75-1.382-2.39-1-.427.318-.507,1.4.1,2.472a2.285,2.285,0,0,0,2.7,1.089c.552-.407.251-1.781-.413-2.563Zm3.441,2.621c-.925-.022-2.345.366-2.327.86-.015.336,1.116,1.31,2.267,1.261,1.111.025,2.262-.949,2.248-1.374s-1.256-.772-2.185-.737ZM10.526,5.7c-1.069-.027-2.1.777-2.1,1.244,0,.567.845,1.147,2.1,1.162,1.293.008,2.111-.466,2.122-1.05.013-.662-1.168-1.366-2.111-1.356Zm-2.574.443A2.563,2.563,0,0,0,4.732,8.8c.059.737,3.881-2.534,3.221-2.648V6.142Zm8.172,2.709A2.562,2.562,0,0,0,12.9,6.2C12.242,6.317,16.063,9.589,16.124,8.852Zm.305.687c-1.039-.274-.352,4.207.493,3.846a2.389,2.389,0,0,0-.493-3.833Zm-12.488,3.9c.844.375,1.531-4.107.494-3.833a2.4,2.4,0,0,0-.494,3.846v-.012Zm7.892-4.957a2.2,2.2,0,0,0-.386,3.122,2.345,2.345,0,0,0,3.094.9,2.2,2.2,0,0,0,.387-3.122,2.317,2.317,0,0,0-3.095-.886Zm-2.6.113a2.339,2.339,0,0,0-3.092.887,2.217,2.217,0,0,0,.386,3.134,2.317,2.317,0,0,0,3.094-.887A2.213,2.213,0,0,0,9.236,8.6ZM12.9,14.558a2.212,2.212,0,0,0-2.331-2.085,2.221,2.221,0,0,0-2.308,2.11v.024a2.214,2.214,0,0,0,2.333,2.085,2.2,2.2,0,0,0,2.3-2.1v-.024l.008-.012ZM15.59,1.948A13.315,13.315,0,0,0,11.911,4.4c.316,1.248,1.965,1.3,2.567,1.26a.441.441,0,0,1-.264-.224c.151-.1.688-.013,1.063-.213-.143-.025-.211-.051-.276-.163a3.026,3.026,0,0,0,.956-.387.593.593,0,0,1-.391-.075,3.8,3.8,0,0,0,.918-.548c-.164,0-.34,0-.391-.062a3.192,3.192,0,0,0,.735-.587c-.228.038-.327.013-.381-.025a2.653,2.653,0,0,0,.628-.675.483.483,0,0,1-.438,0c.076-.162.394-.262.578-.649a.827.827,0,0,1-.407,0,2,2,0,0,1,.365-.712,7.514,7.514,0,0,1-.936-.024l.237-.238a1.874,1.874,0,0,0-1.036.1c-.125-.088,0-.213.155-.338a4,4,0,0,0-.867.213c-.137-.125.088-.237.2-.363a2.47,2.47,0,0,0-.917.35C13.861.9,14,.775,14.1.663a2.376,2.376,0,0,0-.766.473c-.075-.087-.175-.149-.05-.374a1.991,1.991,0,0,0-.615.524c-.163-.112-.1-.249-.1-.374a6.524,6.524,0,0,0-.666.676c-.051-.026-.088-.125-.113-.288-.653.625-1.583,2.186-.239,2.8A12.709,12.709,0,0,1,15.555,2.01l.034-.063Zm-10.276,0a12.536,12.536,0,0,1,4,2.1c1.338-.625.413-2.186-.236-2.8-.034.162-.071.274-.113.3A6.99,6.99,0,0,0,8.308.873c0,.125.065.275-.1.375A1.9,1.9,0,0,0,7.6.723c.125.213.021.275-.047.374A2.08,2.08,0,0,0,6.8.6c.1.124.251.25.1.387A2.39,2.39,0,0,0,6,.636c.113.124.339.25.2.375A3.63,3.63,0,0,0,5.331.8c.152.125.287.241.161.337A1.828,1.828,0,0,0,4.44,1.021l.238.237a6.673,6.673,0,0,1-.94.029A1.8,1.8,0,0,1,4.1,2c-.038.037-.226.013-.4,0,.189.374.5.475.577.637a.472.472,0,0,1-.438,0,3.565,3.565,0,0,0,.627.675.577.577,0,0,1-.389.031,3.319,3.319,0,0,0,.728.587c-.05.058-.227.057-.4.063a3.789,3.789,0,0,0,.917.552.543.543,0,0,1-.39.088,2.928,2.928,0,0,0,.955.387.343.343,0,0,1-.288.163c.376.212.9.112,1.054.225a.441.441,0,0,1-.263.225c.6.038,2.261-.012,2.575-1.262A13.137,13.137,0,0,0,5.281,1.934l.034.013ZM6.768.086a1.739,1.739,0,0,1,.547.168c.443-.142.545.053.763.132.484-.1.63.117.863.349l.27-.007a3.019,3.019,0,0,1,1.221,1.721A3,3,0,0,1,11.652.727l.269.006c.232-.236.38-.449.863-.348C13,.3,13.1.11,13.547.247c.277-.087.52-.312.886-.038a.776.776,0,0,1,.876.075c.415-.05.547.051.649.175.091,0,.678-.087.949.3.679-.075.892.387.649.823a.56.56,0,0,1-.042.812c.126.224.052.461-.226.761a.617.617,0,0,1-.313.7c.05.425-.4.675-.527.762-.051.25-.152.487-.666.612-.075.374-.389.436-.691.512a3.161,3.161,0,0,1,1.834,3.109l.152.249a3.034,3.034,0,0,1,.565,4.595,8.219,8.219,0,0,1-.428,1.373,3.377,3.377,0,0,1-2.147,2.684,7.037,7.037,0,0,1-2.047,1.136A3.441,3.441,0,0,1,10.509,20h-.077a3.464,3.464,0,0,1-2.525-1.112,7.093,7.093,0,0,1-2.051-1.136,3.39,3.39,0,0,1-2.148-2.684,8.378,8.378,0,0,1-.434-1.385,3.032,3.032,0,0,1,.558-4.6l.144-.25A3.161,3.161,0,0,1,5.81,5.728c-.3-.075-.6-.138-.69-.513-.516-.125-.616-.362-.666-.612-.126-.088-.578-.337-.527-.773a.629.629,0,0,1-.314-.712c-.263-.288-.339-.537-.226-.762a.556.556,0,0,1-.038-.812C3.11,1.107,3.323.633,4,.708c.263-.388.855-.3.941-.3.1-.125.239-.237.653-.187A.8.8,0,0,1,6.475.137.547.547,0,0,1,6.815,0Z" transform="translate(-2.455)"/>
</svg>
