<svg xmlns="http://www.w3.org/2000/svg" viewBox="0 0 30 38">
  <defs>
    <style>
      .cls-1 {
        fill: #fff;
      }
    </style>
  </defs>
  <path id="raspberrypi" class="cls-1" d="M23.917,27.452c-1.347,1.566-2.1,4.417-1.114,5.337.937.711,3.459.619,5.32-1.947,1.352-1.71.894-4.581.127-5.339-1.147-.879-2.794.26-4.333,1.968v-.019Zm-12.663.475c-1.427-1.647-3.282-2.625-4.481-1.9-.8.6-.951,2.668.193,4.7,1.694,2.413,4.08,2.658,5.062,2.069,1.036-.773.471-3.384-.775-4.869Zm6.452,4.98c-1.734-.041-4.4.7-4.363,1.634-.028.638,2.092,2.489,4.251,2.4,2.084.048,4.242-1.8,4.215-2.611-.006-.828-2.354-1.468-4.1-1.4Zm-.118-22.078c-2-.051-3.932,1.477-3.932,2.364C13.65,14.269,15.24,15.371,17.6,15.4c2.425.016,3.957-.885,3.979-2,.025-1.257-2.191-2.6-3.957-2.576Zm-4.827.842c-3.355-.546-6.15,1.425-6.038,5.054.11,1.4,7.277-4.815,6.04-5.03l0-.024Zm15.322,5.147c.112-3.605-2.686-5.575-6.041-5.029C20.806,12,27.971,18.219,28.084,16.818Zm.572,1.3c-1.947-.521-.66,7.994.924,7.307a4.573,4.573,0,0,0-.924-7.283Zm-23.414,7.4c1.583.713,2.871-7.8.926-7.283a4.6,4.6,0,0,0-.926,7.307v-.024Zm14.8-9.418c-1.8,1.188-2.128,3.844-.725,5.931s4,2.871,5.8,1.707,2.126-3.819.726-5.931-4-2.871-5.8-1.683Zm-4.866.214c-1.8-1.162-4.4-.4-5.8,1.685-1.4,2.112-1.078,4.769.725,5.955s4.4.426,5.8-1.685c1.391-2.087,1.061-4.745-.731-5.93Zm6.867,11.34A4.169,4.169,0,0,0,17.669,23.7a4.187,4.187,0,0,0-4.328,4.009v.046a4.173,4.173,0,0,0,4.374,3.961,4.142,4.142,0,0,0,4.309-3.985v-.046l.016-.024ZM27.083,3.7c-3.626,1.875-5.74,3.369-6.9,4.652.593,2.372,3.684,2.467,4.814,2.394a.83.83,0,0,1-.5-.426c.283-.19,1.29-.025,1.993-.4a.6.6,0,0,1-.517-.309,5.632,5.632,0,0,0,1.793-.736,1.1,1.1,0,0,1-.734-.142A7.1,7.1,0,0,0,28.76,7.687c-.308,0-.638,0-.732-.119a6,6,0,0,0,1.378-1.115c-.427.071-.613.025-.714-.048a5.015,5.015,0,0,0,1.177-1.282.9.9,0,0,1-.82,0c.143-.307.739-.5,1.084-1.233a1.531,1.531,0,0,1-.764,0,3.819,3.819,0,0,1,.684-1.352A13.905,13.905,0,0,1,28.3,2.492l.445-.451a3.47,3.47,0,0,0-1.943.19c-.234-.166,0-.4.291-.641a7.424,7.424,0,0,0-1.625.405c-.258-.237.165-.451.377-.69a4.6,4.6,0,0,0-1.719.665c-.283-.261-.024-.5.163-.711a4.447,4.447,0,0,0-1.436.9c-.141-.165-.328-.283-.094-.711a3.747,3.747,0,0,0-1.154,1c-.3-.212-.187-.473-.187-.711a12.319,12.319,0,0,0-1.248,1.284c-.1-.049-.165-.237-.212-.548-1.224,1.188-2.969,4.153-.448,5.314a23.723,23.723,0,0,1,7.511-3.963l.064-.119ZM7.816,3.7a23.4,23.4,0,0,1,7.508,3.987c2.508-1.187.775-4.153-.443-5.314-.064.307-.134.521-.212.568A13.2,13.2,0,0,0,13.43,1.659c0,.237.121.522-.184.712a3.583,3.583,0,0,0-1.139-1c.234.405.039.523-.088.711a3.9,3.9,0,0,0-1.413-.948c.189.236.471.475.189.736A4.448,4.448,0,0,0,9.1,1.208c.212.236.635.475.374.712a6.734,6.734,0,0,0-1.627-.408c.284.237.538.458.3.641A3.386,3.386,0,0,0,6.177,1.94l.446.45a12.348,12.348,0,0,1-1.762.055A3.445,3.445,0,0,1,5.545,3.8c-.071.071-.424.025-.759,0,.354.711.941.9,1.081,1.211a.874.874,0,0,1-.822,0A6.74,6.74,0,0,0,6.221,6.291a1.069,1.069,0,0,1-.729.059A6.24,6.24,0,0,0,6.857,7.464c-.094.111-.426.109-.753.119a7.087,7.087,0,0,0,1.719,1.05,1.008,1.008,0,0,1-.731.166,5.45,5.45,0,0,0,1.79.735.641.641,0,0,1-.541.309c.706.4,1.694.214,1.977.427a.83.83,0,0,1-.493.427c1.13.071,4.239-.024,4.828-2.4-1.157-1.278-3.275-2.774-6.9-4.625l.063.025ZM10.541.163a3.228,3.228,0,0,1,1.025.318c.831-.269,1.022.1,1.43.252.907-.19,1.182.223,1.617.663l.506-.014a5.738,5.738,0,0,1,2.29,3.27,5.7,5.7,0,0,1,2.29-3.27l.5.011c.435-.448.712-.853,1.617-.662.41-.166.6-.522,1.432-.263C23.771.3,24.227-.125,24.914.4A1.44,1.44,0,0,1,26.556.54c.778-.095,1.026.1,1.216.333.17,0,1.271-.165,1.779.57,1.273-.142,1.672.735,1.216,1.564A1.073,1.073,0,0,1,30.69,4.55c.236.426.1.876-.424,1.446a1.179,1.179,0,0,1-.588,1.328c.094.808-.754,1.283-.989,1.447-.1.475-.284.925-1.249,1.162-.14.711-.729.828-1.3.972a6.014,6.014,0,0,1,3.439,5.907l.284.473a5.811,5.811,0,0,1,1.059,8.73,15.767,15.767,0,0,1-.8,2.609,6.39,6.39,0,0,1-4.025,5.1,13.148,13.148,0,0,1-3.838,2.158A6.413,6.413,0,0,1,17.555,38h-.145a6.455,6.455,0,0,1-4.734-2.114,13.252,13.252,0,0,1-3.846-2.158,6.415,6.415,0,0,1-4.027-5.1A16.073,16.073,0,0,1,3.99,26a5.808,5.808,0,0,1,1.047-8.732l.27-.475a6.014,6.014,0,0,1,3.439-5.906c-.564-.143-1.132-.261-1.293-.974C6.486,9.673,6.3,9.223,6.2,8.748c-.236-.166-1.083-.64-.989-1.469a1.2,1.2,0,0,1-.589-1.352C4.132,5.379,3.99,4.905,4.2,4.478A1.065,1.065,0,0,1,4.13,2.935C3.682,2.1,4.083,1.2,5.355,1.346,5.848.61,6.958.777,7.12.777,7.31.54,7.568.326,8.344.421A1.48,1.48,0,0,1,9.993.26,1.018,1.018,0,0,1,10.631,0Z" transform="translate(-2.455)"/>
</svg>
