<svg xmlns="http://www.w3.org/2000/svg" viewBox="0 0 15 18">
  <defs>
    <style>
      .cls-1 {
        fill: #b5b5b5;
      }
    </style>
  </defs>
  <path id="raspberrypi" class="cls-1" d="M13.186,13c-.673.742-1.048,2.092-.557,2.528a2.157,2.157,0,0,0,2.66-.922,2.2,2.2,0,0,0,.064-2.529c-.574-.416-1.4.123-2.167.932V13Zm-6.331.225c-.714-.78-1.641-1.244-2.24-.9-.4.286-.475,1.264.1,2.225a2.187,2.187,0,0,0,2.531.98c.518-.366.236-1.6-.387-2.306Zm3.226,2.359c-.867-.02-2.2.329-2.181.774-.014.3,1.046,1.179,2.126,1.135,1.042.022,2.121-.854,2.108-1.237s-1.177-.7-2.049-.663ZM10.022,5.129c-1-.024-1.966.7-1.966,1.12,0,.51.792,1.032,1.972,1.046,1.213.007,1.979-.419,1.99-.945.013-.6-1.1-1.229-1.979-1.22Zm-2.413.4C5.931,5.269,4.534,6.2,4.589,7.922c.055.663,3.638-2.281,3.02-2.383V5.528ZM15.27,7.966c.056-1.708-1.343-2.641-3.021-2.382C11.63,5.686,15.213,8.63,15.27,7.966Zm.286.618c-.974-.247-.33,3.787.462,3.461a2.1,2.1,0,0,0-.462-3.45ZM3.848,12.091c.791.338,1.436-3.7.463-3.45A2.113,2.113,0,0,0,3.848,12.1v-.011Zm7.4-4.461a1.932,1.932,0,0,0-.362,2.81,2.25,2.25,0,0,0,2.9.808,1.93,1.93,0,0,0,.363-2.81,2.223,2.223,0,0,0-2.9-.8Zm-2.433.1a2.244,2.244,0,0,0-2.9.8,1.943,1.943,0,0,0,.362,2.821,2.223,2.223,0,0,0,2.9-.8,1.94,1.94,0,0,0-.365-2.809ZM12.247,13.1a2.043,2.043,0,0,0-2.185-1.876,2.049,2.049,0,0,0-2.164,1.9v.022a2.045,2.045,0,0,0,2.187,1.876,2.027,2.027,0,0,0,2.155-1.888v-.022l.008-.011Zm2.522-11.35a12.517,12.517,0,0,0-3.449,2.2c.3,1.123,1.842,1.168,2.407,1.134a.409.409,0,0,1-.248-.2c.141-.09.645-.012,1-.191-.134-.023-.2-.046-.259-.146a2.9,2.9,0,0,0,.9-.349.576.576,0,0,1-.367-.068,3.591,3.591,0,0,0,.86-.494c-.154,0-.319,0-.366-.056a2.975,2.975,0,0,0,.689-.528c-.214.034-.306.012-.357-.022a2.429,2.429,0,0,0,.589-.608.47.47,0,0,1-.41,0c.072-.145.369-.235.542-.584a.807.807,0,0,1-.382,0,1.776,1.776,0,0,1,.342-.64,7.337,7.337,0,0,1-.878-.022L15.6.967a1.825,1.825,0,0,0-.971.09c-.117-.079,0-.191.145-.3a3.882,3.882,0,0,0-.813.192c-.129-.112.083-.214.189-.327a2.372,2.372,0,0,0-.86.315C13.148.809,13.277.7,13.371.6a2.243,2.243,0,0,0-.718.426c-.071-.078-.164-.134-.047-.337a1.848,1.848,0,0,0-.577.472c-.152-.1-.094-.224-.094-.337a5.994,5.994,0,0,0-.624.608c-.048-.023-.083-.112-.106-.259-.612.563-1.484,1.967-.224,2.517a12.1,12.1,0,0,1,3.755-1.877l.032-.056Zm-9.633,0A11.927,11.927,0,0,1,8.889,3.641c1.254-.562.387-1.967-.222-2.517-.032.145-.067.247-.106.269A6.419,6.419,0,0,0,7.942.786c0,.112.061.247-.092.337a1.765,1.765,0,0,0-.57-.473C7.4.843,7.3.9,7.237.988A1.956,1.956,0,0,0,6.53.539c.094.112.236.225.094.349A2.294,2.294,0,0,0,5.777.572c.106.112.317.225.187.337A3.52,3.52,0,0,0,5.151.716c.142.113.269.217.151.3a1.78,1.78,0,0,0-.986-.1l.223.213a6.514,6.514,0,0,1-.881.026A1.6,1.6,0,0,1,4,1.8a.988.988,0,0,1-.38,0c.177.337.471.427.541.574a.459.459,0,0,1-.411,0,3.264,3.264,0,0,0,.588.607.561.561,0,0,1-.365.028,3.092,3.092,0,0,0,.683.528c-.047.053-.213.052-.376.056a3.584,3.584,0,0,0,.86.5.527.527,0,0,1-.365.079,2.81,2.81,0,0,0,.9.348.324.324,0,0,1-.27.146c.353.19.847.1.989.2a.409.409,0,0,1-.247.2c.565.034,2.119-.011,2.414-1.135A12.353,12.353,0,0,0,5.1,1.741l.031.012ZM6.5.077A1.68,1.68,0,0,1,7.01.228c.416-.127.511.047.715.119.453-.09.591.106.809.314L8.787.655A2.719,2.719,0,0,1,9.932,2.2,2.7,2.7,0,0,1,11.077.655l.252.005c.218-.212.356-.4.809-.314.205-.079.3-.247.716-.124.259-.078.487-.281.831-.034a.752.752,0,0,1,.821.067c.389-.045.513.046.608.157.085,0,.636-.078.89.27.637-.068.836.348.608.741.13.191.265.371-.039.731.118.2.049.415-.212.685a.548.548,0,0,1-.294.629c.047.383-.377.607-.494.686-.048.225-.142.438-.625.551-.07.337-.365.392-.648.46a2.837,2.837,0,0,1,1.719,2.8l.142.224a2.667,2.667,0,0,1,.53,4.135,7.183,7.183,0,0,1-.4,1.236,3.081,3.081,0,0,1-2.013,2.416A6.679,6.679,0,0,1,12.358,17a3.291,3.291,0,0,1-2.353,1H9.933a3.313,3.313,0,0,1-2.367-1,6.733,6.733,0,0,1-1.923-1.022A3.094,3.094,0,0,1,3.63,13.561a7.323,7.323,0,0,1-.407-1.247,2.665,2.665,0,0,1,.523-4.136l.135-.225A2.837,2.837,0,0,1,5.6,5.155c-.282-.068-.566-.124-.647-.461-.483-.113-.578-.326-.625-.55-.118-.079-.541-.3-.494-.7a.558.558,0,0,1-.295-.641c-.247-.259-.317-.484-.212-.686a.487.487,0,0,1-.035-.73C3.069,1,3.269.57,3.9.637c.247-.349.8-.269.882-.269C4.882.256,5.011.154,5.4.2A.773.773,0,0,1,6.224.123.525.525,0,0,1,6.543,0Z" transform="translate(-2.455 0)"/>
</svg>
