<svg id="school" xmlns="http://www.w3.org/2000/svg" viewBox="0 0 36 36">
  <defs>
    <style>
      .cls-1 {
        fill: #00bcd4;
      }
    </style>
  </defs>
  <g id="Group_1245" data-name="Group 1245">
    <path id="Path_247" data-name="Path 247" class="cls-1" d="M187.733,260.2a.6.6,0,0,0,.6.6h2.4a.6.6,0,0,0,.6-.6v-3.6a.6.6,0,0,0-.6-.6h-2.4a.6.6,0,0,0-.6.6v3.6Zm1.2-3h1.2v2.4h-1.2Z" transform="translate(-174.533 -238)"/>
    <path id="Path_248" data-name="Path 248" class="cls-1" d="M188.334,158.4h2.4a.6.6,0,0,0,.6-.6v-3.6a.6.6,0,0,0-.6-.6h-2.4a.6.6,0,0,0-.6.6v3.6A.6.6,0,0,0,188.334,158.4Zm.6-3.6h1.2v2.4h-1.2Z" transform="translate(-174.534 -142.801)"/>
    <path id="Path_249" data-name="Path 249" class="cls-1" d="M120.375,11.314,129.066,6.1l8.691,5.215a.6.6,0,0,0,.618-1.028L129.666,5.06V1.2h3V2.4h-1.8a.6.6,0,0,0,0,1.2h2.4a.6.6,0,0,0,.6-.6V.6a.6.6,0,0,0-.6-.6h-4.2a.6.6,0,0,0-.6.6V5.06l-8.709,5.225a.6.6,0,0,0,.618,1.028Z" transform="translate(-111.066)"/>
    <path id="Path_250" data-name="Path 250" class="cls-1" d="M54.2,260.8a.6.6,0,0,0,.6-.6v-3.6a.6.6,0,0,0-.6-.6H51.8a.6.6,0,0,0-.6.6v1.2a.6.6,0,1,0,1.2,0v-.6h1.2v3A.6.6,0,0,0,54.2,260.8Z" transform="translate(-47.6 -238.001)"/>
    <path id="Path_251" data-name="Path 251" class="cls-1" d="M137.734,197.2V179.8a.6.6,0,0,0-1.2,0v17.4a.6.6,0,1,0,1.2,0Z" transform="translate(-126.934 -166.6)"/>
    <path id="Path_252" data-name="Path 252" class="cls-1" d="M103,366.8h20.4a.6.6,0,1,0,0-1.2H118v-6h.6a.6.6,0,0,0,0-1.2H107.8a.6.6,0,0,0,0,1.2h.6v6H103a.6.6,0,0,0,0,1.2Zm10.8-3.6a.6.6,0,0,0,0-1.2v-2.4h3v6h-3v-2.4Zm-4.2-3.6h3V362a.6.6,0,0,0,0,1.2v2.4h-3Z" transform="translate(-95.2 -333.202)"/>
    <path id="Path_253" data-name="Path 253" class="cls-1" d="M412.6,366.933h-2.4a.6.6,0,0,0-.6.6v3.6a.6.6,0,0,0,.6.6h2.4a.6.6,0,0,0,.6-.6v-3.6A.6.6,0,0,0,412.6,366.933Zm-.6,3.6h-1.2v-2.4H412Z" transform="translate(-380.801 -341.133)"/>
    <path id="Path_254" data-name="Path 254" class="cls-1" d="M412.6,264.533h-2.4a.6.6,0,0,0-.6.6v3.6a.6.6,0,0,0,.6.6h2.4a.6.6,0,0,0,.6-.6v-3.6A.6.6,0,0,0,412.6,264.533Zm-.6,3.6h-1.2v-2.4H412Z" transform="translate(-380.801 -245.933)"/>
    <path id="Path_255" data-name="Path 255" class="cls-1" d="M94.067,494.933h-25.2a.6.6,0,0,0,0,1.2h25.2a.6.6,0,0,0,0-1.2Z" transform="translate(-63.467 -460.133)"/>
    <path id="Path_256" data-name="Path 256" class="cls-1" d="M400.334,187.733a.6.6,0,0,0-.6.6v.6h-6.6a.6.6,0,0,0,0,1.2h6.6v19.8a.6.6,0,0,0,1.2,0v-21.6A.6.6,0,0,0,400.334,187.733Z" transform="translate(-364.934 -174.533)"/>
    <path id="Path_257" data-name="Path 257" class="cls-1" d="M273.067,260.2a.6.6,0,0,0,.6.6h2.4a.6.6,0,0,0,.6-.6v-3.6a.6.6,0,0,0-.6-.6h-2.4a.6.6,0,0,0-.6.6Zm1.2-3h1.2v2.4h-1.2Z" transform="translate(-253.867 -238)"/>
    <path id="Path_258" data-name="Path 258" class="cls-1" d="M6,315c0-.078-.034-7.8-3-7.8s-3,7.722-3,7.8a3.005,3.005,0,0,0,2.4,2.939V321a.6.6,0,0,0,1.2,0v-3.061A3.005,3.005,0,0,0,6,315Zm-3,1.8A1.8,1.8,0,0,1,1.2,315c0-2.989.8-6.6,1.8-6.6s1.8,3.611,1.8,6.6A1.8,1.8,0,0,1,3,316.8Z" transform="translate(0 -285.6)"/>
    <path id="Path_259" data-name="Path 259" class="cls-1" d="M359.6,189.267v-18a.6.6,0,1,0-1.2,0v18a.6.6,0,1,0,1.2,0Z" transform="translate(-333.201 -158.667)"/>
    <path id="Path_260" data-name="Path 260" class="cls-1" d="M273.667,158.4h2.4a.6.6,0,0,0,.6-.6v-3.6a.6.6,0,0,0-.6-.6h-2.4a.6.6,0,0,0-.6.6v3.6A.6.6,0,0,0,273.667,158.4Zm.6-3.6h1.2v2.4h-1.2Z" transform="translate(-253.867 -142.801)"/>
    <path id="Path_261" data-name="Path 261" class="cls-1" d="M.6,195.535a.6.6,0,0,0,.6-.6v-4.8H7.8a.6.6,0,1,0,0-1.2H1.2v-.6a.6.6,0,0,0-1.2,0v6.6A.6.6,0,0,0,.6,195.535Z" transform="translate(0 -174.535)"/>
  </g>
</svg>
