<svg xmlns="http://www.w3.org/2000/svg" viewBox="0 0 20 20">
  <defs>
    <style>
      .cls-1 {
        fill: #3c3c3c;
      }
    </style>
  </defs>
  <g id="school_email" transform="translate(0 0.001)">
    <g id="Group_1773" data-name="Group 1773" transform="translate(0 -0.001)">
      <g id="Group_1772" data-name="Group 1772" transform="translate(0 0)">
        <path id="Path_642" data-name="Path 642" class="cls-1" d="M20,8.624c0-.01,0-.02,0-.03s0-.007,0-.01-.005-.024-.009-.035v0c0-.012-.008-.023-.012-.035v0c0-.011-.009-.021-.015-.031l0-.006-.016-.027-.005-.009-.017-.023-.008-.01-.021-.024-.006-.006L11.628.121,11.611.105,11.6.094l-.02-.015L11.565.07,11.544.057,11.53.048,11.51.038,11.493.031l-.02-.007L11.455.017l-.019,0-.02,0-.021,0-.019,0L11.34,0h-.015l-.032,0L11.27,0l-.018,0-.024.006-.016,0L11.19.025l-.016.006-.021.01-.016.008-.02.012L11.1.069,11.08.086l-.01.008a.406.406,0,0,0-.032.029L.122,11.038h0l-.026.029-.007.009L.07,11.1l0,.008-.016.027,0,.006c-.005.01-.01.021-.015.031v0c0,.011-.009.023-.012.035v0c0,.012-.006.023-.009.035s0,.007,0,.01,0,.02,0,.031a.409.409,0,0,0,0,.042c0,.014,0,.028,0,.042s0,.02,0,.031l0,.01c0,.012.005.024.009.035v0c0,.012.008.023.012.035v0c0,.011.009.021.015.031l0,.006c0,.009.01.018.016.027l0,.008.017.023.007.01.021.024.006.006L7.66,19.166H5.833a.417.417,0,1,0,0,.833h8.333a.417.417,0,1,0,0-.833H9.672L19.878,8.96h0a.39.39,0,0,0,.026-.029l.007-.009L19.93,8.9l0-.008.016-.027,0-.006c.005-.01.01-.021.015-.031v0c0-.011.009-.023.012-.035v0c0-.012.006-.023.009-.035s0-.007,0-.011,0-.02,0-.03,0-.028,0-.042S20,8.637,20,8.624ZM1.423,10.916l9.494-9.494v9.494H1.423ZM14.334,9.082h4.244L8.666,18.993,1.423,11.749H8.25v3.694a.417.417,0,0,0,.833,0V11.749h2.251a.417.417,0,0,0,.417-.417V1.422l6.827,6.827H14.334a.417.417,0,1,0,0,.833Z" transform="translate(0 0.001)"/>
        <path id="Path_643" data-name="Path 643" class="cls-1" d="M316.409,211.189h-.25a.417.417,0,1,0,0,.833h.25a.417.417,0,0,0,0-.833Z" transform="translate(-303.408 -202.939)"/>
        <path id="Path_644" data-name="Path 644" class="cls-1" d="M211.608,418.829a.417.417,0,0,0-.417.417v.25a.417.417,0,1,0,.833,0v-.25A.417.417,0,0,0,211.608,418.829Z" transform="translate(-202.941 -402.469)"/>
      </g>
    </g>
  </g>
</svg>
