<svg xmlns="http://www.w3.org/2000/svg" viewBox="0 0 36 36">
  <defs>
    <style>
      .cls-1 {
        fill: #fff;
      }
    </style>
  </defs>
  <g id="sle" transform="translate(0 -2.2)">
    <g id="Group_1745" data-name="Group 1745" transform="translate(0 2.2)">
      <path id="Path_630" data-name="Path 630" class="cls-1" d="M123.946,2.345l-1.8.749a1.91,1.91,0,0,0-1.021,2.484l.463,1.127a11.515,11.515,0,0,0-2.366,2.387L118.1,8.624a1.865,1.865,0,0,0-1.44,0,1.889,1.889,0,0,0-1.021,1.031l-.749,1.816a1.907,1.907,0,0,0,1.021,2.484l1.653.69a.719.719,0,0,0,.948-.4.73.73,0,0,0-.4-.956l-1.653-.69a.441.441,0,0,1-.235-.571l.749-1.816a.436.436,0,0,1,.235-.237.426.426,0,0,1,.331,0l1.653.69a.722.722,0,0,0,.882-.267,10,10,0,0,1,2.8-2.825.742.742,0,0,0,.272-.89l-.683-1.668a.444.444,0,0,1,.235-.571l1.8-.749a.426.426,0,0,1,.331,0,.436.436,0,0,1,.235.237l.683,1.668a.715.715,0,0,0,.816.437,9.994,9.994,0,0,1,3.953,0,.735.735,0,0,0,.816-.437l.683-1.668a.434.434,0,0,1,.566-.237l1.8.756a.439.439,0,0,1,.235.571l-.683,1.668a.736.736,0,0,0,.265.89A10,10,0,0,1,137,10.4a.728.728,0,0,0,.882.274l1.653-.69a.426.426,0,0,1,.331,0,.436.436,0,0,1,.235.237l.742,1.816a.439.439,0,0,1-.235.571l-1.653.69a.732.732,0,0,0-.434.823,10.264,10.264,0,0,1,0,3.989.745.745,0,0,0,.434.823l1.653.69a.441.441,0,0,1,.235.571l-.749,1.816a.434.434,0,0,1-.566.237l-1.653-.69a.722.722,0,0,0-.882.267,10,10,0,0,1-2.8,2.825.742.742,0,0,0-.272.89l.683,1.668a.439.439,0,0,1-.235.571l-1.8.749a.426.426,0,0,1-.331,0,.436.436,0,0,1-.235-.237l-.683-1.668a.722.722,0,0,0-.948-.4.733.733,0,0,0-.4.956l.683,1.668a1.9,1.9,0,0,0,1.741,1.179,1.868,1.868,0,0,0,.72-.148l1.8-.749a1.889,1.889,0,0,0,1.021-1.031,1.914,1.914,0,0,0,0-1.453l-.463-1.127a11.515,11.515,0,0,0,2.366-2.387l1.117.467a1.878,1.878,0,0,0,2.461-1.031l.749-1.816a1.907,1.907,0,0,0-1.021-2.484l-1.117-.467a11.794,11.794,0,0,0,0-3.373l1.117-.467a1.889,1.889,0,0,0,1.021-1.031,1.914,1.914,0,0,0,0-1.453l-.742-1.816a1.889,1.889,0,0,0-1.021-1.031,1.865,1.865,0,0,0-1.44,0l-1.117.467A11.48,11.48,0,0,0,135.5,6.712l.463-1.127a1.914,1.914,0,0,0,0-1.453A1.889,1.889,0,0,0,134.938,3.1l-1.8-.756a1.878,1.878,0,0,0-2.461,1.031L130.214,4.5a11.482,11.482,0,0,0-3.343,0l-.463-1.127a1.889,1.889,0,0,0-1.021-1.031A1.865,1.865,0,0,0,123.946,2.345Z" transform="translate(-106.319 -2.2)"/>
      <path id="Path_631" data-name="Path 631" class="cls-1" d="M233.636,115.274a5.947,5.947,0,0,0-5.915-5.924h-.044a5.878,5.878,0,0,0-4.173,1.779,5.975,5.975,0,0,0-1.7,4.234.731.731,0,0,0,.727.727h.007a.723.723,0,0,0,.72-.741,4.511,4.511,0,0,1,1.286-3.2,4.4,4.4,0,0,1,3.145-1.342h.029a4.5,4.5,0,0,1,.029,9.008.723.723,0,0,0-.72.741.731.731,0,0,0,.727.727h.007A5.95,5.95,0,0,0,233.636,115.274Z" transform="translate(-205.502 -101.406)"/>
      <path id="Path_632" data-name="Path 632" class="cls-1" d="M9.941,219.344H11.36a1.581,1.581,0,0,0,1.572-1.587v-.734a8.291,8.291,0,0,0,2.013-.845l.514.519a1.561,1.561,0,0,0,1.11.467,1.532,1.532,0,0,0,1.11-.467l1-1.008a1.59,1.59,0,0,0,.463-1.12,1.559,1.559,0,0,0-.463-1.12l-.514-.519A8.45,8.45,0,0,0,19,210.9h.727a1.581,1.581,0,0,0,1.572-1.587v-1.431a1.581,1.581,0,0,0-1.572-1.587H19a8.45,8.45,0,0,0-.838-2.032l.514-.519a1.59,1.59,0,0,0,.463-1.12,1.559,1.559,0,0,0-.463-1.12l-1-1.008a1.561,1.561,0,0,0-1.11-.467,1.531,1.531,0,0,0-1.109.467l-.514.519a8.291,8.291,0,0,0-2.013-.845v-.734a1.581,1.581,0,0,0-1.572-1.587H9.941a1.581,1.581,0,0,0-1.572,1.587v.734a8.291,8.291,0,0,0-2.013.845l-.514-.519a1.561,1.561,0,0,0-1.11-.467,1.531,1.531,0,0,0-1.11.467l-1,1.008a1.6,1.6,0,0,0,0,2.239l.514.519a8.45,8.45,0,0,0-.838,2.032H1.572A1.581,1.581,0,0,0,0,207.882v1.431A1.581,1.581,0,0,0,1.572,210.9H2.3a8.45,8.45,0,0,0,.838,2.032l-.514.519a1.6,1.6,0,0,0,0,2.239l1,1.008a1.561,1.561,0,0,0,1.11.467,1.532,1.532,0,0,0,1.11-.467l.514-.519a8.291,8.291,0,0,0,2.013.845v.734A1.591,1.591,0,0,0,9.941,219.344Zm-3.284-4.7a.742.742,0,0,0-.4-.126.72.72,0,0,0-.514.215l-.918.927a.107.107,0,0,1-.162,0l-1-1.008a.117.117,0,0,1,0-.163l.918-.927a.735.735,0,0,0,.088-.927,7.186,7.186,0,0,1-1.073-2.61.733.733,0,0,0-.713-.593H1.58a.117.117,0,0,1-.118-.119v-1.431a.117.117,0,0,1,.118-.119h1.3a.726.726,0,0,0,.713-.593,7.186,7.186,0,0,1,1.073-2.61.745.745,0,0,0-.088-.927l-.918-.927a.117.117,0,0,1,0-.163l1-1.008a.107.107,0,0,1,.162,0l.918.942a.719.719,0,0,0,.918.089,7.052,7.052,0,0,1,2.586-1.082.736.736,0,0,0,.588-.719v-1.312a.117.117,0,0,1,.118-.119h1.418a.117.117,0,0,1,.118.119v1.312a.729.729,0,0,0,.588.719,7.052,7.052,0,0,1,2.586,1.082.728.728,0,0,0,.918-.089l.918-.927a.107.107,0,0,1,.162,0l1,1.008a.109.109,0,0,1,0,.163l-.918.927a.735.735,0,0,0-.088.927,7.186,7.186,0,0,1,1.073,2.61.733.733,0,0,0,.713.593h1.3a.117.117,0,0,1,.118.119v1.431a.117.117,0,0,1-.118.119h-1.3a.726.726,0,0,0-.713.593,7.186,7.186,0,0,1-1.073,2.61.745.745,0,0,0,.088.927l.918.927a.109.109,0,0,1,0,.163l-1,1.008a.107.107,0,0,1-.162,0l-.918-.927a.719.719,0,0,0-.918-.089,7.051,7.051,0,0,1-2.586,1.082.736.736,0,0,0-.588.719v1.312a.117.117,0,0,1-.118.119H9.949a.117.117,0,0,1-.118-.119V216.46a.729.729,0,0,0-.588-.719A7.342,7.342,0,0,1,6.657,214.643Z" transform="translate(0 -183.344)"/>
      <path id="Path_633" data-name="Path 633" class="cls-1" d="M94.834,288.51a4.317,4.317,0,1,0-4.313,4.36A4.347,4.347,0,0,0,94.834,288.51Zm-7.179,0A2.866,2.866,0,1,1,90.52,291.4,2.882,2.882,0,0,1,87.655,288.51Z" transform="translate(-79.866 -263.245)"/>
    </g>
  </g>
</svg>
