<?xml version="1.0" encoding="UTF-8"?>
<svg width="844px" height="834px" viewBox="0 0 844 834" version="1.1" xmlns="http://www.w3.org/2000/svg" xmlns:xlink="http://www.w3.org/1999/xlink">
    <!-- Generator: Sketch 46.1 (44463) - http://www.bohemiancoding.com/sketch -->
    <title>smart-metering</title>
    <desc>Created with Sketch.</desc>
    <defs></defs>
    <g id="Page-1" stroke="none" stroke-width="1" fill="none" fill-rule="evenodd">
        <g id="smart-metering" fill-rule="nonzero" fill="#FFFFFF">
            <g id="Layer_7_xA0_Image_1_" transform="translate(-1.000000, 0.000000)">
                <path d="M422.621622,0.333333333 C655.054054,0.333333333 844.243243,185.666667 844.243243,416.333333 C844.243243,647 655.054054,833.666667 421.27027,833.666667 C187.486486,833.666667 -0.351351351,647 1,415 C1,185.666667 190.189189,0.333333333 422.621622,0.333333333 Z M422.621622,41.6666667 C213.162162,37.6666667 37.4864865,213.666667 41.5405405,425.666667 C45.5945946,625.666667 215.864865,792.333333 422.621622,792.333333 C632.081081,792.333333 803.702703,624.333333 803.702703,416.333333 C803.702703,209.666667 632.081081,40.3333333 422.621622,41.6666667 Z" id="Shape"></path>
                <path d="M652.351351,425.666667 C652.351351,459 652.351351,492.333333 652.351351,524.333333 C652.351351,577.666667 609.108108,620.333333 555.054054,620.333333 C490.189189,620.333333 425.324324,620.333333 360.459459,620.333333 C309.108108,620.333333 268.567568,581.666667 265.864865,531 C264.513514,511 264.513514,491 265.864865,472.333333 C265.864865,464.333333 264.513514,460.333333 256.405405,457.666667 C213.162162,441.666667 191.540541,409.666667 191.540541,364.333333 C191.540541,351 192.891892,336.333333 191.540541,323 C190.189189,311 194.243243,305.666667 206.405405,308.333333 C222.621622,311 226.675676,304.333333 225.324324,289.666667 C223.972973,271 225.324324,253.666667 225.324324,235 C225.324324,223 229.378378,213.666667 244.243243,213.666667 C257.756757,213.666667 260.459459,223 260.459459,235 C260.459459,255 260.459459,275 260.459459,296.333333 C260.459459,305.666667 261.810811,309.666667 272.621622,309.666667 C318.567568,311 318.567568,311 318.567568,265.666667 C318.567568,255 318.567568,245.666667 318.567568,235 C318.567568,223 322.621622,215 334.783784,213.666667 C348.297297,213.666667 352.351351,223 352.351351,233.666667 C353.702703,253.666667 353.702703,273.666667 352.351351,292.333333 C351,305.666667 356.405405,309.666667 368.567568,308.333333 C383.432432,305.666667 387.486486,312.333333 386.135135,325.666667 C384.783784,339 386.135135,352.333333 386.135135,365.666667 C386.135135,412.333333 359.108108,448.333333 314.513514,460.333333 C303.702703,463 299.648649,468.333333 301,479 C302.351351,496.333333 301,513.666667 301,529.666667 C302.351351,564.333333 326.675676,587 361.810811,587 C425.324324,587 488.837838,587 553.702703,587 C591.540541,587 617.216216,560.333333 617.216216,523 C617.216216,459 617.216216,393.666667 617.216216,329.666667 C617.216216,317.666667 614.513514,307 634.783784,307 C656.405405,307 651,319 651,331 C652.351351,361.666667 652.351351,393.666667 652.351351,425.666667 Z" id="Shape"></path>
                <path d="M565.864865,336.333333 C525.324324,400.333333 487.486486,461.666667 449.648649,521.666667 C448.297297,521.666667 446.945946,520.333333 446.945946,520.333333 C456.405405,491 465.864865,463 475.324324,433.666667 C480.72973,417.666667 484.783784,401.666667 491.540541,385.666667 C495.594595,376.333333 494.243243,371 482.081081,372.333333 C479.378378,372.333333 478.027027,372.333333 475.324324,372.333333 C436.135135,372.333333 436.135135,372.333333 448.297297,336.333333 C460.459459,299 473.972973,261.666667 484.783784,224.333333 C487.486486,215 491.540541,211 501,211 C523.972973,212.333333 546.945946,211 572.621622,211 C548.297297,253.666667 525.324324,293.666667 501,335 C523.972973,336.333333 542.891892,336.333333 565.864865,336.333333 Z" id="Shape"></path>
            </g>
        </g>
    </g>
</svg>