<svg xmlns="http://www.w3.org/2000/svg" viewBox="0 0 36 36">
  <defs>
    <style>
      .cls-1 {
        fill: #ffbb3c;
      }
    </style>
  </defs>
  <g id="solar" transform="translate(-2.052)">
    <g id="Group_2291" data-name="Group 2291" transform="translate(2.052)">
      <path id="Path_2260" data-name="Path 2260" class="cls-1" d="M37.715,10.5,35.5,9.238a.609.609,0,0,1-.226-.835L36.555,6.21a.666.666,0,0,0,0-.669.677.677,0,0,0-.584-.334H33.419a.614.614,0,0,1-.436-.179A.6.6,0,0,1,32.8,4.6V2.064a.669.669,0,0,0-.337-.579.681.681,0,0,0-.674,0l-2.21,1.266a.619.619,0,0,1-.842-.224L27.463.334a.677.677,0,0,0-1.167,0L25.02,2.527a.619.619,0,0,1-.842.224l-2.21-1.266a.681.681,0,0,0-.674,0,.67.67,0,0,0-.337.579V4.6a.6.6,0,0,1-.181.432.615.615,0,0,1-.436.179H17.788a.677.677,0,0,0-.584.334.666.666,0,0,0,0,.669L18.481,8.4a.609.609,0,0,1-.226.835L16.045,10.5a.664.664,0,0,0-.153,1.036H9.431a.888.888,0,0,0-.809.519L7.033,15.571h0L2.13,26.4a.87.87,0,0,0,.065.838.886.886,0,0,0,.745.4H15.517v1.882a.532.532,0,0,0,1.064,0V27.642h4.537v7.3H16.581V33.219a.532.532,0,0,0-1.064,0v1.725H12.6A.528.528,0,1,0,12.6,36H25.1a.528.528,0,1,0,0-1.056H22.182v-7.3H34.76a.885.885,0,0,0,.745-.4.87.87,0,0,0,.065-.838l-2.787-6.158a.523.523,0,0,0,.02-.143V17.569a.6.6,0,0,1,.181-.432.615.615,0,0,1,.436-.179h2.552a.677.677,0,0,0,.584-.334.666.666,0,0,0,0-.669l-1.276-2.193a.609.609,0,0,1,.226-.835l2.21-1.266a.666.666,0,0,0,0-1.158ZM9.545,12.6h4.243L13,15.249H8.345ZM7.867,16.3h4.822l-1.176,3.969H6.071ZM9.641,26.587H3.213l2.38-5.258H11.2Zm8.676,0H10.751l1.559-5.258h6.008Zm0-6.314h-5.7L13.8,16.3h4.519Zm0-5.024H14.111L14.9,12.6h3.42ZM21.65,26.587H19.382V21.329H25.39l1.559,5.258ZM23.9,16.3l1.176,3.969h-5.7V16.3H23.9Zm-4.519-1.056V12.6H22.8l.786,2.653Zm5.315,0L23.911,12.6h4.243l1.2,2.653ZM29.832,16.3l1.8,3.969H26.187L25.01,16.3h4.822Zm4.654,10.282H28.058L26.5,21.329h5.607Zm.486-14.573a1.66,1.66,0,0,0-.615,2.277L35.3,15.9H33.419a1.676,1.676,0,0,0-1.188.488,1.649,1.649,0,0,0-.492,1.179v.369l-.906-2A6.243,6.243,0,0,0,26.88,4.813c-.213,0-.429.011-.64.032a.528.528,0,1,0,.107,1.05c.176-.018.355-.027.533-.027a5.188,5.188,0,0,1,3.5,9.065l-1.3-2.875a.888.888,0,0,0-.809-.519H21.662c-.014-.157-.022-.316-.022-.474A5.134,5.134,0,0,1,23.258,7.31a.525.525,0,0,0,.017-.746.535.535,0,0,0-.752-.017,6.176,6.176,0,0,0-1.947,4.519c0,.158.007.316.019.474H17.956l-.037-.024-.757-.434,1.625-.931A1.66,1.66,0,0,0,19.4,7.875l-.938-1.612H20.34a1.676,1.676,0,0,0,1.188-.488A1.649,1.649,0,0,0,22.021,4.6V2.734l1.625.931a1.688,1.688,0,0,0,2.3-.61l.938-1.612.938,1.612a1.688,1.688,0,0,0,2.3.61l1.625-.931V4.6a1.649,1.649,0,0,0,.492,1.179,1.676,1.676,0,0,0,1.188.488H35.3l-.938,1.612a1.66,1.66,0,0,0,.615,2.277l1.625.931Z" transform="translate(-2.052)"/>
    </g>
  </g>
</svg>
