<svg xmlns="http://www.w3.org/2000/svg" viewBox="0 0 77 36">
  <defs>
    <style>
      .cls-1 {
        fill: #00bcd4;
      }
    </style>
  </defs>
  <g id="teacher" transform="translate(-436 -451)">
    <g id="professor" transform="translate(436 451)">
      <g id="Group_1734" data-name="Group 1734">
        <g id="Group_1733" data-name="Group 1733">
          <path id="Path_600" data-name="Path 600" class="cls-1" d="M42.982,412.14a.593.593,0,0,0,.239-.05c1.914-.833,5.146-1.267,9.61-1.29l.433.868a.6.6,0,0,0,1.073-.536l-.6-1.2a.6.6,0,0,0-.537-.332c-4.889,0-8.311.455-10.46,1.39a.6.6,0,0,0,.24,1.151Z" transform="translate(-39.402 -380.799)"/>
          <path id="Path_601" data-name="Path 601" class="cls-1" d="M34.8,333.866H33.6v-3a.6.6,0,0,0-.176-.424l-3.6-3.6a1.773,1.773,0,0,0,.181-.772,1.8,1.8,0,1,0-1.8,1.8,1.778,1.778,0,0,0,.771-.18l3.429,3.428v2.752H1.2a1.2,1.2,0,0,0-1.2,1.2v1.8a.6.6,0,0,0,1.2,0v-1.8H34.8v1.8a.6.6,0,0,0,1.2,0v-1.8A1.2,1.2,0,0,0,34.8,333.866Zm-6.6-7.2a.6.6,0,1,1,.6-.6A.6.6,0,0,1,28.2,326.666Z" transform="translate(0 -301.466)"/>
          <path id="Path_602" data-name="Path 602" class="cls-1" d="M103.766,17.947a43.818,43.818,0,0,0,2.935,6.386l.095.143c.77,1.168,2.059,3.124,6.4,3.124s5.634-1.955,6.4-3.124l.095-.143a43.893,43.893,0,0,0,2.935-6.386A1.8,1.8,0,0,0,124,16.2V13.8a1.8,1.8,0,0,0-1.2-1.7V9c0-2.369-1.247-6.745-5.861-7.167a1.364,1.364,0,0,0-.207-.68C116.142.2,114.486,0,113.2,0c-10.676,0-10.8,10.1-10.8,10.2a.6.6,0,0,0,.6.6h0a.6.6,0,0,0,.6-.6c0-.367.136-9,9.6-9,1.7,0,2.377.367,2.511.584.019.031.07.113-.048.347A.6.6,0,0,0,116.2,3c5.32,0,5.4,5.756,5.4,6v3.6a.6.6,0,0,0,.6.6.6.6,0,0,1,.6.6v2.4a.6.6,0,0,1-.6.6.6.6,0,0,0-.562.389,47.711,47.711,0,0,1-2.937,6.478l-.1.149c-.719,1.091-1.7,2.584-5.4,2.584s-4.684-1.493-5.4-2.584l-.1-.149a47.826,47.826,0,0,1-2.938-6.478.6.6,0,0,0-.562-.389.6.6,0,0,1-.6-.6V13.8a.6.6,0,0,1,.17-.418,1.659,1.659,0,0,0,1.409,1l2.053,1.54A2.4,2.4,0,0,0,109.6,18h1.2a2.4,2.4,0,0,0,2.4-2.4,2.4,2.4,0,0,0,2.4,2.4h1.2a2.4,2.4,0,0,0,2.367-2.076l2.193-1.644a.6.6,0,1,0-.72-.96l-1.529,1.147A1.8,1.8,0,0,0,117.4,13.2H115a1.8,1.8,0,0,0-1.8,1.8,1.8,1.8,0,0,0-1.8-1.8H109a1.8,1.8,0,0,0-1.711,1.267l-1.145-.859a16.358,16.358,0,0,0,1.021-4.014c1.891-.034,7.363-.265,9.8-1.784a10.165,10.165,0,0,0,2.413,4.013.6.6,0,1,0,.848-.848C120.2,10.954,118,8.727,118,6.6a.6.6,0,0,0-1.114-.309C116.012,7.746,110.345,8.4,106.6,8.4a.6.6,0,0,0-.6.6,13.967,13.967,0,0,1-.95,4.116.588.588,0,0,1-.25-.516.6.6,0,0,0-.6-.6,1.8,1.8,0,0,0-1.8,1.8v2.4A1.8,1.8,0,0,0,103.766,17.947ZM114.4,15a.6.6,0,0,1,.6-.6h2.4a.6.6,0,0,1,.6.6v.6a1.2,1.2,0,0,1-1.2,1.2h-1.2a1.2,1.2,0,0,1-1.2-1.2V15Zm-6,0a.6.6,0,0,1,.6-.6h2.4a.6.6,0,0,1,.6.6v.6a1.2,1.2,0,0,1-1.2,1.2h-1.2a1.2,1.2,0,0,1-1.2-1.2Z" transform="translate(-95.2)"/>
          <path id="Path_604" data-name="Path 604" class="cls-1" d="M299.862,409.935a.6.6,0,0,0-.533.328l-.6,1.175a.6.6,0,0,0,1.069.546l.433-.848a34.841,34.841,0,0,1,7.856.73.6.6,0,0,0,.286-1.165A36.123,36.123,0,0,0,299.862,409.935Z" transform="translate(-277.664 -381.11)"/>
          <path id="Path_605" data-name="Path 605" class="cls-1" d="M247.467,410.2v1.2a.6.6,0,0,0,1.2,0v-1.2a.6.6,0,0,0-1.2,0Z" transform="translate(-230.067 -380.8)"/>
        </g>
      </g>
    </g>
    <g id="mother" transform="translate(476.998 451)">
      <g id="Group_1736" data-name="Group 1736" transform="translate(0.002)">
        <g id="Group_1735" data-name="Group 1735" transform="translate(0)">
          <path id="Path_607" data-name="Path 607" class="cls-1" d="M120.067,275.467a.6.6,0,0,0,.6-.6v-1.2a.6.6,0,0,0-1.2,0v1.2A.6.6,0,0,0,120.067,275.467Z" transform="translate(-111.067 -253.867)"/>
          <path id="Path_608" data-name="Path 608" class="cls-1" d="M376.067,273.067a.6.6,0,0,0-.6.6v1.2a.6.6,0,0,0,1.2,0v-1.2A.6.6,0,0,0,376.067,273.067Z" transform="translate(-349.067 -253.867)"/>
          <path id="Path_609" data-name="Path 609" class="cls-1" d="M138.755,411.254a.633.633,0,0,0-.049-.121c-.011-.021-.014-.045-.027-.065s-.016-.014-.023-.023a.64.64,0,0,0-.088-.088.527.527,0,0,0-.092-.071.346.346,0,0,0-.028-.022l-2.4-1.2a.6.6,0,0,0-.6.038l-3.6,2.4a.6.6,0,0,0-.267.5v2.128a3.948,3.948,0,0,1-2.4.872,3.994,3.994,0,0,1-2.4-.874V412.6a.6.6,0,0,0-.267-.5l-3.6-2.4a.6.6,0,0,0-.6-.038l-2.4,1.2c-.011.005-.017.015-.026.021a.53.53,0,0,0-.1.076.574.574,0,0,0-.083.083c-.007.01-.018.015-.025.025a.54.54,0,0,0-.028.07.6.6,0,0,0-.047.115.542.542,0,0,0-.014.112.593.593,0,0,0,0,.113.556.556,0,0,0,.032.12.573.573,0,0,0,.019.072c.005.011.016.017.022.028a.56.56,0,0,0,.074.095.649.649,0,0,0,.083.084c.01.007.015.018.025.025l3.6,2.4a.6.6,0,1,0,.666-1l-2.74-1.826,1.164-.582,3.043,2.029V415a.6.6,0,0,0,.176.424,4.949,4.949,0,0,0,6.848,0,.6.6,0,0,0,.176-.424v-2.079l3.044-2.029,1.163.582-2.74,1.826a.6.6,0,0,0,.666,1l3.6-2.4c.01-.007.014-.017.023-.024a.58.58,0,0,0,.088-.088.635.635,0,0,0,.07-.091c.006-.011.017-.017.023-.029a.56.56,0,0,0,.02-.076.576.576,0,0,0,.031-.113.569.569,0,0,0,0-.119A.482.482,0,0,0,138.755,411.254Z" transform="translate(-111.18 -380.801)"/>
          <path id="Path_610" data-name="Path 610" class="cls-1" d="M51.612,28.769a.617.617,0,0,0,.19.031.6.6,0,0,0,.569-.41A38.187,38.187,0,0,0,54.2,18V12.6c0-9.422,6.2-11.4,11.4-11.4,1.772,0,5.459,0,6.022.782.023.032.058.08.009.228a.6.6,0,0,0,.667.781,2.413,2.413,0,0,1,2.052.587C75.962,4.943,77,8.484,77,12.6V18a32.975,32.975,0,0,0,1.838,10.411.6.6,0,1,0,1.124-.421A32.338,32.338,0,0,1,78.2,18V12.6c0-3.545-.808-8.017-3.074-9.937a3.664,3.664,0,0,0-2.309-.907A1.381,1.381,0,0,0,72.6,1.28C71.744.1,68.925,0,65.6,0,57.477,0,53,4.475,53,12.6V18a37.726,37.726,0,0,1-1.769,10.01A.6.6,0,0,0,51.612,28.769Z" transform="translate(-47.602)"/>
          <path id="Path_611" data-name="Path 611" class="cls-1" d="M6.457,426.682C1.4,427.947.086,431.714.033,431.874a.6.6,0,1,0,1.138.379,7.7,7.7,0,0,1,5.576-4.408.6.6,0,1,0-.29-1.164Z" transform="translate(-0.002 -396.664)"/>
          <path id="Path_613" data-name="Path 613" class="cls-1" d="M416.768,431.871c-.053-.16-1.362-3.927-6.424-5.192a.6.6,0,1,0-.29,1.164c4.4,1.1,5.531,4.276,5.576,4.408a.6.6,0,1,0,1.138-.379Z" transform="translate(-380.8 -396.661)"/>
          <path id="Path_616" data-name="Path 616" class="cls-1" d="M138.428,108.518c-.6-.453-2.161-1.9-2.161-3.121a.6.6,0,1,0-1.2,0c0,1.735,1.712,3.322,2.392,3.883a28.884,28.884,0,0,1-2.329,7.849c-.538,1.077-3.386,4.468-6.063,4.468s-5.525-3.391-6.063-4.468c-.6-1.2-2.337-5.863-2.337-8.132v-1.809c2.379-.056,11.062-.487,15.36-3.711a.6.6,0,1,0-.72-.96c-4.583,3.437-15.134,3.48-15.24,3.48a.6.6,0,0,0-.6.6V109c0,2.575,1.889,7.521,2.463,8.668.73,1.46,3.926,5.132,7.137,5.132s6.407-3.671,7.137-5.132c.574-1.147,2.463-6.093,2.463-8.668A.6.6,0,0,0,138.428,108.518Z" transform="translate(-111.067 -95.197)"/>
        </g>
      </g>
    </g>
  </g>
</svg>
