<svg xmlns="http://www.w3.org/2000/svg" viewBox="0 0 14 24">
  <defs>
    <style>
      .cls-1 {
        fill: #fff;
      }
    </style>
  </defs>
  <g id="temperature" transform="translate(-64.708 0)">
    <path id="Path_8108" data-name="Path 8108" class="cls-1" d="M78.708,3.054V4.077h-4.05V3.054Zm-1.7,2.229H74.658V6.306H77.01ZM74.658,8.535h4.05V7.512h-4.05ZM77.01,9.742H74.658v1.023H77.01Zm-2.351,3.252h4.05V11.971h-4.05Zm.631,5.828a5.292,5.292,0,0,1-10.582,0,5.134,5.134,0,0,1,2.613-4.462V2.621a2.679,2.679,0,0,1,5.356,0V14.36A5.132,5.132,0,0,1,75.29,18.822Zm-1.045,0a4.128,4.128,0,0,0-2.327-3.7l-.286-.142V2.621a1.633,1.633,0,0,0-3.266,0V14.977l-.286.142a4.129,4.129,0,0,0-2.327,3.7,4.247,4.247,0,0,0,8.491,0Zm-.871,0a3.376,3.376,0,1,1-4.244-3.188l.194-.051V9.275h1.35v6.308l.194.051A3.315,3.315,0,0,1,73.374,18.822Zm-3.208-2.2a.676.676,0,0,0-.806-.5,2.729,2.729,0,0,0-2.173,2.663.674.674,0,0,0,1.348,0,1.426,1.426,0,0,1,1.122-1.376A.663.663,0,0,0,70.166,16.62Z" transform="translate(0)"/>
  </g>
</svg>
