<svg width="269" height="337" viewBox="0 0 269 337" fill="none" xmlns="http://www.w3.org/2000/svg">
<rect width="269" height="337" fill="white"/>
<rect x="35" y="262" width="164" height="20" fill="#000066"/>
<rect x="32" y="246" width="167" height="20" fill="#000099"/>
<rect x="32" y="231" width="167" height="18" fill="#0000CC"/>
<rect x="38" y="214" width="157" height="19" fill="#0000FF"/>
<rect x="36" y="226" width="163" height="7" fill="#0000FF"/>
<rect x="50" y="197" width="132" height="19" fill="#0080FF"/>
<rect x="44" y="206" width="145" height="10" fill="#0080FF"/>
<rect x="67" y="184" width="99" height="15" fill="#00FFFF"/>
<rect x="57" y="191" width="119" height="8" fill="#00FFFF"/>
<rect x="81" y="167" width="72" height="17" fill="#00FF7F"/>
<rect x="78" y="180" width="79" height="4" fill="#00FF7F"/>
<rect x="81" y="134" width="68" height="19" fill="#7FFF00"/>
<rect x="81" y="118" width="68" height="19" fill="#FFFF00"/>
<rect x="81" y="99" width="68" height="21" fill="#FF8000"/>
<rect x="81" y="86" width="68" height="18" fill="#FF0000"/>
<rect x="81" y="69" width="68" height="19" fill="#CC0000"/>
<rect x="81" y="52" width="68" height="19" fill="#990000"/>
<rect x="81" y="35" width="68" height="20" fill="#660000"/>
<rect x="81" y="20" width="68" height="18" fill="#330000"/>
<rect x="86" y="13" width="63" height="11" fill="#330000"/>
<rect x="92" y="7" width="51" height="9" fill="#330000"/>
<rect x="81" y="151" width="68" height="16" fill="#00FF00"/>
<rect x="44" y="281" width="144" height="17" fill="#000033"/>
<rect x="41" y="281" width="153" height="11" fill="#000033"/>
<rect x="56" y="298" width="117" height="14" fill="#000033"/>
<rect x="49" y="290" width="117" height="15" fill="#000033"/>
<rect x="55" y="295" width="116" height="15" fill="#000033"/>
<rect x="88" y="298" width="89" height="11" fill="#000033"/>
<rect x="50" y="290" width="133" height="16" fill="#000033"/>
<rect x="64" y="304" width="105" height="14" fill="#000033"/>
<rect x="70" y="302" width="93" height="20" fill="#000033"/>
<rect x="78" y="314" width="78" height="13" fill="#000033"/>
<rect x="92" y="312" width="49" height="19" fill="#000033"/>
<path d="M14.4829 40H6.04932V38.1738L9.93408 34.0898C10.8914 32.9997 11.3701 32.1336 11.3701 31.4917C11.3701 30.9715 11.2567 30.5758 11.0298 30.3047C10.8029 30.0335 10.4736 29.8979 10.042 29.8979C9.61589 29.8979 9.27002 30.0806 9.00439 30.4458C8.73877 30.8055 8.60596 31.2565 8.60596 31.7988H5.80029C5.80029 31.0573 5.98568 30.3739 6.35645 29.7485C6.72721 29.1177 7.24186 28.6252 7.90039 28.271C8.55892 27.9168 9.29492 27.7397 10.1084 27.7397C11.4144 27.7397 12.4188 28.0413 13.1216 28.6445C13.8299 29.2477 14.1841 30.1138 14.1841 31.2427C14.1841 31.7186 14.0955 32.1834 13.9185 32.6372C13.7414 33.0854 13.4647 33.5586 13.0884 34.0566C12.7176 34.5492 12.1172 35.2104 11.2871 36.0405L9.72656 37.8418H14.4829V40ZM22.6509 27.7397V29.9395H22.5264C21.4805 29.9395 20.62 30.1912 19.9448 30.6948C19.2752 31.1929 18.863 31.8874 18.708 32.7783C19.3389 32.1585 20.1357 31.8486 21.0986 31.8486C22.1445 31.8486 22.9774 32.2305 23.5972 32.9941C24.217 33.7578 24.5269 34.7594 24.5269 35.999C24.5269 36.7682 24.3442 37.4738 23.979 38.1157C23.6193 38.7576 23.113 39.2612 22.46 39.6265C21.8125 39.9862 21.0931 40.166 20.3018 40.166C19.444 40.166 18.6776 39.9723 18.0024 39.585C17.3273 39.1921 16.8016 38.6331 16.4253 37.9082C16.049 37.1833 15.8553 36.3477 15.8442 35.4014V34.2808C15.8442 33.0356 16.1099 31.9178 16.6411 30.9272C17.1779 29.9312 17.9416 29.1509 18.9321 28.5864C19.9227 28.022 21.0212 27.7397 22.2275 27.7397H22.6509ZM20.1274 33.9902C19.7567 33.9902 19.4468 34.076 19.1978 34.2476C18.9487 34.4191 18.7633 34.6294 18.6416 34.8784V35.7168C18.6416 37.2441 19.1701 38.0078 20.2271 38.0078C20.6532 38.0078 21.0073 37.8169 21.2896 37.4351C21.5773 37.0532 21.7212 36.5745 21.7212 35.999C21.7212 35.4069 21.5745 34.9255 21.2812 34.5547C20.9935 34.1784 20.6089 33.9902 20.1274 33.9902Z" fill="black"/>
<path d="M11.25 162H8.44434V153.068L5.68848 153.874V151.749L10.9927 149.914H11.25V162ZM23.2944 151.408L18.7788 162H15.8237L20.3477 152.072H14.5869V149.914H23.2944V151.408Z" fill="black"/>
<path d="M11.25 242H8.44434V233.068L5.68848 233.874V231.749L10.9927 229.914H11.25V242ZM22.2817 237.277H23.5103V239.435H22.2817V242H19.4844V239.435H14.811L14.645 237.725L19.4844 229.939V229.914H22.2817V237.277ZM17.3096 237.277H19.4844V233.558L19.3101 233.84L17.3096 237.277Z" fill="black"/>
<path d="M13.4829 99H5.04932V97.1738L8.93408 93.0898C9.89144 91.9997 10.3701 91.1336 10.3701 90.4917C10.3701 89.9715 10.2567 89.5758 10.0298 89.3047C9.8029 89.0335 9.47363 88.8979 9.04199 88.8979C8.61589 88.8979 8.27002 89.0806 8.00439 89.4458C7.73877 89.8055 7.60596 90.2565 7.60596 90.7988H4.80029C4.80029 90.0573 4.98568 89.3739 5.35645 88.7485C5.72721 88.1177 6.24186 87.6252 6.90039 87.271C7.55892 86.9168 8.29492 86.7397 9.1084 86.7397C10.4144 86.7397 11.4188 87.0413 12.1216 87.6445C12.8299 88.2477 13.1841 89.1138 13.1841 90.2427C13.1841 90.7186 13.0955 91.1834 12.9185 91.6372C12.7414 92.0854 12.4647 92.5586 12.0884 93.0566C11.7176 93.5492 11.1172 94.2104 10.2871 95.0405L8.72656 96.8418H13.4829V99ZM23.3276 99H14.894V97.1738L18.7788 93.0898C19.7362 91.9997 20.2148 91.1336 20.2148 90.4917C20.2148 89.9715 20.1014 89.5758 19.8745 89.3047C19.6476 89.0335 19.3184 88.8979 18.8867 88.8979C18.4606 88.8979 18.1147 89.0806 17.8491 89.4458C17.5835 89.8055 17.4507 90.2565 17.4507 90.7988H14.645C14.645 90.0573 14.8304 89.3739 15.2012 88.7485C15.5719 88.1177 16.0866 87.6252 16.7451 87.271C17.4036 86.9168 18.1396 86.7397 18.9531 86.7397C20.2591 86.7397 21.2635 87.0413 21.9663 87.6445C22.6746 88.2477 23.0288 89.1138 23.0288 90.2427C23.0288 90.7186 22.9403 91.1834 22.7632 91.6372C22.5861 92.0854 22.3094 92.5586 21.9331 93.0566C21.5623 93.5492 20.9619 94.2104 20.1318 95.0405L18.5713 96.8418H23.3276V99Z" fill="black"/>
<path d="M16.4058 299.327C15.8026 299.869 15.1274 300.14 14.3804 300.14C13.2847 300.14 12.4159 299.769 11.7739 299.028C11.132 298.286 10.811 297.296 10.811 296.056C10.811 295.281 10.9909 294.562 11.3506 293.898C11.7103 293.234 12.2139 292.708 12.8613 292.321C13.5143 291.933 14.2337 291.74 15.0195 291.74C15.8164 291.74 16.5358 291.942 17.1777 292.346C17.8252 292.744 18.3288 293.311 18.6885 294.047C19.0482 294.778 19.2336 295.622 19.2446 296.579V297.65C19.2446 298.984 18.9818 300.14 18.4561 301.12C17.9359 302.099 17.1916 302.852 16.2231 303.377C15.2547 303.903 14.1258 304.166 12.8364 304.166H12.6621V301.925L13.1934 301.917C15.1191 301.822 16.1899 300.959 16.4058 299.327ZM15.1357 298.123C15.7445 298.123 16.1816 297.86 16.4473 297.334V296.172C16.4473 295.398 16.3172 294.825 16.0571 294.454C15.797 294.083 15.4456 293.898 15.0029 293.898C14.61 293.898 14.2808 294.108 14.0151 294.529C13.7495 294.949 13.6167 295.458 13.6167 296.056C13.6167 296.687 13.7523 297.191 14.0234 297.567C14.2946 297.938 14.6654 298.123 15.1357 298.123Z" fill="black"/>
<path fill-rule="evenodd" clip-rule="evenodd" d="M98.5719 2.63066L133.317 2.55725L137.572 4.59928C139.912 5.7204 143.053 7.74241 144.549 9.08374C146.046 10.4318 148.038 12.9543 148.981 14.7027C149.924 16.4444 151.009 19.7477 151.399 22.0433C151.832 24.6125 152.108 54.6024 152.115 100.288C152.13 157.732 152.328 174.722 153.009 175.976C153.498 176.877 156.654 179.093 160.135 180.981C163.574 182.843 168.836 186.193 171.835 188.429C174.835 190.658 179.834 195.342 182.954 198.839C186.074 202.336 190.286 208.015 192.314 211.465C194.342 214.915 196.98 220.14 198.178 223.077C199.376 226.013 200.993 231.345 201.759 234.922C202.815 239.813 203.163 244.118 203.17 252.272C203.17 258.238 202.837 264.918 202.418 267.12C202.007 269.323 200.851 273.674 199.866 276.797C198.873 279.92 196.263 285.772 194.072 289.81C191.874 293.847 188.18 299.553 185.854 302.489C183.528 305.425 179.855 309.429 177.685 311.391C175.515 313.353 171.984 316.243 169.843 317.804C167.701 319.372 163.071 322.202 159.561 324.097C156.051 325.992 151.42 328.161 149.279 328.922C147.138 329.683 142.188 331.037 138.288 331.938C134.388 332.839 129.843 333.86 128.184 334.214C126.524 334.568 121.022 334.855 115.952 334.855C110.882 334.855 105.379 334.554 103.72 334.187C102.061 333.82 97.3523 332.772 93.2608 331.852C88.1199 330.697 83.1847 328.962 77.3063 326.239C72.6263 324.07 66.0885 320.353 62.7699 317.984C59.4514 315.615 54.8139 311.758 52.4526 309.416C50.0914 307.074 46.3686 302.602 44.1775 299.486C41.9865 296.363 38.909 291.558 37.3419 288.809C35.7748 286.053 33.5341 280.647 32.3712 276.797C31.2083 272.946 29.9106 267.614 29.4923 264.952C29.0739 262.289 28.7335 256.583 28.7335 252.272C28.7335 247.961 29.2299 241.582 29.8326 238.092C30.4354 234.601 31.8677 229.123 33.0235 225.913C34.1723 222.703 36.1152 218.198 37.3277 215.903C38.5474 213.607 41.2561 209.256 43.355 206.227C45.4539 203.197 49.6872 198.245 52.7646 195.216C55.8421 192.186 60.8696 188.002 63.9328 185.92C66.9961 183.831 71.1017 181.328 73.0517 180.347C75.0017 179.373 77.0226 178.225 77.5474 177.798C78.065 177.378 78.9514 176.13 79.5186 175.029C80.3908 173.32 80.5397 161.769 80.5043 20.2081L82.5252 16.2042C83.6385 14.002 85.787 10.999 87.3116 9.52418C88.8361 8.05606 91.9916 5.90058 94.3316 4.73942L98.5861 2.63066H98.5719ZM90.5947 13.675C88.9354 15.4367 87.0988 18.2262 86.5103 19.8745C85.5814 22.4837 85.4396 33.1877 85.4466 101.456L85.4537 180.034C77.4836 183.798 72.7752 186.4 69.8537 188.249C66.9252 190.097 62.1885 193.734 59.3237 196.33C56.459 198.926 52.1903 203.457 49.8361 206.393C47.489 209.33 44.2839 214.134 42.7168 217.071C41.1497 220.007 38.9515 224.959 37.8312 228.082C36.7108 231.205 35.3139 236.156 34.7325 239.093C34.151 242.029 33.6759 248.108 33.6759 252.606C33.683 257.351 34.151 262.95 34.7963 265.953C35.4061 268.795 36.881 273.827 38.0723 277.13C39.2635 280.434 41.1994 284.938 42.3694 287.14C43.5394 289.343 45.9715 293.24 47.7797 295.796C49.5808 298.352 53.6156 302.876 56.7356 305.839C59.8556 308.809 64.6419 312.813 67.3719 314.735C70.1019 316.663 75.3634 319.693 79.0719 321.468C82.7805 323.243 88.361 325.452 91.481 326.379C94.601 327.307 100.026 328.535 103.536 329.116C107.046 329.696 112.626 330.177 115.945 330.177C119.263 330.183 125 329.703 128.708 329.122C132.417 328.542 138.316 327.147 141.826 326.032C145.336 324.918 150.123 323.096 152.463 321.988C154.803 320.881 158.951 318.592 161.681 316.91C164.411 315.222 169.467 311.291 172.92 308.161C176.373 305.038 180.727 300.527 182.606 298.138C184.478 295.756 187.293 291.545 188.861 288.795C190.421 286.039 192.654 281.241 193.817 278.118C194.98 274.995 196.49 270.043 197.178 267.107C198.022 263.49 198.433 258.752 198.462 252.426C198.49 245.846 198.121 241.408 197.221 237.411C196.519 234.288 194.902 229.189 193.626 226.066C192.356 222.943 190.428 218.739 189.343 216.724C188.258 214.708 186.074 211.252 184.493 209.049C182.904 206.847 178.72 202.229 175.196 198.792C171.665 195.356 166.709 191.152 164.184 189.45C161.653 187.748 156.866 185.005 153.548 183.357L147.513 180.354C146.833 28.9569 146.698 21.9432 145.599 19.1938C144.861 17.352 142.94 14.8962 140.635 12.8408C138.309 10.7654 135.523 9.0437 133.332 8.32966C130.424 7.37538 127.304 7.17518 115.959 7.1952C102.982 7.21522 101.869 7.31532 97.877 8.84351C94.8988 9.97797 92.7148 11.4261 90.6088 13.6683L90.5947 13.675ZM219.826 20.5418C221.514 20.5418 221.599 20.722 221.571 24.379C221.55 27.5354 221.847 28.5164 223.237 29.8844C224.166 30.8054 226.889 32.2268 229.293 33.0543C231.69 33.8818 233.817 34.8561 234.008 35.2231C234.2 35.5901 235.639 35.8904 237.199 35.8904C239.61 35.8904 240.624 35.3899 243.936 32.5538C246.935 29.9845 248.084 29.3706 248.899 29.8844C249.786 30.4383 249.346 31.1991 246.339 34.3889C242.915 38.0192 242.737 38.3862 243.049 41.2291C243.227 42.8774 244.205 46.0338 245.212 48.236C246.219 50.4382 247.701 52.914 248.502 53.7415C249.779 55.0561 250.651 55.243 255.629 55.243C261.209 55.243 261.301 55.2697 261.301 56.9113C261.301 58.553 261.209 58.5797 255.629 58.5797C250.658 58.5797 249.771 58.7665 248.474 60.0812C247.658 60.9086 246.183 63.5312 245.191 65.9203C244.198 68.3093 243.241 71.6126 243.056 73.2609C242.737 76.1038 242.907 76.4641 246.339 80.1011C249.346 83.2909 249.779 84.0517 248.899 84.6056C248.084 85.1194 246.893 84.4854 243.758 81.8628C240.014 78.733 239.454 78.4795 236.845 78.7664C235.285 78.9399 232.094 79.8475 229.754 80.7817C227.414 81.716 224.62 83.2575 223.549 84.2118C221.84 85.72 221.599 86.4407 221.599 89.9442C221.599 93.768 221.521 93.9482 219.826 93.9482C218.132 93.9482 218.054 93.768 218.054 89.9442C218.054 86.4407 217.813 85.7267 216.104 84.2118C215.033 83.2642 212.239 81.7227 209.899 80.7817C207.559 79.8475 204.368 78.9399 202.808 78.7664C200.199 78.4795 199.639 78.7264 195.895 81.8628C192.761 84.4854 191.569 85.1194 190.754 84.6056C189.867 84.0517 190.307 83.2909 193.314 80.1011C196.746 76.4641 196.916 76.1038 196.597 73.2609C196.412 71.6126 195.448 68.3093 194.462 65.9203C193.47 63.5312 191.995 60.9086 191.179 60.0812C189.867 58.7532 189.009 58.5797 183.67 58.5797C177.714 58.5797 177.643 58.5596 177.643 56.9113C177.643 55.263 177.714 55.243 183.67 55.243C189.017 55.243 189.86 55.0762 191.151 53.7415C191.952 52.914 193.434 50.4382 194.441 48.236C195.448 46.0338 196.427 42.8774 196.604 41.2291C196.916 38.3862 196.739 38.0192 193.314 34.3889C190.307 31.1991 189.875 30.4383 190.754 29.8844C191.569 29.3706 192.761 30.0046 195.895 32.6272C199.504 35.6435 200.256 35.9972 202.454 35.7169C203.822 35.5434 207.105 34.5357 209.75 33.4747C212.402 32.4203 215.352 30.8788 216.309 30.0513C217.791 28.7767 218.054 27.9425 218.054 24.5458C218.054 20.722 218.132 20.5418 219.826 20.5418ZM202.277 41.1757C200.816 42.6772 198.752 45.48 197.689 47.4019C196.022 50.4382 195.76 51.7062 195.739 56.9113C195.717 62.0898 195.973 63.4245 197.611 66.5876C198.653 68.6096 200.738 71.4591 202.241 72.9273C203.744 74.3954 206.723 76.4975 208.857 77.5986C212.438 79.4471 213.282 79.6006 219.826 79.6006C226.371 79.6006 227.215 79.4471 230.796 77.5986C232.931 76.4975 235.909 74.3954 237.412 72.9273C238.915 71.4591 241 68.6096 242.042 66.5876C243.68 63.4178 243.936 62.0965 243.907 56.9113C243.879 51.3591 243.695 50.585 241.425 46.6278C240.078 44.2788 237.696 41.3358 236.136 40.0879C234.576 38.8467 231.704 37.0849 229.754 36.1774C226.769 34.796 225.194 34.5357 219.805 34.5424C214.182 34.5491 212.892 34.7893 209.169 36.4977C206.836 37.5654 203.737 39.6675 202.277 41.169V41.1757ZM107.436 41.8964H117.363C126.815 41.8964 127.29 41.9631 127.29 43.2311C127.29 44.4923 126.815 44.5657 110.272 44.5657V69.9243H118.781C126.815 69.9243 127.29 69.9977 127.29 71.2589C127.29 72.5202 126.815 72.5936 110.272 72.5936V97.2848H127.29V100.621H110.272V125.313H118.781C126.815 125.313 127.29 125.386 127.29 126.647C127.29 127.909 126.815 127.982 110.272 127.982V153.341H118.781C126.815 153.341 127.29 153.414 127.29 154.675C127.29 155.943 126.815 156.01 107.436 156.01V41.8964ZM108.676 205.426C109.981 205.399 110.272 205.753 110.272 207.394C110.272 209.276 110.052 209.436 106.549 210.077C104.5 210.451 101.068 211.398 98.9265 212.186C96.785 212.973 92.9488 214.882 90.4174 216.437C87.8859 217.985 84.2128 220.881 82.2628 222.863C80.3128 224.852 77.4552 228.716 75.9094 231.452C74.3636 234.188 72.4419 238.832 71.6406 241.769C70.3997 246.313 69.9459 247.134 68.5986 247.274C67.7265 247.368 66.833 247.067 66.599 246.607C66.3721 246.146 66.5636 244.118 67.0316 242.102C67.4996 240.087 69.2297 235.729 70.8819 232.426C72.5908 229.009 75.5336 224.592 77.7176 222.176C79.8306 219.84 83.4683 216.584 85.8083 214.929C88.1483 213.274 91.3392 211.298 92.8992 210.538C94.4592 209.777 98.2883 208.322 101.408 207.308C104.528 206.293 107.797 205.446 108.676 205.426ZM68.0314 250.104C70.2437 250.104 70.5983 250.33 70.8606 251.939C71.0237 252.946 70.9457 254.014 70.6834 254.301C70.421 254.595 69.251 254.742 68.081 254.635C66.2516 254.468 65.9254 254.134 65.7268 252.272C65.507 250.19 65.6063 250.104 68.0314 250.104Z" fill="black"/>
<g clip-path="url(#clip0_0_1)">
<path fill-rule="evenodd" clip-rule="evenodd" d="M99.5719 2.63066L134.317 2.55725L138.572 4.59928C140.912 5.7204 144.053 7.74241 145.549 9.08374C147.046 10.4318 149.038 12.9543 149.981 14.7027C150.924 16.4444 152.009 19.7477 152.399 22.0433C152.832 24.6125 153.108 54.6024 153.115 100.288C153.13 157.732 153.328 174.722 154.009 175.976C154.498 176.877 157.654 179.093 161.135 180.981C164.574 182.843 169.836 186.193 172.835 188.429C175.835 190.658 180.834 195.342 183.954 198.839C187.074 202.336 191.286 208.015 193.314 211.465C195.342 214.915 197.98 220.14 199.178 223.077C200.376 226.013 201.993 231.345 202.759 234.922C203.815 239.813 204.163 244.118 204.17 252.272C204.17 258.238 203.837 264.918 203.418 267.12C203.007 269.323 201.851 273.674 200.866 276.797C199.873 279.92 197.263 285.772 195.072 289.81C192.874 293.847 189.18 299.553 186.854 302.489C184.528 305.425 180.855 309.429 178.685 311.391C176.515 313.353 172.984 316.243 170.843 317.804C168.701 319.372 164.071 322.202 160.561 324.097C157.051 325.992 152.42 328.161 150.279 328.922C148.138 329.683 143.188 331.037 139.288 331.938C135.388 332.839 130.843 333.86 129.184 334.214C127.524 334.568 122.022 334.855 116.952 334.855C111.882 334.855 106.379 334.554 104.72 334.187C103.061 333.82 98.3523 332.772 94.2608 331.852C89.1199 330.697 84.1847 328.962 78.3063 326.239C73.6263 324.07 67.0885 320.353 63.7699 317.984C60.4514 315.615 55.8139 311.758 53.4526 309.416C51.0914 307.074 47.3686 302.602 45.1775 299.486C42.9865 296.363 39.909 291.558 38.3419 288.809C36.7748 286.053 34.5341 280.647 33.3712 276.797C32.2083 272.946 30.9106 267.614 30.4923 264.952C30.0739 262.289 29.7335 256.583 29.7335 252.272C29.7335 247.961 30.2299 241.582 30.8326 238.092C31.4354 234.601 32.8677 229.123 34.0235 225.913C35.1723 222.703 37.1152 218.198 38.3277 215.903C39.5474 213.607 42.2561 209.256 44.355 206.227C46.4539 203.197 50.6872 198.245 53.7646 195.216C56.8421 192.186 61.8696 188.002 64.9328 185.92C67.9961 183.831 72.1017 181.328 74.0517 180.347C76.0017 179.373 78.0226 178.225 78.5474 177.798C79.065 177.378 79.9514 176.13 80.5186 175.029C81.3908 173.32 81.5397 161.769 81.5043 20.2081L83.5252 16.2042C84.6385 14.002 86.787 10.999 88.3116 9.52418C89.8361 8.05606 92.9916 5.90058 95.3316 4.73942L99.5861 2.63066H99.5719ZM91.5947 13.675C89.9354 15.4367 88.0988 18.2262 87.5103 19.8745C86.5814 22.4837 86.4396 33.1877 86.4466 101.456L86.4537 180.034C78.4836 183.798 73.7752 186.4 70.8537 188.249C67.9252 190.097 63.1885 193.734 60.3237 196.33C57.459 198.926 53.1903 203.457 50.8361 206.393C48.489 209.33 45.2839 214.134 43.7168 217.071C42.1497 220.007 39.9515 224.959 38.8312 228.082C37.7108 231.205 36.3139 236.156 35.7325 239.093C35.151 242.029 34.6759 248.108 34.6759 252.606C34.683 257.351 35.151 262.95 35.7963 265.953C36.4061 268.795 37.881 273.827 39.0723 277.13C40.2635 280.434 42.1994 284.938 43.3694 287.14C44.5394 289.343 46.9715 293.24 48.7797 295.796C50.5808 298.352 54.6156 302.876 57.7356 305.839C60.8556 308.809 65.6419 312.813 68.3719 314.735C71.1019 316.663 76.3634 319.693 80.0719 321.468C83.7805 323.243 89.361 325.452 92.481 326.379C95.601 327.307 101.026 328.535 104.536 329.116C108.046 329.696 113.626 330.177 116.945 330.177C120.263 330.183 126 329.703 129.708 329.122C133.417 328.542 139.316 327.147 142.826 326.032C146.336 324.918 151.123 323.096 153.463 321.988C155.803 320.881 159.951 318.592 162.681 316.91C165.411 315.222 170.467 311.291 173.92 308.161C177.373 305.038 181.727 300.527 183.606 298.138C185.478 295.756 188.293 291.545 189.861 288.795C191.421 286.039 193.654 281.241 194.817 278.118C195.98 274.995 197.49 270.043 198.178 267.107C199.022 263.49 199.433 258.752 199.462 252.426C199.49 245.846 199.121 241.408 198.221 237.411C197.519 234.288 195.902 229.189 194.626 226.066C193.356 222.943 191.428 218.739 190.343 216.724C189.258 214.708 187.074 211.252 185.493 209.049C183.904 206.847 179.72 202.229 176.196 198.792C172.665 195.356 167.709 191.152 165.184 189.45C162.653 187.748 157.866 185.005 154.548 183.357L148.513 180.354C147.833 28.9569 147.698 21.9432 146.599 19.1938C145.861 17.352 143.94 14.8962 141.635 12.8408C139.309 10.7654 136.523 9.0437 134.332 8.32966C131.424 7.37538 128.304 7.17518 116.959 7.1952C103.982 7.21522 102.869 7.31532 98.877 8.84351C95.8988 9.97797 93.7148 11.4261 91.6088 13.6683L91.5947 13.675ZM220.826 20.5418C222.514 20.5418 222.599 20.722 222.571 24.379C222.55 27.5354 222.847 28.5164 224.237 29.8844C225.166 30.8054 227.889 32.2268 230.293 33.0543C232.69 33.8818 234.817 34.8561 235.008 35.2231C235.2 35.5901 236.639 35.8904 238.199 35.8904C240.61 35.8904 241.624 35.3899 244.936 32.5538C247.935 29.9845 249.084 29.3706 249.899 29.8844C250.786 30.4383 250.346 31.1991 247.339 34.3889C243.915 38.0192 243.737 38.3862 244.049 41.2291C244.227 42.8774 245.205 46.0338 246.212 48.236C247.219 50.4382 248.701 52.914 249.502 53.7415C250.779 55.0561 251.651 55.243 256.629 55.243C262.209 55.243 262.301 55.2697 262.301 56.9113C262.301 58.553 262.209 58.5797 256.629 58.5797C251.658 58.5797 250.771 58.7665 249.474 60.0812C248.658 60.9086 247.183 63.5312 246.191 65.9203C245.198 68.3093 244.241 71.6126 244.056 73.2609C243.737 76.1038 243.907 76.4641 247.339 80.1011C250.346 83.2909 250.779 84.0517 249.899 84.6056C249.084 85.1194 247.893 84.4854 244.758 81.8628C241.014 78.733 240.454 78.4795 237.845 78.7664C236.285 78.9399 233.094 79.8475 230.754 80.7817C228.414 81.716 225.62 83.2575 224.549 84.2118C222.84 85.72 222.599 86.4407 222.599 89.9442C222.599 93.768 222.521 93.9482 220.826 93.9482C219.132 93.9482 219.054 93.768 219.054 89.9442C219.054 86.4407 218.813 85.7267 217.104 84.2118C216.033 83.2642 213.239 81.7227 210.899 80.7817C208.559 79.8475 205.368 78.9399 203.808 78.7664C201.199 78.4795 200.639 78.7264 196.895 81.8628C193.761 84.4854 192.569 85.1194 191.754 84.6056C190.867 84.0517 191.307 83.2909 194.314 80.1011C197.746 76.4641 197.916 76.1038 197.597 73.2609C197.412 71.6126 196.448 68.3093 195.462 65.9203C194.47 63.5312 192.995 60.9086 192.179 60.0812C190.867 58.7532 190.009 58.5797 184.67 58.5797C178.714 58.5797 178.643 58.5596 178.643 56.9113C178.643 55.263 178.714 55.243 184.67 55.243C190.017 55.243 190.86 55.0762 192.151 53.7415C192.952 52.914 194.434 50.4382 195.441 48.236C196.448 46.0338 197.427 42.8774 197.604 41.2291C197.916 38.3862 197.739 38.0192 194.314 34.3889C191.307 31.1991 190.875 30.4383 191.754 29.8844C192.569 29.3706 193.761 30.0046 196.895 32.6272C200.504 35.6435 201.256 35.9972 203.454 35.7169C204.822 35.5434 208.105 34.5357 210.75 33.4747C213.402 32.4203 216.352 30.8788 217.309 30.0513C218.791 28.7767 219.054 27.9425 219.054 24.5458C219.054 20.722 219.132 20.5418 220.826 20.5418ZM203.277 41.1757C201.816 42.6772 199.752 45.48 198.689 47.4019C197.022 50.4382 196.76 51.7062 196.739 56.9113C196.717 62.0898 196.973 63.4245 198.611 66.5876C199.653 68.6096 201.738 71.4591 203.241 72.9273C204.744 74.3954 207.723 76.4975 209.857 77.5986C213.438 79.4471 214.282 79.6006 220.826 79.6006C227.371 79.6006 228.215 79.4471 231.796 77.5986C233.931 76.4975 236.909 74.3954 238.412 72.9273C239.915 71.4591 242 68.6096 243.042 66.5876C244.68 63.4178 244.936 62.0965 244.907 56.9113C244.879 51.3591 244.695 50.585 242.425 46.6278C241.078 44.2788 238.696 41.3358 237.136 40.0879C235.576 38.8467 232.704 37.0849 230.754 36.1774C227.769 34.796 226.194 34.5357 220.805 34.5424C215.182 34.5491 213.892 34.7893 210.169 36.4977C207.836 37.5654 204.737 39.6675 203.277 41.169V41.1757ZM108.436 41.8964H118.363C127.815 41.8964 128.29 41.9631 128.29 43.2311C128.29 44.4923 127.815 44.5657 111.272 44.5657V69.9243H119.781C127.815 69.9243 128.29 69.9977 128.29 71.2589C128.29 72.5202 127.815 72.5936 111.272 72.5936V97.2848H128.29V100.621H111.272V125.313H119.781C127.815 125.313 128.29 125.386 128.29 126.647C128.29 127.909 127.815 127.982 111.272 127.982V153.341H119.781C127.815 153.341 128.29 153.414 128.29 154.675C128.29 155.943 127.815 156.01 108.436 156.01V41.8964ZM109.676 205.426C110.981 205.399 111.272 205.753 111.272 207.394C111.272 209.276 111.052 209.436 107.549 210.077C105.5 210.451 102.068 211.398 99.9265 212.186C97.785 212.973 93.9488 214.882 91.4174 216.437C88.8859 217.985 85.2128 220.881 83.2628 222.863C81.3128 224.852 78.4552 228.716 76.9094 231.452C75.3636 234.188 73.4419 238.832 72.6406 241.769C71.3997 246.313 70.9459 247.134 69.5986 247.274C68.7265 247.368 67.833 247.067 67.599 246.607C67.3721 246.146 67.5636 244.118 68.0316 242.102C68.4996 240.087 70.2297 235.729 71.8819 232.426C73.5908 229.009 76.5336 224.592 78.7176 222.176C80.8306 219.84 84.4683 216.584 86.8083 214.929C89.1483 213.274 92.3392 211.298 93.8992 210.538C95.4592 209.777 99.2883 208.322 102.408 207.308C105.528 206.293 108.797 205.446 109.676 205.426ZM69.0314 250.104C71.2437 250.104 71.5983 250.33 71.8606 251.939C72.0237 252.946 71.9457 254.014 71.6834 254.301C71.421 254.595 70.251 254.742 69.081 254.635C67.2516 254.468 66.9254 254.134 66.7268 252.272C66.507 250.19 66.6063 250.104 69.0314 250.104Z" fill="black"/>
<line x1="79.6144" y1="32.0394" x2="26.0658" y2="32.0394" stroke="black"/>
<line x1="77.6812" y1="94.5582" x2="24.1326" y2="94.5582" stroke="black"/>
<line x1="77.3235" y1="157.467" x2="19.9771" y2="157.467" stroke="black"/>
</g>
<line x1="42" y1="298.5" x2="22" y2="298.5" stroke="black"/>
<defs>
<clipPath id="clip0_0_1">
<rect width="234" height="335" fill="white" transform="translate(29)"/>
</clipPath>
</defs>
</svg>
