<svg id="time" xmlns="http://www.w3.org/2000/svg" viewBox="0 0 17 17">
  <defs>
    <style>
      .cls-1 {
        fill: #fff;
      }
    </style>
  </defs>
  <g id="Group_2340" data-name="Group 2340" transform="translate(0 0)">
    <path id="Path_2276" data-name="Path 2276" class="cls-1" d="M15.86,4.233A8.464,8.464,0,0,0,12.767,1.14,8.314,8.314,0,0,0,8.5,0,8.314,8.314,0,0,0,4.234,1.14,8.462,8.462,0,0,0,1.14,4.233,8.314,8.314,0,0,0,0,8.5a8.316,8.316,0,0,0,1.14,4.267A8.464,8.464,0,0,0,4.233,15.86,8.315,8.315,0,0,0,8.5,17a8.315,8.315,0,0,0,4.267-1.14,8.462,8.462,0,0,0,3.093-3.093A8.316,8.316,0,0,0,17,8.5,8.316,8.316,0,0,0,15.86,4.233Zm-2.147,7.288a6,6,0,0,1-2.191,2.192,5.885,5.885,0,0,1-3.022.808,5.886,5.886,0,0,1-3.022-.808,6,6,0,0,1-2.191-2.192A5.884,5.884,0,0,1,2.479,8.5a5.885,5.885,0,0,1,.808-3.022A6,6,0,0,1,5.479,3.287,5.885,5.885,0,0,1,8.5,2.479a5.885,5.885,0,0,1,3.022.808,6,6,0,0,1,2.191,2.191A5.885,5.885,0,0,1,14.521,8.5,5.885,5.885,0,0,1,13.713,11.521Z" transform="translate(0 0)"/>
    <path id="Path_2277" data-name="Path 2277" class="cls-1" d="M150.079,109.631h-.708a.341.341,0,0,0-.354.354v3.9h-2.479a.341.341,0,0,0-.354.354v.708a.341.341,0,0,0,.354.354h3.542a.341.341,0,0,0,.354-.354v-4.958a.341.341,0,0,0-.354-.354Z" transform="translate(-140.516 -105.381)"/>
  </g>
</svg>
