<svg xmlns="http://www.w3.org/2000/svg" xmlns:xlink="http://www.w3.org/1999/xlink" width="46" height="44" viewBox="0 0 46 44"><defs><path id="j3o8a" d="M395.049 40.483V35h2.686v5.482z"/><path id="j3o8b" d="M408.538 54.021v-2.696H414v2.696z"/><path id="j3o8c" d="M404.048 43.083l3.799-3.812 1.899 1.906-3.799 3.812z"/><path id="j3o8d" d="M383.057 41.177l1.9-1.907 3.798 3.813-1.9 1.906z"/><path id="j3o8e" d="M397.752 56.803c-.129 0-.257.004-.383.01-1.207-4.698-5.467-8.098-10.403-8.098-5.947 0-10.786 4.838-10.786 10.784l.001.096c-4.569.656-8.18 4.595-8.18 9.34 0 5.203 4.324 9.437 9.527 9.437h20.224c5.947 0 10.786-4.838 10.786-10.784 0-5.947-4.839-10.785-10.786-10.785z"/><path id="j3o8f" d="M396.408 43.218c-2.697 0-5.111 1.154-6.826 2.978a13.393 13.393 0 0 1 9.73 7.897c2.127.248 4.073 1.04 5.78 2.169a9.428 9.428 0 0 0 .718-3.608c0-5.211-4.21-9.436-9.402-9.436z"/></defs><g><g transform="translate(-368 -35)"><g><g><g><use fill="#fff" xlink:href="#j3o8a"/></g></g></g><g><g><g><use fill="#fff" xlink:href="#j3o8b"/></g></g></g><g><g><g><use fill="#fff" xlink:href="#j3o8c"/></g></g></g><g><g><g><use fill="#fff" xlink:href="#j3o8d"/></g></g></g><g><g><g><use fill="#fff" xlink:href="#j3o8e"/></g></g></g><g><g><g><use fill="#fff" xlink:href="#j3o8f"/></g></g></g></g></g></svg>