<svg xmlns="http://www.w3.org/2000/svg" viewBox="0 0 310.742 517.875">
  <defs>
    <style>
      .cls-1 {
        fill: #e2f7fa;
      }

      .cls-2 {
        fill: #c0eff5;
      }
    </style>
  </defs>
  <g id="_4" data-name="4" transform="translate(-1214.259 -3239)">
    <g id="Group_4292" data-name="Group 4292" transform="translate(1344.355 3401.581)">
      <rect id="Rectangle_4099" data-name="Rectangle 4099" class="cls-1" width="81.29" height="31.613"/>
    </g>
    <g id="Group_4293" data-name="Group 4293" transform="translate(1470.806 3243.516)">
      <rect id="Rectangle_4100" data-name="Rectangle 4100" class="cls-1" width="54.194" height="58.71"/>
    </g>
    <g id="Group_4294" data-name="Group 4294" transform="translate(1321.774 3315.774)">
      <path id="Path_8186" data-name="Path 8186" class="cls-1" d="M125.479,41.168l-.492-.623A60.077,60.077,0,0,0,18,78.074v43.8h4.516a18.065,18.065,0,0,1,18.065-18.064V99.29a9.03,9.03,0,0,1,9.032-9.032H67.677A32.706,32.706,0,0,0,90.8,80.679l3.97-3.97,3.97,3.97a32.694,32.694,0,0,0,16.05,8.806,9,9,0,0,1,7.077,8.784v5.537a18.065,18.065,0,0,1,18.065,18.064h4.516V67.3A27.506,27.506,0,0,0,125.479,41.168Z" transform="translate(-18 -18)"/>
    </g>
    <g id="Group_4295" data-name="Group 4295" transform="translate(1245 3374.484)">
      <path id="Path_8187" data-name="Path 8187" class="cls-1" d="M64.226,130.355H1V31H64.226Z" transform="translate(-1 -31)"/>
    </g>
    <g id="Group_4296" data-name="Group 4296" transform="translate(1258.548 3239)">
      <rect id="Rectangle_4101" data-name="Rectangle 4101" class="cls-1" width="18.065" height="63.226"/>
    </g>
    <g id="Group_4297" data-name="Group 4297" transform="translate(1294.677 3252.548)">
      <rect id="Rectangle_4102" data-name="Rectangle 4102" class="cls-1" width="18.065" height="49.677"/>
    </g>
    <g id="Group_4298" data-name="Group 4298" transform="translate(1330.806 3270.613)">
      <rect id="Rectangle_4103" data-name="Rectangle 4103" class="cls-1" width="18.065" height="31.613"/>
    </g>
    <path id="Path_8188" data-name="Path 8188" class="cls-2" d="M192.529,140.52l-47.681-8.942v-9.8h-.027a46.731,46.731,0,0,0,3.807-3.17,45.153,45.153,0,0,0,10.527-14.971,22.545,22.545,0,0,0,3.757-44.628V57.532a13.46,13.46,0,0,0-10.622-13.2,28.084,28.084,0,0,1-13.828-7.587L131.3,29.586l-7.163,7.163A28.009,28.009,0,0,1,104.2,45H86.138A13.565,13.565,0,0,0,72.59,58.552v.456a22.562,22.562,0,0,0,4.168,44.669,46.617,46.617,0,0,0,14.23,18.1h-.334v9.8L42.973,140.52C28.477,143.239,207.026,143.239,192.529,140.52ZM171.945,81.133a13.533,13.533,0,0,1-9.872,12.979,44.888,44.888,0,0,0,.84-8.463V68.416A13.53,13.53,0,0,1,171.945,81.133Zm-85.806-27.1H104.2a36.971,36.971,0,0,0,26.32-10.9l.777-.777.777.777A37.168,37.168,0,0,0,150.34,53.156a4.467,4.467,0,0,1,3.541,4.376v1.021H81.622A4.518,4.518,0,0,1,86.138,54.036Zm-22.581,27.1A13.53,13.53,0,0,1,72.59,68.416V84.254a47.947,47.947,0,0,0,1.07,9.926A13.528,13.528,0,0,1,63.558,81.133Zm18.065,3.121V67.585H153.88V85.649A36.126,36.126,0,0,1,115.34,121.7C96.431,120.478,81.622,104.025,81.622,84.254Zm33.135,46.462c1.016.063,2.032.095,3.039.095a44.8,44.8,0,0,0,18.019-3.785v7.434c-.98,2.154-35.1,2.213-36.129-.018v-7.533A43.432,43.432,0,0,0,114.757,130.716Z" transform="translate(1267.249 3338.512)"/>
    <rect id="Rectangle_4104" data-name="Rectangle 4104" class="cls-2" width="27.097" height="9.032" transform="translate(1263.064 3392.548)"/>
    <rect id="Rectangle_4105" data-name="Rectangle 4105" class="cls-2" width="27.097" height="9.032" transform="translate(1263.064 3410.613)"/>
    <rect id="Rectangle_4106" data-name="Rectangle 4106" class="cls-2" width="27.097" height="9.032" transform="translate(1263.064 3428.677)"/>
    <rect id="Rectangle_4107" data-name="Rectangle 4107" class="cls-2" width="27.097" height="9.032" transform="translate(1263.064 3446.742)"/>
    <rect id="Rectangle_4108" data-name="Rectangle 4108" class="cls-2" width="117.419" height="9.032" transform="translate(1245 3297.71)"/>
    <path id="Path_8189" data-name="Path 8189" class="cls-2" d="M96.326,1,36.293,61.033l6.386,6.386,57.386-57.386h56.84V1Z" transform="translate(1368.095 3238)"/>
    <rect id="Rectangle_4109" data-name="Rectangle 4109" class="cls-2" width="54.194" height="9.032" transform="translate(1470.806 3257.064)"/>
    <rect id="Rectangle_4110" data-name="Rectangle 4110" class="cls-2" width="54.194" height="9.032" transform="translate(1470.806 3275.129)"/>
    <rect id="Rectangle_4111" data-name="Rectangle 4111" class="cls-2" width="9.032" height="9.032" transform="translate(1515.968 3293.194)"/>
    <rect id="Rectangle_4112" data-name="Rectangle 4112" class="cls-2" width="36.129" height="9.032" transform="translate(1470.806 3293.194)"/>
    <rect id="Rectangle_4113" data-name="Rectangle 4113" class="cls-2" width="9.032" height="13.548" transform="translate(1493.387 3342.871)"/>
    <rect id="Rectangle_4114" data-name="Rectangle 4114" class="cls-2" width="9.032" height="13.548" transform="translate(1475.55 3354.006) rotate(-45)"/>
    <rect id="Rectangle_4115" data-name="Rectangle 4115" class="cls-2" width="13.548" height="9.032" transform="translate(1470.806 3365.452)"/>
    <rect id="Rectangle_4116" data-name="Rectangle 4116" class="cls-2" width="13.548" height="9.032" transform="translate(1475.552 3385.933) rotate(-45)"/>
    <rect id="Rectangle_4117" data-name="Rectangle 4117" class="cls-2" width="9.032" height="13.548" transform="translate(1493.387 3383.516)"/>
    <rect id="Rectangle_4118" data-name="Rectangle 4118" class="cls-2" width="9.032" height="13.548" transform="translate(1504.288 3382.74) rotate(-45)"/>
    <rect id="Rectangle_4119" data-name="Rectangle 4119" class="cls-2" width="13.548" height="9.032" transform="translate(1511.452 3365.452)"/>
    <rect id="Rectangle_4120" data-name="Rectangle 4120" class="cls-2" width="13.548" height="9.032" transform="translate(1504.286 3357.195) rotate(-45)"/>
    <rect id="Rectangle_4121" data-name="Rectangle 4121" class="cls-2" width="9.032" height="31.613" transform="translate(1493.387 3406.097)"/>
    <rect id="Rectangle_4122" data-name="Rectangle 4122" class="cls-2" width="9.032" height="9.032" transform="translate(1493.387 3446.742)"/>
    <path id="Path_8190" data-name="Path 8190" class="cls-1" d="M130.217,45.109A21.109,21.109,0,1,1,109.109,24,21.11,21.11,0,0,1,130.217,45.109Zm0,0" transform="translate(1172.698 3483.792)"/>
    <path id="Path_8191" data-name="Path 8191" class="cls-1" d="M384,8h64.581V44.9H384Zm0,0" transform="translate(1076.419 3492.613)"/>
    <path id="Path_8192" data-name="Path 8192" class="cls-1" d="M432,112h18.452v87.645H432Zm0,0" transform="translate(1056.097 3448.581)"/>
    <path id="Path_8193" data-name="Path 8193" class="cls-1" d="M368,160h18.452v59.968H368Zm0,0" transform="translate(1083.194 3428.258)"/>
    <path id="Path_8194" data-name="Path 8194" class="cls-1" d="M304,200h18.452v36.9H304Zm0,0" transform="translate(1110.29 3411.323)"/>
    <path id="Path_8206" data-name="Path 8206" class="cls-1" d="M304,200h18.452v21.923H304Zm0,0" transform="translate(1073.29 3426.303)"/>
    <path id="Path_8195" data-name="Path 8195" class="cls-2" d="M98.961,45.8a31.271,31.271,0,0,0,2.36-12.024,33.774,33.774,0,1,0-67.544.569A31.176,31.176,0,0,0,36.151,45.8a67.451,67.451,0,0,0,14.51,125.077v10.668H42.217v8.443h8.443v8.443H42.217v8.443h8.443v38a16.887,16.887,0,0,0,33.774,0v-38h8.443v-8.443H84.435v-8.443h8.443v-8.443H84.435V170.873A67.451,67.451,0,0,0,98.961,45.8Zm-35.7-37A26.988,26.988,0,0,1,67.6,8.446,25,25,0,0,1,83.94,14.473,25.287,25.287,0,0,1,92.878,33.78c0,12.158-8.241,18.334-13.7,21.109H71.77V45.668a12.665,12.665,0,1,0-8.443,0v9.221H55.913C50.548,52.158,42.419,46.1,42.222,34.211,42.015,21.917,51.257,10.755,63.258,8.8ZM75.991,63.332v8.443H59.1V63.332ZM63.326,33.78A4.222,4.222,0,1,1,67.548,38,4.227,4.227,0,0,1,63.326,33.78ZM75.991,80.219a8.443,8.443,0,0,1-16.887,0ZM67.548,97.106A16.9,16.9,0,0,0,84.435,80.219V66.925a42.217,42.217,0,1,1-33.774,0V80.219A16.9,16.9,0,0,0,67.548,97.106Zm8.443,147.761a8.443,8.443,0,0,1-16.887,0v-38H75.991Zm0-46.439H59.1v-8.443H75.991Zm0-16.887H59.1V172.51a67.136,67.136,0,0,0,8.443.587,67.136,67.136,0,0,0,8.443-.587Zm-8.443-16.887a59.064,59.064,0,0,1-27.1-111.563,33.155,33.155,0,0,0,6.539,6.234,50.661,50.661,0,1,0,41.129,0A33.219,33.219,0,0,0,94.668,53.1a59.064,59.064,0,0,1-27.12,111.554Zm0,0" transform="translate(1214.259 3495.12)"/>
    <path id="Path_8196" data-name="Path 8196" class="cls-2" d="M120,216h8.443v8.443H120Zm0,0" transform="translate(1157.585 3393.113)"/>
    <path id="Path_8197" data-name="Path 8197" class="cls-2" d="M160,216h8.443v8.443H160Zm0,0" transform="translate(1138.694 3393.113)"/>
    <path id="Path_8198" data-name="Path 8198" class="cls-2" d="M80,216h8.443v8.443H80Zm0,0" transform="translate(1176.476 3393.113)"/>
    <path id="Path_8199" data-name="Path 8199" class="cls-2" d="M272,256H434.6v9.226H272Zm0,0" transform="translate(1090.399 3387.613)"/>
    <path id="Path_8200" data-name="Path 8200" class="cls-2" d="M384,0h64.581V9.226H384Zm0,0" transform="translate(1076.419 3496)"/>
    <path id="Path_8201" data-name="Path 8201" class="cls-2" d="M384,64h64.581v9.226H384Zm0,0" transform="translate(1076.419 3468.903)"/>
    <path id="Path_8202" data-name="Path 8202" class="cls-2" d="M384,32h9.226v9.226H384Zm0,0" transform="translate(1076.419 3482.452)"/>
    <path id="Path_8203" data-name="Path 8203" class="cls-2" d="M416,32h46.129v9.226H416Zm0,0" transform="translate(1062.871 3482.452)"/>
    <path id="Path_8205" data-name="Path 8205" class="cls-2" d="M256.526,71.39,271.32,30.718a4.623,4.623,0,0,1,4.331-3.041h21.22V18.452h-21.22a13.859,13.859,0,0,0-13,9.111l-14.8,40.676a1.513,1.513,0,0,1-2.791-.216l-11.381-56.9A13.874,13.874,0,0,0,220.112,0H200V9.226h20.112a4.612,4.612,0,0,1,4.521,3.71l11.381,56.9a10.682,10.682,0,0,0,20.513,1.559Zm0,0" transform="translate(1154.323 3496)"/>
  </g>
</svg>
