<svg xmlns="http://www.w3.org/2000/svg" viewBox="0 0 393.398 560.939">
  <defs>
    <style>
      .cls-1, .cls-3, .cls-4 {
        fill: #e2f7fa;
      }

      .cls-2 {
        fill: #c0eff5;
      }

      .cls-3, .cls-4 {
        stroke: #e2f7fa;
        stroke-width: 3px;
      }

      .cls-4 {
        stroke-linecap: round;
        stroke-linejoin: round;
      }
    </style>
  </defs>
  <g id="_2" data-name="2" transform="translate(-1187.111 -1209.568)">
    <g id="Group_4258" data-name="Group 4258" transform="translate(20518.076 -17701.432)">
      <path id="Path_8161" data-name="Path 8161" class="cls-1" d="M313.059,100.469H123.709a5.912,5.912,0,0,1-5.917-5.917V82.717a5.921,5.921,0,0,1,2.367-4.734L214.834,6.977a5.885,5.885,0,0,1,7.095,0L316.6,77.984a5.9,5.9,0,0,1,2.367,4.734V94.552A5.9,5.9,0,0,1,313.059,100.469Z" transform="translate(-19343.666 18905.213)"/>
      <path id="Path_8162" data-name="Path 8162" class="cls-2" d="M353.4,287.643h22.036l-54.107-94.675H276.474V133.8H264.64v59.172H217.3V145.63H158.131v47.337H110.793V133.8H98.959v59.172H54.107L0,287.643H22.036V394.152H76.586l-2.959,11.834H301.806l-2.959-11.834H353.4ZM169.965,157.465h35.5v35.5h-35.5ZM57.539,382.318v-35.5H81.207v28.846l-1.663,6.657Zm31.249,11.834,2.959-11.834H283.688l2.959,11.834Zm27.923-71.006h11.834v47.337H116.711Zm82.841,47.337H175.882v-35.5h23.669Zm47.337-47.337h11.834v47.337H246.889Zm47.337,52.515V346.815h23.669v35.5H295.889Zm35.5,6.657V334.98H282.392v35.5H270.557V322.057a17.727,17.727,0,0,0,11.834-16.663v-5.917H270.557v5.917a5.919,5.919,0,0,1-5.917,5.917H240.971a5.919,5.919,0,0,1-5.917-5.917v-5.917H223.22v5.917a17.727,17.727,0,0,0,11.834,16.663v48.426H211.385V323.146H164.048v47.337H140.379V322.057a17.728,17.728,0,0,0,11.834-16.663v-5.917H140.379v5.917a5.919,5.919,0,0,1-5.917,5.917H110.793a5.919,5.919,0,0,1-5.917-5.917v-5.917H93.042v5.917a17.727,17.727,0,0,0,11.834,16.663v48.426H93.042v-35.5H45.7v47.337H33.87V287.643H81.207V275.808H20.4L60.971,204.8H314.463l40.568,71.006h-60.8v11.834h47.337v94.675Z" transform="translate(-19313 18871.887)"/>
      <path id="Path_8163" data-name="Path 8163" class="cls-1" d="M316.893,320.305H115.709a5.912,5.912,0,0,1-5.917-5.917V290.719a5.919,5.919,0,0,1,2.5-4.834l100.592-71.006a5.924,5.924,0,0,1,6.828,0l100.592,71.006a5.927,5.927,0,0,1,2.5,4.834v23.669A5.912,5.912,0,0,1,316.893,320.305Z" transform="translate(-19341.586 18851.055)"/>
      <path id="Path_8164" data-name="Path 8164" class="cls-2" d="M241.3,261.8a35.5,35.5,0,1,0,35.5,35.5A35.539,35.539,0,0,0,241.3,261.8Zm0,59.172A23.669,23.669,0,1,1,264.964,297.3,23.693,23.693,0,0,1,241.3,320.968Z" transform="translate(-19366.578 18829.559)"/>
      <rect id="Rectangle_4005" data-name="Rectangle 4005" class="cls-2" width="35.503" height="11.834" transform="translate(-19208.123 19135.859)"/>
      <rect id="Rectangle_4006" data-name="Rectangle 4006" class="cls-2" width="35.503" height="11.834" transform="translate(-19077.945 19135.859)"/>
    </g>
    <path id="Path_8136" data-name="Path 8136" class="cls-1" d="M288,136H529.291v23.6H288Zm0,0" transform="translate(1029.647 1456.483)"/>
    <path id="Path_8167" data-name="Path 8167" class="cls-2" d="M288,128H567.811v11.8H288Zm0,0" transform="translate(991.129 1458.582)"/>
    <path id="Path_8166" data-name="Path 8166" class="cls-2" d="M288,160H482.065v11.8H288Zm0,0" transform="translate(1009.617 1450.188)"/>
    <path id="Path_8169" data-name="Path 8169" class="cls-2" d="M288,160h29.4v11.8H288Zm0,0" transform="translate(1209.843 1450.188)"/>
    <path id="Path_8170" data-name="Path 8170" class="cls-2" d="M288,160h13.819v11.8H288Zm0,0" transform="translate(1248.424 1450.188)"/>
    <g id="Group_4261" data-name="Group 4261" transform="translate(4 -69)">
      <path id="Path_8152" data-name="Path 8152" class="cls-3" d="M413.527,331.054A23.482,23.482,0,0,1,390.073,307.6V279.454A14.091,14.091,0,0,0,376,265.382V256a23.482,23.482,0,0,1,23.454,23.454V307.6a14.091,14.091,0,0,0,14.073,14.073Zm0,0" transform="translate(991.557 1489.689)"/>
      <path id="Path_8153" data-name="Path 8153" class="cls-3" d="M280,331.054v-9.382A14.091,14.091,0,0,0,294.073,307.6V279.454A23.482,23.482,0,0,1,317.527,256v9.382a14.091,14.091,0,0,0-14.073,14.073V307.6A23.482,23.482,0,0,1,280,331.054Zm0,0" transform="translate(1031.266 1489.689)"/>
      <path id="Path_8154" data-name="Path 8154" class="cls-3" d="M221.527,284.727a23.482,23.482,0,0,1-23.454-23.455V167.454A14.091,14.091,0,0,0,184,153.382V144a23.482,23.482,0,0,1,23.454,23.454v93.818a14.091,14.091,0,0,0,14.073,14.073Zm0,0" transform="translate(1070.975 1536.018)"/>
      <path id="Path_8155" data-name="Path 8155" class="cls-3" d="M78.073,284.727H64v-9.382H78.073a14.091,14.091,0,0,0,14.073-14.073V167.454A23.482,23.482,0,0,1,115.6,144v9.382a14.091,14.091,0,0,0-14.073,14.073v93.818A23.482,23.482,0,0,1,78.073,284.727Zm0,0" transform="translate(1120.611 1536.018)"/>
      <path id="Path_8160" data-name="Path 8160" class="cls-4" d="M480,368H602.163v9.382H480Zm0,0" transform="translate(950.006 1443.363)"/>
    </g>
    <g id="Group_4256" data-name="Group 4256" transform="translate(1235.52 1592.254)">
      <path id="Path_8156" data-name="Path 8156" class="cls-2" d="M455.454,382.909H436.691A4.694,4.694,0,0,1,432,378.218V340.691A4.694,4.694,0,0,1,436.691,336h18.764a4.694,4.694,0,0,1,4.691,4.691v37.527A4.694,4.694,0,0,1,455.454,382.909Zm0,0" transform="translate(-263.128 -204.655)"/>
      <path id="Path_8157" data-name="Path 8157" class="cls-2" d="M167.454,158.909H148.691A4.694,4.694,0,0,1,144,154.218V116.691A4.694,4.694,0,0,1,148.691,112h18.764a4.694,4.694,0,0,1,4.691,4.691v37.527A4.694,4.694,0,0,1,167.454,158.909Zm0,0" transform="translate(-144 -112)"/>
      <path id="Path_8158" data-name="Path 8158" class="cls-2" d="M263.454,382.909H244.691A4.694,4.694,0,0,1,240,378.218V340.691A4.694,4.694,0,0,1,244.691,336h18.764a4.694,4.694,0,0,1,4.691,4.691v37.527A4.694,4.694,0,0,1,263.454,382.909Zm0,0" transform="translate(-183.709 -204.655)"/>
      <path id="Path_8159" data-name="Path 8159" class="cls-2" d="M359.454,270.909H340.691A4.694,4.694,0,0,1,336,266.218V228.691A4.694,4.694,0,0,1,340.691,224h18.764a4.694,4.694,0,0,1,4.691,4.691v37.527A4.694,4.694,0,0,1,359.454,270.909Zm0,0" transform="translate(-223.418 -158.327)"/>
    </g>
  </g>
</svg>
