<svg xmlns="http://www.w3.org/2000/svg" viewBox="0 0 360.001 583.242">
  <defs>
    <style>
      .cls-1, .cls-5 {
        fill: none;
        stroke: #bfeef4;
        stroke-width: 12px;
      }

      .cls-2 {
        opacity: 0.246;
      }

      .cls-3 {
        fill: rgba(0,188,212,0.46);
      }

      .cls-4 {
        fill: #00bcd4;
      }

      .cls-5 {
        stroke-linecap: round;
      }

      .cls-6 {
        fill: #bfeef4;
      }
    </style>
  </defs>
  <g id="_1" data-name="1" transform="translate(-1213.036 -366.166)">
    <path id="Path_8128" data-name="Path 8128" class="cls-1" d="M-16161.963,17927.684v-9.727" transform="translate(17555 -17318.268)"/>
    <g id="Group_4241" data-name="Group 4241" transform="translate(22)">
      <g id="innovation" class="cls-2" transform="translate(1191.033 442)">
        <g id="Group_4154" data-name="Group 4154" transform="translate(87.1 23.23)">
          <path id="Path_8117" data-name="Path 8117" class="cls-3" d="M301.09,314.772l-17.512-3.333c-.6-1.591-1.272-3.193-2-4.784l10.034-14.76a5.808,5.808,0,0,0-.7-7.374L266.28,259.89a5.808,5.808,0,0,0-7.374-.7l-14.76,10.034c-1.527-.7-3.043-1.283-4.552-1.858a34.808,34.808,0,0,1-53.379-.006c-1.521.581-3.043,1.161-4.552,1.858L166.9,259.187a5.816,5.816,0,0,0-7.374.7L134.9,284.515a5.807,5.807,0,0,0-.7,7.374l10.034,14.76c-.732,1.591-1.4,3.194-2,4.785l-17.512,3.333A5.811,5.811,0,0,0,120,320.474v34.839a5.8,5.8,0,0,0,4.715,5.7l17.512,3.333c.6,1.591,1.272,3.193,2,4.784L134.2,383.893a5.807,5.807,0,0,0,.7,7.374L159.528,415.9a5.808,5.808,0,0,0,7.374.7l14.76-10.034c1.591.732,3.194,1.4,4.785,2l3.333,17.512a5.81,5.81,0,0,0,5.708,4.721h34.839a5.8,5.8,0,0,0,5.7-4.715l3.333-17.512c1.591-.6,3.194-1.272,4.785-2l14.76,10.034a5.794,5.794,0,0,0,7.374-.7l24.631-24.631a5.807,5.807,0,0,0,.7-7.374l-10.034-14.76c.732-1.591,1.4-3.194,2-4.785l17.512-3.333a5.811,5.811,0,0,0,4.721-5.708V320.474A5.8,5.8,0,0,0,301.09,314.772Zm-88.183,57.96a34.839,34.839,0,1,1,34.839-34.839A34.837,34.837,0,0,1,212.907,372.733Z" transform="translate(-120.003 -94.022)"/>
          <circle id="Ellipse_1210" data-name="Ellipse 1210" class="cls-3" cx="52.258" cy="52.258" r="52.258" transform="translate(40.645)"/>
        </g>
        <path id="Path_8118" data-name="Path 8118" class="cls-4" d="M232.648,312.006a40.645,40.645,0,1,0,40.645,40.645A40.694,40.694,0,0,0,232.648,312.006Zm0,69.678a29.032,29.032,0,1,1,29.032-29.032A29.065,29.065,0,0,1,232.648,381.684Z" transform="translate(-52.645 -85.549)"/>
        <rect id="Rectangle_3950" data-name="Rectangle 3950" class="cls-4" width="34.839" height="11.613" transform="translate(23.229 185.811)"/>
        <rect id="Rectangle_3951" data-name="Rectangle 3951" class="cls-4" width="34.839" height="11.613" transform="translate(23.229 209.037)"/>
        <rect id="Rectangle_3952" data-name="Rectangle 3952" class="cls-4" width="34.839" height="11.613" transform="translate(301.94 185.811)"/>
        <rect id="Rectangle_3953" data-name="Rectangle 3953" class="cls-4" width="34.839" height="11.613" transform="translate(301.94 209.037)"/>
        <path id="Path_8119" data-name="Path 8119" class="cls-4" d="M325.166,104.521H249.542a75.078,75.078,0,0,0,5.574-23.226h75.856a29.032,29.032,0,0,0,0-58.065h-96.62c-.679-.7-1.295-1.446-2-2.131A74.8,74.8,0,0,0,126.073,23.23H51.21l-42,15.747a14.189,14.189,0,0,0-.006,26.57l42,15.747h53.652a74.98,74.98,0,0,0,5.621,23.226H34.842v58.065H0v81.291H81.294V162.586H46.455V116.134h69.678v-.778a75.528,75.528,0,0,0,23.226,23.673v6.137H127.745v11.613h11.613v11.613H127.745V180h12.077a40.59,40.59,0,0,0,80.362,0h12.077V168.392H220.649V156.779h11.613V145.166H220.649v-6.143A75.561,75.561,0,0,0,243.875,115.3v.83h69.678v46.452H278.714v81.291H360V162.586H325.166ZM69.681,232.263H11.616V174.2H69.681ZM253.4,58.069h25.31V69.682H255.2A74.957,74.957,0,0,0,253.4,58.069Zm36.923-23.226H301.94V69.682H290.327Zm58.065,17.419a17.441,17.441,0,0,1-17.419,17.419H313.553V34.843h17.419A17.441,17.441,0,0,1,348.391,52.263ZM278.714,34.843V46.456h-29a74.6,74.6,0,0,0-6.155-11.613ZM58.068,58.069h48.606a72.669,72.669,0,0,0-1.841,11.613H58.068Zm0-11.613V34.843h58.75a76.083,76.083,0,0,0-6.492,12.188v-.575ZM11.616,52.263a2.581,2.581,0,0,1,1.672-2.41L46.455,37.415V67.11L13.282,54.672A2.584,2.584,0,0,1,11.616,52.263ZM180,203.231a29.087,29.087,0,0,1-28.446-23.226H208.45A29.087,29.087,0,0,1,180,203.231Zm29.032-34.839H150.971V156.779h58.065ZM162.584,87.1H150.971a11.613,11.613,0,1,1,11.613-11.613Zm23.226,58.065H174.2V98.714H185.81Zm26.123-14.423-2.9,1.678v12.745H197.423V98.714h11.613A23.226,23.226,0,1,0,185.81,75.488V87.1H174.2V75.488a23.226,23.226,0,1,0-23.226,23.226h11.613v46.452H150.971V132.421l-2.9-1.678A63.925,63.925,0,0,1,116.15,73.99c.761-33.1,28.278-61.061,61.345-62.321.848-.041,1.684-.052,2.526-.052a63.866,63.866,0,0,1,63.854,63.871A64.1,64.1,0,0,1,211.933,130.743ZM197.423,87.1V75.488A11.613,11.613,0,1,1,209.036,87.1ZM348.391,232.263H290.327V174.2h58.065Z"/>
      </g>
      <path id="Path_8122" data-name="Path 8122" class="cls-5" d="M-16161.963,18118.746v-50.678h68.838v-37.383h-68.838l-.068-110.209" transform="translate(17533 -17175.338)"/>
      <g id="Group_4240" data-name="Group 4240" transform="translate(2742.074 662.648) rotate(180)">
        <path id="Path_8123" data-name="Path 8123" class="cls-5" d="M-16161.963,17938.59v-20.631" transform="translate(17533 -17672.094)"/>
        <path id="Path_8124" data-name="Path 8124" class="cls-5" d="M-16161.963,17971.576v-53.617" transform="translate(17567 -17681.094)"/>
        <path id="Path_8127" data-name="Path 8127" class="cls-5" d="M-16161.963,17950.59v-32.629" transform="translate(17603 -17700.094)"/>
        <path id="Path_8125" data-name="Path 8125" class="cls-5" d="M-16161.963,17931.59v-13.631" transform="translate(17463 -17697.094)"/>
        <path id="Path_8126" data-name="Path 8126" class="cls-5" d="M-16161.7,17951.014v-33.057" transform="translate(17499 -17677.236)"/>
      </g>
    </g>
    <g id="question_5_" data-name="question (5)" transform="translate(1376.896 691.517)">
      <path id="Path_8130" data-name="Path 8130" class="cls-6" d="M15.035,22h-2.69A1.271,1.271,0,0,0,11,23.345v2.69a1.271,1.271,0,0,0,1.345,1.345h2.69a1.271,1.271,0,0,0,1.345-1.345v-2.69A1.271,1.271,0,0,0,15.035,22Z" transform="translate(2.414 7.586)"/>
      <path id="Path_8131" data-name="Path 8131" class="cls-6" d="M16.1,0A12.053,12.053,0,0,0,4,12.1a10.179,10.179,0,0,0,.134,2.017A1.433,1.433,0,0,0,5.883,15.2l2.555-.807a1.239,1.239,0,0,0,.941-1.479V12.1a6.724,6.724,0,0,1,13.448,0c0,2.286-1.345,3.362-3.766,5.379-2.286,1.883-4.976,4.035-5.648,7.935A1.307,1.307,0,0,0,14.759,26.9h2.69a1.31,1.31,0,0,0,1.345-1.076c.4-1.614,1.614-2.69,3.631-4.169,2.555-2.017,5.783-4.572,5.783-9.548A12.053,12.053,0,0,0,16.1,0Z"/>
    </g>
  </g>
</svg>
